<svg id="Layer_1" xmlns="http://www.w3.org/2000/svg" version="1.1" viewBox="0 0 168.1 86.4"><defs><style>.st1,.st10,.st2,.st3,.st4,.st5,.st7,.st8,.st9{stroke-linecap:round;stroke-linejoin:round}.st1,.st10,.st4,.st5,.st7,.st8{stroke-width:.4px}.st10,.st3{stroke:#840000}.st1,.st10,.st2,.st3,.st4,.st5,.st8,.st9{fill:none}.st1,.st9{stroke:#a90000}.st2,.st9{font-family:ArialMT,Arial;font-size:4.8px;stroke-width:.4px}.st2,.st8{stroke:#0f0f0f}.st3{stroke-width:.7px}.st12{letter-spacing:.7em}.st4,.st7{stroke:#009600}.st15{letter-spacing:.7em}.st5{stroke:#006464}.st17{isolation:isolate;opacity:0}.st18{letter-spacing:.6em}.st7{fill:#009600}</style></defs><path class="st10" d="M86.6 68.1v3.6h3.6l-3.6 3.6-3.6-3.6h3.6M86.6 68.1h0"/><path class="st5" d="m83.9 80.7-.3-.2M83.5 80.5H83M83 80.5l-.5.2M82.5 80.7l-.3.3M82.2 81l-.2.3M82 81.4l-.2.7M81.8 82v.5M81.8 82.6l.2.7M82 83.2l.2.3M82.2 83.6l.3.3M82.5 83.9l.5.2M83 84.1h.3M83.4 84.1l.5-.2M83.9 83.9l.2-.2M84 83.8v-1.2M84 82.6h-.7M85.6 84.1v-3.6M85.6 80.5l2.1 3.6M87.6 84.1v-3.6M89.4 84.1v-3.6M89.4 80.5h.9M90.2 80.5l.5.2M90.7 80.7l.3.3M91.1 81l.2.3M91.2 81.4l.2.7M91.4 82v.5M91.4 82.6l-.2.7M91.2 83.2l-.2.3M91.1 83.6l-.3.3M90.7 83.9l-.5.2M90.2 84.1h-.9"/><path style="fill:#ffffc2" d="M61.4 3.3h50.4v50.4H61.4z"/><path class="st3" d="M61.4 3.3h50.4v50.4H61.4z"/><circle cx="79.4" cy="28.5" r=".7" style="stroke:#840000;stroke-width:.4px;stroke-linecap:round;stroke-linejoin:round;fill:#840000"/><path class="st3" d="M88.4 33.5V23.4M89.1 33.5V23.4M89.9 23.4v10.1M108.2 28.5h-1.1M108.2 25.6v5.8"/><path class="st10" d="M61.4 46.5H65v-1.4M61.4 39.3H65v-1.4M61.4 17.7H65v1.4M61.4 10.5H65v1.4M65 28.5v3.6h-3.6M65 28.5v-3.6h-3.6"/><path class="st3" d="m90.9 37.1-2.2-.7 1.8-1.1M90.9 20.2l-2.2.7 1.8 1.1M111.8 35.7h-2.2v-4.3M111.8 21.3h-2.2v4.3"/><path class="st10" d="M65 28.5h14.4v2.9l1.4 2.9M78 28.5h1.4v-2.9l1.4-2.9"/><circle class="st3" cx="89.1" cy="28.5" r="5.4"/><path class="st3" d="M89.1 20.9c-4.3 0-7.7 3.5-7.7 7.7s3.5 7.7 7.7 7.7h0"/><circle class="st3" cx="109.7" cy="31.3" r=".4"/><circle class="st3" cx="109.7" cy="25.6" r=".4"/><path class="st10" d="M61.4 17.7h-7.2"/><path class="st1" d="M56.1 15.4h1.7M55.8 16.5l1.2-3.6M57 12.9l1.2 3.6M59.5 12.9l-.3.7"/><path class="st10" d="M61.4 46.5h-7.2"/><path class="st1" d="m57.2 43.4.5.2M57.7 43.6l.2.2M57.9 43.7l.2.3M58.1 44.1v.5M58.1 44.6l-.2.3M57.9 44.9l-.2.2M57.7 45.1l-.3.2M57.4 45.3H56M56 45.3v-3.6M56 41.7h1.2M57.2 41.7l.3.2M57.6 41.8l.2.2M57.7 42l.2.3M57.9 42.4v.3M57.9 42.7l-.2.3M57.7 43l-.2.2M57.6 43.2l-.3.2M57.2 43.4H56M59.8 41.7l-.3.7"/><path class="st10" d="M61.4 32.1h-7.2"/><path class="st1" d="m58.1 30.5-.2.2M57.9 30.7l-.5.2M57.4 30.9h-.3M57 30.9l-.5-.2M56.5 30.7l-.3-.3M56.2 30.4l-.2-.3M56 30l-.2-.7M55.8 29.3v-.5M55.8 28.8l.2-.7M56 28.1l.2-.3M56.2 27.8l.3-.3M56.5 27.4l.5-.2M57 27.3h.3M57.4 27.3l.5.2M57.9 27.4l.2.2M59.8 27.3l-.3.7"/><path class="st10" d="M61.4 10.5h-7.2"/><path class="st1" d="M57 8.2h1.7M56.6 9.3l1.2-3.6M57.8 5.7 59 9.3"/><path class="st10" d="M61.4 39.3h-7.2"/><path class="st1" d="m58.1 36.2.5.2M58.6 36.4l.2.2M58.8 36.5l.2.3M58.9 36.9v.5M58.9 37.4l-.2.3M58.8 37.7l-.2.2M58.6 37.9l-.3.2M58.2 38.1h-1.4M56.9 38.1v-3.6M56.9 34.5h1.2M58.1 34.5l.3.2M58.4 34.6l.2.2M58.6 34.8l.2.3M58.8 35.2v.3M58.8 35.5l-.2.3M58.6 35.8l-.2.2M58.4 36l-.3.2M58.1 36.2h-1.2"/><path class="st10" d="M61.4 24.9h-7.2"/><path class="st1" d="m58.9 23.3-.2.2M58.8 23.5l-.5.2M58.2 23.7h-.3M57.9 23.7l-.5-.2M57.4 23.5l-.3-.3M57 23.2l-.2-.3M56.9 22.8l-.2-.7M56.7 22.1v-.5M56.7 21.6l.2-.7M56.9 20.9l.2-.3M57 20.6l.3-.3M57.4 20.2l.5-.2M57.9 20.1h.3M58.2 20.1l.5.2M58.8 20.2l.2.2"/><path class="st10" d="M111.8 21.3h7.2"/><path class="st1" d="m112.7 19.9.5.2M113.2 20.1h.9M114 20.1l.3-.2M114.4 19.9l.2-.2M114.6 19.7l.2-.3M114.7 19.4v-.3M114.7 19l-.2-.3M114.6 18.7l-.2-.2M114.4 18.5l-.3-.2M114 18.4l-.7-.2M113.4 18.2l-.3-.2M113 18l-.2-.2M112.8 17.8l-.2-.3M112.7 17.5v-.3M112.7 17.2l.2-.3M112.8 16.8l.2-.2M113 16.6l.3-.2M113.4 16.5h.9M114.2 16.5l.5.2M118.2 20.1h-2.1M117.1 20.1v-3.6M117.1 16.5l-.3.5M116.8 17l-.3.3M116.4 17.3l-.3.2"/><path class="st10" d="M111.8 35.7h7.2"/><path class="st1" d="m112.7 34.3.5.2M113.2 34.5h.9M114 34.5l.3-.2M114.4 34.3l.2-.2M114.6 34.1l.2-.3M114.7 33.8v-.3M114.7 33.4l-.2-.3M114.6 33.1l-.2-.2M114.4 32.9l-.3-.2M114 32.8l-.7-.2M113.4 32.6l-.3-.2M113 32.4l-.2-.2M112.8 32.2l-.2-.3M112.7 31.9v-.3M112.7 31.6l.2-.3M112.8 31.2l.2-.2M113 31l.3-.2M113.4 30.9h.9M114.2 30.9l.5.2M116.1 31.2l.2-.2M116.3 31l.3-.2M116.6 30.9h.9M117.5 30.9l.3.2M117.8 31l.2.2M118 31.2l.2.3M118.2 31.6v.3M118.2 31.9l-.2.5M118 32.4l-2.1 2.1M115.9 34.5h2.2"/><path class="st8" d="M123.5 16.2h2.1M124.6 19.8v-3.6M127.5 16.2h.7M128.2 16.2l.3.2M128.5 16.4l.3.3M128.8 16.7l.2.7M129 17.4v1.2M129 18.6l-.2.7M128.8 19.3l-.3.3M128.5 19.6l-.3.2M128.2 19.8h-.7M127.5 19.8l-.3-.2M127.1 19.6l-.3-.3M126.8 19.3l-.2-.7M126.6 18.6v-1.2M126.6 17.4l.2-.7M126.8 16.7l.3-.3M127.1 16.4l.3-.2M134.5 17.9l.5.2M135 18.1l.2.2M135.2 18.3l.2.3M135.4 18.6v.5M135.4 19.1l-.2.3M135.2 19.5l-.2.2M135 19.6l-.3.2M134.7 19.8h-1.4M133.3 19.8v-3.6M133.3 16.2h1.2M134.5 16.2l.3.2M134.8 16.4l.2.2M135 16.5l.2.3M135.2 16.9v.3M135.2 17.2l-.2.3M135 17.6l-.2.2M134.8 17.7l-.3.2M134.5 17.9h-1.2M137.6 16.2h.7M138.3 16.2l.3.2M138.6 16.4l.3.3M139 16.7l.2.7M139.1 17.4v1.2M139.1 18.6l-.2.7M139 19.3l-.3.3M138.6 19.6l-.3.2M138.3 19.8h-.7M137.6 19.8l-.3-.2M137.2 19.6l-.3-.3M136.9 19.3l-.2-.7M136.7 18.6v-1.2M136.7 17.4l.2-.7M136.9 16.7l.3-.3M137.2 16.4l.3-.2M140.5 18.8h1.7M140.2 19.8l1.2-3.6M141.4 16.2l1.2 3.6M145.8 19.8l-1.2-1.7M143.8 19.8v-3.6M143.8 16.2h1.4M145.1 16.2l.3.2M145.5 16.4l.2.2M145.6 16.5l.2.3M145.8 16.9v.5M145.8 17.4l-.2.3M145.6 17.7l-.2.2M145.5 17.9l-.3.2M145.1 18.1h-1.4M147.4 19.8v-3.6M147.4 16.2h.9M148.2 16.2l.5.2M148.7 16.4l.3.3M149.1 16.7l.2.3M149.2 17.1l.2.7M149.4 17.7v.5M149.4 18.3l-.2.7M149.2 18.9l-.2.3M149.1 19.3l-.3.3M148.7 19.6l-.5.2M148.2 19.8h-.9M153.7 19.8v-3.6M153.7 16.2h1.4M155.1 16.2l.3.2M155.4 16.4l.2.2M155.6 16.5l.2.3M155.8 16.9v.5M155.8 17.4l-.2.3M155.6 17.7l-.2.2M155.4 17.9l-.3.2M155.1 18.1h-1.4M157.3 19.8v-3.6M159 19.8v-3.6M159 16.2l2.1 3.6M161.1 19.8v-3.6M4.4 5.4h2.1M5.5 9V5.4M8.4 5.4h.7M9.1 5.4l.3.2M9.4 5.6l.3.3M9.8 5.9l.2.7M9.9 6.6v1.2M9.9 7.8l-.2.7M9.8 8.5l-.3.3M9.4 8.8l-.3.2M9.1 9h-.7M8.4 9l-.3-.2M8 8.8l-.3-.3M7.7 8.5l-.2-.7M7.5 7.8V6.6M7.5 6.6l.2-.7M7.7 5.9l.3-.3M8 5.6l.3-.2M15.4 7.1l.5.2M15.9 7.3l.2.2M16.1 7.5l.2.3M16.3 7.8v.5M16.3 8.3l-.2.3M16.1 8.7l-.2.2M15.9 8.8l-.3.2M15.6 9h-1.4M14.2 9V5.4M14.2 5.4h1.2M15.4 5.4l.3.2M15.8 5.6l.2.2M15.9 5.7l.2.3M16.1 6.1v.3M16.1 6.4l-.2.3M15.9 6.8l-.2.2M15.8 6.9l-.3.2M15.4 7.1h-1.2M18.5 5.4h.7M19.2 5.4l.3.2M19.5 5.6l.3.3M19.9 5.9l.2.7M20 6.6v1.2M20 7.8l-.2.7M19.9 8.5l-.3.3M19.5 8.8l-.3.2M19.2 9h-.7M18.5 9l-.3-.2M18.2 8.8l-.3-.3M17.8 8.5l-.2-.7M17.6 7.8V6.6M17.6 6.6l.2-.7M17.8 5.9l.3-.3M18.2 5.6l.3-.2M21.4 8h1.7M21.1 9l1.2-3.6M22.3 5.4 23.5 9M26.7 9l-1.2-1.7M24.7 9V5.4M24.7 5.4h1.4M26 5.4l.3.2M26.4 5.6l.2.2M26.6 5.7l.2.3M26.7 6.1v.5M26.7 6.6l-.2.3M26.6 6.9l-.2.2M26.4 7.1l-.3.2M26 7.3h-1.4M28.3 9V5.4M28.3 5.4h.9M29.1 5.4l.5.2M29.6 5.6l.3.3M30 5.9l.2.3M30.2 6.3l.2.7M30.3 6.9v.5M30.3 7.5l-.2.7M30.2 8.1l-.2.3M30 8.5l-.3.3M29.6 8.8l-.5.2M29.1 9h-.9M34.6 9V5.4M34.6 5.4H36M36 5.4l.3.2M36.3 5.6l.2.2M36.5 5.7l.2.3M36.7 6.1v.5M36.7 6.6l-.2.3M36.5 6.9l-.2.2M36.3 7.1l-.3.2M36 7.3h-1.4M38.2 9V5.4M39.9 9V5.4M39.9 5.4 42 9M42 9V5.4M4.4 34.2h2.1M5.5 37.8v-3.6M8.4 34.2h.7M9.1 34.2l.3.2M9.4 34.4l.3.3M9.8 34.7l.2.7M9.9 35.4v1.2M9.9 36.6l-.2.7M9.8 37.3l-.3.3M9.4 37.6l-.3.2M9.1 37.8h-.7M8.4 37.8l-.3-.2M8 37.6l-.3-.3M7.7 37.3l-.2-.7M7.5 36.6v-1.2M7.5 35.4l.2-.7M7.7 34.7l.3-.3M8 34.4l.3-.2M15.4 35.9l.5.2M15.9 36.1l.2.2M16.1 36.3l.2.3M16.3 36.6v.5M16.3 37.1l-.2.3M16.1 37.5l-.2.2M15.9 37.6l-.3.2M15.6 37.8h-1.4M14.2 37.8v-3.6M14.2 34.2h1.2M15.4 34.2l.3.2M15.8 34.4l.2.2M15.9 34.5l.2.3M16.1 34.9v.3M16.1 35.2l-.2.3M15.9 35.6l-.2.2M15.8 35.7l-.3.2M15.4 35.9h-1.2M18.5 34.2h.7M19.2 34.2l.3.2M19.5 34.4l.3.3M19.9 34.7l.2.7M20 35.4v1.2M20 36.6l-.2.7M19.9 37.3l-.3.3M19.5 37.6l-.3.2M19.2 37.8h-.7M18.5 37.8l-.3-.2M18.2 37.6l-.3-.3M17.8 37.3l-.2-.7M17.6 36.6v-1.2M17.6 35.4l.2-.7M17.8 34.7l.3-.3M18.2 34.4l.3-.2M21.4 36.8h1.7M21.1 37.8l1.2-3.6M22.3 34.2l1.2 3.6M26.7 37.8l-1.2-1.7M24.7 37.8v-3.6M24.7 34.2h1.4M26 34.2l.3.2M26.4 34.4l.2.2M26.6 34.5l.2.3M26.7 34.9v.5M26.7 35.4l-.2.3M26.6 35.7l-.2.2M26.4 35.9l-.3.2M26 36.1h-1.4M28.3 37.8v-3.6M28.3 34.2h.9M29.1 34.2l.5.2M29.6 34.4l.3.3M30 34.7l.2.3M30.2 35.1l.2.7M30.3 35.7v.5M30.3 36.3l-.2.7M30.2 36.9l-.2.3M30 37.3l-.3.3M29.6 37.6l-.5.2M29.1 37.8h-.9M34.6 37.8v-3.6M34.6 34.2H36M36 34.2l.3.2M36.3 34.4l.2.2M36.5 34.5l.2.3M36.7 34.9v.5M36.7 35.4l-.2.3M36.5 35.7l-.2.2M36.3 35.9l-.3.2M36 36.1h-1.4M38.2 37.8v-3.6M39.9 37.8v-3.6M39.9 34.2l2.1 3.6M42 37.8v-3.6M4.4 41.4h2.1M5.5 45v-3.6M8.4 41.4h.7M9.1 41.4l.3.2M9.4 41.6l.3.3M9.8 41.9l.2.7M9.9 42.6v1.2M9.9 43.8l-.2.7M9.8 44.5l-.3.3M9.4 44.8l-.3.2M9.1 45h-.7M8.4 45l-.3-.2M8 44.8l-.3-.3M7.7 44.5l-.2-.7M7.5 43.8v-1.2M7.5 42.6l.2-.7M7.7 41.9l.3-.3M8 41.6l.3-.2M15.4 43.1l.5.2M15.9 43.3l.2.2M16.1 43.5l.2.3M16.3 43.8v.5M16.3 44.3l-.2.3M16.1 44.7l-.2.2M15.9 44.8l-.3.2M15.6 45h-1.4M14.2 45v-3.6M14.2 41.4h1.2M15.4 41.4l.3.2M15.8 41.6l.2.2M15.9 41.7l.2.3M16.1 42.1v.3M16.1 42.4l-.2.3M15.9 42.8l-.2.2M15.8 42.9l-.3.2M15.4 43.1h-1.2M18.5 41.4h.7M19.2 41.4l.3.2M19.5 41.6l.3.3M19.9 41.9l.2.7M20 42.6v1.2M20 43.8l-.2.7M19.9 44.5l-.3.3M19.5 44.8l-.3.2M19.2 45h-.7M18.5 45l-.3-.2M18.2 44.8l-.3-.3M17.8 44.5l-.2-.7M17.6 43.8v-1.2M17.6 42.6l.2-.7M17.8 41.9l.3-.3M18.2 41.6l.3-.2M21.4 44h1.7M21.1 45l1.2-3.6M22.3 41.4l1.2 3.6M26.7 45l-1.2-1.7M24.7 45v-3.6M24.7 41.4h1.4M26 41.4l.3.2M26.4 41.6l.2.2M26.6 41.7l.2.3M26.7 42.1v.5M26.7 42.6l-.2.3M26.6 42.9l-.2.2M26.4 43.1l-.3.2M26 43.3h-1.4M28.3 45v-3.6M28.3 41.4h.9M29.1 41.4l.5.2M29.6 41.6l.3.3M30 41.9l.2.3M30.2 42.3l.2.7M30.3 42.9v.5M30.3 43.5l-.2.7M30.2 44.1l-.2.3M30 44.5l-.3.3M29.6 44.8l-.5.2M29.1 45h-.9M34.6 45v-3.6M34.6 41.4H36M36 41.4l.3.2M36.3 41.6l.2.2M36.5 41.7l.2.3M36.7 42.1v.5M36.7 42.6l-.2.3M36.5 42.9l-.2.2M36.3 43.1l-.3.2M36 43.3h-1.4M38.2 45v-3.6M39.9 45v-3.6M39.9 41.4 42 45M42 45v-3.6M4.4 12.6h2.1M5.5 16.2v-3.6M8.4 12.6h.7M9.1 12.6l.3.2M9.4 12.8l.3.3M9.8 13.1l.2.7M9.9 13.8V15M9.9 15l-.2.7M9.8 15.7l-.3.3M9.4 16l-.3.2M9.1 16.2h-.7M8.4 16.2l-.3-.2M8 16l-.3-.3M7.7 15.7l-.2-.7M7.5 15v-1.2M7.5 13.8l.2-.7M7.7 13.1l.3-.3M8 12.8l.3-.2M15.4 14.3l.5.2M15.9 14.5l.2.2M16.1 14.7l.2.3M16.3 15v.5M16.3 15.5l-.2.3M16.1 15.9l-.2.2M15.9 16l-.3.2M15.6 16.2h-1.4M14.2 16.2v-3.6M14.2 12.6h1.2M15.4 12.6l.3.2M15.8 12.8l.2.2M15.9 12.9l.2.3M16.1 13.3v.3M16.1 13.6l-.2.3M15.9 14l-.2.2M15.8 14.1l-.3.2M15.4 14.3h-1.2M18.5 12.6h.7M19.2 12.6l.3.2M19.5 12.8l.3.3M19.9 13.1l.2.7M20 13.8V15M20 15l-.2.7M19.9 15.7l-.3.3M19.5 16l-.3.2M19.2 16.2h-.7M18.5 16.2l-.3-.2M18.2 16l-.3-.3M17.8 15.7l-.2-.7M17.6 15v-1.2M17.6 13.8l.2-.7M17.8 13.1l.3-.3M18.2 12.8l.3-.2M21.4 15.2h1.7M21.1 16.2l1.2-3.6M22.3 12.6l1.2 3.6M26.7 16.2l-1.2-1.7M24.7 16.2v-3.6M24.7 12.6h1.4M26 12.6l.3.2M26.4 12.8l.2.2M26.6 12.9l.2.3M26.7 13.3v.5M26.7 13.8l-.2.3M26.6 14.1l-.2.2M26.4 14.3l-.3.2M26 14.5h-1.4M28.3 16.2v-3.6M28.3 12.6h.9M29.1 12.6l.5.2M29.6 12.8l.3.3M30 13.1l.2.3M30.2 13.5l.2.7M30.3 14.1v.5M30.3 14.7l-.2.7M30.2 15.3l-.2.3M30 15.7l-.3.3M29.6 16l-.5.2M29.1 16.2h-.9M34.6 16.2v-3.6M34.6 12.6H36M36 12.6l.3.2M36.3 12.8l.2.2M36.5 12.9l.2.3M36.7 13.3v.5M36.7 13.8l-.2.3M36.5 14.1l-.2.2M36.3 14.3l-.3.2M36 14.5h-1.4M38.2 16.2v-3.6M39.9 16.2v-3.6M39.9 12.6l2.1 3.6M42 16.2v-3.6"/><path class="st4" d="M119 35.7h7.2M126.2 35.7v32.4M86.6 68.1h39.6M119 21.3h43.2M47 68.1h39.6M47 32.1v36M54.2 32.1H47M47 24.9v7.2M54.2 24.9H47M3.8 10.5h50.4M3.8 17.7h50.4M3.8 39.3h50.4M3.8 46.5h50.4"/><circle class="st7" cx="86.6" cy="68.1" r="1.3"/><circle class="st7" cx="47" cy="32.1" r="1.3"/></svg>