<svg id="Layer_1" xmlns="http://www.w3.org/2000/svg" version="1.1" viewBox="0 0 147.4 68"><defs><style>.st1,.st10,.st2,.st3,.st4,.st5,.st8,.st9{stroke-linecap:round;stroke-linejoin:round}.st1,.st10,.st4,.st5,.st8{stroke-width:.4px}.st10,.st3{stroke:#840000}.st11{letter-spacing:.7em}.st1,.st10,.st2,.st3,.st4,.st5,.st8,.st9{fill:none}.st1,.st9{stroke:#a90000}.st2,.st9{font-family:ArialMT,Arial;font-size:4.8px;stroke-width:.4px}.st2,.st8{stroke:#0f0f0f}.st3{stroke-width:.7px}.st4{stroke:#009600}.st5{stroke:#006464}.st15{isolation:isolate;opacity:0}.st17{letter-spacing:.6em}</style></defs><path class="st10" d="M76.6 47.9v3.6h3.6l-3.6 3.6-3.6-3.6h3.6M76.6 47.9h0"/><path class="st5" d="m73.9 60.6-.3-.2M73.5 60.4H73M73 60.4l-.5.2M72.5 60.6l-.3.3M72.1 60.9l-.2.3M72 61.2l-.2.7M71.8 61.9v.5M71.8 62.4l.2.7M72 63.1l.2.3M72.1 63.5l.3.3M72.5 63.8l.5.2M73 64h.3M73.3 64l.5-.2M73.9 63.8l.2-.2M74 63.6v-1.2M74 62.4h-.7M75.6 64v-3.6M75.6 60.4l2.1 3.6M77.6 64v-3.6M79.3 64v-3.6M79.3 60.4h.9M80.2 60.4l.5.2M80.7 60.6l.3.3M81.1 60.9l.2.3M81.2 61.2l.2.7M81.4 61.9v.5M81.4 62.4l-.2.7M81.2 63.1l-.2.3M81.1 63.5l-.3.3M80.7 63.8l-.5.2M80.2 64h-.9"/><path style="fill:#ffffc2" d="M62.2 4.7H91v28.8H62.2z"/><path class="st3" d="M62.2 4.7H91v28.8H62.2z"/><circle cx="65.8" cy="19.1" r=".7" style="stroke:#840000;stroke-width:.4px;stroke-linecap:round;stroke-linejoin:round;fill:#840000"/><circle class="st3" cx="75.5" cy="19.1" r="5.4"/><path class="st3" d="M75.5 11.6c-4.3 0-7.7 3.5-7.7 7.7 0 4.3 3.5 7.7 7.7 7.7M74.8 24.2V14.1M75.5 24.2V14.1M76.2 14.1v10.1M87.4 19.1h-1.1M87.4 16.3v5.8"/><path class="st10" d="M62.2 26.3h3.6v-1.4M62.2 11.9h3.6v1.4"/><path class="st3" d="m77.3 27.8-2.2-.7 1.8-1.1M77.3 10.9l-2.2.7 1.8 1.1M91 26.3h-2.2V22M91 11.9h-2.2v4.3"/><path class="st10" d="M62.2 19.1h3.6V22l1.4 2.9M64.4 19.1h1.4v-2.9l1.4-2.9"/><circle class="st3" cx="88.8" cy="22" r=".4"/><circle class="st3" cx="88.8" cy="16.3" r=".4"/><path class="st10" d="M62.2 11.9H55"/><path class="st1" d="M57.7 9.7h1.7M57.4 10.8l1.2-3.6M58.6 7.2l1.2 3.6"/><path class="st10" d="M62.2 26.3H55"/><path class="st1" d="m58.9 23.3.5.2M59.4 23.4l.2.2M59.5 23.6l.2.3M59.7 24v.5M59.7 24.5l-.2.3M59.5 24.8l-.2.2M59.4 25l-.3.2M59 25.2h-1.4M57.7 25.2v-3.6M57.7 21.6h1.2M58.9 21.6l.3.2M59.2 21.7l.2.2M59.4 21.9l.2.3M59.5 22.2v.3M59.5 22.6l-.2.3M59.4 22.9l-.2.2M59.2 23.1l-.3.2M58.9 23.3h-1.2"/><path class="st10" d="M62.2 19.1H55"/><path class="st1" d="m59.7 17.6-.2.2M59.5 17.8l-.5.2M59 18h-.3M58.7 18l-.5-.2M58.2 17.8l-.3-.3M57.8 17.4l-.2-.3M57.7 17.1l-.2-.7M57.5 16.4v-.5M57.5 15.9l.2-.7M57.7 15.2l.2-.3M57.8 14.9l.3-.3M58.2 14.5l.5-.2M58.7 14.4h.3M59 14.4l.5.2M59.5 14.5l.2.2"/><path class="st10" d="M91 11.9h7.2"/><path class="st1" d="m91.9 10.6.5.2M92.4 10.8h.9M93.2 10.8l.3-.2M93.6 10.6l.2-.2M93.7 10.4l.2-.3M93.9 10.1v-.3M93.9 9.7l-.2-.3M93.7 9.4l-.2-.2M93.6 9.2l-.3-.2M93.2 9l-.7-.2M92.5 8.9l-.3-.2M92.2 8.7l-.2-.2M92 8.5l-.2-.3M91.9 8.2v-.3M91.9 7.8l.2-.3M92 7.5l.2-.2M92.2 7.3l.3-.2M92.5 7.2h.9M93.4 7.2l.5.2M97.3 10.8h-2.1M96.3 10.8V7.2M96.3 7.2l-.3.5M96 7.7l-.3.3M95.6 8l-.3.2"/><path class="st10" d="M91 26.3h7.2"/><path class="st1" d="m91.9 25 .5.2M92.4 25.2h.9M93.2 25.2l.3-.2M93.6 25l.2-.2M93.7 24.8l.2-.3M93.9 24.5v-.3M93.9 24.1l-.2-.3M93.7 23.8l-.2-.2M93.6 23.6l-.3-.2M93.2 23.4l-.7-.2M92.5 23.3l-.3-.2M92.2 23.1l-.2-.2M92 22.9l-.2-.3M91.9 22.6v-.3M91.9 22.2l.2-.3M92 21.9l.2-.2M92.2 21.7l.3-.2M92.5 21.6h.9M93.4 21.6l.5.2M95.3 21.9l.2-.2M95.5 21.7l.3-.2M95.8 21.6h.9M96.7 21.6l.3.2M97 21.7l.2.2M97.2 21.9l.2.3M97.3 22.2v.3M97.3 22.6l-.2.5M97.2 23.1l-2.1 2.1M95.1 25.2h2.2"/><path class="st8" d="M5.2 6.9h2.1M6.3 10.5V6.9M9.2 6.9h.7M9.9 6.9l.3.2M10.2 7.1l.3.3M10.5 7.4l.2.7M10.7 8.1v1.2M10.7 9.3l-.2.7M10.5 10l-.3.3M10.2 10.3l-.3.2M9.9 10.5h-.7M9.2 10.5l-.3-.2M8.8 10.3l-.3-.3M8.5 10l-.2-.7M8.3 9.3V8.1M8.3 8.1l.2-.7M8.5 7.4l.3-.3M8.8 7.1l.3-.2M16.2 8.6l.5.2M16.7 8.8l.2.2M16.9 8.9l.2.3M17.1 9.3v.5M17.1 9.8l-.2.3M16.9 10.1l-.2.2M16.7 10.3l-.3.2M16.4 10.5H15M15 10.5V6.9M15 6.9h1.2M16.2 6.9l.3.2M16.5 7.1l.2.2M16.7 7.2l.2.3M16.9 7.6v.3M16.9 7.9l-.2.3M16.7 8.3l-.2.2M16.5 8.4l-.3.2M16.2 8.6H15M19.3 6.9h.7M20 6.9l.3.2M20.3 7.1l.3.3M20.7 7.4l.2.7M20.8 8.1v1.2M20.8 9.3l-.2.7M20.7 10l-.3.3M20.3 10.3l-.3.2M20 10.5h-.7M19.3 10.5l-.3-.2M18.9 10.3l-.3-.3M18.6 10l-.2-.7M18.4 9.3V8.1M18.4 8.1l.2-.7M18.6 7.4l.3-.3M18.9 7.1l.3-.2M22.2 9.5h1.7M21.9 10.5l1.2-3.6M23.1 6.9l1.2 3.6M27.5 10.5l-1.2-1.7M25.5 10.5V6.9M25.5 6.9h1.4M26.8 6.9l.3.2M27.2 7.1l.2.2M27.3 7.2l.2.3M27.5 7.6v.5M27.5 8.1l-.2.3M27.3 8.4l-.2.2M27.2 8.6l-.3.2M26.8 8.8h-1.4M29.1 10.5V6.9M29.1 6.9h.9M29.9 6.9l.5.2M30.4 7.1l.3.3M30.8 7.4l.2.3M30.9 7.7l.2.7M31.1 8.4v.5M31.1 8.9l-.2.7M30.9 9.6l-.2.3M30.8 10l-.3.3M30.4 10.3l-.5.2M29.9 10.5H29M35.4 10.5V6.9M35.4 6.9h1.4M36.8 6.9l.3.2M37.1 7.1l.2.2M37.3 7.2l.2.3M37.5 7.6v.5M37.5 8.1l-.2.3M37.3 8.4l-.2.2M37.1 8.6l-.3.2M36.8 8.8h-1.4M39 10.5V6.9M40.7 10.5V6.9M40.7 6.9l2.1 3.6M42.8 10.5V6.9M102.7 6.9h2.1M103.7 10.5V6.9M106.7 6.9h.7M107.3 6.9l.3.2M107.7 7.1l.3.3M108 7.4l.2.7M108.2 8.1v1.2M108.2 9.3l-.2.7M108 10l-.3.3M107.7 10.3l-.3.2M107.3 10.5h-.7M106.7 10.5l-.3-.2M106.3 10.3l-.3-.3M106 10l-.2-.7M105.8 9.3V8.1M105.8 8.1l.2-.7M106 7.4l.3-.3M106.3 7.1l.3-.2M113.7 8.6l.5.2M114.2 8.8l.2.2M114.4 8.9l.2.3M114.5 9.3v.5M114.5 9.8l-.2.3M114.4 10.1l-.2.2M114.2 10.3l-.3.2M113.9 10.5h-1.4M112.5 10.5V6.9M112.5 6.9h1.2M113.7 6.9l.3.2M114 7.1l.2.2M114.2 7.2l.2.3M114.4 7.6v.3M114.4 7.9l-.2.3M114.2 8.3l-.2.2M114 8.4l-.3.2M113.7 8.6h-1.2M116.8 6.9h.7M117.5 6.9l.3.2M117.8 7.1l.3.3M118.1 7.4l.2.7M118.3 8.1v1.2M118.3 9.3l-.2.7M118.1 10l-.3.3M117.8 10.3l-.3.2M117.5 10.5h-.7M116.8 10.5l-.3-.2M116.4 10.3l-.3-.3M116.1 10l-.2-.7M115.9 9.3V8.1M115.9 8.1l.2-.7M116.1 7.4l.3-.3M116.4 7.1l.3-.2M119.7 9.5h1.7M119.3 10.5l1.2-3.6M120.5 6.9l1.2 3.6M125 10.5l-1.2-1.7M122.9 10.5V6.9M122.9 6.9h1.4M124.3 6.9l.3.2M124.7 7.1l.2.2M124.8 7.2l.2.3M125 7.6v.5M125 8.1l-.2.3M124.8 8.4l-.2.2M124.7 8.6l-.3.2M124.3 8.8h-1.4M126.5 10.5V6.9M126.5 6.9h.9M127.4 6.9l.5.2M127.9 7.1l.3.3M128.3 7.4l.2.3M128.4 7.7l.2.7M128.6 8.4v.5M128.6 8.9l-.2.7M128.4 9.6l-.2.3M128.3 10l-.3.3M127.9 10.3l-.5.2M127.4 10.5h-.9M132.9 10.5V6.9M132.9 6.9h1.4M134.3 6.9l.3.2M134.6 7.1l.2.2M134.8 7.2l.2.3M134.9 7.6v.5M134.9 8.1l-.2.3M134.8 8.4l-.2.2M134.6 8.6l-.3.2M134.3 8.8h-1.4M136.5 10.5V6.9M138.2 10.5V6.9M138.2 6.9l2.1 3.6M140.3 10.5V6.9M5.2 21.3h2.1M6.3 24.9v-3.6M9.2 21.3h.7M9.9 21.3l.3.2M10.2 21.5l.3.3M10.5 21.8l.2.7M10.7 22.5v1.2M10.7 23.7l-.2.7M10.5 24.4l-.3.3M10.2 24.7l-.3.2M9.9 24.9h-.7M9.2 24.9l-.3-.2M8.8 24.7l-.3-.3M8.5 24.4l-.2-.7M8.3 23.7v-1.2M8.3 22.5l.2-.7M8.5 21.8l.3-.3M8.8 21.5l.3-.2M16.2 23l.5.2M16.7 23.2l.2.2M16.9 23.3l.2.3M17.1 23.7v.5M17.1 24.2l-.2.3M16.9 24.5l-.2.2M16.7 24.7l-.3.2M16.4 24.9H15M15 24.9v-3.6M15 21.3h1.2M16.2 21.3l.3.2M16.5 21.5l.2.2M16.7 21.6l.2.3M16.9 22v.3M16.9 22.3l-.2.3M16.7 22.7l-.2.2M16.5 22.8l-.3.2M16.2 23H15M19.3 21.3h.7M20 21.3l.3.2M20.3 21.5l.3.3M20.7 21.8l.2.7M20.8 22.5v1.2M20.8 23.7l-.2.7M20.7 24.4l-.3.3M20.3 24.7l-.3.2M20 24.9h-.7M19.3 24.9l-.3-.2M18.9 24.7l-.3-.3M18.6 24.4l-.2-.7M18.4 23.7v-1.2M18.4 22.5l.2-.7M18.6 21.8l.3-.3M18.9 21.5l.3-.2M22.2 23.9h1.7M21.9 24.9l1.2-3.6M23.1 21.3l1.2 3.6M27.5 24.9l-1.2-1.7M25.5 24.9v-3.6M25.5 21.3h1.4M26.8 21.3l.3.2M27.2 21.5l.2.2M27.3 21.6l.2.3M27.5 22v.5M27.5 22.5l-.2.3M27.3 22.8l-.2.2M27.2 23l-.3.2M26.8 23.2h-1.4M29.1 24.9v-3.6M29.1 21.3h.9M29.9 21.3l.5.2M30.4 21.5l.3.3M30.8 21.8l.2.3M30.9 22.1l.2.7M31.1 22.8v.5M31.1 23.3l-.2.7M30.9 24l-.2.3M30.8 24.4l-.3.3M30.4 24.7l-.5.2M29.9 24.9H29M35.4 24.9v-3.6M35.4 21.3h1.4M36.8 21.3l.3.2M37.1 21.5l.2.2M37.3 21.6l.2.3M37.5 22v.5M37.5 22.5l-.2.3M37.3 22.8l-.2.2M37.1 23l-.3.2M36.8 23.2h-1.4M39 24.9v-3.6M40.7 24.9v-3.6M40.7 21.3l2.1 3.6M42.8 24.9v-3.6"/><path class="st4" d="M47.8 19.1v28.8M4.6 11.9H55M76.6 47.9h28.8M105.4 26.3v21.6M98.2 11.9h43.2M98.2 26.3h7.2M55 19.1h-7.2M47.8 47.9h28.8M4.6 26.3H55"/><circle cx="76.6" cy="47.9" r="1.3" style="fill:#009600;stroke:#009600;stroke-width:.4px;stroke-linecap:round;stroke-linejoin:round"/></svg>