<svg id="Layer_1" xmlns="http://www.w3.org/2000/svg" version="1.1" viewBox="0 0 143.6 61.9"><defs><style>.st1,.st10,.st2,.st3,.st4,.st5,.st8,.st9{stroke-linecap:round;stroke-linejoin:round}.st1,.st10,.st4,.st5,.st8{stroke-width:.4px}.st10,.st3{stroke:#840000}.st11{letter-spacing:.7em}.st1,.st10,.st2,.st3,.st4,.st5,.st8,.st9{fill:none}.st1,.st9{stroke:#a90000}.st2,.st9{font-family:ArialMT,Arial;font-size:4.8px;stroke-width:.4px}.st2,.st8{stroke:#0f0f0f}.st3{stroke-width:.7px}.st4{stroke:#009600}.st5{stroke:#006464}.st15{isolation:isolate;opacity:0}.st17{letter-spacing:.6em}</style></defs><path class="st10" d="M72.9 43.6v3.6h3.6l-3.6 3.6-3.6-3.6h3.6M72.9 43.6h0"/><path class="st5" d="m70.2 56.2-.3-.2M69.8 56h-.5M69.3 56l-.5.2M68.8 56.2l-.3.3M68.5 56.5l-.2.3M68.3 56.9l-.2.7M68.1 57.5v.5M68.1 58.1l.2.7M68.3 58.7l.2.3M68.5 59.1l.3.3M68.8 59.4l.5.2M69.3 59.6h.3M69.7 59.6l.5-.2M70.2 59.4l.2-.2M70.3 59.3v-1.2M70.3 58.1h-.7M71.9 59.6V56M71.9 56l2.1 3.6M73.9 59.6V56M75.7 59.6V56M75.7 56h.9M76.5 56l.5.2M77 56.2l.3.3M77.4 56.5l.2.3M77.5 56.9l.2.7M77.7 57.5v.5M77.7 58.1l-.2.7M77.5 58.7l-.2.3M77.4 59.1l-.3.3M77 59.4l-.5.2M76.5 59.6h-.9"/><path style="fill:#ffffc2" d="M58.5.4h28.8v28.8H58.5z"/><path class="st3" d="M58.5.4h28.8v28.8H58.5z"/><circle cx="62.1" cy="14.8" r=".7" style="stroke:#840000;stroke-width:.4px;stroke-linecap:round;stroke-linejoin:round;fill:#840000"/><circle class="st3" cx="71.8" cy="14.8" r="5.4"/><path class="st3" d="M71.8 7.2c-4.3 0-7.7 3.5-7.7 7.7 0 4.3 3.5 7.7 7.7 7.7M71.1 19.8V9.7M71.8 19.8V9.7M72.6 9.7v10.1M83.7 14.8h-1.1M83.7 11.9v5.8"/><path class="st10" d="M58.5 22h3.6v-1.4M58.5 7.6h3.6V9"/><path class="st3" d="m73.6 23.4-2.2-.7 1.8-1.1M73.6 6.5l-2.2.7 1.8 1.1M87.3 22h-2.2v-4.3M87.3 7.6h-2.2v4.3"/><path class="st10" d="M58.5 14.8h3.6v2.9l1.4 2.9M60.7 14.8h1.4v-2.9L63.5 9"/><circle class="st3" cx="85.2" cy="17.6" r=".4"/><circle class="st3" cx="85.2" cy="11.9" r=".4"/><path class="st10" d="M58.5 7.6h-7.2"/><path class="st1" d="M54.1 5.3h1.7M53.7 6.4l1.2-3.6M54.9 2.8l1.2 3.6"/><path class="st10" d="M58.5 22h-7.2"/><path class="st1" d="m55.2 18.9.5.2M55.7 19.1l.2.2M55.9 19.2l.2.3M56 19.6v.5M56 20.1l-.2.3M55.9 20.4l-.2.2M55.7 20.6l-.3.2M55.3 20.8h-1.4M54 20.8v-3.6M54 17.2h1.2M55.2 17.2l.3.2M55.5 17.3l.2.2M55.7 17.5l.2.3M55.9 17.9v.3M55.9 18.2l-.2.3M55.7 18.5l-.2.2M55.5 18.7l-.3.2M55.2 18.9H54"/><path class="st10" d="M58.5 14.8h-7.2"/><path class="st1" d="m56 13.2-.2.2M55.9 13.4l-.5.2M55.3 13.6H55M55 13.6l-.5-.2M54.5 13.4l-.3-.3M54.1 13.1l-.2-.3M54 12.7l-.2-.7M53.8 12v-.5M53.8 11.5l.2-.7M54 10.8l.2-.3M54.1 10.5l.3-.3M54.5 10.1l.5-.2M55 10h.3M55.3 10l.5.2M55.9 10.1l.2.2"/><path class="st10" d="M87.3 7.6h7.2"/><path class="st1" d="m88.2 6.2.5.2M88.7 6.4h.9M89.5 6.4l.3-.2M89.9 6.2l.2-.2M90.1 6l.2-.3M90.2 5.7v-.3M90.2 5.3 90 5M90.1 5l-.2-.2M89.9 4.8l-.3-.2M89.5 4.7l-.7-.2M88.9 4.5l-.3-.2M88.5 4.3l-.2-.2M88.3 4.1l-.2-.3M88.2 3.8v-.3M88.2 3.5l.2-.3M88.3 3.1l.2-.2M88.5 2.9l.3-.2M88.9 2.8h.9M89.7 2.8l.5.2M93.7 6.4h-2.1M92.6 6.4V2.8M92.6 2.8l-.3.5M92.3 3.3l-.3.3M91.9 3.6l-.3.2"/><path class="st10" d="M87.3 22h7.2"/><path class="st1" d="m88.2 20.6.5.2M88.7 20.8h.9M89.5 20.8l.3-.2M89.9 20.6l.2-.2M90.1 20.4l.2-.3M90.2 20.1v-.3M90.2 19.7l-.2-.3M90.1 19.4l-.2-.2M89.9 19.2l-.3-.2M89.5 19.1l-.7-.2M88.9 18.9l-.3-.2M88.5 18.7l-.2-.2M88.3 18.5l-.2-.3M88.2 18.2v-.3M88.2 17.9l.2-.3M88.3 17.5l.2-.2M88.5 17.3l.3-.2M88.9 17.2h.9M89.7 17.2l.5.2M91.6 17.5l.2-.2M91.8 17.3l.3-.2M92.1 17.2h.9M93 17.2l.3.2M93.3 17.3l.2.2M93.5 17.5l.2.3M93.7 17.9v.3M93.7 18.2l-.2.5M93.5 18.7l-2.1 2.1M91.4 20.8h2.2"/><path class="st8" d="M1.5 2.5h2.1M2.6 6.1V2.5M5.5 2.5h.7M6.2 2.5l.3.2M6.5 2.7l.3.3M6.9 3l.2.7M7 3.7v1.2M7 4.9l-.2.7M6.9 5.6l-.3.3M6.5 5.9l-.3.2M6.2 6.1h-.7M5.5 6.1l-.3-.2M5.1 5.9l-.3-.3M4.8 5.6l-.2-.7M4.6 4.9V3.7M4.6 3.7l.2-.7M4.8 3l.3-.3M5.1 2.7l.3-.2M12.5 4.2l.5.2M13 4.4l.2.2M13.2 4.6l.2.3M13.4 4.9v.5M13.4 5.4l-.2.3M13.2 5.8 13 6M13 5.9l-.3.2M12.7 6.1h-1.4M11.3 6.1V2.5M11.3 2.5h1.2M12.5 2.5l.3.2M12.9 2.7l.2.2M13 2.8l.2.3M13.2 3.2v.3M13.2 3.5l-.2.3M13 3.9l-.2.2M12.9 4l-.3.2M12.5 4.2h-1.2M15.6 2.5h.7M16.3 2.5l.3.2M16.6 2.7l.3.3M17 3l.2.7M17.1 3.7v1.2M17.1 4.9l-.2.7M17 5.6l-.3.3M16.6 5.9l-.3.2M16.3 6.1h-.7M15.6 6.1l-.3-.2M15.3 5.9l-.3-.3M14.9 5.6l-.2-.7M14.7 4.9V3.7M14.7 3.7l.2-.7M14.9 3l.3-.3M15.3 2.7l.3-.2M18.5 5.1h1.7M18.2 6.1l1.2-3.6M19.4 2.5l1.2 3.6M23.8 6.1l-1.2-1.7M21.8 6.1V2.5M21.8 2.5h1.4M23.1 2.5l.3.2M23.5 2.7l.2.2M23.7 2.8l.2.3M23.8 3.2v.5M23.8 3.7l-.2.3M23.7 4l-.2.2M23.5 4.2l-.3.2M23.1 4.4h-1.4M25.4 6.1V2.5M25.4 2.5h.9M26.2 2.5l.5.2M26.7 2.7l.3.3M27.1 3l.2.3M27.3 3.4l.2.7M27.4 4v.5M27.4 4.6l-.2.7M27.3 5.2l-.2.3M27.1 5.6l-.3.3M26.7 5.9l-.5.2M26.2 6.1h-.9M31.7 6.1V2.5M31.7 2.5h1.4M33.1 2.5l.3.2M33.4 2.7l.2.2M33.6 2.8l.2.3M33.8 3.2v.5M33.8 3.7l-.2.3M33.6 4l-.2.2M33.4 4.2l-.3.2M33.1 4.4h-1.4M35.3 6.1V2.5M37 6.1V2.5M37 2.5l2.1 3.6M39.1 6.1V2.5M99 2.5h2.1M100.1 6.1V2.5M103 2.5h.7M103.7 2.5l.3.2M104 2.7l.3.3M104.3 3l.2.7M104.5 3.7v1.2M104.5 4.9l-.2.7M104.3 5.6l-.3.3M104 5.9l-.3.2M103.7 6.1h-.7M103 6.1l-.3-.2M102.6 5.9l-.3-.3M102.3 5.6l-.2-.7M102.1 4.9V3.7M102.1 3.7l.2-.7M102.3 3l.3-.3M102.6 2.7l.3-.2M110 4.2l.5.2M110.5 4.4l.2.2M110.7 4.6l.2.3M110.9 4.9v.5M110.9 5.4l-.2.3M110.7 5.8l-.2.2M110.5 5.9l-.3.2M110.2 6.1h-1.4M108.8 6.1V2.5M108.8 2.5h1.2M110 2.5l.3.2M110.3 2.7l.2.2M110.5 2.8l.2.3M110.7 3.2v.3M110.7 3.5l-.2.3M110.5 3.9l-.2.2M110.3 4l-.3.2M110 4.2h-1.2M113.1 2.5h.7M113.8 2.5l.3.2M114.1 2.7l.3.3M114.5 3l.2.7M114.6 3.7v1.2M114.6 4.9l-.2.7M114.5 5.6l-.3.3M114.1 5.9l-.3.2M113.8 6.1h-.7M113.1 6.1l-.3-.2M112.7 5.9l-.3-.3M112.4 5.6l-.2-.7M112.2 4.9V3.7M112.2 3.7l.2-.7M112.4 3l.3-.3M112.7 2.7l.3-.2M116 5.1h1.7M115.7 6.1l1.2-3.6M116.9 2.5l1.2 3.6M121.3 6.1l-1.2-1.7M119.3 6.1V2.5M119.3 2.5h1.4M120.6 2.5l.3.2M121 2.7l.2.2M121.1 2.8l.2.3M121.3 3.2v.5M121.3 3.7l-.2.3M121.1 4l-.2.2M121 4.2l-.3.2M120.6 4.4h-1.4M122.9 6.1V2.5M122.9 2.5h.9M123.7 2.5l.5.2M124.2 2.7l.3.3M124.6 3l.2.3M124.7 3.4l.2.7M124.9 4v.5M124.9 4.6l-.2.7M124.7 5.2l-.2.3M124.6 5.6l-.3.3M124.2 5.9l-.5.2M123.7 6.1h-.9M129.2 6.1V2.5M129.2 2.5h1.4M130.6 2.5l.3.2M130.9 2.7l.2.2M131.1 2.8l.2.3M131.3 3.2v.5M131.3 3.7l-.2.3M131.1 4l-.2.2M130.9 4.2l-.3.2M130.6 4.4h-1.4M132.8 6.1V2.5M134.5 6.1V2.5M134.5 2.5l2.1 3.6M136.6 6.1V2.5M1.5 16.9h2.1M2.6 20.5v-3.6M5.5 16.9h.7M6.2 16.9l.3.2M6.5 17.1l.3.3M6.9 17.4l.2.7M7 18.1v1.2M7 19.3l-.2.7M6.9 20l-.3.3M6.5 20.3l-.3.2M6.2 20.5h-.7M5.5 20.5l-.3-.2M5.1 20.3l-.3-.3M4.8 20l-.2-.7M4.6 19.3v-1.2M4.6 18.1l.2-.7M4.8 17.4l.3-.3M5.1 17.1l.3-.2M12.5 18.6l.5.2M13 18.8l.2.2M13.2 19l.2.3M13.4 19.3v.5M13.4 19.8l-.2.3M13.2 20.2l-.2.2M13 20.3l-.3.2M12.7 20.5h-1.4M11.3 20.5v-3.6M11.3 16.9h1.2M12.5 16.9l.3.2M12.9 17.1l.2.2M13 17.2l.2.3M13.2 17.6v.3M13.2 17.9l-.2.3M13 18.3l-.2.2M12.9 18.4l-.3.2M12.5 18.6h-1.2M15.6 16.9h.7M16.3 16.9l.3.2M16.6 17.1l.3.3M17 17.4l.2.7M17.1 18.1v1.2M17.1 19.3l-.2.7M17 20l-.3.3M16.6 20.3l-.3.2M16.3 20.5h-.7M15.6 20.5l-.3-.2M15.3 20.3 15 20M14.9 20l-.2-.7M14.7 19.3v-1.2M14.7 18.1l.2-.7M14.9 17.4l.3-.3M15.3 17.1l.3-.2M18.5 19.5h1.7M18.2 20.5l1.2-3.6M19.4 16.9l1.2 3.6M23.8 20.5l-1.2-1.7M21.8 20.5v-3.6M21.8 16.9h1.4M23.1 16.9l.3.2M23.5 17.1l.2.2M23.7 17.2l.2.3M23.8 17.6v.5M23.8 18.1l-.2.3M23.7 18.4l-.2.2M23.5 18.6l-.3.2M23.1 18.8h-1.4M25.4 20.5v-3.6M25.4 16.9h.9M26.2 16.9l.5.2M26.7 17.1l.3.3M27.1 17.4l.2.3M27.3 17.8l.2.7M27.4 18.4v.5M27.4 19l-.2.7M27.3 19.6l-.2.3M27.1 20l-.3.3M26.7 20.3l-.5.2M26.2 20.5h-.9M31.7 20.5v-3.6M31.7 16.9h1.4M33.1 16.9l.3.2M33.4 17.1l.2.2M33.6 17.2l.2.3M33.8 17.6v.5M33.8 18.1l-.2.3M33.6 18.4l-.2.2M33.4 18.6l-.3.2M33.1 18.8h-1.4M35.3 20.5v-3.6M37 20.5v-3.6M37 16.9l2.1 3.6M39.1 20.5v-3.6"/><path class="st4" d="M44.1 14.8v28.8M.9 7.6h50.4M72.9 43.6h28.8M101.7 22v21.6M94.5 7.6h43.2M94.5 22h7.2M51.3 14.8h-7.2M44.1 43.6h28.8M.9 22h50.4"/><circle cx="72.9" cy="43.6" r="1.3" style="fill:#009600;stroke:#009600;stroke-width:.4px;stroke-linecap:round;stroke-linejoin:round"/></svg>