<svg id="Layer_1" xmlns="http://www.w3.org/2000/svg" version="1.1" viewBox="0 0 165.2 82.4">
  <defs>
    <style>
      .st0,
      .st1,
      .st10,
      .st14,
      .st2,
      .st3,
      .st4,
      .st5,
      .st6,
      .st7,
      .st8,
      .st9 {
        stroke-linecap: round;
        stroke-linejoin: round
      }

      .st0,
      .st1,
      .st14,
      .st2,
      .st3,
      .st4,
      .st5,
      .st6,
      .st7,
      .st8,
      .st9 {
        fill: none
      }

      .st0,
      .st1,
      .st10,
      .st14,
      .st2,
      .st3,
      .st4,
      .st5,
      .st7,
      .st8,
      .st9 {
        stroke-width: .4px
      }

      .st0,
      .st6 {
        stroke: #840000
      }

      .st1,
      .st15,
      .st16,
      .st3,
      .st4,
      .st5,
      .st8 {
        isolation: isolate
      }

      .st1,
      .st3,
      .st4,
      .st5,
      .st8 {
        font-family: ArialMT, Arial;
        font-size: 4.8px
      }

      .st1,
      .st14,
      .st3,
      .st8 {
        stroke: #a90000
      }

      .st2 {
        stroke: #006464
      }

      .st3 {
        letter-spacing: .6em
      }

      .st4,
      .st5,
      .st7 {
        stroke: #0f0f0f
      }

      .st4,
      .st8 {
        letter-spacing: .7em
      }

      .st6 {
        stroke-width: .7px
      }

      .st16 {
        opacity: 0
      }

      .st10,
      .st9 {
        stroke: #009600
      }

      .st10 {
        fill: #009600
      }
    </style>
  </defs>
  <path class="st0" d="M83.7 65.1v3.6h3.6l-3.6 3.6-3.6-3.6h3.6M83.7 65.1h0" />
  <path class="st2"
    d="m81 77.7-.3-.2M80.6 77.6h-.5M80.1 77.6l-.5.2M79.6 77.7l-.3.3M79.3 78.1l-.2.3M79.1 78.5l-.2.7M78.9 79.1v.5M78.9 79.6l.2.7M79.1 80.2l.2.3M79.3 80.6l.3.3M79.6 81l.5.2M80.1 81.1h.3M80.5 81.1l.5-.2M81 81l.2-.2M81.1 80.9v-1.2M81.1 79.6h-.7M82.7 81.1v-3.6M82.7 77.6l2.1 3.6M84.7 81.1v-3.6M86.5 81.1v-3.6M86.5 77.6h.9M87.3 77.6l.5.2M87.8 77.7l.3.3M88.2 78.1l.2.3M88.3 78.5l.2.7M88.5 79.1v.5M88.5 79.6l-.2.7M88.3 80.2l-.2.3M88.2 80.6l-.3.3M87.8 81l-.5.2M87.3 81.1h-.9" />
  <path style="fill:#ffffc2" d="M58.5.3h50.4v50.4H58.5z" />
  <path class="st6" d="M58.5.3h50.4v50.4H58.5z" />
  <circle cx="76.5" cy="25.6" r=".7"
    style="fill:#840000;stroke:#840000;stroke-width:.4px;stroke-linecap:round;stroke-linejoin:round" />
  <path class="st6" d="M85.5 30.6V20.5M86.2 30.6V20.5M87 20.4v10.1M105.3 25.6h-1.1M105.3 22.7v5.8" />
  <path class="st0"
    d="M58.5 43.6h3.6v-1.4M58.5 36.3h3.6v-1.4M58.5 14.8h3.6v1.4M58.5 7.6h3.6V9M62.1 25.6v3.6h-3.6M62.1 25.6V22h-3.6" />
  <path class="st6" d="m88 34.1-2.2-.7 1.8-1.1M88 17.3l-2.2.7 1.8 1.1M108.9 32.8h-2.2v-4.3M108.9 18.3h-2.2v4.3" />
  <path class="st0" d="M62.1 25.6h14.4v2.9l1.4 2.9M75.1 25.6h1.4v-2.9l1.4-2.9" />
  <circle class="st6" cx="86.2" cy="25.6" r="5.4" />
  <path class="st6" d="M86.2 17.9c-4.3 0-7.7 3.5-7.7 7.7s3.5 7.7 7.7 7.7h0" />
  <circle class="st6" cx="106.8" cy="28.3" r=".4" />
  <circle class="st6" cx="106.8" cy="22.7" r=".4" />
  <path class="st0" d="M58.5 14.8h-7.2" />
  <path class="st14" d="M53.2 12.4h1.7M52.9 13.6l1.2-3.6M54.1 9.9l1.2 3.6M56.6 9.9l-.3.7" />
  <path class="st0" d="M58.5 43.6h-7.2" />
  <path class="st14"
    d="m54.3 40.5.5.2M54.8 40.6l.2.2M55 40.8l.2.3M55.2 41.1v.5M55.2 41.6l-.2.3M55 42l-.2.2M54.8 42.1l-.3.2M54.5 42.3h-1.4M53.1 42.3v-3.6M53.1 38.8h1.2M54.3 38.8l.3.2M54.7 38.8l.2.2M54.8 39.1l.2.3M55 39.5v.3M55 39.8l-.2.3M54.8 40.1l-.2.2M54.7 40.3l-.3.2M54.3 40.5h-1.2M56.9 38.8l-.3.7" />
  <path class="st0" d="M58.5 29.1h-7.2" />
  <path class="st14"
    d="m55.2 27.6-.2.2M55 27.8l-.5.2M54.5 27.9h-.3M54.1 27.9l-.5-.2M53.6 27.8l-.3-.3M53.3 27.4l-.2-.3M53.1 27.1l-.2-.7M52.9 26.3v-.5M52.9 25.8l.2-.7M53.1 25.2l.2-.3M53.3 24.8l.3-.3M53.6 24.4l.5-.2M54.1 24.3h.3M54.5 24.3l.5.2M55 24.4l.2.2M56.9 24.3l-.3.7" />
  <path class="st0" d="M58.5 7.6h-7.2" />
  <path class="st14" d="M54.1 5.2h1.7M53.7 6.4l1.2-3.6M54.9 2.7l1.2 3.6" />
  <path class="st0" d="M58.5 36.3h-7.2" />
  <path class="st14"
    d="m55.2 33.3.5.2M55.7 33.5l.2.2M55.9 33.6l.2.3M56 34v.5M56 34.5l-.2.3M55.9 34.8l-.2.2M55.7 35l-.3.2M55.3 35.1h-1.4M54 35.1v-3.6M54 31.6h1.2M55.2 31.6l.3.2M55.5 31.6l.2.2M55.7 31.8l.2.3M55.9 32.3v.3M55.9 32.6l-.2.3M55.7 32.8l-.2.2M55.5 33.1l-.3.2M55.2 33.3H54" />
  <path class="st0" d="M58.5 21.9h-7.2" />
  <path class="st14"
    d="m56 20.3-.2.2M55.9 20.6l-.5.2M55.3 20.8H55M55 20.8l-.5-.2M54.5 20.6l-.3-.3M54.1 20.3l-.2-.3M54 19.8l-.2-.7M53.8 19.2v-.5M53.8 18.7l.2-.7M54 17.9l.2-.3M54.1 17.7l.3-.3M54.5 17.3l.5-.2M55 17.2h.3M55.3 17.2l.5.2M55.9 17.3l.2.2" />
  <path class="st0" d="M108.9 18.3h7.2" />
  <path class="st14"
    d="m109.8 16.9.5.2M110.3 17.2h.9M111.1 17.2l.3-.2M111.5 16.9l.2-.2M111.7 16.8l.2-.3M111.8 16.4v-.3M111.8 16.1l-.2-.3M111.7 15.8l-.2-.2M111.5 15.6l-.3-.2M111.1 15.4l-.7-.2M110.5 15.3l-.3-.2M110.1 15.1l-.2-.2M109.9 14.8l-.2-.3M109.8 14.6v-.3M109.8 14.3l.2-.3M109.9 13.8l.2-.2M110.1 13.7l.3-.2M110.5 13.6h.9M111.3 13.6l.5.2M115.3 17.2h-2.1M114.2 17.2v-3.6M114.2 13.6l-.3.5M113.9 14.1l-.3.3M113.5 14.3l-.3.2" />
  <path class="st0" d="M108.9 32.8h7.2" />
  <path class="st14"
    d="m109.8 31.3.5.2M110.3 31.6h.9M111.1 31.6l.3-.2M111.5 31.3l.2-.2M111.7 31.1l.2-.3M111.8 30.8v-.3M111.8 30.5l-.2-.3M111.7 30.1l-.2-.2M111.5 30l-.3-.2M111.1 29.8l-.7-.2M110.5 29.6l-.3-.2M110.1 29.5l-.2-.2M109.9 29.3l-.2-.3M109.8 28.9v-.3M109.8 28.7l.2-.3M109.9 28.3l.2-.2M110.1 28.1l.3-.2M110.5 27.9h.9M111.3 27.9l.5.2M113.2 28.3l.2-.2M113.4 28.1l.3-.2M113.7 27.9h.9M114.6 27.9l.3.2M114.9 28.1l.2.2M115.1 28.3l.2.3M115.3 28.7v.3M115.3 28.9l-.2.5M115.1 29.5l-2.1 2.1M113 31.6h2.2" />
  <path class="st7"
    d="M120.6 13.3h2.1M121.7 16.8v-3.6M124.6 13.3h.7M125.3 13.3l.3.2M125.6 13.4l.3.3M125.9 13.8l.2.7M126.1 14.4v1.2M126.1 15.7l-.2.7M125.9 16.3l-.3.3M125.6 16.7l-.3.2M125.3 16.8h-.7M124.6 16.8l-.3-.2M124.2 16.7l-.3-.3M123.9 16.3l-.2-.7M123.7 15.7v-1.2M123.7 14.4l.2-.7M123.9 13.8l.3-.3M124.2 13.4l.3-.2M131.6 14.9l.5.2M132.1 15.2l.2.2M132.3 15.3l.2.3M132.5 15.7v.5M132.5 16.2l-.2.3M132.3 16.6l-.2.2M132.1 16.7l-.3.2M131.8 16.8h-1.4M130.4 16.8v-3.6M130.4 13.3h1.2M131.6 13.3l.3.2M131.9 13.4l.2.2M132.1 13.6l.2.3M132.3 13.9v.3M132.3 14.3l-.2.3M132.1 14.7l-.2.2M131.9 14.8l-.3.2M131.6 14.9h-1.2M134.7 13.3h.7M135.4 13.3l.3.2M135.7 13.4l.3.3M136.1 13.8l.2.7M136.2 14.4v1.2M136.2 15.7l-.2.7M136.1 16.3l-.3.3M135.7 16.7l-.3.2M135.4 16.8h-.7M134.7 16.8l-.3-.2M134.3 16.7l-.3-.3M134 16.3l-.2-.7M133.8 15.7v-1.2M133.8 14.4l.2-.7M134 13.8l.3-.3M134.3 13.4l.3-.2M137.6 15.8h1.7M137.3 16.8l1.2-3.6M138.5 13.3l1.2 3.6M142.9 16.8l-1.2-1.7M140.9 16.8v-3.6M140.9 13.3h1.4M142.2 13.3l.3.2M142.6 13.4l.2.2M142.7 13.6l.2.3M142.9 13.9v.5M142.9 14.4l-.2.3M142.7 14.8l-.2.2M142.6 14.9l-.3.2M142.2 15.2h-1.4M144.5 16.8v-3.6M144.5 13.3h.9M145.3 13.3l.5.2M145.8 13.4l.3.3M146.2 13.8l.2.3M146.3 14.2l.2.7M146.5 14.8v.5M146.5 15.3l-.2.7M146.3 15.9l-.2.3M146.2 16.3l-.3.3M145.8 16.7l-.5.2M145.3 16.8h-.9M150.8 16.8v-3.6M150.8 13.3h1.4M152.2 13.3l.3.2M152.5 13.4l.2.2M152.7 13.6l.2.3M152.9 13.9v.5M152.9 14.4l-.2.3M152.7 14.8l-.2.2M152.5 14.9l-.3.2M152.2 15.2h-1.4M154.4 16.8v-3.6M156.1 16.8v-3.6M156.1 13.3l2.1 3.6M158.2 16.8v-3.6M1.5 2.5h2.1M2.6 6.1V2.5M5.5 2.5h.7M6.2 2.5l.3.2M6.5 2.6l.3.3M6.9 3l.2.7M7 3.6v1.2M7 4.9l-.2.7M6.9 5.6l-.3.3M6.5 5.9l-.3.2M6.2 6.1h-.7M5.5 6.1l-.3-.2M5.1 5.9l-.3-.3M4.8 5.6l-.2-.7M4.6 4.9V3.7M4.6 3.6l.2-.7M4.8 3l.3-.3M5.1 2.6l.3-.2M12.5 4.1l.5.2M13 4.4l.2.2M13.2 4.6l.2.3M13.4 4.9v.5M13.4 5.4l-.2.3M13.2 5.7l-.2.2M13 5.9l-.3.2M12.7 6.1h-1.4M11.3 6.1V2.5M11.3 2.5h1.2M12.5 2.5l.3.2M12.9 2.6l.2.2M13 2.7l.2.3M13.2 3.1v.3M13.2 3.5l-.2.3M13 3.9l-.2.2M12.9 4l-.3.2M12.5 4.1h-1.2M15.6 2.5h.7M16.3 2.5l.3.2M16.6 2.6l.3.3M17 3l.2.7M17.1 3.6v1.2M17.1 4.9l-.2.7M17 5.6l-.3.3M16.6 5.9l-.3.2M16.3 6.1h-.7M15.6 6.1l-.3-.2M15.3 5.9l-.3-.3M14.9 5.6l-.2-.7M14.7 4.9V3.7M14.7 3.6l.2-.7M14.9 3l.3-.3M15.3 2.6l.3-.2M18.5 5.1h1.7M18.2 6.1l1.2-3.6M19.4 2.5l1.2 3.6M23.8 6.1l-1.2-1.7M21.8 6.1V2.5M21.8 2.5h1.4M23.1 2.5l.3.2M23.5 2.6l.2.2M23.7 2.7l.2.3M23.8 3.1v.5M23.8 3.6l-.2.3M23.7 4l-.2.2M23.5 4.1l-.3.2M23.1 4.4h-1.4M25.4 6.1V2.5M25.4 2.5h.9M26.2 2.5l.5.2M26.7 2.6l.3.3M27.1 3l.2.3M27.3 3.4l.2.7M27.4 4v.5M27.4 4.6l-.2.7M27.3 5.2l-.2.3M27.1 5.6l-.3.3M26.7 5.9l-.5.2M26.2 6.1h-.9M31.7 6.1V2.5M31.7 2.5h1.4M33.1 2.5l.3.2M33.4 2.6l.2.2M33.6 2.7l.2.3M33.8 3.1v.5M33.8 3.6l-.2.3M33.6 4l-.2.2M33.4 4.1l-.3.2M33.1 4.4h-1.4M35.3 6.1V2.5M37 6.1V2.5M37 2.5l2.1 3.6M39.1 6.1V2.5M1.5 31.3h2.1M2.6 34.8v-3.6M5.5 31.3h.7M6.2 31.3l.3.2M6.5 31.5l.3.3M6.9 31.8l.2.7M7 32.5v1.2M7 33.6l-.2.7M6.9 34.3l-.3.3M6.5 34.6l-.3.2M6.2 34.8h-.7M5.5 34.8l-.3-.2M5.1 34.6l-.3-.3M4.8 34.3l-.2-.7M4.6 33.6v-1.2M4.6 32.5l.2-.7M4.8 31.8l.3-.3M5.1 31.5l.3-.2M12.5 33l.5.2M13 33.1l.2.2M13.2 33.3l.2.3M13.4 33.6v.5M13.4 34.1l-.2.3M13.2 34.6l-.2.2M13 34.6l-.3.2M12.7 34.8h-1.4M11.3 34.8v-3.6M11.3 31.3h1.2M12.5 31.3l.3.2M12.9 31.5l.2.2M13 31.6l.2.3M13.2 32v.3M13.2 32.3l-.2.3M13 32.6l-.2.2M12.9 32.8l-.3.2M12.5 33h-1.2M15.6 31.3h.7M16.3 31.3l.3.2M16.6 31.5l.3.3M17 31.8l.2.7M17.1 32.5v1.2M17.1 33.6l-.2.7M17 34.3l-.3.3M16.6 34.6l-.3.2M16.3 34.8h-.7M15.6 34.8l-.3-.2M15.3 34.6l-.3-.3M14.9 34.3l-.2-.7M14.7 33.6v-1.2M14.7 32.5l.2-.7M14.9 31.8l.3-.3M15.3 31.5l.3-.2M18.5 33.8h1.7M18.2 34.8l1.2-3.6M19.4 31.3l1.2 3.6M23.8 34.8l-1.2-1.7M21.8 34.8v-3.6M21.8 31.3h1.4M23.1 31.3l.3.2M23.5 31.5l.2.2M23.7 31.6l.2.3M23.8 32v.5M23.8 32.5l-.2.3M23.7 32.8l-.2.2M23.5 33l-.3.2M23.1 33.1h-1.4M25.4 34.8v-3.6M25.4 31.3h.9M26.2 31.3l.5.2M26.7 31.5l.3.3M27.1 31.8l.2.3M27.3 32.1l.2.7M27.4 32.8v.5M27.4 33.3l-.2.7M27.3 34l-.2.3M27.1 34.3l-.3.3M26.7 34.6l-.5.2M26.2 34.8h-.9M31.7 34.8v-3.6M31.7 31.3h1.4M33.1 31.3l.3.2M33.4 31.5l.2.2M33.6 31.6l.2.3M33.8 32v.5M33.8 32.5l-.2.3M33.6 32.8l-.2.2M33.4 33l-.3.2M33.1 33.1h-1.4M35.3 34.8v-3.6M37 34.8v-3.6M37 31.3l2.1 3.6M39.1 34.8v-3.6M1.5 38.5h2.1M2.6 42.1v-3.6M5.5 38.5h.7M6.2 38.5l.3.2M6.5 38.6l.3.3M6.9 39l.2.7M7 39.6v1.2M7 40.8l-.2.7M6.9 41.6l-.3.3M6.5 41.8l-.3.2M6.2 42.1h-.7M5.5 42.1l-.3-.2M5.1 41.8l-.3-.3M4.8 41.6l-.2-.7M4.6 40.8v-1.2M4.6 39.6l.2-.7M4.8 39l.3-.3M5.1 38.6l.3-.2M12.5 40.1l.5.2M13 40.3l.2.2M13.2 40.6l.2.3M13.4 40.8v.5M13.4 41.3l-.2.3M13.2 41.8l-.2.2M13 41.8l-.3.2M12.7 42.1h-1.4M11.3 42.1v-3.6M11.3 38.5h1.2M12.5 38.5l.3.2M12.9 38.6l.2.2M13 38.8l.2.3M13.2 39.1v.3M13.2 39.5l-.2.3M13 39.8l-.2.2M12.9 40l-.3.2M12.5 40.1h-1.2M15.6 38.5h.7M16.3 38.5l.3.2M16.6 38.6l.3.3M17 39l.2.7M17.1 39.6v1.2M17.1 40.8l-.2.7M17 41.6l-.3.3M16.6 41.8l-.3.2M16.3 42.1h-.7M15.6 42.1l-.3-.2M15.3 41.8l-.3-.3M14.9 41.6l-.2-.7M14.7 40.8v-1.2M14.7 39.6l.2-.7M14.9 39l.3-.3M15.3 38.6l.3-.2M18.5 41.1h1.7M18.2 42.1l1.2-3.6M19.4 38.5l1.2 3.6M23.8 42.1l-1.2-1.7M21.8 42.1v-3.6M21.8 38.5h1.4M23.1 38.5l.3.2M23.5 38.6l.2.2M23.7 38.8l.2.3M23.8 39.1v.5M23.8 39.6l-.2.3M23.7 40l-.2.2M23.5 40.1l-.3.2M23.1 40.3h-1.4M25.4 42.1v-3.6M25.4 38.5h.9M26.2 38.5l.5.2M26.7 38.6l.3.3M27.1 39l.2.3M27.3 39.3l.2.7M27.4 40v.5M27.4 40.6l-.2.7M27.3 41.1l-.2.3M27.1 41.6l-.3.3M26.7 41.8l-.5.2M26.2 42.1h-.9M31.7 42.1v-3.6M31.7 38.5h1.4M33.1 38.5l.3.2M33.4 38.6l.2.2M33.6 38.8l.2.3M33.8 39.1v.5M33.8 39.6l-.2.3M33.6 40l-.2.2M33.4 40.1l-.3.2M33.1 40.3h-1.4M35.3 42.1v-3.6M37 42.1v-3.6M37 38.5l2.1 3.6M39.1 42.1v-3.6M1.5 9.7h2.1M2.6 13.3V9.7M5.5 9.7h.7M6.2 9.7l.3.2M6.5 9.9l.3.3M6.9 10.2l.2.7M7 10.9v1.2M7 12.1l-.2.7M6.9 12.7l-.3.3M6.5 13.1l-.3.2M6.2 13.3h-.7M5.5 13.3l-.3-.2M5.1 13.1l-.3-.3M4.8 12.7l-.2-.7M4.6 12.1v-1.2M4.6 10.9l.2-.7M4.8 10.2l.3-.3M5.1 9.9l.3-.2M12.5 11.4l.5.2M13 11.6l.2.2M13.2 11.7l.2.3M13.4 12.1v.5M13.4 12.6l-.2.3M13.2 12.9l-.2.2M13 13.1l-.3.2M12.7 13.3h-1.4M11.3 13.3V9.7M11.3 9.7h1.2M12.5 9.7l.3.2M12.9 9.9l.2.2M13 9.9l.2.3M13.2 10.4v.3M13.2 10.7l-.2.3M13 11.1l-.2.2M12.9 11.2l-.3.2M12.5 11.4h-1.2M15.6 9.7h.7M16.3 9.7l.3.2M16.6 9.9l.3.3M17 10.2l.2.7M17.1 10.9v1.2M17.1 12.1l-.2.7M17 12.7l-.3.3M16.6 13.1l-.3.2M16.3 13.3h-.7M15.6 13.3l-.3-.2M15.3 13.1l-.3-.3M14.9 12.7l-.2-.7M14.7 12.1v-1.2M14.7 10.9l.2-.7M14.9 10.2l.3-.3M15.3 9.9l.3-.2M18.5 12.2h1.7M18.2 13.3l1.2-3.6M19.4 9.7l1.2 3.6M23.8 13.3l-1.2-1.7M21.8 13.3V9.7M21.8 9.7h1.4M23.1 9.7l.3.2M23.5 9.9l.2.2M23.7 9.9l.2.3M23.8 10.4v.5M23.8 10.9l-.2.3M23.7 11.2l-.2.2M23.5 11.4l-.3.2M23.1 11.6h-1.4M25.4 13.3V9.7M25.4 9.7h.9M26.2 9.7l.5.2M26.7 9.9l.3.3M27.1 10.2l.2.3M27.3 10.6l.2.7M27.4 11.2v.5M27.4 11.7l-.2.7M27.3 12.4l-.2.3M27.1 12.7l-.3.3M26.7 13.1l-.5.2M26.2 13.3h-.9M31.7 13.3V9.7M31.7 9.7h1.4M33.1 9.7l.3.2M33.4 9.9l.2.2M33.6 9.9l.2.3M33.8 10.4v.5M33.8 10.9l-.2.3M33.6 11.2l-.2.2M33.4 11.4l-.3.2M33.1 11.6h-1.4M35.3 13.3V9.7M37 13.3V9.7M37 9.7l2.1 3.6M39.1 13.3V9.7" />
  <path class="st9"
    d="M116.1 32.8h7.2M123.3 32.8v32.4M83.7 65.1h39.6M116.1 18.3h43.2M44.1 65.1h39.6M44.1 29.1v36M51.3 29.1h-7.2M44.1 21.9v7.2M51.3 21.9h-7.2M.9 7.6h50.4M.9 14.8h50.4M.9 36.3h50.4M.9 43.6h50.4" />
  <circle class="st10" cx="83.7" cy="65.1" r="1.3" />
  <circle class="st10" cx="44.1" cy="29.1" r="1.3" />
</svg>