<svg id="Layer_1" xmlns="http://www.w3.org/2000/svg" version="1.1" viewBox="0 0 124.4 64.7"><defs><style>.st0,.st10,.st3,.st4,.st5,.st6,.st7,.st8,.st9{fill:none;stroke-linecap:round;stroke-linejoin:round}.st0,.st10,.st3,.st4,.st7,.st8{stroke-width:.4px}.st0,.st9{stroke:#a90000}.st5,.st6,.st9{font-family:ArialMT,Arial;font-size:4.8px;stroke-width:.4px}.st8{stroke:#0f0f0f}.st10{stroke:#840000}.st12{letter-spacing:.8em}.st3{stroke:#009600}.st4,.st6{stroke:#006464}.st5,.st7{stroke:#0000c2}.st15{isolation:isolate;opacity:0}.st16{letter-spacing:.8em}.st17{letter-spacing:1.6em}</style></defs><path class="st10" d="M18.9 46.4V50h3.6l-3.6 3.6-3.6-3.6h3.6M18.9 46.4h0"/><path class="st4" d="m16.2 59-.3-.2M15.8 58.8h-.5M15.3 58.8l-.5.2M14.8 59l-.3.3M14.5 59.3l-.2.3M14.3 59.7l-.2.7M14.1 60.3v.5M14.1 60.9l.2.7M14.3 61.5l.2.3M14.5 61.9l.3.3M14.8 62.2l.5.2M15.3 62.4h.3M15.7 62.4l.5-.2M16.2 62.2l.2-.2M16.4 62.1v-1.2M16.4 60.9h-.7M17.9 62.4v-3.6M17.9 58.8l2.1 3.6M20 62.4v-3.6M21.7 62.4v-3.6M21.7 58.8h.9M22.5 58.8l.5.2M23 59l.3.3M23.4 59.3l.2.3M23.6 59.7l.2.7M23.7 60.3v.5M23.7 60.9l-.2.7M23.6 61.5l-.2.3M23.4 61.9l-.3.3M23 62.2l-.5.2M22.5 62.4h-.9"/><path class="st10" d="m16.8 14 2.2-3.6M18.9 17.6v-7.2M18.9 10.4l2.2 3.6M18.9 17.6h0"/><path class="st4" d="M14.3 3.4H17M15.7 4.8V2.1M20.5 1.2h-1.7M18.8 1.2l-.2 1.7M18.6 2.9l.2-.2M18.8 2.7l.3-.2M19.1 2.6h.9M20 2.6l.3.2M20.3 2.7l.2.2M20.5 2.9l.2.3M20.6 3.3v.9M20.6 4.1l-.2.3M20.5 4.5l-.2.2M20.3 4.6l-.3.2M20 4.8h-.9M19.1 4.8l-.3-.2M18.8 4.6l-.2-.2M21.7 1.2l1.2 3.6M22.9 4.8l1.2-3.6"/><path class="st10" d="M51 40.6h-1.1M51 40.6l-.4-1.1M51 30.5h-1.4M51 30.5l-.4 1.1M62.1 23l-10.8 9M65.7 26.6 56 38.5"/><path d="M58.5 25.5H29.7v20.2h32.4V31.3" style="stroke:#840000;stroke-width:.7px;fill:none;stroke-linecap:round;stroke-linejoin:round"/><path class="st10" d="M51 30.5c-2.8 1.2-4.1 4.4-2.9 7.2.6 1.3 1.6 2.3 2.9 2.9"/><circle class="st10" cx="53.1" cy="35.6" r=".5"/><circle class="st10" cx="53.1" cy="35.6" r="4"/><circle class="st10" cx="61.1" cy="27.6" r=".4"/><circle class="st10" cx="62.5" cy="26.2" r=".4"/><circle class="st10" cx="63.9" cy="24.8" r=".4"/><path class="st10" d="M65.7 26.6c.7-1.3.2-2.9-1.1-3.6-.8-.4-1.7-.4-2.5 0M29.7 28.4h-7.2"/><path class="st4" d="m30.8 29.8.5.2M31.3 30h.9M32.1 30l.3-.2M32.5 29.8l.2-.2M32.7 29.7l.2-.3M32.8 29.3V29M32.8 29l-.2-.3M32.7 28.6l-.2-.2M32.5 28.5l-.3-.2M32.1 28.3l-.7-.2M31.5 28.1l-.3-.2M31.1 27.9l-.2-.2M30.9 27.8l-.2-.3M30.8 27.4v-.3M30.8 27.1l.2-.3M30.9 26.7l.2-.2M31.1 26.6l.3-.2M31.5 26.4h.9M32.3 26.4l.5.2M34.4 30v-3.6M38 26.6l-.3-.2M37.6 26.4h-.5M37.1 26.4l-.5.2M36.6 26.6l-.3.3M36.3 26.9l-.2.3M36.1 27.3l-.2.7M35.9 27.9v.5M35.9 28.5l.2.7M36.1 29.1l.2.3M36.3 29.5l.3.3M36.6 29.8l.5.2M37.1 30h.3M37.5 30l.5-.2M38 29.8l.2-.2M38.1 29.7v-1.2M38.1 28.5h-.7M39.7 30v-3.6M39.7 26.4l2.1 3.6M41.7 30v-3.6M43.3 29H45M42.9 30l1.2-3.6M44.1 26.4l1.2 3.6M48.3 30h-1.7M46.5 30v-3.6"/><path class="st0" d="M27.2 27.2h-2.1M26.1 27.2v-3.6M26.1 23.6l-.3.5M25.8 24.1l-.3.3M25.4 24.4l-.3.2"/><path class="st10" d="M29.7 35.6h-7.2"/><path class="st4" d="M30.9 35.8h2.7M32.3 37.2v-2.7"/><path class="st0" d="m25.1 31.1.2-.2M25.3 30.9l.3-.2M25.6 30.8h.9M26.5 30.8l.3.2M26.8 30.9l.2.2M27 31.1l.2.3M27.2 31.5v.3M27.2 31.8l-.2.5M27 32.3l-2.1 2.1M24.9 34.4h2.2"/><path class="st10" d="M29.7 42.8h-7.2"/><path class="st4" d="M30.9 43h2.7"/><path class="st0" d="M24.9 38h2.2M27.2 38 26 39.4M26 39.3h.5M26.5 39.3l.3.2M26.8 39.5l.2.2M27 39.7l.2.3M27.2 40v.9M27.2 40.9l-.2.3M27 41.2l-.2.2M26.8 41.4l-.3.2M26.5 41.6h-1M25.4 41.6l-.3-.2M25.1 41.4l-.2-.2"/><path class="st8" d="M2.1 26.9v-3.6M2.1 23.3H3M2.9 23.3l.5.2M3.4 23.5l.3.3M3.8 23.8l.2.3M4 24.2l.2.7M4.1 24.8v.5M4.1 25.4l-.2.7M4 26l-.2.3M3.8 26.4l-.3.3M3.4 26.7l-.5.2M2.9 26.9H2M5.7 26.9v-3.6M7.4 26.9v-3.6M7.4 23.3l2.1 3.6M9.4 26.9v-3.6"/><path class="st7" d="M29.4 4.8V1.2M29.4 1.2h.9M30.3 1.2l.5.2M30.8 1.4l.3.3M31.1 1.7l.2.3M31.3 2l.2.7M31.5 2.7v.5M31.5 3.2l-.2.7M31.3 3.9l-.2.3M31.1 4.3l-.3.3M30.8 4.6l-.5.2M30.3 4.8h-.9M34.4 4.6l-.3.2M34.1 4.8h-.7M33.4 4.8l-.3-.2M33 4.6l-.2-.3M32.9 4.3V2.9M32.9 2.9l.2-.3M33 2.6l.3-.2M33.4 2.4h.7M34.1 2.4l.3.2M34.4 2.6l.2.3M34.6 2.9v.3M34.6 3.2l-1.7.3M37.7 4.8V1.2M37.7 4.6l-.3.2M37.3 4.8h-.7M36.6 4.8l-.3-.2M36.3 4.6l-.2-.2M36.1 4.4l-.2-.3M35.9 4.1v-1M35.9 3.1l.2-.3M36.1 2.7l.2-.2M36.3 2.6l.3-.2M36.6 2.4h.7M37.3 2.4l.3.2M39.4 4.8V2.4M39.4 1.2l-.2.2M39.2 1.4l.2.2M39.4 1.5l.2-.2M39.5 1.4l-.2-.2M39.4 1.2v.3M42.6 4.6l-.3.2M42.3 4.8h-.7M41.6 4.8l-.3-.2M41.3 4.6l-.2-.2M41.1 4.4l-.2-.3M40.9 4.1v-1M40.9 3.1l.2-.3M41.1 2.7l.2-.2M41.3 2.6l.3-.2M41.6 2.4h.7M42.3 2.4l.3.2M45.7 4.8V2.9M45.7 2.9l-.2-.3M45.5 2.6l-.3-.2M45.2 2.4h-.7M44.5 2.4l-.3.2M45.7 4.6l-.3.2M45.4 4.8h-.9M44.5 4.8l-.3-.2M44.2 4.6l-.2-.3M44 4.3V4M44 3.9l.2-.3M44.2 3.6l.3-.2M44.5 3.4h.9M45.4 3.4l.3-.2M46.9 2.4h1.4M47.4 1.2v3.1M47.4 4.3l.2.3M47.6 4.6l.3.2M47.9 4.8h.3M50.9 4.6l-.3.2M50.5 4.8h-.7M49.8 4.8l-.3-.2M49.5 4.6l-.2-.3M49.3 4.3V2.9M49.3 2.9l.2-.3M49.5 2.6l.3-.2M49.8 2.4h.7M50.5 2.4l.3.2M50.9 2.6l.2.3M51 2.9v.3M51 3.2l-1.7.3M54.1 4.8V1.2M54.1 4.6l-.3.2M53.8 4.8h-.7M53.1 4.8l-.3-.2M52.7 4.6l-.2-.2M52.6 4.4l-.2-.3M52.4 4.1v-1M52.4 3.1l.2-.3M52.6 2.7l.2-.2M52.7 2.6l.3-.2M53.1 2.4h.7M53.8 2.4l.3.2M58.6 3.4h2.7M59.9 4.8V2.1M64.7 1.2H63M63 1.2l-.2 1.7M62.9 2.9l.2-.2M63 2.7l.3-.2M63.4 2.6h.9M64.2 2.6l.3.2M64.6 2.7l.2.2M64.7 2.9l.2.3M64.9 3.2v.9M64.9 4.1l-.2.3M64.7 4.4l-.2.2M64.6 4.6l-.3.2M64.2 4.8h-.9M63.4 4.8l-.3-.2M63 4.6l-.2-.2M65.9 1.2l1.2 3.6M67.1 4.8l1.2-3.6M72.3 2.4V6M72.3 2.6l.3-.2M72.6 2.4h.7M73.3 2.4l.3.2M73.7 2.6l.2.2M73.8 2.7l.2.3M74 3.1v1M74 4.1l-.2.3M73.8 4.4l-.2.2M73.7 4.6l-.3.2M73.3 4.8h-.7M72.6 4.8l-.3-.2M76.1 4.8l-.3-.2M75.7 4.6l-.2-.2M75.5 4.4l-.2-.3M75.4 4.1v-1M75.4 3.1l.2-.3M75.5 2.7l.2-.2M75.7 2.6l.3-.2M76.1 2.4h.5M76.6 2.4l.3.2M76.9 2.6l.2.2M77.1 2.7l.2.3M77.3 3.1v1M77.3 4.1l-.2.3M77.1 4.4l-.2.2M76.9 4.6l-.3.2M76.6 4.8h-.5M78.5 2.4l.7 2.4M79.1 4.8l.7-1.7M79.8 3.1l.7 1.7M80.5 4.8l.7-2.4M83.9 4.6l-.3.2M83.6 4.8h-.7M82.9 4.8l-.3-.2M82.6 4.6l-.2-.3M82.4 4.3V2.9M82.4 2.9l.2-.3M82.6 2.6l.3-.2M82.9 2.4h.7M83.6 2.4l.3.2M83.9 2.6l.2.3M84.1 2.9v.3M84.1 3.2l-1.7.3M85.7 4.8V2.4M85.7 3.1l.2-.3M85.8 2.7l.2-.2M86 2.6l.3-.2M86.3 2.4h.3M88.1 4.6v.2M88.1 4.8l-.2.3M87.9 5.1l-.2.2M29.4 8.2v2.4M29.4 8.5l.2-.2M29.6 8.4l.3-.2M29.9 8.2h.5M30.5 8.2l.3.2M30.8 8.4l.2.3M31 8.7v1.9M33.2 10.6l-.3-.2M32.9 10.4l-.2-.2M32.7 10.2l-.2-.3M32.5 9.9v-1M32.5 8.9l.2-.3M32.7 8.5l.2-.2M32.9 8.4l.3-.2M33.2 8.2h.5M33.7 8.2l.3.2M34.1 8.4l.2.2M34.2 8.5l.2.3M34.4 8.9v1M34.4 9.9l-.2.3M34.2 10.2l-.2.2M34.1 10.4l-.3.2M33.7 10.6h-.5M35.4 8.2h1.4M35.9 7v3.1M35.9 10.1l.2.3M36.1 10.4l.3.2M36.5 10.6h.3M40.2 8.2h1.4M40.7 10.6V7.5M40.7 7.5l.2-.3M40.9 7.2l.3-.2M41.3 7h.3M42.8 10.6V8.2M42.8 8.9l.2-.3M43 8.5l.2-.2M43.1 8.4l.3-.2M43.5 8.2h.3M45.5 10.6l-.3-.2M45.2 10.4l-.2-.2M45 10.2l-.2-.3M44.9 9.9v-1M44.9 8.9l.2-.3M45 8.5l.2-.2M45.2 8.4l.3-.2M45.5 8.2h.5M46.1 8.2l.3.2M46.4 8.4l.2.2M46.6 8.5l.2.3M46.7 8.9v1M46.7 9.9l-.2.3M46.6 10.2l-.2.2M46.4 10.4l-.3.2M46.1 10.6h-.5M48.3 10.6V8.2M48.3 8.5l.2-.2M48.5 8.4l.3-.2M48.8 8.2h.5M49.3 8.2l.3.2M49.7 8.4l.2.3M49.8 8.7v1.9M49.8 8.7l.2-.3M50 8.4l.3-.2M50.3 8.2h.5M50.9 8.2l.3.2M51.2 8.4l.2.3M51.4 8.7v1.9M57.4 10.6V8.7M57.4 8.7l-.2-.3M57.2 8.4l-.3-.2M56.9 8.2h-.7M56.2 8.2l-.3.2M57.4 10.4l-.3.2M57 10.6h-.9M56.2 10.6l-.3-.2M55.8 10.4l-.2-.3M55.7 10.1v-.3M55.7 9.7l.2-.3M55.8 9.4l.3-.2M56.2 9.2h.9M57 9.2l.3-.2M61.8 9.2h2.7M63.2 10.6V7.9M68 7h-1.7M66.3 7l-.2 1.7M66.1 8.7l.2-.2M66.3 8.5l.3-.2M66.6 8.4h.9M67.5 8.4l.3.2M67.8 8.5l.2.2M68 8.7l.2.3M68.2 9v.9M68.2 9.9l-.2.3M68 10.2l-.2.2M67.8 10.4l-.3.2M67.5 10.6h-.9M66.6 10.6l-.3-.2M66.3 10.4l-.2-.2M69.2 7l1.2 3.6M70.4 10.6 71.6 7M75.5 8.2v3.6M75.5 8.4l.3-.2M75.9 8.2h.7M76.6 8.2l.3.2M76.9 8.4l.2.2M77.1 8.5l.2.3M77.3 8.9v1M77.3 9.9l-.2.3M77.1 10.2l-.2.2M76.9 10.4l-.3.2M76.6 10.6h-.7M75.9 10.6l-.3-.2M78.8 10.6V8.2M78.8 7l-.2.2M78.6 7.2l.2.2M78.8 7.3l.2-.2M79 7.2l-.2-.2M78.8 7v.3M80.5 8.2v2.4M80.5 8.5l.2-.2M80.7 8.4l.3-.2M81 8.2h.5M81.5 8.2l.3.2M81.9 8.4l.2.3M82.1 8.7v1.9M87 10.6l-.3-.2M86.7 10.4l-.2-.2M86.5 10.2l-.2-.3M86.3 9.9v-1M86.3 8.9l.2-.3M86.5 8.5l.2-.2M86.7 8.4l.3-.2M87 8.2h.5M87.5 8.2l.3.2M87.9 8.4l.2.2M88.1 8.5l.2.3M88.2 8.9v1M88.2 9.9l-.2.3M88.1 10.2l-.2.2M87.9 10.4l-.3.2M87.5 10.6H87M89.8 8.2v2.4M89.8 8.5l.2-.2M89.9 8.4l.3-.2M90.3 8.2h.5M90.8 8.2l.3.2M91.1 8.4l.2.3M91.3 8.7v1.9M95.3 8.2h1.4M95.8 7v3.1M95.8 10.1l.2.3M95.9 10.4l.3.2M96.3 10.6h.3M97.8 10.6V7M99.4 10.6V8.7M99.4 8.7l-.2-.3M99.2 8.4l-.3-.2M98.9 8.2h-.5M98.3 8.2l-.3.2M98 8.4l-.2.2M102.5 10.4l-.3.2M102.1 10.6h-.7M101.4 10.6l-.3-.2M101.1 10.4l-.2-.3M100.9 10.1V8.7M100.9 8.7l.2-.3M101.1 8.4l.3-.2M101.4 8.2h.7M102.1 8.2l.3.2M102.5 8.4l.2.3M102.6 8.7V9M102.6 9l-1.7.3M106.9 10.6V7M106.9 8.4l.3-.2M107.3 8.2h.7M107.9 8.2l.3.2M108.3 8.4l.2.2M108.5 8.5l.2.3M108.6 8.9v1M108.6 9.9l-.2.3M108.5 10.2l-.2.2M108.3 10.4l-.3.2M107.9 10.6h-.7M107.3 10.6l-.3-.2M110.7 10.6l-.3-.2M110.3 10.4l-.2-.2M110.2 10.2l-.2-.3M110 9.9v-1M110 8.9l.2-.3M110.2 8.5l.2-.2M110.3 8.4l.3-.2M110.7 8.2h.5M111.2 8.2l.3.2M111.5 8.4l.2.2M111.7 8.5l.2.3M111.9 8.9v1M111.9 9.9l-.2.3M111.7 10.2l-.2.2M111.5 10.4l-.3.2M111.2 10.6h-.5M115 10.6V8.7M115 8.7l-.2-.3M114.8 8.4l-.3-.2M114.5 8.2h-.7M113.8 8.2l-.3.2M115 10.4l-.3.2M114.6 10.6h-.9M113.8 10.6l-.3-.2M113.4 10.4l-.2-.3M113.3 10.1v-.3M113.3 9.7l.2-.3M113.4 9.4l.3-.2M113.8 9.2h.9M114.6 9.2l.3-.2M116.7 10.6V8.2M116.7 8.9l.2-.3M116.9 8.5l.2-.2M117 8.4l.3-.2M117.4 8.2h.3M120.5 10.6V7M120.5 10.4l-.3.2M120.1 10.6h-.7M119.4 10.6l-.3-.2M119.1 10.4l-.2-.2M118.9 10.2l-.2-.3M118.7 9.9v-1M118.7 8.9l.2-.3M118.9 8.5l.2-.2M119.1 8.4l.3-.2M119.4 8.2h.7M120.1 8.2l.3.2M122.2 10.2l.2.2M122.3 10.4l-.2.2M122.2 10.6l-.2-.2M122 10.4l.2-.2M122.2 10.2v.3"/><path class="st3" d="M.9 28.4h21.6M18.9 42.8v3.6M22.5 42.8h-3.6M18.9 17.6v18M22.5 35.6h-3.6"/></svg>