<svg id="Layer_1" xmlns="http://www.w3.org/2000/svg" version="1.1" viewBox="0 0 370.8 230.2">
  <defs>
    <style>
      .st3 {
        letter-spacing: .3em
      }

      .st4 {
        stroke: #000084
      }

      .st10,
      .st11,
      .st12,
      .st13,
      .st14,
      .st15,
      .st16,
      .st4,
      .st5,
      .st6,
      .st7,
      .st8,
      .st9 {
        stroke-linecap: round;
        stroke-linejoin: round
      }

      .st10,
      .st11,
      .st12,
      .st14,
      .st15,
      .st16,
      .st4,
      .st5,
      .st6,
      .st7,
      .st8,
      .st9 {
        fill: none
      }

      .st12,
      .st14,
      .st16,
      .st4,
      .st5,
      .st8,
      .st9 {
        stroke-width: .4px
      }

      .st15,
      .st5 {
        stroke: #a90000
      }

      .st17 {
        letter-spacing: .9em
      }

      .st18 {
        letter-spacing: .2em
      }

      .st10,
      .st11,
      .st15,
      .st6 {
        font-family: ArialMT, Arial;
        font-size: 4.8px;
        stroke-width: .4px
      }

      .st14,
      .st6 {
        stroke: #0f0f0f
      }

      .st13,
      .st7 {
        stroke-width: .7px
      }

      .st13,
      .st16,
      .st7 {
        stroke: #840000
      }

      .st20 {
        letter-spacing: .8em
      }

      .st21 {
        letter-spacing: 1em
      }

      .st8 {
        stroke: #009600
      }

      .st25 {
        letter-spacing: .8em
      }

      .st26 {
        fill: #ffffc2
      }

      .st27 {
        letter-spacing: 1.2em
      }

      .st28 {
        letter-spacing: 1em
      }

      .st30 {
        letter-spacing: .7em
      }

      .st11,
      .st9 {
        stroke: #006464
      }

      .st10,
      .st12 {
        stroke: #0000c2
      }

      .st34 {
        letter-spacing: 1em
      }

      .st35 {
        letter-spacing: .3em
      }

      .st36,
      .st37,
      .st38 {
        letter-spacing: .7em
      }

      .st39 {
        isolation: isolate;
        opacity: 0
      }

      .st40 {
        letter-spacing: .8em
      }

      .st13 {
        fill: #840000
      }

      .st42 {
        letter-spacing: 1.6em
      }

      .st46 {
        letter-spacing: .5em
      }

      .st48 {
        letter-spacing: .2em
      }
    </style>
  </defs>
  <path class="st16" d="M15.3 89.5v3.6h3.6l-3.6 3.6-3.6-3.6h3.6M15.3 89.5h0" />
  <path class="st9"
    d="m12.6 102.2-.3-.2M12.2 102h-.5M11.7 102l-.5.2M11.2 102.2l-.3.3M10.9 102.5l-.2.3M10.7 102.8l-.2.7M10.5 103.5v.5M10.5 104l.2.7M10.7 104.7l.2.3M10.9 105.1l.3.3M11.2 105.4l.5.2M11.7 105.6h.3M12.1 105.6l.5-.2M12.6 105.4l.2-.2M12.8 105.2V104M12.8 104h-.7M14.3 105.6V102M14.3 102l2.1 3.6M16.4 105.6V102M18.1 105.6V102M18.1 102h.9M18.9 102l.5.2M19.4 102.2l.3.3M19.8 102.5l.2.3M20 102.8l.2.7M20.1 103.5v.5M20.1 104l-.2.7M20 104.7l-.2.3M19.8 105.1l-.3.3M19.4 105.4l-.5.2M18.9 105.6H18" />
  <path class="st16" d="m13.2 13.9 2.2-3.6M15.3 17.5v-7.2M15.3 10.3l2.2 3.6M15.3 17.5h0" />
  <path class="st9"
    d="M10.4 3.4h2.7M11.8 4.8V2.1M16.6 1.2h-1.7M14.9 1.2l-.2 1.7M14.7 2.9l.2-.2M14.9 2.7l.3-.2M15.2 2.6h.9M16.1 2.6l.3.2M16.4 2.7l.2.2M16.6 2.9l.2.3M16.8 3.2v.9M16.8 4.1l-.2.3M16.6 4.4l-.2.2M16.4 4.6l-.3.2M16.1 4.8h-.9M15.2 4.8l-.3-.2M14.9 4.6l-.2-.2M20.4 4.4l-.2.2M20.2 4.6l-.5.2M19.7 4.8h-.3M19.4 4.8l-.5-.2M18.8 4.6l-.3-.3M18.5 4.3l-.2-.3M18.3 3.9l-.2-.7M18.2 3.2v-.5M18.2 2.7l.2-.7M18.3 2l.2-.3M18.5 1.7l.3-.3M18.8 1.4l.5-.2M19.4 1.2h.3M19.7 1.2l.5.2M20.2 1.4l.2.2" />
  <path class="st16" d="m56.4 132.7 2.2-3.6M58.5 136.3v-7.2M58.5 129.1l2.2 3.6M58.5 136.3h0" />
  <path class="st9"
    d="M53.6 122.2h2.7M55 123.6v-2.7M59.8 120h-1.7M58.1 120l-.2 1.7M57.9 121.7l.2-.2M58.1 121.5l.3-.2M58.4 121.4h.9M59.3 121.4l.3.2M59.6 121.5l.2.2M59.8 121.7l.2.3M60 122v.9M60 122.9l-.2.3M59.8 123.2l-.2.2M59.6 123.4l-.3.2M59.3 123.6h-.9M58.4 123.6l-.3-.2M58.1 123.4l-.2-.2M63.6 123.2l-.2.2M63.4 123.4l-.5.2M62.9 123.6h-.3M62.6 123.6l-.5-.2M62 123.4l-.3-.3M61.7 123.1l-.2-.3M61.5 122.7l-.2-.7M61.4 122v-.5M61.4 121.5l.2-.7M61.5 120.8l.2-.3M61.7 120.5l.3-.3M62 120.2l.5-.2M62.6 120h.3M62.9 120l.5.2M63.4 120.2l.2.2" />
  <path class="st26" d="M29.7 17.5h262.8v72H29.7z" />
  <path class="st7"
    d="M29.7 17.5h262.8v72H29.7zM44.1 64.3l3.6-10.8M47.7 64.3h7.2M48.5 49.9l3.6-10.8M51.3 53.5h7.2M55.7 39.1h7.2M58.5 64.3l3.6-10.8M62.9 49.9l3.6-10.8M76.5 64.3l3.6-10.8M80.1 64.3h7.2M80.9 49.9l3.6-10.8M83.7 53.5h7.2M88.1 39.1h7.2M90.9 64.3l3.6-10.8M95.3 49.9l3.6-10.8M105.3 64.3l3.6-10.8M108.9 64.3h7.2M109.7 49.9l3.6-10.8M112.5 53.5h7.2M116.9 39.1h7.2M119.7 64.3l3.6-10.8M124.1 49.9l3.6-10.8M133.4 64.3l3.6-10.8M137 64.3h7.2M137.7 49.9l3.6-10.8M140.6 53.5h7.2M144.9 39.1h7.2M147.8 64.3l3.6-10.8M152.1 49.9l3.6-10.8M162.9 64.3l3.6-10.8M166.5 64.3h7.2M167.3 49.9l3.6-10.8M170.1 53.5h7.2M174.5 39.1h7.2M177.3 64.3l3.6-10.8M181.7 49.9l3.6-10.8M195.3 64.3l3.6-10.8M198.9 64.3h7.2M199.7 49.9l3.6-10.8M202.5 53.5h7.2M206.9 39.1h7.2M209.7 64.3l3.6-10.8M214.1 49.9l3.6-10.8M224.1 64.3l3.6-10.8M227.7 64.3h7.2M228.5 49.9l3.6-10.8M231.3 53.5h7.2M235.7 39.1h7.2M238.5 64.3l3.6-10.8M242.9 49.9l3.6-10.8M252.2 64.3l3.6-10.8M255.8 64.3h7.2M256.5 49.9l3.6-10.8M259.4 53.5h7.2M263.7 39.1h7.2M266.6 64.3l3.6-10.8M270.9 49.9l3.6-10.8" />
  <circle class="st13" cx="62.9" cy="64.3" r="1" />
  <circle class="st13" cx="94.5" cy="64.3" r="1" />
  <circle class="st13" cx="181.7" cy="64.3" r="1" />
  <circle class="st13" cx="213.3" cy="64.3" r="1" />
  <circle class="st13" cx="123.3" cy="65.1" r="1" />
  <circle class="st13" cx="152.1" cy="64.3" r="1" />
  <circle class="st13" cx="242.1" cy="65.1" r="1" />
  <circle class="st13" cx="270.9" cy="64.3" r="1" />
  <path class="st16" d="M29.7 39.1h-7.2" />
  <path class="st9"
    d="m31.8 37.2 1.2 3.6M33 40.8l1.2-3.6M37.5 40.4l-.2.2M37.3 40.6l-.5.2M36.8 40.8h-.3M36.4 40.8l-.5-.2M35.9 40.6l-.3-.3M35.6 40.3l-.2-.3M35.4 39.9l-.2-.7M35.2 39.2v-.5M35.2 38.7l.2-.7M35.4 38l.2-.3M35.6 37.7l.3-.3M35.9 37.4l.5-.2M36.4 37.2h.3M36.8 37.2l.5.2M37.3 37.4l.2.2M41.1 40.4l-.2.2M40.9 40.6l-.5.2M40.4 40.8h-.3M40 40.8l-.5-.2M39.5 40.6l-.3-.3M39.2 40.3 39 40M39 39.9l-.2-.7M38.8 39.2v-.5M38.8 38.7l.2-.7M39 38l.2-.3M39.2 37.7l.3-.3M39.5 37.4l.5-.2M40 37.2h.3M40.4 37.2l.5.2M40.9 37.4l.2.2" />
  <path class="st5" d="M27.2 38h-2.1M26.1 38v-3.6M26.1 34.4l-.3.5M25.8 34.9l-.3.3M25.4 35.2l-.3.2" />
  <path class="st16" d="M292.5 67.9h7.2" />
  <path class="st9"
    d="m283.6 69.2-.2.2M283.4 69.4l-.5.2M282.9 69.6h-.3M282.6 69.6l-.5-.2M282.1 69.4l-.3-.3M281.7 69.1l-.2-.3M281.5 68.7l-.2-.7M281.4 68v-.5M281.4 67.5l.2-.7M281.5 66.8l.2-.3M281.7 66.5l.3-.3M282.1 66.2l.5-.2M282.6 66h.3M282.9 66l.5.2M283.4 66.2l.2.2M286.9 69.6h-1.7M285.1 69.6V66M288.1 69.6V66M290.1 69.6l-1.5-2.1M290.1 66l-2.1 2.1" />
  <path class="st5"
    d="M295.4 66.8h-2.1M294.4 66.8v-3.6M294.4 63.2l-.3.5M294.1 63.7l-.3.3M293.7 64l-.3.2M297.7 63.2h.3M298 63.2l.3.2M298.4 63.3l.2.2M298.5 63.5l.2.3M298.7 63.8l.2.7M298.9 64.5v.9M298.9 65.4l-.2.7M298.7 66.1l-.2.3M298.5 66.4l-.2.2M298.4 66.6l-.3.2M298 66.8h-.3M297.7 66.8l-.3-.2M297.3 66.6l-.2-.2M297.2 66.4l-.2-.3M297 66.1l-.2-.7M296.8 65.4v-.9M296.8 64.5l.2-.7M297 63.8l.2-.3M297.2 63.5l.2-.2M297.3 63.3l.3-.2" />
  <path class="st16" d="M29.7 46.3h-7.2" />
  <path class="st9"
    d="m34.2 44.6-.3-.2M33.9 44.4h-.5M33.3 44.4l-.5.2M32.8 44.6l-.3.3M32.5 44.9l-.2.3M32.3 45.2l-.2.7M32.1 45.9v.5M32.1 46.4l.2.7M32.3 47.1l.2.3M32.5 47.5l.3.3M32.8 47.8l.5.2M33.3 48h.3M33.7 48l.5-.2M34.2 47.8l.2-.2M34.4 47.6v-1.2M34.4 46.4h-.7M35.9 48v-3.6M35.9 44.4 38 48M38 48v-3.6M39.7 48v-3.6M39.7 44.4h.9M40.5 44.4l.5.2M41.1 44.6l.3.3M41.4 44.9l.2.3M41.6 45.2l.2.7M41.7 45.9v.5M41.7 46.4l-.2.7M41.6 47.1l-.2.3M41.4 47.5l-.3.3M41.1 47.8l-.5.2M40.5 48h-.9" />
  <path class="st5"
    d="m25.1 41.9.2-.2M25.3 41.7l.3-.2M25.6 41.6h.9M26.5 41.6l.3.2M26.8 41.7l.2.2M27 41.9l.2.3M27.2 42.2v.3M27.2 42.6l-.2.5M27 43.1l-2.1 2.1M24.9 45.2h2.2" />
  <path class="st16" d="M29.7 53.5h-7.2" />
  <path class="st9"
    d="M32.3 55.2v-3.6M32.3 51.6h.9M33.2 51.6l.5.2M33.7 51.8l.3.3M34 52.1l.2.3M34.2 52.4l.2.7M34.4 53.1v.5M34.4 53.6l-.2.7M34.2 54.3l-.2.3M34 54.7l-.3.3M33.7 55l-.5.2M33.2 55.2h-.9M35.9 55.2v-3.6M37.6 55.2v-3.6M37.6 51.6l2.1 3.6M39.7 55.2v-3.6" />
  <path class="st5"
    d="M24.9 48.8h2.2M27.2 48.8 26 50.2M26 50.1h.5M26.5 50.1l.3.2M26.8 50.3l.2.2M27 50.5l.2.3M27.2 50.8v.9M27.2 51.7l-.2.3M27 52l-.2.2M26.8 52.2l-.3.2M26.5 52.4h-1M25.4 52.4l-.3-.2M25.1 52.2l-.2-.2" />
  <path class="st16" d="M29.7 60.7h-7.2" />
  <path class="st9"
    d="m34.4 62-.2.2M34.2 62.2l-.5.2M33.7 62.4h-.3M33.3 62.4l-.5-.2M32.8 62.2l-.3-.3M32.5 61.9l-.2-.3M32.3 61.5l-.2-.7M32.1 60.8v-.5M32.1 60.3l.2-.7M32.3 59.6l.2-.3M32.5 59.3l.3-.3M32.8 59l.5-.2M33.3 58.8h.3M33.7 58.8l.5.2M34.2 59l.2.2M35.7 62.2l.5.2M36.3 62.4h.9M37.1 62.4l.3-.2M37.5 62.2l.2-.2M37.6 62l.2-.3M37.8 61.7v-.3M37.8 61.4l-.2-.3M37.6 61l-.2-.2M37.5 60.8l-.3-.2M37.1 60.7l-.7-.2M36.4 60.5l-.3-.2M36.1 60.3l-.2-.2M35.9 60.2l-.2-.3M35.7 59.8v-.3M35.7 59.5l.2-.3M35.9 59.1l.2-.2M36.1 59l.3-.2M36.4 58.8h.9M37.3 58.8l.5.2" />
  <path class="st5" d="M26.8 57.2v2.4M26 55.8l-.9 2.6M25.1 58.4h2.2" />
  <path class="st16" d="M29.7 67.9h-7.2" />
  <path class="st9"
    d="m34.4 69.2-.2.2M34.2 69.4l-.5.2M33.7 69.6h-.3M33.3 69.6l-.5-.2M32.8 69.4l-.3-.3M32.5 69.1l-.2-.3M32.3 68.7l-.2-.7M32.1 68v-.5M32.1 67.5l.2-.7M32.3 66.8l.2-.3M32.5 66.5l.3-.3M32.8 66.2l.5-.2M33.3 66h.3M33.7 66l.5.2M34.2 66.2l.2.2M37.6 69.6h-1.7M35.9 69.6V66M38.8 69.6V66M40.9 69.6l-1.5-2.1M40.9 66l-2.1 2.1" />
  <path class="st5"
    d="M27 63.2h-1.7M25.3 63.2l-.2 1.7M25.1 64.9l.2-.2M25.3 64.7l.3-.2M25.6 64.5h.9M26.5 64.5l.3.2M26.8 64.7l.2.2M27 64.9l.2.3M27.2 65.2v.9M27.2 66.1l-.2.3M27 66.4l-.2.2M26.8 66.6l-.3.2M26.5 66.8h-.9M25.6 66.8l-.3-.2M25.3 66.6l-.2-.2" />
  <path class="st16" d="M292.5 39.1h7.2" />
  <path class="st9"
    d="m280.9 37.2 1.2 3.6M282.1 40.8l1.2-3.6M286.5 40.4l-.2.2M286.3 40.6l-.5.2M285.8 40.8h-.3M285.5 40.8l-.5-.2M285 40.6l-.3-.3M284.6 40.3l-.2-.3M284.5 39.9l-.2-.7M284.3 39.2v-.5M284.3 38.7l.2-.7M284.5 38l.2-.3M284.6 37.7l.3-.3M285 37.4l.5-.2M285.5 37.2h.3M285.8 37.2l.5.2M286.3 37.4l.2.2M290.1 40.4l-.2.2M289.9 40.6l-.5.2M289.4 40.8h-.3M289.1 40.8l-.5-.2M288.6 40.6l-.3-.3M288.2 40.3l-.2-.3M288.1 39.9l-.2-.7M287.9 39.2v-.5M287.9 38.7l.2-.7M288.1 38l.2-.3M288.2 37.7l.3-.3M288.6 37.4l.5-.2M289.1 37.2h.3M289.4 37.2l.5.2M289.9 37.4l.2.2" />
  <path class="st5"
    d="M296.8 34.4h-.7M296.1 34.4l-.3.2M295.8 34.5l-.2.2M295.6 34.7l-.3.5M295.3 35.2l-.2.7M295.1 35.9v1.4M295.1 37.3l.2.3M295.3 37.6l.2.2M295.4 37.8l.3.2M295.8 38h.7M296.5 38l.3-.2M296.8 37.8l.2-.2M297 37.6l.2-.3M297.2 37.3v-.9M297.2 36.4l-.2-.3M297 36.1l-.2-.2M296.8 35.9l-.3-.2M296.5 35.7h-.7M295.8 35.7l-.3.2M295.4 35.9l-.2.2M295.3 36.1l-.2.3" />
  <path class="st16" d="M292.5 46.3h7.2" />
  <path class="st9"
    d="m282.6 44.6-.3-.2M282.2 44.4h-.5M281.7 44.4l-.5.2M281.2 44.6l-.3.3M280.9 44.9l-.2.3M280.7 45.2l-.2.7M280.5 45.9v.5M280.5 46.4l.2.7M280.7 47.1l.2.3M280.9 47.5l.3.3M281.2 47.8l.5.2M281.7 48h.3M282.1 48l.5-.2M282.6 47.8l.2-.2M282.7 47.6v-1.2M282.7 46.4h-.7M284.3 48v-3.6M284.3 44.4l2.1 3.6M286.3 48v-3.6M288.1 48v-3.6M288.1 44.4h.9M288.9 44.4l.5.2M289.4 44.6l.3.3M289.8 44.9l.2.3M289.9 45.2l.2.7M290.1 45.9v.5M290.1 46.4l-.2.7M289.9 47.1l-.2.3M289.8 47.5l-.3.3M289.4 47.8l-.5.2M288.9 48h-.9" />
  <path class="st5" d="M294.9 41.6h2.4M297.3 41.6l-1.5 3.6" />
  <path class="st16" d="M292.5 53.5h7.2" />
  <path class="st9"
    d="M277.8 55.2v-3.6M277.8 51.6h.9M278.6 51.6l.5.2M279.1 51.8l.3.3M279.5 52.1l.2.3M279.7 52.4l.2.7M279.8 53.1v.5M279.8 53.6l-.2.7M279.7 54.3l-.2.3M279.5 54.7l-.3.3M279.1 55l-.5.2M278.6 55.2h-.9M282.1 51.6h.7M282.7 51.6l.3.2M283.1 51.8l.3.3M283.4 52.1l.2.7M283.6 52.8V54M283.6 54l-.2.7M283.4 54.7l-.3.3M283.1 55l-.3.2M282.7 55.2h-.7M282.1 55.2l-.3-.2M281.7 55l-.3-.3M281.4 54.7l-.2-.7M281.2 54v-1.2M281.2 52.8l.2-.7M281.4 52.1l.3-.3M281.7 51.8l.3-.2M285.1 51.6v2.9M285.1 54.5l.2.3M285.3 54.8l.2.2M285.5 55l.3.2M285.8 55.2h.7M286.5 55.2l.3-.2M286.9 55l.2-.2M287 54.8l.2-.3M287.2 54.5v-2.9M288.4 51.6h2.1M289.4 55.2v-3.6" />
  <path class="st5"
    d="m295.8 50.3-.3-.2M295.4 50.1l-.2-.2M295.3 50l-.2-.3M295.1 49.6v-.2M295.1 49.4l.2-.3M295.3 49.1l.2-.2M295.4 48.9l.3-.2M295.8 48.8h.7M296.5 48.8l.3.2M296.8 48.9l.2.2M297 49.1l.2.3M297.2 49.4v.2M297.2 49.6l-.2.3M297 50l-.2.2M296.8 50.1l-.3.2M296.5 50.3h-.7M295.8 50.3l-.3.2M295.4 50.5l-.2.2M295.3 50.6l-.2.3M295.1 51v.7M295.1 51.7l.2.3M295.3 52l.2.2M295.4 52.2l.3.2M295.8 52.4h.7M296.5 52.4l.3-.2M296.8 52.2l.2-.2M297 52l.2-.3M297.2 51.7V51M297.2 51l-.2-.3M297 50.6l-.2-.2M296.8 50.5l-.3-.2" />
  <path class="st16" d="M292.5 60.7h7.2" />
  <path class="st9"
    d="M280 62.4h-1.7M278.3 62.4v-3.6M281.9 58.8h.7M282.6 58.8l.3.2M282.9 59l.3.3M283.3 59.3l.2.7M283.4 60v1.2M283.4 61.2l-.2.7M283.3 61.9l-.3.3M282.9 62.2l-.3.2M282.6 62.4h-.7M281.9 62.4l-.3-.2M281.5 62.2l-.3-.3M281.2 61.9l-.2-.7M281 61.2V60M281 60l.2-.7M281.2 59.3l.3-.3M281.5 59l.3-.2M285 62.4v-3.6M285 58.8h.9M285.8 58.8l.5.2M286.3 59l.3.3M286.7 59.3l.2.3M286.9 59.6l.2.7M287 60.3v.5M287 60.8l-.2.7M286.9 61.5l-.2.3M286.7 61.9l-.3.3M286.3 62.2l-.5.2M285.8 62.4h-.9M288.4 61.4h1.7M288.1 62.4l1.2-3.6M289.3 58.8l1.2 3.6" />
  <path class="st5"
    d="M295.4 59.6h.7M296.1 59.6l.3-.2M296.5 59.4l.2-.2M296.6 59.2l.3-.5M297 58.7l.2-.7M297.2 58v-1.4M297.2 56.6l-.2-.3M297 56.3l-.2-.2M296.8 56.1l-.3-.2M296.5 56h-.7M295.8 56l-.3.2M295.4 56.1l-.2.2M295.3 56.3l-.2.3M295.1 56.6v.9M295.1 57.5l.2.3M295.3 57.8l.2.2M295.4 58l.3.2M295.8 58.2h.7M296.5 58.2l.3-.2M296.8 58l.2-.2M297 57.8l.2-.3" />
  <path class="st16" d="M58.5 208.3v3.6h3.6l-3.6 3.6-3.6-3.6h3.6M58.5 208.3h0" />
  <path class="st9"
    d="m55.8 221-.3-.2M55.4 220.8h-.5M54.9 220.8l-.5.2M54.4 221l-.3.3M54.1 221.3l-.2.3M53.9 221.6l-.2.7M53.7 222.3v.5M53.7 222.8l.2.7M53.9 223.5l.2.3M54.1 223.9l.3.3M54.4 224.2l.5.2M54.9 224.4h.3M55.3 224.4l.5-.2M55.8 224.2l.2-.2M56 224v-1.2M56 222.8h-.7M57.5 224.4v-3.6M57.5 220.8l2.1 3.6M59.6 224.4v-3.6M61.3 224.4v-3.6M61.3 220.8h.9M62.1 220.8l.5.2M62.6 221l.3.3M63 221.3l.2.3M63.2 221.6l.2.7M63.3 222.3v.5M63.3 222.8l-.2.7M63.2 223.5l-.2.3M63 223.9l-.3.3M62.6 224.2l-.5.2M62.1 224.4h-.9" />
  <path class="st26" d="M72.9 136.3h262.8v72H72.9z" />
  <path class="st7"
    d="M72.9 136.3h262.8v72H72.9zM87.3 183.1l3.6-10.8M90.9 183.1h7.2M91.7 168.7l3.6-10.8M94.5 172.3h7.2M98.9 157.9h7.2M101.7 183.1l3.6-10.8M106.1 168.7l3.6-10.8M119.7 183.1l3.6-10.8M123.3 183.1h7.2M124.1 168.7l3.6-10.8M126.9 172.3h7.2M131.3 157.9h7.2M134.1 183.1l3.6-10.8M138.5 168.7l3.6-10.8M148.5 183.1l3.6-10.8M152.1 183.1h7.2M152.9 168.7l3.6-10.8M155.7 172.3h7.2M160.1 157.9h7.2M162.9 183.1l3.6-10.8M167.3 168.7l3.6-10.8M176.6 183.1l3.6-10.8M180.2 183.1h7.2M180.9 168.7l3.6-10.8M183.8 172.3h7.2M188.1 157.9h7.2M191 183.1l3.6-10.8M195.3 168.7l3.6-10.8M206.1 183.1l3.6-10.8M209.7 183.1h7.2M210.5 168.7l3.6-10.8M213.3 172.3h7.2M217.7 157.9h7.2M220.5 183.1l3.6-10.8M224.9 168.7l3.6-10.8M238.5 183.1l3.6-10.8M242.1 183.1h7.2M242.9 168.7l3.6-10.8M245.7 172.3h7.2M250.1 157.9h7.2M252.9 183.1l3.6-10.8M257.3 168.7l3.6-10.8M267.3 183.1l3.6-10.8M270.9 183.1h7.2M271.7 168.7l3.6-10.8M274.5 172.3h7.2M278.9 157.9h7.2M281.7 183.1l3.6-10.8M286.1 168.7l3.6-10.8M295.4 183.1l3.6-10.8M299 183.1h7.2M299.7 168.7l3.6-10.8M302.6 172.3h7.2M306.9 157.9h7.2M309.8 183.1l3.6-10.8M314.1 168.7l3.6-10.8" />
  <circle class="st13" cx="106.1" cy="183.1" r="1" />
  <circle class="st13" cx="137.7" cy="183.1" r="1" />
  <circle class="st13" cx="224.9" cy="183.1" r="1" />
  <circle class="st13" cx="256.5" cy="183.1" r="1" />
  <circle class="st13" cx="166.5" cy="183.9" r="1" />
  <circle class="st13" cx="195.3" cy="183.1" r="1" />
  <circle class="st13" cx="285.3" cy="183.9" r="1" />
  <circle class="st13" cx="314.1" cy="183.1" r="1" />
  <path class="st16" d="M72.9 157.9h-7.2" />
  <path class="st9"
    d="m75 156 1.2 3.6M76.2 159.6l1.2-3.6M80.7 159.2l-.2.2M80.5 159.4l-.5.2M80 159.6h-.3M79.6 159.6l-.5-.2M79.1 159.4l-.3-.3M78.8 159.1l-.2-.3M78.6 158.7l-.2-.7M78.4 158v-.5M78.4 157.5l.2-.7M78.6 156.8l.2-.3M78.8 156.5l.3-.3M79.1 156.2l.5-.2M79.6 156h.3M80 156l.5.2M80.5 156.2l.2.2M84.3 159.2l-.2.2M84.1 159.4l-.5.2M83.6 159.6h-.3M83.2 159.6l-.5-.2M82.7 159.4l-.3-.3M82.4 159.1l-.2-.3M82.2 158.7l-.2-.7M82 158v-.5M82 157.5l.2-.7M82.2 156.8l.2-.3M82.4 156.5l.3-.3M82.7 156.2l.5-.2M83.2 156h.3M83.6 156l.5.2M84.1 156.2l.2.2" />
  <path class="st5" d="M70.4 156.8h-2.1M69.3 156.8v-3.6M69.3 153.2l-.3.5M69 153.7l-.3.3M68.6 154l-.3.2" />
  <path class="st16" d="M335.7 186.7h7.2" />
  <path class="st9"
    d="m326.8 188-.2.2M326.6 188.2l-.5.2M326.1 188.4h-.3M325.8 188.4l-.5-.2M325.3 188.2l-.3-.3M324.9 187.9l-.2-.3M324.7 187.5l-.2-.7M324.6 186.8v-.5M324.6 186.3l.2-.7M324.7 185.6l.2-.3M324.9 185.3l.3-.3M325.3 185l.5-.2M325.8 184.8h.3M326.1 184.8l.5.2M326.6 185l.2.2M330.1 188.4h-1.7M328.3 188.4v-3.6M331.3 188.4v-3.6M333.3 188.4l-1.5-2.1M333.3 184.8l-2.1 2.1" />
  <path class="st5"
    d="M338.6 185.6h-2.1M337.6 185.6V182M337.6 182l-.3.5M337.3 182.5l-.3.3M336.9 182.8l-.3.2M340.9 182h.3M341.2 182l.3.2M341.6 182.1l.2.2M341.7 182.3l.2.3M341.9 182.6l.2.7M342.1 183.3v.9M342.1 184.2l-.2.7M341.9 184.9l-.2.3M341.7 185.2l-.2.2M341.6 185.4l-.3.2M341.2 185.6h-.3M340.9 185.6l-.3-.2M340.5 185.4l-.2-.2M340.4 185.2l-.2-.3M340.2 184.9l-.2-.7M340 184.2v-.9M340 183.3l.2-.7M340.2 182.6l.2-.3M340.4 182.3l.2-.2M340.5 182.1l.3-.2" />
  <path class="st16" d="M72.9 165.1h-7.2" />
  <path class="st9"
    d="m77.4 163.4-.3-.2M77.1 163.2h-.5M76.5 163.2l-.5.2M76 163.4l-.3.3M75.7 163.7l-.2.3M75.5 164l-.2.7M75.3 164.7v.5M75.3 165.2l.2.7M75.5 165.9l.2.3M75.7 166.3l.3.3M76 166.6l.5.2M76.5 166.8h.3M76.9 166.8l.5-.2M77.4 166.6l.2-.2M77.6 166.4v-1.2M77.6 165.2h-.7M79.1 166.8v-3.6M79.1 163.2l2.1 3.6M81.2 166.8v-3.6M82.9 166.8v-3.6M82.9 163.2h.9M83.7 163.2l.5.2M84.3 163.4l.3.3M84.6 163.7l.2.3M84.8 164l.2.7M84.9 164.7v.5M84.9 165.2l-.2.7M84.8 165.9l-.2.3M84.6 166.3l-.3.3M84.3 166.6l-.5.2M83.7 166.8h-.9" />
  <path class="st5"
    d="m68.3 160.7.2-.2M68.5 160.5l.3-.2M68.8 160.4h.9M69.7 160.4l.3.2M70 160.5l.2.2M70.2 160.7l.2.3M70.4 161v.3M70.4 161.4l-.2.5M70.2 161.9l-2.1 2.1M68.1 164h2.2" />
  <path class="st16" d="M72.9 172.3h-7.2" />
  <path class="st9"
    d="M75.5 174v-3.6M75.5 170.4h.9M76.4 170.4l.5.2M76.9 170.6l.3.3M77.2 170.9l.2.3M77.4 171.2l.2.7M77.6 171.9v.5M77.6 172.4l-.2.7M77.4 173.1l-.2.3M77.2 173.5l-.3.3M76.9 173.8l-.5.2M76.4 174h-.9M79.1 174v-3.6M80.8 174v-3.6M80.8 170.4l2.1 3.6M82.9 174v-3.6" />
  <path class="st5"
    d="M68.1 167.6h2.2M70.4 167.6l-1.2 1.4M69.2 168.9h.5M69.7 168.9l.3.2M70 169.1l.2.2M70.2 169.3l.2.3M70.4 169.6v.9M70.4 170.5l-.2.3M70.2 170.8l-.2.2M70 171l-.3.2M69.7 171.2h-1M68.6 171.2l-.3-.2M68.3 171l-.2-.2" />
  <path class="st16" d="M72.9 179.5h-7.2" />
  <path class="st9"
    d="m77.6 180.8-.2.2M77.4 181l-.5.2M76.9 181.2h-.3M76.5 181.2l-.5-.2M76 181l-.3-.3M75.7 180.7l-.2-.3M75.5 180.3l-.2-.7M75.3 179.6v-.5M75.3 179.1l.2-.7M75.5 178.4l.2-.3M75.7 178.1l.3-.3M76 177.8l.5-.2M76.5 177.6h.3M76.9 177.6l.5.2M77.4 177.8l.2.2M78.9 181l.5.2M79.5 181.2h.9M80.3 181.2l.3-.2M80.7 181l.2-.2M80.8 180.8l.2-.3M81 180.5v-.3M81 180.2l-.2-.3M80.8 179.8l-.2-.2M80.7 179.6l-.3-.2M80.3 179.5l-.7-.2M79.6 179.3l-.3-.2M79.3 179.1l-.2-.2M79.1 179l-.2-.3M78.9 178.6v-.3M78.9 178.3l.2-.3M79.1 177.9l.2-.2M79.3 177.8l.3-.2M79.6 177.6h.9M80.5 177.6l.5.2" />
  <path class="st5" d="M70 176v2.4M69.2 174.6l-.9 2.6M68.3 177.2h2.2" />
  <path class="st16" d="M72.9 186.7h-7.2" />
  <path class="st9"
    d="m77.6 188-.2.2M77.4 188.2l-.5.2M76.9 188.4h-.3M76.5 188.4l-.5-.2M76 188.2l-.3-.3M75.7 187.9l-.2-.3M75.5 187.5l-.2-.7M75.3 186.8v-.5M75.3 186.3l.2-.7M75.5 185.6l.2-.3M75.7 185.3l.3-.3M76 185l.5-.2M76.5 184.8h.3M76.9 184.8l.5.2M77.4 185l.2.2M80.8 188.4h-1.7M79.1 188.4v-3.6M82 188.4v-3.6M84.1 188.4l-1.5-2.1M84.1 184.8l-2.1 2.1" />
  <path class="st5"
    d="M70.2 182h-1.7M68.5 182l-.2 1.7M68.3 183.7l.2-.2M68.5 183.5l.3-.2M68.8 183.3h.9M69.7 183.3l.3.2M70 183.5l.2.2M70.2 183.7l.2.3M70.4 184v.9M70.4 184.9l-.2.3M70.2 185.2l-.2.2M70 185.4l-.3.2M69.7 185.6h-.9M68.8 185.6l-.3-.2M68.5 185.4l-.2-.2" />
  <path class="st16" d="M335.7 157.9h7.2" />
  <path class="st9"
    d="m324.1 156 1.2 3.6M325.3 159.6l1.2-3.6M329.7 159.2l-.2.2M329.5 159.4l-.5.2M329 159.6h-.3M328.7 159.6l-.5-.2M328.2 159.4l-.3-.3M327.8 159.1l-.2-.3M327.7 158.7l-.2-.7M327.5 158v-.5M327.5 157.5l.2-.7M327.7 156.8l.2-.3M327.8 156.5l.3-.3M328.2 156.2l.5-.2M328.7 156h.3M329 156l.5.2M329.5 156.2l.2.2M333.3 159.2l-.2.2M333.1 159.4l-.5.2M332.6 159.6h-.3M332.3 159.6l-.5-.2M331.8 159.4l-.3-.3M331.4 159.1l-.2-.3M331.3 158.7l-.2-.7M331.1 158v-.5M331.1 157.5l.2-.7M331.3 156.8l.2-.3M331.4 156.5l.3-.3M331.8 156.2l.5-.2M332.3 156h.3M332.6 156l.5.2M333.1 156.2l.2.2" />
  <path class="st5"
    d="M340 153.2h-.7M339.3 153.2l-.3.2M339 153.3l-.2.2M338.8 153.5l-.3.5M338.5 154l-.2.7M338.3 154.7v1.4M338.3 156.1l.2.3M338.5 156.4l.2.2M338.6 156.6l.3.2M339 156.8h.7M339.7 156.8l.3-.2M340 156.6l.2-.2M340.2 156.4l.2-.3M340.4 156.1v-.9M340.4 155.2l-.2-.3M340.2 154.9l-.2-.2M340 154.7l-.3-.2M339.7 154.5h-.7M339 154.5l-.3.2M338.6 154.7l-.2.2M338.5 154.9l-.2.3" />
  <path class="st16" d="M335.7 165.1h7.2" />
  <path class="st9"
    d="m325.8 163.4-.3-.2M325.4 163.2h-.5M324.9 163.2l-.5.2M324.4 163.4l-.3.3M324.1 163.7l-.2.3M323.9 164l-.2.7M323.7 164.7v.5M323.7 165.2l.2.7M323.9 165.9l.2.3M324.1 166.3l.3.3M324.4 166.6l.5.2M324.9 166.8h.3M325.3 166.8l.5-.2M325.8 166.6l.2-.2M325.9 166.4v-1.2M325.9 165.2h-.7M327.5 166.8v-3.6M327.5 163.2l2.1 3.6M329.5 166.8v-3.6M331.3 166.8v-3.6M331.3 163.2h.9M332.1 163.2l.5.2M332.6 163.4l.3.3M333 163.7l.2.3M333.1 164l.2.7M333.3 164.7v.5M333.3 165.2l-.2.7M333.1 165.9l-.2.3M333 166.3l-.3.3M332.6 166.6l-.5.2M332.1 166.8h-.9" />
  <path class="st5" d="M338.1 160.4h2.4M340.5 160.4 339 164" />
  <path class="st16" d="M335.7 172.3h7.2" />
  <path class="st9"
    d="M321 174v-3.6M321 170.4h.9M321.8 170.4l.5.2M322.3 170.6l.3.3M322.7 170.9l.2.3M322.9 171.2l.2.7M323 171.9v.5M323 172.4l-.2.7M322.9 173.1l-.2.3M322.7 173.5l-.3.3M322.3 173.8l-.5.2M321.8 174h-.9M325.3 170.4h.7M325.9 170.4l.3.2M326.3 170.6l.3.3M326.6 170.9l.2.7M326.8 171.6v1.2M326.8 172.8l-.2.7M326.6 173.5l-.3.3M326.3 173.8l-.3.2M325.9 174h-.7M325.3 174l-.3-.2M324.9 173.8l-.3-.3M324.6 173.5l-.2-.7M324.4 172.8v-1.2M324.4 171.6l.2-.7M324.6 170.9l.3-.3M324.9 170.6l.3-.2M328.3 170.4v2.9M328.3 173.3l.2.3M328.5 173.6l.2.2M328.7 173.8l.3.2M329 174h.7M329.7 174l.3-.2M330.1 173.8l.2-.2M330.2 173.6l.2-.3M330.4 173.3v-2.9M331.6 170.4h2.1M332.6 174v-3.6" />
  <path class="st5"
    d="m339 169.1-.3-.2M338.6 168.9l-.2-.2M338.5 168.8l-.2-.3M338.3 168.4v-.2M338.3 168.2l.2-.3M338.5 167.9l.2-.2M338.6 167.7l.3-.2M339 167.6h.7M339.7 167.6l.3.2M340 167.7l.2.2M340.2 167.9l.2.3M340.4 168.2v.2M340.4 168.4l-.2.3M340.2 168.8l-.2.2M340 168.9l-.3.2M339.7 169.1h-.7M339 169.1l-.3.2M338.6 169.3l-.2.2M338.5 169.4l-.2.3M338.3 169.8v.7M338.3 170.5l.2.3M338.5 170.8l.2.2M338.6 171l.3.2M339 171.2h.7M339.7 171.2l.3-.2M340 171l.2-.2M340.2 170.8l.2-.3M340.4 170.5v-.7M340.4 169.8l-.2-.3M340.2 169.4l-.2-.2M340 169.3l-.3-.2" />
  <path class="st16" d="M335.7 179.5h7.2" />
  <path class="st9"
    d="M323.2 181.2h-1.7M321.5 181.2v-3.6M325.1 177.6h.7M325.8 177.6l.3.2M326.1 177.8l.3.3M326.5 178.1l.2.7M326.6 178.8v1.2M326.6 180l-.2.7M326.5 180.7l-.3.3M326.1 181l-.3.2M325.8 181.2h-.7M325.1 181.2l-.3-.2M324.7 181l-.3-.3M324.4 180.7l-.2-.7M324.2 180v-1.2M324.2 178.8l.2-.7M324.4 178.1l.3-.3M324.7 177.8l.3-.2M328.2 181.2v-3.6M328.2 177.6h.9M329 177.6l.5.2M329.5 177.8l.3.3M329.9 178.1l.2.3M330.1 178.4l.2.7M330.2 179.1v.5M330.2 179.6l-.2.7M330.1 180.3l-.2.3M329.9 180.7l-.3.3M329.5 181l-.5.2M329 181.2h-.9M331.6 180.2h1.7M331.3 181.2l1.2-3.6M332.5 177.6l1.2 3.6" />
  <path class="st5"
    d="M338.6 178.4h.7M339.3 178.4l.3-.2M339.7 178.2l.2-.2M339.8 178l.3-.5M340.2 177.5l.2-.7M340.4 176.8v-1.4M340.4 175.4l-.2-.3M340.2 175.1l-.2-.2M340 174.9l-.3-.2M339.7 174.8h-.7M339 174.8l-.3.2M338.6 174.9l-.2.2M338.5 175.1l-.2.3M338.3 175.4v.9M338.3 176.3l.2.3M338.5 176.6l.2.2M338.6 176.8l.3.2M339 177h.7M339.7 177l.3-.2M340 176.8l.2-.2M340.2 176.6l.2-.3" />
  <path class="st14"
    d="m4.1 59-.2.2M4 59.1l-.5.2M3.4 59.3h-.3M3.1 59.3l-.5-.2M2.6 59.1l-.3-.3M2.2 58.8l-.2-.3M2.1 58.4l-.2-.7M1.9 57.8v-.5M1.9 57.2l.2-.7M2.1 56.6l.2-.3M2.2 56.2l.3-.3M2.6 55.9l.5-.2M3.1 55.7h.3M3.4 55.7l.5.2M4 55.9l.2.2M5.5 59.1l.5.2M6 59.3h.9M6.9 59.3l.3-.2M7.2 59.1l.2-.2M7.4 59l.2-.3M7.6 58.6v-.3M7.6 58.3l-.2-.3M7.4 57.9l-.2-.2M7.2 57.8l-.3-.2M6.9 57.6l-.7-.2M6.2 57.4l-.3-.2M5.8 57.2l-.2-.2M5.7 57.1l-.2-.3M5.5 56.7v-.3M5.5 56.4l.2-.3M5.7 56l.2-.2M5.8 55.9l.3-.2M6.2 55.7h.9M7 55.7l.5.2M4.1 66.2l-.2.2M4 66.3l-.5.2M3.4 66.5h-.3M3.1 66.5l-.5-.2M2.6 66.3l-.3-.3M2.2 66l-.2-.3M2.1 65.6l-.2-.7M1.9 65v-.5M1.9 64.4l.2-.7M2.1 63.8l.2-.3M2.2 63.4l.3-.3M2.6 63.1l.5-.2M3.1 62.9h.3M3.4 62.9l.5.2M4 63.1l.2.2M7.4 66.5H5.7M5.7 66.5v-3.6M8.6 66.5v-3.6M10.6 66.5l-1.5-2.1M10.6 62.9 8.5 65M2.1 52.1v-3.6M2.1 48.5H3M2.9 48.5l.5.2M3.4 48.7l.3.3M3.8 49l.2.3M4 49.4l.2.7M4.1 50v.5M4.1 50.6l-.2.7M4 51.2l-.2.3M3.8 51.6l-.3.3M3.4 51.9l-.5.2M2.9 52.1H2M5.7 52.1v-3.6M7.4 52.1v-3.6M7.4 48.5l2.1 3.6M9.4 52.1v-3.6" />
  <path class="st12"
    d="M189.4 8.4V4.8M189.4 4.8h.9M190.2 4.8l.5.2M190.8 5l.3.3M191.1 5.3l.2.3M191.3 5.6l.2.7M191.4 6.3v.5M191.4 6.8l-.2.7M191.3 7.5l-.2.3M191.1 7.9l-.3.3M190.8 8.2l-.5.2M190.2 8.4h-.9M193.5 8.4l-.3-.2M193.2 8.2 193 8M193 8l-.2-.3M192.8 7.7v-1M192.8 6.7l.2-.3M193 6.3l.2-.2M193.2 6.2l.3-.2M193.5 6h.5M194 6l.3.2M194.4 6.2l.2.2M194.5 6.3l.2.3M194.7 6.7v1M194.7 7.7l-.2.3M194.5 8l-.2.2M194.4 8.2l-.3.2M194 8.4h-.5M199 6v2.4M199 6.3l.2-.2M199.2 6.2l.3-.2M199.5 6h.5M200 6l.3.2M200.4 6.2l.2.3M200.5 6.5v1.9M202.8 8.4l-.3-.2M202.4 8.2l-.2-.2M202.2 8l-.2-.3M202.1 7.7v-1M202.1 6.7l.2-.3M202.2 6.3l.2-.2M202.4 6.2l.3-.2M202.8 6h.5M203.3 6l.3.2M203.6 6.2l.2.2M203.8 6.3l.2.3M204 6.7v1M204 7.7l-.2.3M203.8 8l-.2.2M203.6 8.2l-.3.2M203.3 8.4h-.5M205 6h1.4M205.5 4.8v3.1M205.5 7.9l.2.3M205.7 8.2l.3.2M206 8.4h.3M211.8 6v2.4M210.3 6v1.9M210.3 7.9l.2.3M210.5 8.2l.3.2M210.8 8.4h.5M211.3 8.4l.3-.2M211.7 8.2l.2-.2M213.4 8.2l.3.2M213.7 8.4h.7M214.4 8.4l.3-.2M214.8 8.2l.2-.3M214.9 7.9v-.2M214.9 7.7l-.2-.3M214.8 7.4l-.3-.2M214.4 7.2h-.5M213.9 7.2l-.3-.2M213.6 7l-.2-.3M213.4 6.7v-.2M213.4 6.5l.2-.3M213.6 6.2l.3-.2M213.9 6h.5M214.4 6l.3.2M217.8 8.2l-.3.2M217.5 8.4h-.7M216.8 8.4l-.3-.2M216.5 8.2l-.2-.3M216.3 7.9V6.5M216.3 6.5l.2-.3M216.5 6.2l.3-.2M216.8 6h.7M217.5 6l.3.2M217.8 6.2l.2.3M218 6.5v.3M218 6.8l-1.7.3M221.8 6h1.4M222.3 4.8v3.1M222.3 7.9l.2.3M222.5 8.2l.3.2M222.8 8.4h.3M224.4 8.4V4.8M225.9 8.4V6.5M225.9 6.5l-.2-.3M225.7 6.2l-.3-.2M225.4 6h-.5M224.9 6l-.3.2M224.5 6.2l-.2.2M229 8.2l-.3.2M228.6 8.4h-.7M228 8.4l-.3-.2M227.6 8.2l-.2-.3M227.4 7.9V6.5M227.4 6.5l.2-.3M227.6 6.2l.3-.2M228 6h.7M228.6 6l.3.2M229 6.2l.2.3M229.2 6.5v.3M229.2 6.8l-1.7.3M232.9 4.8l1.2 3.6M234.1 8.4l1.2-3.6M238.6 8l-.2.2M238.4 8.2l-.5.2M237.9 8.4h-.3M237.6 8.4l-.5-.2M237 8.2l-.3-.3M236.7 7.9l-.2-.3M236.5 7.5l-.2-.7M236.4 6.8v-.5M236.4 6.3l.2-.7M236.5 5.6l.2-.3M236.7 5.3l.3-.3M237 5l.5-.2M237.6 4.8h.3M237.9 4.8l.5.2M238.4 5l.2.2M242.2 8l-.2.2M242 8.2l-.5.2M241.5 8.4h-.3M241.2 8.4l-.5-.2M240.6 8.2l-.3-.3M240.3 7.9l-.2-.3M240.1 7.5l-.2-.7M240 6.8v-.5M240 6.3l.2-.7M240.1 5.6l.2-.3M240.3 5.3l.3-.3M240.6 5l.5-.2M241.2 4.8h.3M241.5 4.8l.5.2M242 5l.2.2M248 8.4V6.5M248 6.5l-.2-.3M247.8 6.2l-.3-.2M247.5 6h-.7M246.8 6l-.3.2M248 8.2l-.3.2M247.7 8.4h-.9M246.8 8.4l-.3-.2M246.5 8.2l-.2-.3M246.3 7.9v-.3M246.3 7.5l.2-.3M246.5 7.2l.3-.2M246.8 7h.9M247.7 7l.3-.2M249.7 6v2.4M249.7 6.3l.2-.2M249.9 6.2l.3-.2M250.2 6h.5M250.8 6l.3.2M251.1 6.2l.2.3M251.3 6.5v1.9M254.5 8.4V4.8M254.5 8.2l-.3.2M254.2 8.4h-.7M253.5 8.4l-.3-.2M253.2 8.2 253 8M253 8l-.2-.3M252.8 7.7v-1M252.8 6.7l.2-.3M253 6.3l.2-.2M253.2 6.2l.3-.2M253.5 6h.7M254.2 6l.3.2M260.9 5l-.3-.2M260.5 4.8h-.5M260 4.8l-.5.2M259.5 5l-.3.3M259.2 5.3l-.2.3M259 5.6l-.2.7M258.8 6.3v.5M258.8 6.8l.2.7M259 7.5l.2.3M259.2 7.9l.3.3M259.5 8.2l.5.2M260 8.4h.3M260.4 8.4l.5-.2M260.9 8.2l.2-.2M261 8V6.8M261 6.8h-.7M262.6 8.4V4.8M262.6 4.8l2.1 3.6M264.6 8.4V4.8M266.4 8.4V4.8M266.4 4.8h.9M267.2 4.8l.5.2M267.7 5l.3.3M268.1 5.3l.2.3M268.2 5.6l.2.7M268.4 6.3v.5M268.4 6.8l-.2.7M268.2 7.5l-.2.3M268.1 7.9l-.3.3M267.7 8.2l-.5.2M267.2 8.4h-.9M272.7 6v3.6M272.7 6.2l.3-.2M273 6h.7M273.7 6l.3.2M274.1 6.2l.2.2M274.2 6.3l.2.3M274.4 6.7v1M274.4 7.7l-.2.3M274.2 8l-.2.2M274.1 8.2l-.3.2M273.7 8.4h-.7M273 8.4l-.3-.2M276 8.4V6M276 4.8l-.2.2M275.8 5l.2.2M276 5.1l.2-.2M276.1 5l-.2-.2M276 4.8v.3M277.7 6v2.4M277.7 6.3l.2-.2M277.8 6.2l.3-.2M278.2 6h.5M278.7 6l.3.2M279 6.2l.2.3M279.2 6.5v1.9M280.8 8.2l.3.2M281.1 8.4h.7M281.8 8.4l.3-.2M282.1 8.2l.2-.3M282.3 7.9v-.2M282.3 7.7l-.2-.3M282.1 7.4l-.3-.2M281.8 7.2h-.5M281.3 7.2 281 7M280.9 7l-.2-.3M280.8 6.7v-.2M280.8 6.5l.2-.3M280.9 6.2l.3-.2M281.3 6h.5M281.8 6l.3.2M287.1 8.4l-.3-.2M286.8 8.2l-.2-.2M286.6 8l-.2-.3M286.4 7.7v-1M286.4 6.7l.2-.3M286.6 6.3l.2-.2M286.8 6.2l.3-.2M287.1 6h.5M287.6 6l.3.2M288 6.2l.2.2M288.1 6.3l.2.3M288.3 6.7v1M288.3 7.7l-.2.3M288.1 8l-.2.2M288 8.2l-.3.2M287.6 8.4h-.5M289.8 6v2.4M289.8 6.3l.2-.2M290 6.2l.3-.2M290.4 6h.5M290.9 6l.3.2M291.2 6.2l.2.3M291.4 6.5v1.9M212 11.8h1.4M212.5 10.6v3.1M212.5 13.7l.2.3M212.7 14l.3.2M213 14.2h.3M214.6 14.2v-3.6M216.1 14.2v-1.9M216.1 12.3l-.2-.3M216 12l-.3-.2M215.6 11.8h-.5M215.1 11.8l-.3.2M214.8 12l-.2.2M219.2 14l-.3.2M218.9 14.2h-.7M218.2 14.2l-.3-.2M217.8 14l-.2-.3M217.7 13.7v-1.4M217.7 12.3l.2-.3M217.8 12l.3-.2M218.2 11.8h.7M218.9 11.8l.3.2M219.2 12l.2.3M219.4 12.3v.3M219.4 12.6l-1.7.3M223.7 14.2v-2.4M223.7 12.5l.2-.3M223.8 12.1l.2-.2M224 12l.3-.2M224.4 11.8h.3M225.9 14.2v-2.4M225.9 10.6l-.2.2M225.7 10.8l.2.2M225.9 10.9l.2-.2M226.1 10.8l-.2-.2M225.9 10.6v.3M229.2 11.8v2.9M229.2 14.7l-.2.3M229 15l-.2.2M228.8 15.2l-.3.2M228.5 15.4h-.5M228 15.4l-.3-.2M229.2 14l-.3.2M228.8 14.2h-.7M228.1 14.2l-.3-.2M227.8 14l-.2-.2M227.6 13.8l-.2-.3M227.4 13.5v-1M227.4 12.5l.2-.3M227.6 12.1l.2-.2M227.8 12l.3-.2M228.1 11.8h.7M228.8 11.8l.3.2M230.9 14.2v-3.6M232.4 14.2v-1.9M232.4 12.3l-.2-.3M232.2 12l-.3-.2M231.9 11.8h-.5M231.4 11.8l-.3.2M231 12l-.2.2M233.6 11.8h1.4M234.1 10.6v3.1M234.1 13.7l.2.3M234.3 14l.3.2M234.6 14.2h.3M238.8 14l.3.2M239.1 14.2h.7M239.8 14.2l.3-.2M240.1 14l.2-.3M240.3 13.7v-.2M240.3 13.5l-.2-.3M240.1 13.2l-.3-.2M239.8 13h-.5M239.3 13l-.3-.2M238.9 12.8l-.2-.3M238.8 12.5v-.2M238.8 12.3l.2-.3M238.9 12l.3-.2M239.3 11.8h.5M239.8 11.8l.3.2M241.8 14.2v-2.4M241.8 10.6l-.2.2M241.7 10.8l.2.2M241.8 10.9l.2-.2M242 10.8l-.2-.2M241.8 10.6v.3M245.1 14.2v-3.6M245.1 14l-.3.2M244.8 14.2h-.7M244.1 14.2l-.3-.2M243.7 14l-.2-.2M243.6 13.8l-.2-.3M243.4 13.5v-1M243.4 12.5l.2-.3M243.6 12.1l.2-.2M243.7 12l.3-.2M244.1 11.8h.7M244.8 11.8l.3.2M248.2 14l-.3.2M247.8 14.2h-.7M247.2 14.2l-.3-.2M246.8 14l-.2-.3M246.6 13.7v-1.4M246.6 12.3l.2-.3M246.8 12l.3-.2M247.2 11.8h.7M247.8 11.8l.3.2M248.2 12l.2.3M248.4 12.3v.3M248.4 12.6l-1.7.3M253.2 14.2l-.3-.2M252.8 14l-.2-.2M252.6 13.8l-.2-.3M252.5 13.5v-1M252.5 12.5l.2-.3M252.6 12.1l.2-.2M252.8 12l.3-.2M253.2 11.8h.5M253.7 11.8l.3.2M254 12l.2.2M254.2 12.1l.2.3M254.4 12.5v1M254.4 13.5l-.2.3M254.2 13.8l-.2.2M254 14l-.3.2M253.7 14.2h-.5M255.4 11.8h1.4M255.9 14.2v-3.1M255.9 11.1l.2-.3M256.1 10.8l.3-.2M256.4 10.6h.3M260.2 11.8h1.4M260.7 10.6v3.1M260.7 13.7l.2.3M260.9 14l.3.2M261.2 14.2h.3M262.8 14.2v-3.6M264.3 14.2v-1.9M264.3 12.3l-.2-.3M264.1 12l-.3-.2M263.8 11.8h-.5M263.3 11.8l-.3.2M262.9 12l-.2.2M267.4 14l-.3.2M267 14.2h-.7M266.4 14.2l-.3-.2M266 14l-.2-.3M265.8 13.7v-1.4M265.8 12.3l.2-.3M266 12l.3-.2M266.4 11.8h.7M267 11.8l.3.2M267.4 12l.2.3M267.6 12.3v.3M267.6 12.6l-1.7.3M271.8 14.2v-2.4M271.8 12.1l.2-.2M272 12l.3-.2M272.4 11.8h.5M272.9 11.8l.3.2M273.2 12l.2.3M273.4 12.3v1.9M273.4 12.3l.2-.3M273.6 12l.3-.2M273.9 11.8h.5M274.4 11.8l.3.2M274.8 12l.2.3M274.9 12.3v1.9M277.2 14.2l-.3-.2M276.8 14l-.2-.2M276.6 13.8l-.2-.3M276.5 13.5v-1M276.5 12.5l.2-.3M276.6 12.1l.2-.2M276.8 12l.3-.2M277.2 11.8h.5M277.7 11.8l.3.2M278 12l.2.2M278.2 12.1l.2.3M278.4 12.5v1M278.4 13.5l-.2.3M278.2 13.8l-.2.2M278 14l-.3.2M277.7 14.2h-.5M281.4 14.2v-3.6M281.4 14l-.3.2M281.1 14.2h-.7M280.4 14.2l-.3-.2M280.1 14l-.2-.2M279.9 13.8l-.2-.3M279.7 13.5v-1M279.7 12.5l.2-.3M279.9 12.1l.2-.2M280.1 12l.3-.2M280.4 11.8h.7M281.1 11.8l.3.2M284.7 11.8v2.4M283.2 11.8v1.9M283.2 13.7l.2.3M283.3 14l.3.2M283.7 14.2h.5M284.2 14.2l.3-.2M284.5 14l.2-.2M286.9 14.2l-.3-.2M286.6 14l-.2-.3M286.4 13.7v-3.1M289.7 14l-.3.2M289.3 14.2h-.7M288.6 14.2l-.3-.2M288.3 14l-.2-.3M288.1 13.7v-1.4M288.1 12.3l.2-.3M288.3 12l.3-.2M288.6 11.8h.7M289.3 11.8l.3.2M289.7 12l.2.3M289.8 12.3v.3M289.8 12.6l-1.7.3M291.4 13.8l.2.2M291.6 14l-.2.2M291.4 14.2l-.2-.2M291.2 14l.2-.2M291.4 13.8v.3M30.2 6.9V3.3M30.2 3.3h.9M31 3.3l.5.2M31.5 3.5l.3.3M31.9 3.9l.2.3M32 4.2l.2.7M32.2 4.9v.5M32.2 5.4l-.2.7M32 6.1l-.2.3M31.9 6.4l-.3.3M31.5 6.8 31 7M31 6.9h-.9M35.1 6.8l-.3.2M34.8 6.9h-.7M34.1 6.9l-.3-.2M33.8 6.8l-.2-.3M33.6 6.4V5M33.6 5.1l.2-.3M33.8 4.7l.3-.2M34.1 4.5h.7M34.8 4.5l.3.2M35.1 4.7l.2.3M35.3 5.1v.3M35.3 5.4l-1.7.3M38.4 6.9V3.3M38.4 6.8l-.3.2M38 6.9h-.7M37.4 6.9l-.3-.2M37 6.8l-.2-.2M36.8 6.6l-.2-.3M36.7 6.3v-1M36.7 5.2l.2-.3M36.8 4.9l.2-.2M37 4.7l.3-.2M37.4 4.5h.7M38 4.5l.3.2M40.1 6.9V4.5M40.1 3.3l-.2.2M39.9 3.5l.2.2M40.1 3.7l.2-.2M40.3 3.5l-.2-.2M40.1 3.3v.3M43.4 6.8l-.3.2M43 6.9h-.7M42.3 6.9l-.3-.2M42 6.8l-.2-.2M41.8 6.6l-.2-.3M41.6 6.3v-1M41.6 5.2l.2-.3M41.8 4.9l.2-.2M42 4.7l.3-.2M42.3 4.5h.7M43 4.5l.3.2M46.4 6.9V5M46.4 5.1l-.2-.3M46.3 4.7l-.3-.2M45.9 4.5h-.7M45.2 4.5l-.3.2M46.4 6.8l-.3.2M46.1 6.9h-.9M45.2 6.9l-.3-.2M44.9 6.8l-.2-.3M44.7 6.4v-.3M44.7 6.1l.2-.3M44.9 5.7l.3-.2M45.2 5.6h.9M46.1 5.6l.3-.2M47.6 4.5H49M48.2 3.3v3.1M48.2 6.4l.2.3M48.3 6.8l.3.2M48.7 6.9h.3M51.6 6.8l-.3.2M51.2 6.9h-.7M50.6 6.9l-.3-.2M50.2 6.8l-.2-.3M50 6.4V5M50 5.1l.2-.3M50.2 4.7l.3-.2M50.6 4.5h.7M51.2 4.5l.3.2M51.6 4.7l.2.3M51.8 5.1v.3M51.8 5.4l-1.7.3M54.8 6.9V3.3M54.8 6.8l-.3.2M54.5 6.9h-.7M53.8 6.9l-.3-.2M53.5 6.8l-.2-.2M53.3 6.6l-.2-.3M53.1 6.3v-1M53.1 5.2l.2-.3M53.3 4.9l.2-.2M53.5 4.7l.3-.2M53.8 4.5h.7M54.5 4.5l.3.2M59.3 5.6H62M60.7 6.9V4.2M65.5 3.3h-1.7M63.8 3.3 63.6 5M63.6 5.1l.2-.2M63.8 4.9l.3-.2M64.1 4.7h.9M65 4.7l.3.2M65.3 4.9l.2.2M65.5 5.1l.2.3M65.6 5.4v.9M65.6 6.3l-.2.3M65.5 6.6l-.2.2M65.3 6.8 65 7M65 6.9h-.9M64.1 6.9l-.3-.2M63.8 6.8l-.2-.2M66.7 3.3l1.2 3.6M67.9 6.9l1.2-3.6M73 4.5v3.6M73 4.7l.3-.2M73.4 4.5h.7M74 4.5l.3.2M74.4 4.7l.2.2M74.6 4.9l.2.3M74.7 5.2v1M74.7 6.3l-.2.3M74.6 6.6l-.2.2M74.4 6.8l-.3.2M74 6.9h-.7M73.4 6.9l-.3-.2M76.8 6.9l-.3-.2M76.4 6.8l-.2-.2M76.3 6.6l-.2-.3M76.1 6.3v-1M76.1 5.2l.2-.3M76.3 4.9l.2-.2M76.4 4.7l.3-.2M76.8 4.5h.5M77.3 4.5l.3.2M77.6 4.7l.2.2M77.8 4.9l.2.3M78 5.2v1M78 6.3l-.2.3M77.8 6.6l-.2.2M77.6 6.8l-.3.2M77.3 6.9h-.5M79.2 4.5l.7 2.4M79.9 6.9l.7-1.7M80.6 5.2l.7 1.7M81.2 6.9l.7-2.4M84.7 6.8l-.3.2M84.3 6.9h-.7M83.6 6.9l-.3-.2M83.3 6.8l-.2-.3M83.1 6.4V5M83.1 5.1l.2-.3M83.3 4.7l.3-.2M83.6 4.5h.7M84.3 4.5l.3.2M84.7 4.7l.2.3M84.8 5.1v.3M84.8 5.4l-1.7.3M86.4 6.9V4.5M86.4 5.2l.2-.3M86.6 4.9l.2-.2M86.7 4.7l.3-.2M87.1 4.5h.3M88.8 6.8V7M88.8 6.9l-.2.3M88.6 7.3l-.2.2M30.2 10.3v2.4M30.2 10.7l.2-.2M30.3 10.5l.3-.2M30.7 10.3h.5M31.2 10.3l.3.2M31.5 10.5l.2.3M31.7 10.9v1.9M33.9 12.7l-.3-.2M33.6 12.6l-.2-.2M33.4 12.4l-.2-.3M33.2 12.1v-1M33.2 11l.2-.3M33.4 10.7l.2-.2M33.6 10.5l.3-.2M33.9 10.3h.5M34.4 10.3l.3.2M34.8 10.5l.2.2M35 10.7l.2.3M35.1 11v1M35.1 12.1l-.2.3M35 12.4l-.2.2M34.8 12.6l-.3.2M34.4 12.7h-.5M36.2 10.3h1.4M36.7 9.1v3.1M36.7 12.2l.2.3M36.8 12.6l.3.2M37.2 12.7h.3M41 10.3h1.4M41.5 12.7V9.6M41.5 9.7l.2-.3M41.6 9.3l.3-.2M42 9.1h.3M43.5 12.7v-2.4M43.5 11l.2-.3M43.7 10.7l.2-.2M43.9 10.5l.3-.2M44.2 10.3h.3M46.3 12.7l-.3-.2M45.9 12.6l-.2-.2M45.8 12.4l-.2-.3M45.6 12.1v-1M45.6 11l.2-.3M45.8 10.7l.2-.2M45.9 10.5l.3-.2M46.3 10.3h.5M46.8 10.3l.3.2M47.1 10.5l.2.2M47.3 10.7l.2.3M47.5 11v1M47.5 12.1l-.2.3M47.3 12.4l-.2.2M47.1 12.6l-.3.2M46.8 12.7h-.5M49 12.7v-2.4M49 10.7l.2-.2M49.2 10.5l.3-.2M49.5 10.3h.5M50 10.3l.3.2M50.4 10.5l.2.3M50.6 10.9v1.9M50.6 10.9l.2-.3M50.7 10.5l.3-.2M51.1 10.3h.5M51.6 10.3l.3.2M51.9 10.5l.2.3M52.1 10.9v1.9M58.1 12.7v-1.9M58.1 10.9l-.2-.3M57.9 10.5l-.3-.2M57.6 10.3h-.7M56.9 10.3l-.3.2M58.1 12.6l-.3.2M57.8 12.7h-.9M56.9 12.7l-.3-.2M56.6 12.6l-.2-.3M56.4 12.2v-.3M56.4 11.9l.2-.3M56.6 11.5l.3-.2M56.9 11.4h.9M57.8 11.4l.3-.2M62.6 11.4h2.7M63.9 12.7V10M68.7 9.1H67M67 9.1l-.2 1.7M66.8 10.9l.2-.2M67 10.7l.3-.2M67.4 10.5h.9M68.2 10.5l.3.2M68.6 10.7l.2.2M68.7 10.9l.2.3M68.9 11.2v.9M68.9 12.1l-.2.3M68.7 12.4l-.2.2M68.6 12.6l-.3.2M68.2 12.7h-.9M67.4 12.7l-.3-.2M67 12.6l-.2-.2M69.9 9.1l1.2 3.6M71.1 12.7l1.2-3.6M76.3 10.3v3.6M76.3 10.5l.3-.2M76.6 10.3h.7M77.3 10.3l.3.2M77.6 10.5l.2.2M77.8 10.7l.2.3M78 11v1M78 12.1l-.2.3M77.8 12.4l-.2.2M77.6 12.6l-.3.2M77.3 12.7h-.7M76.6 12.7l-.3-.2M79.5 12.7v-2.4M79.5 9.1l-.2.2M79.4 9.3l.2.2M79.5 9.5l.2-.2M79.7 9.3l-.2-.2M79.5 9.1v.3M81.2 10.3v2.4M81.2 10.7l.2-.2M81.4 10.5l.3-.2M81.8 10.3h.5M82.3 10.3l.3.2M82.6 10.5l.2.3M82.8 10.9v1.9M87.8 12.7l-.3-.2M87.4 12.6l-.2-.2M87.2 12.4l-.2-.3M87.1 12.1v-1M87.1 11l.2-.3M87.2 10.7l.2-.2M87.4 10.5l.3-.2M87.8 10.3h.5M88.3 10.3l.3.2M88.6 10.5l.2.2M88.8 10.7l.2.3M89 11v1M89 12.1l-.2.3M88.8 12.4l-.2.2M88.6 12.6l-.3.2M88.3 12.7h-.5M90.5 10.3v2.4M90.5 10.7l.2-.2M90.7 10.5l.3-.2M91 10.3h.5M91.5 10.3l.3.2M91.9 10.5l.2.3M92 10.9v1.9M96 10.3h1.4M96.5 9.1v3.1M96.5 12.2l.2.3M96.7 12.6l.3.2M97 12.7h.3M98.6 12.7V9.1M100.1 12.7v-1.9M100.1 10.9l-.2-.3M99.9 10.5l-.3-.2M99.6 10.3h-.5M99.1 10.3l-.3.2M98.7 10.5l-.2.2M103.2 12.6l-.3.2M102.8 12.7h-.7M102.2 12.7l-.3-.2M101.8 12.6l-.2-.3M101.6 12.2v-1.4M101.6 10.9l.2-.3M101.8 10.5l.3-.2M102.2 10.3h.7M102.8 10.3l.3.2M103.2 10.5l.2.3M103.4 10.9v.3M103.4 11.2l-1.7.3M107.6 12.7V9.1M107.6 10.5l.3-.2M108 10.3h.7M108.7 10.3l.3.2M109 10.5l.2.2M109.2 10.7l.2.3M109.4 11v1M109.4 12.1l-.2.3M109.2 12.4l-.2.2M109 12.6l-.3.2M108.7 12.7h-.7M108 12.7l-.3-.2M111.4 12.7l-.3-.2M111.1 12.6l-.2-.2M110.9 12.4l-.2-.3M110.7 12.1v-1M110.7 11l.2-.3M110.9 10.7l.2-.2M111.1 10.5l.3-.2M111.4 10.3h.5M111.9 10.3l.3.2M112.3 10.5l.2.2M112.4 10.7l.2.3M112.6 11v1M112.6 12.1l-.2.3M112.4 12.4l-.2.2M112.3 12.6l-.3.2M111.9 12.7h-.5M115.7 12.7v-1.9M115.7 10.9l-.2-.3M115.5 10.5l-.3-.2M115.2 10.3h-.7M114.5 10.3l-.3.2M115.7 12.6l-.3.2M115.4 12.7h-.9M114.5 12.7l-.3-.2M114.2 12.6l-.2-.3M114 12.2v-.3M114 11.9l.2-.3M114.2 11.5l.3-.2M114.5 11.4h.9M115.4 11.4l.3-.2M117.4 12.7v-2.4M117.4 11l.2-.3M117.6 10.7l.2-.2M117.8 10.5l.3-.2M118.1 10.3h.3M121.2 12.7V9.1M121.2 12.6l-.3.2M120.8 12.7h-.7M120.2 12.7l-.3-.2M119.8 12.6l-.2-.2M119.6 12.4l-.2-.3M119.5 12.1v-1M119.5 11l.2-.3M119.6 10.7l.2-.2M119.8 10.5l.3-.2M120.2 10.3h.7M120.8 10.3l.3.2M122.9 12.4l.2.2M123.1 12.6l-.2.2M122.9 12.7l-.2-.2M122.7 12.6l.2-.2M122.9 12.4v.3M198.5 214.3h2.1M199.5 217.9v-3.6M202.2 217.9l-.3-.2M201.9 217.7l-.2-.2M201.7 217.6l-.2-.3M201.6 217.2v-1M201.6 216.2l.2-.3M201.7 215.8l.2-.2M201.9 215.7l.3-.2M202.2 215.5h.5M202.8 215.5l.3.2M203.1 215.7l.2.2M203.3 215.8l.2.3M203.4 216.2v1M203.4 217.2l-.2.3M203.3 217.6l-.2.2M203.1 217.7l-.3.2M202.8 217.9h-.5M209.3 217.9V216M209.3 216l-.2-.3M209.1 215.7l-.3-.2M208.8 215.5h-.7M208.1 215.5l-.3.2M209.3 217.7l-.3.2M208.9 217.9h-.9M208.1 217.9l-.3-.2M207.7 217.7l-.2-.3M207.6 217.4v-.3M207.6 217l.2-.3M207.7 216.7l.3-.2M208.1 216.5h.9M208.9 216.5l.3-.2M212.5 217.9v-3.6M212.5 217.7l-.3.2M212.2 217.9h-.7M211.5 217.9l-.3-.2M211.2 217.7l-.2-.2M211 217.6l-.2-.3M210.8 217.2v-1M210.8 216.2l.2-.3M211 215.8l.2-.2M211.2 215.7l.3-.2M211.5 215.5h.7M212.2 215.5l.3.2M215.8 217.9v-3.6M215.8 217.7l-.3.2M215.4 217.9h-.7M214.8 217.9l-.3-.2M214.4 217.7l-.2-.2M214.2 217.6l-.2-.3M214.1 217.2v-1M214.1 216.2l.2-.3M214.2 215.8l.2-.2M214.4 215.7l.3-.2M214.8 215.5h.7M215.4 215.5l.3.2M217.5 217.9v-2.4M217.5 214.3l-.2.2M217.3 214.5l.2.2M217.5 214.6l.2-.2M217.7 214.5l-.2-.2M217.5 214.3v.3M218.7 215.5h1.4M219.2 214.3v3.1M219.2 217.4l.2.3M219.4 217.7l.3.2M219.7 217.9h.3M221.3 217.9v-2.4M221.3 214.3l-.2.2M221.1 214.5l.2.2M221.3 214.6l.2-.2M221.4 214.5l-.2-.2M221.3 214.3v.3M223.5 217.9l-.3-.2M223.2 217.7l-.2-.2M223 217.6l-.2-.3M222.8 217.2v-1M222.8 216.2l.2-.3M223 215.8l.2-.2M223.2 215.7l.3-.2M223.5 215.5h.5M224 215.5l.3.2M224.4 215.7l.2.2M224.5 215.8l.2.3M224.7 216.2v1M224.7 217.2l-.2.3M224.5 217.6l-.2.2M224.4 217.7l-.3.2M224 217.9h-.5M226.2 215.5v2.4M226.2 215.8l.2-.2M226.4 215.7l.3-.2M226.8 215.5h.5M227.3 215.5l.3.2M227.6 215.7l.2.3M227.8 216v1.9M231 217.9V216M231 216l-.2-.3M230.9 215.7l-.3-.2M230.5 215.5h-.7M229.8 215.5l-.3.2M231 217.7l-.3.2M230.7 217.9h-.9M229.8 217.9l-.3-.2M229.5 217.7l-.2-.3M229.3 217.4v-.3M229.3 217l.2-.3M229.5 216.7l.3-.2M229.8 216.5h.9M230.7 216.5l.3-.2M233.3 217.9l-.3-.2M232.9 217.7l-.2-.3M232.8 217.4v-3.1M237.4 217.9v-2.4M237.4 215.8l.2-.2M237.6 215.7l.3-.2M237.9 215.5h.5M238.4 215.5l.3.2M238.8 215.7l.2.3M238.9 216v1.9M238.9 216l.2-.3M239.1 215.7l.3-.2M239.4 215.5h.5M240 215.5l.3.2M240.3 215.7l.2.3M240.5 216v1.9M242.7 217.9l-.3-.2M242.4 217.7l-.2-.2M242.2 217.6l-.2-.3M242 217.2v-1M242 216.2l.2-.3M242.2 215.8l.2-.2M242.4 215.7l.3-.2M242.7 215.5h.5M243.2 215.5l.3.2M243.6 215.7l.2.2M243.7 215.8l.2.3M243.9 216.2v1M243.9 217.2l-.2.3M243.7 217.6l-.2.2M243.6 217.7l-.3.2M243.2 217.9h-.5M247 217.9v-3.6M247 217.7l-.3.2M246.6 217.9h-.7M246 217.9l-.3-.2M245.6 217.7l-.2-.2M245.4 217.6l-.2-.3M245.3 217.2v-1M245.3 216.2l.2-.3M245.4 215.8l.2-.2M245.6 215.7l.3-.2M246 215.5h.7M246.6 215.5l.3.2M250.2 215.5v2.4M248.7 215.5v1.9M248.7 217.4l.2.3M248.9 217.7l.3.2M249.2 217.9h.5M249.7 217.9l.3-.2M250.1 217.7l.2-.2M252.5 217.9l-.3-.2M252.1 217.7l-.2-.3M252 217.4v-3.1M255.2 217.7l-.3.2M254.9 217.9h-.7M254.2 217.9l-.3-.2M253.8 217.7l-.2-.3M253.7 217.4V216M253.7 216l.2-.3M253.8 215.7l.3-.2M254.2 215.5h.7M254.9 215.5l.3.2M255.2 215.7l.2.3M255.4 216v.3M255.4 216.4l-1.7.3M256.8 217.7l.3.2M257.1 217.9h.7M257.8 217.9l.3-.2M258.1 217.7l.2-.3M258.3 217.4v-.2M258.3 217.2l-.2-.3M258.1 216.9l-.3-.2M257.8 216.7h-.5M257.3 216.7l-.3-.2M256.9 216.5l-.2-.3M256.8 216.2v-.2M256.8 216l.2-.3M256.9 215.7l.3-.2M257.3 215.5h.5M257.8 215.5l.3.2M260 217.7v.2M260 217.9l-.2.3M259.8 218.2l-.2.2M264.3 217.9v-2.4M264.3 215.8l.2-.2M264.5 215.7l.3-.2M264.8 215.5h.5M265.3 215.5l.3.2M265.7 215.7l.2.3M265.8 216v1.9M265.8 216l.2-.3M266 215.7l.3-.2M266.4 215.5h.5M266.9 215.5l.3.2M267.2 215.7l.2.3M267.4 216v1.9M270.6 217.9V216M270.6 216l-.2-.3M270.5 215.7l-.3-.2M270.1 215.5h-.7M269.4 215.5l-.3.2M270.6 217.7l-.3.2M270.3 217.9h-.9M269.4 217.9l-.3-.2M269.1 217.7l-.2-.3M268.9 217.4v-.3M268.9 217l.2-.3M269.1 216.7l.3-.2M269.4 216.5h.9M270.3 216.5l.3-.2M272 217.9l1.9-2.4M272 215.5l1.9 2.4M275.3 217.9v-2.4M275.3 214.3l-.2.2M275.1 214.5l.2.2M275.3 214.6l.2-.2M275.4 214.5l-.2-.2M275.3 214.3v.3M277 217.9v-2.4M277 215.8l.2-.2M277.2 215.7l.3-.2M277.5 215.5h.5M278 215.5l.3.2M278.4 215.7l.2.3M278.5 216v1.9M278.5 216l.2-.3M278.7 215.7l.3-.2M279 215.5h.5M279.6 215.5l.3.2M279.9 215.7l.2.3M280.1 216v1.9M283.3 215.5v2.4M281.8 215.5v1.9M281.8 217.4l.2.3M282 217.7l.3.2M282.3 217.9h.5M282.8 217.9l.3-.2M283.2 217.7l.2-.2M285 217.9v-2.4M285 215.8l.2-.2M285.2 215.7l.3-.2M285.6 215.5h.5M286.1 215.5l.3.2M286.4 215.7l.2.3M286.6 216v1.9M286.6 216l.2-.3M286.8 215.7l.3-.2M287.1 215.5h.5M287.6 215.5l.3.2M288 215.7l.2.3M288.1 216v1.9M294 217.7l-.3.2M293.6 217.9h-.7M292.9 217.9l-.3-.2M292.6 217.7l-.2-.3M292.4 217.4V216M292.4 216l.2-.3M292.6 215.7l.3-.2M292.9 215.5h.7M293.6 215.5l.3.2M294 215.7l.2.3M294.1 216v.3M294.1 216.4l-1.7.3M295.7 217.9v-2.4M295.7 214.3l-.2.2M295.5 214.5l.2.2M295.7 214.6l.2-.2M295.8 214.5l-.2-.2M295.7 214.3v.3M298.9 215.5v2.9M298.9 218.4l-.2.3M298.8 218.8l-.2.2M298.6 218.9l-.3.2M298.2 219.1h-.5M297.7 219.1l-.3-.2M298.9 217.7l-.3.2M298.6 217.9h-.7M297.9 217.9l-.3-.2M297.6 217.7l-.2-.2M297.4 217.6l-.2-.3M297.2 217.2v-1M297.2 216.2l.2-.3M297.4 215.8l.2-.2M297.6 215.7l.3-.2M297.9 215.5h.7M298.6 215.5l.3.2M300.6 217.9v-3.6M302.2 217.9V216M302.2 216l-.2-.3M302 215.7l-.3-.2M301.7 215.5h-.5M301.2 215.5l-.3.2M300.8 215.7l-.2.2M303.4 215.5h1.4M303.9 214.3v3.1M303.9 217.4l.2.3M304.1 217.7l.3.2M304.4 217.9h.3M308.7 215.5v3.6M308.7 215.7l.3-.2M309 215.5h.7M309.7 215.5l.3.2M310.1 215.7l.2.2M310.2 215.8l.2.3M310.4 216.2v1M310.4 217.2l-.2.3M310.2 217.6l-.2.2M310.1 217.7l-.3.2M309.7 217.9h-.7M309 217.9l-.3-.2M313.3 217.7l-.3.2M313 217.9h-.7M312.3 217.9l-.3-.2M312 217.7l-.2-.3M311.8 217.4V216M311.8 216l.2-.3M312 215.7l.3-.2M312.3 215.5h.7M313 215.5l.3.2M313.3 215.7l.2.3M313.5 216v.3M313.5 216.4l-1.7.3M315 217.9v-2.4M315 216.2l.2-.3M315.2 215.8l.2-.2M315.4 215.7l.3-.2M315.7 215.5h.3M321.6 217.7l-.3.2M321.2 217.9h-.7M320.5 217.9l-.3-.2M320.2 217.7l-.2-.2M320 217.6l-.2-.3M319.8 217.2v-1M319.8 216.2l.2-.3M320 215.8l.2-.2M320.2 215.7l.3-.2M320.5 215.5h.7M321.2 215.5l.3.2M323.1 217.9v-3.6M324.6 217.9V216M324.6 216l-.2-.3M324.5 215.7l-.3-.2M324.1 215.5h-.5M323.6 215.5l-.3.2M323.3 215.7l-.2.2M327.9 217.9V216M327.9 216l-.2-.3M327.7 215.7l-.3-.2M327.4 215.5h-.7M326.7 215.5l-.3.2M327.9 217.7l-.3.2M327.6 217.9h-.9M326.7 217.9l-.3-.2M326.4 217.7l-.2-.3M326.2 217.4v-.3M326.2 217l.2-.3M326.4 216.7l.3-.2M326.7 216.5h.9M327.6 216.5l.3-.2M329.6 217.9v-2.4M329.6 214.3l-.2.2M329.4 214.5l.2.2M329.6 214.6l.2-.2M329.8 214.5l-.2-.2M329.6 214.3v.3M331.3 215.5v2.4M331.3 215.8l.2-.2M331.5 215.7l.3-.2M331.8 215.5h.5M332.4 215.5l.3.2M332.7 215.7l.2.3M332.9 216v1.9M334.6 217.6l.2.2M334.8 217.7l-.2.2M334.6 217.9l-.2-.2M334.4 217.7l.2-.2M334.6 217.6v.3M203.3 222.7h1.7M202.9 223.7l1.2-3.6M204.1 220.1l1.2 3.6M207 223.7l-.3-.2M206.7 223.5l-.2-.3M206.5 223.2v-3.1M208.9 223.7l-.3-.2M208.6 223.5l-.2-.3M208.4 223.2v-3.1M213 223.7v-3.6M213 221.5l.3-.2M213.4 221.3h.7M214.1 221.3l.3.2M214.4 221.5l.2.2M214.6 221.6l.2.3M214.8 222v1M214.8 223l-.2.3M214.6 223.4l-.2.2M214.4 223.5l-.3.2M214.1 223.7h-.7M213.4 223.7l-.3-.2M216.8 223.7l-.3-.2M216.5 223.5l-.2-.2M216.3 223.4l-.2-.3M216.1 223v-1M216.1 222l.2-.3M216.3 221.6l.2-.2M216.5 221.5l.3-.2M216.8 221.3h.5M217.3 221.3l.3.2M217.7 221.5l.2.2M217.8 221.6l.2.3M218 222v1M218 223l-.2.3M217.8 223.4l-.2.2M217.7 223.5l-.3.2M217.3 223.7h-.5M221.1 223.7v-1.9M221.1 221.8l-.2-.3M220.9 221.5l-.3-.2M220.6 221.3h-.7M219.9 221.3l-.3.2M221.1 223.5l-.3.2M220.8 223.7h-.9M219.9 223.7l-.3-.2M219.6 223.5l-.2-.3M219.4 223.2v-.3M219.4 222.8l.2-.3M219.6 222.5l.3-.2M219.9 222.3h.9M220.8 222.3l.3-.2M222.8 223.7v-2.4M222.8 222l.2-.3M223 221.6l.2-.2M223.2 221.5l.3-.2M223.5 221.3h.3M226.6 223.7v-3.6M226.6 223.5l-.3.2M226.2 223.7h-.7M225.6 223.7l-.3-.2M225.2 223.5l-.2-.2M225 223.4l-.2-.3M224.9 223v-1M224.9 222l.2-.3M225 221.6l.2-.2M225.2 221.5l.3-.2M225.6 221.3h.7M226.2 221.3l.3.2M228.1 223.5l.3.2M228.5 223.7h.7M229.2 223.7l.3-.2M229.5 223.5l.2-.3M229.7 223.2v-.2M229.7 223l-.2-.3M229.5 222.7l-.3-.2M229.2 222.5h-.5M228.6 222.5l-.3-.2M228.3 222.3l-.2-.3M228.1 222v-.2M228.1 221.8l.2-.3M228.3 221.5l.3-.2M228.6 221.3h.5M229.2 221.3l.3.2M234 223.7v-2.4M234 221.6l.2-.2M234.1 221.5l.3-.2M234.5 221.3h.5M235 221.3l.3.2M235.3 221.5l.2.3M235.5 221.8v1.9M235.5 221.8l.2-.3M235.7 221.5l.3-.2M236 221.3h.5M236.5 221.3l.3.2M236.9 221.5l.2.3M237 221.8v1.9M240.3 221.3v2.4M238.8 221.3v1.9M238.8 223.2l.2.3M238.9 223.5l.3.2M239.3 223.7h.5M239.8 223.7l.3-.2M240.1 223.5l.2-.2M241.8 223.5l.3.2M242.2 223.7h.7M242.9 223.7l.3-.2M243.2 223.5l.2-.3M243.4 223.2v-.2M243.4 223l-.2-.3M243.2 222.7l-.3-.2M242.9 222.5h-.5M242.4 222.5l-.3-.2M242 222.3l-.2-.3M241.8 222v-.2M241.8 221.8l.2-.3M242 221.5l.3-.2M242.4 221.3h.5M242.9 221.3l.3.2M244.4 221.3h1.4M244.9 220.1v3.1M244.9 223.2l.2.3M245.1 223.5l.3.2M245.4 223.7h.3M249.7 223.7v-3.6M251.3 223.7v-1.9M251.3 221.8l-.2-.3M251.1 221.5l-.3-.2M250.8 221.3h-.5M250.2 221.3l-.3.2M249.9 221.5l-.2.2M254.5 223.7v-1.9M254.5 221.8l-.2-.3M254.4 221.5l-.3-.2M254 221.3h-.7M253.3 221.3l-.3.2M254.5 223.5l-.3.2M254.2 223.7h-.9M253.3 223.7l-.3-.2M253 223.5l-.2-.3M252.8 223.2v-.3M252.8 222.8l.2-.3M253 222.5l.3-.2M253.3 222.3h.9M254.2 222.3l.3-.2M255.9 221.3l.9 2.4M256.8 223.7l.9-2.4M260.4 223.5l-.3.2M260 223.7h-.7M259.3 223.7l-.3-.2M259 223.5l-.2-.3M258.8 223.2v-1.4M258.8 221.8l.2-.3M259 221.5l.3-.2M259.3 221.3h.7M260 221.3l.3.2M260.4 221.5l.2.3M260.5 221.8v.3M260.5 222.2l-1.7.3M266.4 223.7v-1.9M266.4 221.8l-.2-.3M266.2 221.5l-.3-.2M265.8 221.3h-.7M265.2 221.3l-.3.2M266.4 223.5l-.3.2M266 223.7h-.9M265.2 223.7l-.3-.2M264.8 223.5l-.2-.3M264.6 223.2v-.3M264.6 222.8l.2-.3M264.8 222.5l.3-.2M265.2 222.3h.9M266 222.3l.3-.2M272.4 223.7v-3.6M272.4 223.5l-.3.2M272 223.7h-.7M271.3 223.7l-.3-.2M271 223.5l-.2-.2M270.8 223.4l-.2-.3M270.6 223v-1M270.6 222l.2-.3M270.8 221.6l.2-.2M271 221.5l.3-.2M271.3 221.3h.7M272 221.3l.3.2M274.1 223.7v-2.4M274.1 220.1l-.2.2M273.9 220.3l.2.2M274.1 220.4l.2-.2M274.2 220.3l-.2-.2M274.1 220.1v.3M275.8 223.7v-2.4M275.8 222l.2-.3M276 221.6l.2-.2M276.1 221.5l.3-.2M276.5 221.3h.3M279.4 223.5l-.3.2M279 223.7h-.7M278.4 223.7l-.3-.2M278 223.5l-.2-.3M277.8 223.2v-1.4M277.8 221.8l.2-.3M278 221.5l.3-.2M278.4 221.3h.7M279 221.3l.3.2M279.4 221.5l.2.3M279.6 221.8v.3M279.6 222.2l-1.7.3M282.6 223.5l-.3.2M282.3 223.7h-.7M281.6 223.7l-.3-.2M281.3 223.5l-.2-.2M281.1 223.4l-.2-.3M280.9 223v-1M280.9 222l.2-.3M281.1 221.6l.2-.2M281.3 221.5l.3-.2M281.6 221.3h.7M282.3 221.3l.3.2M283.7 221.3h1.4M284.2 220.1v3.1M284.2 223.2l.2.3M284.4 223.5l.3.2M284.7 223.7h.3M289 222.3h2.7M290.4 223.7V221M295.2 220.1h-1.7M293.4 220.1l-.2 1.7M293.3 221.8l.2-.2M293.4 221.6l.3-.2M293.8 221.5h.9M294.6 221.5l.3.2M295 221.6l.2.2M295.2 221.8l.2.3M295.3 222.2v.9M295.3 223l-.2.3M295.2 223.4l-.2.2M295 223.5l-.3.2M294.6 223.7h-.9M293.8 223.7l-.3-.2M293.4 223.5l-.2-.2M296.4 220.1l1.2 3.6M297.6 223.7l1.2-3.6M302.7 221.3v3.6M302.7 221.5l.3-.2M303 221.3h.7M303.7 221.3l.3.2M304.1 221.5l.2.2M304.2 221.6l.2.3M304.4 222v1M304.4 223l-.2.3M304.2 223.4l-.2.2M304.1 223.5l-.3.2M303.7 223.7h-.7M303 223.7l-.3-.2M306.5 223.7l-.3-.2M306.1 223.5l-.2-.2M306 223.4l-.2-.3M305.8 223v-1M305.8 222l.2-.3M306 221.6l.2-.2M306.1 221.5l.3-.2M306.5 221.3h.5M307 221.3l.3.2M307.3 221.5l.2.2M307.5 221.6l.2.3M307.7 222v1M307.7 223l-.2.3M307.5 223.4l-.2.2M307.3 223.5l-.3.2M307 223.7h-.5M308.9 221.3l.7 2.4M309.6 223.7l.7-1.7M310.2 222l.7 1.7M310.9 223.7l.7-2.4M314.4 223.5l-.3.2M314 223.7h-.7M313.3 223.7l-.3-.2M313 223.5l-.2-.3M312.8 223.2v-1.4M312.8 221.8l.2-.3M313 221.5l.3-.2M313.3 221.3h.7M314 221.3l.3.2M314.4 221.5l.2.3M314.5 221.8v.3M314.5 222.2l-1.7.3M316.1 223.7v-2.4M316.1 222l.2-.3M316.2 221.6l.2-.2M316.4 221.5l.3-.2M316.8 221.3h.3M321 223.7v-2.4M321 220.1l-.2.2M320.9 220.3l.2.2M321 220.4l.2-.2M321.2 220.3l-.2-.2M321 220.1v.3M322.8 221.3v2.4M322.8 221.6l.2-.2M322.9 221.5l.3-.2M323.3 221.3h.5M323.8 221.3l.3.2M324.1 221.5l.2.3M324.3 221.8v1.9M326 221.3v3.6M326 221.5l.3-.2M326.4 221.3h.7M327 221.3l.3.2M327.4 221.5l.2.2M327.6 221.6l.2.3M327.7 222v1M327.7 223l-.2.3M327.6 223.4l-.2.2M327.4 223.5l-.3.2M327 223.7h-.7M326.4 223.7l-.3-.2M330.8 221.3v2.4M329.3 221.3v1.9M329.3 223.2l.2.3M329.4 223.5l.3.2M329.8 223.7h.5M330.3 223.7l.3-.2M330.6 223.5l.2-.2M332 221.3h1.4M332.5 220.1v3.1M332.5 223.2l.2.3M332.7 223.5l.3.2M333 223.7h.3M334.6 223.4l.2.2M334.8 223.5l-.2.2M334.6 223.7l-.2-.2M334.4 223.5l.2-.2M334.6 223.4v.3M73.4 125.7v-3.6M73.4 122.1h.9M74.2 122.1l.5.2M74.7 122.3l.3.3M75.1 122.7l.2.3M75.2 123l.2.7M75.4 123.7v.5M75.4 124.2l-.2.7M75.2 124.9l-.2.3M75.1 125.2l-.3.3M74.7 125.6l-.5.2M74.2 125.7h-.9M78.3 125.6l-.3.2M78 125.7h-.7M77.3 125.7l-.3-.2M77 125.6l-.2-.3M76.8 125.2v-1.4M76.8 123.9l.2-.3M77 123.5l.3-.2M77.3 123.3h.7M78 123.3l.3.2M78.3 123.5l.2.3M78.5 123.9v.3M78.5 124.2l-1.7.3M81.6 125.7v-3.6M81.6 125.6l-.3.2M81.2 125.7h-.7M80.6 125.7l-.3-.2M80.2 125.6l-.2-.2M80 125.4l-.2-.3M79.9 125.1v-1M79.9 124l.2-.3M80 123.7l.2-.2M80.2 123.5l.3-.2M80.6 123.3h.7M81.2 123.3l.3.2M83.3 125.7v-2.4M83.3 122.1l-.2.2M83.1 122.3l.2.2M83.3 122.5l.2-.2M83.5 122.3l-.2-.2M83.3 122.1v.3M86.6 125.6l-.3.2M86.2 125.7h-.7M85.5 125.7l-.3-.2M85.2 125.6l-.2-.2M85 125.4l-.2-.3M84.8 125.1v-1M84.8 124l.2-.3M85 123.7l.2-.2M85.2 123.5l.3-.2M85.5 123.3h.7M86.2 123.3l.3.2M89.6 125.7v-1.9M89.6 123.9l-.2-.3M89.5 123.5l-.3-.2M89.1 123.3h-.7M88.4 123.3l-.3.2M89.6 125.6l-.3.2M89.3 125.7h-.9M88.4 125.7l-.3-.2M88.1 125.6l-.2-.3M87.9 125.2v-.3M87.9 124.9l.2-.3M88.1 124.5l.3-.2M88.4 124.4h.9M89.3 124.4l.3-.2M90.8 123.3h1.4M91.4 122.1v3.1M91.4 125.2l.2.3M91.5 125.6l.3.2M91.9 125.7h.3M94.8 125.6l-.3.2M94.4 125.7h-.7M93.8 125.7l-.3-.2M93.4 125.6l-.2-.3M93.2 125.2v-1.4M93.2 123.9l.2-.3M93.4 123.5l.3-.2M93.8 123.3h.7M94.4 123.3l.3.2M94.8 123.5l.2.3M95 123.9v.3M95 124.2l-1.7.3M98 125.7v-3.6M98 125.6l-.3.2M97.7 125.7H97M97 125.7l-.3-.2M96.7 125.6l-.2-.2M96.5 125.4l-.2-.3M96.3 125.1v-1M96.3 124l.2-.3M96.5 123.7l.2-.2M96.7 123.5l.3-.2M97 123.3h.7M97.7 123.3l.3.2M102.5 124.4h2.7M103.9 125.7V123M108.7 122.1H107M107 122.1l-.2 1.7M106.8 123.9l.2-.2M107 123.7l.3-.2M107.3 123.5h.9M108.2 123.5l.3.2M108.5 123.7l.2.2M108.7 123.9l.2.3M108.8 124.2v.9M108.8 125.1l-.2.3M108.7 125.4l-.2.2M108.5 125.6l-.3.2M108.2 125.7h-.9M107.3 125.7l-.3-.2M107 125.6l-.2-.2M109.9 122.1l1.2 3.6M111.1 125.7l1.2-3.6M116.2 123.3v3.6M116.2 123.5l.3-.2M116.6 123.3h.7M117.2 123.3l.3.2M117.6 123.5l.2.2M117.8 123.7l.2.3M117.9 124v1M117.9 125.1l-.2.3M117.8 125.4l-.2.2M117.6 125.6l-.3.2M117.2 125.7h-.7M116.6 125.7l-.3-.2M120 125.7l-.3-.2M119.6 125.6l-.2-.2M119.5 125.4l-.2-.3M119.3 125.1v-1M119.3 124l.2-.3M119.5 123.7l.2-.2M119.6 123.5l.3-.2M120 123.3h.5M120.5 123.3l.3.2M120.8 123.5l.2.2M121 123.7l.2.3M121.2 124v1M121.2 125.1l-.2.3M121 125.4l-.2.2M120.8 125.6l-.3.2M120.5 125.7h-.5M122.4 123.3l.7 2.4M123.1 125.7l.7-1.7M123.8 124l.7 1.7M124.4 125.7l.7-2.4M127.9 125.6l-.3.2M127.5 125.7h-.7M126.8 125.7l-.3-.2M126.5 125.6l-.2-.3M126.3 125.2v-1.4M126.3 123.9l.2-.3M126.5 123.5l.3-.2M126.8 123.3h.7M127.5 123.3l.3.2M127.9 123.5l.2.3M128 123.9v.3M128 124.2l-1.7.3M129.6 125.7v-2.4M129.6 124l.2-.3M129.8 123.7l.2-.2M129.9 123.5l.3-.2M130.3 123.3h.3M132 125.6v.2M132 125.7l-.2.3M131.8 126.1l-.2.2M73.4 129.1v2.4M73.4 129.5l.2-.2M73.5 129.3l.3-.2M73.9 129.1h.5M74.4 129.1l.3.2M74.7 129.3l.2.3M74.9 129.7v1.9M77.1 131.5l-.3-.2M76.8 131.4l-.2-.2M76.6 131.2l-.2-.3M76.4 130.9v-1M76.4 129.8l.2-.3M76.6 129.5l.2-.2M76.8 129.3l.3-.2M77.1 129.1h.5M77.6 129.1l.3.2M78 129.3l.2.2M78.2 129.5l.2.3M78.3 129.8v1M78.3 130.9l-.2.3M78.2 131.2l-.2.2M78 131.4l-.3.2M77.6 131.5h-.5M79.4 129.1h1.4M79.9 127.9v3.1M79.9 131l.2.3M80 131.4l.3.2M80.4 131.5h.3M84.2 129.1h1.4M84.7 131.5v-3.1M84.7 128.5l.2-.3M84.8 128.1l.3-.2M85.2 127.9h.3M86.7 131.5v-2.4M86.7 129.8l.2-.3M86.9 129.5l.2-.2M87.1 129.3l.3-.2M87.4 129.1h.3M89.5 131.5l-.3-.2M89.1 131.4l-.2-.2M89 131.2l-.2-.3M88.8 130.9v-1M88.8 129.8l.2-.3M89 129.5l.2-.2M89.1 129.3l.3-.2M89.5 129.1h.5M90 129.1l.3.2M90.3 129.3l.2.2M90.5 129.5l.2.3M90.7 129.8v1M90.7 130.9l-.2.3M90.5 131.2l-.2.2M90.3 131.4l-.3.2M90 131.5h-.5M92.2 131.5v-2.4M92.2 129.5l.2-.2M92.4 129.3l.3-.2M92.7 129.1h.5M93.2 129.1l.3.2M93.6 129.3l.2.3M93.8 129.7v1.9M93.8 129.7l.2-.3M93.9 129.3l.3-.2M94.3 129.1h.5M94.8 129.1l.3.2M95.1 129.3l.2.3M95.3 129.7v1.9M101.3 131.5v-1.9M101.3 129.7l-.2-.3M101.1 129.3l-.3-.2M100.8 129.1h-.7M100.1 129.1l-.3.2M101.3 131.4l-.3.2M101 131.5h-.9M100.1 131.5l-.3-.2M99.8 131.4l-.2-.3M99.6 131v-.3M99.6 130.7l.2-.3M99.8 130.3l.3-.2M100.1 130.2h.9M101 130.2l.3-.2M105.8 130.2h2.7M107.1 131.5v-2.7M111.9 127.9h-1.7M110.2 127.9l-.2 1.7M110 129.7l.2-.2M110.2 129.5l.3-.2M110.6 129.3h.9M111.4 129.3l.3.2M111.8 129.5l.2.2M111.9 129.7l.2.3M112.1 130v.9M112.1 130.9l-.2.3M111.9 131.2l-.2.2M111.8 131.4l-.3.2M111.4 131.5h-.9M110.6 131.5l-.3-.2M110.2 131.4l-.2-.2M113.1 127.9l1.2 3.6M114.3 131.5l1.2-3.6M119.5 129.1v3.6M119.5 129.3l.3-.2M119.8 129.1h.7M120.5 129.1l.3.2M120.8 129.3l.2.2M121 129.5l.2.3M121.2 129.8v1M121.2 130.9l-.2.3M121 131.2l-.2.2M120.8 131.4l-.3.2M120.5 131.5h-.7M119.8 131.5l-.3-.2M122.7 131.5v-2.4M122.7 127.9l-.2.2M122.6 128.1l.2.2M122.7 128.3l.2-.2M122.9 128.1l-.2-.2M122.7 127.9v.3M124.4 129.1v2.4M124.4 129.5l.2-.2M124.6 129.3l.3-.2M125 129.1h.5M125.5 129.1l.3.2M125.8 129.3l.2.3M126 129.7v1.9M131 131.5l-.3-.2M130.6 131.4l-.2-.2M130.4 131.2l-.2-.3M130.3 130.9v-1M130.3 129.8l.2-.3M130.4 129.5l.2-.2M130.6 129.3l.3-.2M131 129.1h.5M131.5 129.1l.3.2M131.8 129.3l.2.2M132 129.5l.2.3M132.2 129.8v1M132.2 130.9l-.2.3M132 131.2l-.2.2M131.8 131.4l-.3.2M131.5 131.5h-.5M133.7 129.1v2.4M133.7 129.5l.2-.2M133.9 129.3l.3-.2M134.2 129.1h.5M134.7 129.1l.3.2M135.1 129.3l.2.3M135.2 129.7v1.9M139.2 129.1h1.4M139.7 127.9v3.1M139.7 131l.2.3M139.9 131.4l.3.2M140.2 131.5h.3M141.8 131.5v-3.6M143.3 131.5v-1.9M143.3 129.7l-.2-.3M143.1 129.3l-.3-.2M142.8 129.1h-.5M142.3 129.1l-.3.2M141.9 129.3l-.2.2M146.4 131.4l-.3.2M146 131.5h-.7M145.4 131.5l-.3-.2M145 131.4l-.2-.3M144.8 131v-1.4M144.8 129.7l.2-.3M145 129.3l.3-.2M145.4 129.1h.7M146 129.1l.3.2M146.4 129.3l.2.3M146.6 129.7v.3M146.6 130l-1.7.3M150.8 131.5v-3.6M150.8 129.3l.3-.2M151.2 129.1h.7M151.9 129.1l.3.2M152.2 129.3l.2.2M152.4 129.5l.2.3M152.6 129.8v1M152.6 130.9l-.2.3M152.4 131.2l-.2.2M152.2 131.4l-.3.2M151.9 131.5h-.7M151.2 131.5l-.3-.2M154.6 131.5l-.3-.2M154.3 131.4l-.2-.2M154.1 131.2l-.2-.3M153.9 130.9v-1M153.9 129.8l.2-.3M154.1 129.5l.2-.2M154.3 129.3l.3-.2M154.6 129.1h.5M155.1 129.1l.3.2M155.5 129.3l.2.2M155.6 129.5l.2.3M155.8 129.8v1M155.8 130.9l-.2.3M155.6 131.2l-.2.2M155.5 131.4l-.3.2M155.1 131.5h-.5M158.9 131.5v-1.9M158.9 129.7l-.2-.3M158.7 129.3l-.3-.2M158.4 129.1h-.7M157.7 129.1l-.3.2M158.9 131.4l-.3.2M158.6 131.5h-.9M157.7 131.5l-.3-.2M157.4 131.4l-.2-.3M157.2 131v-.3M157.2 130.7l.2-.3M157.4 130.3l.3-.2M157.7 130.2h.9M158.6 130.2l.3-.2M160.6 131.5v-2.4M160.6 129.8l.2-.3M160.8 129.5l.2-.2M161 129.3l.3-.2M161.3 129.1h.3M164.4 131.5v-3.6M164.4 131.4l-.3.2M164 131.5h-.7M163.4 131.5l-.3-.2M163 131.4l-.2-.2M162.8 131.2l-.2-.3M162.7 130.9v-1M162.7 129.8l.2-.3M162.8 129.5l.2-.2M163 129.3l.3-.2M163.4 129.1h.7M164 129.1l.3.2M166.1 131.2l.2.2M166.3 131.4l-.2.2M166.1 131.5l-.2-.2M165.9 131.4l.2-.2M166.1 131.2v.3M232.6 127.2v-3.6M232.6 123.6h.9M233.4 123.6l.5.2M234 123.8l.3.3M234.3 124.1l.2.3M234.5 124.4l.2.7M234.6 125.1v.5M234.6 125.6l-.2.7M234.5 126.3l-.2.3M234.3 126.7l-.3.3M234 127l-.5.2M233.4 127.2h-.9M236.7 127.2l-.3-.2M236.4 127l-.2-.2M236.2 126.8l-.2-.3M236 126.5v-1M236 125.5l.2-.3M236.2 125.1l.2-.2M236.4 125l.3-.2M236.7 124.8h.5M237.2 124.8l.3.2M237.6 125l.2.2M237.7 125.1l.2.3M237.9 125.5v1M237.9 126.5l-.2.3M237.7 126.8l-.2.2M237.6 127l-.3.2M237.2 127.2h-.5M242.2 124.8v2.4M242.2 125.1l.2-.2M242.4 125l.3-.2M242.7 124.8h.5M243.2 124.8l.3.2M243.6 125l.2.3M243.7 125.3v1.9M246 127.2l-.3-.2M245.6 127l-.2-.2M245.4 126.8l-.2-.3M245.3 126.5v-1M245.3 125.5l.2-.3M245.4 125.1l.2-.2M245.6 125l.3-.2M246 124.8h.5M246.5 124.8l.3.2M246.8 125l.2.2M247 125.1l.2.3M247.2 125.5v1M247.2 126.5l-.2.3M247 126.8l-.2.2M246.8 127l-.3.2M246.5 127.2h-.5M248.2 124.8h1.4M248.7 123.6v3.1M248.7 126.7l.2.3M248.9 127l.3.2M249.2 127.2h.3M255 124.8v2.4M253.5 124.8v1.9M253.5 126.7l.2.3M253.7 127l.3.2M254 127.2h.5M254.5 127.2l.3-.2M254.9 127l.2-.2M256.6 127l.3.2M256.9 127.2h.7M257.6 127.2l.3-.2M258 127l.2-.3M258.1 126.7v-.2M258.1 126.5l-.2-.3M258 126.2l-.3-.2M257.6 126h-.5M257.1 126l-.3-.2M256.8 125.8l-.2-.3M256.6 125.5v-.2M256.6 125.3l.2-.3M256.8 125l.3-.2M257.1 124.8h.5M257.6 124.8l.3.2M261 127l-.3.2M260.7 127.2h-.7M260 127.2l-.3-.2M259.7 127l-.2-.3M259.5 126.7v-1.4M259.5 125.3l.2-.3M259.7 125l.3-.2M260 124.8h.7M260.7 124.8l.3.2M261 125l.2.3M261.2 125.3v.3M261.2 125.6l-1.7.3M265 124.8h1.4M265.5 123.6v3.1M265.5 126.7l.2.3M265.7 127l.3.2M266 127.2h.3M267.6 127.2v-3.6M269.1 127.2v-1.9M269.1 125.3l-.2-.3M268.9 125l-.3-.2M268.6 124.8h-.5M268.1 124.8l-.3.2M267.7 125l-.2.2M272.2 127l-.3.2M271.8 127.2h-.7M271.2 127.2l-.3-.2M270.8 127l-.2-.3M270.6 126.7v-1.4M270.6 125.3l.2-.3M270.8 125l.3-.2M271.2 124.8h.7M271.8 124.8l.3.2M272.2 125l.2.3M272.4 125.3v.3M272.4 125.6l-1.7.3M276.1 123.6l1.2 3.6M277.3 127.2l1.2-3.6M281.8 126.8l-.2.2M281.6 127l-.5.2M281.1 127.2h-.3M280.8 127.2l-.5-.2M280.2 127l-.3-.3M279.9 126.7l-.2-.3M279.7 126.3l-.2-.7M279.6 125.6v-.5M279.6 125.1l.2-.7M279.7 124.4l.2-.3M279.9 124.1l.3-.3M280.2 123.8l.5-.2M280.8 123.6h.3M281.1 123.6l.5.2M281.6 123.8l.2.2M285.4 126.8l-.2.2M285.2 127l-.5.2M284.7 127.2h-.3M284.4 127.2l-.5-.2M283.8 127l-.3-.3M283.5 126.7l-.2-.3M283.3 126.3l-.2-.7M283.2 125.6v-.5M283.2 125.1l.2-.7M283.3 124.4l.2-.3M283.5 124.1l.3-.3M283.8 123.8l.5-.2M284.4 123.6h.3M284.7 123.6l.5.2M285.2 123.8l.2.2M291.2 127.2v-1.9M291.2 125.3l-.2-.3M291 125l-.3-.2M290.7 124.8h-.7M290 124.8l-.3.2M291.2 127l-.3.2M290.9 127.2h-.9M290 127.2l-.3-.2M289.7 127l-.2-.3M289.5 126.7v-.3M289.5 126.3l.2-.3M289.7 126l.3-.2M290 125.8h.9M290.9 125.8l.3-.2M292.9 124.8v2.4M292.9 125.1l.2-.2M293.1 125l.3-.2M293.4 124.8h.5M294 124.8l.3.2M294.3 125l.2.3M294.5 125.3v1.9M297.7 127.2v-3.6M297.7 127l-.3.2M297.4 127.2h-.7M296.7 127.2l-.3-.2M296.4 127l-.2-.2M296.2 126.8l-.2-.3M296 126.5v-1M296 125.5l.2-.3M296.2 125.1l.2-.2M296.4 125l.3-.2M296.7 124.8h.7M297.4 124.8l.3.2M304.1 123.8l-.3-.2M303.7 123.6h-.5M303.2 123.6l-.5.2M302.7 123.8l-.3.3M302.4 124.1l-.2.3M302.2 124.4l-.2.7M302 125.1v.5M302 125.6l.2.7M302.2 126.3l.2.3M302.4 126.7l.3.3M302.7 127l.5.2M303.2 127.2h.3M303.6 127.2l.5-.2M304.1 127l.2-.2M304.2 126.8v-1.2M304.2 125.6h-.7M305.8 127.2v-3.6M305.8 123.6l2.1 3.6M307.8 127.2v-3.6M309.6 127.2v-3.6M309.6 123.6h.9M310.4 123.6l.5.2M310.9 123.8l.3.3M311.3 124.1l.2.3M311.4 124.4l.2.7M311.6 125.1v.5M311.6 125.6l-.2.7M311.4 126.3l-.2.3M311.3 126.7l-.3.3M310.9 127l-.5.2M310.4 127.2h-.9M315.9 124.8v3.6M315.9 125l.3-.2M316.2 124.8h.7M316.9 124.8l.3.2M317.3 125l.2.2M317.4 125.1l.2.3M317.6 125.5v1M317.6 126.5l-.2.3M317.4 126.8l-.2.2M317.3 127l-.3.2M316.9 127.2h-.7M316.2 127.2l-.3-.2M319.2 127.2v-2.4M319.2 123.6l-.2.2M319 123.8l.2.2M319.2 123.9l.2-.2M319.3 123.8l-.2-.2M319.2 123.6v.3M320.9 124.8v2.4M320.9 125.1l.2-.2M321 125l.3-.2M321.4 124.8h.5M321.9 124.8l.3.2M322.2 125l.2.3M322.4 125.3v1.9M324 127l.3.2M324.3 127.2h.7M325 127.2l.3-.2M325.3 127l.2-.3M325.5 126.7v-.2M325.5 126.5l-.2-.3M325.3 126.2l-.3-.2M325 126h-.5M324.5 126l-.3-.2M324.1 125.8l-.2-.3M324 125.5v-.2M324 125.3l.2-.3M324.1 125l.3-.2M324.5 124.8h.5M325 124.8l.3.2M330.3 127.2l-.3-.2M330 127l-.2-.2M329.8 126.8l-.2-.3M329.6 126.5v-1M329.6 125.5l.2-.3M329.8 125.1l.2-.2M330 125l.3-.2M330.3 124.8h.5M330.8 124.8l.3.2M331.2 125l.2.2M331.3 125.1l.2.3M331.5 125.5v1M331.5 126.5l-.2.3M331.3 126.8l-.2.2M331.2 127l-.3.2M330.8 127.2h-.5M333 124.8v2.4M333 125.1l.2-.2M333.2 125l.3-.2M333.6 124.8h.5M334.1 124.8l.3.2M334.4 125l.2.3M334.6 125.3v1.9M255.2 130.6h1.4M255.7 129.4v3.1M255.7 132.5l.2.3M255.9 132.8l.3.2M256.2 133h.3M257.8 133v-3.6M259.3 133v-1.9M259.3 131.1l-.2-.3M259.2 130.8l-.3-.2M258.8 130.6h-.5M258.3 130.6l-.3.2M258 130.8l-.2.2M262.4 132.8l-.3.2M262.1 133h-.7M261.4 133l-.3-.2M261 132.8l-.2-.3M260.9 132.5v-1.4M260.9 131.1l.2-.3M261 130.8l.3-.2M261.4 130.6h.7M262.1 130.6l.3.2M262.4 130.8l.2.3M262.6 131.1v.3M262.6 131.4l-1.7.3M266.9 133v-2.4M266.9 131.3l.2-.3M267 130.9l.2-.2M267.2 130.8l.3-.2M267.6 130.6h.3M269.1 133v-2.4M269.1 129.4l-.2.2M268.9 129.6l.2.2M269.1 129.7l.2-.2M269.3 129.6l-.2-.2M269.1 129.4v.3M272.4 130.6v2.9M272.4 133.5l-.2.3M272.2 133.8l-.2.2M272 134l-.3.2M271.7 134.2h-.5M271.2 134.2l-.3-.2M272.4 132.8l-.3.2M272 133h-.7M271.3 133l-.3-.2M271 132.8l-.2-.2M270.8 132.6l-.2-.3M270.6 132.3v-1M270.6 131.3l.2-.3M270.8 130.9l.2-.2M271 130.8l.3-.2M271.3 130.6h.7M272 130.6l.3.2M274.1 133v-3.6M275.6 133v-1.9M275.6 131.1l-.2-.3M275.4 130.8l-.3-.2M275.1 130.6h-.5M274.6 130.6l-.3.2M274.2 130.8l-.2.2M276.8 130.6h1.4M277.3 129.4v3.1M277.3 132.5l.2.3M277.5 132.8l.3.2M277.8 133h.3M282 132.8l.3.2M282.3 133h.7M283 133l.3-.2M283.3 132.8l.2-.3M283.5 132.5v-.2M283.5 132.3l-.2-.3M283.3 132l-.3-.2M283 131.8h-.5M282.5 131.8l-.3-.2M282.1 131.6l-.2-.3M282 131.3v-.2M282 131.1l.2-.3M282.1 130.8l.3-.2M282.5 130.6h.5M283 130.6l.3.2M285 133v-2.4M285 129.4l-.2.2M284.9 129.6l.2.2M285 129.7l.2-.2M285.2 129.6l-.2-.2M285 129.4v.3M288.3 133v-3.6M288.3 132.8l-.3.2M288 133h-.7M287.3 133l-.3-.2M286.9 132.8l-.2-.2M286.8 132.6l-.2-.3M286.6 132.3v-1M286.6 131.3l.2-.3M286.8 130.9l.2-.2M286.9 130.8l.3-.2M287.3 130.6h.7M288 130.6l.3.2M291.4 132.8l-.3.2M291 133h-.7M290.4 133l-.3-.2M290 132.8l-.2-.3M289.8 132.5v-1.4M289.8 131.1l.2-.3M290 130.8l.3-.2M290.4 130.6h.7M291 130.6l.3.2M291.4 130.8l.2.3M291.6 131.1v.3M291.6 131.4l-1.7.3M296.4 133l-.3-.2M296 132.8l-.2-.2M295.8 132.6l-.2-.3M295.7 132.3v-1M295.7 131.3l.2-.3M295.8 130.9l.2-.2M296 130.8l.3-.2M296.4 130.6h.5M296.9 130.6l.3.2M297.2 130.8l.2.2M297.4 130.9l.2.3M297.6 131.3v1M297.6 132.3l-.2.3M297.4 132.6l-.2.2M297.2 132.8l-.3.2M296.9 133h-.5M298.6 130.6h1.4M299.1 133v-3.1M299.1 129.9l.2-.3M299.3 129.6l.3-.2M299.6 129.4h.3M303.4 130.6h1.4M303.9 129.4v3.1M303.9 132.5l.2.3M304.1 132.8l.3.2M304.4 133h.3M306 133v-3.6M307.5 133v-1.9M307.5 131.1l-.2-.3M307.3 130.8l-.3-.2M307 130.6h-.5M306.5 130.6l-.3.2M306.1 130.8l-.2.2M310.6 132.8l-.3.2M310.2 133h-.7M309.6 133l-.3-.2M309.2 132.8l-.2-.3M309 132.5v-1.4M309 131.1l.2-.3M309.2 130.8l.3-.2M309.6 130.6h.7M310.2 130.6l.3.2M310.6 130.8l.2.3M310.8 131.1v.3M310.8 131.4l-1.7.3M315 133v-2.4M315 130.9l.2-.2M315.2 130.8l.3-.2M315.6 130.6h.5M316.1 130.6l.3.2M316.4 130.8l.2.3M316.6 131.1v1.9M316.6 131.1l.2-.3M316.8 130.8l.3-.2M317.1 130.6h.5M317.6 130.6l.3.2M318 130.8l.2.3M318.1 131.1v1.9M320.4 133l-.3-.2M320 132.8l-.2-.2M319.8 132.6l-.2-.3M319.7 132.3v-1M319.7 131.3l.2-.3M319.8 130.9l.2-.2M320 130.8l.3-.2M320.4 130.6h.5M320.9 130.6l.3.2M321.2 130.8l.2.2M321.4 130.9l.2.3M321.6 131.3v1M321.6 132.3l-.2.3M321.4 132.6l-.2.2M321.2 132.8l-.3.2M320.9 133h-.5M324.6 133v-3.6M324.6 132.8l-.3.2M324.3 133h-.7M323.6 133l-.3-.2M323.3 132.8l-.2-.2M323.1 132.6l-.2-.3M322.9 132.3v-1M322.9 131.3l.2-.3M323.1 130.9l.2-.2M323.3 130.8l.3-.2M323.6 130.6h.7M324.3 130.6l.3.2M327.9 130.6v2.4M326.4 130.6v1.9M326.4 132.5l.2.3M326.5 132.8l.3.2M326.9 133h.5M327.4 133l.3-.2M327.7 132.8l.2-.2M330.1 133l-.3-.2M329.8 132.8l-.2-.3M329.6 132.5v-3.1M332.9 132.8l-.3.2M332.5 133h-.7M331.8 133l-.3-.2M331.5 132.8l-.2-.3M331.3 132.5v-1.4M331.3 131.1l.2-.3M331.5 130.8l.3-.2M331.8 130.6h.7M332.5 130.6l.3.2M332.9 130.8l.2.3M333 131.1v.3M333 131.4l-1.7.3M334.6 132.6l.2.2M334.8 132.8l-.2.2M334.6 133l-.2-.2M334.4 132.8l.2-.2M334.6 132.6v.3" />
  <path class="st8"
    d="M29.7 186.7h36M36.9 103.9v75.6M29.7 96.7v90M58.5 136.3v21.6M36.9 179.5h28.8M65.7 165.1h-7.2M44.1 172.3h21.6M58.5 157.9h7.2M58.5 165.1v43.2M36.9 103.9h270M29.7 96.7h270M44.1 111.1h270M22.5 46.3h-7.2M15.3 39.1h7.2M15.3 17.5v21.6M299.7 60.7h7.2M299.7 53.5h14.4M299.7 67.9v28.8M314.1 53.5v57.6M306.9 60.7v43.2M.9 60.7h21.6M.9 53.5h21.6M15.3 46.3v43.2M.9 67.9h21.6M44.1 111.1v61.2M342.9 179.5h7.2M342.9 172.3h14.4M339.3 215.5h3.6M357.3 172.3v57.6M339.3 229.9h18M342.9 186.7v28.8M350.1 179.5v43.2M339.3 222.7h10.8" />
  <path class="st4"
    d="m298 44.6 3.5 3.5M301.5 44.6l-3.5 3.5M298 37.4l3.5 3.5M301.5 37.4l-3.5 3.5M341.2 163.4l3.5 3.5M344.7 163.4l-3.5 3.5M341.2 156.2l3.5 3.5M344.7 156.2l-3.5 3.5" />
</svg>