<svg id="Layer_1" xmlns="http://www.w3.org/2000/svg" version="1.1" viewBox="0 0 177.8 107.9">
  <defs>
    <style>
      .st0 {
        letter-spacing: 1.6em
      }

      .st1 {
        letter-spacing: .3em
      }

      .st10,
      .st11,
      .st12,
      .st13,
      .st2,
      .st3,
      .st4,
      .st5,
      .st6,
      .st7,
      .st8,
      .st9 {
        stroke-linecap: round;
        stroke-linejoin: round
      }

      .st11,
      .st12,
      .st13,
      .st2,
      .st3,
      .st4,
      .st5,
      .st6,
      .st7,
      .st8,
      .st9 {
        fill: none
      }

      .st11,
      .st13,
      .st2,
      .st5,
      .st6,
      .st9 {
        stroke-width: .4px
      }

      .st12,
      .st2 {
        stroke: #a90000
      }

      .st12,
      .st3,
      .st7,
      .st8 {
        font-family: ArialMT, Arial;
        font-size: 4.8px;
        stroke-width: .4px
      }

      .st11,
      .st3 {
        stroke: #0f0f0f
      }

      .st10,
      .st4 {
        stroke-width: .7px
      }

      .st10,
      .st13,
      .st4 {
        stroke: #840000
      }

      .st5 {
        stroke: #009600
      }

      .st17 {
        letter-spacing: .8em
      }

      .st6,
      .st8 {
        stroke: #006464
      }

      .st7,
      .st9 {
        stroke: #0000c2
      }

      .st19 {
        isolation: isolate;
        opacity: 0
      }

      .st20 {
        letter-spacing: .3em
      }

      .st10 {
        fill: #840000
      }

      .st21,
      .st22,
      .st23 {
        letter-spacing: .2em
      }
    </style>
  </defs>
  <path style="fill:#ffffc2" d="M.4 17.5h144v72H.4z" />
  <path class="st4"
    d="M.4 17.5h144v72H.4zM14.8 64.3l3.6-10.8M18.4 64.3h7.2M19.1 49.9l3.6-10.8M22 53.5h7.2M26.3 39.1h7.2M29.2 64.3l3.6-10.8M33.5 49.9l3.6-10.8M47.2 64.3l3.6-10.8M50.8 64.3H58M51.5 49.9l3.6-10.8M54.4 53.5h7.2M58.7 39.1h7.2M61.6 64.3l3.6-10.8M65.9 49.9l3.6-10.8M76 64.3l3.6-10.8M79.6 64.3h7.2M80.3 49.9l3.6-10.8M83.2 53.5h7.2M87.5 39.1h7.2M90.4 64.3 94 53.5M94.7 49.9l3.6-10.8M104 64.3l3.6-10.8M107.6 64.3h7.2M108.4 49.9l3.6-10.8M111.2 53.5h7.2M115.6 39.1h7.2M118.4 64.3l3.6-10.8M122.8 49.9l3.6-10.8" />
  <circle class="st10" cx="33.5" cy="64.3" r="1" />
  <circle class="st10" cx="65.2" cy="64.3" r="1" />
  <circle class="st10" cx="94" cy="65.1" r="1" />
  <circle class="st10" cx="122.8" cy="64.3" r="1" />
  <path class="st13" d="M144.4 42.7h7.2" />
  <path class="st6"
    d="m135.4 44-.2.2M135.3 44.2l-.5.2M134.8 44.4h-.3M134.4 44.4l-.5-.2M133.9 44.2l-.3-.3M133.6 43.9l-.2-.3M133.4 43.5l-.2-.7M133.2 42.8v-.5M133.2 42.3l.2-.7M133.4 41.6l.2-.3M133.6 41.3l.3-.3M133.9 41l.5-.2M134.4 40.8h.3M134.8 40.8l.5.2M135.3 41l.2.2M138.7 44.4H137M137 44.4v-3.6M139.9 44.4v-3.6M141.9 44.4l-1.5-2.1M141.9 40.8l-2.1 2.1" />
  <path class="st2" d="M149 41.6h-2.1M148 41.6V38M148 38l-.3.5M147.6 38.5l-.3.3M147.3 38.8l-.3.2" />
  <path class="st13" d="M144.4 49.9h7.2" />
  <path class="st6"
    d="M134.4 51.6V48M134.4 48h.9M135.3 48l.5.2M135.8 48.2l.3.3M136.1 48.5l.2.3M136.3 48.8l.2.7M136.5 49.5v.5M136.5 50l-.2.7M136.3 50.7l-.2.3M136.1 51.1l-.3.3M135.8 51.4l-.5.2M135.3 51.6h-.9M138 51.6V48M140.4 48h.7M141.1 48l.3.2M141.4 48.2l.3.3M141.8 48.5l.2.7M141.9 49.2v1.2M141.9 50.4l-.2.7M141.8 51.1l-.3.3M141.4 51.4l-.3.2M141.1 51.6h-.7M140.4 51.6l-.3-.2M140.1 51.4l-.3-.3M139.7 51.1l-.2-.7M139.6 50.4v-1.2M139.6 49.2l.2-.7M139.7 48.5l.3-.3M140.1 48.2l.3-.2" />
  <path class="st2"
    d="m146.9 45.5.2-.2M147.1 45.3l.3-.2M147.4 45.2h.9M148.3 45.2l.3.2M148.6 45.3l.2.2M148.8 45.5l.2.3M149 45.8v.3M149 46.2l-.2.5M148.8 46.7l-2.1 2.1M146.8 48.8h2.2" />
  <path class="st13" d="M144.4 57.1h7.2" />
  <path class="st6"
    d="m132.7 55.2 1.2 3.6M133.9 58.8l1.2-3.6M138.4 58.4l-.2.2M138.2 58.6l-.5.2M137.7 58.8h-.3M137.3 58.8l-.5-.2M136.8 58.6l-.3-.3M136.5 58.3l-.2-.3M136.3 57.9l-.2-.7M136.1 57.2v-.5M136.1 56.7l.2-.7M136.3 56l.2-.3M136.5 55.7l.3-.3M136.8 55.4l.5-.2M137.3 55.2h.3M137.7 55.2l.5.2M138.2 55.4l.2.2M141.9 58.4l-.2.2M141.8 58.6l-.5.2M141.3 58.8h-.3M140.9 58.8l-.5-.2M140.4 58.6l-.3-.3M140.1 58.3l-.2-.3M139.9 57.9l-.2-.7M139.7 57.2v-.5M139.7 56.7l.2-.7M139.9 56l.2-.3M140.1 55.7l.3-.3M140.4 55.4l.5-.2M140.9 55.2h.3M141.3 55.2l.5.2M141.8 55.4l.2.2" />
  <path class="st2"
    d="M146.8 52.4h2.2M149 52.4l-1.2 1.4M147.8 53.7h.5M148.3 53.7l.3.2M148.6 53.9l.2.2M148.8 54.1l.2.3M149 54.4v.9M149 55.3l-.2.3M148.8 55.6l-.2.2M148.6 55.8l-.3.2M148.3 56h-1M147.3 56l-.3-.2M146.9 55.8l-.2-.2" />
  <path class="st13" d="M144.4 64.3h7.2" />
  <path class="st6"
    d="m134.4 62.6-.3-.2M134.1 62.4h-.5M133.6 62.4l-.5.2M133 62.6l-.3.3M132.7 62.9l-.2.3M132.5 63.2l-.2.7M132.4 63.9v.5M132.4 64.4l.2.7M132.5 65.1l.2.3M132.7 65.5l.3.3M133 65.8l.5.2M133.6 66h.3M133.9 66l.5-.2M134.4 65.8l.2-.2M134.6 65.6v-1.2M134.6 64.4h-.7M136.1 66v-3.6M136.1 62.4l2.1 3.6M138.2 66v-3.6M139.9 66v-3.6M139.9 62.4h.9M140.8 62.4l.5.2M141.3 62.6l.3.3M141.6 62.9l.2.3M141.8 63.2l.2.7M141.9 63.9v.5M141.9 64.4l-.2.7M141.8 65.1l-.2.3M141.6 65.5l-.3.3M141.3 65.8l-.5.2M140.8 66h-.9" />
  <path class="st2" d="M148.6 60.8v2.4M147.8 59.4l-.9 2.6M146.9 62h2.2" />
  <path class="st13" d="M151.6 89.5v3.6h3.6l-3.6 3.6-3.6-3.6h3.6M151.6 89.5h0" />
  <path class="st6"
    d="m148.8 102.2-.3-.2M148.5 102h-.5M148 102l-.5.2M147.4 102.2l-.3.3M147.1 102.5l-.2.3M146.9 102.8l-.2.7M146.8 103.5v.5M146.8 104l.2.7M146.9 104.7l.2.3M147.1 105.1l.3.3M147.4 105.4l.5.2M148 105.6h.3M148.3 105.6l.5-.2M148.8 105.4l.2-.2M149 105.2V104M149 104h-.7M150.5 105.6V102M150.5 102l2.1 3.6M152.6 105.6V102M154.3 105.6V102M154.3 102h.9M155.2 102l.5.2M155.7 102.2l.3.3M156 102.5l.2.3M156.2 102.8l.2.7M156.4 103.5v.5M156.4 104l-.2.7M156.2 104.7l-.2.3M156 105.1l-.3.3M155.7 105.4l-.5.2M155.2 105.6h-.9" />
  <path class="st13" d="m167.4 13.9 2.2-3.6M169.6 17.5v-7.2M169.6 10.3l2.2 3.6M169.6 17.5h0" />
  <path class="st6"
    d="M164.9 3.4h2.7M166.3 4.8V2.1M171.1 1.2h-1.7M169.4 1.2l-.2 1.7M169.2 2.9l.2-.2M169.4 2.7l.3-.2M169.7 2.6h.9M170.6 2.6l.3.2M170.9 2.7l.2.2M171.1 2.9l.2.3M171.3 3.2v.9M171.3 4.1l-.2.3M171.1 4.4l-.2.2M170.9 4.6l-.3.2M170.6 4.8h-.9M169.7 4.8l-.3-.2M169.4 4.6l-.2-.2M172.3 1.2l1.2 3.6M173.5 4.8l1.2-3.6" />
  <path class="st11"
    d="M153.8 48.5v-3.6M153.8 44.9h.9M154.7 44.9l.5.2M155.2 45.1l.3.3M155.6 45.4l.2.3M155.7 45.8l.2.7M155.9 46.4v.5M155.9 47l-.2.7M155.7 47.6l-.2.3M155.6 48l-.3.3M155.2 48.3l-.5.2M154.7 48.5h-.9M157.4 48.5v-3.6M159.2 48.5v-3.6M159.2 44.9l2.1 3.6M161.2 48.5v-3.6M154.9 41l-.2.2M154.7 41.1l-.5.2M154.2 41.3h-.3M153.8 41.3l-.5-.2M153.3 41.1l-.3-.3M153 40.8l-.2-.3M152.8 40.4l-.2-.7M152.6 39.8v-.5M152.6 39.2l.2-.7M152.8 38.6l.2-.3M153 38.2l.3-.3M153.3 37.9l.5-.2M153.8 37.7h.3M154.2 37.7l.5.2M154.7 37.9l.2.2M158.1 41.3h-1.7M156.4 41.3v-3.6M159.3 41.3v-3.6M161.4 41.3l-1.5-2.1M161.4 37.7l-2.1 2.1" />
  <path class="st9"
    d="M85.5 6.2V2.6M85.5 2.6h.9M86.3 2.6l.5.2M86.9 2.8l.3.3M87.2 3.1l.2.3M87.4 3.5l.2.7M87.5 4.2v.5M87.5 4.7l-.2.7M87.4 5.4l-.2.3M87.2 5.7l-.3.3M86.9 6.1l-.5.2M86.3 6.2h-.9M90.5 6.1l-.3.2M90.1 6.2h-.7M89.4 6.2l-.3-.2M89.1 6.1l-.2-.3M88.9 5.7V4.3M88.9 4.3l.2-.3M89.1 4l.3-.2M89.4 3.8h.7M90.1 3.8l.3.2M90.5 4l.2.3M90.6 4.3v.3M90.6 4.7l-1.7.3M93.7 6.2V2.6M93.7 6.1l-.3.2M93.4 6.2h-.7M92.7 6.2l-.3-.2M92.3 6.1l-.2-.2M92.2 5.9l-.2-.3M92 5.5v-1M92 4.5l.2-.3M92.2 4.2l.2-.2M92.3 4l.3-.2M92.7 3.8h.7M93.4 3.8l.3.2M95.4 6.2V3.8M95.4 2.6l-.2.2M95.3 2.8l.2.2M95.4 3l.2-.2M95.6 2.8l-.2-.2M95.4 2.6v.3M98.7 6.1l-.3.2M98.3 6.2h-.7M97.7 6.2l-.3-.2M97.3 6.1l-.2-.2M97.1 5.9l-.2-.3M97 5.5v-1M97 4.5l.2-.3M97.1 4.2l.2-.2M97.3 4l.3-.2M97.7 3.8h.7M98.3 3.8l.3.2M101.8 6.2V4.3M101.8 4.3l-.2-.3M101.6 4l-.3-.2M101.3 3.8h-.7M100.6 3.8l-.3.2M101.8 6.1l-.3.2M101.4 6.2h-.9M100.6 6.2l-.3-.2M100.2 6.1l-.2-.3M100.1 5.7v-.3M100.1 5.4l.2-.3M100.2 5l.3-.2M100.6 4.9h.9M101.4 4.9l.3-.2M103 3.8h1.4M103.5 2.6v3.1M103.5 5.7l.2.3M103.7 6.1l.3.2M104 6.2h.3M106.9 6.1l-.3.2M106.6 6.2h-.7M105.9 6.2l-.3-.2M105.5 6.1l-.2-.3M105.4 5.7V4.3M105.4 4.3l.2-.3M105.5 4l.3-.2M105.9 3.8h.7M106.6 3.8l.3.2M106.9 4l.2.3M107.1 4.3v.3M107.1 4.7l-1.7.3M110.2 6.2V2.6M110.2 6.1l-.3.2M109.8 6.2h-.7M109.1 6.2l-.3-.2M108.8 6.1l-.2-.2M108.6 5.9l-.2-.3M108.5 5.5v-1M108.5 4.5l.2-.3M108.6 4.2l.2-.2M108.8 4l.3-.2M109.1 3.8h.7M109.8 3.8l.3.2M114.6 4.9h2.7M116 6.2V3.5M120.8 2.6h-1.7M119.1 2.6l-.2 1.7M118.9 4.3l.2-.2M119.1 4.2l.3-.2M119.4 4h.9M120.3 4l.3.2M120.6 4.2l.2.2M120.8 4.3l.2.3M121 4.7v.9M121 5.5l-.2.3M120.8 5.9l-.2.2M120.6 6.1l-.3.2M120.3 6.2h-.9M119.4 6.2l-.3-.2M119.1 6.1l-.2-.2M122 2.6l1.2 3.6M123.2 6.2l1.2-3.6M128.3 3.8v3.6M128.3 4l.3-.2M128.7 3.8h.7M129.4 3.8l.3.2M129.7 4l.2.2M129.9 4.2l.2.3M130.1 4.5v1M130.1 5.5l-.2.3M129.9 5.9l-.2.2M129.7 6.1l-.3.2M129.4 6.2h-.7M128.7 6.2l-.3-.2M132.1 6.2l-.3-.2M131.8 6.1l-.2-.2M131.6 5.9l-.2-.3M131.4 5.5v-1M131.4 4.5l.2-.3M131.6 4.2l.2-.2M131.8 4l.3-.2M132.1 3.8h.5M132.6 3.8l.3.2M133 4l.2.2M133.1 4.2l.2.3M133.3 4.5v1M133.3 5.5l-.2.3M133.1 5.9l-.2.2M133 6.1l-.3.2M132.6 6.2h-.5M134.5 3.8l.7 2.4M135.2 6.2l.7-1.7M135.9 4.5l.7 1.7M136.6 6.2l.7-2.4M140 6.1l-.3.2M139.7 6.2h-.7M139 6.2l-.3-.2M138.6 6.1l-.2-.3M138.5 5.7V4.3M138.5 4.3l.2-.3M138.6 4l.3-.2M139 3.8h.7M139.7 3.8l.3.2M140 4l.2.3M140.2 4.3v.3M140.2 4.7l-1.7.3M141.7 6.2V3.8M141.7 4.5l.2-.3M141.9 4.2l.2-.2M142.1 4l.3-.2M142.4 3.8h.3M144.1 6.1v.2M144.1 6.2l-.2.3M143.9 6.6l-.2.2M51.2 9.6V12M51.2 10l.2-.2M51.4 9.8l.3-.2M51.7 9.6h.5M52.2 9.6l.3.2M52.6 9.8l.2.3M52.7 10.1V12M55 12l-.3-.2M54.6 11.8l-.2-.2M54.5 11.7l-.2-.3M54.3 11.3v-1M54.3 10.3l.2-.3M54.5 10l.2-.2M54.6 9.8l.3-.2M55 9.6h.5M55.5 9.6l.3.2M55.8 9.8l.2.2M56 10l.2.3M56.2 10.3v1M56.2 11.3l-.2.3M56 11.7l-.2.2M55.8 11.8l-.3.2M55.5 12H55M57.2 9.6h1.4M57.7 8.4v3.1M57.7 11.5l.2.3M57.9 11.8l.3.2M58.2 12h.3M62 9.6h1.4M62.5 12V8.9M62.5 8.9l.2-.3M62.7 8.6l.3-.2M63 8.4h.3M64.6 12V9.6M64.6 10.3l.2-.3M64.7 10l.2-.2M64.9 9.8l.3-.2M65.3 9.6h.3M67.3 12l-.3-.2M67 11.8l-.2-.2M66.8 11.7l-.2-.3M66.6 11.3v-1M66.6 10.3l.2-.3M66.8 10l.2-.2M67 9.8l.3-.2M67.3 9.6h.5M67.8 9.6l.3.2M68.2 9.8l.2.2M68.3 10l.2.3M68.5 10.3v1M68.5 11.3l-.2.3M68.3 11.7l-.2.2M68.2 11.8l-.3.2M67.8 12h-.5M70.1 12V9.6M70.1 10l.2-.2M70.2 9.8l.3-.2M70.6 9.6h.5M71.1 9.6l.3.2M71.4 9.8l.2.3M71.6 10.1V12M71.6 10.1l.2-.3M71.8 9.8l.3-.2M72.1 9.6h.5M72.6 9.6l.3.2M73 9.8l.2.3M73.1 10.1V12M79.1 12v-1.9M79.1 10.1l-.2-.3M79 9.8l-.3-.2M78.6 9.6h-.7M77.9 9.6l-.3.2M79.1 11.8l-.3.2M78.8 12h-.9M77.9 12l-.3-.2M77.6 11.8l-.2-.3M77.4 11.5v-.3M77.4 11.2l.2-.3M77.6 10.8l.3-.2M77.9 10.6h.9M78.8 10.6l.3-.2M83.6 10.6h2.7M85 12V9.3M89.8 8.4h-1.7M88.1 8.4l-.2 1.7M87.9 10.1l.2-.2M88.1 10l.3-.2M88.4 9.8h.9M89.3 9.8l.3.2M89.6 10l.2.2M89.8 10.1l.2.3M89.9 10.5v.9M89.9 11.3l-.2.3M89.8 11.7l-.2.2M89.6 11.8l-.3.2M89.3 12h-.9M88.4 12l-.3-.2M88.1 11.8l-.2-.2M91 8.4l1.2 3.6M92.2 12l1.2-3.6M97.3 9.6v3.6M97.3 9.8l.3-.2M97.7 9.6h.7M98.3 9.6l.3.2M98.7 9.8l.2.2M98.9 10l.2.3M99 10.3v1M99 11.3l-.2.3M98.9 11.7l-.2.2M98.7 11.8l-.3.2M98.3 12h-.7M97.7 12l-.3-.2M100.6 12V9.6M100.6 8.4l-.2.2M100.4 8.6l.2.2M100.6 8.8l.2-.2M100.7 8.6l-.2-.2M100.6 8.4v.3M102.3 9.6V12M102.3 10l.2-.2M102.5 9.8l.3-.2M102.8 9.6h.5M103.3 9.6l.3.2M103.7 9.8l.2.3M103.8 10.1V12M108.8 12l-.3-.2M108.5 11.8l-.2-.2M108.3 11.7l-.2-.3M108.1 11.3v-1M108.1 10.3l.2-.3M108.3 10l.2-.2M108.5 9.8l.3-.2M108.8 9.6h.5M109.3 9.6l.3.2M109.7 9.8l.2.2M109.8 10l.2.3M110 10.3v1M110 11.3l-.2.3M109.8 11.7l-.2.2M109.7 11.8l-.3.2M109.3 12h-.5M111.5 9.6V12M111.5 10l.2-.2M111.7 9.8l.3-.2M112.1 9.6h.5M112.6 9.6l.3.2M112.9 9.8l.2.3M113.1 10.1V12M117 9.6h1.4M117.5 8.4v3.1M117.5 11.5l.2.3M117.7 11.8l.3.2M118.1 12h.3M119.6 12V8.4M121.1 12v-1.9M121.1 10.1l-.2-.3M121 9.8l-.3-.2M120.6 9.6h-.5M120.1 9.6l-.3.2M119.8 9.8l-.2.2M124.2 11.8l-.3.2M123.9 12h-.7M123.2 12l-.3-.2M122.9 11.8l-.2-.3M122.7 11.5v-1.4M122.7 10.1l.2-.3M122.9 9.8l.3-.2M123.2 9.6h.7M123.9 9.6l.3.2M124.2 9.8l.2.3M124.4 10.1v.3M124.4 10.5l-1.7.3M128.7 12V8.4M128.7 9.8l.3-.2M129 9.6h.7M129.7 9.6l.3.2M130.1 9.8l.2.2M130.2 10l.2.3M130.4 10.3v1M130.4 11.3l-.2.3M130.2 11.7l-.2.2M130.1 11.8l-.3.2M129.7 12h-.7M129 12l-.3-.2M132.5 12l-.3-.2M132.1 11.8l-.2-.2M131.9 11.7l-.2-.3M131.8 11.3v-1M131.8 10.3l.2-.3M131.9 10l.2-.2M132.1 9.8l.3-.2M132.5 9.6h.5M133 9.6l.3.2M133.3 9.8l.2.2M133.5 10l.2.3M133.7 10.3v1M133.7 11.3l-.2.3M133.5 11.7l-.2.2M133.3 11.8l-.3.2M133 12h-.5M136.7 12v-1.9M136.7 10.1l-.2-.3M136.6 9.8l-.3-.2M136.2 9.6h-.7M135.5 9.6l-.3.2M136.7 11.8l-.3.2M136.4 12h-.9M135.5 12l-.3-.2M135.2 11.8l-.2-.3M135 11.5v-.3M135 11.2l.2-.3M135.2 10.8l.3-.2M135.5 10.6h.9M136.4 10.6l.3-.2M138.5 12V9.6M138.5 10.3l.2-.3M138.6 10l.2-.2M138.8 9.8l.3-.2M139.1 9.6h.3M142.2 12V8.4M142.2 11.8l-.3.2M141.9 12h-.7M141.2 12l-.3-.2M140.9 11.8l-.2-.2M140.7 11.7l-.2-.3M140.5 11.3v-1M140.5 10.3l.2-.3M140.7 10l.2-.2M140.9 9.8l.3-.2M141.2 9.6h.7M141.9 9.6l.3.2M143.9 11.7l.2.2M144.1 11.8l-.2.2M143.9 12l-.2-.2M143.8 11.8l.2-.2M143.9 11.7v.3" />
  <path class="st5" d="M169.6 17.5v39.6M151.6 57.1h18M151.6 42.7h10.8M151.6 49.9h10.8M151.6 64.3v25.2" />
  <path class="st6"
    d="m148.8 102.2-.3-.2M148.5 102h-.5M148 102l-.5.2M147.4 102.2l-.3.3M147.1 102.5l-.2.3M146.9 102.8l-.2.7M146.8 103.5v.5M146.8 104l.2.7M146.9 104.7l.2.3M147.1 105.1l.3.3M147.4 105.4l.5.2M148 105.6h.3M148.3 105.6l.5-.2M148.8 105.4l.2-.2M149 105.2V104M149 104h-.7M150.5 105.6V102M150.5 102l2.1 3.6M152.6 105.6V102M154.3 105.6V102M154.3 102h.9M155.2 102l.5.2M155.7 102.2l.3.3M156 102.5l.2.3M156.2 102.8l.2.7M156.4 103.5v.5M156.4 104l-.2.7M156.2 104.7l-.2.3M156 105.1l-.3.3M155.7 105.4l-.5.2M155.2 105.6h-.9" />
  <path class="st13" d="M151.6 89.5h0M144.4 42.7h7.2" />
  <path class="st6"
    d="m135.4 44-.2.2M135.3 44.2l-.5.2M134.8 44.4h-.3M134.4 44.4l-.5-.2M133.9 44.2l-.3-.3M133.6 43.9l-.2-.3M133.4 43.5l-.2-.7M133.2 42.8v-.5M133.2 42.3l.2-.7M133.4 41.6l.2-.3M133.6 41.3l.3-.3M133.9 41l.5-.2M134.4 40.8h.3M134.8 40.8l.5.2M135.3 41l.2.2M138.7 44.4H137M137 44.4v-3.6M139.9 44.4v-3.6M141.9 44.4l-1.5-2.1M141.9 40.8l-2.1 2.1" />
  <path class="st2" d="M149 41.6h-2.1M148 41.6V38M148 38l-.3.5M147.6 38.5l-.3.3M147.3 38.8l-.3.2" />
  <path class="st13" d="M144.4 49.9h7.2" />
  <path class="st6"
    d="M134.4 51.6V48M134.4 48h.9M135.3 48l.5.2M135.8 48.2l.3.3M136.1 48.5l.2.3M136.3 48.8l.2.7M136.5 49.5v.5M136.5 50l-.2.7M136.3 50.7l-.2.3M136.1 51.1l-.3.3M135.8 51.4l-.5.2M135.3 51.6h-.9M138 51.6V48M140.4 48h.7M141.1 48l.3.2M141.4 48.2l.3.3M141.8 48.5l.2.7M141.9 49.2v1.2M141.9 50.4l-.2.7M141.8 51.1l-.3.3M141.4 51.4l-.3.2M141.1 51.6h-.7M140.4 51.6l-.3-.2M140.1 51.4l-.3-.3M139.7 51.1l-.2-.7M139.6 50.4v-1.2M139.6 49.2l.2-.7M139.7 48.5l.3-.3M140.1 48.2l.3-.2" />
  <path class="st2"
    d="m146.9 45.5.2-.2M147.1 45.3l.3-.2M147.4 45.2h.9M148.3 45.2l.3.2M148.6 45.3l.2.2M148.8 45.5l.2.3M149 45.8v.3M149 46.2l-.2.5M148.8 46.7l-2.1 2.1M146.8 48.8h2.2" />
  <path class="st13" d="M144.4 57.1h7.2" />
  <path class="st6"
    d="m132.7 55.2 1.2 3.6M133.9 58.8l1.2-3.6M138.4 58.4l-.2.2M138.2 58.6l-.5.2M137.7 58.8h-.3M137.3 58.8l-.5-.2M136.8 58.6l-.3-.3M136.5 58.3l-.2-.3M136.3 57.9l-.2-.7M136.1 57.2v-.5M136.1 56.7l.2-.7M136.3 56l.2-.3M136.5 55.7l.3-.3M136.8 55.4l.5-.2M137.3 55.2h.3M137.7 55.2l.5.2M138.2 55.4l.2.2M141.9 58.4l-.2.2M141.8 58.6l-.5.2M141.3 58.8h-.3M140.9 58.8l-.5-.2M140.4 58.6l-.3-.3M140.1 58.3l-.2-.3M139.9 57.9l-.2-.7M139.7 57.2v-.5M139.7 56.7l.2-.7M139.9 56l.2-.3M140.1 55.7l.3-.3M140.4 55.4l.5-.2M140.9 55.2h.3M141.3 55.2l.5.2M141.8 55.4l.2.2" />
  <path class="st2"
    d="M146.8 52.4h2.2M149 52.4l-1.2 1.4M147.8 53.7h.5M148.3 53.7l.3.2M148.6 53.9l.2.2M148.8 54.1l.2.3M149 54.4v.9M149 55.3l-.2.3M148.8 55.6l-.2.2M148.6 55.8l-.3.2M148.3 56h-1M147.3 56l-.3-.2M146.9 55.8l-.2-.2" />
  <path class="st13" d="M144.4 64.3h7.2" />
  <path class="st6"
    d="m134.4 62.6-.3-.2M134.1 62.4h-.5M133.6 62.4l-.5.2M133 62.6l-.3.3M132.7 62.9l-.2.3M132.5 63.2l-.2.7M132.4 63.9v.5M132.4 64.4l.2.7M132.5 65.1l.2.3M132.7 65.5l.3.3M133 65.8l.5.2M133.6 66h.3M133.9 66l.5-.2M134.4 65.8l.2-.2M134.6 65.6v-1.2M134.6 64.4h-.7M136.1 66v-3.6M136.1 62.4l2.1 3.6M138.2 66v-3.6M139.9 66v-3.6M139.9 62.4h.9M140.8 62.4l.5.2M141.3 62.6l.3.3M141.6 62.9l.2.3M141.8 63.2l.2.7M141.9 63.9v.5M141.9 64.4l-.2.7M141.8 65.1l-.2.3M141.6 65.5l-.3.3M141.3 65.8l-.5.2M140.8 66h-.9" />
  <path class="st2" d="M148.6 60.8v2.4M147.8 59.4l-.9 2.6M146.9 62h2.2" />
</svg>