<svg id="Layer_1" xmlns="http://www.w3.org/2000/svg" version="1.1" viewBox="0 0 178.8 97.1"><defs><style>.st1{stroke:#000084}.st1,.st3,.st4,.st5,.st6,.st7,.st8{fill:none;stroke-linecap:round;stroke-linejoin:round}.st1,.st4,.st5,.st6,.st7,.st8{stroke-width:.4px}.st6{font-family:ArialMT,Arial;font-size:4.8px}.st7{stroke:#0f0f0f}.st3{stroke-width:.7px}.st3,.st8{stroke:#840000}.st4{stroke:#009600}.st5,.st6{stroke:#006464}.st16{isolation:isolate;opacity:0}.st18{letter-spacing:.2em}</style></defs><path class="st8" d="M6.2 24.7v-3.6"/><path class="st3" d="M6.2 15.7c0-1-.8-1.8-1.8-1.8s-1.8.8-1.8 1.8M6.2 15.7c0 1 .8 1.8 1.8 1.8s1.8-.8 1.8-1.8"/><circle class="st3" cx="6.2" cy="15.7" r="5.4"/><path class="st8" d="M6.2 24.7h0"/><path class="st5" d="m1.7 1.2 1.2 3.6M2.9 4.8l1.2-3.6M5.1 3.8h1.7M4.8 4.8 6 1.2M6 1.2l1.2 3.6M10.4 4.4l-.2.2M10.2 4.6l-.5.2M9.7 4.8h-.3M9.4 4.8l-.5-.2M8.9 4.6l-.3-.3M8.5 4.3 8.3 4M8.4 3.9l-.2-.7M8.2 3.2v-.5M8.2 2.7l.2-.7M8.4 2l.2-.3M8.5 1.7l.3-.3M8.9 1.4l.5-.2M9.4 1.2h.3M9.7 1.2l.5.2M10.2 1.4l.2.2"/><path style="fill:#ffffc2" d="M20.6 24.7h108v54h-108z"/><path class="st8" d="M20.6 24.7h108v54h-108z"/><path class="st8" d="M35 35.5h38.9v32.4H35zM20.6 53.5h-7.2"/><path class="st5" d="m25.2 54.8-.2.2M25.1 55l-.5.2M24.6 55.2h-.3M24.2 55.2l-.5-.2M23.7 55l-.3-.3M23.4 54.7l-.2-.3M23.2 54.3l-.2-.7M23 53.6v-.5M23 53.1l.2-.7M23.2 52.4l.2-.3M23.4 52.1l.3-.3M23.7 51.8l.5-.2M24.2 51.6h.3M24.6 51.6l.5.2M25.1 51.8l.2.2M27.5 51.6h.7M28.2 51.6l.3.2M28.5 51.8l.3.3M28.8 52.1l.2.7M29 52.8V54M29 54l-.2.7M28.8 54.7l-.3.3M28.5 55l-.3.2M28.2 55.2h-.7M27.5 55.2l-.3-.2M27.1 55l-.3-.3M26.8 54.7l-.2-.7M26.6 54v-1.2M26.6 52.8l.2-.7M26.8 52.1l.3-.3M27.1 51.8l.3-.2M30.6 55.2v-3.6M30.6 51.6l1.2 2.6M31.8 54.2l1.2-2.6M33 51.6v3.6"/><path class="st8" d="M128.6 60.7h7.2"/><path class="st5" d="M116.1 62.4v-3.6M116.1 58.8h.9M116.9 58.8l.5.2M117.5 59l.3.3M117.8 59.3l.2.3M118 59.6l.2.7M118.1 60.3v.5M118.1 60.8l-.2.7M118 61.5l-.2.3M117.8 61.9l-.3.3M117.5 62.2l-.5.2M116.9 62.4h-.9M121.7 62l-.2.2M121.6 62.2l-.5.2M121.1 62.4h-.3M120.7 62.4l-.5-.2M120.2 62.2l-.3-.3M119.9 61.9l-.2-.3M119.7 61.5l-.2-.7M119.5 60.8v-.5M119.5 60.3l.2-.7M119.7 59.6l.2-.3M119.9 59.3l.3-.3M120.2 59l.5-.2M120.7 58.8h.3M121.1 58.8l.5.2M121.6 59l.2.2M123.3 61h2.7M124.7 62.4v-2.7"/><path class="st8" d="M128.6 53.5h7.2"/><path class="st5" d="M116.1 55.2v-3.6M116.1 51.6h.9M116.9 51.6l.5.2M117.5 51.8l.3.3M117.8 52.1l.2.3M118 52.4l.2.7M118.1 53.1v.5M118.1 53.6l-.2.7M118 54.3l-.2.3M117.8 54.7l-.3.3M117.5 55l-.5.2M116.9 55.2h-.9M121.7 54.8l-.2.2M121.6 55l-.5.2M121.1 55.2h-.3M120.7 55.2l-.5-.2M120.2 55l-.3-.3M119.9 54.7l-.2-.3M119.7 54.3l-.2-.7M119.5 53.6v-.5M119.5 53.1l.2-.7M119.7 52.4l.2-.3M119.9 52.1l.3-.3M120.2 51.8l.5-.2M120.7 51.6h.3M121.1 51.6l.5.2M121.6 51.8l.2.2M123.3 53.8h2.7"/><path class="st8" d="M128.6 46.3h7.2"/><path class="st5" d="M122.3 48v-3.6M124 48v-3.6M124 44.4l2.1 3.6M126 48v-3.6"/><path class="st8" d="M20.6 60.7h-7.2"/><path class="st5" d="M23.2 62.4v-3.6M23.2 58.8l2.1 3.6M25.2 62.4v-3.6M29 62l-.2.2M28.8 62.2l-.5.2M28.3 62.4H28M28 62.4l-.5-.2M27.5 62.2l-.3-.3M27.1 61.9l-.2-.3M27 61.5l-.2-.7M26.8 60.8v-.5M26.8 60.3l.2-.7M27 59.6l.2-.3M27.1 59.3l.3-.3M27.5 59l.5-.2M28 58.8h.3M28.3 58.8l.5.2M28.8 59l.2.2"/><path class="st8" d="M20.6 46.3h-7.2"/><path class="st5" d="M23.2 48v-3.6M23.2 44.4l2.1 3.6M25.2 48v-3.6M27.6 44.4h.7M28.3 44.4l.3.2M28.7 44.6l.3.3M29 44.9l.2.7M29.2 45.6v1.2M29.2 46.8l-.2.7M29 47.5l-.3.3M28.7 47.8l-.3.2M28.3 48h-.7M27.6 48l-.3-.2M27.3 47.8l-.3-.3M27 47.5l-.2-.7M26.8 46.8v-1.2M26.8 45.6l.2-.7M27 44.9l.3-.3M27.3 44.6l.3-.2"/><path class="st8" d="M4.4 84.1H8M5.9 85.9h.7M6.2 82.3v-3.6M9.8 82.3H2.6M6.2 78.7h0"/><path class="st5" d="m3.5 91.4-.3-.2M3.1 91.2h-.5M2.6 91.2l-.5.2M2.1 91.4l-.3.3M1.8 91.7l-.2.3M1.6 92l-.2.7M1.4 92.7v.5M1.4 93.2l.2.7M1.6 93.9l.2.3M1.8 94.3l.3.3M2.1 94.6l.5.2M2.6 94.8h.3M3 94.8l.5-.2M3.5 94.6l.2-.2M3.6 94.4v-1.2M3.6 93.2h-.7M5.2 94.8v-3.6M5.2 91.2l2.1 3.6M7.2 94.8v-3.6M9 94.8v-3.6M9 91.2h.9M9.8 91.2l.5.2M10.3 91.4l.3.3M10.7 91.7l.2.3M10.8 92l.2.7M11 92.7v.5M11 93.2l-.2.7M10.8 93.9l-.2.3M10.7 94.3l-.3.3M10.3 94.6l-.5.2M9.8 94.8h-.9"/><path class="st8" d="M150.2 78.7v3.6h3.6l-3.6 3.6-3.6-3.6h3.6M150.2 78.7h0"/><path class="st5" d="m147.5 91.4-.3-.2M147.1 91.2h-.5M146.6 91.2l-.5.2M146.1 91.4l-.3.3M145.8 91.7l-.2.3M145.6 92l-.2.7M145.4 92.7v.5M145.4 93.2l.2.7M145.6 93.9l.2.3M145.8 94.3l.3.3M146.1 94.6l.5.2M146.6 94.8h.3M147 94.8l.5-.2M147.5 94.6l.2-.2M147.6 94.4v-1.2M147.6 93.2h-.7M149.2 94.8v-3.6M149.2 91.2l2.1 3.6M151.2 94.8v-3.6M153 94.8v-3.6M153 91.2h.9M153.8 91.2l.5.2M154.3 91.4l.3.3M154.7 91.7l.2.3M154.8 92l.2.7M155 92.7v.5M155 93.2l-.2.7M154.8 93.9l-.2.3M154.7 94.3l-.3.3M154.3 94.6l-.5.2M153.8 94.8h-.9"/><path class="st8" d="m140.9 21.1 2.2-3.6M143 24.7v-7.2M143 17.5l2.2 3.6M143 24.7h0"/><path class="st5" d="M138.4 10.6h2.7M139.8 12V9.3M144.6 8.4h-1.7M142.8 8.4l-.2 1.7M142.7 10.1l.2-.2M142.8 9.9l.3-.2M143.2 9.8h.9M144 9.8l.3.2M144.4 9.9l.2.2M144.6 10.1l.2.3M144.7 10.4v.9M144.7 11.3l-.2.3M144.6 11.6l-.2.2M144.4 11.8l-.3.2M144 12h-.9M143.2 12l-.3-.2M142.8 11.8l-.2-.2M145.8 8.4 147 12M147 12l1.2-3.6"/><path class="st7" d="M148.6 41.3h2.1M149.6 44.9v-3.6M152.5 41.3h.7M153.2 41.3l.3.2M153.5 41.5l.3.3M153.9 41.8l.2.7M154 42.5v1.2M154 43.7l-.2.7M153.9 44.4l-.3.3M153.5 44.7l-.3.2M153.2 44.9h-.7M152.5 44.9l-.3-.2M152.2 44.7l-.3-.3M151.8 44.4l-.2-.7M151.6 43.7v-1.2M151.6 42.5l.2-.7M151.8 41.8l.3-.3M152.2 41.5l.3-.2M159.5 43l.5.2M160 43.2l.2.2M160.2 43.3l.2.3M160.4 43.7v.5M160.4 44.2l-.2.3M160.2 44.6l-.2.2M160 44.7l-.3.2M159.7 44.9h-1.4M158.3 44.9v-3.6M158.3 41.3h1.2M159.5 41.3l.3.2M159.9 41.5l.2.2M160 41.6l.2.3M160.2 42v.3M160.2 42.3l-.2.3M160 42.7l-.2.2M159.9 42.8l-.3.2M159.5 43h-1.2M162.6 41.3h.7M163.3 41.3l.3.2M163.6 41.5l.3.3M164 41.8l.2.7M164.2 42.5v1.2M164.2 43.7l-.2.7M164 44.4l-.3.3M163.6 44.7l-.3.2M163.3 44.9h-.7M162.6 44.9l-.3-.2M162.3 44.7l-.3-.3M161.9 44.4l-.2-.7M161.8 43.7v-1.2M161.8 42.5l.2-.7M161.9 41.8l.3-.3M162.3 41.5l.3-.2M165.5 43.9h1.7M165.2 44.9l1.2-3.6M166.4 41.3l1.2 3.6M170.8 44.9l-1.2-1.7M168.8 44.9v-3.6M168.8 41.3h1.4M170.2 41.3l.3.2M170.5 41.5l.2.2M170.7 41.6l.2.3M170.8 42v.5M170.8 42.5l-.2.3M170.7 42.8l-.2.2M170.5 43l-.3.2M170.2 43.2h-1.4M172.4 44.9v-3.6M172.4 41.3h.9M173.2 41.3l.5.2M173.8 41.5l.3.3M174.1 41.8l.2.3M174.3 42.2l.2.7M174.4 42.8v.5M174.4 43.3l-.2.7M174.3 44l-.2.3M174.1 44.4l-.3.3M173.8 44.7l-.5.2M173.2 44.9h-.9"/><path class="st4" d="M13.4 53.5H6.2M6.2 24.7v21.6M13.4 46.3H6.2M6.2 53.5v25.2M135.8 46.3h39.6M150.2 53.5v25.2M135.8 60.7h7.2M135.8 53.5h14.4M143 24.7v36"/><path class="st1" d="m11.7 59 3.5 3.5M15.1 59l-3.5 3.5"/></svg>