<svg id="Layer_1" xmlns="http://www.w3.org/2000/svg" version="1.1" viewBox="0 0 220 89.9"><defs><style>.st0{stroke:#000084}.st0,.st1,.st10,.st11,.st4,.st5,.st7,.st8,.st9{fill:none;stroke-linecap:round;stroke-linejoin:round}.st0,.st1,.st11,.st4,.st5,.st8,.st9{stroke-width:.4px}.st1,.st10{stroke:#a90000}.st10,.st7{font-family:ArialMT,Arial;font-size:4.8px;stroke-width:.4px}.st9{stroke:#0f0f0f}.st11{stroke:#840000}.st12{letter-spacing:.6em}.st13{letter-spacing:.4em}.st15{letter-spacing:.6em}.st4{stroke:#009600}.st16{letter-spacing:.5em}.st17{fill:#ffffc2}.st5,.st7{stroke:#006464}.st8{stroke:#0000c2}.st19{isolation:isolate;opacity:0}.st21,.st22{letter-spacing:.2em}.st23{letter-spacing:.4em}.st24{letter-spacing:.5em}</style></defs><path class="st11" d="M191.4 71.5v3.6h3.6l-3.6 3.6-3.6-3.6h3.6M191.4 71.5h0"/><path class="st5" d="m188.6 84.2-.3-.2M188.3 84h-.5M187.8 84l-.5.2M187.2 84.2l-.3.3M186.9 84.5l-.2.3M186.7 84.8l-.2.7M186.6 85.5v.5M186.6 86l.2.7M186.7 86.7l.2.3M186.9 87.1l.3.3M187.2 87.4l.5.2M187.8 87.6h.3M188.1 87.6l.5-.2M188.6 87.4l.2-.2M188.8 87.2V86M188.8 86h-.7M190.3 87.6V84M190.3 84l2.1 3.6M192.4 87.6V84M194.1 87.6V84M194.1 84h.9M195 84l.5.2M195.5 84.2l.3.3M195.8 84.5l.2.3M196 84.8l.2.7M196.2 85.5v.5M196.2 86l-.2.7M196 86.7l-.2.3M195.8 87.1l-.3.3M195.5 87.4l-.5.2M195 87.6h-.9"/><path class="st11" d="m182 13.9 2.2-3.6M184.2 17.5v-7.2M184.2 10.3l2.2 3.6M184.2 17.5h0"/><path class="st5" d="M179.5 3.4h2.7M180.9 4.8V2.1M185.7 1.2H184M184 1.2l-.2 1.7M183.8 2.9l.2-.2M184 2.7l.3-.2M184.3 2.6h.9M185.2 2.6l.3.2M185.5 2.7l.2.2M185.7 2.9l.2.3M185.9 3.2v.9M185.9 4.1l-.2.3M185.7 4.4l-.2.2M185.5 4.6l-.3.2M185.2 4.8h-.9M184.3 4.8l-.3-.2M184 4.6l-.2-.2M186.9 1.2l1.2 3.6M188.1 4.8l1.2-3.6"/><path class="st17" d="M61.8 17.5h108v54h-108z"/><path class="st11" d="M61.8 17.5h108v54h-108z"/><path class="st11" d="M76.2 28.3h38.9v32.4H76.2zM61.8 46.3h-7.2"/><path class="st5" d="m66.4 47.6-.2.2M66.2 47.8l-.5.2M65.7 48h-.3M65.4 48l-.5-.2M64.9 47.8l-.3-.3M64.5 47.5l-.2-.3M64.3 47.1l-.2-.7M64.2 46.4v-.5M64.2 45.9l.2-.7M64.3 45.2l.2-.3M64.5 44.9l.3-.3M64.9 44.6l.5-.2M65.4 44.4h.3M65.7 44.4l.5.2M66.2 44.6l.2.2M68.6 44.4h.7M69.3 44.4l.3.2M69.7 44.6l.3.3M70 44.9l.2.7M70.2 45.6v1.2M70.2 46.8l-.2.7M70 47.5l-.3.3M69.7 47.8l-.3.2M69.3 48h-.7M68.6 48l-.3-.2M68.3 47.8l-.3-.3M67.9 47.5l-.2-.7M67.8 46.8v-1.2M67.8 45.6l.2-.7M67.9 44.9l.3-.3M68.3 44.6l.3-.2M71.7 48v-3.6M71.7 44.4l1.2 2.6M72.9 47l1.2-2.6M74.1 44.4V48"/><path class="st11" d="M169.8 53.5h7.2"/><path class="st5" d="M157.2 55.2v-3.6M157.2 51.6h.9M158.1 51.6l.5.2M158.6 51.8l.3.3M158.9 52.1l.2.3M159.1 52.4l.2.7M159.3 53.1v.5M159.3 53.6l-.2.7M159.1 54.3l-.2.3M158.9 54.7l-.3.3M158.6 55l-.5.2M158.1 55.2h-.9M162.9 54.8l-.2.2M162.7 55l-.5.2M162.2 55.2h-.3M161.9 55.2l-.5-.2M161.3 55l-.3-.3M161 54.7l-.2-.3M160.8 54.3l-.2-.7M160.7 53.6v-.5M160.7 53.1l.2-.7M160.8 52.4l.2-.3M161 52.1l.3-.3M161.3 51.8l.5-.2M161.9 51.6h.3M162.2 51.6l.5.2M162.7 51.8l.2.2M164.4 53.8h2.7M165.8 55.2v-2.7"/><path class="st11" d="M169.8 46.3h7.2"/><path class="st5" d="M157.2 48v-3.6M157.2 44.4h.9M158.1 44.4l.5.2M158.6 44.6l.3.3M158.9 44.9l.2.3M159.1 45.2l.2.7M159.3 45.9v.5M159.3 46.4l-.2.7M159.1 47.1l-.2.3M158.9 47.5l-.3.3M158.6 47.8l-.5.2M158.1 48h-.9M162.9 47.6l-.2.2M162.7 47.8l-.5.2M162.2 48h-.3M161.9 48l-.5-.2M161.3 47.8l-.3-.3M161 47.5l-.2-.3M160.8 47.1l-.2-.7M160.7 46.4v-.5M160.7 45.9l.2-.7M160.8 45.2l.2-.3M161 44.9l.3-.3M161.3 44.6l.5-.2M161.9 44.4h.3M162.2 44.4l.5.2M162.7 44.6l.2.2M164.4 46.6h2.7"/><path class="st11" d="M169.8 39.1h7.2"/><path class="st5" d="M163.4 40.8v-3.6M165.1 40.8v-3.6M165.1 37.2l2.1 3.6M167.2 40.8v-3.6"/><path class="st11" d="M61.8 53.5h-7.2"/><path class="st5" d="M64.3 55.2v-3.6M64.3 51.6l2.1 3.6M66.4 55.2v-3.6M70.2 54.8l-.2.2M70 55l-.5.2M69.5 55.2h-.3M69.1 55.2l-.5-.2M68.6 55l-.3-.3M68.3 54.7l-.2-.3M68.1 54.3l-.2-.7M67.9 53.6v-.5M67.9 53.1l.2-.7M68.1 52.4l.2-.3M68.3 52.1l.3-.3M68.6 51.8l.5-.2M69.1 51.6h.3M69.5 51.6l.5.2M70 51.8l.2.2"/><path class="st11" d="M61.8 39.1h-7.2"/><path class="st5" d="M64.3 40.8v-3.6M64.3 37.2l2.1 3.6M66.4 40.8v-3.6M68.8 37.2h.7M69.5 37.2l.3.2M69.8 37.4l.3.3M70.2 37.7l.2.7M70.3 38.4v1.2M70.3 39.6l-.2.7M70.2 40.3l-.3.3M69.8 40.6l-.3.2M69.5 40.8h-.7M68.8 40.8l-.3-.2M68.5 40.6l-.3-.3M68.1 40.3l-.2-.7M67.9 39.6v-1.2M67.9 38.4l.2-.7M68.1 37.7l.3-.3M68.5 37.4l.3-.2"/><path class="st11" d="m45.2 13.9 2.2-3.6M47.4 17.5v-7.2M47.4 10.3l2.2 3.6M47.4 17.5h0"/><path class="st5" d="M41 3.4h2.7M42.4 4.8V2.1M45.3 1.5l.2-.2M45.5 1.4l.3-.2M45.8 1.2h.9M46.7 1.2l.3.2M47 1.4l.2.2M47.2 1.5l.2.3M47.4 1.9v.3M47.4 2.2l-.2.5M47.2 2.7l-2.1 2.1M45.1 4.8h2.2M50.4 2.4v2.4M49.6 1l-.9 2.6M48.7 3.6h2.2M51.8 1.2 53 4.8M53 4.8l1.2-3.6"/><path class="st17" d="M11.4 35.5h7.2v14.4h-7.2z"/><path style="stroke:#840000;stroke-width:.7px;fill:none;stroke-linecap:round;stroke-linejoin:round" d="M11.4 35.5h7.2v14.4h-7.2z"/><circle class="st11" cx="15" cy="39.1" r="1.8"/><path class="st11" d="m16.5 40.1-2.4-2.4M16.5 47.3l-2.4-2.4M16 40.6l-2.4-2.4M16 47.8l-2.4-2.4"/><circle class="st11" cx="15" cy="46.3" r="1.8"/><path class="st11" d="M18.6 46.3h10.8"/><path class="st1" d="M25 45.2h-2.1M24 45.2v-3.6M24 41.6l-.3.5M23.6 42.1l-.3.3M23.3 42.4l-.3.2"/><path class="st11" d="M18.6 39.1h10.8"/><path class="st1" d="m22.9 34.7.2-.2M23.1 34.5l.3-.2M23.4 34.4h.9M24.3 34.4l.3.2M24.6 34.5l.2.2M24.8 34.7l.2.3M25 35v.3M25 35.4l-.2.5M24.8 35.9 22.7 38M22.8 38H25"/><path class="st11" d="M40.2 71.5v3.6h3.6l-3.6 3.6-3.6-3.6h3.6M40.2 71.5h0"/><path class="st5" d="m37.4 84.2-.3-.2M37.1 84h-.5M36.6 84l-.5.2M36 84.2l-.3.3M35.7 84.5l-.2.3M35.5 84.8l-.2.7M35.4 85.5v.5M35.4 86l.2.7M35.5 86.7l.2.3M35.7 87.1l.3.3M36 87.4l.5.2M36.6 87.6h.3M36.9 87.6l.5-.2M37.4 87.4l.2-.2M37.6 87.2V86M37.6 86h-.7M39.1 87.6V84M39.1 84l2.1 3.6M41.2 87.6V84M42.9 87.6V84M42.9 84h.9M43.8 84l.5.2M44.3 84.2l.3.3M44.6 84.5l.2.3M44.8 84.8l.2.7M45 85.5v.5M45 86l-.2.7M44.8 86.7l-.2.3M44.6 87.1l-.3.3M44.3 87.4l-.5.2M43.8 87.6h-.9"/><path class="st9" d="M189.7 34.1h2.1M190.7 37.7v-3.6M193.6 34.1h.7M194.3 34.1l.3.2M194.7 34.3l.3.3M195 34.6l.2.7M195.2 35.3v1.2M195.2 36.5l-.2.7M195 37.2l-.3.3M194.7 37.5l-.3.2M194.3 37.7h-.7M193.6 37.7l-.3-.2M193.3 37.5l-.3-.3M193 37.2l-.2-.7M192.8 36.5v-1.2M192.8 35.3l.2-.7M193 34.6l.3-.3M193.3 34.3l.3-.2M200.7 35.8l.5.2M201.2 36l.2.2M201.4 36.2l.2.3M201.5 36.5v.5M201.5 37l-.2.3M201.4 37.4l-.2.2M201.2 37.5l-.3.2M200.8 37.7h-1.4M199.5 37.7v-3.6M199.5 34.1h1.2M200.7 34.1l.3.2M201 34.3l.2.2M201.2 34.4l.2.3M201.4 34.8v.3M201.4 35.1l-.2.3M201.2 35.5l-.2.2M201 35.6l-.3.2M200.7 35.8h-1.2M203.8 34.1h.7M204.4 34.1l.3.2M204.8 34.3l.3.3M205.1 34.6l.2.7M205.3 35.3v1.2M205.3 36.5l-.2.7M205.1 37.2l-.3.3M204.8 37.5l-.3.2M204.4 37.7h-.7M203.8 37.7l-.3-.2M203.4 37.5l-.3-.3M203.1 37.2l-.2-.7M202.9 36.5v-1.2M202.9 35.3l.2-.7M203.1 34.6l.3-.3M203.4 34.3l.3-.2M206.7 36.7h1.7M206.3 37.7l1.2-3.6M207.5 34.1l1.2 3.6M212 37.7l-1.2-1.7M209.9 37.7v-3.6M209.9 34.1h1.4M211.3 34.1l.3.2M211.6 34.3l.2.2M211.8 34.4l.2.3M212 34.8v.5M212 35.3l-.2.3M211.8 35.6l-.2.2M211.6 35.8l-.3.2M211.3 36h-1.4M213.5 37.7v-3.6M213.5 34.1h.9M214.4 34.1l.5.2M214.9 34.3l.3.3M215.2 34.6l.2.3M215.4 35l.2.7M215.6 35.6v.5M215.6 36.2l-.2.7M215.4 36.8l-.2.3M215.2 37.2l-.3.3M214.9 37.5l-.5.2M214.4 37.7h-.9"/><path class="st8" d="M2.5 22.8H.8M.8 22.8v-3.6M4.3 22.8l-.3-.2M3.9 22.6l-.2-.2M3.7 22.5l-.2-.3M3.6 22.1v-1M3.6 21.1l.2-.3M3.7 20.7l.2-.2M3.9 20.6l.3-.2M4.3 20.4h.5M4.8 20.4l.3.2M5.1 20.6l.2.2M5.3 20.7l.2.3M5.5 21.1v1M5.5 22.1l-.2.3M5.3 22.5l-.2.2M5.1 22.6l-.3.2M4.8 22.8h-.5M8.5 22.8v-1.9M8.5 20.9l-.2-.3M8.4 20.6l-.3-.2M8 20.4h-.7M7.3 20.4l-.3.2M8.5 22.6l-.3.2M8.2 22.8h-.9M7.3 22.8l-.3-.2M7 22.6l-.2-.3M6.8 22.3V22M6.8 21.9l.2-.3M7 21.6l.3-.2M7.3 21.4h.9M8.2 21.4l.3-.2M11.8 22.8v-3.6M11.8 22.6l-.3.2M11.5 22.8h-.7M10.8 22.8l-.3-.2M10.4 22.6l-.2-.2M10.3 22.5l-.2-.3M10.1 22.1v-1M10.1 21.1l.2-.3M10.3 20.7l.2-.2M10.4 20.6l.3-.2M10.8 20.4h.7M11.5 20.4l.3.2M.6 24.7h28.8v36H.6z"/><path class="st4" d="M177 39.1h39.6M177 46.3h14.4M184.2 17.5v36M191.4 46.3v25.2M177 53.5h7.2M29.4 39.1h25.2M47.4 46.3V17.5M54.6 46.3h-7.2M29.4 46.3h10.8M40.2 46.3v25.2"/><path class="st0" d="m52.8 51.8 3.5 3.5M56.3 51.8l-3.5 3.5"/><path class="st11" d="M61.8 46.3h-7.2"/><path class="st5" d="m66.4 47.6-.2.2M66.2 47.8l-.5.2M65.7 48h-.3M65.4 48l-.5-.2M64.9 47.8l-.3-.3M64.5 47.5l-.2-.3M64.3 47.1l-.2-.7M64.2 46.4v-.5M64.2 45.9l.2-.7M64.3 45.2l.2-.3M64.5 44.9l.3-.3M64.9 44.6l.5-.2M65.4 44.4h.3M65.7 44.4l.5.2M66.2 44.6l.2.2M68.6 44.4h.7M69.3 44.4l.3.2M69.7 44.6l.3.3M70 44.9l.2.7M70.2 45.6v1.2M70.2 46.8l-.2.7M70 47.5l-.3.3M69.7 47.8l-.3.2M69.3 48h-.7M68.6 48l-.3-.2M68.3 47.8l-.3-.3M67.9 47.5l-.2-.7M67.8 46.8v-1.2M67.8 45.6l.2-.7M67.9 44.9l.3-.3M68.3 44.6l.3-.2M71.7 48v-3.6M71.7 44.4l1.2 2.6M72.9 47l1.2-2.6M74.1 44.4V48"/><path class="st11" d="M169.8 53.5h7.2"/><path class="st5" d="M157.2 55.2v-3.6M157.2 51.6h.9M158.1 51.6l.5.2M158.6 51.8l.3.3M158.9 52.1l.2.3M159.1 52.4l.2.7M159.3 53.1v.5M159.3 53.6l-.2.7M159.1 54.3l-.2.3M158.9 54.7l-.3.3M158.6 55l-.5.2M158.1 55.2h-.9M162.9 54.8l-.2.2M162.7 55l-.5.2M162.2 55.2h-.3M161.9 55.2l-.5-.2M161.3 55l-.3-.3M161 54.7l-.2-.3M160.8 54.3l-.2-.7M160.7 53.6v-.5M160.7 53.1l.2-.7M160.8 52.4l.2-.3M161 52.1l.3-.3M161.3 51.8l.5-.2M161.9 51.6h.3M162.2 51.6l.5.2M162.7 51.8l.2.2M164.4 53.8h2.7M165.8 55.2v-2.7"/><path class="st11" d="M169.8 46.3h7.2"/><path class="st5" d="M157.2 48v-3.6M157.2 44.4h.9M158.1 44.4l.5.2M158.6 44.6l.3.3M158.9 44.9l.2.3M159.1 45.2l.2.7M159.3 45.9v.5M159.3 46.4l-.2.7M159.1 47.1l-.2.3M158.9 47.5l-.3.3M158.6 47.8l-.5.2M158.1 48h-.9M162.9 47.6l-.2.2M162.7 47.8l-.5.2M162.2 48h-.3M161.9 48l-.5-.2M161.3 47.8l-.3-.3M161 47.5l-.2-.3M160.8 47.1l-.2-.7M160.7 46.4v-.5M160.7 45.9l.2-.7M160.8 45.2l.2-.3M161 44.9l.3-.3M161.3 44.6l.5-.2M161.9 44.4h.3M162.2 44.4l.5.2M162.7 44.6l.2.2M164.4 46.6h2.7"/><path class="st11" d="M169.8 39.1h7.2"/><path class="st5" d="M163.4 40.8v-3.6M165.1 40.8v-3.6M165.1 37.2l2.1 3.6M167.2 40.8v-3.6"/><path class="st11" d="M61.8 53.5h-7.2"/><path class="st5" d="M64.3 55.2v-3.6M64.3 51.6l2.1 3.6M66.4 55.2v-3.6M70.2 54.8l-.2.2M70 55l-.5.2M69.5 55.2h-.3M69.1 55.2l-.5-.2M68.6 55l-.3-.3M68.3 54.7l-.2-.3M68.1 54.3l-.2-.7M67.9 53.6v-.5M67.9 53.1l.2-.7M68.1 52.4l.2-.3M68.3 52.1l.3-.3M68.6 51.8l.5-.2M69.1 51.6h.3M69.5 51.6l.5.2M70 51.8l.2.2"/><path class="st11" d="M61.8 39.1h-7.2"/><path class="st5" d="M64.3 40.8v-3.6M64.3 37.2l2.1 3.6M66.4 40.8v-3.6M68.8 37.2h.7M69.5 37.2l.3.2M69.8 37.4l.3.3M70.2 37.7l.2.7M70.3 38.4v1.2M70.3 39.6l-.2.7M70.2 40.3l-.3.3M69.8 40.6l-.3.2M69.5 40.8h-.7M68.8 40.8l-.3-.2M68.5 40.6l-.3-.3M68.1 40.3l-.2-.7M67.9 39.6v-1.2M67.9 38.4l.2-.7M68.1 37.7l.3-.3M68.5 37.4l.3-.2M41 3.4h2.7M42.4 4.8V2.1M45.3 1.5l.2-.2M45.5 1.4l.3-.2M45.8 1.2h.9M46.7 1.2l.3.2M47 1.4l.2.2M47.2 1.5l.2.3M47.4 1.9v.3M47.4 2.2l-.2.5M47.2 2.7l-2.1 2.1M45.1 4.8h2.2M50.4 2.4v2.4M49.6 1l-.9 2.6M48.7 3.6h2.2M51.8 1.2 53 4.8M53 4.8l1.2-3.6"/><path class="st11" d="M47.4 17.5h0"/></svg>