<svg id="Layer_1" xmlns="http://www.w3.org/2000/svg" version="1.1" viewBox="0 0 179.3 89.9">
  <defs>
    <style>
      .st0 {
        stroke: #000084
      }

      .st0,
      .st2,
      .st3,
      .st4,
      .st5,
      .st6 {
        fill: none;
        stroke-linecap: round;
        stroke-linejoin: round
      }

      .st0,
      .st2,
      .st3,
      .st4,
      .st5,
      .st6 {
        stroke-width: .4px
      }

      .st4 {
        font-family: ArialMT, Arial;
        font-size: 4.8px
      }

      .st5 {
        stroke: #0f0f0f
      }

      .st7 {
        letter-spacing: .6em
      }

      .st8 {
        letter-spacing: .4em
      }

      .st10 {
        letter-spacing: .6em
      }

      .st2 {
        stroke: #009600
      }

      .st11 {
        letter-spacing: .5em
      }

      .st3,
      .st4 {
        stroke: #006464
      }

      .st14 {
        isolation: isolate;
        opacity: 0
      }

      .st15,
      .st16 {
        letter-spacing: .2em
      }

      .st17 {
        letter-spacing: .4em
      }

      .st18 {
        letter-spacing: .5em
      }

      .st6 {
        stroke: #840000
      }
    </style>
  </defs>
  <path class="st6" d="M150.7 71.5v3.6h3.6l-3.6 3.6-3.6-3.6h3.6M150.7 71.5h0" />
  <path class="st3"
    d="m148 84.2-.3-.2M147.6 84h-.5M147.1 84l-.5.2M146.6 84.2l-.3.3M146.2 84.5l-.2.3M146.1 84.8l-.2.7M145.9 85.5v.5M145.9 86l.2.7M146.1 86.7l.2.3M146.2 87.1l.3.3M146.6 87.4l.5.2M147.1 87.6h.3M147.4 87.6l.5-.2M148 87.4l.2-.2M148.1 87.2V86M148.1 86h-.7M149.7 87.6V84M149.7 84l2.1 3.6M151.7 87.6V84M153.4 87.6V84M153.4 84h.9M154.3 84l.5.2M154.8 84.2l.3.3M155.2 84.5l.2.3M155.3 84.8l.2.7M155.5 85.5v.5M155.5 86l-.2.7M155.3 86.7l-.2.3M155.2 87.1l-.3.3M154.8 87.4l-.5.2M154.3 87.6h-.9" />
  <path class="st6" d="m141.3 13.9 2.2-3.6M143.5 17.5v-7.2M143.5 10.3l2.2 3.6M143.5 17.5h0" />
  <path class="st3"
    d="M138.9 3.4h2.7M140.2 4.8V2.1M145 1.2h-1.7M143.3 1.2l-.2 1.7M143.2 2.9l.2-.2M143.3 2.7l.3-.2M143.7 2.6h.9M144.5 2.6l.3.2M144.9 2.7l.2.2M145 2.9l.2.3M145.2 3.2v.9M145.2 4.1l-.2.3M145 4.4l-.2.2M144.9 4.6l-.3.2M144.5 4.8h-.9M143.7 4.8l-.3-.2M143.3 4.6l-.2-.2M146.2 1.2l1.2 3.6M147.4 4.8l1.2-3.6" />
  <path class="st6" d="M4.9 76.9h3.6M6.3 78.7H7M6.7 75.1v-3.6M10.3 75.1H3.1M6.7 71.5h0" />
  <path class="st3"
    d="m4 84.2-.3-.2M3.6 84h-.5M3.1 84l-.5.2M2.6 84.2l-.3.3M2.2 84.5l-.2.3M2.1 84.8l-.2.7M1.9 85.5v.5M1.9 86l.2.7M2.1 86.7l.2.3M2.2 87.1l.3.3M2.6 87.4l.5.2M3.1 87.6h.3M3.4 87.6l.5-.2M4 87.4l.2-.2M4.1 87.2V86M4.1 86h-.7M5.7 87.6V84M5.7 84l2.1 3.6M7.7 87.6V84M9.4 87.6V84M9.4 84h.9M10.3 84l.5.2M10.8 84.2l.3.3M11.2 84.5l.2.3M11.3 84.8l.2.7M11.5 85.5v.5M11.5 86l-.2.7M11.3 86.7l-.2.3M11.2 87.1l-.3.3M10.8 87.4l-.5.2M10.3 87.6h-.9" />
  <path style="fill:#ffffc2" d="M21.1 17.5h108v54h-108z" />
  <path class="st6" d="M21.1 17.5h108v54h-108z" />
  <path class="st6" d="M35.5 28.3h38.9v32.4H35.5zM21.1 46.3h-7.2" />
  <path class="st3"
    d="m25.7 47.6-.2.2M25.6 47.8l-.5.2M25 48h-.3M24.7 48l-.5-.2M24.2 47.8l-.3-.3M23.8 47.5l-.2-.3M23.7 47.1l-.2-.7M23.5 46.4v-.5M23.5 45.9l.2-.7M23.7 45.2l.2-.3M23.8 44.9l.3-.3M24.2 44.6l.5-.2M24.7 44.4h.3M25 44.4l.5.2M25.6 44.6l.2.2M28 44.4h.7M28.6 44.4l.3.2M29 44.6l.3.3M29.3 44.9l.2.7M29.5 45.6v1.2M29.5 46.8l-.2.7M29.3 47.5l-.3.3M29 47.8l-.3.2M28.6 48h-.7M28 48l-.3-.2M27.6 47.8l-.3-.3M27.3 47.5l-.2-.7M27.1 46.8v-1.2M27.1 45.6l.2-.7M27.3 44.9l.3-.3M27.6 44.6l.3-.2M31 48v-3.6M31 44.4l1.2 2.6M32.2 47l1.2-2.6M33.4 44.4V48" />
  <path class="st6" d="M129.1 53.5h7.2" />
  <path class="st3"
    d="M116.6 55.2v-3.6M116.6 51.6h.9M117.4 51.6l.5.2M117.9 51.8l.3.3M118.3 52.1l.2.3M118.5 52.4l.2.7M118.6 53.1v.5M118.6 53.6l-.2.7M118.5 54.3l-.2.3M118.3 54.7l-.3.3M117.9 55l-.5.2M117.4 55.2h-.9M122.2 54.8l-.2.2M122.1 55l-.5.2M121.5 55.2h-.3M121.2 55.2l-.5-.2M120.7 55l-.3-.3M120.3 54.7l-.2-.3M120.2 54.3l-.2-.7M120 53.6v-.5M120 53.1l.2-.7M120.2 52.4l.2-.3M120.3 52.1l.3-.3M120.7 51.8l.5-.2M121.2 51.6h.3M121.5 51.6l.5.2M122.1 51.8l.2.2M123.8 53.8h2.7M125.1 55.2v-2.7" />
  <path class="st6" d="M129.1 46.3h7.2" />
  <path class="st3"
    d="M116.6 48v-3.6M116.6 44.4h.9M117.4 44.4l.5.2M117.9 44.6l.3.3M118.3 44.9l.2.3M118.5 45.2l.2.7M118.6 45.9v.5M118.6 46.4l-.2.7M118.5 47.1l-.2.3M118.3 47.5l-.3.3M117.9 47.8l-.5.2M117.4 48h-.9M122.2 47.6l-.2.2M122.1 47.8l-.5.2M121.5 48h-.3M121.2 48l-.5-.2M120.7 47.8l-.3-.3M120.3 47.5l-.2-.3M120.2 47.1l-.2-.7M120 46.4v-.5M120 45.9l.2-.7M120.2 45.2l.2-.3M120.3 44.9l.3-.3M120.7 44.6l.5-.2M121.2 44.4h.3M121.5 44.4l.5.2M122.1 44.6l.2.2M123.8 46.6h2.7" />
  <path class="st6" d="M129.1 39.1h7.2" />
  <path class="st3" d="M122.7 40.8v-3.6M124.5 40.8v-3.6M124.5 37.2l2.1 3.6M126.5 40.8v-3.6" />
  <path class="st6" d="M21.1 53.5h-7.2" />
  <path class="st3"
    d="M23.7 55.2v-3.6M23.7 51.6l2.1 3.6M25.7 55.2v-3.6M29.5 54.8l-.2.2M29.3 55l-.5.2M28.8 55.2h-.3M28.5 55.2 28 55M28 55l-.3-.3M27.6 54.7l-.2-.3M27.4 54.3l-.2-.7M27.3 53.6v-.5M27.3 53.1l.2-.7M27.4 52.4l.2-.3M27.6 52.1l.3-.3M28 51.8l.5-.2M28.5 51.6h.3M28.8 51.6l.5.2M29.3 51.8l.2.2" />
  <path class="st6" d="M21.1 39.1h-7.2" />
  <path class="st3"
    d="M23.7 40.8v-3.6M23.7 37.2l2.1 3.6M25.7 40.8v-3.6M28.1 37.2h.7M28.8 37.2l.3.2M29.2 37.4l.3.3M29.5 37.7l.2.7M29.7 38.4v1.2M29.7 39.6l-.2.7M29.5 40.3l-.3.3M29.2 40.6l-.3.2M28.8 40.8h-.7M28.1 40.8l-.3-.2M27.8 40.6l-.3-.3M27.4 40.3l-.2-.7M27.3 39.6v-1.2M27.3 38.4l.2-.7M27.4 37.7l.3-.3M27.8 37.4l.3-.2" />
  <path class="st6" d="m4.5 13.9 2.2-3.6M6.7 17.5v-7.2M6.7 10.3l2.2 3.6M6.7 17.5h0" />
  <path class="st3"
    d="M.4 3.4h2.7M1.7 4.8V2.1M4.6 1.5l.2-.2M4.8 1.4l.3-.2M5.2 1.2h.9M6 1.2l.3.2M6.4 1.4l.2.2M6.5 1.5l.2.3M6.7 1.9v.3M6.7 2.2l-.2.5M6.5 2.7 4.4 4.8M4.5 4.8h2.2M9.8 2.4v2.4M8.9 1 8 3.6M8.1 3.6h2.2M11.2 1.2l1.2 3.6M12.4 4.8l1.2-3.6" />
  <path class="st5"
    d="M149 34.1h2.1M150.1 37.7v-3.6M153 34.1h.7M153.7 34.1l.3.2M154 34.3l.3.3M154.4 34.6l.2.7M154.5 35.3v1.2M154.5 36.5l-.2.7M154.4 37.2l-.3.3M154 37.5l-.3.2M153.7 37.7h-.7M153 37.7l-.3-.2M152.6 37.5l-.3-.3M152.3 37.2l-.2-.7M152.1 36.5v-1.2M152.1 35.3l.2-.7M152.3 34.6l.3-.3M152.6 34.3l.3-.2M160 35.8l.5.2M160.5 36l.2.2M160.7 36.2l.2.3M160.9 36.5v.5M160.9 37l-.2.3M160.7 37.4l-.2.2M160.5 37.5l-.3.2M160.2 37.7h-1.4M158.8 37.7v-3.6M158.8 34.1h1.2M160 34.1l.3.2M160.4 34.3l.2.2M160.5 34.4l.2.3M160.7 34.8v.3M160.7 35.1l-.2.3M160.5 35.5l-.2.2M160.4 35.6l-.3.2M160 35.8h-1.2M163.1 34.1h.7M163.8 34.1l.3.2M164.1 34.3l.3.3M164.5 34.6l.2.7M164.6 35.3v1.2M164.6 36.5l-.2.7M164.5 37.2l-.3.3M164.1 37.5l-.3.2M163.8 37.7h-.7M163.1 37.7l-.3-.2M162.8 37.5l-.3-.3M162.4 37.2l-.2-.7M162.2 36.5v-1.2M162.2 35.3l.2-.7M162.4 34.6l.3-.3M162.8 34.3l.3-.2M166 36.7h1.7M165.7 37.7l1.2-3.6M166.9 34.1l1.2 3.6M171.3 37.7l-1.2-1.7M169.3 37.7v-3.6M169.3 34.1h1.4M170.6 34.1l.3.2M171 34.3l.2.2M171.2 34.4l.2.3M171.3 34.8v.5M171.3 35.3l-.2.3M171.2 35.6l-.2.2M171 35.8l-.3.2M170.6 36h-1.4M172.9 37.7v-3.6M172.9 34.1h.9M173.7 34.1l.5.2M174.2 34.3l.3.3M174.6 34.6l.2.3M174.8 35l.2.7M174.9 35.6v.5M174.9 36.2l-.2.7M174.8 36.8l-.2.3M174.6 37.2l-.3.3M174.2 37.5l-.5.2M173.7 37.7h-.9" />
  <path class="st2"
    d="M136.3 39.1h39.6M150.7 46.3v25.2M136.3 53.5h7.2M136.3 46.3h14.4M143.5 17.5v36M6.7 46.3v25.2M13.9 46.3H6.7M6.7 17.5v21.6M13.9 39.1H6.7" />
  <path class="st0" d="m12.2 51.8 3.5 3.5M15.6 51.8l-3.5 3.5" />
  <path class="st6" d="M21.1 46.3h-7.2" />
  <path class="st3"
    d="m25.7 47.6-.2.2M25.6 47.8l-.5.2M25 48h-.3M24.7 48l-.5-.2M24.2 47.8l-.3-.3M23.8 47.5l-.2-.3M23.7 47.1l-.2-.7M23.5 46.4v-.5M23.5 45.9l.2-.7M23.7 45.2l.2-.3M23.8 44.9l.3-.3M24.2 44.6l.5-.2M24.7 44.4h.3M25 44.4l.5.2M25.6 44.6l.2.2M28 44.4h.7M28.6 44.4l.3.2M29 44.6l.3.3M29.3 44.9l.2.7M29.5 45.6v1.2M29.5 46.8l-.2.7M29.3 47.5l-.3.3M29 47.8l-.3.2M28.6 48h-.7M28 48l-.3-.2M27.6 47.8l-.3-.3M27.3 47.5l-.2-.7M27.1 46.8v-1.2M27.1 45.6l.2-.7M27.3 44.9l.3-.3M27.6 44.6l.3-.2M31 48v-3.6M31 44.4l1.2 2.6M32.2 47l1.2-2.6M33.4 44.4V48" />
  <path class="st6" d="M129.1 53.5h7.2" />
  <path class="st3"
    d="M116.6 55.2v-3.6M116.6 51.6h.9M117.4 51.6l.5.2M117.9 51.8l.3.3M118.3 52.1l.2.3M118.5 52.4l.2.7M118.6 53.1v.5M118.6 53.6l-.2.7M118.5 54.3l-.2.3M118.3 54.7l-.3.3M117.9 55l-.5.2M117.4 55.2h-.9M122.2 54.8l-.2.2M122.1 55l-.5.2M121.5 55.2h-.3M121.2 55.2l-.5-.2M120.7 55l-.3-.3M120.3 54.7l-.2-.3M120.2 54.3l-.2-.7M120 53.6v-.5M120 53.1l.2-.7M120.2 52.4l.2-.3M120.3 52.1l.3-.3M120.7 51.8l.5-.2M121.2 51.6h.3M121.5 51.6l.5.2M122.1 51.8l.2.2M123.8 53.8h2.7M125.1 55.2v-2.7" />
  <path class="st6" d="M129.1 46.3h7.2" />
  <path class="st3"
    d="M116.6 48v-3.6M116.6 44.4h.9M117.4 44.4l.5.2M117.9 44.6l.3.3M118.3 44.9l.2.3M118.5 45.2l.2.7M118.6 45.9v.5M118.6 46.4l-.2.7M118.5 47.1l-.2.3M118.3 47.5l-.3.3M117.9 47.8l-.5.2M117.4 48h-.9M122.2 47.6l-.2.2M122.1 47.8l-.5.2M121.5 48h-.3M121.2 48l-.5-.2M120.7 47.8l-.3-.3M120.3 47.5l-.2-.3M120.2 47.1l-.2-.7M120 46.4v-.5M120 45.9l.2-.7M120.2 45.2l.2-.3M120.3 44.9l.3-.3M120.7 44.6l.5-.2M121.2 44.4h.3M121.5 44.4l.5.2M122.1 44.6l.2.2M123.8 46.6h2.7" />
  <path class="st6" d="M129.1 39.1h7.2" />
  <path class="st3" d="M122.7 40.8v-3.6M124.5 40.8v-3.6M124.5 37.2l2.1 3.6M126.5 40.8v-3.6" />
  <path class="st6" d="M21.1 53.5h-7.2" />
  <path class="st3"
    d="M23.7 55.2v-3.6M23.7 51.6l2.1 3.6M25.7 55.2v-3.6M29.5 54.8l-.2.2M29.3 55l-.5.2M28.8 55.2h-.3M28.5 55.2 28 55M28 55l-.3-.3M27.6 54.7l-.2-.3M27.4 54.3l-.2-.7M27.3 53.6v-.5M27.3 53.1l.2-.7M27.4 52.4l.2-.3M27.6 52.1l.3-.3M28 51.8l.5-.2M28.5 51.6h.3M28.8 51.6l.5.2M29.3 51.8l.2.2" />
  <path class="st6" d="M21.1 39.1h-7.2" />
  <path class="st3"
    d="M23.7 40.8v-3.6M23.7 37.2l2.1 3.6M25.7 40.8v-3.6M28.1 37.2h.7M28.8 37.2l.3.2M29.2 37.4l.3.3M29.5 37.7l.2.7M29.7 38.4v1.2M29.7 39.6l-.2.7M29.5 40.3l-.3.3M29.2 40.6l-.3.2M28.8 40.8h-.7M28.1 40.8l-.3-.2M27.8 40.6l-.3-.3M27.4 40.3l-.2-.7M27.3 39.6v-1.2M27.3 38.4l.2-.7M27.4 37.7l.3-.3M27.8 37.4l.3-.2M.4 3.4h2.7M1.7 4.8V2.1M4.6 1.5l.2-.2M4.8 1.4l.3-.2M5.2 1.2h.9M6 1.2l.3.2M6.4 1.4l.2.2M6.5 1.5l.2.3M6.7 1.9v.3M6.7 2.2l-.2.5M6.5 2.7 4.4 4.8M4.5 4.8h2.2M9.8 2.4v2.4M8.9 1 8 3.6M8.1 3.6h2.2M11.2 1.2l1.2 3.6M12.4 4.8l1.2-3.6" />
  <path class="st6" d="M6.7 17.5h0" />
</svg>