<svg id="Layer_1" xmlns="http://www.w3.org/2000/svg" version="1.1" viewBox="0 0 185.9 115.1">
  <defs>
    <style>
      .st0 {
        letter-spacing: 1.6em
      }

      .st10,
      .st11,
      .st12,
      .st2,
      .st3,
      .st4,
      .st5,
      .st6,
      .st7,
      .st8,
      .st9 {
        fill: none;
        stroke-linecap: round;
        stroke-linejoin: round
      }

      .st10,
      .st12,
      .st2,
      .st5,
      .st6,
      .st9 {
        stroke-width: .4px
      }

      .st11,
      .st2 {
        stroke: #a90000
      }

      .st11,
      .st3,
      .st7,
      .st8 {
        font-family: ArialMT, Arial;
        font-size: 4.8px;
        stroke-width: .4px
      }

      .st10,
      .st3 {
        stroke: #0f0f0f
      }

      .st4 {
        stroke-width: .7px
      }

      .st12,
      .st4 {
        stroke: #840000
      }

      .st5 {
        stroke: #009600
      }

      .st13 {
        fill: #ffffc2
      }

      .st16 {
        letter-spacing: .2em
      }

      .st17 {
        letter-spacing: .8em
      }

      .st6,
      .st8 {
        stroke: #006464
      }

      .st7,
      .st9 {
        stroke: #0000c2
      }

      .st18 {
        isolation: isolate;
        opacity: 0
      }

      .st19 {
        letter-spacing: .3em
      }

      .st20 {
        letter-spacing: 1.3em
      }

      .st21 {
        letter-spacing: .2em
      }
    </style>
  </defs>
  <path class="st12" d="m167.4 13.9 2.2-3.6M169.6 17.5v-7.2M169.6 10.3l2.2 3.6M169.6 17.5h0" />
  <path class="st6"
    d="M164.9 3.4h2.7M166.3 4.8V2.1M171.1 1.2h-1.7M169.4 1.2l-.2 1.7M169.2 2.9l.2-.2M169.4 2.7l.3-.2M169.7 2.6h.9M170.6 2.6l.3.2M170.9 2.7l.2.2M171.1 2.9l.2.3M171.3 3.2v.9M171.3 4.1l-.2.3M171.1 4.4l-.2.2M170.9 4.6l-.3.2M170.6 4.8h-.9M169.7 4.8l-.3-.2M169.4 4.6l-.2-.2M172.3 1.2l1.2 3.6M173.5 4.8l1.2-3.6" />
  <path class="st12" d="M166 60.7v3.6h3.6l-3.6 3.6-3.6-3.6h3.6M166 60.7h0" />
  <path class="st6"
    d="m163.2 73.4-.3-.2M162.9 73.2h-.5M162.4 73.2l-.5.2M161.8 73.4l-.3.3M161.5 73.7l-.2.3M161.3 74l-.2.7M161.2 74.7v.5M161.2 75.2l.2.7M161.3 75.9l.2.3M161.5 76.3l.3.3M161.8 76.6l.5.2M162.4 76.8h.3M162.7 76.8l.5-.2M163.2 76.6l.2-.2M163.4 76.4v-1.2M163.4 75.2h-.7M164.9 76.8v-3.6M164.9 73.2l2.1 3.6M167 76.8v-3.6M168.7 76.8v-3.6M168.7 73.2h.9M169.6 73.2l.5.2M170.1 73.4l.3.3M170.4 73.7l.2.3M170.6 74l.2.7M170.8 74.7v.5M170.8 75.2l-.2.7M170.6 75.9l-.2.3M170.4 76.3l-.3.3M170.1 76.6l-.5.2M169.6 76.8h-.9" />
  <path class="st13" d="M.4 21.1h154.8v93.6H.4z" />
  <path class="st13" d="M65.2 28.3h79.2v28.8H65.2z" />
  <path class="st4" d="M.4 21.1h154.8v93.6H.4z" />
  <path class="st4" d="M65.2 28.3h79.2v28.8H65.2z" />
  <path class="st12" d="M144.4 31.9h7.2" />
  <path class="st6"
    d="m134.4 30.2-.3-.2M134.1 30h-.5M133.6 30l-.5.2M133 30.2l-.3.3M132.7 30.5l-.2.3M132.5 30.8l-.2.7M132.4 31.5v.5M132.4 32l.2.7M132.5 32.7l.2.3M132.7 33.1l.3.3M133 33.4l.5.2M133.6 33.6h.3M133.9 33.6l.5-.2M134.4 33.4l.2-.2M134.6 33.2V32M134.6 32h-.7M136.1 33.6V30M136.1 30l2.1 3.6M138.2 33.6V30M139.9 33.6V30M139.9 30h.9M140.8 30l.5.2M141.3 30.2l.3.3M141.6 30.5l.2.3M141.8 30.8l.2.7M141.9 31.5v.5M141.9 32l-.2.7M141.8 32.7l-.2.3M141.6 33.1l-.3.3M141.3 33.4l-.5.2M140.8 33.6h-.9" />
  <path class="st2" d="M149 30.8h-2.1M148 30.8v-3.6M148 27.2l-.3.5M147.6 27.7l-.3.3M147.3 28l-.3.2" />
  <path class="st12" d="M144.4 39.1h7.2" />
  <path class="st6"
    d="m132.7 37.2 1.2 3.6M133.9 40.8l1.2-3.6M138.3 40.4l-.2.2M138.2 40.6l-.5.2M137.7 40.8h-.3M137.3 40.8l-.5-.2M136.8 40.6l-.3-.3M136.5 40.3l-.2-.3M136.3 39.9l-.2-.7M136.1 39.2v-.5M136.1 38.7l.2-.7M136.3 38l.2-.3M136.5 37.7l.3-.3M136.8 37.4l.5-.2M137.3 37.2h.3M137.7 37.2l.5.2M138.2 37.4l.2.2M141.9 40.4l-.2.2M141.8 40.6l-.5.2M141.3 40.8h-.3M140.9 40.8l-.5-.2M140.4 40.6l-.3-.3M140.1 40.3l-.2-.3M139.9 39.9l-.2-.7M139.7 39.2v-.5M139.7 38.7l.2-.7M139.9 38l.2-.3M140.1 37.7l.3-.3M140.4 37.4l.5-.2M140.9 37.2h.3M141.3 37.2l.5.2M141.8 37.4l.2.2" />
  <path class="st2"
    d="m146.9 34.7.2-.2M147.1 34.5l.3-.2M147.4 34.4h.9M148.3 34.4l.3.2M148.6 34.5l.2.2M148.8 34.7l.2.3M149 35v.3M149 35.4l-.2.5M148.8 35.9l-2.1 2.1M146.8 38h2.2" />
  <path class="st12" d="M144.4 53.5h7.2" />
  <path class="st6"
    d="m133.4 55 .5.2M133.9 55.2h.9M134.8 55.2l.3-.2M135.1 55l.2-.2M135.3 54.8l.2-.3M135.4 54.5v-.3M135.4 54.2l-.2-.3M135.3 53.8l-.2-.2M135.1 53.6l-.3-.2M134.8 53.5l-.7-.2M134.1 53.3l-.3-.2M133.7 53.1l-.2-.2M133.6 53l-.2-.3M133.4 52.6v-.3M133.4 52.3l.2-.3M133.6 51.9l.2-.2M133.7 51.8l.3-.2M134.1 51.6h.9M134.9 51.6l.5.2M139 54.8l-.2.2M138.9 55l-.5.2M138.3 55.2h-.3M138 55.2l-.5-.2M137.5 55l-.3-.3M137.2 54.7l-.2-.3M137 54.3l-.2-.7M136.8 53.6v-.5M136.8 53.1l.2-.7M137 52.4l.2-.3M137.2 52.1l.3-.3M137.5 51.8l.5-.2M138 51.6h.3M138.3 51.6l.5.2M138.9 51.8l.2.2M142.3 55.2h-1.7M140.6 55.2v-3.6" />
  <path class="st2" d="M148.6 50v2.4M147.8 48.6l-.9 2.6M146.9 51.2h2.2" />
  <path class="st12" d="M144.4 46.3h7.2" />
  <path class="st6"
    d="m133.2 47.8.5.2M133.7 48h.9M134.6 48l.3-.2M134.9 47.8l.2-.2M135.1 47.6l.2-.3M135.3 47.3V47M135.3 47l-.2-.3M135.1 46.6l-.2-.2M134.9 46.4l-.3-.2M134.6 46.3l-.7-.2M133.9 46.1l-.3-.2M133.6 45.9l-.2-.2M133.4 45.8l-.2-.3M133.2 45.4v-.3M133.2 45.1l.2-.3M133.4 44.7l.2-.2M133.6 44.6l.3-.2M133.9 44.4h.9M134.7 44.4l.5.2M136.8 48v-3.6M136.8 44.4h.9M137.7 44.4l.5.2M138.2 44.6l.3.3M138.5 44.9l.2.3M138.7 45.2l.2.7M138.9 45.9v.5M138.9 46.4l-.2.7M138.7 47.1l-.2.3M138.5 47.5l-.3.3M138.2 47.8l-.5.2M137.7 48h-.9M140.2 47h1.7M139.9 48l1.2-3.6M141.1 44.4l1.2 3.6" />
  <path class="st2"
    d="M146.8 41.6h2.2M149 41.6l-1.2 1.4M147.8 42.9h.5M148.3 42.9l.3.2M148.6 43.1l.2.2M148.8 43.3l.2.3M149 43.6v.9M149 44.5l-.2.3M148.8 44.8l-.2.2M148.6 45l-.3.2M148.3 45.2h-1M147.3 45.2l-.3-.2M146.9 45l-.2-.2" />
  <path class="st10"
    d="m174.4 51.9.5.2M174.9 52.1h.9M175.8 52.1l.3-.2M176.1 51.9l.2-.2M176.3 51.8l.2-.3M176.5 51.4v-.3M176.5 51.1l-.2-.3M176.3 50.7l-.2-.2M176.1 50.6l-.3-.2M175.8 50.4l-.7-.2M175.1 50.2l-.3-.2M174.8 50l-.2-.2M174.6 49.9l-.2-.3M174.4 49.5v-.3M174.4 49.2l.2-.3M174.6 48.8l.2-.2M174.8 48.7l.3-.2M175.1 48.5h.9M176 48.5l.5.2M180.1 51.8l-.2.2M179.9 51.9l-.5.2M179.4 52.1h-.3M179 52.1l-.5-.2M178.5 51.9l-.3-.3M178.2 51.6l-.2-.3M178 51.2l-.2-.7M177.8 50.6v-.5M177.8 50l.2-.7M178 49.4l.2-.3M178.2 49l.3-.3M178.5 48.7l.5-.2M179 48.5h.3M179.4 48.5l.5.2M179.9 48.7l.2.2M183.3 52.1h-1.7M181.6 52.1v-3.6M174.2 44.7l.5.2M174.8 44.9h.9M175.6 44.9l.3-.2M176 44.7l.2-.2M176.1 44.6l.2-.3M176.3 44.2v-.3M176.3 43.9l-.2-.3M176.1 43.5l-.2-.2M176 43.4l-.3-.2M175.6 43.2l-.7-.2M174.9 43l-.3-.2M174.6 42.8l-.2-.2M174.4 42.7l-.2-.3M174.2 42.3V42M174.2 42l.2-.3M174.4 41.6l.2-.2M174.6 41.5l.3-.2M174.9 41.3h.9M175.8 41.3l.5.2M177.8 44.9v-3.6M177.8 41.3h.9M178.7 41.3l.5.2M179.2 41.5l.3.3M179.6 41.8l.2.3M179.7 42.2l.2.7M179.9 42.8v.5M179.9 43.4l-.2.7M179.7 44l-.2.3M179.6 44.4l-.3.3M179.2 44.7l-.5.2M178.7 44.9h-.9M181.3 43.9h1.7M180.9 44.9l1.2-3.6M182.1 41.3l1.2 3.6" />
  <path class="st9"
    d="m58.1 107.3.5.2M58.6 107.5l.2.2M58.8 107.7l.2.3M59 108v.5M59 108.5l-.2.3M58.8 108.9l-.2.2M58.6 109l-.3.2M58.3 109.2h-1.4M56.9 109.2v-3.6M56.9 105.6h1.2M58.1 105.6l.3.2M58.5 105.8l.2.2M58.6 105.9l.2.3M58.8 106.3v.3M58.8 106.6l-.2.3M58.6 107l-.2.2M58.5 107.1l-.3.2M58.1 107.3h-1.2M62.1 109.2v-1.9M62.1 107.3l-.2-.3M61.9 107l-.3-.2M61.5 106.8h-.7M60.9 106.8l-.3.2M62.1 109l-.3.2M61.7 109.2h-.9M60.9 109.2l-.3-.2M60.5 109l-.2-.3M60.3 108.7v-.3M60.3 108.3l.2-.3M60.5 108l.3-.2M60.9 107.8h.9M61.7 107.8l.3-.2M65.3 109l-.3.2M65 109.2h-.7M64.3 109.2l-.3-.2M63.9 109l-.2-.2M63.8 108.9l-.2-.3M63.6 108.5v-1M63.6 107.5l.2-.3M63.8 107.1l.2-.2M63.9 107l.3-.2M64.3 106.8h.7M65 106.8l.3.2M66.9 109.2v-3.6M67.2 107.8l1 1.4M68.2 106.8l-1.4 1.4M73 109.2l-.3-.2M72.7 109l-.2-.2M72.5 108.9l-.2-.3M72.3 108.5v-1M72.3 107.5l.2-.3M72.5 107.1l.2-.2M72.7 107l.3-.2M73 106.8h.5M73.5 106.8l.3.2M73.9 107l.2.2M74.1 107.1l.2.3M74.2 107.5v1M74.2 108.5l-.2.3M74.1 108.9l-.2.2M73.9 109l-.3.2M73.5 109.2H73M75.3 106.8h1.4M75.8 109.2v-3.1M75.8 106.1l.2-.3M75.9 105.8l.3-.2M76.3 105.6h.3M82.1 109.2v-3.6M82.1 109l-.3.2M81.8 109.2h-.7M81.1 109.2l-.3-.2M80.7 109l-.2-.2M80.6 108.9l-.2-.3M80.4 108.5v-1M80.4 107.5l.2-.3M80.6 107.1l.2-.2M80.7 107l.3-.2M81.1 106.8h.7M81.8 106.8l.3.2M83.8 109.2v-2.4M83.8 105.6l-.2.2M83.7 105.8l.2.2M83.8 105.9l.2-.2M84 105.8l-.2-.2M83.8 105.6v.3M85.4 109l.3.2M85.7 109.2h.7M86.4 109.2l.3-.2M86.7 109l.2-.3M86.9 108.7v-.2M86.9 108.5l-.2-.3M86.7 108.2l-.3-.2M86.4 108h-.5M85.9 108l-.3-.2M85.5 107.8l-.2-.3M85.4 107.5v-.2M85.4 107.3l.2-.3M85.5 107l.3-.2M85.9 106.8h.5M86.4 106.8l.3.2M88.5 106.8v3.6M88.5 107l.3-.2M88.8 106.8h.7M89.5 106.8l.3.2M89.8 107l.2.2M90 107.1l.2.3M90.2 107.5v1M90.2 108.5l-.2.3M90 108.9l-.2.2M89.8 109l-.3.2M89.5 109.2h-.7M88.8 109.2l-.3-.2M92.2 109.2l-.3-.2M91.9 109l-.2-.3M91.7 108.7v-3.1M95.1 109.2v-1.9M95.1 107.3l-.2-.3M95 107l-.3-.2M94.6 106.8h-.7M93.9 106.8l-.3.2M95.1 109l-.3.2M94.8 109.2h-.9M93.9 109.2l-.3-.2M93.6 109l-.2-.3M93.4 108.7v-.3M93.4 108.3l.2-.3M93.6 108l.3-.2M93.9 107.8h.9M94.8 107.8l.3-.2M96.5 106.8l.9 2.4M98.2 106.8l-.9 2.4M97.4 109.2l-.3.9M97 110.1l-.2.2M96.9 110.2l-.3.2M96.3 12V8.4M96.3 8.4h.9M97.1 8.4l.5.2M97.7 8.6l.3.3M98 8.9l.2.3M98.2 9.2l.2.7M98.3 9.9v.5M98.3 10.4l-.2.7M98.2 11.1l-.2.3M98 11.5l-.3.3M97.7 11.8l-.5.2M97.1 12h-.9M101.3 11.8l-.3.2M100.9 12h-.7M100.2 12l-.3-.2M99.9 11.8l-.2-.3M99.7 11.5v-1.4M99.7 10.1l.2-.3M99.9 9.8l.3-.2M100.2 9.6h.7M100.9 9.6l.3.2M101.3 9.8l.2.3M101.4 10.1v.3M101.4 10.4l-1.7.3M104.5 12V8.4M104.5 11.8l-.3.2M104.2 12h-.7M103.5 12l-.3-.2M103.1 11.8l-.2-.2M103 11.6l-.2-.3M102.8 11.3v-1M102.8 10.3l.2-.3M103 9.9l.2-.2M103.1 9.8l.3-.2M103.5 9.6h.7M104.2 9.6l.3.2M106.2 12V9.6M106.2 8.4l-.2.2M106.1 8.6l.2.2M106.2 8.7l.2-.2M106.4 8.6l-.2-.2M106.2 8.4v.3M109.5 11.8l-.3.2M109.1 12h-.7M108.5 12l-.3-.2M108.1 11.8l-.2-.2M107.9 11.6l-.2-.3M107.8 11.3v-1M107.8 10.3l.2-.3M107.9 9.9l.2-.2M108.1 9.8l.3-.2M108.5 9.6h.7M109.1 9.6l.3.2M112.6 12v-1.9M112.6 10.1l-.2-.3M112.4 9.8l-.3-.2M112.1 9.6h-.7M111.4 9.6l-.3.2M112.6 11.8l-.3.2M112.2 12h-.9M111.4 12l-.3-.2M111 11.8l-.2-.3M110.9 11.5v-.3M110.9 11.1l.2-.3M111 10.8l.3-.2M111.4 10.6h.9M112.2 10.6l.3-.2M113.8 9.6h1.4M114.3 8.4v3.1M114.3 11.5l.2.3M114.5 11.8l.3.2M114.8 12h.3M117.7 11.8l-.3.2M117.4 12h-.7M116.7 12l-.3-.2M116.3 11.8l-.2-.3M116.2 11.5v-1.4M116.2 10.1l.2-.3M116.3 9.8l.3-.2M116.7 9.6h.7M117.4 9.6l.3.2M117.7 9.8l.2.3M117.9 10.1v.3M117.9 10.4l-1.7.3M121 12V8.4M121 11.8l-.3.2M120.6 12h-.7M119.9 12l-.3-.2M119.6 11.8l-.2-.2M119.4 11.6l-.2-.3M119.3 11.3v-1M119.3 10.3l.2-.3M119.4 9.9l.2-.2M119.6 9.8l.3-.2M119.9 9.6h.7M120.6 9.6l.3.2M125.4 10.6h2.7M126.8 12V9.3M131.6 8.4h-1.7M129.9 8.4l-.2 1.7M129.7 10.1l.2-.2M129.9 9.9l.3-.2M130.2 9.8h.9M131.1 9.8l.3.2M131.4 9.9l.2.2M131.6 10.1l.2.3M131.8 10.4v.9M131.8 11.3l-.2.3M131.6 11.6l-.2.2M131.4 11.8l-.3.2M131.1 12h-.9M130.2 12l-.3-.2M129.9 11.8l-.2-.2M132.8 8.4 134 12M134 12l1.2-3.6M139.1 9.6v3.6M139.1 9.8l.3-.2M139.5 9.6h.7M140.2 9.6l.3.2M140.5 9.8l.2.2M140.7 9.9l.2.3M140.9 10.3v1M140.9 11.3l-.2.3M140.7 11.6l-.2.2M140.5 11.8l-.3.2M140.2 12h-.7M139.5 12l-.3-.2M142.9 12l-.3-.2M142.6 11.8l-.2-.2M142.4 11.6l-.2-.3M142.2 11.3v-1M142.2 10.3l.2-.3M142.4 9.9l.2-.2M142.6 9.8l.3-.2M142.9 9.6h.5M143.4 9.6l.3.2M143.8 9.8l.2.2M143.9 9.9l.2.3M144.1 10.3v1M144.1 11.3l-.2.3M143.9 11.6l-.2.2M143.8 11.8l-.3.2M143.4 12h-.5M145.3 9.6l.7 2.4M146 12l.7-1.7M146.7 10.3l.7 1.7M147.4 12l.7-2.4M150.8 11.8l-.3.2M150.5 12h-.7M149.8 12l-.3-.2M149.4 11.8l-.2-.3M149.3 11.5v-1.4M149.3 10.1l.2-.3M149.4 9.8l.3-.2M149.8 9.6h.7M150.5 9.6l.3.2M150.8 9.8l.2.3M151 10.1v.3M151 10.4l-1.7.3M152.5 12V9.6M152.5 10.3l.2-.3M152.7 9.9l.2-.2M152.9 9.8l.3-.2M153.2 9.6h.3M154.9 11.8v.2M154.9 12l-.2.3M154.7 12.3l-.2.2M62 15.4v2.4M62 15.7l.2-.2M62.2 15.5l.3-.2M62.5 15.4h.5M63 15.4l.3.2M63.4 15.5l.2.3M63.5 15.9v1.9M65.8 17.8l-.3-.2M65.4 17.6l-.2-.2M65.3 17.4l-.2-.3M65.1 17.1v-1M65.1 16.1l.2-.3M65.3 15.7l.2-.2M65.4 15.5l.3-.2M65.8 15.4h.5M66.3 15.4l.3.2M66.6 15.5l.2.2M66.8 15.7l.2.3M67 16.1v1M67 17.1l-.2.3M66.8 17.4l-.2.2M66.6 17.6l-.3.2M66.3 17.8h-.5M68 15.4h1.4M68.5 14.2v3.1M68.5 17.3l.2.3M68.7 17.6l.3.2M69 17.8h.3M72.8 15.4h1.4M73.3 17.8v-3.1M73.3 14.7l.2-.3M73.5 14.3l.3-.2M73.8 14.2h.3M75.4 17.8v-2.4M75.4 16.1l.2-.3M75.5 15.7l.2-.2M75.7 15.5l.3-.2M76.1 15.4h.3M78.1 17.8l-.3-.2M77.8 17.6l-.2-.2M77.6 17.4l-.2-.3M77.4 17.1v-1M77.4 16.1l.2-.3M77.6 15.7l.2-.2M77.8 15.5l.3-.2M78.1 15.4h.5M78.6 15.4l.3.2M79 15.5l.2.2M79.1 15.7l.2.3M79.3 16.1v1M79.3 17.1l-.2.3M79.1 17.4l-.2.2M79 17.6l-.3.2M78.6 17.8h-.5M80.9 17.8v-2.4M80.9 15.7l.2-.2M81 15.5l.3-.2M81.4 15.4h.5M81.9 15.4l.3.2M82.2 15.5l.2.3M82.4 15.9v1.9M82.4 15.9l.2-.3M82.6 15.5l.3-.2M82.9 15.4h.5M83.4 15.4l.3.2M83.8 15.5l.2.3M83.9 15.9v1.9M89.9 17.8v-1.9M89.9 15.9l-.2-.3M89.8 15.5l-.3-.2M89.4 15.4h-.7M88.7 15.4l-.3.2M89.9 17.6l-.3.2M89.6 17.8h-.9M88.7 17.8l-.3-.2M88.4 17.6l-.2-.3M88.2 17.3V17M88.2 16.9l.2-.3M88.4 16.6l.3-.2M88.7 16.4h.9M89.6 16.4l.3-.2M94.4 16.4h2.7M95.8 17.8v-2.7M100.6 14.2h-1.7M98.9 14.2l-.2 1.7M98.7 15.9l.2-.2M98.9 15.7l.3-.2M99.2 15.5h.9M100.1 15.5l.3.2M100.4 15.7l.2.2M100.6 15.9l.2.3M100.7 16.2v.9M100.7 17.1l-.2.3M100.6 17.4l-.2.2M100.4 17.6l-.3.2M100.1 17.8h-.9M99.2 17.8l-.3-.2M98.9 17.6l-.2-.2M101.8 14.2l1.2 3.6M103 17.8l1.2-3.6M108.1 15.4V19M108.1 15.5l.3-.2M108.5 15.4h.7M109.1 15.4l.3.2M109.5 15.5l.2.2M109.7 15.7l.2.3M109.8 16.1v1M109.8 17.1l-.2.3M109.7 17.4l-.2.2M109.5 17.6l-.3.2M109.1 17.8h-.7M108.5 17.8l-.3-.2M111.4 17.8v-2.4M111.4 14.2l-.2.2M111.2 14.3l.2.2M111.4 14.5l.2-.2M111.5 14.3l-.2-.2M111.4 14.2v.3M113.1 15.4v2.4M113.1 15.7l.2-.2M113.3 15.5l.3-.2M113.6 15.4h.5M114.1 15.4l.3.2M114.5 15.5l.2.3M114.6 15.9v1.9M119.6 17.8l-.3-.2M119.3 17.6l-.2-.2M119.1 17.4l-.2-.3M118.9 17.1v-1M118.9 16.1l.2-.3M119.1 15.7l.2-.2M119.3 15.5l.3-.2M119.6 15.4h.5M120.1 15.4l.3.2M120.5 15.5l.2.2M120.6 15.7l.2.3M120.8 16.1v1M120.8 17.1l-.2.3M120.6 17.4l-.2.2M120.5 17.6l-.3.2M120.1 17.8h-.5M122.3 15.4v2.4M122.3 15.7l.2-.2M122.5 15.5l.3-.2M122.9 15.4h.5M123.4 15.4l.3.2M123.7 15.5l.2.3M123.9 15.9v1.9M127.8 15.4h1.4M128.3 14.2v3.1M128.3 17.3l.2.3M128.5 17.6l.3.2M128.9 17.8h.3M130.4 17.8v-3.6M131.9 17.8v-1.9M131.9 15.9l-.2-.3M131.8 15.5l-.3-.2M131.4 15.4h-.5M130.9 15.4l-.3.2M130.6 15.5l-.2.2M135 17.6l-.3.2M134.7 17.8h-.7M134 17.8l-.3-.2M133.7 17.6l-.2-.3M133.5 17.3v-1.4M133.5 15.9l.2-.3M133.7 15.5l.3-.2M134 15.4h.7M134.7 15.4l.3.2M135 15.5l.2.3M135.2 15.9v.3M135.2 16.2l-1.7.3M139.5 17.8v-3.6M139.5 15.5l.3-.2M139.8 15.4h.7M140.5 15.4l.3.2M140.9 15.5l.2.2M141 15.7l.2.3M141.2 16.1v1M141.2 17.1l-.2.3M141 17.4l-.2.2M140.9 17.6l-.3.2M140.5 17.8h-.7M139.8 17.8l-.3-.2M143.3 17.8l-.3-.2M142.9 17.6l-.2-.2M142.7 17.4l-.2-.3M142.6 17.1v-1M142.6 16.1l.2-.3M142.7 15.7l.2-.2M142.9 15.5l.3-.2M143.3 15.4h.5M143.8 15.4l.3.2M144.1 15.5l.2.2M144.3 15.7l.2.3M144.5 16.1v1M144.5 17.1l-.2.3M144.3 17.4l-.2.2M144.1 17.6l-.3.2M143.8 17.8h-.5M147.5 17.8v-1.9M147.5 15.9l-.2-.3M147.4 15.5l-.3-.2M147 15.4h-.7M146.3 15.4l-.3.2M147.5 17.6l-.3.2M147.2 17.8h-.9M146.3 17.8l-.3-.2M146 17.6l-.2-.3M145.8 17.3V17M145.8 16.9l.2-.3M146 16.6l.3-.2M146.3 16.4h.9M147.2 16.4l.3-.2M149.3 17.8v-2.4M149.3 16.1l.2-.3M149.4 15.7l.2-.2M149.6 15.5l.3-.2M149.9 15.4h.3M153 17.8v-3.6M153 17.6l-.3.2M152.7 17.8h-.7M152 17.8l-.3-.2M151.7 17.6l-.2-.2M151.5 17.4l-.2-.3M151.3 17.1v-1M151.3 16.1l.2-.3M151.5 15.7l.2-.2M151.7 15.5l.3-.2M152 15.4h.7M152.7 15.4l.3.2M154.7 17.4l.2.2M154.9 17.6l-.2.2M154.7 17.8l-.2-.2M154.6 17.6l.2-.2M154.7 17.4v.3" />
  <path class="st5" d="M169.6 17.5v21.6M151.6 46.3H184M151.6 53.5H184M151.6 31.9H166M166 31.9v28.8M151.6 39.1h18" />
</svg>