<svg id="Layer_1" xmlns="http://www.w3.org/2000/svg" version="1.1" viewBox="0 0 117.8 187.1"><defs><style>.st0,.st1,.st10,.st11,.st3,.st4,.st6,.st7,.st8,.st9{stroke-linecap:round;stroke-linejoin:round}.st0,.st1,.st10,.st11,.st3,.st4,.st6,.st7,.st9{fill:none}.st0,.st11,.st3,.st4,.st7,.st8,.st9{stroke-width:.4px}.st0,.st10{stroke:#a90000}.st1,.st10,.st6{font-family:ArialMT,Arial;font-size:4.8px;stroke-width:.4px}.st1,.st9{stroke:#0f0f0f}.st11{stroke:#840000}.st3,.st8{stroke:#009600}.st12{letter-spacing:.8em}.st14{letter-spacing:.5em}.st4,.st6{stroke:#006464}.st7{stroke:#0000c2}.st17{isolation:isolate;opacity:0}.st18{letter-spacing:.3em}.st19{letter-spacing:.6em}.st8{fill:#009600}.st20{letter-spacing:.2em}.st21{letter-spacing:.3em}.st22{letter-spacing:.6em}.st23{letter-spacing:.4em}.st24{letter-spacing:.1em}.st25{letter-spacing:.8em}.st26{letter-spacing:.4em}</style></defs><path style="fill:#ffffc2" d="M26.2 28.3h50.4v129.6H26.2z"/><path style="stroke:#840000;stroke-width:.7px;fill:none;stroke-linecap:round;stroke-linejoin:round" d="M26.2 28.3h50.4v129.6H26.2z"/><path class="st11" d="M26.2 53.5H15.4"/><path class="st4" d="m28.6 55 .5.2M29.1 55.2h.9M30 55.2l.3-.2M30.3 55l.2-.2M30.5 54.8l.2-.3M30.7 54.5v-.3M30.7 54.2l-.2-.3M30.5 53.8l-.2-.2M30.3 53.6l-.3-.2M30 53.5l-.7-.2M29.3 53.3l-.3-.2M28.9 53.1l-.2-.2M28.8 53l-.2-.3M28.6 52.6v-.3M28.6 52.3l.2-.3M28.8 51.9l.2-.2M28.9 51.8l.3-.2M29.3 51.6h.9M30.1 51.6l.5.2M32.2 55.2v-3.6M35.8 51.8l-.3-.2M35.5 51.6H35M34.9 51.6l-.5.2M34.4 51.8l-.3.3M34.1 52.1l-.2.3M33.9 52.4l-.2.7M33.7 53.1v.5M33.7 53.6l.2.7M33.9 54.3l.2.3M34.1 54.7l.3.3M34.4 55l.5.2M34.9 55.2h.3M35.3 55.2l.5-.2M35.8 55l.2-.2M36 54.8v-1.2M36 53.6h-.7"/><path class="st0" d="M21.8 52.4h-2.1M20.8 52.4v-3.6M20.8 48.8l-.3.5M20.4 49.3l-.3.3M20.1 49.6l-.3.2"/><path class="st11" d="M26.2 82.3H15.4"/><path class="st4" d="m28.6 83.8.5.2M29.1 84h.9M30 84l.3-.2M30.3 83.8l.2-.2M30.5 83.6l.2-.3M30.7 83.3V83M30.7 83l-.2-.3M30.5 82.6l-.2-.2M30.3 82.4l-.3-.2M30 82.3l-.7-.2M29.3 82.1l-.3-.2M28.9 81.9l-.2-.2M28.8 81.8l-.2-.3M28.6 81.4v-.3M28.6 81.1l.2-.3M28.8 80.7l.2-.2M28.9 80.6l.3-.2M29.3 80.4h.9M30.1 80.4l.5.2M32.9 80.4h.3M33.2 80.4l.3.2M33.6 80.6l.2.2M33.7 80.7l.2.3M33.9 81.1l.2.7M34.1 81.8v.9M34.1 82.6l-.2.7M33.9 83.3l-.2.3M33.7 83.6l-.2.2M33.6 83.8l-.3.2M33.2 84h-.3M32.9 84l-.3-.2M32.5 83.8l-.2-.2M32.4 83.6l-.2-.3M32.2 83.3l-.2-.7M32 82.6v-.9M32 81.8l.2-.7M32.2 81.1l.2-.3M32.4 80.7l.2-.2M32.5 80.6l.3-.2"/><path class="st0" d="M20.1 81.2H18M19.1 81.2v-3.6M19.1 77.6l-.3.5M18.7 78.1l-.3.3M18.4 78.4l-.3.2M22.3 77.6h.3M22.7 77.6l.3.2M23 77.7l.2.2M23.2 77.9l.2.3M23.4 78.2l.2.7M23.5 78.9v.9M23.5 79.8l-.2.7M23.4 80.5l-.2.3M23.2 80.8l-.2.2M23 81l-.3.2M22.7 81.2h-.3M22.3 81.2 22 81M22 81l-.2-.2M21.8 80.8l-.2-.3M21.6 80.5l-.2-.7M21.5 79.8v-.9M21.5 78.9l.2-.7M21.6 78.2l.2-.3M21.8 77.9l.2-.2M22 77.7l.3-.2"/><path class="st11" d="M26.2 89.5H15.4"/><path class="st4" d="m28.6 91 .5.2M29.1 91.2h.9M30 91.2l.3-.2M30.3 91l.2-.2M30.5 90.8l.2-.3M30.7 90.5v-.3M30.7 90.2l-.2-.3M30.5 89.8l-.2-.2M30.3 89.6l-.3-.2M30 89.5l-.7-.2M29.3 89.3l-.3-.2M28.9 89.1l-.2-.2M28.8 89l-.2-.3M28.6 88.6v-.3M28.6 88.3l.2-.3M28.8 87.9l.2-.2M28.9 87.8l.3-.2M29.3 87.6h.9M30.1 87.6l.5.2M34.1 91.2H32M33.1 91.2v-3.6M33.1 87.6l-.3.5M32.7 88.1l-.3.3M32.4 88.4l-.3.2"/><path class="st0" d="M20.1 88.4H18M19.1 88.4v-3.6M19.1 84.8l-.3.5M18.7 85.3l-.3.3M18.4 85.6l-.3.2M23.5 88.4h-2.1M22.5 88.4v-3.6M22.5 84.8l-.3.5M22.2 85.3l-.3.3M21.8 85.6l-.3.2"/><path class="st11" d="M51.4 157.9v10.8"/><path class="st4" d="m49.6 153.5-.2.3M49.4 153.8v.5M49.4 154.3l.2.5M49.6 154.9l.3.3M49.9 155.2l.3.2M50.3 155.4l.7.2M51 155.5h.5M51.5 155.5l.7-.2M52.2 155.4l.3-.2M52.5 155.2l.3-.3M52.9 154.9l.2-.5M53 154.3v-.3M53 154l-.2-.5M52.9 153.5l-.2-.2M52.7 153.3h-1.2M51.5 153.3v.7M53 151.8h-3.6M49.4 151.8l3.6-2.1M53 149.7h-3.6M53 148h-3.6M49.4 148v-.9M49.4 147.1l.2-.5M49.6 146.6l.3-.3M49.9 146.3l.3-.2M50.3 146.1l.7-.2M51 145.9h.5M51.5 145.9l.7.2M52.2 146.1l.3.2M52.5 146.3l.3.3M52.9 146.6l.2.5M53 147.1v.9"/><path class="st0" d="M50.2 164v2.1M50.2 165.1h-3.6M46.6 165.1l.5.3M47.1 165.4l.3.3M47.5 165.7l.2.3M47 162.7l-.2-.2M46.8 162.5l-.2-.3M46.6 162.1v-.9M46.6 161.3l.2-.3M46.8 160.9l.2-.2M47 160.8l.3-.2M47.3 160.6h.3M47.6 160.6l.5.2M48.1 160.8l2.1 2.1M50.2 162.8v-2.2"/><path class="st11" d="M26.2 103.9H15.4"/><path class="st4" d="m28.6 105.4.5.2M29.1 105.6h.9M30 105.6l.3-.2M30.3 105.4l.2-.2M30.5 105.2l.2-.3M30.7 104.9v-.3M30.7 104.6l-.2-.3M30.5 104.2l-.2-.2M30.3 104l-.3-.2M30 103.9l-.7-.2M29.3 103.7l-.3-.2M28.9 103.5l-.2-.2M28.8 103.4l-.2-.3M28.6 103v-.3M28.6 102.7l.2-.3M28.8 102.3l.2-.2M28.9 102.2l.3-.2M29.3 102h.9M30.1 102l.5.2M31.9 102h2.2M34.1 102l-1.2 1.4M32.9 103.4h.5M33.4 103.4l.3.2M33.7 103.5l.2.2M33.9 103.7l.2.3M34.1 104v.9M34.1 104.9l-.2.3M33.9 105.2l-.2.2M33.7 105.4l-.3.2M33.4 105.6h-1M32.4 105.6l-.3-.2M32 105.4l-.2-.2"/><path class="st0" d="M20.1 102.8H18M19.1 102.8v-3.6M19.1 99.2l-.3.5M18.7 99.7l-.3.3M18.4 100l-.3.2M21.3 99.2h2.2M23.5 99.2l-1.2 1.4M22.3 100.5h.5M22.8 100.5l.3.2M23.2 100.7l.2.2M23.4 100.9l.2.3M23.5 101.2v.9M23.5 102.1l-.2.3M23.4 102.4l-.2.2M23.2 102.6l-.3.2M22.8 102.8h-1M21.8 102.8l-.3-.2M21.5 102.6l-.2-.2"/><path class="st11" d="M26.2 96.7H15.4"/><path class="st4" d="m28.6 98.2.5.2M29.1 98.4h.9M30 98.4l.3-.2M30.3 98.2l.2-.2M30.5 98l.2-.3M30.7 97.7v-.3M30.7 97.4l-.2-.3M30.5 97l-.2-.2M30.3 96.8l-.3-.2M30 96.7l-.7-.2M29.3 96.5l-.3-.2M28.9 96.3l-.2-.2M28.8 96.2l-.2-.3M28.6 95.8v-.3M28.6 95.5l.2-.3M28.8 95.1l.2-.2M28.9 95l.3-.2M29.3 94.8h.9M30.1 94.8l.5.2M32 95.1l.2-.2M32.2 95l.3-.2M32.5 94.8h.9M33.4 94.8l.3.2M33.7 95l.2.2M33.9 95.1l.2.3M34.1 95.5v.3M34.1 95.8l-.2.5M33.9 96.3l-2.1 2.1M31.9 98.4h2.2"/><path class="st0" d="M20.1 95.6H18M19.1 95.6V92M19.1 92l-.3.5M18.7 92.5l-.3.3M18.4 92.8l-.3.2M23.2 93.2v2.4M22.3 91.8l-.9 2.6M21.5 94.4h2.2"/><path class="st11" d="M26.2 132.7H15.4"/><path class="st4" d="M28.8 132.5H30M30.5 134.4h-1.7M28.8 134.4v-3.6M28.8 130.8h1.7M32 134.4v-3.6M32 130.8l2.1 3.6M34.1 134.4v-3.6M28.3 129.8h6.3"/><path class="st0" d="M20.1 131.6H18M19.1 131.6V128M19.1 128l-.3.5M18.7 128.5l-.3.3M18.4 128.8l-.3.2M23.4 128h-1.7M21.6 128l-.2 1.7M21.5 129.7l.2-.2M21.6 129.5l.3-.2M22 129.3h.9M22.8 129.3l.3.2M23.2 129.5l.2.2M23.4 129.7l.2.3M23.5 130v.9M23.5 130.9l-.2.3M23.4 131.2l-.2.2M23.2 131.4l-.3.2M22.8 131.6h-.9M22 131.6l-.3-.2M21.6 131.4l-.2-.2"/><path class="st11" d="M76.6 147.1h10.8"/><path class="st4" d="m67.3 148.4-.2.2M67.2 148.6l-.5.2M66.6 148.8h-.3M66.3 148.8l-.5-.2M65.8 148.6l-.3-.3M65.4 148.3l-.2-.3M65.3 147.9l-.2-.7M65.1 147.2v-.5M65.1 146.7l.2-.7M65.3 146l.2-.3M65.4 145.7l.3-.3M65.8 145.4l.5-.2M66.3 145.2h.3M66.6 145.2l.5.2M67.2 145.4l.2.2M70.8 148.8h-2.1M69.7 148.8v-3.6M69.7 145.2l-.3.5M69.4 145.7l-.3.3M69 146l-.3.2M74 145.2h-1.7M72.3 145.2l-.2 1.7M72.1 146.9l.2-.2M72.3 146.7l.3-.2M72.6 146.6h.9M73.5 146.6l.3.2M73.8 146.7l.2.2M74 146.9l.2.3M74.2 147.2v.9M74.2 148.1l-.2.3M74 148.4l-.2.2M73.8 148.6l-.3.2M73.5 148.8h-.9M72.6 148.8l-.3-.2M72.3 148.6l-.2-.2"/><path class="st0" d="M81.3 146h-2.1M80.3 146v-3.6M80.3 142.4l-.3.5M79.9 142.9l-.3.3M79.6 143.2l-.3.2M84.4 142.4h-.7M83.7 142.4l-.3.2M83.4 142.5l-.2.2M83.2 142.7l-.3.5M82.8 143.2l-.2.7M82.7 143.9v1.4M82.7 145.3l.2.3M82.8 145.6l.2.2M83 145.8l.3.2M83.4 146h.7M84 146l.3-.2M84.4 145.8l.2-.2M84.6 145.6l.2-.3M84.7 145.3v-.9M84.7 144.4l-.2-.3M84.6 144.1l-.2-.2M84.4 143.9l-.3-.2M84 143.7h-.7M83.4 143.7l-.3.2M83 143.9l-.2.2M82.8 144.1l-.2.3"/><path class="st11" d="M76.6 139.9h10.8"/><path class="st4" d="m67.3 141.2-.2.2M67.2 141.4l-.5.2M66.6 141.6h-.3M66.3 141.6l-.5-.2M65.8 141.4l-.3-.3M65.4 141.1l-.2-.3M65.3 140.7l-.2-.7M65.1 140v-.5M65.1 139.5l.2-.7M65.3 138.8l.2-.3M65.4 138.5l.3-.3M65.8 138.2l.5-.2M66.3 138h.3M66.6 138l.5.2M67.2 138.2l.2.2M70.8 141.6h-2.1M69.7 141.6V138M69.7 138l-.3.5M69.4 138.5l-.3.3M69 138.8l-.3.2M73.8 139.2v2.4M73 137.8l-.9 2.6M72.1 140.4h2.2"/><path class="st0" d="M81.3 138.8h-2.1M80.3 138.8v-3.6M80.3 135.2l-.3.5M79.9 135.7l-.3.3M79.6 136l-.3.2M82.5 135.2h2.4M84.9 135.2l-1.5 3.6"/><path class="st11" d="M76.6 132.7h10.8"/><path class="st4" d="m67.3 134-.2.2M67.2 134.2l-.5.2M66.6 134.4h-.3M66.3 134.4l-.5-.2M65.8 134.2l-.3-.3M65.4 133.9l-.2-.3M65.3 133.5l-.2-.7M65.1 132.8v-.5M65.1 132.3l.2-.7M65.3 131.6l.2-.3M65.4 131.3l.3-.3M65.8 131l.5-.2M66.3 130.8h.3M66.6 130.8l.5.2M67.2 131l.2.2M70.8 134.4h-2.1M69.7 134.4v-3.6M69.7 130.8l-.3.5M69.4 131.3l-.3.3M69 131.6l-.3.2M72 130.8h2.2M74.2 130.8l-1.2 1.4M73 132.2h.5M73.5 132.2l.3.2M73.8 132.3l.2.2M74 132.5l.2.3M74.2 132.8v.9M74.2 133.7l-.2.3M74 134l-.2.2M73.8 134.2l-.3.2M73.5 134.4h-1M72.5 134.4l-.3-.2M72.1 134.2l-.2-.2"/><path class="st0" d="M81.3 131.6h-2.1M80.3 131.6V128M80.3 128l-.3.5M79.9 128.5l-.3.3M79.6 128.8l-.3.2M83.4 129.5l-.3-.2M83 129.3l-.2-.2M82.8 129.2l-.2-.3M82.7 128.8v-.2M82.7 128.6l.2-.3M82.8 128.3l.2-.2M83 128.1l.3-.2M83.4 128h.7M84 128l.3.2M84.4 128.1l.2.2M84.6 128.3l.2.3M84.7 128.6v.2M84.7 128.8l-.2.3M84.6 129.2l-.2.2M84.4 129.3l-.3.2M84 129.5h-.7M83.4 129.5l-.3.2M83 129.7l-.2.2M82.8 129.8l-.2.3M82.7 130.2v.7M82.7 130.9l.2.3M82.8 131.2l.2.2M83 131.4l.3.2M83.4 131.6h.7M84 131.6l.3-.2M84.4 131.4l.2-.2M84.6 131.2l.2-.3M84.7 130.9v-.7M84.7 130.2l-.2-.3M84.6 129.8l-.2-.2M84.4 129.7l-.3-.2"/><path class="st11" d="M76.6 125.5h10.8"/><path class="st4" d="m67.3 126.8-.2.2M67.2 127l-.5.2M66.6 127.2h-.3M66.3 127.2l-.5-.2M65.8 127l-.3-.3M65.4 126.7l-.2-.3M65.3 126.3l-.2-.7M65.1 125.6v-.5M65.1 125.1l.2-.7M65.3 124.4l.2-.3M65.4 124.1l.3-.3M65.8 123.8l.5-.2M66.3 123.6h.3M66.6 123.6l.5.2M67.2 123.8l.2.2M70.8 127.2h-2.1M69.7 127.2v-3.6M69.7 123.6l-.3.5M69.4 124.1l-.3.3M69 124.4l-.3.2M72.1 123.9l.2-.2M72.3 123.8l.3-.2M72.6 123.6h.9M73.5 123.6l.3.2M73.8 123.8l.2.2M74 123.9l.2.3M74.2 124.3v.3M74.2 124.6l-.2.5M74 125.1l-2.1 2.1M72 127.2h2.2"/><path class="st0" d="M81.3 124.4h-2.1M80.3 124.4v-3.6M80.3 120.8l-.3.5M79.9 121.3l-.3.3M79.6 121.6l-.3.2M83 124.4h.7M83.7 124.4l.3-.2M84 124.2l.2-.2M84.2 124l.3-.5M84.6 123.5l.2-.7M84.7 122.8v-1.4M84.7 121.4l-.2-.3M84.6 121.1l-.2-.2M84.4 120.9l-.3-.2M84 120.8h-.7M83.4 120.8l-.3.2M83 120.9l-.2.2M82.8 121.1l-.2.3M82.7 121.4v.9M82.7 122.3l.2.3M82.8 122.6l.2.2M83 122.8l.3.2M83.4 123h.7M84 123l.3-.2M84.4 122.8l.2-.2M84.6 122.6l.2-.3"/><path class="st11" d="M76.6 89.5h10.8"/><path class="st4" d="m70.8 90.8-.2.2M70.6 91l-.5.2M70.1 91.2h-.3M69.7 91.2l-.5-.2M69.2 91l-.3-.3M68.9 90.7l-.2-.3M68.7 90.3l-.2-.7M68.5 89.6v-.5M68.5 89.1l.2-.7M68.7 88.4l.2-.3M68.9 88.1l.3-.3M69.2 87.8l.5-.2M69.7 87.6h.3M70.1 87.6l.5.2M70.6 87.8l.2.2M72 87.6h2.4M74.4 87.6l-1.5 3.6"/><path class="st0" d="m81 85.1.2-.2M81.1 84.9l.3-.2M81.5 84.8h.9M82.3 84.8l.3.2M82.7 84.9l.2.2M82.8 85.1l.2.3M83 85.4v.3M83 85.8l-.2.5M82.8 86.3l-2.1 2.1M80.8 88.4H83"/><path class="st11" d="M76.6 118.3h10.8"/><path class="st4" d="m67.3 119.6-.2.2M67.2 119.8l-.5.2M66.6 120h-.3M66.3 120l-.5-.2M65.8 119.8l-.3-.3M65.4 119.5l-.2-.3M65.3 119.1l-.2-.7M65.1 118.4v-.5M65.1 117.9l.2-.7M65.3 117.2l.2-.3M65.4 116.9l.3-.3M65.8 116.6l.5-.2M66.3 116.4h.3M66.6 116.4l.5.2M67.2 116.6l.2.2M70.8 120h-2.1M69.7 120v-3.6M69.7 116.4l-.3.5M69.4 116.9l-.3.3M69 117.2l-.3.2M74.2 120h-2.1M73.2 120v-3.6M73.2 116.4l-.3.5M72.8 116.9l-.3.3M72.5 117.2l-.3.2"/><path class="st0" d="m79.2 113.9.2-.2M79.4 113.7l.3-.2M79.8 113.6h.9M80.6 113.6l.3.2M81 113.7l.2.2M81.1 113.9l.2.3M81.3 114.2v.3M81.3 114.6l-.2.5M81.1 115.1l-2.1 2.1M79.1 117.2h2.2M83.5 113.6h.3M83.9 113.6l.3.2M84.2 113.7l.2.2M84.4 113.9l.2.3M84.6 114.2l.2.7M84.7 114.9v.9M84.7 115.8l-.2.7M84.6 116.5l-.2.3M84.4 116.8l-.2.2M84.2 117l-.3.2M83.9 117.2h-.3M83.5 117.2l-.3-.2M83.2 117l-.2-.2M83 116.8l-.2-.3M82.8 116.5l-.2-.7M82.7 115.8v-.9M82.7 114.9l.2-.7M82.8 114.2l.2-.3M83 113.9l.2-.2M83.2 113.7l.3-.2"/><path class="st11" d="M76.6 111.1h10.8"/><path class="st4" d="m67.3 112.4-.2.2M67.2 112.6l-.5.2M66.6 112.8h-.3M66.3 112.8l-.5-.2M65.8 112.6l-.3-.3M65.4 112.3l-.2-.3M65.3 111.9l-.2-.7M65.1 111.2v-.5M65.1 110.7l.2-.7M65.3 110l.2-.3M65.4 109.7l.3-.3M65.8 109.4l.5-.2M66.3 109.2h.3M66.6 109.2l.5.2M67.2 109.4l.2.2M70.8 112.8h-2.1M69.7 112.8v-3.6M69.7 109.2l-.3.5M69.4 109.7l-.3.3M69 110l-.3.2M73 109.2h.3M73.3 109.2l.3.2M73.7 109.4l.2.2M73.8 109.5l.2.3M74 109.9l.2.7M74.2 110.6v.9M74.2 111.4l-.2.7M74 112.1l-.2.3M73.8 112.4l-.2.2M73.7 112.6l-.3.2M73.3 112.8H73M73 112.8l-.3-.2M72.6 112.6l-.2-.2M72.5 112.4l-.2-.3M72.3 112.1l-.2-.7M72.1 111.4v-.9M72.1 110.6l.2-.7M72.3 109.9l.2-.3M72.5 109.5l.2-.2M72.6 109.4l.3-.2"/><path class="st0" d="m79.2 106.7.2-.2M79.4 106.5l.3-.2M79.8 106.4h.9M80.6 106.4l.3.2M81 106.5l.2.2M81.1 106.7l.2.3M81.3 107v.3M81.3 107.4l-.2.5M81.1 107.9 79 110M79.1 110h2.2M84.7 110h-2.1M83.7 110v-3.6M83.7 106.4l-.3.5M83.4 106.9l-.3.3M83 107.2l-.3.2"/><path class="st11" d="M76.6 103.9h10.8"/><path class="st4" d="m70.8 105.2-.2.2M70.6 105.4l-.5.2M70.1 105.6h-.3M69.7 105.6l-.5-.2M69.2 105.4l-.3-.3M68.9 105.1l-.2-.3M68.7 104.7l-.2-.7M68.5 104v-.5M68.5 103.5l.2-.7M68.7 102.8l.2-.3M68.9 102.5l.3-.3M69.2 102.2l.5-.2M69.7 102h.3M70.1 102l.5.2M70.6 102.2l.2.2M72.5 105.6h.7M73.2 105.6l.3-.2M73.5 105.4l.2-.2M73.7 105.2l.3-.5M74 104.7l.2-.7M74.2 104v-1.4M74.2 102.7l-.2-.3M74 102.3l-.2-.2M73.8 102.2l-.3-.2M73.5 102h-.7M72.8 102l-.3.2M72.5 102.2l-.2.2M72.3 102.3l-.2.3M72.1 102.7v.9M72.1 103.5l.2.3M72.3 103.9l.2.2M72.5 104l.3.2M72.8 104.2h.7M73.5 104.2l.3-.2M73.8 104l.2-.2M74 103.9l.2-.3"/><path class="st0" d="m79.2 99.5.2-.2M79.4 99.3l.3-.2M79.8 99.2h.9M80.6 99.2l.3.2M81 99.3l.2.2M81.1 99.5l.2.3M81.3 99.8v.3M81.3 100.2l-.2.5M81.1 100.7l-2.1 2.1M79.1 102.8h2.2M82.7 99.5l.2-.2M82.8 99.3l.3-.2M83.2 99.2h.9M84 99.2l.3.2M84.4 99.3l.2.2M84.6 99.5l.2.3M84.7 99.8v.3M84.7 100.2l-.2.5M84.6 100.7l-2.1 2.1M82.5 102.8h2.2"/><path class="st11" d="M76.6 96.7h10.8"/><path class="st4" d="m70.8 98-.2.2M70.6 98.2l-.5.2M70.1 98.4h-.3M69.7 98.4l-.5-.2M69.2 98.2l-.3-.3M68.9 97.9l-.2-.3M68.7 97.5l-.2-.7M68.5 96.8v-.5M68.5 96.3l.2-.7M68.7 95.6l.2-.3M68.9 95.3l.3-.3M69.2 95l.5-.2M69.7 94.8h.3M70.1 94.8l.5.2M70.6 95l.2.2M72.8 96.3l-.3-.2M72.5 96.2l-.2-.2M72.3 96l-.2-.3M72.1 95.6v-.2M72.1 95.5l.2-.3M72.3 95.1l.2-.2M72.5 95l.3-.2M72.8 94.8h.7M73.5 94.8l.3.2M73.8 95l.2.2M74 95.1l.2.3M74.2 95.5v.2M74.2 95.6l-.2.3M74 96l-.2.2M73.8 96.2l-.3.2M73.5 96.3h-.7M72.8 96.3l-.3.2M72.5 96.5l-.2.2M72.3 96.7l-.2.3M72.1 97v.7M72.1 97.7l.2.3M72.3 98l.2.2M72.5 98.2l.3.2M72.8 98.4h.7M73.5 98.4l.3-.2M73.8 98.2l.2-.2M74 98l.2-.3M74.2 97.7V97M74.2 97l-.2-.3M74 96.7l-.2-.2M73.8 96.5l-.3-.2"/><path class="st0" d="m79.2 92.3.2-.2M79.4 92.1l.3-.2M79.8 92h.9M80.6 92l.3.2M81 92.1l.2.2M81.1 92.3l.2.3M81.3 92.6v.3M81.3 93l-.2.5M81.1 93.5 79 95.6M79.1 95.6h2.2M82.5 92h2.2M84.7 92l-1.2 1.4M83.5 93.3h.5M84 93.3l.3.2M84.4 93.5l.2.2M84.6 93.7l.2.3M84.7 94v.9M84.7 94.9l-.2.3M84.6 95.2l-.2.2M84.4 95.4l-.3.2M84 95.6h-1M83 95.6l-.3-.2M82.7 95.4l-.2-.2"/><path class="st11" d="M51.4 28.3V17.5"/><path class="st4" d="m49.4 40 3.6-1.2M53 38.8l-3.6-1.2M52.7 34.4l.2.2M52.9 34.5l.2.5M53 35v.3M53 35.4l-.2.5M52.9 35.9l-.3.3M52.5 36.2l-.3.2M52.2 36.4l-.7.2M51.5 36.6H51M51 36.6l-.7-.2M50.3 36.4l-.3-.2M49.9 36.2l-.3-.3M49.6 35.9l-.2-.5M49.4 35.4v-.3M49.4 35l.2-.5M49.6 34.5l.2-.2M52.7 30.8l.2.2M52.9 30.9l.2.5M53 31.4v.3M53 31.8l-.2.5M52.9 32.3l-.3.3M52.5 32.6l-.3.2M52.2 32.8l-.7.2M51.5 33H51M51 33l-.7-.2M50.3 32.8l-.3-.2M49.9 32.6l-.3-.3M49.6 32.3l-.2-.5M49.4 31.8v-.3M49.4 31.4l.2-.5M49.6 30.9l.2-.2"/><path class="st0" d="m47 25.7-.2-.2M46.8 25.5l-.2-.3M46.6 25.2v-.9M46.6 24.3l.2-.3M46.8 24l.2-.2M47 23.8l.3-.2M47.3 23.6h.3M47.6 23.6l.5.2M48.1 23.8l2.1 2.1M50.2 25.9v-2.2M47.8 20.5h2.4M46.4 21.4l2.6.9M49 22.3v-2.2"/><path class="st11" d="M76.6 82.3h10.8"/><path class="st4" d="m70.8 83.6-.2.2M70.6 83.8l-.5.2M70.1 84h-.3M69.7 84l-.5-.2M69.2 83.8l-.3-.3M68.9 83.5l-.2-.3M68.7 83.1l-.2-.7M68.5 82.4v-.5M68.5 81.9l.2-.7M68.7 81.2l.2-.3M68.9 80.9l.3-.3M69.2 80.6l.5-.2M69.7 80.4h.3M70.1 80.4l.5.2M70.6 80.6l.2.2M73.8 80.4h-.7M73.2 80.4l-.3.2M72.8 80.6l-.2.2M72.6 80.7l-.3.5M72.3 81.2l-.2.7M72.1 81.9v1.4M72.1 83.3l.2.3M72.3 83.6l.2.2M72.5 83.8l.3.2M72.8 84h.7M73.5 84l.3-.2M73.8 83.8l.2-.2M74 83.6l.2-.3M74.2 83.3v-.9M74.2 82.4l-.2-.3M74 82.1l-.2-.2M73.8 81.9l-.3-.2M73.5 81.8h-.7M72.8 81.8l-.3.2M72.5 81.9l-.2.2M72.3 82.1l-.2.3"/><path class="st0" d="M80.8 77.6H83M83 77.6 81.8 79M81.8 78.9h.5M82.3 78.9l.3.2M82.7 79.1l.2.2M82.8 79.3l.2.3M83 79.6v.9M83 80.5l-.2.3M82.8 80.8l-.2.2M82.7 81l-.3.2M82.3 81.2h-1M81.3 81.2 81 81M81 81l-.2-.2"/><path class="st11" d="M76.6 75.1h10.8"/><path class="st4" d="m70.8 76.4-.2.2M70.6 76.6l-.5.2M70.1 76.8h-.3M69.7 76.8l-.5-.2M69.2 76.6l-.3-.3M68.9 76.3l-.2-.3M68.7 75.9l-.2-.7M68.5 75.2v-.5M68.5 74.7l.2-.7M68.7 74l.2-.3M68.9 73.7l.3-.3M69.2 73.4l.5-.2M69.7 73.2h.3M70.1 73.2l.5.2M70.6 73.4l.2.2M73.8 73.2h-.7M73.2 73.2l-.3.2M72.8 73.4l-.2.2M72.6 73.5l-.3.5M72.3 74l-.2.7M72.1 74.7v1.4M72.1 76.1l.2.3M72.3 76.4l.2.2M72.5 76.6l.3.2M72.8 76.8h.7M73.5 76.8l.3-.2M73.8 76.6l.2-.2M74 76.4l.2-.3M74.2 76.1v-.9M74.2 75.2l-.2-.3M74 74.9l-.2-.2M73.8 74.7l-.3-.2M73.5 74.6h-.7M72.8 74.6l-.3.2M72.5 74.7l-.2.2M72.3 74.9l-.2.3"/><path class="st0" d="M82.7 71.6V74M81.8 70.2l-.9 2.6M81 72.8h2.2"/><path class="st11" d="M76.6 67.9h10.8"/><path class="st4" d="m70.8 69.2-.2.2M70.6 69.4l-.5.2M70.1 69.6h-.3M69.7 69.6l-.5-.2M69.2 69.4l-.3-.3M68.9 69.1l-.2-.3M68.7 68.7l-.2-.7M68.5 68v-.5M68.5 67.5l.2-.7M68.7 66.8l.2-.3M68.9 66.5l.3-.3M69.2 66.2l.5-.2M69.7 66h.3M70.1 66l.5.2M70.6 66.2l.2.2M73.8 67.2v2.4M73 65.8l-.9 2.6M72.1 68.4h2.2"/><path class="st0" d="M82.8 63.2h-1.7M81.1 63.2l-.2 1.7M81 64.9l.2-.2M81.1 64.7l.3-.2M81.5 64.5h.9M82.3 64.5l.3.2M82.7 64.7l.2.2M82.8 64.9l.2.3M83 65.2v.9M83 66.1l-.2.3M82.8 66.4l-.2.2M82.7 66.6l-.3.2M82.3 66.8h-.9M81.5 66.8l-.3-.2M81.1 66.6l-.2-.2"/><path class="st11" d="M76.6 60.7h10.8"/><path class="st4" d="m70.8 62-.2.2M70.6 62.2l-.5.2M70.1 62.4h-.3M69.7 62.4l-.5-.2M69.2 62.2l-.3-.3M68.9 61.9l-.2-.3M68.7 61.5l-.2-.7M68.5 60.8v-.5M68.5 60.3l.2-.7M68.7 59.6l.2-.3M68.9 59.3l.3-.3M69.2 59l.5-.2M69.7 58.8h.3M70.1 58.8l.5.2M70.6 59l.2.2M72 58.8h2.2M74.2 58.8 73 60.2M73 60.2h.5M73.5 60.2l.3.2M73.8 60.3l.2.2M74 60.5l.2.3M74.2 60.8v.9M74.2 61.7l-.2.3M74 62l-.2.2M73.8 62.2l-.3.2M73.5 62.4h-1M72.5 62.4l-.3-.2M72.1 62.2l-.2-.2"/><path class="st0" d="M82.7 56H82M82 56l-.3.2M81.6 56.1l-.2.2M81.5 56.3l-.3.5M81.1 56.8l-.2.7M81 57.5v1.4M81 58.9l.2.3M81.1 59.2l.2.2M81.3 59.4l.3.2M81.6 59.6h.7M82.3 59.6l.3-.2M82.7 59.4l.2-.2M82.8 59.2l.2-.3M83 58.9V58M83 58l-.2-.3M82.8 57.7l-.2-.2M82.7 57.5l-.3-.2M82.3 57.3h-.7M81.6 57.3l-.3.2M81.3 57.5l-.2.2M81.1 57.7l-.2.3"/><path class="st11" d="M76.6 53.5h10.8"/><path class="st4" d="m70.8 54.8-.2.2M70.6 55l-.5.2M70.1 55.2h-.3M69.7 55.2l-.5-.2M69.2 55l-.3-.3M68.9 54.7l-.2-.3M68.7 54.3l-.2-.7M68.5 53.6v-.5M68.5 53.1l.2-.7M68.7 52.4l.2-.3M68.9 52.1l.3-.3M69.2 51.8l.5-.2M69.7 51.6h.3M70.1 51.6l.5.2M70.6 51.8l.2.2M72.1 51.9l.2-.2M72.3 51.8l.3-.2M72.6 51.6h.9M73.5 51.6l.3.2M73.8 51.8l.2.2M74 51.9l.2.3M74.2 52.3v.3M74.2 52.6l-.2.5M74 53.1l-2.1 2.1M72 55.2h2.2"/><path class="st0" d="M80.8 48.8h2.4M83.2 48.8l-1.5 3.6"/><path class="st11" d="M76.6 46.3h10.8"/><path class="st4" d="m70.8 47.6-.2.2M70.6 47.8l-.5.2M70.1 48h-.3M69.7 48l-.5-.2M69.2 47.8l-.3-.3M68.9 47.5l-.2-.3M68.7 47.1l-.2-.7M68.5 46.4v-.5M68.5 45.9l.2-.7M68.7 45.2l.2-.3M68.9 44.9l.3-.3M69.2 44.6l.5-.2M69.7 44.4h.3M70.1 44.4l.5.2M70.6 44.6l.2.2M74.2 48h-2.1M73.2 48v-3.6M73.2 44.4l-.3.5M72.8 44.9l-.3.3M72.5 45.2l-.3.2"/><path class="st0" d="m81.6 43.1-.3-.2M81.3 42.9l-.2-.2M81.1 42.8l-.2-.3M81 42.4v-.2M81 42.2l.2-.3M81.1 41.9l.2-.2M81.3 41.7l.3-.2M81.6 41.6h.7M82.3 41.6l.3.2M82.7 41.7l.2.2M82.8 41.9l.2.3M83 42.2v.2M83 42.4l-.2.3M82.8 42.8l-.2.2M82.7 42.9l-.3.2M82.3 43.1h-.7M81.6 43.1l-.3.2M81.3 43.3l-.2.2M81.1 43.4l-.2.3M81 43.8v.7M81 44.5l.2.3M81.1 44.8l.2.2M81.3 45l.3.2M81.6 45.2h.7M82.3 45.2l.3-.2M82.7 45l.2-.2M82.8 44.8l.2-.3M83 44.5v-.7M83 43.8l-.2-.3M82.8 43.4l-.2-.2M82.7 43.3l-.3-.2"/><path class="st11" d="M76.6 39.1h10.8"/><path class="st4" d="m70.8 40.4-.2.2M70.6 40.6l-.5.2M70.1 40.8h-.3M69.7 40.8l-.5-.2M69.2 40.6l-.3-.3M68.9 40.3l-.2-.3M68.7 39.9l-.2-.7M68.5 39.2v-.5M68.5 38.7l.2-.7M68.7 38l.2-.3M68.9 37.7l.3-.3M69.2 37.4l.5-.2M69.7 37.2h.3M70.1 37.2l.5.2M70.6 37.4l.2.2M73 37.2h.3M73.3 37.2l.3.2M73.7 37.4l.2.2M73.8 37.5l.2.3M74 37.9l.2.7M74.2 38.6v.9M74.2 39.4l-.2.7M74 40.1l-.2.3M73.8 40.4l-.2.2M73.7 40.6l-.3.2M73.3 40.8H73M73 40.8l-.3-.2M72.6 40.6l-.2-.2M72.5 40.4l-.2-.3M72.3 40.1l-.2-.7M72.1 39.4v-.9M72.1 38.6l.2-.7M72.3 37.9l.2-.3M72.5 37.5l.2-.2M72.6 37.4l.3-.2"/><path class="st0" d="M81.3 38h.7M82 38l.3-.2M82.3 37.8l.2-.2M82.5 37.6l.3-.5M82.8 37.1l.2-.7M83 36.4V35M83 35l-.2-.3M82.8 34.7l-.2-.2M82.7 34.5l-.3-.2M82.3 34.4h-.7M81.6 34.4l-.3.2M81.3 34.5l-.2.2M81.1 34.7l-.2.3M81 35v.9M81 35.9l.2.3M81.1 36.2l.2.2M81.3 36.4l.3.2M81.6 36.6h.7M82.3 36.6l.3-.2M82.7 36.4l.2-.2M82.8 36.2l.2-.3"/><circle class="st11" cx="96" cy="53.5" r="1.4"/><path class="st11" d="M101.8 49.9v-5M109 49.9H94.6"/><circle class="st11" cx="107.6" cy="53.5" r="1.4"/><path class="st11" d="M94.6 53.5h-7.2M109 53.5h7.2"/><circle class="st11" cx="96" cy="82.3" r="1.4"/><path class="st11" d="M101.8 78.7v-5M109 78.7H94.6"/><circle class="st11" cx="107.6" cy="82.3" r="1.4"/><path class="st11" d="M94.6 82.3h-7.2M109 82.3h7.2"/><circle class="st11" cx="96" cy="89.5" r="1.4"/><path class="st11" d="M101.8 85.9v-5M109 85.9H94.6"/><circle class="st11" cx="107.6" cy="89.5" r="1.4"/><path class="st11" d="M94.6 89.5h-7.2M109 89.5h7.2"/><circle class="st11" cx="96" cy="75.1" r="1.4"/><path class="st11" d="M101.8 71.5v-5M109 71.5H94.6"/><circle class="st11" cx="107.6" cy="75.1" r="1.4"/><path class="st11" d="M94.6 75.1h-7.2M109 75.1h7.2"/><circle class="st11" cx="96" cy="60.7" r="1.4"/><path class="st11" d="M101.8 57.1v-5M109 57.1H94.6"/><circle class="st11" cx="107.6" cy="60.7" r="1.4"/><path class="st11" d="M94.6 60.7h-7.2M109 60.7h7.2"/><circle class="st11" cx="96" cy="147.1" r="1.4"/><path class="st11" d="M101.8 143.5v-5M109 143.5H94.6"/><circle class="st11" cx="107.6" cy="147.1" r="1.4"/><path class="st11" d="M94.6 147.1h-7.2M109 147.1h7.2"/><circle class="st11" cx="96" cy="67.9" r="1.4"/><path class="st11" d="M101.8 64.3v-5M109 64.3H94.6"/><circle class="st11" cx="107.6" cy="67.9" r="1.4"/><path class="st11" d="M94.6 67.9h-7.2M109 67.9h7.2M51.4 168.7v3.6H55l-3.6 3.6-3.6-3.6h3.6M51.4 168.7h0"/><path class="st4" d="m48.6 181.4-.3-.2M48.3 181.2h-.5M47.8 181.2l-.5.2M47.3 181.4l-.3.3M46.9 181.7l-.2.3M46.8 182l-.2.7M46.6 182.7v.5M46.6 183.2l.2.7M46.8 183.9l.2.3M46.9 184.3l.3.3M47.3 184.6l.5.2M47.8 184.8h.3M48.1 184.8l.5-.2M48.6 184.6l.2-.2M48.8 184.4v-1.2M48.8 183.2h-.7M50.4 184.8v-3.6M50.4 181.2l2.1 3.6M52.4 184.8v-3.6M54.1 184.8v-3.6M54.1 181.2h.9M55 181.2l.5.2M55.5 181.4l.3.3M55.8 181.7l.2.3M56 182l.2.7M56.2 182.7v.5M56.2 183.2l-.2.7M56 183.9l-.2.3M55.8 184.3l-.3.3M55.5 184.6l-.5.2M55 184.8h-.9"/><circle class="st11" cx="96" cy="118.3" r="1.4"/><path class="st11" d="M101.8 114.7v-5M109 114.7H94.6"/><circle class="st11" cx="107.6" cy="118.3" r="1.4"/><path class="st11" d="M94.6 118.3h-7.2M109 118.3h7.2"/><circle class="st11" cx="96" cy="132.7" r="1.4"/><path class="st11" d="M101.8 129.1v-5M109 129.1H94.6"/><circle class="st11" cx="107.6" cy="132.7" r="1.4"/><path class="st11" d="M94.6 132.7h-7.2M109 132.7h7.2"/><circle class="st11" cx="96" cy="125.5" r="1.4"/><path class="st11" d="M101.8 121.9v-5M109 121.9H94.6"/><circle class="st11" cx="107.6" cy="125.5" r="1.4"/><path class="st11" d="M94.6 125.5h-7.2M109 125.5h7.2"/><circle class="st11" cx="96" cy="139.9" r="1.4"/><path class="st11" d="M101.8 136.3v-5M109 136.3H94.6"/><circle class="st11" cx="107.6" cy="139.9" r="1.4"/><path class="st11" d="M94.6 139.9h-7.2M109 139.9h7.2"/><circle class="st11" cx="96" cy="96.7" r="1.4"/><path class="st11" d="M101.8 93.1v-5M109 93.1H94.6"/><circle class="st11" cx="107.6" cy="96.7" r="1.4"/><path class="st11" d="M94.6 96.7h-7.2M109 96.7h7.2"/><circle class="st11" cx="96" cy="46.3" r="1.4"/><path class="st11" d="M101.8 42.7v-5M109 42.7H94.6"/><circle class="st11" cx="107.6" cy="46.3" r="1.4"/><path class="st11" d="M94.6 46.3h-7.2M109 46.3h7.2"/><circle class="st11" cx="96" cy="111.1" r="1.4"/><path class="st11" d="M101.8 107.5v-5M109 107.5H94.6"/><circle class="st11" cx="107.6" cy="111.1" r="1.4"/><path class="st11" d="M94.6 111.1h-7.2M109 111.1h7.2"/><circle class="st11" cx="96" cy="103.9" r="1.4"/><path class="st11" d="M101.8 100.3v-5M109 100.3H94.6"/><circle class="st11" cx="107.6" cy="103.9" r="1.4"/><path class="st11" d="M94.6 103.9h-7.2M109 103.9h7.2M49.2 13.9l2.2-3.6M51.4 17.5v-7.2M51.4 10.3l2.2 3.6M51.4 17.5h0"/><path class="st4" d="M46.8 3.4h2.7M48.1 4.8V2.1M52.9 1.2h-1.7M51.2 1.2 51 2.9M51 2.9l.2-.2M51.2 2.7l.3-.2M51.6 2.6h.9M52.4 2.6l.3.2M52.8 2.7l.2.2M52.9 2.9l.2.3M53.1 3.2v.9M53.1 4.1l-.2.3M52.9 4.4l-.2.2M52.8 4.6l-.3.2M52.4 4.8h-.9M51.6 4.8l-.3-.2M51.2 4.6l-.2-.2M54.1 1.2l1.2 3.6M55.3 4.8l1.2-3.6"/><circle class="st11" cx="96" cy="39.1" r="1.4"/><path class="st11" d="M101.8 35.5v-5M109 35.5H94.6"/><circle class="st11" cx="107.6" cy="39.1" r="1.4"/><path class="st11" d="M94.6 39.1h-7.2M109 39.1h7.2"/><path class="st9" d="M2.1 52.1v-3.6M2.1 48.5H3M3 48.5l.5.2M3.5 48.7l.3.3M3.8 49l.2.3M4 49.4l.2.7M4.2 50v.5M4.2 50.6l-.2.7M4 51.2l-.2.3M3.8 51.6l-.3.3M3.5 51.9l-.5.2M3 52.1h-.9M5.6 51.1h1.7M5.2 52.1l1.2-3.6M6.4 48.5l1.2 3.6M8.3 48.5h2.1M9.3 52.1v-3.6M11.4 51.1h1.7M11 52.1l1.2-3.6M12.2 48.5l1.2 3.6M2 102.3l.5.2M2.5 102.5h.9M3.3 102.5l.3-.2M3.7 102.3l.2-.2M3.8 102.2l.2-.3M4 101.8v-.3M4 101.5l-.2-.3M3.8 101.1l-.2-.2M3.7 101l-.3-.2M3.3 100.8l-.7-.2M2.6 100.6l-.3-.2M2.3 100.4l-.2-.2M2.1 100.3l-.2-.3M2 99.9v-.3M2 99.6l.2-.3M2.1 99.2l.2-.2M2.3 99.1l.3-.2M2.6 98.9h.9M3.5 98.9l.5.2M5.2 98.9h2.2M7.4 98.9l-1.2 1.4M6.2 100.3h.5M6.8 100.3l.3.2M7.1 100.4l.2.2M7.3 100.6l.2.3M7.4 101v.9M7.4 101.8l-.2.3M7.3 102.2l-.2.2M7.1 102.3l-.3.2M6.8 102.5h-1M5.7 102.5l-.3-.2M5.4 102.3l-.2-.2M2 80.7l.5.2M2.5 80.9h.9M3.3 80.9l.3-.2M3.7 80.7l.2-.2M3.8 80.6l.2-.3M4 80.2v-.3M4 79.9l-.2-.3M3.8 79.5l-.2-.2M3.7 79.4l-.3-.2M3.3 79.2l-.7-.2M2.6 79l-.3-.2M2.3 78.8l-.2-.2M2.1 78.7l-.2-.3M2 78.3V78M2 78l.2-.3M2.1 77.6l.2-.2M2.3 77.5l.3-.2M2.6 77.3h.9M3.5 77.3l.5.2M6.2 77.3h.3M6.6 77.3l.3.2M6.9 77.5l.2.2M7.1 77.6l.2.3M7.3 78l.2.7M7.4 78.7v.9M7.4 79.5l-.2.7M7.3 80.2l-.2.3M7.1 80.6l-.2.2M6.9 80.7l-.3.2M6.6 80.9h-.3M6.2 80.9l-.3-.2M5.9 80.7l-.2-.2M5.7 80.6l-.2-.3M5.6 80.2l-.2-.7M5.4 79.5v-.9M5.4 78.7l.2-.7M5.6 78l.2-.3M5.7 77.6l.2-.2M5.9 77.5l.3-.2M2 87.9l.5.2M2.5 88.1h.9M3.3 88.1l.3-.2M3.7 87.9l.2-.2M3.8 87.8l.2-.3M4 87.4v-.3M4 87.1l-.2-.3M3.8 86.7l-.2-.2M3.7 86.6l-.3-.2M3.3 86.4l-.7-.2M2.6 86.2l-.3-.2M2.3 86l-.2-.2M2.1 85.9l-.2-.3M2 85.5v-.3M2 85.2l.2-.3M2.1 84.8l.2-.2M2.3 84.7l.3-.2M2.6 84.5h.9M3.5 84.5l.5.2M7.4 88.1H5.3M6.4 88.1v-3.6M6.4 84.5l-.3.5M6.1 85l-.3.3M5.7 85.4l-.3.2M2 95.1l.5.2M2.5 95.3h.9M3.3 95.3l.3-.2M3.7 95.1l.2-.2M3.8 95l.2-.3M4 94.6v-.3M4 94.3l-.2-.3M3.8 93.9l-.2-.2M3.7 93.8l-.3-.2M3.3 93.6l-.7-.2M2.6 93.4l-.3-.2M2.3 93.2l-.2-.2M2.1 93.1l-.2-.3M2 92.7v-.3M2 92.4l.2-.3M2.1 92l.2-.2M2.3 91.9l.3-.2M2.6 91.7h.9M3.5 91.7l.5.2M5.4 92l.2-.2M5.6 91.9l.3-.2M5.9 91.7h.9M6.8 91.7l.3.2M7.1 91.9l.2.2M7.3 92l.2.3M7.4 92.4v.3M7.4 92.7l-.2.5M7.3 93.2l-2.1 2.1M5.2 95.3h2.2"/><path class="st7" d="m91.5 26.9.5.2M92.1 27.1h.9M92.9 27.1l.3-.2M93.3 26.9l.2-.2M93.4 26.8l.2-.3M93.6 26.4v-.3M93.6 26.1l-.2-.3M93.4 25.7l-.2-.2M93.3 25.6l-.3-.2M92.9 25.4l-.7-.2M92.2 25.2l-.3-.2M91.9 25.1l-.2-.2M91.7 24.9l-.2-.3M91.5 24.5v-.3M91.5 24.2l.2-.3M91.7 23.9l.2-.2M91.9 23.7l.3-.2M92.2 23.5h.9M93.1 23.5l.5.2M94.8 24.7l.7 2.4M95.5 27.1l.7-1.7M96.2 25.4l.7 1.7M96.9 27.1l.7-2.4M98.9 27.1v-2.4M98.9 23.5l-.2.2M98.7 23.7l.2.2M98.9 23.9l.2-.2M99.1 23.7l-.2-.2M98.9 23.5v.3M100.1 24.7h1.4M100.6 23.5v3.1M100.6 26.6l.2.3M100.8 26.9l.3.2M101.1 27.1h.3M104.2 26.9l-.3.2M103.9 27.1h-.7M103.2 27.1l-.3-.2M102.9 26.9l-.2-.2M102.7 26.8l-.2-.3M102.5 26.4v-1M102.5 25.4l.2-.3M102.7 25.1l.2-.2M102.9 24.9l.3-.2M103.2 24.7h.7M103.9 24.7l.3.2M105.8 27.1v-3.6M107.3 27.1v-1.9M107.3 25.2l-.2-.3M107.1 24.9l-.3-.2M106.8 24.7h-.5M106.3 24.7l-.3.2M105.9 24.9l-.2.2M110.4 26.9l-.3.2M110.1 27.1h-.7M109.4 27.1l-.3-.2M109 26.9l-.2-.3M108.9 26.6v-1.4M108.9 25.2l.2-.3M109 24.9l.3-.2M109.4 24.7h.7M110.1 24.7l.3.2M110.4 24.9l.2.3M110.6 25.2v.3M110.6 25.6l-1.7.3M111.9 26.9l.3.2M112.3 27.1h.7M113 27.1l.3-.2M113.3 26.9l.2-.3M113.5 26.6v-.2M113.5 26.4l-.2-.3M113.3 26.1l-.3-.2M113 25.9h-.5M112.5 25.9l-.3-.2M112.1 25.7l-.2-.3M111.9 25.4v-.2M111.9 25.2l.2-.3M112.1 24.9l.3-.2M112.5 24.7h.5M113 24.7l.3.2"/><path class="st3" d="M1 103.9h14.4M15.4 168.7h36M15.4 132.7v36M1 53.5h14.4M1 89.5h14.4M1 82.3h14.4M116.2 82.3v7.2M116.2 39.1v7.2M116.2 103.9v7.2M116.2 111.1v7.2M116.2 118.3v7.2M116.2 96.7v7.2M116.2 168.7H51.4M116.2 132.7v7.2M116.2 89.5v7.2M116.2 67.9v7.2M116.2 46.3v7.2M1 96.7h14.4M116.2 60.7v7.2M116.2 75.1v7.2M116.2 53.5v7.2M116.2 147.1v21.6M116.2 139.9v7.2M116.2 125.5v7.2"/><path class="st11" d="M26.2 53.5H15.4"/><path class="st4" d="m28.6 55 .5.2M29.1 55.2h.9M30 55.2l.3-.2M30.3 55l.2-.2M30.5 54.8l.2-.3M30.7 54.5v-.3M30.7 54.2l-.2-.3M30.5 53.8l-.2-.2M30.3 53.6l-.3-.2M30 53.5l-.7-.2M29.3 53.3l-.3-.2M28.9 53.1l-.2-.2M28.8 53l-.2-.3M28.6 52.6v-.3M28.6 52.3l.2-.3M28.8 51.9l.2-.2M28.9 51.8l.3-.2M29.3 51.6h.9M30.1 51.6l.5.2M32.2 55.2v-3.6M35.8 51.8l-.3-.2M35.5 51.6H35M34.9 51.6l-.5.2M34.4 51.8l-.3.3M34.1 52.1l-.2.3M33.9 52.4l-.2.7M33.7 53.1v.5M33.7 53.6l.2.7M33.9 54.3l.2.3M34.1 54.7l.3.3M34.4 55l.5.2M34.9 55.2h.3M35.3 55.2l.5-.2M35.8 55l.2-.2M36 54.8v-1.2M36 53.6h-.7"/><path class="st0" d="M21.8 52.4h-2.1M20.8 52.4v-3.6M20.8 48.8l-.3.5M20.4 49.3l-.3.3M20.1 49.6l-.3.2"/><path class="st11" d="M26.2 82.3H15.4"/><path class="st4" d="m28.6 83.8.5.2M29.1 84h.9M30 84l.3-.2M30.3 83.8l.2-.2M30.5 83.6l.2-.3M30.7 83.3V83M30.7 83l-.2-.3M30.5 82.6l-.2-.2M30.3 82.4l-.3-.2M30 82.3l-.7-.2M29.3 82.1l-.3-.2M28.9 81.9l-.2-.2M28.8 81.8l-.2-.3M28.6 81.4v-.3M28.6 81.1l.2-.3M28.8 80.7l.2-.2M28.9 80.6l.3-.2M29.3 80.4h.9M30.1 80.4l.5.2M32.9 80.4h.3M33.2 80.4l.3.2M33.6 80.6l.2.2M33.7 80.7l.2.3M33.9 81.1l.2.7M34.1 81.8v.9M34.1 82.6l-.2.7M33.9 83.3l-.2.3M33.7 83.6l-.2.2M33.6 83.8l-.3.2M33.2 84h-.3M32.9 84l-.3-.2M32.5 83.8l-.2-.2M32.4 83.6l-.2-.3M32.2 83.3l-.2-.7M32 82.6v-.9M32 81.8l.2-.7M32.2 81.1l.2-.3M32.4 80.7l.2-.2M32.5 80.6l.3-.2"/><path class="st0" d="M20.1 81.2H18M19.1 81.2v-3.6M19.1 77.6l-.3.5M18.7 78.1l-.3.3M18.4 78.4l-.3.2M22.3 77.6h.3M22.7 77.6l.3.2M23 77.7l.2.2M23.2 77.9l.2.3M23.4 78.2l.2.7M23.5 78.9v.9M23.5 79.8l-.2.7M23.4 80.5l-.2.3M23.2 80.8l-.2.2M23 81l-.3.2M22.7 81.2h-.3M22.3 81.2 22 81M22 81l-.2-.2M21.8 80.8l-.2-.3M21.6 80.5l-.2-.7M21.5 79.8v-.9M21.5 78.9l.2-.7M21.6 78.2l.2-.3M21.8 77.9l.2-.2M22 77.7l.3-.2"/><path class="st11" d="M26.2 89.5H15.4"/><path class="st4" d="m28.6 91 .5.2M29.1 91.2h.9M30 91.2l.3-.2M30.3 91l.2-.2M30.5 90.8l.2-.3M30.7 90.5v-.3M30.7 90.2l-.2-.3M30.5 89.8l-.2-.2M30.3 89.6l-.3-.2M30 89.5l-.7-.2M29.3 89.3l-.3-.2M28.9 89.1l-.2-.2M28.8 89l-.2-.3M28.6 88.6v-.3M28.6 88.3l.2-.3M28.8 87.9l.2-.2M28.9 87.8l.3-.2M29.3 87.6h.9M30.1 87.6l.5.2M34.1 91.2H32M33.1 91.2v-3.6M33.1 87.6l-.3.5M32.7 88.1l-.3.3M32.4 88.4l-.3.2"/><path class="st0" d="M20.1 88.4H18M19.1 88.4v-3.6M19.1 84.8l-.3.5M18.7 85.3l-.3.3M18.4 85.6l-.3.2M23.5 88.4h-2.1M22.5 88.4v-3.6M22.5 84.8l-.3.5M22.2 85.3l-.3.3M21.8 85.6l-.3.2"/><path class="st11" d="M51.4 157.9v10.8"/><path class="st4" d="m49.6 153.5-.2.3M49.4 153.8v.5M49.4 154.3l.2.5M49.6 154.9l.3.3M49.9 155.2l.3.2M50.3 155.4l.7.2M51 155.5h.5M51.5 155.5l.7-.2M52.2 155.4l.3-.2M52.5 155.2l.3-.3M52.9 154.9l.2-.5M53 154.3v-.3M53 154l-.2-.5M52.9 153.5l-.2-.2M52.7 153.3h-1.2M51.5 153.3v.7M53 151.8h-3.6M49.4 151.8l3.6-2.1M53 149.7h-3.6M53 148h-3.6M49.4 148v-.9M49.4 147.1l.2-.5M49.6 146.6l.3-.3M49.9 146.3l.3-.2M50.3 146.1l.7-.2M51 145.9h.5M51.5 145.9l.7.2M52.2 146.1l.3.2M52.5 146.3l.3.3M52.9 146.6l.2.5M53 147.1v.9"/><path class="st0" d="M50.2 164v2.1M50.2 165.1h-3.6M46.6 165.1l.5.3M47.1 165.4l.3.3M47.5 165.7l.2.3M47 162.7l-.2-.2M46.8 162.5l-.2-.3M46.6 162.1v-.9M46.6 161.3l.2-.3M46.8 160.9l.2-.2M47 160.8l.3-.2M47.3 160.6h.3M47.6 160.6l.5.2M48.1 160.8l2.1 2.1M50.2 162.8v-2.2"/><path class="st11" d="M26.2 103.9H15.4"/><path class="st4" d="m28.6 105.4.5.2M29.1 105.6h.9M30 105.6l.3-.2M30.3 105.4l.2-.2M30.5 105.2l.2-.3M30.7 104.9v-.3M30.7 104.6l-.2-.3M30.5 104.2l-.2-.2M30.3 104l-.3-.2M30 103.9l-.7-.2M29.3 103.7l-.3-.2M28.9 103.5l-.2-.2M28.8 103.4l-.2-.3M28.6 103v-.3M28.6 102.7l.2-.3M28.8 102.3l.2-.2M28.9 102.2l.3-.2M29.3 102h.9M30.1 102l.5.2M31.9 102h2.2M34.1 102l-1.2 1.4M32.9 103.4h.5M33.4 103.4l.3.2M33.7 103.5l.2.2M33.9 103.7l.2.3M34.1 104v.9M34.1 104.9l-.2.3M33.9 105.2l-.2.2M33.7 105.4l-.3.2M33.4 105.6h-1M32.4 105.6l-.3-.2M32 105.4l-.2-.2"/><path class="st0" d="M20.1 102.8H18M19.1 102.8v-3.6M19.1 99.2l-.3.5M18.7 99.7l-.3.3M18.4 100l-.3.2M21.3 99.2h2.2M23.5 99.2l-1.2 1.4M22.3 100.5h.5M22.8 100.5l.3.2M23.2 100.7l.2.2M23.4 100.9l.2.3M23.5 101.2v.9M23.5 102.1l-.2.3M23.4 102.4l-.2.2M23.2 102.6l-.3.2M22.8 102.8h-1M21.8 102.8l-.3-.2M21.5 102.6l-.2-.2"/><path class="st11" d="M26.2 96.7H15.4"/><path class="st4" d="m28.6 98.2.5.2M29.1 98.4h.9M30 98.4l.3-.2M30.3 98.2l.2-.2M30.5 98l.2-.3M30.7 97.7v-.3M30.7 97.4l-.2-.3M30.5 97l-.2-.2M30.3 96.8l-.3-.2M30 96.7l-.7-.2M29.3 96.5l-.3-.2M28.9 96.3l-.2-.2M28.8 96.2l-.2-.3M28.6 95.8v-.3M28.6 95.5l.2-.3M28.8 95.1l.2-.2M28.9 95l.3-.2M29.3 94.8h.9M30.1 94.8l.5.2M32 95.1l.2-.2M32.2 95l.3-.2M32.5 94.8h.9M33.4 94.8l.3.2M33.7 95l.2.2M33.9 95.1l.2.3M34.1 95.5v.3M34.1 95.8l-.2.5M33.9 96.3l-2.1 2.1M31.9 98.4h2.2"/><path class="st0" d="M20.1 95.6H18M19.1 95.6V92M19.1 92l-.3.5M18.7 92.5l-.3.3M18.4 92.8l-.3.2M23.2 93.2v2.4M22.3 91.8l-.9 2.6M21.5 94.4h2.2"/><path class="st11" d="M26.2 132.7H15.4"/><path class="st4" d="M28.8 132.5H30M30.5 134.4h-1.7M28.8 134.4v-3.6M28.8 130.8h1.7M32 134.4v-3.6M32 130.8l2.1 3.6M34.1 134.4v-3.6M28.3 129.8h6.3"/><path class="st0" d="M20.1 131.6H18M19.1 131.6V128M19.1 128l-.3.5M18.7 128.5l-.3.3M18.4 128.8l-.3.2M23.4 128h-1.7M21.6 128l-.2 1.7M21.5 129.7l.2-.2M21.6 129.5l.3-.2M22 129.3h.9M22.8 129.3l.3.2M23.2 129.5l.2.2M23.4 129.7l.2.3M23.5 130v.9M23.5 130.9l-.2.3M23.4 131.2l-.2.2M23.2 131.4l-.3.2M22.8 131.6h-.9M22 131.6l-.3-.2M21.6 131.4l-.2-.2"/><path class="st11" d="M76.6 147.1h10.8"/><path class="st4" d="m67.3 148.4-.2.2M67.2 148.6l-.5.2M66.6 148.8h-.3M66.3 148.8l-.5-.2M65.8 148.6l-.3-.3M65.4 148.3l-.2-.3M65.3 147.9l-.2-.7M65.1 147.2v-.5M65.1 146.7l.2-.7M65.3 146l.2-.3M65.4 145.7l.3-.3M65.8 145.4l.5-.2M66.3 145.2h.3M66.6 145.2l.5.2M67.2 145.4l.2.2M70.8 148.8h-2.1M69.7 148.8v-3.6M69.7 145.2l-.3.5M69.4 145.7l-.3.3M69 146l-.3.2M74 145.2h-1.7M72.3 145.2l-.2 1.7M72.1 146.9l.2-.2M72.3 146.7l.3-.2M72.6 146.6h.9M73.5 146.6l.3.2M73.8 146.7l.2.2M74 146.9l.2.3M74.2 147.2v.9M74.2 148.1l-.2.3M74 148.4l-.2.2M73.8 148.6l-.3.2M73.5 148.8h-.9M72.6 148.8l-.3-.2M72.3 148.6l-.2-.2"/><path class="st0" d="M81.3 146h-2.1M80.3 146v-3.6M80.3 142.4l-.3.5M79.9 142.9l-.3.3M79.6 143.2l-.3.2M84.4 142.4h-.7M83.7 142.4l-.3.2M83.4 142.5l-.2.2M83.2 142.7l-.3.5M82.8 143.2l-.2.7M82.7 143.9v1.4M82.7 145.3l.2.3M82.8 145.6l.2.2M83 145.8l.3.2M83.4 146h.7M84 146l.3-.2M84.4 145.8l.2-.2M84.6 145.6l.2-.3M84.7 145.3v-.9M84.7 144.4l-.2-.3M84.6 144.1l-.2-.2M84.4 143.9l-.3-.2M84 143.7h-.7M83.4 143.7l-.3.2M83 143.9l-.2.2M82.8 144.1l-.2.3"/><path class="st11" d="M76.6 139.9h10.8"/><path class="st4" d="m67.3 141.2-.2.2M67.2 141.4l-.5.2M66.6 141.6h-.3M66.3 141.6l-.5-.2M65.8 141.4l-.3-.3M65.4 141.1l-.2-.3M65.3 140.7l-.2-.7M65.1 140v-.5M65.1 139.5l.2-.7M65.3 138.8l.2-.3M65.4 138.5l.3-.3M65.8 138.2l.5-.2M66.3 138h.3M66.6 138l.5.2M67.2 138.2l.2.2M70.8 141.6h-2.1M69.7 141.6V138M69.7 138l-.3.5M69.4 138.5l-.3.3M69 138.8l-.3.2M73.8 139.2v2.4M73 137.8l-.9 2.6M72.1 140.4h2.2"/><path class="st0" d="M81.3 138.8h-2.1M80.3 138.8v-3.6M80.3 135.2l-.3.5M79.9 135.7l-.3.3M79.6 136l-.3.2M82.5 135.2h2.4M84.9 135.2l-1.5 3.6"/><path class="st11" d="M76.6 132.7h10.8"/><path class="st4" d="m67.3 134-.2.2M67.2 134.2l-.5.2M66.6 134.4h-.3M66.3 134.4l-.5-.2M65.8 134.2l-.3-.3M65.4 133.9l-.2-.3M65.3 133.5l-.2-.7M65.1 132.8v-.5M65.1 132.3l.2-.7M65.3 131.6l.2-.3M65.4 131.3l.3-.3M65.8 131l.5-.2M66.3 130.8h.3M66.6 130.8l.5.2M67.2 131l.2.2M70.8 134.4h-2.1M69.7 134.4v-3.6M69.7 130.8l-.3.5M69.4 131.3l-.3.3M69 131.6l-.3.2M72 130.8h2.2M74.2 130.8l-1.2 1.4M73 132.2h.5M73.5 132.2l.3.2M73.8 132.3l.2.2M74 132.5l.2.3M74.2 132.8v.9M74.2 133.7l-.2.3M74 134l-.2.2M73.8 134.2l-.3.2M73.5 134.4h-1M72.5 134.4l-.3-.2M72.1 134.2l-.2-.2"/><path class="st0" d="M81.3 131.6h-2.1M80.3 131.6V128M80.3 128l-.3.5M79.9 128.5l-.3.3M79.6 128.8l-.3.2M83.4 129.5l-.3-.2M83 129.3l-.2-.2M82.8 129.2l-.2-.3M82.7 128.8v-.2M82.7 128.6l.2-.3M82.8 128.3l.2-.2M83 128.1l.3-.2M83.4 128h.7M84 128l.3.2M84.4 128.1l.2.2M84.6 128.3l.2.3M84.7 128.6v.2M84.7 128.8l-.2.3M84.6 129.2l-.2.2M84.4 129.3l-.3.2M84 129.5h-.7M83.4 129.5l-.3.2M83 129.7l-.2.2M82.8 129.8l-.2.3M82.7 130.2v.7M82.7 130.9l.2.3M82.8 131.2l.2.2M83 131.4l.3.2M83.4 131.6h.7M84 131.6l.3-.2M84.4 131.4l.2-.2M84.6 131.2l.2-.3M84.7 130.9v-.7M84.7 130.2l-.2-.3M84.6 129.8l-.2-.2M84.4 129.7l-.3-.2"/><path class="st11" d="M76.6 125.5h10.8"/><path class="st4" d="m67.3 126.8-.2.2M67.2 127l-.5.2M66.6 127.2h-.3M66.3 127.2l-.5-.2M65.8 127l-.3-.3M65.4 126.7l-.2-.3M65.3 126.3l-.2-.7M65.1 125.6v-.5M65.1 125.1l.2-.7M65.3 124.4l.2-.3M65.4 124.1l.3-.3M65.8 123.8l.5-.2M66.3 123.6h.3M66.6 123.6l.5.2M67.2 123.8l.2.2M70.8 127.2h-2.1M69.7 127.2v-3.6M69.7 123.6l-.3.5M69.4 124.1l-.3.3M69 124.4l-.3.2M72.1 123.9l.2-.2M72.3 123.8l.3-.2M72.6 123.6h.9M73.5 123.6l.3.2M73.8 123.8l.2.2M74 123.9l.2.3M74.2 124.3v.3M74.2 124.6l-.2.5M74 125.1l-2.1 2.1M72 127.2h2.2"/><path class="st0" d="M81.3 124.4h-2.1M80.3 124.4v-3.6M80.3 120.8l-.3.5M79.9 121.3l-.3.3M79.6 121.6l-.3.2M83 124.4h.7M83.7 124.4l.3-.2M84 124.2l.2-.2M84.2 124l.3-.5M84.6 123.5l.2-.7M84.7 122.8v-1.4M84.7 121.4l-.2-.3M84.6 121.1l-.2-.2M84.4 120.9l-.3-.2M84 120.8h-.7M83.4 120.8l-.3.2M83 120.9l-.2.2M82.8 121.1l-.2.3M82.7 121.4v.9M82.7 122.3l.2.3M82.8 122.6l.2.2M83 122.8l.3.2M83.4 123h.7M84 123l.3-.2M84.4 122.8l.2-.2M84.6 122.6l.2-.3"/><path class="st11" d="M76.6 89.5h10.8"/><path class="st4" d="m70.8 90.8-.2.2M70.6 91l-.5.2M70.1 91.2h-.3M69.7 91.2l-.5-.2M69.2 91l-.3-.3M68.9 90.7l-.2-.3M68.7 90.3l-.2-.7M68.5 89.6v-.5M68.5 89.1l.2-.7M68.7 88.4l.2-.3M68.9 88.1l.3-.3M69.2 87.8l.5-.2M69.7 87.6h.3M70.1 87.6l.5.2M70.6 87.8l.2.2M72 87.6h2.4M74.4 87.6l-1.5 3.6"/><path class="st0" d="m81 85.1.2-.2M81.1 84.9l.3-.2M81.5 84.8h.9M82.3 84.8l.3.2M82.7 84.9l.2.2M82.8 85.1l.2.3M83 85.4v.3M83 85.8l-.2.5M82.8 86.3l-2.1 2.1M80.8 88.4H83"/><path class="st11" d="M76.6 118.3h10.8"/><path class="st4" d="m67.3 119.6-.2.2M67.2 119.8l-.5.2M66.6 120h-.3M66.3 120l-.5-.2M65.8 119.8l-.3-.3M65.4 119.5l-.2-.3M65.3 119.1l-.2-.7M65.1 118.4v-.5M65.1 117.9l.2-.7M65.3 117.2l.2-.3M65.4 116.9l.3-.3M65.8 116.6l.5-.2M66.3 116.4h.3M66.6 116.4l.5.2M67.2 116.6l.2.2M70.8 120h-2.1M69.7 120v-3.6M69.7 116.4l-.3.5M69.4 116.9l-.3.3M69 117.2l-.3.2M74.2 120h-2.1M73.2 120v-3.6M73.2 116.4l-.3.5M72.8 116.9l-.3.3M72.5 117.2l-.3.2"/><path class="st0" d="m79.2 113.9.2-.2M79.4 113.7l.3-.2M79.8 113.6h.9M80.6 113.6l.3.2M81 113.7l.2.2M81.1 113.9l.2.3M81.3 114.2v.3M81.3 114.6l-.2.5M81.1 115.1l-2.1 2.1M79.1 117.2h2.2M83.5 113.6h.3M83.9 113.6l.3.2M84.2 113.7l.2.2M84.4 113.9l.2.3M84.6 114.2l.2.7M84.7 114.9v.9M84.7 115.8l-.2.7M84.6 116.5l-.2.3M84.4 116.8l-.2.2M84.2 117l-.3.2M83.9 117.2h-.3M83.5 117.2l-.3-.2M83.2 117l-.2-.2M83 116.8l-.2-.3M82.8 116.5l-.2-.7M82.7 115.8v-.9M82.7 114.9l.2-.7M82.8 114.2l.2-.3M83 113.9l.2-.2M83.2 113.7l.3-.2"/><path class="st11" d="M76.6 111.1h10.8"/><path class="st4" d="m67.3 112.4-.2.2M67.2 112.6l-.5.2M66.6 112.8h-.3M66.3 112.8l-.5-.2M65.8 112.6l-.3-.3M65.4 112.3l-.2-.3M65.3 111.9l-.2-.7M65.1 111.2v-.5M65.1 110.7l.2-.7M65.3 110l.2-.3M65.4 109.7l.3-.3M65.8 109.4l.5-.2M66.3 109.2h.3M66.6 109.2l.5.2M67.2 109.4l.2.2M70.8 112.8h-2.1M69.7 112.8v-3.6M69.7 109.2l-.3.5M69.4 109.7l-.3.3M69 110l-.3.2M73 109.2h.3M73.3 109.2l.3.2M73.7 109.4l.2.2M73.8 109.5l.2.3M74 109.9l.2.7M74.2 110.6v.9M74.2 111.4l-.2.7M74 112.1l-.2.3M73.8 112.4l-.2.2M73.7 112.6l-.3.2M73.3 112.8H73M73 112.8l-.3-.2M72.6 112.6l-.2-.2M72.5 112.4l-.2-.3M72.3 112.1l-.2-.7M72.1 111.4v-.9M72.1 110.6l.2-.7M72.3 109.9l.2-.3M72.5 109.5l.2-.2M72.6 109.4l.3-.2"/><path class="st0" d="m79.2 106.7.2-.2M79.4 106.5l.3-.2M79.8 106.4h.9M80.6 106.4l.3.2M81 106.5l.2.2M81.1 106.7l.2.3M81.3 107v.3M81.3 107.4l-.2.5M81.1 107.9 79 110M79.1 110h2.2M84.7 110h-2.1M83.7 110v-3.6M83.7 106.4l-.3.5M83.4 106.9l-.3.3M83 107.2l-.3.2"/><path class="st11" d="M76.6 103.9h10.8"/><path class="st4" d="m70.8 105.2-.2.2M70.6 105.4l-.5.2M70.1 105.6h-.3M69.7 105.6l-.5-.2M69.2 105.4l-.3-.3M68.9 105.1l-.2-.3M68.7 104.7l-.2-.7M68.5 104v-.5M68.5 103.5l.2-.7M68.7 102.8l.2-.3M68.9 102.5l.3-.3M69.2 102.2l.5-.2M69.7 102h.3M70.1 102l.5.2M70.6 102.2l.2.2M72.5 105.6h.7M73.2 105.6l.3-.2M73.5 105.4l.2-.2M73.7 105.2l.3-.5M74 104.7l.2-.7M74.2 104v-1.4M74.2 102.7l-.2-.3M74 102.3l-.2-.2M73.8 102.2l-.3-.2M73.5 102h-.7M72.8 102l-.3.2M72.5 102.2l-.2.2M72.3 102.3l-.2.3M72.1 102.7v.9M72.1 103.5l.2.3M72.3 103.9l.2.2M72.5 104l.3.2M72.8 104.2h.7M73.5 104.2l.3-.2M73.8 104l.2-.2M74 103.9l.2-.3"/><path class="st0" d="m79.2 99.5.2-.2M79.4 99.3l.3-.2M79.8 99.2h.9M80.6 99.2l.3.2M81 99.3l.2.2M81.1 99.5l.2.3M81.3 99.8v.3M81.3 100.2l-.2.5M81.1 100.7l-2.1 2.1M79.1 102.8h2.2M82.7 99.5l.2-.2M82.8 99.3l.3-.2M83.2 99.2h.9M84 99.2l.3.2M84.4 99.3l.2.2M84.6 99.5l.2.3M84.7 99.8v.3M84.7 100.2l-.2.5M84.6 100.7l-2.1 2.1M82.5 102.8h2.2"/><path class="st11" d="M76.6 96.7h10.8"/><path class="st4" d="m70.8 98-.2.2M70.6 98.2l-.5.2M70.1 98.4h-.3M69.7 98.4l-.5-.2M69.2 98.2l-.3-.3M68.9 97.9l-.2-.3M68.7 97.5l-.2-.7M68.5 96.8v-.5M68.5 96.3l.2-.7M68.7 95.6l.2-.3M68.9 95.3l.3-.3M69.2 95l.5-.2M69.7 94.8h.3M70.1 94.8l.5.2M70.6 95l.2.2M72.8 96.3l-.3-.2M72.5 96.2l-.2-.2M72.3 96l-.2-.3M72.1 95.6v-.2M72.1 95.5l.2-.3M72.3 95.1l.2-.2M72.5 95l.3-.2M72.8 94.8h.7M73.5 94.8l.3.2M73.8 95l.2.2M74 95.1l.2.3M74.2 95.5v.2M74.2 95.6l-.2.3M74 96l-.2.2M73.8 96.2l-.3.2M73.5 96.3h-.7M72.8 96.3l-.3.2M72.5 96.5l-.2.2M72.3 96.7l-.2.3M72.1 97v.7M72.1 97.7l.2.3M72.3 98l.2.2M72.5 98.2l.3.2M72.8 98.4h.7M73.5 98.4l.3-.2M73.8 98.2l.2-.2M74 98l.2-.3M74.2 97.7V97M74.2 97l-.2-.3M74 96.7l-.2-.2M73.8 96.5l-.3-.2"/><path class="st0" d="m79.2 92.3.2-.2M79.4 92.1l.3-.2M79.8 92h.9M80.6 92l.3.2M81 92.1l.2.2M81.1 92.3l.2.3M81.3 92.6v.3M81.3 93l-.2.5M81.1 93.5 79 95.6M79.1 95.6h2.2M82.5 92h2.2M84.7 92l-1.2 1.4M83.5 93.3h.5M84 93.3l.3.2M84.4 93.5l.2.2M84.6 93.7l.2.3M84.7 94v.9M84.7 94.9l-.2.3M84.6 95.2l-.2.2M84.4 95.4l-.3.2M84 95.6h-1M83 95.6l-.3-.2M82.7 95.4l-.2-.2"/><path class="st11" d="M51.4 28.3V17.5"/><path class="st4" d="m49.4 40 3.6-1.2M53 38.8l-3.6-1.2M52.7 34.4l.2.2M52.9 34.5l.2.5M53 35v.3M53 35.4l-.2.5M52.9 35.9l-.3.3M52.5 36.2l-.3.2M52.2 36.4l-.7.2M51.5 36.6H51M51 36.6l-.7-.2M50.3 36.4l-.3-.2M49.9 36.2l-.3-.3M49.6 35.9l-.2-.5M49.4 35.4v-.3M49.4 35l.2-.5M49.6 34.5l.2-.2M52.7 30.8l.2.2M52.9 30.9l.2.5M53 31.4v.3M53 31.8l-.2.5M52.9 32.3l-.3.3M52.5 32.6l-.3.2M52.2 32.8l-.7.2M51.5 33H51M51 33l-.7-.2M50.3 32.8l-.3-.2M49.9 32.6l-.3-.3M49.6 32.3l-.2-.5M49.4 31.8v-.3M49.4 31.4l.2-.5M49.6 30.9l.2-.2"/><path class="st0" d="m47 25.7-.2-.2M46.8 25.5l-.2-.3M46.6 25.2v-.9M46.6 24.3l.2-.3M46.8 24l.2-.2M47 23.8l.3-.2M47.3 23.6h.3M47.6 23.6l.5.2M48.1 23.8l2.1 2.1M50.2 25.9v-2.2M47.8 20.5h2.4M46.4 21.4l2.6.9M49 22.3v-2.2"/><path class="st11" d="M76.6 82.3h10.8"/><path class="st4" d="m70.8 83.6-.2.2M70.6 83.8l-.5.2M70.1 84h-.3M69.7 84l-.5-.2M69.2 83.8l-.3-.3M68.9 83.5l-.2-.3M68.7 83.1l-.2-.7M68.5 82.4v-.5M68.5 81.9l.2-.7M68.7 81.2l.2-.3M68.9 80.9l.3-.3M69.2 80.6l.5-.2M69.7 80.4h.3M70.1 80.4l.5.2M70.6 80.6l.2.2M73.8 80.4h-.7M73.2 80.4l-.3.2M72.8 80.6l-.2.2M72.6 80.7l-.3.5M72.3 81.2l-.2.7M72.1 81.9v1.4M72.1 83.3l.2.3M72.3 83.6l.2.2M72.5 83.8l.3.2M72.8 84h.7M73.5 84l.3-.2M73.8 83.8l.2-.2M74 83.6l.2-.3M74.2 83.3v-.9M74.2 82.4l-.2-.3M74 82.1l-.2-.2M73.8 81.9l-.3-.2M73.5 81.8h-.7M72.8 81.8l-.3.2M72.5 81.9l-.2.2M72.3 82.1l-.2.3"/><path class="st0" d="M80.8 77.6H83M83 77.6 81.8 79M81.8 78.9h.5M82.3 78.9l.3.2M82.7 79.1l.2.2M82.8 79.3l.2.3M83 79.6v.9M83 80.5l-.2.3M82.8 80.8l-.2.2M82.7 81l-.3.2M82.3 81.2h-1M81.3 81.2 81 81M81 81l-.2-.2"/><path class="st11" d="M76.6 75.1h10.8"/><path class="st4" d="m70.8 76.4-.2.2M70.6 76.6l-.5.2M70.1 76.8h-.3M69.7 76.8l-.5-.2M69.2 76.6l-.3-.3M68.9 76.3l-.2-.3M68.7 75.9l-.2-.7M68.5 75.2v-.5M68.5 74.7l.2-.7M68.7 74l.2-.3M68.9 73.7l.3-.3M69.2 73.4l.5-.2M69.7 73.2h.3M70.1 73.2l.5.2M70.6 73.4l.2.2M73.8 73.2h-.7M73.2 73.2l-.3.2M72.8 73.4l-.2.2M72.6 73.5l-.3.5M72.3 74l-.2.7M72.1 74.7v1.4M72.1 76.1l.2.3M72.3 76.4l.2.2M72.5 76.6l.3.2M72.8 76.8h.7M73.5 76.8l.3-.2M73.8 76.6l.2-.2M74 76.4l.2-.3M74.2 76.1v-.9M74.2 75.2l-.2-.3M74 74.9l-.2-.2M73.8 74.7l-.3-.2M73.5 74.6h-.7M72.8 74.6l-.3.2M72.5 74.7l-.2.2M72.3 74.9l-.2.3"/><path class="st0" d="M82.7 71.6V74M81.8 70.2l-.9 2.6M81 72.8h2.2"/><path class="st11" d="M76.6 67.9h10.8"/><path class="st4" d="m70.8 69.2-.2.2M70.6 69.4l-.5.2M70.1 69.6h-.3M69.7 69.6l-.5-.2M69.2 69.4l-.3-.3M68.9 69.1l-.2-.3M68.7 68.7l-.2-.7M68.5 68v-.5M68.5 67.5l.2-.7M68.7 66.8l.2-.3M68.9 66.5l.3-.3M69.2 66.2l.5-.2M69.7 66h.3M70.1 66l.5.2M70.6 66.2l.2.2M73.8 67.2v2.4M73 65.8l-.9 2.6M72.1 68.4h2.2"/><path class="st0" d="M82.8 63.2h-1.7M81.1 63.2l-.2 1.7M81 64.9l.2-.2M81.1 64.7l.3-.2M81.5 64.5h.9M82.3 64.5l.3.2M82.7 64.7l.2.2M82.8 64.9l.2.3M83 65.2v.9M83 66.1l-.2.3M82.8 66.4l-.2.2M82.7 66.6l-.3.2M82.3 66.8h-.9M81.5 66.8l-.3-.2M81.1 66.6l-.2-.2"/><path class="st11" d="M76.6 60.7h10.8"/><path class="st4" d="m70.8 62-.2.2M70.6 62.2l-.5.2M70.1 62.4h-.3M69.7 62.4l-.5-.2M69.2 62.2l-.3-.3M68.9 61.9l-.2-.3M68.7 61.5l-.2-.7M68.5 60.8v-.5M68.5 60.3l.2-.7M68.7 59.6l.2-.3M68.9 59.3l.3-.3M69.2 59l.5-.2M69.7 58.8h.3M70.1 58.8l.5.2M70.6 59l.2.2M72 58.8h2.2M74.2 58.8 73 60.2M73 60.2h.5M73.5 60.2l.3.2M73.8 60.3l.2.2M74 60.5l.2.3M74.2 60.8v.9M74.2 61.7l-.2.3M74 62l-.2.2M73.8 62.2l-.3.2M73.5 62.4h-1M72.5 62.4l-.3-.2M72.1 62.2l-.2-.2"/><path class="st0" d="M82.7 56H82M82 56l-.3.2M81.6 56.1l-.2.2M81.5 56.3l-.3.5M81.1 56.8l-.2.7M81 57.5v1.4M81 58.9l.2.3M81.1 59.2l.2.2M81.3 59.4l.3.2M81.6 59.6h.7M82.3 59.6l.3-.2M82.7 59.4l.2-.2M82.8 59.2l.2-.3M83 58.9V58M83 58l-.2-.3M82.8 57.7l-.2-.2M82.7 57.5l-.3-.2M82.3 57.3h-.7M81.6 57.3l-.3.2M81.3 57.5l-.2.2M81.1 57.7l-.2.3"/><path class="st11" d="M76.6 53.5h10.8"/><path class="st4" d="m70.8 54.8-.2.2M70.6 55l-.5.2M70.1 55.2h-.3M69.7 55.2l-.5-.2M69.2 55l-.3-.3M68.9 54.7l-.2-.3M68.7 54.3l-.2-.7M68.5 53.6v-.5M68.5 53.1l.2-.7M68.7 52.4l.2-.3M68.9 52.1l.3-.3M69.2 51.8l.5-.2M69.7 51.6h.3M70.1 51.6l.5.2M70.6 51.8l.2.2M72.1 51.9l.2-.2M72.3 51.8l.3-.2M72.6 51.6h.9M73.5 51.6l.3.2M73.8 51.8l.2.2M74 51.9l.2.3M74.2 52.3v.3M74.2 52.6l-.2.5M74 53.1l-2.1 2.1M72 55.2h2.2"/><path class="st0" d="M80.8 48.8h2.4M83.2 48.8l-1.5 3.6"/><path class="st11" d="M76.6 46.3h10.8"/><path class="st4" d="m70.8 47.6-.2.2M70.6 47.8l-.5.2M70.1 48h-.3M69.7 48l-.5-.2M69.2 47.8l-.3-.3M68.9 47.5l-.2-.3M68.7 47.1l-.2-.7M68.5 46.4v-.5M68.5 45.9l.2-.7M68.7 45.2l.2-.3M68.9 44.9l.3-.3M69.2 44.6l.5-.2M69.7 44.4h.3M70.1 44.4l.5.2M70.6 44.6l.2.2M74.2 48h-2.1M73.2 48v-3.6M73.2 44.4l-.3.5M72.8 44.9l-.3.3M72.5 45.2l-.3.2"/><path class="st0" d="m81.6 43.1-.3-.2M81.3 42.9l-.2-.2M81.1 42.8l-.2-.3M81 42.4v-.2M81 42.2l.2-.3M81.1 41.9l.2-.2M81.3 41.7l.3-.2M81.6 41.6h.7M82.3 41.6l.3.2M82.7 41.7l.2.2M82.8 41.9l.2.3M83 42.2v.2M83 42.4l-.2.3M82.8 42.8l-.2.2M82.7 42.9l-.3.2M82.3 43.1h-.7M81.6 43.1l-.3.2M81.3 43.3l-.2.2M81.1 43.4l-.2.3M81 43.8v.7M81 44.5l.2.3M81.1 44.8l.2.2M81.3 45l.3.2M81.6 45.2h.7M82.3 45.2l.3-.2M82.7 45l.2-.2M82.8 44.8l.2-.3M83 44.5v-.7M83 43.8l-.2-.3M82.8 43.4l-.2-.2M82.7 43.3l-.3-.2"/><path class="st11" d="M76.6 39.1h10.8"/><path class="st4" d="m70.8 40.4-.2.2M70.6 40.6l-.5.2M70.1 40.8h-.3M69.7 40.8l-.5-.2M69.2 40.6l-.3-.3M68.9 40.3l-.2-.3M68.7 39.9l-.2-.7M68.5 39.2v-.5M68.5 38.7l.2-.7M68.7 38l.2-.3M68.9 37.7l.3-.3M69.2 37.4l.5-.2M69.7 37.2h.3M70.1 37.2l.5.2M70.6 37.4l.2.2M73 37.2h.3M73.3 37.2l.3.2M73.7 37.4l.2.2M73.8 37.5l.2.3M74 37.9l.2.7M74.2 38.6v.9M74.2 39.4l-.2.7M74 40.1l-.2.3M73.8 40.4l-.2.2M73.7 40.6l-.3.2M73.3 40.8H73M73 40.8l-.3-.2M72.6 40.6l-.2-.2M72.5 40.4l-.2-.3M72.3 40.1l-.2-.7M72.1 39.4v-.9M72.1 38.6l.2-.7M72.3 37.9l.2-.3M72.5 37.5l.2-.2M72.6 37.4l.3-.2"/><path class="st0" d="M81.3 38h.7M82 38l.3-.2M82.3 37.8l.2-.2M82.5 37.6l.3-.5M82.8 37.1l.2-.7M83 36.4V35M83 35l-.2-.3M82.8 34.7l-.2-.2M82.7 34.5l-.3-.2M82.3 34.4h-.7M81.6 34.4l-.3.2M81.3 34.5l-.2.2M81.1 34.7l-.2.3M81 35v.9M81 35.9l.2.3M81.1 36.2l.2.2M81.3 36.4l.3.2M81.6 36.6h.7M82.3 36.6l.3-.2M82.7 36.4l.2-.2M82.8 36.2l.2-.3"/><path class="st11" d="M94.6 46.3h-7.2M109 46.3h7.2"/><path class="st4" d="M46.8 3.4h2.7M48.1 4.8V2.1M52.9 1.2h-1.7M51.2 1.2 51 2.9M51 2.9l.2-.2M51.2 2.7l.3-.2M51.6 2.6h.9M52.4 2.6l.3.2M52.8 2.7l.2.2M52.9 2.9l.2.3M53.1 3.2v.9M53.1 4.1l-.2.3M52.9 4.4l-.2.2M52.8 4.6l-.3.2M52.4 4.8h-.9M51.6 4.8l-.3-.2M51.2 4.6l-.2-.2M54.1 1.2l1.2 3.6M55.3 4.8l1.2-3.6"/><path class="st11" d="M51.4 17.5h0M94.6 39.1h-7.2M109 39.1h7.2M94.6 53.5h-7.2M109 53.5h7.2"/><path class="st4" d="m48.6 181.4-.3-.2M48.3 181.2h-.5M47.8 181.2l-.5.2M47.3 181.4l-.3.3M46.9 181.7l-.2.3M46.8 182l-.2.7M46.6 182.7v.5M46.6 183.2l.2.7M46.8 183.9l.2.3M46.9 184.3l.3.3M47.3 184.6l.5.2M47.8 184.8h.3M48.1 184.8l.5-.2M48.6 184.6l.2-.2M48.8 184.4v-1.2M48.8 183.2h-.7M50.4 184.8v-3.6M50.4 181.2l2.1 3.6M52.4 184.8v-3.6M54.1 184.8v-3.6M54.1 181.2h.9M55 181.2l.5.2M55.5 181.4l.3.3M55.8 181.7l.2.3M56 182l.2.7M56.2 182.7v.5M56.2 183.2l-.2.7M56 183.9l-.2.3M55.8 184.3l-.3.3M55.5 184.6l-.5.2M55 184.8h-.9"/><path class="st11" d="M51.4 168.7h0M94.6 147.1h-7.2M109 147.1h7.2M94.6 118.3h-7.2M109 118.3h7.2M94.6 132.7h-7.2M109 132.7h7.2M94.6 125.5h-7.2M109 125.5h7.2M94.6 139.9h-7.2M109 139.9h7.2M94.6 96.7h-7.2M109 96.7h7.2M94.6 111.1h-7.2M109 111.1h7.2M94.6 103.9h-7.2M109 103.9h7.2M94.6 82.3h-7.2M109 82.3h7.2M94.6 89.5h-7.2M109 89.5h7.2M94.6 75.1h-7.2M109 75.1h7.2M94.6 60.7h-7.2M109 60.7h7.2M94.6 67.9h-7.2M109 67.9h7.2"/><circle class="st8" cx="51.4" cy="168.7" r="1.3"/><circle class="st8" cx="116.2" cy="82.3" r="1.3"/><circle class="st8" cx="116.2" cy="75.1" r="1.3"/><circle class="st8" cx="116.2" cy="67.9" r="1.3"/><circle class="st8" cx="116.2" cy="46.3" r="1.3"/><circle class="st8" cx="116.2" cy="53.5" r="1.3"/><circle class="st8" cx="116.2" cy="60.7" r="1.3"/><circle class="st8" cx="116.2" cy="118.3" r="1.3"/><circle class="st8" cx="116.2" cy="125.5" r="1.3"/><circle class="st8" cx="116.2" cy="111.1" r="1.3"/><circle class="st8" cx="116.2" cy="96.7" r="1.3"/><circle class="st8" cx="116.2" cy="89.5" r="1.3"/><circle class="st8" cx="116.2" cy="103.9" r="1.3"/><circle class="st8" cx="116.2" cy="132.7" r="1.3"/><circle class="st8" cx="116.2" cy="139.9" r="1.3"/><circle class="st8" cx="116.2" cy="147.1" r="1.3"/></svg>