<svg id="Layer_1" xmlns="http://www.w3.org/2000/svg" version="1.1" viewBox="0 0 212 174.3"><defs><style>.st0{letter-spacing:.9em}.st1{letter-spacing:.1em}.st2{stroke:#000084}.st10,.st11,.st2,.st3,.st4,.st5,.st6,.st7,.st8{stroke-linecap:round;stroke-linejoin:round;fill:none}.st10,.st11,.st2,.st3,.st4,.st5,.st6,.st7,.st8{stroke-width:.4px}.st3,.st6,.st7{font-family:ArialMT,Arial;font-size:4.8px}.st10,.st3{stroke:#0f0f0f}.st4{stroke:#009600}.st12{letter-spacing:.9em}.st13{fill:#ffffc2}.st5,.st7{stroke:#006464}.st6,.st8{stroke:#0000c2}.st14{letter-spacing:1.1em}.st15{isolation:isolate;opacity:0}.st16,.st17{letter-spacing:.2em}.st18{letter-spacing:.3em}.st19{letter-spacing:.4em}.st20{letter-spacing:.1em}.st11{stroke:#840000}.st21,.st22{letter-spacing:.1em}</style></defs><path class="st13" d="M.2 43.9h115.2v93.6H.2z"/><path class="st13" d="M14.6 58.3h36v28.8h-36zM65 58.3h36v28.8H65z"/><circle class="st11" cx="25.4" cy="72.7" r="5.4"/><circle class="st11" cx="39.8" cy="72.7" r="5.4"/><circle class="st11" cx="75.8" cy="72.7" r="5.4"/><circle class="st11" cx="90.2" cy="72.7" r="5.4"/><path class="st11" d="M.2 43.9h115.2v93.6H.2z"/><path class="st11" d="M14.6 105.1h36v18h-36zM14.6 58.3h36v28.8h-36zM65 58.3h36v28.8H65zM86.6 43.9v-7.2"/><path class="st5" d="m84.8 53.8-.2.3M84.7 54.1v.5M84.7 54.7l.2.5M84.8 55.2l.3.3M85.2 55.5l.3.2M85.5 55.7l.7.2M86.2 55.9h.5M86.7 55.9l.7-.2M87.4 55.7l.3-.2M87.7 55.5l.3-.3M88.1 55.2l.2-.5M88.3 54.7v-.3M88.3 54.3l-.2-.5M88.1 53.8l-.2-.2M87.9 53.6h-1.2M86.7 53.6v.7M88.3 52.1h-3.6M84.7 52.1l3.6-2.1M88.3 50h-3.6M88.3 48.3h-3.6M84.7 48.3v-.9M84.7 47.5l.2-.5M84.8 46.9l.3-.3M85.2 46.6l.3-.2M85.5 46.4l.7-.2M86.2 46.3h.5M86.7 46.3l.7.2M87.4 46.4l.3.2M87.7 46.6l.3.3M88.1 46.9l.2.5M88.3 47.5v.9"/><path class="st11" d="M90.2 137.5v7.2"/><path class="st5" d="m88.4 133-.2.3M88.3 133.3v.5M88.3 133.8l.2.5M88.4 134.4l.3.3M88.8 134.7l.3.2M89.1 134.9l.7.2M89.8 135h.5M90.3 135l.7-.2M91 134.9l.3-.2M91.3 134.7l.3-.3M91.7 134.4l.2-.5M91.9 133.8v-.3M91.9 133.5l-.2-.5M91.7 133l-.2-.2M91.5 132.8h-1.2M90.3 132.8v.7M91.9 131.3h-3.6M88.3 131.3l3.6-2.1M91.9 129.2h-3.6M91.9 127.5h-3.6M88.3 127.5v-.9M88.3 126.6l.2-.5M88.4 126.1l.3-.3M88.8 125.8l.3-.2M89.1 125.6l.7-.2M89.8 125.4h.5M90.3 125.4l.7.2M91 125.6l.3.2M91.3 125.8l.3.3M91.7 126.1l.2.5M91.9 126.6v.9"/><path class="st11" d="M75.8 137.5v7.2"/><path class="st5" d="m77.3 135 .2-.5M77.5 134.5v-.9M77.5 133.7l-.2-.3M77.3 133.3l-.2-.2M77.1 133.2l-.3-.2M76.8 133h-.3M76.4 133l-.3.2M76.1 133.2l-.2.2M75.9 133.3l-.2.3M75.7 133.7l-.2.7M75.6 134.4l-.2.3M75.4 134.7l-.2.2M75.2 134.9l-.3.2M74.9 135h-.3M74.5 135l-.3-.2M74.2 134.9l-.2-.2M74 134.7l-.2-.3M73.9 134.4v-.9M73.9 133.5l.2-.5M77.5 131.4h-3.6M74 127.8l-.2.3M73.9 128.2v.5M73.9 128.7l.2.5M74 129.2l.3.3M74.4 129.6l.3.2M74.7 129.7l.7.2M75.4 129.9h.5M75.9 129.9l.7-.2M76.6 129.7l.3-.2M76.9 129.6l.3-.3M77.3 129.2l.2-.5M77.5 128.7v-.3M77.5 128.4l-.2-.5M77.3 127.8l-.2-.2M77.1 127.7h-1.2M75.9 127.7v.7"/><path class="st11" d="M29 43.9v-7.2"/><path class="st5" d="m27.1 52.8 3.6-1.2M30.7 51.6l-3.6-1.2M29.3 49.2v-2.7M30.7 47.8H28"/><path class="st11" d="M36.2 43.9v-7.2"/><path class="st5" d="m34.3 52.8 3.6-1.2M37.9 51.6l-3.6-1.2M36.5 49.2v-2.7"/><path class="st11" d="M83 137.5v7.2"/><path class="st5" d="m81.1 135.4 3.6-1.2M84.7 134.2l-3.6-1.2M84.3 129.7l.2.2M84.5 129.9l.2.5M84.7 130.4v.3M84.7 130.8l-.2.5M84.5 131.3l-.3.3M84.1 131.6l-.3.2M83.8 131.8l-.7.2M83.1 132h-.5M82.6 132l-.7-.2M81.9 131.8l-.3-.2M81.6 131.6l-.3-.3M81.2 131.3l-.2-.5M81.1 130.8v-.3M81.1 130.4l.2-.5M81.2 129.9l.2-.2M84.3 126.1l.2.2M84.5 126.3l.2.5M84.7 126.8v.3M84.7 127.2l-.2.5M84.5 127.7l-.3.3M84.1 128l-.3.2M83.8 128.2l-.7.2M83.1 128.4h-.5M82.6 128.4l-.7-.2M81.9 128.2l-.3-.2M81.6 128l-.3-.3M81.2 127.7l-.2-.5M81.1 127.2v-.3M81.1 126.8l.2-.5M81.2 126.3l.2-.2"/><path class="st11" d="M79.4 43.9v-7.2"/><path class="st5" d="m77.5 53.8 3.6-1.2M81.1 52.6l-3.6-1.2M81.1 50.2h-3.6M81.1 48.5h-3.6M77.5 48.5l3.6-2.1M81.1 46.4h-3.6"/><path class="st11" d="m77.3 33.1 2.2-3.6M79.4 36.7v-7.2M79.4 29.5l2.2 3.6M79.4 36.7h0"/><path class="st5" d="M73.1 22.5h2.7M74.4 23.9v-2.7M79.4 23.9h-2.1M78.4 23.9v-3.6M78.4 20.3l-.3.5M78 20.8l-.3.3M77.7 21.2l-.3.2M80.8 20.6l.2-.2M81 20.5l.3-.2M81.3 20.3h.9M82.2 20.3l.3.2M82.5 20.5l.2.2M82.7 20.6l.2.3M82.8 21v.3M82.8 21.3l-.2.5M82.7 21.8l-2.1 2.1M80.6 23.9h2.2M83.9 20.3l1.2 3.6M85.1 23.9l1.2-3.6"/><path class="st11" d="M90.2 144.7v3.6h3.6l-3.6 3.6-3.6-3.6h3.6M90.2 144.7h0"/><path class="st5" d="m87.5 157.3-.3-.2M87.1 157.1h-.5M86.6 157.1l-.5.2M86.1 157.3l-.3.3M85.8 157.6l-.2.3M85.6 158l-.2.7M85.4 158.6v.5M85.4 159.2l.2.7M85.6 159.8l.2.3M85.8 160.2l.3.3M86.1 160.5l.5.2M86.6 160.7h.3M87 160.7l.5-.2M87.5 160.5l.2-.2M87.6 160.4v-1.2M87.6 159.2h-.7M89.2 160.7v-3.6M89.2 157.1l2.1 3.6M91.2 160.7v-3.6M93 160.7v-3.6M93 157.1h.9M93.8 157.1l.5.2M94.3 157.3l.3.3M94.7 157.6l.2.3M94.8 158l.2.7M95 158.6v.5M95 159.2l-.2.7M94.8 159.8l-.2.3M94.7 160.2l-.3.3M94.3 160.5l-.5.2M93.8 160.7h-.9"/><path class="st10" d="M24 37.5v-2.1M27.6 36.4H24M24 33.5v-.7M24 32.8l.2-.3M24.1 32.5l.3-.3M24.5 32.1l.7-.2M25.2 32h1.2M26.4 32l.7.2M27 32.1l.3.3M27.4 32.5l.2.3M27.6 32.8v.7M27.6 33.5l-.2.3M27.4 33.9l-.3.3M27 34.2l-.7.2M26.4 34.4h-1.2M25.2 34.4l-.7-.2M24.5 34.2l-.3-.3M24.1 33.9l-.2-.3M27.6 26v1.7M27.6 27.7H24M25.7 24.8v-1.2M27.6 23.1v1.7M27.6 24.8H24M24 24.8v-1.7M27.6 21.5H24M24 21.5v-.9M24 20.7l.2-.5M24.1 20.1l.3-.3M24.5 19.8l.3-.2M24.8 19.6l.7-.2M25.5 19.5h.5M26 19.5l.7.2M26.7 19.6l.3.2M27 19.8l.3.3M27.4 20.1l.2.5M27.6 20.7v.9M27.4 15.3l.2-.5M27.6 14.8v-.9M27.6 14l-.2-.3M27.4 13.6l-.2-.2M27.2 13.5l-.3-.2M26.9 13.3h-.3M26.5 13.3l-.3.2M26.2 13.5l-.2.2M26 13.6l-.2.3M25.8 14l-.2.7M25.7 14.7l-.2.3M25.5 15l-.2.2M25.3 15.2l-.3.2M25 15.3h-.3M24.6 15.3l-.3-.2M24.3 15.2l-.2-.2M24.1 15l-.2-.3M24 14.7v-.9M24 13.8l.2-.5M24 12.3v-2.1M27.6 11.2H24M27.6 6.9l-1.7 1.2M27.6 9H24M24 9V7.6M24 7.6l.2-.3M24.1 7.3l.2-.2M24.3 7.1l.3-.2M24.6 6.9h.5M25.2 6.9l.3.2M25.5 7.1l.2.2M25.7 7.3l.2.3M25.8 7.6V9M27.6 5.4H24M27.6 3.7H24M24 3.7V2.3M24 2.3l.2-.3M24.1 2l.2-.2M24.3 1.8l.3-.2M24.6 1.6h.5M25.2 1.6l.3.2M25.5 1.8l.2.2M25.7 2l.2.3M25.8 2.3v1.4M31.2 37.5v-2.1M34.8 36.4h-3.6M31.2 33.5v-.7M31.2 32.8l.2-.3M31.3 32.5l.3-.3M31.7 32.1l.7-.2M32.4 32h1.2M33.6 32l.7.2M34.2 32.1l.3.3M34.6 32.5l.2.3M34.8 32.8v.7M34.8 33.5l-.2.3M34.6 33.9l-.3.3M34.2 34.2l-.7.2M33.6 34.4h-1.2M32.4 34.4l-.7-.2M31.7 34.2l-.3-.3M31.3 33.9l-.2-.3M34.8 26v1.7M34.8 27.7h-3.6M32.9 24.8v-1.2M34.8 23.1v1.7M34.8 24.8h-3.6M31.2 24.8v-1.7M34.8 21.5h-3.6M31.2 21.5v-.9M31.2 20.7l.2-.5M31.3 20.1l.3-.3M31.7 19.8l.3-.2M32 19.6l.7-.2M32.7 19.5h.5M33.2 19.5l.7.2M33.9 19.6l.3.2M34.2 19.8l.3.3M34.6 20.1l.2.5M34.8 20.7v.9M34.6 15.3l.2-.5M34.8 14.8v-.9M34.8 14l-.2-.3M34.6 13.6l-.2-.2M34.4 13.5l-.3-.2M34.1 13.3h-.3M33.7 13.3l-.3.2M33.4 13.5l-.2.2M33.2 13.6l-.2.3M33 14l-.2.7M32.9 14.7l-.2.3M32.7 15l-.2.2M32.5 15.2l-.3.2M32.2 15.3h-.3M31.8 15.3l-.3-.2M31.5 15.2l-.2-.2M31.3 15l-.2-.3M31.2 14.7v-.9M31.2 13.8l.2-.5M31.2 12.3v-2.1M34.8 11.2h-3.6M34.8 6.9l-1.7 1.2M34.8 9h-3.6M31.2 9V7.6M31.2 7.6l.2-.3M31.3 7.3l.2-.2M31.5 7.1l.3-.2M31.8 6.9h.5M32.4 6.9l.3.2M32.7 7.1l.2.2M32.9 7.3l.2.3M33 7.6V9M34.8 5.4h-3.6M34.8 3.7h-3.6M31.2 3.7V2.3M31.2 2.3l.2-.3M31.3 2l.2-.2M31.5 1.8l.3-.2M31.8 1.6h.5M32.4 1.6l.3.2M32.7 1.8l.2.2M32.9 2l.2.3M33 2.3v1.4M70.8 172.8v-2.1M74.4 171.8h-3.6M70.8 168.9v-.7M70.8 168.2l.2-.3M70.9 167.9l.3-.3M71.3 167.5l.7-.2M72 167.3h1.2M73.2 167.3l.7.2M73.8 167.5l.3.3M74.2 167.9l.2.3M74.4 168.2v.7M74.4 168.9l-.2.3M74.2 169.2l-.3.3M73.8 169.6l-.7.2M73.2 169.7H72M72 169.7l-.7-.2M71.3 169.6l-.3-.3M70.9 169.2l-.2-.3M72.5 161.9l.2-.5M72.6 161.3l.2-.2M72.8 161.2l.3-.2M73.2 161h.5M73.7 161l.3.2M74 161.2l.2.2M74.2 161.3l.2.3M74.4 161.7v1.4M74.4 163.1h-3.6M70.8 163.1v-1.2M70.8 161.9l.2-.3M70.9 161.5l.2-.2M71.1 161.3l.3-.2M71.4 161.2h.3M71.8 161.2l.3.2M72.1 161.3l.2.2M72.3 161.5l.2.3M72.5 161.9v1.2M70.8 158.8v-.7M70.8 158.1l.2-.3M70.9 157.7l.3-.3M71.3 157.4l.7-.2M72 157.2h1.2M73.2 157.2l.7.2M73.8 157.4l.3.3M74.2 157.7l.2.3M74.4 158.1v.7M74.4 158.8l-.2.3M74.2 159.1l-.3.3M73.8 159.5l-.7.2M73.2 159.6H72M72 159.6l-.7-.2M71.3 159.5l-.3-.3M70.9 159.1l-.2-.3M73.3 155.9v-1.7M74.4 156.2l-3.6-1.2M70.8 155l3.6-1.2M74.4 150.5l-1.7 1.2M74.4 152.6h-3.6M70.8 152.6v-1.4M70.8 151.2l.2-.3M70.9 150.9l.2-.2M71.1 150.7l.3-.2M71.4 150.5h.5M72 150.5l.3.2M72.3 150.7l.2.2M72.5 150.9l.2.3M72.6 151.2v1.4M74.4 149h-3.6M70.8 149v-.9M70.8 148.1l.2-.5M70.9 147.6l.3-.3M71.3 147.3l.3-.2M71.6 147.1l.7-.2M72.3 146.9h.5M72.8 146.9l.7.2M73.5 147.1l.3.2M73.8 147.3l.3.3M74.2 147.6l.2.5M74.4 148.1v.9"/><path class="st8" d="m103.3 148.6-.3-.2M103 148.5h-.5M102.5 148.5l-.5.2M102 148.6l-.3.3M101.6 149l-.2.3M101.4 149.3l-.2.7M101.3 150v.5M101.3 150.5l.2.7M101.4 151.2l.2.3M101.6 151.5l.3.3M102 151.9l.5.2M102.5 152.1h.3M102.8 152.1l.5-.2M103.3 151.9l.2-.2M103.5 151.7v-1.2M103.5 150.5h-.7M105 152.1v-3.6M105 148.5l2.1 3.6M107.1 152.1v-3.6M108.8 152.1v-3.6M108.8 148.5h.9M109.7 148.5l.5.2M110.2 148.6l.3.3M110.5 149l.2.3M110.7 149.3l.2.7M110.9 150v.5M110.9 150.5l-.2.7M110.7 151.2l-.2.3M110.5 151.5l-.3.3M110.2 151.9l-.5.2M109.7 152.1h-.9M115.2 152.1v-2.4M115.2 150l.2-.2M115.3 149.8l.3-.2M115.7 149.7h.5M116.2 149.7l.3.2M116.5 149.8l.2.3M116.7 150.2v1.9M116.7 150.2l.2-.3M116.9 149.8l.3-.2M117.2 149.7h.5M117.7 149.7l.3.2M118.1 149.8l.2.3M118.2 150.2v1.9M121.5 149.7v2.4M120 149.7v1.9M120 151.5l.2.3M120.1 151.9l.3.2M120.5 152.1h.5M121 152.1l.3-.2M121.3 151.9l.2-.2M123 151.9l.3.2M123.4 152.1h.7M124.1 152.1l.3-.2M124.4 151.9l.2-.3M124.6 151.5v-.2M124.6 151.4l-.2-.3M124.4 151l-.3-.2M124.1 150.9h-.5M123.6 150.9l-.3-.2M123.2 150.7l-.2-.3M123 150.3v-.2M123 150.2l.2-.3M123.2 149.8l.3-.2M123.6 149.7h.5M124.1 149.7l.3.2M125.6 149.7h1.4M126.1 148.5v3.1M126.1 151.5l.2.3M126.3 151.9l.3.2M126.6 152.1h.3M130.9 152.1v-3.6M130.9 149.8l.3-.2M131.3 149.7h.7M132 149.7l.3.2M132.3 149.8l.2.2M132.5 150l.2.3M132.6 150.3v1M132.6 151.4l-.2.3M132.5 151.7l-.2.2M132.3 151.9l-.3.2M132 152.1h-.7M131.3 152.1l-.3-.2M135.6 151.9l-.3.2M135.2 152.1h-.7M134.5 152.1l-.3-.2M134.2 151.9l-.2-.3M134 151.5v-1.4M134 150.2l.2-.3M134.2 149.8l.3-.2M134.5 149.7h.7M135.2 149.7l.3.2M135.6 149.8l.2.3M135.7 150.2v.3M135.7 150.5l-1.7.3M139.8 151.9l.3.2M140.2 152.1h.7M140.9 152.1l.3-.2M141.2 151.9l.2-.3M141.4 151.5v-.2M141.4 151.4l-.2-.3M141.2 151l-.3-.2M140.9 150.9h-.5M140.4 150.9l-.3-.2M140 150.7l-.2-.3M139.8 150.3v-.2M139.8 150.2l.2-.3M140 149.8l.3-.2M140.4 149.7h.5M140.9 149.7l.3.2M142.9 152.1v-3.6M144.5 152.1v-1.9M144.5 150.2l-.2-.3M144.3 149.8l-.3-.2M144 149.7h-.5M143.4 149.7l-.3.2M143.1 149.8l-.2.2M147.7 152.1v-1.9M147.7 150.2l-.2-.3M147.6 149.8l-.3-.2M147.2 149.7h-.7M146.5 149.7l-.3.2M147.7 151.9l-.3.2M147.4 152.1h-.9M146.5 152.1l-.3-.2M146.2 151.9l-.2-.3M146 151.5v-.3M146 151.2l.2-.3M146.2 150.9l.3-.2M146.5 150.7h.9M147.4 150.7l.3-.2M149.4 152.1v-2.4M149.4 150.3l.2-.3M149.6 150l.2-.2M149.8 149.8l.3-.2M150.1 149.7h.3M153 151.9l-.3.2M152.7 152.1h-.7M152 152.1l-.3-.2M151.7 151.9l-.2-.3M151.5 151.5v-1.4M151.5 150.2l.2-.3M151.7 149.8l.3-.2M152 149.7h.7M152.7 149.7l.3.2M153 149.8l.2.3M153.2 150.2v.3M153.2 150.5l-1.7.3M156.3 152.1v-3.6M156.3 151.9l-.3.2M156 152.1h-.7M155.3 152.1l-.3-.2M154.9 151.9l-.2-.2M154.8 151.7l-.2-.3M154.6 151.4v-1M154.6 150.3l.2-.3M154.8 150l.2-.2M154.9 149.8l.3-.2M155.3 149.7h.7M156 149.7l.3.2M160.8 152.1v-3.6M160.8 149.8l.3-.2M161.1 149.7h.7M161.8 149.7l.3.2M162.1 149.8l.2.2M162.3 150l.2.3M162.5 150.3v1M162.5 151.4l-.2.3M162.3 151.7l-.2.2M162.1 151.9l-.3.2M161.8 152.1h-.7M161.1 152.1l-.3-.2M165.4 151.9l-.3.2M165 152.1h-.7M164.4 152.1l-.3-.2M164 151.9l-.2-.3M163.8 151.5v-1.4M163.8 150.2l.2-.3M164 149.8l.3-.2M164.4 149.7h.7M165 149.7l.3.2M165.4 149.8l.2.3M165.6 150.2v.3M165.6 150.5l-1.7.3M166.6 149.7h1.4M167.1 148.5v3.1M167.1 151.5l.2.3M167.3 151.9l.3.2M167.6 152.1h.3M168.8 149.7l.7 2.4M169.5 152.1l.7-1.7M170.2 150.3l.7 1.7M170.9 152.1l.7-2.4M174.3 151.9l-.3.2M174 152.1h-.7M173.3 152.1l-.3-.2M172.9 151.9l-.2-.3M172.8 151.5v-1.4M172.8 150.2l.2-.3M172.9 149.8l.3-.2M173.3 149.7h.7M174 149.7l.3.2M174.3 149.8l.2.3M174.5 150.2v.3M174.5 150.5l-1.7.3M177.4 151.9l-.3.2M177 152.1h-.7M176.4 152.1l-.3-.2M176 151.9l-.2-.3M175.8 151.5v-1.4M175.8 150.2l.2-.3M176 149.8l.3-.2M176.4 149.7h.7M177 149.7l.3.2M177.4 149.8l.2.3M177.6 150.2v.3M177.6 150.5l-1.7.3M179.1 149.7v2.4M179.1 150l.2-.2M179.3 149.8l.3-.2M179.6 149.7h.5M180.1 149.7l.3.2M180.5 149.8l.2.3M180.6 150.2v1.9M184.6 149.7h1.4M185.1 148.5v3.1M185.1 151.5l.2.3M185.3 151.9l.3.2M185.6 152.1h.3M187.2 152.1v-3.6M188.7 152.1v-1.9M188.7 150.2l-.2-.3M188.5 149.8l-.3-.2M188.2 149.7h-.5M187.7 149.7l-.3.2M187.3 149.8l-.2.2M191.8 151.9l-.3.2M191.4 152.1h-.7M190.8 152.1l-.3-.2M190.4 151.9l-.2-.3M190.2 151.5v-1.4M190.2 150.2l.2-.3M190.4 149.8l.3-.2M190.8 149.7h.7M191.4 149.7l.3.2M191.8 149.8l.2.3M192 150.2v.3M192 150.5l-1.7.3M196.2 152.1v-3.6M196.2 149.8l.3-.2M196.6 149.7h.7M197.3 149.7l.3.2M197.6 149.8l.2.2M197.8 150l.2.3M198 150.3v1M198 151.4l-.2.3M197.8 151.7l-.2.2M197.6 151.9l-.3.2M197.3 152.1h-.7M196.6 152.1l-.3-.2M200 152.1l-.3-.2M199.7 151.9l-.2-.2M199.5 151.7l-.2-.3M199.3 151.4v-1M199.3 150.3l.2-.3M199.5 150l.2-.2M199.7 149.8l.3-.2M200 149.7h.5M200.5 149.7l.3.2M200.9 149.8l.2.2M201 150l.2.3M201.2 150.3v1M201.2 151.4l-.2.3M201 151.7l-.2.2M200.9 151.9l-.3.2M200.5 152.1h-.5M204.3 152.1v-1.9M204.3 150.2l-.2-.3M204.1 149.8l-.3-.2M203.8 149.7h-.7M203.1 149.7l-.3.2M204.3 151.9l-.3.2M204 152.1h-.9M203.1 152.1l-.3-.2M202.8 151.9l-.2-.3M202.6 151.5v-.3M202.6 151.2l.2-.3M202.8 150.9l.3-.2M203.1 150.7h.9M204 150.7l.3-.2M206 152.1v-2.4M206 150.3l.2-.3M206.2 150l.2-.2M206.3 149.8l.3-.2M206.7 149.7h.3M209.8 152.1v-3.6M209.8 151.9l-.3.2M209.4 152.1h-.7M208.8 152.1l-.3-.2M208.4 151.9l-.2-.2M208.2 151.7l-.2-.3M208.1 151.4v-1M208.1 150.3l.2-.3M208.2 150l.2-.2M208.4 149.8l.3-.2M208.8 149.7h.7M209.4 149.7l.3.2M103 157.8v-1.9M103 156l-.2-.3M102.8 155.6l-.3-.2M102.5 155.4h-.7M101.8 155.4l-.3.2M103 157.7l-.3.2M102.6 157.8h-.9M101.8 157.8l-.3-.2M101.4 157.7l-.2-.3M101.3 157.3v-.3M101.3 157l.2-.3M101.4 156.6l.3-.2M101.8 156.5h.9M102.6 156.5l.3-.2M104.7 155.4v2.4M104.7 155.8l.2-.2M104.9 155.6l.3-.2M105.2 155.4h.5M105.7 155.4l.3.2M106.1 155.6l.2.3M106.2 156v1.9M109.5 157.8v-3.6M109.5 157.7l-.3.2M109.2 157.8h-.7M108.5 157.8l-.3-.2M108.1 157.7l-.2-.2M108 157.5l-.2-.3M107.8 157.2v-1M107.8 156.1l.2-.3M108 155.8l.2-.2M108.1 155.6l.3-.2M108.5 155.4h.7M109.2 155.4l.3.2M115.3 157.7l-.3.2M115 157.8h-.7M114.3 157.8l-.3-.2M114 157.7l-.2-.3M113.8 157.3v-1.4M113.8 156l.2-.3M114 155.6l.3-.2M114.3 155.4h.7M115 155.4l.3.2M115.3 155.6l.2.3M115.5 156v.3M115.5 156.3l-1.7.3M116.7 157.8l1.9-2.4M116.7 155.4l1.9 2.4M119.4 155.4h1.4M120 154.2v3.1M120 157.3l.2.3M120.1 157.7l.3.2M120.5 157.8h.3M123.4 157.7l-.3.2M123 157.8h-.7M122.4 157.8l-.3-.2M122 157.7l-.2-.3M121.8 157.3v-1.4M121.8 156l.2-.3M122 155.6l.3-.2M122.4 155.4h.7M123 155.4l.3.2M123.4 155.6l.2.3M123.6 156v.3M123.6 156.3l-1.7.3M125.1 157.8v-2.4M125.1 156.1l.2-.3M125.3 155.8l.2-.2M125.4 155.6l.3-.2M125.8 155.4h.3M127.3 155.4v2.4M127.3 155.8l.2-.2M127.5 155.6l.3-.2M127.8 155.4h.5M128.4 155.4l.3.2M128.7 155.6l.2.3M128.9 156v1.9M132.1 157.8v-1.9M132.1 156l-.2-.3M132 155.6l-.3-.2M131.6 155.4h-.7M130.9 155.4l-.3.2M132.1 157.7l-.3.2M131.8 157.8h-.9M130.9 157.8l-.3-.2M130.6 157.7l-.2-.3M130.4 157.3v-.3M130.4 157l.2-.3M130.6 156.6l.3-.2M130.9 156.5h.9M131.8 156.5l.3-.2M134.4 157.8l-.3-.2M134 157.7l-.2-.3M133.8 157.3v-3.1M140.4 157.8h-2.1M139.3 157.8v-3.6M139.3 154.2l-.3.5M139 154.8l-.3.3M138.6 155.1l-.3.2M141.7 154.6l.2-.2M141.9 154.4l.3-.2M142.2 154.2h.9M143.1 154.2l.3.2M143.4 154.4l.2.2M143.6 154.6l.2.3M143.8 154.9v.3M143.8 155.3l-.2.5M143.6 155.8l-2.1 2.1M141.6 157.8h2.2M144.8 154.2l1.2 3.6M146 157.8l1.2-3.6M151.2 155.4v3.6M151.2 155.6l.3-.2M151.5 155.4h.7M152.2 155.4l.3.2M152.5 155.6l.2.2M152.7 155.8l.2.3M152.9 156.1v1M152.9 157.2l-.2.3M152.7 157.5l-.2.2M152.5 157.7l-.3.2M152.2 157.8h-.7M151.5 157.8l-.3-.2M154.9 157.8l-.3-.2M154.6 157.7l-.2-.2M154.4 157.5l-.2-.3M154.2 157.2v-1M154.2 156.1l.2-.3M154.4 155.8l.2-.2M154.6 155.6l.3-.2M154.9 155.4h.5M155.4 155.4l.3.2M155.8 155.6l.2.2M156 155.8l.2.3M156.1 156.1v1M156.1 157.2l-.2.3M156 157.5l-.2.2M155.8 157.7l-.3.2M155.4 157.8h-.5M157.3 155.4l.7 2.4M158 157.8l.7-1.7M158.7 156.1l.7 1.7M159.4 157.8l.7-2.4M162.8 157.7l-.3.2M162.5 157.8h-.7M161.8 157.8l-.3-.2M161.4 157.7l-.2-.3M161.3 157.3v-1.4M161.3 156l.2-.3M161.4 155.6l.3-.2M161.8 155.4h.7M162.5 155.4l.3.2M162.8 155.6l.2.3M163 156v.3M163 156.3l-1.7.3M164.5 157.8v-2.4M164.5 156.1l.2-.3M164.7 155.8l.2-.2M164.9 155.6l.3-.2M165.2 155.4h.3M169.3 157.7l.3.2M169.7 157.8h.7M170.4 157.8l.3-.2M170.7 157.7l.2-.3M170.9 157.3v-.2M170.9 157.2l-.2-.3M170.7 156.8l-.3-.2M170.4 156.6h-.5M169.8 156.6l-.3-.2M169.5 156.5l-.2-.3M169.3 156.1v-.2M169.3 156l.2-.3M169.5 155.6l.3-.2M169.8 155.4h.5M170.4 155.4l.3.2M174 155.4v2.4M172.4 155.4v1.9M172.4 157.3l.2.3M172.6 157.7l.3.2M172.9 157.8h.5M173.4 157.8l.3-.2M173.8 157.7l.2-.2M175.7 155.4v3.6M175.7 155.6l.3-.2M176 155.4h.7M176.7 155.4l.3.2M177 155.6l.2.2M177.2 155.8l.2.3M177.4 156.1v1M177.4 157.2l-.2.3M177.2 157.5l-.2.2M177 157.7l-.3.2M176.7 157.8h-.7M176 157.8l-.3-.2M178.9 155.4v3.6M178.9 155.6l.3-.2M179.3 155.4h.7M180 155.4l.3.2M180.3 155.6l.2.2M180.5 155.8l.2.3M180.6 156.1v1M180.6 157.2l-.2.3M180.5 157.5l-.2.2M180.3 157.7l-.3.2M180 157.8h-.7M179.3 157.8l-.3-.2M182.7 157.8l-.3-.2M182.3 157.7l-.2-.3M182.2 157.3v-3.1M183.7 155.4l.9 2.4M185.4 155.4l-.9 2.4M184.6 157.8l-.3.9M184.2 158.7l-.2.2M184.1 158.9l-.3.2M186.8 157.5l.2.2M187 157.7l-.2.2M186.8 157.8l-.2-.2M186.6 157.7l.2-.2M186.8 157.5v.3"/><path class="st4" d="M36.2.7v36M29 .7v36M122.6 36.7v108M86.6 36.7h36M75.8 144.7v28.8M90.2 144.7h32.4"/><path class="st2" d="m81.3 142.9 3.5 3.5M84.7 142.9l-3.5 3.5"/><path class="st11" d="M86.6 43.9v-7.2"/><path class="st5" d="m84.8 53.8-.2.3M84.7 54.1v.5M84.7 54.7l.2.5M84.8 55.2l.3.3M85.2 55.5l.3.2M85.5 55.7l.7.2M86.2 55.9h.5M86.7 55.9l.7-.2M87.4 55.7l.3-.2M87.7 55.5l.3-.3M88.1 55.2l.2-.5M88.3 54.7v-.3M88.3 54.3l-.2-.5M88.1 53.8l-.2-.2M87.9 53.6h-1.2M86.7 53.6v.7M88.3 52.1h-3.6M84.7 52.1l3.6-2.1M88.3 50h-3.6M88.3 48.3h-3.6M84.7 48.3v-.9M84.7 47.5l.2-.5M84.8 46.9l.3-.3M85.2 46.6l.3-.2M85.5 46.4l.7-.2M86.2 46.3h.5M86.7 46.3l.7.2M87.4 46.4l.3.2M87.7 46.6l.3.3M88.1 46.9l.2.5M88.3 47.5v.9"/><path class="st11" d="M90.2 137.5v7.2"/><path class="st5" d="m88.4 133-.2.3M88.3 133.3v.5M88.3 133.8l.2.5M88.4 134.4l.3.3M88.8 134.7l.3.2M89.1 134.9l.7.2M89.8 135h.5M90.3 135l.7-.2M91 134.9l.3-.2M91.3 134.7l.3-.3M91.7 134.4l.2-.5M91.9 133.8v-.3M91.9 133.5l-.2-.5M91.7 133l-.2-.2M91.5 132.8h-1.2M90.3 132.8v.7M91.9 131.3h-3.6M88.3 131.3l3.6-2.1M91.9 129.2h-3.6M91.9 127.5h-3.6M88.3 127.5v-.9M88.3 126.6l.2-.5M88.4 126.1l.3-.3M88.8 125.8l.3-.2M89.1 125.6l.7-.2M89.8 125.4h.5M90.3 125.4l.7.2M91 125.6l.3.2M91.3 125.8l.3.3M91.7 126.1l.2.5M91.9 126.6v.9"/><path class="st11" d="M75.8 137.5v7.2"/><path class="st5" d="m77.3 135 .2-.5M77.5 134.5v-.9M77.5 133.7l-.2-.3M77.3 133.3l-.2-.2M77.1 133.2l-.3-.2M76.8 133h-.3M76.4 133l-.3.2M76.1 133.2l-.2.2M75.9 133.3l-.2.3M75.7 133.7l-.2.7M75.6 134.4l-.2.3M75.4 134.7l-.2.2M75.2 134.9l-.3.2M74.9 135h-.3M74.5 135l-.3-.2M74.2 134.9l-.2-.2M74 134.7l-.2-.3M73.9 134.4v-.9M73.9 133.5l.2-.5M77.5 131.4h-3.6M74 127.8l-.2.3M73.9 128.2v.5M73.9 128.7l.2.5M74 129.2l.3.3M74.4 129.6l.3.2M74.7 129.7l.7.2M75.4 129.9h.5M75.9 129.9l.7-.2M76.6 129.7l.3-.2M76.9 129.6l.3-.3M77.3 129.2l.2-.5M77.5 128.7v-.3M77.5 128.4l-.2-.5M77.3 127.8l-.2-.2M77.1 127.7h-1.2M75.9 127.7v.7"/><path class="st11" d="M29 43.9v-7.2"/><path class="st5" d="m27.1 52.8 3.6-1.2M30.7 51.6l-3.6-1.2M29.3 49.2v-2.7M30.7 47.8H28"/><path class="st11" d="M36.2 43.9v-7.2"/><path class="st5" d="m34.3 52.8 3.6-1.2M37.9 51.6l-3.6-1.2M36.5 49.2v-2.7"/><path class="st11" d="M83 137.5v7.2"/><path class="st5" d="m81.1 135.4 3.6-1.2M84.7 134.2l-3.6-1.2M84.3 129.7l.2.2M84.5 129.9l.2.5M84.7 130.4v.3M84.7 130.8l-.2.5M84.5 131.3l-.3.3M84.1 131.6l-.3.2M83.8 131.8l-.7.2M83.1 132h-.5M82.6 132l-.7-.2M81.9 131.8l-.3-.2M81.6 131.6l-.3-.3M81.2 131.3l-.2-.5M81.1 130.8v-.3M81.1 130.4l.2-.5M81.2 129.9l.2-.2M84.3 126.1l.2.2M84.5 126.3l.2.5M84.7 126.8v.3M84.7 127.2l-.2.5M84.5 127.7l-.3.3M84.1 128l-.3.2M83.8 128.2l-.7.2M83.1 128.4h-.5M82.6 128.4l-.7-.2M81.9 128.2l-.3-.2M81.6 128l-.3-.3M81.2 127.7l-.2-.5M81.1 127.2v-.3M81.1 126.8l.2-.5M81.2 126.3l.2-.2"/><path class="st11" d="M79.4 43.9v-7.2"/><path class="st5" d="m77.5 53.8 3.6-1.2M81.1 52.6l-3.6-1.2M81.1 50.2h-3.6M81.1 48.5h-3.6M77.5 48.5l3.6-2.1M81.1 46.4h-3.6M73.1 22.5h2.7M74.4 23.9v-2.7M79.4 23.9h-2.1M78.4 23.9v-3.6M78.4 20.3l-.3.5M78 20.8l-.3.3M77.7 21.2l-.3.2M80.8 20.6l.2-.2M81 20.5l.3-.2M81.3 20.3h.9M82.2 20.3l.3.2M82.5 20.5l.2.2M82.7 20.6l.2.3M82.8 21v.3M82.8 21.3l-.2.5M82.7 21.8l-2.1 2.1M80.6 23.9h2.2M83.9 20.3l1.2 3.6M85.1 23.9l1.2-3.6"/><path class="st11" d="M79.4 36.7h0"/><path class="st5" d="m87.5 157.3-.3-.2M87.1 157.1h-.5M86.6 157.1l-.5.2M86.1 157.3l-.3.3M85.8 157.6l-.2.3M85.6 158l-.2.7M85.4 158.6v.5M85.4 159.2l.2.7M85.6 159.8l.2.3M85.8 160.2l.3.3M86.1 160.5l.5.2M86.6 160.7h.3M87 160.7l.5-.2M87.5 160.5l.2-.2M87.6 160.4v-1.2M87.6 159.2h-.7M89.2 160.7v-3.6M89.2 157.1l2.1 3.6M91.2 160.7v-3.6M93 160.7v-3.6M93 157.1h.9M93.8 157.1l.5.2M94.3 157.3l.3.3M94.7 157.6l.2.3M94.8 158l.2.7M95 158.6v.5M95 159.2l-.2.7M94.8 159.8l-.2.3M94.7 160.2l-.3.3M94.3 160.5l-.5.2M93.8 160.7h-.9"/><path class="st11" d="M90.2 144.7h0"/><circle cx="90.2" cy="144.7" r="1.3" style="fill:#009600;stroke:#009600;stroke-width:.4px;stroke-linecap:round;stroke-linejoin:round"/></svg>