<svg id="Layer_1" xmlns="http://www.w3.org/2000/svg" version="1.1" viewBox="0 0 279 176.3"><defs><style>.st1{letter-spacing:.3em}.st2{letter-spacing:.1em}.st3{stroke:#000084}.st10,.st11,.st12,.st13,.st14,.st15,.st16,.st3,.st4,.st5,.st7,.st8,.st9{stroke-linecap:round;stroke-linejoin:round}.st10,.st11,.st12,.st14,.st15,.st16,.st3,.st4,.st5,.st7,.st8,.st9{fill:none}.st12,.st13,.st14,.st16,.st3,.st4,.st7,.st8{stroke-width:.4px}.st15,.st4{stroke:#a90000}.st10,.st15,.st5,.st9{font-family:ArialMT,Arial;font-size:4.8px;stroke-width:.4px}.st14,.st5{stroke:#0f0f0f}.st11,.st16{stroke:#840000}.st13,.st7{stroke:#009600}.st21{letter-spacing:.2em}.st22{letter-spacing:.8em}.st24{letter-spacing:.5em}.st10,.st8{stroke:#006464}.st12,.st9{stroke:#0000c2}.st26{letter-spacing:.8em}.st28{letter-spacing:.3em}.st11{stroke-width:.6px}.st29{isolation:isolate;opacity:0}.st30{letter-spacing:.1em}.st13{fill:#009600}.st31,.st32,.st34{letter-spacing:.2em}.st35{letter-spacing:.3em}.st36{letter-spacing:.5em}</style></defs><path class="st11" d="M49.8 26.9h4.3V37h-4.3z"/><path class="st16" d="M51.9 26.9v-2.2M51.9 37v2.2"/><circle class="st16" cx="17.4" cy="57.1" r="1.4"/><path class="st16" d="M23.1 53.5v-5M30.3 53.5H15.9"/><circle class="st16" cx="28.9" cy="57.1" r="1.4"/><path class="st16" d="M15.9 57.1H8.7M30.3 57.1h7.2"/><circle class="st16" cx="17.4" cy="49.9" r="1.4"/><path class="st16" d="M23.1 46.3v-5M30.3 46.3H15.9"/><circle class="st16" cx="28.9" cy="49.9" r="1.4"/><path class="st16" d="M15.9 49.9H8.7M30.3 49.9h7.2"/><circle class="st16" cx="17.4" cy="93.1" r="1.4"/><path class="st16" d="M23.1 89.5v-5M30.3 89.5H15.9"/><circle class="st16" cx="28.9" cy="93.1" r="1.4"/><path class="st16" d="M15.9 93.1H8.7M30.3 93.1h7.2M138.3 157.9v3.6h3.6l-3.6 3.6-3.6-3.6h3.6M138.3 157.9h0"/><path class="st8" d="m135.6 170.6-.3-.2M135.2 170.4h-.5M134.7 170.4l-.5.2M134.2 170.6l-.3.3M133.9 170.9l-.2.3M133.7 171.2l-.2.7M133.5 171.9v.5M133.5 172.4l.2.7M133.7 173.1l.2.3M133.9 173.5l.3.3M134.2 173.8l.5.2M134.7 174h.3M135.1 174l.5-.2M135.6 173.8l.2-.2M135.7 173.6v-1.2M135.7 172.4h-.7M137.3 174v-3.6M137.3 170.4l2.1 3.6M139.3 174v-3.6M141.1 174v-3.6M141.1 170.4h.9M141.9 170.4l.5.2M142.4 170.6l.3.3M142.8 170.9l.2.3M142.9 171.2l.2.7M143.1 171.9v.5M143.1 172.4l-.2.7M142.9 173.1l-.2.3M142.8 173.5l-.3.3M142.4 173.8l-.5.2M141.9 174h-.9"/><circle class="st16" cx="17.4" cy="100.3" r="1.4"/><path class="st16" d="M23.1 96.7v-5M30.3 96.7H15.9"/><circle class="st16" cx="28.9" cy="100.3" r="1.4"/><path class="st16" d="M15.9 100.3H8.7M30.3 100.3h7.2"/><path class="st11" d="M85.8 26.9h4.3V37h-4.3z"/><path class="st16" d="M87.9 26.9v-2.2M87.9 37v2.2"/><path class="st11" d="M93 26.9h4.3V37H93z"/><path class="st16" d="M95.1 26.9v-2.2M95.1 37v2.2"/><path class="st11" d="M78.6 26.9h4.3V37h-4.3z"/><path class="st16" d="M80.7 26.9v-2.2M80.7 37v2.2M67.8 13.9l2.2-3.6M69.9 17.5v-7.2M69.9 10.3l2.2 3.6M69.9 17.5h0"/><path class="st8" d="M65.3 3.4H68M66.7 4.8V2.1M71.5 1.2h-1.7M69.7 1.2l-.2 1.7M69.6 2.9l.2-.2M69.7 2.7l.3-.2M70.1 2.6h.9M70.9 2.6l.3.2M71.3 2.7l.2.2M71.5 2.9l.2.3M71.6 3.2v.9M71.6 4.1l-.2.3M71.5 4.4l-.2.2M71.3 4.6l-.3.2M70.9 4.8H70M70.1 4.8l-.3-.2M69.7 4.6l-.2-.2M72.7 1.2l1.2 3.6M73.9 4.8l1.2-3.6"/><circle class="st16" cx="17.4" cy="85.9" r="1.4"/><path class="st16" d="M23.1 82.3v-5M30.3 82.3H15.9"/><circle class="st16" cx="28.9" cy="85.9" r="1.4"/><path class="st16" d="M15.9 85.9H8.7M30.3 85.9h7.2M253.5 35.5v3.6h3.6l-3.6 3.6-3.6-3.6h3.6M253.5 35.5h0"/><path class="st8" d="m250.8 48.2-.3-.2M250.4 48h-.5M249.9 48l-.5.2M249.4 48.2l-.3.3M249.1 48.5l-.2.3M248.9 48.8l-.2.7M248.7 49.5v.5M248.7 50l.2.7M248.9 50.7l.2.3M249.1 51.1l.3.3M249.4 51.4l.5.2M249.9 51.6h.3M250.3 51.6l.5-.2M250.8 51.4l.2-.2M250.9 51.2V50M250.9 50h-.7M252.5 51.6V48M252.5 48l2.1 3.6M254.5 51.6V48M256.3 51.6V48M256.3 48h.9M257.1 48l.5.2M257.6 48.2l.3.3M258 48.5l.2.3M258.1 48.8l.2.7M258.3 49.5v.5M258.3 50l-.2.7M258.1 50.7l-.2.3M258 51.1l-.3.3M257.6 51.4l-.5.2M257.1 51.6h-.9"/><path d="M249.2 29.8h8.6M249.2 26.9h8.6" style="stroke-width:.9px;stroke:#840000;fill:none;stroke-linecap:round;stroke-linejoin:round"/><path class="st16" d="M253.5 26.9v-5.8M253.5 29.8v5.8"/><path class="st8" d="M262.6 30h.3M262.9 30l.3.2M263.3 30.2l.2.2M263.4 30.4l.2.3M263.6 30.7l.2.7M263.8 31.4v.9M263.8 32.2l-.2.7M263.6 32.9l-.2.3M263.4 33.3l-.2.2M263.3 33.4l-.3.2M262.9 33.6h-.3M262.6 33.6l-.3-.2M262.2 33.4l-.2-.2M262.1 33.3l-.2-.3M261.9 32.9l-.2-.7M261.7 32.2v-.9M261.7 31.4l.2-.7M261.9 30.7l.2-.3M262.1 30.4l.2-.2M262.2 30.2l.3-.2M265.3 33.3l.2.2M265.5 33.4l-.2.2M265.3 33.6l-.2-.2M265.1 33.4l.2-.2M265.3 33.3v.3M268.9 33.6h-2.1M267.9 33.6V30M267.9 30l-.3.5M267.5 30.5l-.3.3M267.2 30.9l-.3.2M270.5 31.2v3.6M272.2 33.1l.2.3M272.3 33.4l.3.2M270.5 33.1l.2.3M270.6 33.4l.3.2M271 33.6h.7M271.7 33.6l.3-.2M272 33.4l.2-.3M272.2 33.1v-1.9M273.7 31.2h1.4M274.2 33.6v-3.1M274.2 30.5l.2-.3M274.4 30.2l.3-.2M274.7 30h.3"/><circle class="st16" cx="17.4" cy="78.7" r="1.4"/><path class="st16" d="M23.1 75.1v-5M30.3 75.1H15.9"/><circle class="st16" cx="28.9" cy="78.7" r="1.4"/><path class="st16" d="M15.9 78.7H8.7M30.3 78.7h7.2M172.2 13.9l2.2-3.6M174.3 17.5v-7.2M174.3 10.3l2.2 3.6M174.3 17.5h0"/><path class="st8" d="M169.7 3.4h2.7M171.1 4.8V2.1M175.9 1.2h-1.7M174.1 1.2l-.2 1.7M174 2.9l.2-.2M174.1 2.7l.3-.2M174.5 2.6h.9M175.3 2.6l.3.2M175.7 2.7l.2.2M175.9 2.9l.2.3M176 3.2v.9M176 4.1l-.2.3M175.9 4.4l-.2.2M175.7 4.6l-.3.2M175.3 4.8h-.9M174.5 4.8l-.3-.2M174.1 4.6l-.2-.2M177.1 1.2l1.2 3.6M178.3 4.8l1.2-3.6"/><circle class="st16" cx="17.4" cy="71.5" r="1.4"/><path class="st16" d="M23.1 67.9v-5M30.3 67.9H15.9"/><circle class="st16" cx="28.9" cy="71.5" r="1.4"/><path class="st16" d="M15.9 71.5H8.7M30.3 71.5h7.2"/><circle class="st16" cx="17.4" cy="64.3" r="1.4"/><path class="st16" d="M23.1 60.7v-5M30.3 60.7H15.9"/><circle class="st16" cx="28.9" cy="64.3" r="1.4"/><path class="st16" d="M15.9 64.3H8.7M30.3 64.3h7.2"/><path style="fill:#ffffc2" d="M152.7 35.5h43.2v108h-43.2z"/><path style="stroke:#840000;stroke-width:.7px;fill:none;stroke-linecap:round;stroke-linejoin:round" d="M152.7 35.5h43.2v108h-43.2z"/><path class="st16" d="M152.7 114.7h-14.4"/><path class="st8" d="m155.1 116.2.5.2M155.6 116.4h.9M156.5 116.4l.3-.2M156.8 116.2l.2-.2M157 116l.2-.3M157.2 115.7v-.3M157.2 115.4l-.2-.3M157 115l-.2-.2M156.8 114.8l-.3-.2M156.5 114.7l-.7-.2M155.8 114.5l-.3-.2M155.5 114.3l-.2-.2M155.3 114.2l-.2-.3M155.1 113.8v-.3M155.1 113.5l.2-.3M155.3 113.1l.2-.2M155.5 113l.3-.2M155.8 112.8h.9M156.7 112.8l.5.2M158.7 116.4v-3.6M158.7 114.5h2.1M160.8 116.4v-3.6M165.1 112.6l-3.1 4.6M168 116.4h-1.7M166.3 116.4v-3.6M169.2 116.4v-3.6M169.2 112.8h.9M170 112.8l.5.2M170.6 113l.3.3M170.9 113.3l.2.3M171.1 113.6l.2.7M171.2 114.3v.5M171.2 114.8l-.2.7M171.1 115.5l-.2.3M170.9 115.9l-.3.3M170.6 116.2l-.5.2M170 116.4h-.9M165.8 111.8h5.8"/><path class="st4" d="M146.5 113.6h-2.1M145.5 113.6V110M145.5 110l-.3.5M145.2 110.5l-.3.3M144.8 110.8l-.3.2"/><path class="st16" d="M152.7 42.7h-14.4"/><path class="st8" d="m155.1 44.2.5.2M155.6 44.4h.9M156.5 44.4l.3-.2M156.8 44.2l.2-.2M157 44l.2-.3M157.2 43.7v-.3M157.2 43.4l-.2-.3M157 43l-.2-.2M156.8 42.8l-.3-.2M156.5 42.7l-.7-.2M155.8 42.5l-.3-.2M155.5 42.3l-.2-.2M155.3 42.2l-.2-.3M155.1 41.8v-.3M155.1 41.5l.2-.3M155.3 41.1l.2-.2M155.5 41l.3-.2M155.8 40.8h.9M156.7 40.8l.5.2M158.7 42.5h1.2M160.4 44.4h-1.7M158.7 44.4v-3.6M158.7 40.8h1.7M164 44.4l-1.2-1.7M162 44.4v-3.6M162 40.8h1.4M163.3 40.8l.3.2M163.7 41l.2.2M163.9 41.1l.2.3M164 41.5v.5M164 42l-.2.3M163.9 42.3l-.2.2M163.7 42.5l-.3.2M163.3 42.7h-1.4"/><path class="st4" d="M144.8 41.6h-2.1M143.8 41.6V38M143.8 38l-.3.5M143.5 38.5l-.3.3M143.1 38.8l-.3.2M147.1 38h.3M147.4 38l.3.2M147.7 38.1l.2.2M147.9 38.3l.2.3M148.1 38.6l.2.7M148.3 39.3v.9M148.3 40.2l-.2.7M148.1 40.9l-.2.3M147.9 41.2l-.2.2M147.7 41.4l-.3.2M147.4 41.6h-.3M147.1 41.6l-.3-.2M146.7 41.4l-.2-.2M146.5 41.2l-.2-.3M146.4 40.9l-.2-.7M146.2 40.2v-.9M146.2 39.3l.2-.7M146.4 38.6l.2-.3M146.5 38.3l.2-.2M146.7 38.1l.3-.2"/><path class="st16" d="M152.7 49.9h-14.4"/><path class="st8" d="M155.1 50.6h1.7M154.8 51.6 156 48M156 48l1.2 3.6"/><path class="st4" d="M144.8 48.8h-2.1M143.8 48.8v-3.6M143.8 45.2l-.3.5M143.5 45.7l-.3.3M143.1 46l-.3.2M148.3 48.8h-2.1M147.2 48.8v-3.6M147.2 45.2l-.3.5M146.9 45.7l-.3.3M146.5 46l-.3.2"/><path class="st16" d="M152.7 57.1h-14.4"/><path class="st8" d="m156.5 56.9.5.2M157 57.1l.2.2M157.2 57.2l.2.3M157.4 57.6v.5M157.4 58.1l-.2.3M157.2 58.4l-.2.2M157 58.6l-.3.2M156.7 58.8h-1.4M155.3 58.8v-3.6M155.3 55.2h1.2M156.5 55.2l.3.2M156.8 55.4l.2.2M157 55.5l.2.3M157.2 55.9v.3M157.2 56.2l-.2.3M157 56.6l-.2.2M156.8 56.7l-.3.2M156.5 56.9h-1.2"/><path class="st4" d="M144.8 56h-2.1M143.8 56v-3.6M143.8 52.4l-.3.5M143.5 52.9l-.3.3M143.1 53.2l-.3.2M146.2 52.7l.2-.2M146.4 52.5l.3-.2M146.7 52.4h.9M147.6 52.4l.3.2M147.9 52.5l.2.2M148.1 52.7l.2.3M148.3 53v.3M148.3 53.4l-.2.5M148.1 53.9 146 56M146 56h2.2"/><path class="st16" d="M152.7 64.3h-14.4"/><path class="st8" d="m157.4 65.6-.2.2M157.2 65.8l-.5.2M156.7 66h-.3M156.3 66l-.5-.2M155.8 65.8l-.3-.3M155.5 65.5l-.2-.3M155.3 65.1l-.2-.7M155.1 64.4v-.5M155.1 63.9l.2-.7M155.3 63.2l.2-.3M155.5 62.9l.3-.3M155.8 62.6l.5-.2M156.3 62.4h.3M156.7 62.4l.5.2M157.2 62.6l.2.2"/><path class="st4" d="M144.8 63.2h-2.1M143.8 63.2v-3.6M143.8 59.6l-.3.5M143.5 60.1l-.3.3M143.1 60.4l-.3.2M146 59.6h2.2M148.3 59.6l-1.2 1.4M147.1 60.9h.5M147.6 60.9l.3.2M147.9 61.1l.2.2M148.1 61.3l.2.3M148.3 61.6v.9M148.3 62.5l-.2.3M148.1 62.8l-.2.2M147.9 63l-.3.2M147.6 63.2h-1M146.5 63.2l-.3-.2M146.2 63l-.2-.2"/><path class="st16" d="M152.7 71.5h-14.4"/><path class="st8" d="M155.3 73.2v-3.6M155.3 69.6h.9M156.2 69.6l.5.2M156.7 69.8l.3.3M157 70.1l.2.3M157.2 70.4l.2.7M157.4 71.1v.5M157.4 71.6l-.2.7M157.2 72.3l-.2.3M157 72.7l-.3.3M156.7 73l-.5.2M156.2 73.2h-.9"/><path class="st4" d="M144.8 70.4h-2.1M143.8 70.4v-3.6M143.8 66.8l-.3.5M143.5 67.3l-.3.3M143.1 67.6l-.3.2M147.9 68v2.4M147.1 66.6l-.9 2.6M146.2 69.2h2.2"/><path class="st16" d="M152.7 136.3h-14.4"/><path class="st8" d="m157.4 137.6-.2.2M157.2 137.8l-.5.2M156.7 138h-.3M156.3 138l-.5-.2M155.8 137.8l-.3-.3M155.5 137.5l-.2-.3M155.3 137.1l-.2-.7M155.1 136.4v-.5M155.1 135.9l.2-.7M155.3 135.2l.2-.3M155.5 134.9l.3-.3M155.8 134.6l.5-.2M156.3 134.4h.3M156.7 134.4l.5.2M157.2 134.6l.2.2M160.6 138h-1.7M158.9 138v-3.6M161.8 138v-3.6M163.9 138l-1.5-2.1M163.9 134.4l-2.1 2.1M164.6 138.3h2.7M168.2 138v-3.6M169.9 138v-3.6M169.9 134.4l2.1 3.6M171.9 138v-3.6M173.6 138v-3.6M173.6 136.1h2.1M175.7 138v-3.6"/><path class="st4" d="M144.8 135.2h-2.1M143.8 135.2v-3.6M143.8 131.6l-.3.5M143.5 132.1l-.3.3M143.1 132.4l-.3.2M148.1 131.6h-1.7M146.4 131.6l-.2 1.7M146.2 133.3l.2-.2M146.4 133.1l.3-.2M146.7 132.9h.9M147.6 132.9l.3.2M147.9 133.1l.2.2M148.1 133.3l.2.3M148.3 133.6v.9M148.3 134.5l-.2.3M148.1 134.8l-.2.2M147.9 135l-.3.2M147.6 135.2h-.9M146.7 135.2l-.3-.2M146.4 135l-.2-.2"/><path class="st16" d="M174.3 35.5V21.1"/><path class="st8" d="M172.4 47.2 176 46M176 46l-3.6-1.2M175.6 41.6l.2.2M175.8 41.7l.2.5M176 42.2v.3M176 42.6l-.2.5M175.8 43.1l-.3.3M175.4 43.4l-.3.2M175.1 43.6l-.7.2M174.4 43.8h-.5M173.9 43.8l-.7-.2M173.2 43.6l-.3-.2M172.9 43.4l-.3-.3M172.5 43.1l-.2-.5M172.4 42.6v-.3M172.4 42.2l.2-.5M172.5 41.7l.2-.2M175.6 38l.2.2M175.8 38.1l.2.5M176 38.6v.3M176 39l-.2.5M175.8 39.5l-.3.3M175.4 39.8l-.3.2M175.1 40l-.7.2M174.4 40.2h-.5M173.9 40.2l-.7-.2M173.2 40l-.3-.2M172.9 39.8l-.3-.3M172.5 39.5l-.2-.5M172.4 39v-.3M172.4 38.6l.2-.5M172.5 38.1l.2-.2"/><path class="st4" d="M173.1 29v2.1M173.1 30.1h-3.6M169.5 30.1l.5.3M170 30.4l.3.3M170.4 30.7l.2.3M169.5 25.9v.7M169.5 26.6l.2.3M169.7 27l.2.2M169.9 27.1l.5.3M170.4 27.5l.7.2M171.1 27.7h1.4M172.4 27.7l.3-.2M172.8 27.5l.2-.2M173 27.3l.2-.3M173.1 27v-.7M173.1 26.3l-.2-.3M173 25.9l-.2-.2M172.8 25.8l-.3-.2M172.4 25.6h-.9M171.6 25.6l-.3.2M171.2 25.8l-.2.2M171.1 25.9l-.2.3M170.9 26.3v.7M170.9 27l.2.3M171.1 27.3l.2.2M171.2 27.5l.3.2"/><path class="st16" d="M152.7 129.1h-14.4"/><path class="st8" d="m157.4 130.4-.2.2M157.2 130.6l-.5.2M156.7 130.8h-.3M156.3 130.8l-.5-.2M155.8 130.6l-.3-.3M155.5 130.3l-.2-.3M155.3 129.9l-.2-.7M155.1 129.2v-.5M155.1 128.7l.2-.7M155.3 128l.2-.3M155.5 127.7l.3-.3M155.8 127.4l.5-.2M156.3 127.2h.3M156.7 127.2l.5.2M157.2 127.4l.2.2M160.6 130.8h-1.7M158.9 130.8v-3.6M161.8 130.8v-3.6M163.9 130.8l-1.5-2.1M163.9 127.2l-2.1 2.1"/><path class="st4" d="m144.5 124.7.2-.2M144.7 124.5l.3-.2M145 124.4h.9M145.9 124.4l.3.2M146.2 124.5l.2.2M146.4 124.7l.2.3M146.5 125v.3M146.5 125.4l-.2.5M146.4 125.9l-2.1 2.1M144.3 128h2.2"/><path class="st16" d="M152.7 78.7h-14.4"/><path class="st8" d="M155.3 78.5h1.2M157 80.4h-1.7M155.3 80.4v-3.6M155.3 76.8h1.7"/><path class="st4" d="M144.3 74h2.2M146.5 74l-1.2 1.4M145.3 75.3h.5M145.9 75.3l.3.2M146.2 75.5l.2.2M146.4 75.7l.2.3M146.5 76v.9M146.5 76.9l-.2.3M146.4 77.2l-.2.2M146.2 77.4l-.3.2M145.9 77.6h-1M144.8 77.6l-.3-.2M144.5 77.4l-.2-.2"/><path class="st16" d="M152.7 85.9h-14.4"/><path class="st8" d="M156.5 85.7h-1.2M155.3 87.6V84M155.3 84h1.7"/><path class="st4" d="M146.2 82.4v2.4M145.3 81l-.9 2.6M144.5 83.6h2.2"/><path class="st16" d="M152.7 93.1h-14.4"/><path class="st8" d="m157.2 91.4-.3-.2M156.8 91.2h-.5M156.3 91.2l-.5.2M155.8 91.4l-.3.3M155.5 91.7l-.2.3M155.3 92l-.2.7M155.1 92.7v.5M155.1 93.2l.2.7M155.3 93.9l.2.3M155.5 94.3l.3.3M155.8 94.6l.5.2M156.3 94.8h.3M156.7 94.8l.5-.2M157.2 94.6l.2-.2M157.4 94.4v-1.2M157.4 93.2h-.7"/><path class="st4" d="M146.4 88.4h-1.7M144.7 88.4l-.2 1.7M144.5 90.1l.2-.2M144.7 89.9l.3-.2M145 89.7h.9M145.9 89.7l.3.2M146.2 89.9l.2.2M146.4 90.1l.2.3M146.5 90.4v.9M146.5 91.3l-.2.3M146.4 91.6l-.2.2M146.2 91.8l-.3.2M145.9 92h-.9M145 92l-.3-.2M144.7 91.8l-.2-.2"/><path class="st16" d="M152.7 100.3h-14.4"/><path class="st8" d="M155.3 102v-3.6M155.3 100.1h2.1M157.4 102v-3.6"/><path class="st4" d="M146.2 95.6h-.7M145.5 95.6l-.3.2M145.2 95.7l-.2.2M145 95.9l-.3.5M144.7 96.4l-.2.7M144.5 97.1v1.4M144.5 98.5l.2.3M144.7 98.8l.2.2M144.8 99l.3.2M145.2 99.2h.7M145.9 99.2l.3-.2M146.2 99l.2-.2M146.4 98.8l.2-.3M146.5 98.5v-.9M146.5 97.6l-.2-.3M146.4 97.3l-.2-.2M146.2 97.1l-.3-.2M145.9 96.9h-.7M145.2 96.9l-.3.2M144.8 97.1l-.2.2M144.7 97.3l-.2.3"/><path class="st16" d="M195.9 49.9h14.4"/><path class="st8" d="m189.9 51.9-.3-.2M189.6 51.8l-.3-.3M189.2 51.4l-.5-.5M188.7 50.9l-.3-.2M188.4 50.7h-.3M188.2 51.6l-.3-.2M187.8 51.4l-.3-.3M187.5 51.1l-.2-.7M187.3 50.4v-1.2M187.3 49.2l.2-.7M187.5 48.5l.3-.3M187.8 48.2l.3-.2M188.2 48h.7M188.9 48l.3.2M189.2 48.2l.3.3M189.6 48.5l.2.7M189.7 49.2v1.2M189.7 50.4l-.2.7M189.6 51.1l-.3.3M189.2 51.4l-.3.2M188.9 51.6h-.7M191.3 51.6V48M191.3 49.7h2.1M193.3 51.6V48M187 47h6.8"/><path class="st4" d="M201.9 45.2h2.4M204.3 45.2l-1.5 3.6"/><path class="st16" d="M181.5 143.5v14.4"/><path class="st8" d="m179.7 139.1-.2.3M179.6 139.4v.5M179.6 139.9l.2.5M179.7 140.5l.3.3M180.1 140.8l.3.2M180.4 141l.7.2M181.1 141.1h.5M181.6 141.1l.7-.2M182.3 141l.3-.2M182.6 140.8l.3-.3M183 140.5l.2-.5M183.2 139.9v-.3M183.2 139.6l-.2-.5M183 139.1l-.2-.2M182.8 138.9h-1.2M181.6 138.9v.7M183.2 137.4h-3.6M179.6 137.4l3.6-2.1M183.2 135.3h-3.6M183.2 133.6h-3.6M179.6 133.6v-.9M179.6 132.7l.2-.5M179.7 132.2l.3-.3M180.1 131.9l.3-.2M180.4 131.7l.7-.2M181.1 131.5h.5M181.6 131.5l.7.2M182.3 131.7l.3.2M182.6 131.9l.3.3M183 132.2l.2.5M183.2 132.7v.9"/><path class="st4" d="m178.3 151.1-.2.3M178.1 151.4l-.2.2M177.9 151.6l-.3.2M177.6 151.8h-.2M177.4 151.8l-.3-.2M177.1 151.6l-.2-.2M176.9 151.4l-.2-.3M176.7 151.1v-.7M176.7 150.4l.2-.3M176.9 150.1l.2-.2M177.1 149.9l.3-.2M177.4 149.7h.2M177.6 149.7l.3.2M177.9 149.9l.2.2M178.1 150.1l.2.3M178.3 150.4v.7M178.3 151.1l.2.3M178.4 151.4l.2.2M178.6 151.6l.3.2M179 151.8h.7M179.6 151.8l.3-.2M180 151.6l.2-.2M180.2 151.4l.2-.3M180.3 151.1v-.7M180.3 150.4l-.2-.3M180.2 150.1l-.2-.2M180 149.9l-.3-.2M179.6 149.7h-.7M179 149.7l-.3.2M178.6 149.9l-.2.2M178.4 150.1l-.2.3"/><path class="st16" d="M195.9 42.7h14.4"/><path class="st8" d="m189.9 44.7-.3-.2M189.6 44.6l-.3-.3M189.2 44.2l-.5-.5M188.7 43.7l-.3-.2M188.4 43.5h-.3M188.2 44.4l-.3-.2M187.8 44.2l-.3-.3M187.5 43.9l-.2-.7M187.3 43.2V42M187.3 42l.2-.7M187.5 41.3l.3-.3M187.8 41l.3-.2M188.2 40.8h.7M188.9 40.8l.3.2M189.2 41l.3.3M189.6 41.3l.2.7M189.7 42v1.2M189.7 43.2l-.2.7M189.6 43.9l-.3.3M189.2 44.2l-.3.2M188.9 44.4h-.7M191.3 44.4v-3.6M191.3 42.5h2.1M193.3 44.4v-3.6"/><path class="st4" d="M202.4 41.6h.7M203.1 41.6l.3-.2M203.5 41.4l.2-.2M203.6 41.2l.3-.5M204 40.7l.2-.7M204.1 40v-1.4M204.1 38.6l-.2-.3M204 38.3l-.2-.2M203.8 38.1l-.3-.2M203.5 38h-.7M202.8 38l-.3.2M202.4 38.1l-.2.2M202.3 38.3l-.2.3M202.1 38.6v.9M202.1 39.5l.2.3M202.3 39.8l.2.2M202.4 40l.3.2M202.8 40.2h.7M203.5 40.2l.3-.2M203.8 40l.2-.2M204 39.8l.2-.3"/><path class="st8" d="M181.4 26.4h2.4M183.8 26.4l-1.5 3.6M186.7 27.6V30M185.8 26.2l-.9 2.6M185 28.8h2.2M188.6 30v-3.6M188.6 28.1h2.1M190.6 30v-3.6M194.4 29.6l-.2.2M194.2 29.8l-.5.2M193.7 30h-.3M193.4 30l-.5-.2M192.8 29.8l-.3-.3M192.5 29.5l-.2-.3M192.3 29.1l-.2-.7M192.2 28.4v-.5M192.2 27.9l.2-.7M192.3 27.2l.2-.3M192.5 26.9l.3-.3M192.8 26.6l.5-.2M193.4 26.4h.3M193.7 26.4l.5.2M194.2 26.6l.2.2M197.8 30h-2.1M196.8 30v-3.6M196.8 26.4l-.3.5M196.4 26.9l-.3.3M196.1 27.2l-.3.2M200.9 26.4h-.7M200.2 26.4l-.3.2M199.9 26.6l-.2.2M199.7 26.7l-.3.5M199.4 27.2l-.2.7M199.2 27.9v1.4M199.2 29.3l.2.3M199.4 29.6l.2.2M199.5 29.8l.3.2M199.9 30h.7M200.6 30l.3-.2M200.9 29.8l.2-.2M201.1 29.6l.2-.3M201.2 29.3v-.9M201.2 28.4l-.2-.3M201.1 28.1l-.2-.2M200.9 27.9l-.3-.2M200.6 27.8h-.7M199.9 27.8l-.3.2M199.5 27.9l-.2.2M199.4 28.1l-.2.3M204.5 26.4h-1.7M202.8 26.4l-.2 1.7M202.6 28.1l.2-.2M202.8 27.9l.3-.2M203.1 27.8h.9M204 27.8l.3.2M204.3 27.9l.2.2M204.5 28.1l.2.3M204.7 28.4v.9M204.7 29.3l-.2.3M204.5 29.6l-.2.2M204.3 29.8l-.3.2M204 30h-.9M203.1 30l-.3-.2M202.8 29.8l-.2-.2"/><path class="st11" d="M71.4 26.9h4.3V37h-4.3z"/><path class="st16" d="M73.5 26.9v-2.2M73.5 37v2.2"/><path class="st11" d="M42.6 26.9h4.3V37h-4.3z"/><path class="st16" d="M44.7 26.9v-2.2M44.7 37v2.2"/><path class="st11" d="M64.2 26.9h4.3V37h-4.3z"/><path class="st16" d="M66.3 26.9v-2.2M66.3 37v2.2"/><path class="st11" d="M57 26.9h4.3V37H57z"/><path class="st16" d="M59.1 26.9v-2.2M59.1 37v2.2"/><path class="st14" d="M212.8 41.3v-3.6M212.8 37.7h.9M213.6 37.7l.5.2M214.1 37.9l.3.3M214.5 38.2l.2.3M214.7 38.6l.2.7M214.8 39.2v.5M214.8 39.8l-.2.7M214.7 40.4l-.2.3M214.5 40.8l-.3.3M214.1 41.1l-.5.2M213.6 41.3h-.9M216.2 40.3h1.7M215.9 41.3l1.2-3.6M217.1 37.7l1.2 3.6M218.9 37.7h2.1M220 41.3v-3.6M222 40.3h1.7M221.7 41.3l1.2-3.6M222.9 37.7l1.2 3.6M119.6 113.3h-1.7M117.9 113.3v-3.6M120.6 112.3h1.7M120.3 113.3l1.2-3.6M121.5 109.7l1.2 3.6M123.3 109.7h2.1M124.4 113.3v-3.6M128.7 113l-.2.2M128.5 113.1l-.5.2M128 113.3h-.3M127.6 113.3l-.5-.2M127.1 113.1l-.3-.3M126.8 112.8l-.2-.3M126.6 112.4l-.2-.7M126.4 111.8v-.5M126.4 111.2l.2-.7M126.6 110.6l.2-.3M126.8 110.2l.3-.3M127.1 109.9l.5-.2M127.6 109.7h.3M128 109.7l.5.2M128.5 109.9l.2.2M130.2 113.3v-3.6M130.2 111.4h2.1M132.3 113.3v-3.6M119.9 127.4l-.2.2M119.7 127.5l-.5.2M119.2 127.7h-.3M118.9 127.7l-.5-.2M118.4 127.5l-.3-.3M118 127.2l-.2-.3M117.9 126.8l-.2-.7M117.7 126.2v-.5M117.7 125.6l.2-.7M117.9 125l.2-.3M118 124.6l.3-.3M118.4 124.3l.5-.2M118.9 124.1h.3M119.2 124.1l.5.2M119.7 124.3l.2.2M123.2 127.7h-1.7M121.5 127.7v-3.6M125.1 124.1h.7M125.7 124.1l.3.2M126.1 124.3l.3.3M126.4 124.6l.2.7M126.6 125.3v1.2M126.6 126.5l-.2.7M126.4 127.2l-.3.3M126.1 127.5l-.3.2M125.7 127.7h-.7M125.1 127.7l-.3-.2M124.7 127.5l-.3-.3M124.4 127.2l-.2-.7M124.2 126.5v-1.2M124.2 125.3l.2-.7M124.4 124.6l.3-.3M124.7 124.3l.3-.2M130.2 127.4l-.2.2M130 127.5l-.5.2M129.5 127.7h-.3M129.2 127.7l-.5-.2M128.7 127.5l-.3-.3M128.3 127.2l-.2-.3M128.1 126.8l-.2-.7M128 126.2v-.5M128 125.6l.2-.7M128.1 125l.2-.3M128.3 124.6l.3-.3M128.7 124.3l.5-.2M129.2 124.1h.3M129.5 124.1l.5.2M130 124.3l.2.2M131.7 127.7v-3.6M133.8 127.7l-1.5-2.1M133.8 124.1l-2.1 2.1"/><path class="st12" d="m12.9 108.3.5.2M13.4 108.5h.9M14.2 108.5l.3-.2M14.6 108.3l.2-.2M14.7 108.1l.2-.3M14.9 107.8v-.3M14.9 107.5l-.2-.3M14.7 107.1l-.2-.2M14.6 106.9l-.3-.2M14.2 106.8l-.7-.2M13.5 106.6l-.3-.2M13.2 106.4l-.2-.2M13 106.3l-.2-.3M12.9 105.9v-.3M12.9 105.6l.2-.3M13 105.2l.2-.2M13.2 105.1l.3-.2M13.5 104.9h.9M14.4 104.9l.5.2M16.1 106.1l.7 2.4M16.8 108.5l.7-1.7M17.5 106.8l.7 1.7M18.2 108.5l.7-2.4M20.2 108.5v-2.4M20.2 104.9l-.2.2M20.1 105.1l.2.2M20.2 105.2l.2-.2M20.4 105.1l-.2-.2M20.2 104.9v.3M21.4 106.1h1.4M21.9 104.9v3.1M21.9 108l.2.3M22.1 108.3l.3.2M22.5 108.5h.3M25.5 108.3l-.3.2M25.2 108.5h-.7M24.5 108.5l-.3-.2M24.2 108.3l-.2-.2M24 108.1l-.2-.3M23.8 107.8v-1M23.8 106.8l.2-.3M24 106.4l.2-.2M24.2 106.3l.3-.2M24.5 106.1h.7M25.2 106.1l.3.2M27.1 108.5v-3.6M28.6 108.5v-1.9M28.6 106.6l-.2-.3M28.5 106.3l-.3-.2M28.1 106.1h-.5M27.6 106.1l-.3.2M27.3 106.3l-.2.2M31.7 108.3l-.3.2M31.4 108.5h-.7M30.7 108.5l-.3-.2M30.3 108.3l-.2-.3M30.2 108v-1.4M30.2 106.6l.2-.3M30.3 106.3l.3-.2M30.7 106.1h.7M31.4 106.1l.3.2M31.7 106.3l.2.3M31.9 106.6v.3M31.9 106.9l-1.7.3M33.3 108.3l.3.2M33.6 108.5h.7M34.3 108.5l.3-.2M34.6 108.3l.2-.3M34.8 108v-.2M34.8 107.8l-.2-.3M34.6 107.5l-.3-.2M34.3 107.3h-.5M33.8 107.3l-.3-.2M33.4 107.1l-.2-.3M33.3 106.8v-.2M33.3 106.6l.2-.3M33.4 106.3l.3-.2M33.8 106.1h.5M34.3 106.1l.3.2M103.2 30h-2.1M102.2 30v-3.6M102.2 26.4l-.3.5M101.8 26.9l-.3.3M101.5 27.2l-.3.2M105.4 26.4h.3M105.8 26.4l.3.2M106.1 26.6l.2.2M106.3 26.7l.2.3M106.4 27.1l.2.7M106.6 27.8v.9M106.6 28.6l-.2.7M106.4 29.3l-.2.3M106.3 29.6l-.2.2M106.1 29.8l-.3.2M105.8 30h-.3M105.4 30l-.3-.2M105.1 29.8l-.2-.2M104.9 29.6l-.2-.3M104.7 29.3l-.2-.7M104.6 28.6v-.9M104.6 27.8l.2-.7M104.7 27.1l.2-.3M104.9 26.7l.2-.2M105.1 26.6l.3-.2M108.1 30v-3.6M108.5 28.6l1 1.4M109.5 27.6l-1.4 1.4M101.3 35.8v-2.4M101.3 34.1l.2-.3M101.5 33.7l.2-.2M101.6 33.6l.3-.2M102 33.4h.3M104.9 35.6l-.3.2M104.6 35.8h-.7M103.9 35.8l-.3-.2M103.5 35.6l-.2-.3M103.4 35.3v-1.4M103.4 33.9l.2-.3M103.5 33.6l.3-.2M103.9 33.4h.7M104.6 33.4l.3.2M104.9 33.6l.2.3M105.1 33.9v.3M105.1 34.2l-1.7.3M106.4 35.6l.3.2M106.8 35.8h.7M107.5 35.8l.3-.2M107.8 35.6l.2-.3M108 35.3v-.2M108 35.1l-.2-.3M107.8 34.8l-.3-.2M107.5 34.6h-.5M107 34.6l-.3-.2M106.6 34.4l-.2-.3M106.4 34.1v-.2M106.4 33.9l.2-.3M106.6 33.6l.3-.2M107 33.4h.5M107.5 33.4l.3.2M109.5 35.8v-2.4M109.5 32.2l-.2.2M109.4 32.4l.2.2M109.5 32.5l.2-.2M109.7 32.4l-.2-.2M109.5 32.2v.3M111.1 35.6l.3.2M111.4 35.8h.7M112.1 35.8l.3-.2M112.4 35.6l.2-.3M112.6 35.3v-.2M112.6 35.1l-.2-.3M112.4 34.8l-.3-.2M112.1 34.6h-.5M111.6 34.6l-.3-.2M111.2 34.4l-.2-.3M111.1 34.1v-.2M111.1 33.9l.2-.3M111.2 33.6l.3-.2M111.6 33.4h.5M112.1 33.4l.3.2M113.6 33.4h1.4M114.2 32.2v3.1M114.2 35.3l.2.3M114.3 35.6l.3.2M114.7 35.8h.3M116.7 35.8l-.3-.2M116.4 35.6l-.2-.2M116.2 35.4l-.2-.3M116 35.1v-1M116 34.1l.2-.3M116.2 33.7l.2-.2M116.4 33.6l.3-.2M116.7 33.4h.5M117.2 33.4l.3.2M117.6 33.6l.2.2M117.8 33.7l.2.3M117.9 34.1v1M117.9 35.1l-.2.3M117.8 35.4l-.2.2M117.6 35.6l-.3.2M117.2 35.8h-.5M119.5 35.8v-2.4M119.5 34.1l.2-.3M119.6 33.7l.2-.2M119.8 33.6l.3-.2M120.2 33.4h.3M121.5 35.6l.3.2M121.9 35.8h.7M122.6 35.8l.3-.2M122.9 35.6l.2-.3M123.1 35.3v-.2M123.1 35.1l-.2-.3M122.9 34.8l-.3-.2M122.6 34.6h-.5M122 34.6l-.3-.2M121.7 34.4l-.2-.3M121.5 34.1v-.2M121.5 33.9l.2-.3M121.7 33.6l.3-.2M122 33.4h.5M122.6 33.4l.3.2"/><path class="st7" d="M210.3 42.7h14.4M116.7 114.7h21.6M116.7 129.1h21.6M138.3 42.7h-28.8M109.5 42.7v115.2M37.5 93.1h50.4M138.3 157.9h43.2M138.3 136.3v21.6M109.5 157.9h28.8M253.5 17.5v3.6M174.3 21.1v-3.6M174.3 17.5h79.2M1.5 57.1h7.2M1.5 85.9h7.2M1.5 78.7h7.2M1.5 100.3h7.2M1.5 100.3v57.6M1.5 157.9h108M1.5 78.7v7.2M1.5 71.5h7.2M1.5 71.5v7.2M1.5 93.1v7.2M1.5 85.9v7.2M1.5 93.1h7.2M1.5 49.9v7.2M1.5 64.3v7.2M8.7 49.9H1.5M1.5 57.1v7.2M1.5 64.3h7.2M44.7 24.7v-7.2M44.7 17.5h7.2M51.9 17.5v7.2M95.1 17.5v7.2M87.9 17.5v7.2M87.9 17.5h7.2M80.7 17.5h7.2M80.7 17.5v7.2M73.5 17.5v7.2M73.5 17.5h7.2M66.3 17.5h3.6M69.9 17.5h3.6M66.3 17.5v7.2M59.1 17.5v7.2M59.1 17.5h7.2M51.9 17.5h7.2M37.5 85.9h43.2M37.5 78.7h36M37.5 71.5h28.8M95.1 39.1v61.2M87.9 39.1v54M80.7 39.1v46.8M73.5 39.1v39.6M80.7 85.9h57.6M95.1 100.3h43.2M73.5 78.7h64.8M87.9 93.1h50.4M66.3 71.5h72M51.9 57.1h86.4M59.1 64.3h79.2M37.5 100.3h57.6M37.5 64.3h21.6M44.7 49.9h93.6M51.9 39.1v18M37.5 57.1h14.4M37.5 49.9h7.2M44.7 39.1v10.8M66.3 39.1v32.4M59.1 39.1v25.2"/><path class="st3" d="m208.6 48.2 3.5 3.5M212 48.2l-3.5 3.5"/><path class="st8" d="m250.8 48.2-.3-.2M250.4 48h-.5M249.9 48l-.5.2M249.4 48.2l-.3.3M249.1 48.5l-.2.3M248.9 48.8l-.2.7M248.7 49.5v.5M248.7 50l.2.7M248.9 50.7l.2.3M249.1 51.1l.3.3M249.4 51.4l.5.2M249.9 51.6h.3M250.3 51.6l.5-.2M250.8 51.4l.2-.2M250.9 51.2V50M250.9 50h-.7M252.5 51.6V48M252.5 48l2.1 3.6M254.5 51.6V48M256.3 51.6V48M256.3 48h.9M257.1 48l.5.2M257.6 48.2l.3.3M258 48.5l.2.3M258.1 48.8l.2.7M258.3 49.5v.5M258.3 50l-.2.7M258.1 50.7l-.2.3M258 51.1l-.3.3M257.6 51.4l-.5.2M257.1 51.6h-.9"/><path class="st16" d="M253.5 35.5h0"/><path class="st8" d="M262.6 30h.3M262.9 30l.3.2M263.3 30.2l.2.2M263.4 30.4l.2.3M263.6 30.7l.2.7M263.8 31.4v.9M263.8 32.2l-.2.7M263.6 32.9l-.2.3M263.4 33.3l-.2.2M263.3 33.4l-.3.2M262.9 33.6h-.3M262.6 33.6l-.3-.2M262.2 33.4l-.2-.2M262.1 33.3l-.2-.3M261.9 32.9l-.2-.7M261.7 32.2v-.9M261.7 31.4l.2-.7M261.9 30.7l.2-.3M262.1 30.4l.2-.2M262.2 30.2l.3-.2M265.3 33.3l.2.2M265.5 33.4l-.2.2M265.3 33.6l-.2-.2M265.1 33.4l.2-.2M265.3 33.3v.3M268.9 33.6h-2.1M267.9 33.6V30M267.9 30l-.3.5M267.5 30.5l-.3.3M267.2 30.9l-.3.2M270.5 31.2v3.6M272.2 33.1l.2.3M272.3 33.4l.3.2M270.5 33.1l.2.3M270.6 33.4l.3.2M271 33.6h.7M271.7 33.6l.3-.2M272 33.4l.2-.3M272.2 33.1v-1.9M273.7 31.2h1.4M274.2 33.6v-3.1M274.2 30.5l.2-.3M274.4 30.2l.3-.2M274.7 30h.3"/><path class="st16" d="M253.5 26.9v-5.8M253.5 29.8v5.8"/><path class="st8" d="M181.4 26.4h2.4M183.8 26.4l-1.5 3.6M186.7 27.6V30M185.8 26.2l-.9 2.6M185 28.8h2.2M188.6 30v-3.6M188.6 28.1h2.1M190.6 30v-3.6M194.4 29.6l-.2.2M194.2 29.8l-.5.2M193.7 30h-.3M193.4 30l-.5-.2M192.8 29.8l-.3-.3M192.5 29.5l-.2-.3M192.3 29.1l-.2-.7M192.2 28.4v-.5M192.2 27.9l.2-.7M192.3 27.2l.2-.3M192.5 26.9l.3-.3M192.8 26.6l.5-.2M193.4 26.4h.3M193.7 26.4l.5.2M194.2 26.6l.2.2M197.8 30h-2.1M196.8 30v-3.6M196.8 26.4l-.3.5M196.4 26.9l-.3.3M196.1 27.2l-.3.2M200.9 26.4h-.7M200.2 26.4l-.3.2M199.9 26.6l-.2.2M199.7 26.7l-.3.5M199.4 27.2l-.2.7M199.2 27.9v1.4M199.2 29.3l.2.3M199.4 29.6l.2.2M199.5 29.8l.3.2M199.9 30h.7M200.6 30l.3-.2M200.9 29.8l.2-.2M201.1 29.6l.2-.3M201.2 29.3v-.9M201.2 28.4l-.2-.3M201.1 28.1l-.2-.2M200.9 27.9l-.3-.2M200.6 27.8h-.7M199.9 27.8l-.3.2M199.5 27.9l-.2.2M199.4 28.1l-.2.3M204.5 26.4h-1.7M202.8 26.4l-.2 1.7M202.6 28.1l.2-.2M202.8 27.9l.3-.2M203.1 27.8h.9M204 27.8l.3.2M204.3 27.9l.2.2M204.5 28.1l.2.3M204.7 28.4v.9M204.7 29.3l-.2.3M204.5 29.6l-.2.2M204.3 29.8l-.3.2M204 30h-.9M203.1 30l-.3-.2M202.8 29.8l-.2-.2"/><path class="st16" d="M152.7 114.7h-14.4"/><path class="st8" d="m155.1 116.2.5.2M155.6 116.4h.9M156.5 116.4l.3-.2M156.8 116.2l.2-.2M157 116l.2-.3M157.2 115.7v-.3M157.2 115.4l-.2-.3M157 115l-.2-.2M156.8 114.8l-.3-.2M156.5 114.7l-.7-.2M155.8 114.5l-.3-.2M155.5 114.3l-.2-.2M155.3 114.2l-.2-.3M155.1 113.8v-.3M155.1 113.5l.2-.3M155.3 113.1l.2-.2M155.5 113l.3-.2M155.8 112.8h.9M156.7 112.8l.5.2M158.7 116.4v-3.6M158.7 114.5h2.1M160.8 116.4v-3.6M165.1 112.6l-3.1 4.6M168 116.4h-1.7M166.3 116.4v-3.6M169.2 116.4v-3.6M169.2 112.8h.9M170 112.8l.5.2M170.6 113l.3.3M170.9 113.3l.2.3M171.1 113.6l.2.7M171.2 114.3v.5M171.2 114.8l-.2.7M171.1 115.5l-.2.3M170.9 115.9l-.3.3M170.6 116.2l-.5.2M170 116.4h-.9M165.8 111.8h5.8"/><path class="st4" d="M146.5 113.6h-2.1M145.5 113.6V110M145.5 110l-.3.5M145.2 110.5l-.3.3M144.8 110.8l-.3.2"/><path class="st16" d="M152.7 42.7h-14.4"/><path class="st8" d="m155.1 44.2.5.2M155.6 44.4h.9M156.5 44.4l.3-.2M156.8 44.2l.2-.2M157 44l.2-.3M157.2 43.7v-.3M157.2 43.4l-.2-.3M157 43l-.2-.2M156.8 42.8l-.3-.2M156.5 42.7l-.7-.2M155.8 42.5l-.3-.2M155.5 42.3l-.2-.2M155.3 42.2l-.2-.3M155.1 41.8v-.3M155.1 41.5l.2-.3M155.3 41.1l.2-.2M155.5 41l.3-.2M155.8 40.8h.9M156.7 40.8l.5.2M158.7 42.5h1.2M160.4 44.4h-1.7M158.7 44.4v-3.6M158.7 40.8h1.7M164 44.4l-1.2-1.7M162 44.4v-3.6M162 40.8h1.4M163.3 40.8l.3.2M163.7 41l.2.2M163.9 41.1l.2.3M164 41.5v.5M164 42l-.2.3M163.9 42.3l-.2.2M163.7 42.5l-.3.2M163.3 42.7h-1.4"/><path class="st4" d="M144.8 41.6h-2.1M143.8 41.6V38M143.8 38l-.3.5M143.5 38.5l-.3.3M143.1 38.8l-.3.2M147.1 38h.3M147.4 38l.3.2M147.7 38.1l.2.2M147.9 38.3l.2.3M148.1 38.6l.2.7M148.3 39.3v.9M148.3 40.2l-.2.7M148.1 40.9l-.2.3M147.9 41.2l-.2.2M147.7 41.4l-.3.2M147.4 41.6h-.3M147.1 41.6l-.3-.2M146.7 41.4l-.2-.2M146.5 41.2l-.2-.3M146.4 40.9l-.2-.7M146.2 40.2v-.9M146.2 39.3l.2-.7M146.4 38.6l.2-.3M146.5 38.3l.2-.2M146.7 38.1l.3-.2"/><path class="st16" d="M152.7 49.9h-14.4"/><path class="st8" d="M155.1 50.6h1.7M154.8 51.6 156 48M156 48l1.2 3.6"/><path class="st4" d="M144.8 48.8h-2.1M143.8 48.8v-3.6M143.8 45.2l-.3.5M143.5 45.7l-.3.3M143.1 46l-.3.2M148.3 48.8h-2.1M147.2 48.8v-3.6M147.2 45.2l-.3.5M146.9 45.7l-.3.3M146.5 46l-.3.2"/><path class="st16" d="M152.7 57.1h-14.4"/><path class="st8" d="m156.5 56.9.5.2M157 57.1l.2.2M157.2 57.2l.2.3M157.4 57.6v.5M157.4 58.1l-.2.3M157.2 58.4l-.2.2M157 58.6l-.3.2M156.7 58.8h-1.4M155.3 58.8v-3.6M155.3 55.2h1.2M156.5 55.2l.3.2M156.8 55.4l.2.2M157 55.5l.2.3M157.2 55.9v.3M157.2 56.2l-.2.3M157 56.6l-.2.2M156.8 56.7l-.3.2M156.5 56.9h-1.2"/><path class="st4" d="M144.8 56h-2.1M143.8 56v-3.6M143.8 52.4l-.3.5M143.5 52.9l-.3.3M143.1 53.2l-.3.2M146.2 52.7l.2-.2M146.4 52.5l.3-.2M146.7 52.4h.9M147.6 52.4l.3.2M147.9 52.5l.2.2M148.1 52.7l.2.3M148.3 53v.3M148.3 53.4l-.2.5M148.1 53.9 146 56M146 56h2.2"/><path class="st16" d="M152.7 64.3h-14.4"/><path class="st8" d="m157.4 65.6-.2.2M157.2 65.8l-.5.2M156.7 66h-.3M156.3 66l-.5-.2M155.8 65.8l-.3-.3M155.5 65.5l-.2-.3M155.3 65.1l-.2-.7M155.1 64.4v-.5M155.1 63.9l.2-.7M155.3 63.2l.2-.3M155.5 62.9l.3-.3M155.8 62.6l.5-.2M156.3 62.4h.3M156.7 62.4l.5.2M157.2 62.6l.2.2"/><path class="st4" d="M144.8 63.2h-2.1M143.8 63.2v-3.6M143.8 59.6l-.3.5M143.5 60.1l-.3.3M143.1 60.4l-.3.2M146 59.6h2.2M148.3 59.6l-1.2 1.4M147.1 60.9h.5M147.6 60.9l.3.2M147.9 61.1l.2.2M148.1 61.3l.2.3M148.3 61.6v.9M148.3 62.5l-.2.3M148.1 62.8l-.2.2M147.9 63l-.3.2M147.6 63.2h-1M146.5 63.2l-.3-.2M146.2 63l-.2-.2"/><path class="st16" d="M152.7 71.5h-14.4"/><path class="st8" d="M155.3 73.2v-3.6M155.3 69.6h.9M156.2 69.6l.5.2M156.7 69.8l.3.3M157 70.1l.2.3M157.2 70.4l.2.7M157.4 71.1v.5M157.4 71.6l-.2.7M157.2 72.3l-.2.3M157 72.7l-.3.3M156.7 73l-.5.2M156.2 73.2h-.9"/><path class="st4" d="M144.8 70.4h-2.1M143.8 70.4v-3.6M143.8 66.8l-.3.5M143.5 67.3l-.3.3M143.1 67.6l-.3.2M147.9 68v2.4M147.1 66.6l-.9 2.6M146.2 69.2h2.2"/><path class="st16" d="M152.7 136.3h-14.4"/><path class="st8" d="m157.4 137.6-.2.2M157.2 137.8l-.5.2M156.7 138h-.3M156.3 138l-.5-.2M155.8 137.8l-.3-.3M155.5 137.5l-.2-.3M155.3 137.1l-.2-.7M155.1 136.4v-.5M155.1 135.9l.2-.7M155.3 135.2l.2-.3M155.5 134.9l.3-.3M155.8 134.6l.5-.2M156.3 134.4h.3M156.7 134.4l.5.2M157.2 134.6l.2.2M160.6 138h-1.7M158.9 138v-3.6M161.8 138v-3.6M163.9 138l-1.5-2.1M163.9 134.4l-2.1 2.1M164.6 138.3h2.7M168.2 138v-3.6M169.9 138v-3.6M169.9 134.4l2.1 3.6M171.9 138v-3.6M173.6 138v-3.6M173.6 136.1h2.1M175.7 138v-3.6"/><path class="st4" d="M144.8 135.2h-2.1M143.8 135.2v-3.6M143.8 131.6l-.3.5M143.5 132.1l-.3.3M143.1 132.4l-.3.2M148.1 131.6h-1.7M146.4 131.6l-.2 1.7M146.2 133.3l.2-.2M146.4 133.1l.3-.2M146.7 132.9h.9M147.6 132.9l.3.2M147.9 133.1l.2.2M148.1 133.3l.2.3M148.3 133.6v.9M148.3 134.5l-.2.3M148.1 134.8l-.2.2M147.9 135l-.3.2M147.6 135.2h-.9M146.7 135.2l-.3-.2M146.4 135l-.2-.2"/><path class="st16" d="M174.3 35.5V21.1"/><path class="st8" d="M172.4 47.2 176 46M176 46l-3.6-1.2M175.6 41.6l.2.2M175.8 41.7l.2.5M176 42.2v.3M176 42.6l-.2.5M175.8 43.1l-.3.3M175.4 43.4l-.3.2M175.1 43.6l-.7.2M174.4 43.8h-.5M173.9 43.8l-.7-.2M173.2 43.6l-.3-.2M172.9 43.4l-.3-.3M172.5 43.1l-.2-.5M172.4 42.6v-.3M172.4 42.2l.2-.5M172.5 41.7l.2-.2M175.6 38l.2.2M175.8 38.1l.2.5M176 38.6v.3M176 39l-.2.5M175.8 39.5l-.3.3M175.4 39.8l-.3.2M175.1 40l-.7.2M174.4 40.2h-.5M173.9 40.2l-.7-.2M173.2 40l-.3-.2M172.9 39.8l-.3-.3M172.5 39.5l-.2-.5M172.4 39v-.3M172.4 38.6l.2-.5M172.5 38.1l.2-.2"/><path class="st4" d="M173.1 29v2.1M173.1 30.1h-3.6M169.5 30.1l.5.3M170 30.4l.3.3M170.4 30.7l.2.3M169.5 25.9v.7M169.5 26.6l.2.3M169.7 27l.2.2M169.9 27.1l.5.3M170.4 27.5l.7.2M171.1 27.7h1.4M172.4 27.7l.3-.2M172.8 27.5l.2-.2M173 27.3l.2-.3M173.1 27v-.7M173.1 26.3l-.2-.3M173 25.9l-.2-.2M172.8 25.8l-.3-.2M172.4 25.6h-.9M171.6 25.6l-.3.2M171.2 25.8l-.2.2M171.1 25.9l-.2.3M170.9 26.3v.7M170.9 27l.2.3M171.1 27.3l.2.2M171.2 27.5l.3.2"/><path class="st16" d="M152.7 129.1h-14.4"/><path class="st8" d="m157.4 130.4-.2.2M157.2 130.6l-.5.2M156.7 130.8h-.3M156.3 130.8l-.5-.2M155.8 130.6l-.3-.3M155.5 130.3l-.2-.3M155.3 129.9l-.2-.7M155.1 129.2v-.5M155.1 128.7l.2-.7M155.3 128l.2-.3M155.5 127.7l.3-.3M155.8 127.4l.5-.2M156.3 127.2h.3M156.7 127.2l.5.2M157.2 127.4l.2.2M160.6 130.8h-1.7M158.9 130.8v-3.6M161.8 130.8v-3.6M163.9 130.8l-1.5-2.1M163.9 127.2l-2.1 2.1"/><path class="st4" d="m144.5 124.7.2-.2M144.7 124.5l.3-.2M145 124.4h.9M145.9 124.4l.3.2M146.2 124.5l.2.2M146.4 124.7l.2.3M146.5 125v.3M146.5 125.4l-.2.5M146.4 125.9l-2.1 2.1M144.3 128h2.2"/><path class="st16" d="M152.7 78.7h-14.4"/><path class="st8" d="M155.3 78.5h1.2M157 80.4h-1.7M155.3 80.4v-3.6M155.3 76.8h1.7"/><path class="st4" d="M144.3 74h2.2M146.5 74l-1.2 1.4M145.3 75.3h.5M145.9 75.3l.3.2M146.2 75.5l.2.2M146.4 75.7l.2.3M146.5 76v.9M146.5 76.9l-.2.3M146.4 77.2l-.2.2M146.2 77.4l-.3.2M145.9 77.6h-1M144.8 77.6l-.3-.2M144.5 77.4l-.2-.2"/><path class="st16" d="M152.7 85.9h-14.4"/><path class="st8" d="M156.5 85.7h-1.2M155.3 87.6V84M155.3 84h1.7"/><path class="st4" d="M146.2 82.4v2.4M145.3 81l-.9 2.6M144.5 83.6h2.2"/><path class="st16" d="M152.7 93.1h-14.4"/><path class="st8" d="m157.2 91.4-.3-.2M156.8 91.2h-.5M156.3 91.2l-.5.2M155.8 91.4l-.3.3M155.5 91.7l-.2.3M155.3 92l-.2.7M155.1 92.7v.5M155.1 93.2l.2.7M155.3 93.9l.2.3M155.5 94.3l.3.3M155.8 94.6l.5.2M156.3 94.8h.3M156.7 94.8l.5-.2M157.2 94.6l.2-.2M157.4 94.4v-1.2M157.4 93.2h-.7"/><path class="st4" d="M146.4 88.4h-1.7M144.7 88.4l-.2 1.7M144.5 90.1l.2-.2M144.7 89.9l.3-.2M145 89.7h.9M145.9 89.7l.3.2M146.2 89.9l.2.2M146.4 90.1l.2.3M146.5 90.4v.9M146.5 91.3l-.2.3M146.4 91.6l-.2.2M146.2 91.8l-.3.2M145.9 92h-.9M145 92l-.3-.2M144.7 91.8l-.2-.2"/><path class="st16" d="M152.7 100.3h-14.4"/><path class="st8" d="M155.3 102v-3.6M155.3 100.1h2.1M157.4 102v-3.6"/><path class="st4" d="M146.2 95.6h-.7M145.5 95.6l-.3.2M145.2 95.7l-.2.2M145 95.9l-.3.5M144.7 96.4l-.2.7M144.5 97.1v1.4M144.5 98.5l.2.3M144.7 98.8l.2.2M144.8 99l.3.2M145.2 99.2h.7M145.9 99.2l.3-.2M146.2 99l.2-.2M146.4 98.8l.2-.3M146.5 98.5v-.9M146.5 97.6l-.2-.3M146.4 97.3l-.2-.2M146.2 97.1l-.3-.2M145.9 96.9h-.7M145.2 96.9l-.3.2M144.8 97.1l-.2.2M144.7 97.3l-.2.3"/><path class="st16" d="M195.9 49.9h14.4"/><path class="st8" d="m189.9 51.9-.3-.2M189.6 51.8l-.3-.3M189.2 51.4l-.5-.5M188.7 50.9l-.3-.2M188.4 50.7h-.3M188.2 51.6l-.3-.2M187.8 51.4l-.3-.3M187.5 51.1l-.2-.7M187.3 50.4v-1.2M187.3 49.2l.2-.7M187.5 48.5l.3-.3M187.8 48.2l.3-.2M188.2 48h.7M188.9 48l.3.2M189.2 48.2l.3.3M189.6 48.5l.2.7M189.7 49.2v1.2M189.7 50.4l-.2.7M189.6 51.1l-.3.3M189.2 51.4l-.3.2M188.9 51.6h-.7M191.3 51.6V48M191.3 49.7h2.1M193.3 51.6V48M187 47h6.8"/><path class="st4" d="M201.9 45.2h2.4M204.3 45.2l-1.5 3.6"/><path class="st16" d="M181.5 143.5v14.4"/><path class="st8" d="m179.7 139.1-.2.3M179.6 139.4v.5M179.6 139.9l.2.5M179.7 140.5l.3.3M180.1 140.8l.3.2M180.4 141l.7.2M181.1 141.1h.5M181.6 141.1l.7-.2M182.3 141l.3-.2M182.6 140.8l.3-.3M183 140.5l.2-.5M183.2 139.9v-.3M183.2 139.6l-.2-.5M183 139.1l-.2-.2M182.8 138.9h-1.2M181.6 138.9v.7M183.2 137.4h-3.6M179.6 137.4l3.6-2.1M183.2 135.3h-3.6M183.2 133.6h-3.6M179.6 133.6v-.9M179.6 132.7l.2-.5M179.7 132.2l.3-.3M180.1 131.9l.3-.2M180.4 131.7l.7-.2M181.1 131.5h.5M181.6 131.5l.7.2M182.3 131.7l.3.2M182.6 131.9l.3.3M183 132.2l.2.5M183.2 132.7v.9"/><path class="st4" d="m178.3 151.1-.2.3M178.1 151.4l-.2.2M177.9 151.6l-.3.2M177.6 151.8h-.2M177.4 151.8l-.3-.2M177.1 151.6l-.2-.2M176.9 151.4l-.2-.3M176.7 151.1v-.7M176.7 150.4l.2-.3M176.9 150.1l.2-.2M177.1 149.9l.3-.2M177.4 149.7h.2M177.6 149.7l.3.2M177.9 149.9l.2.2M178.1 150.1l.2.3M178.3 150.4v.7M178.3 151.1l.2.3M178.4 151.4l.2.2M178.6 151.6l.3.2M179 151.8h.7M179.6 151.8l.3-.2M180 151.6l.2-.2M180.2 151.4l.2-.3M180.3 151.1v-.7M180.3 150.4l-.2-.3M180.2 150.1l-.2-.2M180 149.9l-.3-.2M179.6 149.7h-.7M179 149.7l-.3.2M178.6 149.9l-.2.2M178.4 150.1l-.2.3"/><path class="st16" d="M195.9 42.7h14.4"/><path class="st8" d="m189.9 44.7-.3-.2M189.6 44.6l-.3-.3M189.2 44.2l-.5-.5M188.7 43.7l-.3-.2M188.4 43.5h-.3M188.2 44.4l-.3-.2M187.8 44.2l-.3-.3M187.5 43.9l-.2-.7M187.3 43.2V42M187.3 42l.2-.7M187.5 41.3l.3-.3M187.8 41l.3-.2M188.2 40.8h.7M188.9 40.8l.3.2M189.2 41l.3.3M189.6 41.3l.2.7M189.7 42v1.2M189.7 43.2l-.2.7M189.6 43.9l-.3.3M189.2 44.2l-.3.2M188.9 44.4h-.7M191.3 44.4v-3.6M191.3 42.5h2.1M193.3 44.4v-3.6"/><path class="st4" d="M202.4 41.6h.7M203.1 41.6l.3-.2M203.5 41.4l.2-.2M203.6 41.2l.3-.5M204 40.7l.2-.7M204.1 40v-1.4M204.1 38.6l-.2-.3M204 38.3l-.2-.2M203.8 38.1l-.3-.2M203.5 38h-.7M202.8 38l-.3.2M202.4 38.1l-.2.2M202.3 38.3l-.2.3M202.1 38.6v.9M202.1 39.5l.2.3M202.3 39.8l.2.2M202.4 40l.3.2M202.8 40.2h.7M203.5 40.2l.3-.2M203.8 40l.2-.2M204 39.8l.2-.3"/><path class="st8" d="m135.6 170.6-.3-.2M135.2 170.4h-.5M134.7 170.4l-.5.2M134.2 170.6l-.3.3M133.9 170.9l-.2.3M133.7 171.2l-.2.7M133.5 171.9v.5M133.5 172.4l.2.7M133.7 173.1l.2.3M133.9 173.5l.3.3M134.2 173.8l.5.2M134.7 174h.3M135.1 174l.5-.2M135.6 173.8l.2-.2M135.7 173.6v-1.2M135.7 172.4h-.7M137.3 174v-3.6M137.3 170.4l2.1 3.6M139.3 174v-3.6M141.1 174v-3.6M141.1 170.4h.9M141.9 170.4l.5.2M142.4 170.6l.3.3M142.8 170.9l.2.3M142.9 171.2l.2.7M143.1 171.9v.5M143.1 172.4l-.2.7M142.9 173.1l-.2.3M142.8 173.5l-.3.3M142.4 173.8l-.5.2M141.9 174h-.9"/><path class="st16" d="M138.3 157.9h0M15.9 93.1H8.7M30.3 93.1h7.2M15.9 100.3H8.7M30.3 100.3h7.2M15.9 85.9H8.7M30.3 85.9h7.2M15.9 78.7H8.7M30.3 78.7h7.2M15.9 71.5H8.7M30.3 71.5h7.2M15.9 64.3H8.7M30.3 64.3h7.2M15.9 49.9H8.7M30.3 49.9h7.2M15.9 57.1H8.7M30.3 57.1h7.2"/><circle class="st13" cx="80.7" cy="85.9" r="1.3"/><circle class="st13" cx="87.9" cy="93.1" r="1.3"/><circle class="st13" cx="73.5" cy="78.7" r="1.3"/><circle class="st13" cx="51.9" cy="57.1" r="1.3"/><circle class="st13" cx="44.7" cy="49.9" r="1.3"/><circle class="st13" cx="66.3" cy="71.5" r="1.3"/><circle class="st13" cx="59.1" cy="64.3" r="1.3"/><circle class="st13" cx="138.3" cy="157.9" r="1.3"/><circle class="st13" cx="174.3" cy="17.5" r="1.3"/><circle class="st13" cx="1.5" cy="64.3" r="1.3"/><circle class="st13" cx="1.5" cy="57.1" r="1.3"/><circle class="st13" cx="1.5" cy="100.3" r="1.3"/><circle class="st13" cx="95.1" cy="100.3" r="1.3"/><circle class="st13" cx="109.5" cy="157.9" r="1.3"/><circle class="st13" cx="1.5" cy="71.5" r="1.3"/><circle class="st13" cx="1.5" cy="78.7" r="1.3"/><circle class="st13" cx="1.5" cy="85.9" r="1.3"/><circle class="st13" cx="1.5" cy="93.1" r="1.3"/><circle class="st13" cx="51.9" cy="17.5" r="1.3"/><circle class="st13" cx="87.9" cy="17.5" r="1.3"/><circle class="st13" cx="80.7" cy="17.5" r="1.3"/><circle class="st13" cx="73.5" cy="17.5" r="1.3"/><circle class="st13" cx="66.3" cy="17.5" r="1.3"/><circle class="st13" cx="69.9" cy="17.5" r="1.3"/><circle class="st13" cx="59.1" cy="17.5" r="1.3"/></svg>