<svg id="Layer_1" xmlns="http://www.w3.org/2000/svg" version="1.1" viewBox="0 0 243 176.3"><defs><style>.st1{letter-spacing:.3em}.st2{letter-spacing:.1em}.st3{stroke:#000084}.st10,.st11,.st12,.st13,.st14,.st15,.st16,.st3,.st4,.st5,.st7,.st8,.st9{stroke-linecap:round;stroke-linejoin:round}.st10,.st11,.st12,.st14,.st15,.st16,.st3,.st4,.st5,.st7,.st8,.st9{fill:none}.st12,.st13,.st14,.st16,.st3,.st4,.st7,.st8{stroke-width:.4px}.st15,.st4{stroke:#a90000}.st10,.st15,.st5,.st9{font-family:ArialMT,Arial;font-size:4.8px;stroke-width:.4px}.st14,.st5{stroke:#0f0f0f}.st11,.st16{stroke:#840000}.st13,.st7{stroke:#009600}.st21{letter-spacing:.2em}.st22{letter-spacing:.5em}.st23{letter-spacing:.8em}.st10,.st8{stroke:#006464}.st12,.st9{stroke:#0000c2}.st27{letter-spacing:.8em}.st29{letter-spacing:.3em}.st11{stroke-width:.6px}.st30{isolation:isolate;opacity:0}.st31{letter-spacing:.1em}.st13{fill:#009600}.st32{letter-spacing:.1em}.st33,.st34{letter-spacing:.2em}.st36{letter-spacing:.3em}</style></defs><path class="st11" d="M46.9 76.6H57v4.3H46.9z"/><path class="st16" d="M46.9 78.7h-2.2M57 78.7h2.2"/><path class="st11" d="M46.9 98.2H57v4.3H46.9z"/><path class="st16" d="M46.9 100.3h-2.2M57 100.3h2.2M102.3 157.9v3.6h3.6l-3.6 3.6-3.6-3.6h3.6M102.3 157.9h0"/><path class="st8" d="m99.6 170.6-.3-.2M99.2 170.4h-.5M98.7 170.4l-.5.2M98.2 170.6l-.3.3M97.9 170.9l-.2.3M97.7 171.2l-.2.7M97.5 171.9v.5M97.5 172.4l.2.7M97.7 173.1l.2.3M97.9 173.5l.3.3M98.2 173.8l.5.2M98.7 174h.3M99.1 174l.5-.2M99.6 173.8l.2-.2M99.7 173.6v-1.2M99.7 172.4H99M101.3 174v-3.6M101.3 170.4l2.1 3.6M103.3 174v-3.6M105.1 174v-3.6M105.1 170.4h.9M105.9 170.4l.5.2M106.4 170.6l.3.3M106.8 170.9l.2.3M106.9 171.2l.2.7M107.1 171.9v.5M107.1 172.4l-.2.7M106.9 173.1l-.2.3M106.8 173.5l-.3.3M106.4 173.8l-.5.2M105.9 174h-.9"/><path class="st11" d="M46.9 69.4H57v4.3H46.9z"/><path class="st16" d="M46.9 71.5h-2.2M57 71.5h2.2M136.2 13.9l2.2-3.6M138.3 17.5v-7.2M138.3 10.3l2.2 3.6M138.3 17.5h0"/><path class="st8" d="M133.7 3.4h2.7M135.1 4.8V2.1M139.9 1.2h-1.7M138.1 1.2l-.2 1.7M138 2.9l.2-.2M138.1 2.7l.3-.2M138.5 2.6h.9M139.3 2.6l.3.2M139.7 2.7l.2.2M139.9 2.9l.2.3M140 3.2v.9M140 4.1l-.2.3M139.9 4.4l-.2.2M139.7 4.6l-.3.2M139.3 4.8h-.9M138.5 4.8l-.3-.2M138.1 4.6l-.2-.2M141.1 1.2l1.2 3.6M142.3 4.8l1.2-3.6"/><path class="st11" d="M46.9 91H57v4.3H46.9z"/><path class="st16" d="M46.9 93.1h-2.2M57 93.1h2.2M217.5 35.5v3.6h3.6l-3.6 3.6-3.6-3.6h3.6M217.5 35.5h0"/><path class="st8" d="m214.8 48.2-.3-.2M214.4 48h-.5M213.9 48l-.5.2M213.4 48.2l-.3.3M213.1 48.5l-.2.3M212.9 48.8l-.2.7M212.7 49.5v.5M212.7 50l.2.7M212.9 50.7l.2.3M213.1 51.1l.3.3M213.4 51.4l.5.2M213.9 51.6h.3M214.3 51.6l.5-.2M214.8 51.4l.2-.2M214.9 51.2V50M214.9 50h-.7M216.5 51.6V48M216.5 48l2.1 3.6M218.5 51.6V48M220.3 51.6V48M220.3 48h.9M221.1 48l.5.2M221.6 48.2l.3.3M222 48.5l.2.3M222.1 48.8l.2.7M222.3 49.5v.5M222.3 50l-.2.7M222.1 50.7l-.2.3M222 51.1l-.3.3M221.6 51.4l-.5.2M221.1 51.6h-.9"/><circle class="st16" cx="17.4" cy="93.1" r="1.4"/><path class="st16" d="M23.1 89.5v-5M30.3 89.5H15.9"/><circle class="st16" cx="28.9" cy="93.1" r="1.4"/><path class="st16" d="M15.9 93.1H8.7M30.3 93.1h7.2"/><path d="M213.2 29.8h8.6M213.2 26.9h8.6" style="stroke-width:.9px;stroke:#840000;fill:none;stroke-linecap:round;stroke-linejoin:round"/><path class="st16" d="M217.5 26.9v-5.8M217.5 29.8v5.8"/><path class="st8" d="M226.6 30h.3M226.9 30l.3.2M227.3 30.2l.2.2M227.4 30.4l.2.3M227.6 30.7l.2.7M227.8 31.4v.9M227.8 32.2l-.2.7M227.6 32.9l-.2.3M227.4 33.3l-.2.2M227.3 33.4l-.3.2M226.9 33.6h-.3M226.6 33.6l-.3-.2M226.2 33.4l-.2-.2M226.1 33.3l-.2-.3M225.9 32.9l-.2-.7M225.7 32.2v-.9M225.7 31.4l.2-.7M225.9 30.7l.2-.3M226.1 30.4l.2-.2M226.2 30.2l.3-.2M229.3 33.3l.2.2M229.5 33.4l-.2.2M229.3 33.6l-.2-.2M229.1 33.4l.2-.2M229.3 33.3v.3M232.9 33.6h-2.1M231.9 33.6V30M231.9 30l-.3.5M231.5 30.5l-.3.3M231.2 30.9l-.3.2M234.5 31.2v3.6M236.2 33.1l.2.3M236.3 33.4l.3.2M234.5 33.1l.2.3M234.6 33.4l.3.2M235 33.6h.7M235.7 33.6l.3-.2M236 33.4l.2-.3M236.2 33.1v-1.9M237.7 31.2h1.4M238.2 33.6v-3.1M238.2 30.5l.2-.3M238.4 30.2l.3-.2M238.7 30h.3"/><path class="st11" d="M46.9 83.8H57v4.3H46.9z"/><path class="st16" d="M46.9 85.9h-2.2M57 85.9h2.2"/><circle class="st16" cx="17.4" cy="78.7" r="1.4"/><path class="st16" d="M23.1 75.1v-5M30.3 75.1H15.9"/><circle class="st16" cx="28.9" cy="78.7" r="1.4"/><path class="st16" d="M15.9 78.7H8.7M30.3 78.7h7.2"/><circle class="st16" cx="17.4" cy="85.9" r="1.4"/><path class="st16" d="M23.1 82.3v-5M30.3 82.3H15.9"/><circle class="st16" cx="28.9" cy="85.9" r="1.4"/><path class="st16" d="M15.9 85.9H8.7M30.3 85.9h7.2"/><circle class="st16" cx="17.4" cy="100.3" r="1.4"/><path class="st16" d="M23.1 96.7v-5M30.3 96.7H15.9"/><circle class="st16" cx="28.9" cy="100.3" r="1.4"/><path class="st16" d="M15.9 100.3H8.7M30.3 100.3h7.2"/><circle class="st16" cx="17.4" cy="64.3" r="1.4"/><path class="st16" d="M23.1 60.7v-5M30.3 60.7H15.9"/><circle class="st16" cx="28.9" cy="64.3" r="1.4"/><path class="st16" d="M15.9 64.3H8.7M30.3 64.3h7.2"/><circle class="st16" cx="17.4" cy="57.1" r="1.4"/><path class="st16" d="M23.1 53.5v-5M30.3 53.5H15.9"/><circle class="st16" cx="28.9" cy="57.1" r="1.4"/><path class="st16" d="M15.9 57.1H8.7M30.3 57.1h7.2"/><circle class="st16" cx="17.4" cy="49.9" r="1.4"/><path class="st16" d="M23.1 46.3v-5M30.3 46.3H15.9"/><circle class="st16" cx="28.9" cy="49.9" r="1.4"/><path class="st16" d="M15.9 49.9H8.7M30.3 49.9h7.2"/><circle class="st16" cx="17.4" cy="71.5" r="1.4"/><path class="st16" d="M23.1 67.9v-5M30.3 67.9H15.9"/><circle class="st16" cx="28.9" cy="71.5" r="1.4"/><path class="st16" d="M15.9 71.5H8.7M30.3 71.5h7.2"/><path class="st11" d="M46.9 47.8H57v4.3H46.9z"/><path class="st16" d="M46.9 49.9h-2.2M57 49.9h2.2"/><path style="fill:#ffffc2" d="M116.7 35.5h43.2v108h-43.2z"/><path style="stroke:#840000;stroke-width:.7px;fill:none;stroke-linecap:round;stroke-linejoin:round" d="M116.7 35.5h43.2v108h-43.2z"/><path class="st16" d="M116.7 114.7h-14.4"/><path class="st8" d="m119.1 116.2.5.2M119.6 116.4h.9M120.5 116.4l.3-.2M120.8 116.2l.2-.2M121 116l.2-.3M121.2 115.7v-.3M121.2 115.4l-.2-.3M121 115l-.2-.2M120.8 114.8l-.3-.2M120.5 114.7l-.7-.2M119.8 114.5l-.3-.2M119.5 114.3l-.2-.2M119.3 114.2l-.2-.3M119.1 113.8v-.3M119.1 113.5l.2-.3M119.3 113.1l.2-.2M119.5 113l.3-.2M119.8 112.8h.9M120.7 112.8l.5.2M122.7 116.4v-3.6M122.7 114.5h2.1M124.8 116.4v-3.6M129.1 112.6l-3.1 4.6M132 116.4h-1.7M130.3 116.4v-3.6M133.2 116.4v-3.6M133.2 112.8h.9M134 112.8l.5.2M134.6 113l.3.3M134.9 113.3l.2.3M135.1 113.6l.2.7M135.2 114.3v.5M135.2 114.8l-.2.7M135.1 115.5l-.2.3M134.9 115.9l-.3.3M134.6 116.2l-.5.2M134 116.4h-.9M129.8 111.8h5.8"/><path class="st4" d="M110.5 113.6h-2.1M109.5 113.6V110M109.5 110l-.3.5M109.2 110.5l-.3.3M108.8 110.8l-.3.2"/><path class="st16" d="M116.7 42.7h-14.4"/><path class="st8" d="m119.1 44.2.5.2M119.6 44.4h.9M120.5 44.4l.3-.2M120.8 44.2l.2-.2M121 44l.2-.3M121.2 43.7v-.3M121.2 43.4l-.2-.3M121 43l-.2-.2M120.8 42.8l-.3-.2M120.5 42.7l-.7-.2M119.8 42.5l-.3-.2M119.5 42.3l-.2-.2M119.3 42.2l-.2-.3M119.1 41.8v-.3M119.1 41.5l.2-.3M119.3 41.1l.2-.2M119.5 41l.3-.2M119.8 40.8h.9M120.7 40.8l.5.2M122.7 42.5h1.2M124.4 44.4h-1.7M122.7 44.4v-3.6M122.7 40.8h1.7M128 44.4l-1.2-1.7M126 44.4v-3.6M126 40.8h1.4M127.3 40.8l.3.2M127.7 41l.2.2M127.9 41.1l.2.3M128 41.5v.5M128 42l-.2.3M127.9 42.3l-.2.2M127.7 42.5l-.3.2M127.3 42.7h-1.4"/><path class="st4" d="M108.8 41.6h-2.1M107.8 41.6V38M107.8 38l-.3.5M107.5 38.5l-.3.3M107.1 38.8l-.3.2M111.1 38h.3M111.4 38l.3.2M111.7 38.1l.2.2M111.9 38.3l.2.3M112.1 38.6l.2.7M112.3 39.3v.9M112.3 40.2l-.2.7M112.1 40.9l-.2.3M111.9 41.2l-.2.2M111.7 41.4l-.3.2M111.4 41.6h-.3M111.1 41.6l-.3-.2M110.7 41.4l-.2-.2M110.5 41.2l-.2-.3M110.4 40.9l-.2-.7M110.2 40.2v-.9M110.2 39.3l.2-.7M110.4 38.6l.2-.3M110.5 38.3l.2-.2M110.7 38.1l.3-.2"/><path class="st16" d="M116.7 49.9h-14.4"/><path class="st8" d="M119.1 50.6h1.7M118.8 51.6 120 48M120 48l1.2 3.6"/><path class="st4" d="M108.8 48.8h-2.1M107.8 48.8v-3.6M107.8 45.2l-.3.5M107.5 45.7l-.3.3M107.1 46l-.3.2M112.3 48.8h-2.1M111.2 48.8v-3.6M111.2 45.2l-.3.5M110.9 45.7l-.3.3M110.5 46l-.3.2"/><path class="st16" d="M116.7 57.1h-14.4"/><path class="st8" d="m120.5 56.9.5.2M121 57.1l.2.2M121.2 57.2l.2.3M121.4 57.6v.5M121.4 58.1l-.2.3M121.2 58.4l-.2.2M121 58.6l-.3.2M120.7 58.8h-1.4M119.3 58.8v-3.6M119.3 55.2h1.2M120.5 55.2l.3.2M120.8 55.4l.2.2M121 55.5l.2.3M121.2 55.9v.3M121.2 56.2l-.2.3M121 56.6l-.2.2M120.8 56.7l-.3.2M120.5 56.9h-1.2"/><path class="st4" d="M108.8 56h-2.1M107.8 56v-3.6M107.8 52.4l-.3.5M107.5 52.9l-.3.3M107.1 53.2l-.3.2M110.2 52.7l.2-.2M110.4 52.5l.3-.2M110.7 52.4h.9M111.6 52.4l.3.2M111.9 52.5l.2.2M112.1 52.7l.2.3M112.3 53v.3M112.3 53.4l-.2.5M112.1 53.9 110 56M110 56h2.2"/><path class="st16" d="M116.7 64.3h-14.4"/><path class="st8" d="m121.4 65.6-.2.2M121.2 65.8l-.5.2M120.7 66h-.3M120.3 66l-.5-.2M119.8 65.8l-.3-.3M119.5 65.5l-.2-.3M119.3 65.1l-.2-.7M119.1 64.4v-.5M119.1 63.9l.2-.7M119.3 63.2l.2-.3M119.5 62.9l.3-.3M119.8 62.6l.5-.2M120.3 62.4h.3M120.7 62.4l.5.2M121.2 62.6l.2.2"/><path class="st4" d="M108.8 63.2h-2.1M107.8 63.2v-3.6M107.8 59.6l-.3.5M107.5 60.1l-.3.3M107.1 60.4l-.3.2M110 59.6h2.2M112.3 59.6l-1.2 1.4M111.1 60.9h.5M111.6 60.9l.3.2M111.9 61.1l.2.2M112.1 61.3l.2.3M112.3 61.6v.9M112.3 62.5l-.2.3M112.1 62.8l-.2.2M111.9 63l-.3.2M111.6 63.2h-1M110.5 63.2l-.3-.2M110.2 63l-.2-.2"/><path class="st16" d="M116.7 71.5h-14.4"/><path class="st8" d="M119.3 73.2v-3.6M119.3 69.6h.9M120.2 69.6l.5.2M120.7 69.8l.3.3M121 70.1l.2.3M121.2 70.4l.2.7M121.4 71.1v.5M121.4 71.6l-.2.7M121.2 72.3l-.2.3M121 72.7l-.3.3M120.7 73l-.5.2M120.2 73.2h-.9"/><path class="st4" d="M108.8 70.4h-2.1M107.8 70.4v-3.6M107.8 66.8l-.3.5M107.5 67.3l-.3.3M107.1 67.6l-.3.2M111.9 68v2.4M111.1 66.6l-.9 2.6M110.2 69.2h2.2"/><path class="st16" d="M116.7 136.3h-14.4"/><path class="st8" d="m121.4 137.6-.2.2M121.2 137.8l-.5.2M120.7 138h-.3M120.3 138l-.5-.2M119.8 137.8l-.3-.3M119.5 137.5l-.2-.3M119.3 137.1l-.2-.7M119.1 136.4v-.5M119.1 135.9l.2-.7M119.3 135.2l.2-.3M119.5 134.9l.3-.3M119.8 134.6l.5-.2M120.3 134.4h.3M120.7 134.4l.5.2M121.2 134.6l.2.2M124.6 138h-1.7M122.9 138v-3.6M125.8 138v-3.6M127.9 138l-1.5-2.1M127.9 134.4l-2.1 2.1M128.6 138.3h2.7M132.2 138v-3.6M133.9 138v-3.6M133.9 134.4l2.1 3.6M135.9 138v-3.6M137.6 138v-3.6M137.6 136.1h2.1M139.7 138v-3.6"/><path class="st4" d="M108.8 135.2h-2.1M107.8 135.2v-3.6M107.8 131.6l-.3.5M107.5 132.1l-.3.3M107.1 132.4l-.3.2M112.1 131.6h-1.7M110.4 131.6l-.2 1.7M110.2 133.3l.2-.2M110.4 133.1l.3-.2M110.7 132.9h.9M111.6 132.9l.3.2M111.9 133.1l.2.2M112.1 133.3l.2.3M112.3 133.6v.9M112.3 134.5l-.2.3M112.1 134.8l-.2.2M111.9 135l-.3.2M111.6 135.2h-.9M110.7 135.2l-.3-.2M110.4 135l-.2-.2"/><path class="st16" d="M138.3 35.5V21.1"/><path class="st8" d="M136.4 47.2 140 46M140 46l-3.6-1.2M139.6 41.6l.2.2M139.8 41.7l.2.5M140 42.2v.3M140 42.6l-.2.5M139.8 43.1l-.3.3M139.4 43.4l-.3.2M139.1 43.6l-.7.2M138.4 43.8h-.5M137.9 43.8l-.7-.2M137.2 43.6l-.3-.2M136.9 43.4l-.3-.3M136.5 43.1l-.2-.5M136.4 42.6v-.3M136.4 42.2l.2-.5M136.5 41.7l.2-.2M139.6 38l.2.2M139.8 38.1l.2.5M140 38.6v.3M140 39l-.2.5M139.8 39.5l-.3.3M139.4 39.8l-.3.2M139.1 40l-.7.2M138.4 40.2h-.5M137.9 40.2l-.7-.2M137.2 40l-.3-.2M136.9 39.8l-.3-.3M136.5 39.5l-.2-.5M136.4 39v-.3M136.4 38.6l.2-.5M136.5 38.1l.2-.2"/><path class="st4" d="M137.1 29v2.1M137.1 30.1h-3.6M133.5 30.1l.5.3M134 30.4l.3.3M134.4 30.7l.2.3M133.5 25.9v.7M133.5 26.6l.2.3M133.7 27l.2.2M133.9 27.1l.5.3M134.4 27.5l.7.2M135.1 27.7h1.4M136.4 27.7l.3-.2M136.8 27.5l.2-.2M137 27.3l.2-.3M137.1 27v-.7M137.1 26.3l-.2-.3M137 25.9l-.2-.2M136.8 25.8l-.3-.2M136.4 25.6h-.9M135.6 25.6l-.3.2M135.2 25.8l-.2.2M135.1 25.9l-.2.3M134.9 26.3v.7M134.9 27l.2.3M135.1 27.3l.2.2M135.2 27.5l.3.2"/><path class="st16" d="M116.7 129.1h-14.4"/><path class="st8" d="m121.4 130.4-.2.2M121.2 130.6l-.5.2M120.7 130.8h-.3M120.3 130.8l-.5-.2M119.8 130.6l-.3-.3M119.5 130.3l-.2-.3M119.3 129.9l-.2-.7M119.1 129.2v-.5M119.1 128.7l.2-.7M119.3 128l.2-.3M119.5 127.7l.3-.3M119.8 127.4l.5-.2M120.3 127.2h.3M120.7 127.2l.5.2M121.2 127.4l.2.2M124.6 130.8h-1.7M122.9 130.8v-3.6M125.8 130.8v-3.6M127.9 130.8l-1.5-2.1M127.9 127.2l-2.1 2.1"/><path class="st4" d="m108.5 124.7.2-.2M108.7 124.5l.3-.2M109 124.4h.9M109.9 124.4l.3.2M110.2 124.5l.2.2M110.4 124.7l.2.3M110.5 125v.3M110.5 125.4l-.2.5M110.4 125.9l-2.1 2.1M108.3 128h2.2"/><path class="st16" d="M116.7 78.7h-14.4"/><path class="st8" d="M119.3 78.5h1.2M121 80.4h-1.7M119.3 80.4v-3.6M119.3 76.8h1.7"/><path class="st4" d="M108.3 74h2.2M110.5 74l-1.2 1.4M109.3 75.3h.5M109.9 75.3l.3.2M110.2 75.5l.2.2M110.4 75.7l.2.3M110.5 76v.9M110.5 76.9l-.2.3M110.4 77.2l-.2.2M110.2 77.4l-.3.2M109.9 77.6h-1M108.8 77.6l-.3-.2M108.5 77.4l-.2-.2"/><path class="st16" d="M116.7 85.9h-14.4"/><path class="st8" d="M120.5 85.7h-1.2M119.3 87.6V84M119.3 84h1.7"/><path class="st4" d="M110.2 82.4v2.4M109.3 81l-.9 2.6M108.5 83.6h2.2"/><path class="st16" d="M116.7 93.1h-14.4"/><path class="st8" d="m121.2 91.4-.3-.2M120.8 91.2h-.5M120.3 91.2l-.5.2M119.8 91.4l-.3.3M119.5 91.7l-.2.3M119.3 92l-.2.7M119.1 92.7v.5M119.1 93.2l.2.7M119.3 93.9l.2.3M119.5 94.3l.3.3M119.8 94.6l.5.2M120.3 94.8h.3M120.7 94.8l.5-.2M121.2 94.6l.2-.2M121.4 94.4v-1.2M121.4 93.2h-.7"/><path class="st4" d="M110.4 88.4h-1.7M108.7 88.4l-.2 1.7M108.5 90.1l.2-.2M108.7 89.9l.3-.2M109 89.7h.9M109.9 89.7l.3.2M110.2 89.9l.2.2M110.4 90.1l.2.3M110.5 90.4v.9M110.5 91.3l-.2.3M110.4 91.6l-.2.2M110.2 91.8l-.3.2M109.9 92h-.9M109 92l-.3-.2M108.7 91.8l-.2-.2"/><path class="st16" d="M116.7 100.3h-14.4"/><path class="st8" d="M119.3 102v-3.6M119.3 100.1h2.1M121.4 102v-3.6"/><path class="st4" d="M110.2 95.6h-.7M109.5 95.6l-.3.2M109.2 95.7l-.2.2M109 95.9l-.3.5M108.7 96.4l-.2.7M108.5 97.1v1.4M108.5 98.5l.2.3M108.7 98.8l.2.2M108.8 99l.3.2M109.2 99.2h.7M109.9 99.2l.3-.2M110.2 99l.2-.2M110.4 98.8l.2-.3M110.5 98.5v-.9M110.5 97.6l-.2-.3M110.4 97.3l-.2-.2M110.2 97.1l-.3-.2M109.9 96.9h-.7M109.2 96.9l-.3.2M108.8 97.1l-.2.2M108.7 97.3l-.2.3"/><path class="st16" d="M159.9 49.9h14.4"/><path class="st8" d="m153.9 51.9-.3-.2M153.6 51.8l-.3-.3M153.2 51.4l-.5-.5M152.7 50.9l-.3-.2M152.4 50.7h-.3M152.2 51.6l-.3-.2M151.8 51.4l-.3-.3M151.5 51.1l-.2-.7M151.3 50.4v-1.2M151.3 49.2l.2-.7M151.5 48.5l.3-.3M151.8 48.2l.3-.2M152.2 48h.7M152.9 48l.3.2M153.2 48.2l.3.3M153.6 48.5l.2.7M153.7 49.2v1.2M153.7 50.4l-.2.7M153.6 51.1l-.3.3M153.2 51.4l-.3.2M152.9 51.6h-.7M155.3 51.6V48M155.3 49.7h2.1M157.3 51.6V48M151 47h6.8"/><path class="st4" d="M165.9 45.2h2.4M168.3 45.2l-1.5 3.6"/><path class="st16" d="M145.5 143.5v14.4"/><path class="st8" d="m143.7 139.1-.2.3M143.6 139.4v.5M143.6 139.9l.2.5M143.7 140.5l.3.3M144.1 140.8l.3.2M144.4 141l.7.2M145.1 141.1h.5M145.6 141.1l.7-.2M146.3 141l.3-.2M146.6 140.8l.3-.3M147 140.5l.2-.5M147.2 139.9v-.3M147.2 139.6l-.2-.5M147 139.1l-.2-.2M146.8 138.9h-1.2M145.6 138.9v.7M147.2 137.4h-3.6M143.6 137.4l3.6-2.1M147.2 135.3h-3.6M147.2 133.6h-3.6M143.6 133.6v-.9M143.6 132.7l.2-.5M143.7 132.2l.3-.3M144.1 131.9l.3-.2M144.4 131.7l.7-.2M145.1 131.5h.5M145.6 131.5l.7.2M146.3 131.7l.3.2M146.6 131.9l.3.3M147 132.2l.2.5M147.2 132.7v.9"/><path class="st4" d="m142.3 151.1-.2.3M142.1 151.4l-.2.2M141.9 151.6l-.3.2M141.6 151.8h-.2M141.4 151.8l-.3-.2M141.1 151.6l-.2-.2M140.9 151.4l-.2-.3M140.7 151.1v-.7M140.7 150.4l.2-.3M140.9 150.1l.2-.2M141.1 149.9l.3-.2M141.4 149.7h.2M141.6 149.7l.3.2M141.9 149.9l.2.2M142.1 150.1l.2.3M142.3 150.4v.7M142.3 151.1l.2.3M142.4 151.4l.2.2M142.6 151.6l.3.2M143 151.8h.7M143.6 151.8l.3-.2M144 151.6l.2-.2M144.2 151.4l.2-.3M144.3 151.1v-.7M144.3 150.4l-.2-.3M144.2 150.1l-.2-.2M144 149.9l-.3-.2M143.6 149.7h-.7M143 149.7l-.3.2M142.6 149.9l-.2.2M142.4 150.1l-.2.3"/><path class="st16" d="M159.9 42.7h14.4"/><path class="st8" d="m153.9 44.7-.3-.2M153.6 44.6l-.3-.3M153.2 44.2l-.5-.5M152.7 43.7l-.3-.2M152.4 43.5h-.3M152.2 44.4l-.3-.2M151.8 44.2l-.3-.3M151.5 43.9l-.2-.7M151.3 43.2V42M151.3 42l.2-.7M151.5 41.3l.3-.3M151.8 41l.3-.2M152.2 40.8h.7M152.9 40.8l.3.2M153.2 41l.3.3M153.6 41.3l.2.7M153.7 42v1.2M153.7 43.2l-.2.7M153.6 43.9l-.3.3M153.2 44.2l-.3.2M152.9 44.4h-.7M155.3 44.4v-3.6M155.3 42.5h2.1M157.3 44.4v-3.6"/><path class="st4" d="M166.4 41.6h.7M167.1 41.6l.3-.2M167.5 41.4l.2-.2M167.6 41.2l.3-.5M168 40.7l.2-.7M168.1 40v-1.4M168.1 38.6l-.2-.3M168 38.3l-.2-.2M167.8 38.1l-.3-.2M167.5 38h-.7M166.8 38l-.3.2M166.4 38.1l-.2.2M166.3 38.3l-.2.3M166.1 38.6v.9M166.1 39.5l.2.3M166.3 39.8l.2.2M166.4 40l.3.2M166.8 40.2h.7M167.5 40.2l.3-.2M167.8 40l.2-.2M168 39.8l.2-.3"/><path class="st8" d="M145.4 26.4h2.4M147.8 26.4l-1.5 3.6M150.7 27.6V30M149.8 26.2l-.9 2.6M149 28.8h2.2M152.6 30v-3.6M152.6 28.1h2.1M154.6 30v-3.6M158.4 29.6l-.2.2M158.2 29.8l-.5.2M157.7 30h-.3M157.4 30l-.5-.2M156.8 29.8l-.3-.3M156.5 29.5l-.2-.3M156.3 29.1l-.2-.7M156.2 28.4v-.5M156.2 27.9l.2-.7M156.3 27.2l.2-.3M156.5 26.9l.3-.3M156.8 26.6l.5-.2M157.4 26.4h.3M157.7 26.4l.5.2M158.2 26.6l.2.2M161.8 30h-2.1M160.8 30v-3.6M160.8 26.4l-.3.5M160.4 26.9l-.3.3M160.1 27.2l-.3.2M164.9 26.4h-.7M164.2 26.4l-.3.2M163.9 26.6l-.2.2M163.7 26.7l-.3.5M163.4 27.2l-.2.7M163.2 27.9v1.4M163.2 29.3l.2.3M163.4 29.6l.2.2M163.5 29.8l.3.2M163.9 30h.7M164.6 30l.3-.2M164.9 29.8l.2-.2M165.1 29.6l.2-.3M165.2 29.3v-.9M165.2 28.4l-.2-.3M165.1 28.1l-.2-.2M164.9 27.9l-.3-.2M164.6 27.8h-.7M163.9 27.8l-.3.2M163.5 27.9l-.2.2M163.4 28.1l-.2.3M168.5 26.4h-1.7M166.8 26.4l-.2 1.7M166.6 28.1l.2-.2M166.8 27.9l.3-.2M167.1 27.8h.9M168 27.8l.3.2M168.3 27.9l.2.2M168.5 28.1l.2.3M168.7 28.4v.9M168.7 29.3l-.2.3M168.5 29.6l-.2.2M168.3 29.8l-.3.2M168 30h-.9M167.1 30l-.3-.2M166.8 29.8l-.2-.2"/><path class="st11" d="M46.9 62.2H57v4.3H46.9z"/><path class="st16" d="M46.9 64.3h-2.2M57 64.3h2.2"/><path class="st11" d="M46.9 55H57v4.3H46.9z"/><path class="st16" d="M46.9 57.1h-2.2M57 57.1h2.2"/><path class="st14" d="M176.8 41.3v-3.6M176.8 37.7h.9M177.6 37.7l.5.2M178.1 37.9l.3.3M178.5 38.2l.2.3M178.7 38.6l.2.7M178.8 39.2v.5M178.8 39.8l-.2.7M178.7 40.4l-.2.3M178.5 40.8l-.3.3M178.1 41.1l-.5.2M177.6 41.3h-.9M180.2 40.3h1.7M179.9 41.3l1.2-3.6M181.1 37.7l1.2 3.6M182.9 37.7h2.1M184 41.3v-3.6M186 40.3h1.7M185.7 41.3l1.2-3.6M186.9 37.7l1.2 3.6M83.9 127.4l-.2.2M83.7 127.5l-.5.2M83.2 127.7h-.3M82.9 127.7l-.5-.2M82.4 127.5l-.3-.3M82 127.2l-.2-.3M81.9 126.8l-.2-.7M81.7 126.2v-.5M81.7 125.6l.2-.7M81.9 125l.2-.3M82 124.6l.3-.3M82.4 124.3l.5-.2M82.9 124.1h.3M83.2 124.1l.5.2M83.7 124.3l.2.2M87.2 127.7h-1.7M85.5 127.7v-3.6M89.1 124.1h.7M89.7 124.1l.3.2M90.1 124.3l.3.3M90.4 124.6l.2.7M90.6 125.3v1.2M90.6 126.5l-.2.7M90.4 127.2l-.3.3M90.1 127.5l-.3.2M89.7 127.7H89M89.1 127.7l-.3-.2M88.7 127.5l-.3-.3M88.4 127.2l-.2-.7M88.2 126.5v-1.2M88.2 125.3l.2-.7M88.4 124.6l.3-.3M88.7 124.3l.3-.2M94.2 127.4l-.2.2M94 127.5l-.5.2M93.5 127.7h-.3M93.2 127.7l-.5-.2M92.7 127.5l-.3-.3M92.3 127.2l-.2-.3M92.1 126.8l-.2-.7M92 126.2v-.5M92 125.6l.2-.7M92.1 125l.2-.3M92.3 124.6l.3-.3M92.7 124.3l.5-.2M93.2 124.1h.3M93.5 124.1l.5.2M94 124.3l.2.2M95.7 127.7v-3.6M97.8 127.7l-1.5-2.1M97.8 124.1l-2.1 2.1M83.6 113.3h-1.7M81.9 113.3v-3.6M84.6 112.3h1.7M84.3 113.3l1.2-3.6M85.5 109.7l1.2 3.6M87.3 109.7h2.1M88.4 113.3v-3.6M92.7 113l-.2.2M92.5 113.1l-.5.2M92 113.3h-.3M91.6 113.3l-.5-.2M91.1 113.1l-.3-.3M90.8 112.8l-.2-.3M90.6 112.4l-.2-.7M90.4 111.8v-.5M90.4 111.2l.2-.7M90.6 110.6l.2-.3M90.8 110.2l.3-.3M91.1 109.9l.5-.2M91.6 109.7h.3M92 109.7l.5.2M92.5 109.9l.2.2M94.2 113.3v-3.6M94.2 111.4h2.1M96.3 113.3v-3.6"/><path class="st12" d="m12.9 108.3.5.2M13.4 108.5h.9M14.2 108.5l.3-.2M14.6 108.3l.2-.2M14.7 108.1l.2-.3M14.9 107.8v-.3M14.9 107.5l-.2-.3M14.7 107.1l-.2-.2M14.6 106.9l-.3-.2M14.2 106.8l-.7-.2M13.5 106.6l-.3-.2M13.2 106.4l-.2-.2M13 106.3l-.2-.3M12.9 105.9v-.3M12.9 105.6l.2-.3M13 105.2l.2-.2M13.2 105.1l.3-.2M13.5 104.9h.9M14.4 104.9l.5.2M16.1 106.1l.7 2.4M16.8 108.5l.7-1.7M17.5 106.8l.7 1.7M18.2 108.5l.7-2.4M20.2 108.5v-2.4M20.2 104.9l-.2.2M20.1 105.1l.2.2M20.2 105.2l.2-.2M20.4 105.1l-.2-.2M20.2 104.9v.3M21.4 106.1h1.4M21.9 104.9v3.1M21.9 108l.2.3M22.1 108.3l.3.2M22.5 108.5h.3M25.5 108.3l-.3.2M25.2 108.5h-.7M24.5 108.5l-.3-.2M24.2 108.3l-.2-.2M24 108.1l-.2-.3M23.8 107.8v-1M23.8 106.8l.2-.3M24 106.4l.2-.2M24.2 106.3l.3-.2M24.5 106.1h.7M25.2 106.1l.3.2M27.1 108.5v-3.6M28.6 108.5v-1.9M28.6 106.6l-.2-.3M28.5 106.3l-.3-.2M28.1 106.1h-.5M27.6 106.1l-.3.2M27.3 106.3l-.2.2M31.7 108.3l-.3.2M31.4 108.5h-.7M30.7 108.5l-.3-.2M30.3 108.3l-.2-.3M30.2 108v-1.4M30.2 106.6l.2-.3M30.3 106.3l.3-.2M30.7 106.1h.7M31.4 106.1l.3.2M31.7 106.3l.2.3M31.9 106.6v.3M31.9 106.9l-1.7.3M33.3 108.3l.3.2M33.6 108.5h.7M34.3 108.5l.3-.2M34.6 108.3l.2-.3M34.8 108v-.2M34.8 107.8l-.2-.3M34.6 107.5l-.3-.2M34.3 107.3h-.5M33.8 107.3l-.3-.2M33.4 107.1l-.2-.3M33.3 106.8v-.2M33.3 106.6l.2-.3M33.4 106.3l.3-.2M33.8 106.1h.5M34.3 106.1l.3.2M49.8 108.5h-2.1M48.7 108.5v-3.6M48.7 104.9l-.3.5M48.4 105.4l-.3.3M48.1 105.7l-.3.2M52 104.9h.3M52.3 104.9l.3.2M52.7 105l.2.2M52.9 105.2l.2.3M53 105.5l.2.7M53.2 106.2v.9M53.2 107.1l-.2.7M53 107.8l-.2.3M52.9 108.1l-.2.2M52.7 108.3l-.3.2M52.3 108.5H52M52 108.5l-.3-.2M51.7 108.3l-.2-.2M51.5 108.1l-.2-.3M51.3 107.8l-.2-.7M51.1 107.1v-.9M51.1 106.2l.2-.7M51.3 105.5l.2-.3M51.5 105.2l.2-.2M51.7 105l.3-.2M54.7 108.5v-3.6M55.1 107.1l1 1.4M56.1 106.1l-1.4 1.4M41.1 114.3v-2.4M41.1 112.5l.2-.3M41.3 112.2l.2-.2M41.5 112l.3-.2M41.8 111.9h.3M44.7 114.1l-.3.2M44.4 114.3h-.7M43.7 114.3l-.3-.2M43.3 114.1l-.2-.3M43.2 113.7v-1.4M43.2 112.4l.2-.3M43.3 112l.3-.2M43.7 111.9h.7M44.4 111.9l.3.2M44.7 112l.2.3M44.9 112.4v.3M44.9 112.7l-1.7.3M46.3 114.1l.3.2M46.6 114.3h.7M47.3 114.3l.3-.2M47.6 114.1l.2-.3M47.8 113.7v-.2M47.8 113.6l-.2-.3M47.6 113.2l-.3-.2M47.3 113.1h-.5M46.8 113.1l-.3-.2M46.4 112.9l-.2-.3M46.3 112.5v-.2M46.3 112.4l.2-.3M46.4 112l.3-.2M46.8 111.9h.5M47.3 111.9l.3.2M49.3 114.3v-2.4M49.3 110.7l-.2.2M49.2 110.8l.2.2M49.3 111l.2-.2M49.5 110.8l-.2-.2M49.3 110.7v.3M50.9 114.1l.3.2M51.2 114.3h.7M51.9 114.3l.3-.2M52.3 114.1l.2-.3M52.4 113.7v-.2M52.4 113.6l-.2-.3M52.3 113.2l-.3-.2M51.9 113.1h-.5M51.4 113.1l-.3-.2M51.1 112.9l-.2-.3M50.9 112.5v-.2M50.9 112.4l.2-.3M51.1 112l.3-.2M51.4 111.9h.5M51.9 111.9l.3.2M53.5 111.9h1.4M54 110.7v3.1M54 113.7l.2.3M54.1 114.1l.3.2M54.5 114.3h.3M56.5 114.3l-.3-.2M56.2 114.1l-.2-.2M56 113.9l-.2-.3M55.9 113.6v-1M55.9 112.5l.2-.3M56 112.2l.2-.2M56.2 112l.3-.2M56.5 111.9h.5M57.1 111.9l.3.2M57.4 112l.2.2M57.6 112.2l.2.3M57.7 112.5v1M57.7 113.6l-.2.3M57.6 113.9l-.2.2M57.4 114.1l-.3.2M57.1 114.3h-.5M59.3 114.3v-2.4M59.3 112.5l.2-.3M59.5 112.2l.2-.2M59.6 112l.3-.2M60 111.9h.3M61.3 114.1l.3.2M61.7 114.3h.7M62.4 114.3l.3-.2M62.7 114.1l.2-.3M62.9 113.7v-.2M62.9 113.6l-.2-.3M62.7 113.2l-.3-.2M62.4 113.1h-.5M61.9 113.1l-.3-.2M61.5 112.9l-.2-.3M61.3 112.5v-.2M61.3 112.4l.2-.3M61.5 112l.3-.2M61.9 111.9h.5M62.4 111.9l.3.2"/><path class="st7" d="M174.3 42.7h14.4M138.3 17.5h79.2M138.3 21.1v-3.6M217.5 17.5v3.6M80.7 129.1h21.6M102.3 136.3v21.6M102.3 157.9h43.2M37.5 93.1h7.2M37.5 85.9h7.2M1.5 57.1v7.2M37.5 100.3h7.2M1.5 100.3v57.6M1.5 157.9h72M1.5 85.9h7.2M1.5 93.1h7.2M1.5 71.5h7.2M1.5 85.9v7.2M1.5 100.3h7.2M37.5 78.7h7.2M1.5 93.1v7.2M8.7 49.9H1.5M1.5 49.9v7.2M37.5 57.1h7.2M37.5 64.3h7.2M37.5 71.5h7.2M1.5 57.1h7.2M59.1 71.5h43.2M1.5 64.3h7.2M59.1 85.9h43.2M59.1 93.1h43.2M59.1 100.3h43.2M59.1 57.1h43.2M59.1 64.3h43.2M102.3 42.7H73.5M73.5 42.7v115.2M59.1 78.7h43.2M1.5 64.3v7.2M80.7 114.7h21.6M1.5 78.7h7.2M1.5 71.5v7.2M1.5 78.7v7.2M37.5 49.9h7.2M59.1 49.9h43.2M73.5 157.9h28.8"/><path class="st3" d="m172.6 48.2 3.5 3.5M176 48.2l-3.5 3.5"/><path class="st8" d="m214.8 48.2-.3-.2M214.4 48h-.5M213.9 48l-.5.2M213.4 48.2l-.3.3M213.1 48.5l-.2.3M212.9 48.8l-.2.7M212.7 49.5v.5M212.7 50l.2.7M212.9 50.7l.2.3M213.1 51.1l.3.3M213.4 51.4l.5.2M213.9 51.6h.3M214.3 51.6l.5-.2M214.8 51.4l.2-.2M214.9 51.2V50M214.9 50h-.7M216.5 51.6V48M216.5 48l2.1 3.6M218.5 51.6V48M220.3 51.6V48M220.3 48h.9M221.1 48l.5.2M221.6 48.2l.3.3M222 48.5l.2.3M222.1 48.8l.2.7M222.3 49.5v.5M222.3 50l-.2.7M222.1 50.7l-.2.3M222 51.1l-.3.3M221.6 51.4l-.5.2M221.1 51.6h-.9"/><path class="st16" d="M217.5 35.5h0"/><path class="st8" d="M226.6 30h.3M226.9 30l.3.2M227.3 30.2l.2.2M227.4 30.4l.2.3M227.6 30.7l.2.7M227.8 31.4v.9M227.8 32.2l-.2.7M227.6 32.9l-.2.3M227.4 33.3l-.2.2M227.3 33.4l-.3.2M226.9 33.6h-.3M226.6 33.6l-.3-.2M226.2 33.4l-.2-.2M226.1 33.3l-.2-.3M225.9 32.9l-.2-.7M225.7 32.2v-.9M225.7 31.4l.2-.7M225.9 30.7l.2-.3M226.1 30.4l.2-.2M226.2 30.2l.3-.2M229.3 33.3l.2.2M229.5 33.4l-.2.2M229.3 33.6l-.2-.2M229.1 33.4l.2-.2M229.3 33.3v.3M232.9 33.6h-2.1M231.9 33.6V30M231.9 30l-.3.5M231.5 30.5l-.3.3M231.2 30.9l-.3.2M234.5 31.2v3.6M236.2 33.1l.2.3M236.3 33.4l.3.2M234.5 33.1l.2.3M234.6 33.4l.3.2M235 33.6h.7M235.7 33.6l.3-.2M236 33.4l.2-.3M236.2 33.1v-1.9M237.7 31.2h1.4M238.2 33.6v-3.1M238.2 30.5l.2-.3M238.4 30.2l.3-.2M238.7 30h.3"/><path class="st16" d="M217.5 26.9v-5.8M217.5 29.8v5.8"/><path class="st8" d="m99.6 170.6-.3-.2M99.2 170.4h-.5M98.7 170.4l-.5.2M98.2 170.6l-.3.3M97.9 170.9l-.2.3M97.7 171.2l-.2.7M97.5 171.9v.5M97.5 172.4l.2.7M97.7 173.1l.2.3M97.9 173.5l.3.3M98.2 173.8l.5.2M98.7 174h.3M99.1 174l.5-.2M99.6 173.8l.2-.2M99.7 173.6v-1.2M99.7 172.4H99M101.3 174v-3.6M101.3 170.4l2.1 3.6M103.3 174v-3.6M105.1 174v-3.6M105.1 170.4h.9M105.9 170.4l.5.2M106.4 170.6l.3.3M106.8 170.9l.2.3M106.9 171.2l.2.7M107.1 171.9v.5M107.1 172.4l-.2.7M106.9 173.1l-.2.3M106.8 173.5l-.3.3M106.4 173.8l-.5.2M105.9 174h-.9"/><path class="st16" d="M102.3 157.9h0M15.9 78.7H8.7M30.3 78.7h7.2M15.9 85.9H8.7M30.3 85.9h7.2M15.9 93.1H8.7M30.3 93.1h7.2M15.9 100.3H8.7M30.3 100.3h7.2M15.9 64.3H8.7M30.3 64.3h7.2M15.9 57.1H8.7M30.3 57.1h7.2M15.9 49.9H8.7M30.3 49.9h7.2M15.9 71.5H8.7M30.3 71.5h7.2"/><path class="st8" d="M145.4 26.4h2.4M147.8 26.4l-1.5 3.6M150.7 27.6V30M149.8 26.2l-.9 2.6M149 28.8h2.2M152.6 30v-3.6M152.6 28.1h2.1M154.6 30v-3.6M158.4 29.6l-.2.2M158.2 29.8l-.5.2M157.7 30h-.3M157.4 30l-.5-.2M156.8 29.8l-.3-.3M156.5 29.5l-.2-.3M156.3 29.1l-.2-.7M156.2 28.4v-.5M156.2 27.9l.2-.7M156.3 27.2l.2-.3M156.5 26.9l.3-.3M156.8 26.6l.5-.2M157.4 26.4h.3M157.7 26.4l.5.2M158.2 26.6l.2.2M161.8 30h-2.1M160.8 30v-3.6M160.8 26.4l-.3.5M160.4 26.9l-.3.3M160.1 27.2l-.3.2M164.9 26.4h-.7M164.2 26.4l-.3.2M163.9 26.6l-.2.2M163.7 26.7l-.3.5M163.4 27.2l-.2.7M163.2 27.9v1.4M163.2 29.3l.2.3M163.4 29.6l.2.2M163.5 29.8l.3.2M163.9 30h.7M164.6 30l.3-.2M164.9 29.8l.2-.2M165.1 29.6l.2-.3M165.2 29.3v-.9M165.2 28.4l-.2-.3M165.1 28.1l-.2-.2M164.9 27.9l-.3-.2M164.6 27.8h-.7M163.9 27.8l-.3.2M163.5 27.9l-.2.2M163.4 28.1l-.2.3M168.5 26.4h-1.7M166.8 26.4l-.2 1.7M166.6 28.1l.2-.2M166.8 27.9l.3-.2M167.1 27.8h.9M168 27.8l.3.2M168.3 27.9l.2.2M168.5 28.1l.2.3M168.7 28.4v.9M168.7 29.3l-.2.3M168.5 29.6l-.2.2M168.3 29.8l-.3.2M168 30h-.9M167.1 30l-.3-.2M166.8 29.8l-.2-.2"/><path class="st16" d="M116.7 114.7h-14.4"/><path class="st8" d="m119.1 116.2.5.2M119.6 116.4h.9M120.5 116.4l.3-.2M120.8 116.2l.2-.2M121 116l.2-.3M121.2 115.7v-.3M121.2 115.4l-.2-.3M121 115l-.2-.2M120.8 114.8l-.3-.2M120.5 114.7l-.7-.2M119.8 114.5l-.3-.2M119.5 114.3l-.2-.2M119.3 114.2l-.2-.3M119.1 113.8v-.3M119.1 113.5l.2-.3M119.3 113.1l.2-.2M119.5 113l.3-.2M119.8 112.8h.9M120.7 112.8l.5.2M122.7 116.4v-3.6M122.7 114.5h2.1M124.8 116.4v-3.6M129.1 112.6l-3.1 4.6M132 116.4h-1.7M130.3 116.4v-3.6M133.2 116.4v-3.6M133.2 112.8h.9M134 112.8l.5.2M134.6 113l.3.3M134.9 113.3l.2.3M135.1 113.6l.2.7M135.2 114.3v.5M135.2 114.8l-.2.7M135.1 115.5l-.2.3M134.9 115.9l-.3.3M134.6 116.2l-.5.2M134 116.4h-.9M129.8 111.8h5.8"/><path class="st4" d="M110.5 113.6h-2.1M109.5 113.6V110M109.5 110l-.3.5M109.2 110.5l-.3.3M108.8 110.8l-.3.2"/><path class="st16" d="M116.7 42.7h-14.4"/><path class="st8" d="m119.1 44.2.5.2M119.6 44.4h.9M120.5 44.4l.3-.2M120.8 44.2l.2-.2M121 44l.2-.3M121.2 43.7v-.3M121.2 43.4l-.2-.3M121 43l-.2-.2M120.8 42.8l-.3-.2M120.5 42.7l-.7-.2M119.8 42.5l-.3-.2M119.5 42.3l-.2-.2M119.3 42.2l-.2-.3M119.1 41.8v-.3M119.1 41.5l.2-.3M119.3 41.1l.2-.2M119.5 41l.3-.2M119.8 40.8h.9M120.7 40.8l.5.2M122.7 42.5h1.2M124.4 44.4h-1.7M122.7 44.4v-3.6M122.7 40.8h1.7M128 44.4l-1.2-1.7M126 44.4v-3.6M126 40.8h1.4M127.3 40.8l.3.2M127.7 41l.2.2M127.9 41.1l.2.3M128 41.5v.5M128 42l-.2.3M127.9 42.3l-.2.2M127.7 42.5l-.3.2M127.3 42.7h-1.4"/><path class="st4" d="M108.8 41.6h-2.1M107.8 41.6V38M107.8 38l-.3.5M107.5 38.5l-.3.3M107.1 38.8l-.3.2M111.1 38h.3M111.4 38l.3.2M111.7 38.1l.2.2M111.9 38.3l.2.3M112.1 38.6l.2.7M112.3 39.3v.9M112.3 40.2l-.2.7M112.1 40.9l-.2.3M111.9 41.2l-.2.2M111.7 41.4l-.3.2M111.4 41.6h-.3M111.1 41.6l-.3-.2M110.7 41.4l-.2-.2M110.5 41.2l-.2-.3M110.4 40.9l-.2-.7M110.2 40.2v-.9M110.2 39.3l.2-.7M110.4 38.6l.2-.3M110.5 38.3l.2-.2M110.7 38.1l.3-.2"/><path class="st16" d="M116.7 49.9h-14.4"/><path class="st8" d="M119.1 50.6h1.7M118.8 51.6 120 48M120 48l1.2 3.6"/><path class="st4" d="M108.8 48.8h-2.1M107.8 48.8v-3.6M107.8 45.2l-.3.5M107.5 45.7l-.3.3M107.1 46l-.3.2M112.3 48.8h-2.1M111.2 48.8v-3.6M111.2 45.2l-.3.5M110.9 45.7l-.3.3M110.5 46l-.3.2"/><path class="st16" d="M116.7 57.1h-14.4"/><path class="st8" d="m120.5 56.9.5.2M121 57.1l.2.2M121.2 57.2l.2.3M121.4 57.6v.5M121.4 58.1l-.2.3M121.2 58.4l-.2.2M121 58.6l-.3.2M120.7 58.8h-1.4M119.3 58.8v-3.6M119.3 55.2h1.2M120.5 55.2l.3.2M120.8 55.4l.2.2M121 55.5l.2.3M121.2 55.9v.3M121.2 56.2l-.2.3M121 56.6l-.2.2M120.8 56.7l-.3.2M120.5 56.9h-1.2"/><path class="st4" d="M108.8 56h-2.1M107.8 56v-3.6M107.8 52.4l-.3.5M107.5 52.9l-.3.3M107.1 53.2l-.3.2M110.2 52.7l.2-.2M110.4 52.5l.3-.2M110.7 52.4h.9M111.6 52.4l.3.2M111.9 52.5l.2.2M112.1 52.7l.2.3M112.3 53v.3M112.3 53.4l-.2.5M112.1 53.9 110 56M110 56h2.2"/><path class="st16" d="M116.7 64.3h-14.4"/><path class="st8" d="m121.4 65.6-.2.2M121.2 65.8l-.5.2M120.7 66h-.3M120.3 66l-.5-.2M119.8 65.8l-.3-.3M119.5 65.5l-.2-.3M119.3 65.1l-.2-.7M119.1 64.4v-.5M119.1 63.9l.2-.7M119.3 63.2l.2-.3M119.5 62.9l.3-.3M119.8 62.6l.5-.2M120.3 62.4h.3M120.7 62.4l.5.2M121.2 62.6l.2.2"/><path class="st4" d="M108.8 63.2h-2.1M107.8 63.2v-3.6M107.8 59.6l-.3.5M107.5 60.1l-.3.3M107.1 60.4l-.3.2M110 59.6h2.2M112.3 59.6l-1.2 1.4M111.1 60.9h.5M111.6 60.9l.3.2M111.9 61.1l.2.2M112.1 61.3l.2.3M112.3 61.6v.9M112.3 62.5l-.2.3M112.1 62.8l-.2.2M111.9 63l-.3.2M111.6 63.2h-1M110.5 63.2l-.3-.2M110.2 63l-.2-.2"/><path class="st16" d="M116.7 71.5h-14.4"/><path class="st8" d="M119.3 73.2v-3.6M119.3 69.6h.9M120.2 69.6l.5.2M120.7 69.8l.3.3M121 70.1l.2.3M121.2 70.4l.2.7M121.4 71.1v.5M121.4 71.6l-.2.7M121.2 72.3l-.2.3M121 72.7l-.3.3M120.7 73l-.5.2M120.2 73.2h-.9"/><path class="st4" d="M108.8 70.4h-2.1M107.8 70.4v-3.6M107.8 66.8l-.3.5M107.5 67.3l-.3.3M107.1 67.6l-.3.2M111.9 68v2.4M111.1 66.6l-.9 2.6M110.2 69.2h2.2"/><path class="st16" d="M116.7 136.3h-14.4"/><path class="st8" d="m121.4 137.6-.2.2M121.2 137.8l-.5.2M120.7 138h-.3M120.3 138l-.5-.2M119.8 137.8l-.3-.3M119.5 137.5l-.2-.3M119.3 137.1l-.2-.7M119.1 136.4v-.5M119.1 135.9l.2-.7M119.3 135.2l.2-.3M119.5 134.9l.3-.3M119.8 134.6l.5-.2M120.3 134.4h.3M120.7 134.4l.5.2M121.2 134.6l.2.2M124.6 138h-1.7M122.9 138v-3.6M125.8 138v-3.6M127.9 138l-1.5-2.1M127.9 134.4l-2.1 2.1M128.6 138.3h2.7M132.2 138v-3.6M133.9 138v-3.6M133.9 134.4l2.1 3.6M135.9 138v-3.6M137.6 138v-3.6M137.6 136.1h2.1M139.7 138v-3.6"/><path class="st4" d="M108.8 135.2h-2.1M107.8 135.2v-3.6M107.8 131.6l-.3.5M107.5 132.1l-.3.3M107.1 132.4l-.3.2M112.1 131.6h-1.7M110.4 131.6l-.2 1.7M110.2 133.3l.2-.2M110.4 133.1l.3-.2M110.7 132.9h.9M111.6 132.9l.3.2M111.9 133.1l.2.2M112.1 133.3l.2.3M112.3 133.6v.9M112.3 134.5l-.2.3M112.1 134.8l-.2.2M111.9 135l-.3.2M111.6 135.2h-.9M110.7 135.2l-.3-.2M110.4 135l-.2-.2"/><path class="st16" d="M138.3 35.5V21.1"/><path class="st8" d="M136.4 47.2 140 46M140 46l-3.6-1.2M139.6 41.6l.2.2M139.8 41.7l.2.5M140 42.2v.3M140 42.6l-.2.5M139.8 43.1l-.3.3M139.4 43.4l-.3.2M139.1 43.6l-.7.2M138.4 43.8h-.5M137.9 43.8l-.7-.2M137.2 43.6l-.3-.2M136.9 43.4l-.3-.3M136.5 43.1l-.2-.5M136.4 42.6v-.3M136.4 42.2l.2-.5M136.5 41.7l.2-.2M139.6 38l.2.2M139.8 38.1l.2.5M140 38.6v.3M140 39l-.2.5M139.8 39.5l-.3.3M139.4 39.8l-.3.2M139.1 40l-.7.2M138.4 40.2h-.5M137.9 40.2l-.7-.2M137.2 40l-.3-.2M136.9 39.8l-.3-.3M136.5 39.5l-.2-.5M136.4 39v-.3M136.4 38.6l.2-.5M136.5 38.1l.2-.2"/><path class="st4" d="M137.1 29v2.1M137.1 30.1h-3.6M133.5 30.1l.5.3M134 30.4l.3.3M134.4 30.7l.2.3M133.5 25.9v.7M133.5 26.6l.2.3M133.7 27l.2.2M133.9 27.1l.5.3M134.4 27.5l.7.2M135.1 27.7h1.4M136.4 27.7l.3-.2M136.8 27.5l.2-.2M137 27.3l.2-.3M137.1 27v-.7M137.1 26.3l-.2-.3M137 25.9l-.2-.2M136.8 25.8l-.3-.2M136.4 25.6h-.9M135.6 25.6l-.3.2M135.2 25.8l-.2.2M135.1 25.9l-.2.3M134.9 26.3v.7M134.9 27l.2.3M135.1 27.3l.2.2M135.2 27.5l.3.2"/><path class="st16" d="M116.7 129.1h-14.4"/><path class="st8" d="m121.4 130.4-.2.2M121.2 130.6l-.5.2M120.7 130.8h-.3M120.3 130.8l-.5-.2M119.8 130.6l-.3-.3M119.5 130.3l-.2-.3M119.3 129.9l-.2-.7M119.1 129.2v-.5M119.1 128.7l.2-.7M119.3 128l.2-.3M119.5 127.7l.3-.3M119.8 127.4l.5-.2M120.3 127.2h.3M120.7 127.2l.5.2M121.2 127.4l.2.2M124.6 130.8h-1.7M122.9 130.8v-3.6M125.8 130.8v-3.6M127.9 130.8l-1.5-2.1M127.9 127.2l-2.1 2.1"/><path class="st4" d="m108.5 124.7.2-.2M108.7 124.5l.3-.2M109 124.4h.9M109.9 124.4l.3.2M110.2 124.5l.2.2M110.4 124.7l.2.3M110.5 125v.3M110.5 125.4l-.2.5M110.4 125.9l-2.1 2.1M108.3 128h2.2"/><path class="st16" d="M116.7 78.7h-14.4"/><path class="st8" d="M119.3 78.5h1.2M121 80.4h-1.7M119.3 80.4v-3.6M119.3 76.8h1.7"/><path class="st4" d="M108.3 74h2.2M110.5 74l-1.2 1.4M109.3 75.3h.5M109.9 75.3l.3.2M110.2 75.5l.2.2M110.4 75.7l.2.3M110.5 76v.9M110.5 76.9l-.2.3M110.4 77.2l-.2.2M110.2 77.4l-.3.2M109.9 77.6h-1M108.8 77.6l-.3-.2M108.5 77.4l-.2-.2"/><path class="st16" d="M116.7 85.9h-14.4"/><path class="st8" d="M120.5 85.7h-1.2M119.3 87.6V84M119.3 84h1.7"/><path class="st4" d="M110.2 82.4v2.4M109.3 81l-.9 2.6M108.5 83.6h2.2"/><path class="st16" d="M116.7 93.1h-14.4"/><path class="st8" d="m121.2 91.4-.3-.2M120.8 91.2h-.5M120.3 91.2l-.5.2M119.8 91.4l-.3.3M119.5 91.7l-.2.3M119.3 92l-.2.7M119.1 92.7v.5M119.1 93.2l.2.7M119.3 93.9l.2.3M119.5 94.3l.3.3M119.8 94.6l.5.2M120.3 94.8h.3M120.7 94.8l.5-.2M121.2 94.6l.2-.2M121.4 94.4v-1.2M121.4 93.2h-.7"/><path class="st4" d="M110.4 88.4h-1.7M108.7 88.4l-.2 1.7M108.5 90.1l.2-.2M108.7 89.9l.3-.2M109 89.7h.9M109.9 89.7l.3.2M110.2 89.9l.2.2M110.4 90.1l.2.3M110.5 90.4v.9M110.5 91.3l-.2.3M110.4 91.6l-.2.2M110.2 91.8l-.3.2M109.9 92h-.9M109 92l-.3-.2M108.7 91.8l-.2-.2"/><path class="st16" d="M116.7 100.3h-14.4"/><path class="st8" d="M119.3 102v-3.6M119.3 100.1h2.1M121.4 102v-3.6"/><path class="st4" d="M110.2 95.6h-.7M109.5 95.6l-.3.2M109.2 95.7l-.2.2M109 95.9l-.3.5M108.7 96.4l-.2.7M108.5 97.1v1.4M108.5 98.5l.2.3M108.7 98.8l.2.2M108.8 99l.3.2M109.2 99.2h.7M109.9 99.2l.3-.2M110.2 99l.2-.2M110.4 98.8l.2-.3M110.5 98.5v-.9M110.5 97.6l-.2-.3M110.4 97.3l-.2-.2M110.2 97.1l-.3-.2M109.9 96.9h-.7M109.2 96.9l-.3.2M108.8 97.1l-.2.2M108.7 97.3l-.2.3"/><path class="st16" d="M159.9 49.9h14.4"/><path class="st8" d="m153.9 51.9-.3-.2M153.6 51.8l-.3-.3M153.2 51.4l-.5-.5M152.7 50.9l-.3-.2M152.4 50.7h-.3M152.2 51.6l-.3-.2M151.8 51.4l-.3-.3M151.5 51.1l-.2-.7M151.3 50.4v-1.2M151.3 49.2l.2-.7M151.5 48.5l.3-.3M151.8 48.2l.3-.2M152.2 48h.7M152.9 48l.3.2M153.2 48.2l.3.3M153.6 48.5l.2.7M153.7 49.2v1.2M153.7 50.4l-.2.7M153.6 51.1l-.3.3M153.2 51.4l-.3.2M152.9 51.6h-.7M155.3 51.6V48M155.3 49.7h2.1M157.3 51.6V48M151 47h6.8"/><path class="st4" d="M165.9 45.2h2.4M168.3 45.2l-1.5 3.6"/><path class="st16" d="M145.5 143.5v14.4"/><path class="st8" d="m143.7 139.1-.2.3M143.6 139.4v.5M143.6 139.9l.2.5M143.7 140.5l.3.3M144.1 140.8l.3.2M144.4 141l.7.2M145.1 141.1h.5M145.6 141.1l.7-.2M146.3 141l.3-.2M146.6 140.8l.3-.3M147 140.5l.2-.5M147.2 139.9v-.3M147.2 139.6l-.2-.5M147 139.1l-.2-.2M146.8 138.9h-1.2M145.6 138.9v.7M147.2 137.4h-3.6M143.6 137.4l3.6-2.1M147.2 135.3h-3.6M147.2 133.6h-3.6M143.6 133.6v-.9M143.6 132.7l.2-.5M143.7 132.2l.3-.3M144.1 131.9l.3-.2M144.4 131.7l.7-.2M145.1 131.5h.5M145.6 131.5l.7.2M146.3 131.7l.3.2M146.6 131.9l.3.3M147 132.2l.2.5M147.2 132.7v.9"/><path class="st4" d="m142.3 151.1-.2.3M142.1 151.4l-.2.2M141.9 151.6l-.3.2M141.6 151.8h-.2M141.4 151.8l-.3-.2M141.1 151.6l-.2-.2M140.9 151.4l-.2-.3M140.7 151.1v-.7M140.7 150.4l.2-.3M140.9 150.1l.2-.2M141.1 149.9l.3-.2M141.4 149.7h.2M141.6 149.7l.3.2M141.9 149.9l.2.2M142.1 150.1l.2.3M142.3 150.4v.7M142.3 151.1l.2.3M142.4 151.4l.2.2M142.6 151.6l.3.2M143 151.8h.7M143.6 151.8l.3-.2M144 151.6l.2-.2M144.2 151.4l.2-.3M144.3 151.1v-.7M144.3 150.4l-.2-.3M144.2 150.1l-.2-.2M144 149.9l-.3-.2M143.6 149.7h-.7M143 149.7l-.3.2M142.6 149.9l-.2.2M142.4 150.1l-.2.3"/><path class="st16" d="M159.9 42.7h14.4"/><path class="st8" d="m153.9 44.7-.3-.2M153.6 44.6l-.3-.3M153.2 44.2l-.5-.5M152.7 43.7l-.3-.2M152.4 43.5h-.3M152.2 44.4l-.3-.2M151.8 44.2l-.3-.3M151.5 43.9l-.2-.7M151.3 43.2V42M151.3 42l.2-.7M151.5 41.3l.3-.3M151.8 41l.3-.2M152.2 40.8h.7M152.9 40.8l.3.2M153.2 41l.3.3M153.6 41.3l.2.7M153.7 42v1.2M153.7 43.2l-.2.7M153.6 43.9l-.3.3M153.2 44.2l-.3.2M152.9 44.4h-.7M155.3 44.4v-3.6M155.3 42.5h2.1M157.3 44.4v-3.6"/><path class="st4" d="M166.4 41.6h.7M167.1 41.6l.3-.2M167.5 41.4l.2-.2M167.6 41.2l.3-.5M168 40.7l.2-.7M168.1 40v-1.4M168.1 38.6l-.2-.3M168 38.3l-.2-.2M167.8 38.1l-.3-.2M167.5 38h-.7M166.8 38l-.3.2M166.4 38.1l-.2.2M166.3 38.3l-.2.3M166.1 38.6v.9M166.1 39.5l.2.3M166.3 39.8l.2.2M166.4 40l.3.2M166.8 40.2h.7M167.5 40.2l.3-.2M167.8 40l.2-.2M168 39.8l.2-.3"/><circle class="st13" cx="1.5" cy="85.9" r="1.3"/><circle class="st13" cx="1.5" cy="93.1" r="1.3"/><circle class="st13" cx="1.5" cy="100.3" r="1.3"/><circle class="st13" cx="1.5" cy="57.1" r="1.3"/><circle class="st13" cx="1.5" cy="64.3" r="1.3"/><circle class="st13" cx="1.5" cy="71.5" r="1.3"/><circle class="st13" cx="1.5" cy="78.7" r="1.3"/><circle class="st13" cx="138.3" cy="17.5" r="1.3"/><circle class="st13" cx="102.3" cy="157.9" r="1.3"/><circle class="st13" cx="73.5" cy="157.9" r="1.3"/></svg>