<svg id="Layer_1" xmlns="http://www.w3.org/2000/svg" version="1.1" viewBox="0 0 189.7 169.9"><defs><style>.st1{letter-spacing:1.6em}.st4{letter-spacing:.1em}.st5{stroke:#000084}.st10,.st11,.st12,.st13,.st14,.st15,.st16,.st17,.st18,.st5,.st6,.st7,.st8,.st9{stroke-linecap:round;stroke-linejoin:round}.st10,.st11,.st12,.st13,.st14,.st16,.st17,.st18,.st5,.st6,.st7,.st8,.st9{fill:none}.st10,.st14,.st15,.st16,.st18,.st5,.st6,.st9{stroke-width:.4px}.st17,.st6{stroke:#a90000}.st21{letter-spacing:.2em}.st11,.st12,.st17,.st7{font-family:ArialMT,Arial;font-size:4.8px;stroke-width:.4px}.st16,.st7{stroke:#0f0f0f}.st8{stroke-width:.7px}.st13,.st18,.st8{stroke:#840000}.st15,.st9{stroke:#009600}.st26,.st30{letter-spacing:.8em}.st10,.st12{stroke:#006464}.st11,.st14{stroke:#0000c2}.st34{letter-spacing:.4em}.st13{stroke-width:.6px}.st35{isolation:isolate;opacity:0}.st15{fill:#009600}.st40{letter-spacing:.3em}</style></defs><path style="fill:#ffffc2" d="M53 50h43.2v79.2H53z"/><path class="st8" d="M53 50h43.2v79.2H53z"/><path class="st18" d="M96.2 64.4h7.2"/><path class="st10" d="m90.4 66.3-.3-.2M90 66.2l-.3-.3M89.7 65.8l-.5-.5M89.2 65.3l-.3-.2M88.8 65.1h-.3M88.7 66l-.3-.2M88.3 65.8l-.3-.3M88 65.5l-.2-.7M87.8 64.8v-1.2M87.8 63.6l.2-.7M88 62.9l.3-.3M88.3 62.6l.3-.2M88.7 62.4h.7M89.3 62.4l.3.2M89.7 62.6l.3.3M90 62.9l.2.7M90.2 63.6v1.2M90.2 64.8l-.2.7M90 65.5l-.3.3M89.7 65.8l-.3.2M89.3 66h-.7M92.9 64.1l.5.2M93.5 64.3l.2.2M93.6 64.5l.2.3M93.8 64.8v.5M93.8 65.3l-.2.3M93.6 65.7l-.2.2M93.5 65.8l-.3.2M93.1 66h-1.4M91.7 66v-3.6M91.7 62.4h1.2M92.9 62.4l.3.2M93.3 62.6l.2.2M93.5 62.7l.2.3M93.6 63.1v.3M93.6 63.4l-.2.3M93.5 63.8l-.2.2M93.3 63.9l-.3.2M92.9 64.1h-1.2"/><path class="st6" d="M100.8 63.2h-2.1M99.8 63.2v-3.6M99.8 59.6l-.3.5M99.5 60.1l-.3.3M99.1 60.4l-.3.2"/><path class="st18" d="M53 78.8h-7.2"/><path class="st10" d="m55.4 80.2.5.2M55.9 80.4h.9M56.8 80.4l.3-.2M57.1 80.2l.2-.2M57.3 80.1l.2-.3M57.5 79.7v-.3M57.5 79.4l-.2-.3M57.3 79l-.2-.2M57.1 78.9l-.3-.2M56.8 78.7l-.7-.2M56.1 78.5l-.3-.2M55.8 78.3l-.2-.2M55.6 78.2l-.2-.3M55.4 77.8v-.3M55.4 77.5l.2-.3M55.6 77.1l.2-.2M55.8 77l.3-.2M56.1 76.8h.9M57 76.8l.5.2M61.1 80.4l-1.2-1.7M59 80.4v-3.6M59 76.8h1.4M60.4 76.8l.3.2M60.7 77l.2.2M60.9 77.1l.2.3M61.1 77.5v.5M61.1 78l-.2.3M60.9 78.3l-.2.2M60.7 78.5l-.3.2M60.4 78.7H59M64.7 80.1l-.2.2M64.5 80.2l-.5.2M64 80.4h-.3M63.6 80.4l-.5-.2M63.1 80.2l-.3-.3M62.8 79.9l-.2-.3M62.6 79.5l-.2-.7M62.4 78.9v-.5M62.4 78.3l.2-.7M62.6 77.7l.2-.3M62.8 77.3l.3-.3M63.1 77l.5-.2M63.6 76.8h.3M64 76.8l.5.2M64.5 77l.2.2M67.9 80.4h-1.7M66.2 80.4v-3.6M71.2 80.4 70 78.7M69.1 80.4v-3.6M69.1 76.8h1.4M70.5 76.8l.3.2M70.8 77l.2.2M71 77.1l.2.3M71.2 77.5v.5M71.2 78l-.2.3M71 78.3l-.2.2M70.8 78.5l-.3.2M70.5 78.7h-1.4M55.1 75.8h16.4"/><path class="st6" d="M48.7 77.6h-2.1M47.7 77.6V74M47.7 74l-.3.5M47.4 74.5l-.3.3M47 74.8l-.3.2M51 74h.3M51.3 74l.3.2M51.6 74.1l.2.2M51.8 74.3l.2.3M52 74.7l.2.7M52.2 75.3v.9M52.2 76.2l-.2.7M52 76.9l-.2.3M51.8 77.2l-.2.2M51.6 77.4l-.3.2M51.3 77.6H51M51 77.6l-.3-.2M50.6 77.4l-.2-.2M50.4 77.2l-.2-.3M50.3 76.9l-.2-.7M50.1 76.2v-.9M50.1 75.3l.2-.7M50.3 74.7l.2-.3M50.4 74.3l.2-.2M50.6 74.1l.3-.2"/><path class="st18" d="M53 71.6h-7.2"/><path class="st10" d="m55.4 73 .5.2M55.9 73.2h.9M56.8 73.2l.3-.2M57.1 73l.2-.2M57.3 72.9l.2-.3M57.5 72.5v-.3M57.5 72.2l-.2-.3M57.3 71.8l-.2-.2M57.1 71.7l-.3-.2M56.8 71.5l-.7-.2M56.1 71.3l-.3-.2M55.8 71.1l-.2-.2M55.6 71l-.2-.3M55.4 70.6v-.3M55.4 70.3l.2-.3M55.6 69.9l.2-.2M55.8 69.8l.3-.2M56.1 69.6h.9M57 69.6l.5.2M61.1 73.2l-1.2-1.7M59 73.2v-3.6M59 69.6h1.4M60.4 69.6l.3.2M60.7 69.8l.2.2M60.9 69.9l.2.3M61.1 70.3v.5M61.1 70.8l-.2.3M60.9 71.1l-.2.2M60.7 71.3l-.3.2M60.4 71.5H59M64.7 72.9l-.2.2M64.5 73l-.5.2M64 73.2h-.3M63.6 73.2l-.5-.2M63.1 73l-.3-.3M62.8 72.7l-.2-.3M62.6 72.3l-.2-.7M62.4 71.7v-.5M62.4 71.1l.2-.7M62.6 70.5l.2-.3M62.8 70.1l.3-.3M63.1 69.8l.5-.2M63.6 69.6h.3M64 69.6l.5.2M64.5 69.8l.2.2M67.9 73.2h-1.7M66.2 73.2v-3.6M69.1 73.2v-3.6M71.2 73.2l-1.5-2.1M71.2 69.6l-2.1 2.1"/><path class="st6" d="M48.7 70.4h-2.1M47.7 70.4v-3.6M47.7 66.8l-.3.5M47.4 67.3l-.3.3M47 67.6l-.3.2M52.2 70.4h-2.1M51.1 70.4v-3.6M51.1 66.8l-.3.5M50.8 67.3l-.3.3M50.4 67.6l-.3.2"/><path class="st18" d="M53 93.2h-7.2"/><path class="st10" d="m57.6 94.8-1.2-1.7M55.6 94.8v-3.6M55.6 91.2H57M57 91.2l.3.2M57.3 91.4l.2.2M57.5 91.5l.2.3M57.6 91.9v.5M57.6 92.4l-.2.3M57.5 92.7l-.2.2M57.3 92.9l-.3.2M57 93.1h-1.4M61.2 94.5l-.2.2M61.1 94.6l-.5.2M60.6 94.8h-.3M60.2 94.8l-.5-.2M59.7 94.6l-.3-.3M59.4 94.3l-.2-.3M59.2 93.9l-.2-.7M59 93.3v-.5M59 92.7l.2-.7M59.2 92.1l.2-.3M59.4 91.7l.3-.3M59.7 91.4l.5-.2M60.2 91.2h.3M60.6 91.2l.5.2M61.1 91.4l.2.2M64.5 94.8h-1.7M62.8 94.8v-3.6M65.7 94.8v-3.6M67.8 94.8l-1.5-2.1M67.8 91.2l-2.1 2.1"/><path class="st6" d="M48.7 92h-2.1M47.7 92v-3.6M47.7 88.4l-.3.5M47.4 88.9l-.3.3M47 89.2l-.3.2M50.1 88.7l.2-.2M50.3 88.5l.3-.2M50.6 88.4h.9M51.5 88.4l.3.2M51.8 88.5l.2.2M52 88.7l.2.3M52.2 89.1v.3M52.2 89.4l-.2.5M52 89.9 49.9 92M49.9 92h2.2"/><path class="st18" d="M53 100.4h-7.2"/><path class="st10" d="M56.3 98.4h.7M57 98.4l.3.2M57.3 98.6l.3.3M57.6 98.9l.2.7M57.8 99.6v1.2M57.8 100.8l-.2.7M57.6 101.5l-.3.3M57.3 101.8l-.3.2M57 102h-.7M56.3 102l-.3-.2M55.9 101.8l-.3-.3M55.6 101.5l-.2-.7M55.4 100.8v-1.2M55.4 99.6l.2-.7M55.6 98.9l.3-.3M55.9 98.6l.3-.2M59.4 100.1h1.2M61.1 102h-1.7M59.4 102v-3.6M59.4 98.4h1.7M55.1 97.4h6.3"/><path class="st6" d="M48.7 99.2h-2.1M47.7 99.2v-3.6M47.7 95.6l-.3.5M47.4 96.1l-.3.3M47 96.4l-.3.2M49.9 95.6h2.2M52.2 95.6 51 97M51 96.9h.5M51.5 96.9l.3.2M51.8 97.1l.2.2M52 97.3l.2.3M52.2 97.6v.9M52.2 98.5l-.2.3M52 98.8l-.2.2M51.8 99l-.3.2M51.5 99.2h-1M50.4 99.2l-.3-.2M50.1 99l-.2-.2"/><path class="st18" d="M53 57.2h-7.2"/><path class="st10" d="m55.4 58.6.5.2M55.9 58.8h.9M56.8 58.8l.3-.2M57.1 58.6l.2-.2M57.3 58.5l.2-.3M57.5 58.1v-.3M57.5 57.8l-.2-.3M57.3 57.4l-.2-.2M57.1 57.3l-.3-.2M56.8 57.1l-.7-.2M56.1 56.9l-.3-.2M55.8 56.7l-.2-.2M55.6 56.6l-.2-.3M55.4 56.2v-.3M55.4 55.9l.2-.3M55.6 55.5l.2-.2M55.8 55.4l.3-.2M56.1 55.2h.9M57 55.2l.5.2M59 56.9h1.2M60.7 58.8H59M59 58.8v-3.6M59 55.2h1.7M64.3 58.8l-1.2-1.7M62.3 58.8v-3.6M62.3 55.2h1.4M63.6 55.2l.3.2M64 55.4l.2.2M64.2 55.5l.2.3M64.3 55.9v.5M64.3 56.4l-.2.3M64.2 56.7l-.2.2M64 56.9l-.3.2M63.6 57.1h-1.4"/><path class="st6" d="M48.7 56h-2.1M47.7 56v-3.6M47.7 52.4l-.3.5M47.4 52.9l-.3.3M47 53.2l-.3.2M51.8 53.6V56M51 52.2l-.9 2.6M50.1 54.8h2.2"/><path class="st18" d="M96.2 57.2h7.2"/><path class="st10" d="m90.9 59.1-.3-.2M90.5 59l-.3-.3M90.2 58.6l-.5-.5M89.7 58.1l-.3-.2M89.3 57.9H89M89.2 58.8l-.3-.2M88.8 58.6l-.3-.3M88.5 58.3l-.2-.7M88.3 57.6v-1.2M88.3 56.4l.2-.7M88.5 55.7l.3-.3M88.8 55.4l.3-.2M89.2 55.2h.7M89.9 55.2l.3.2M90.2 55.4l.3.3M90.5 55.7l.2.7M90.7 56.4v1.2M90.7 57.6l-.2.7M90.5 58.3l-.3.3M90.2 58.6l-.3.2M89.9 58.8h-.7M92.1 57.8h1.7M91.7 58.8l1.2-3.6M92.9 55.2l1.2 3.6"/><path class="st6" d="M99.1 56H97M98.1 56v-3.6M98.1 52.4l-.3.5M97.8 52.9l-.3.3M97.4 53.2l-.3.2M102.4 52.4h-1.7M100.7 52.4l-.2 1.7M100.5 54.1l.2-.2M100.7 53.9l.3-.2M101 53.7h.9M101.9 53.7l.3.2M102.2 53.9l.2.2M102.4 54.1l.2.3M102.6 54.4v.9M102.6 55.3l-.2.3M102.4 55.6l-.2.2M102.2 55.8l-.3.2M101.9 56h-.9M101 56l-.3-.2M100.7 55.8l-.2-.2"/><path class="st18" d="M74.6 50v-7.2"/><path class="st10" d="m72.7 61.6 3.6-1.2M76.3 60.4l-3.6-1.2M75.9 56l.2.2M76.1 56.1l.2.5M76.3 56.6v.3M76.3 57l-.2.5M76.1 57.5l-.3.3M75.7 57.8l-.3.2M75.4 58l-.7.2M74.7 58.2h-.5M74.2 58.2l-.7-.2M73.5 58l-.3-.2M73.2 57.8l-.3-.3M72.8 57.5l-.2-.5M72.7 57v-.3M72.7 56.6l.2-.5M72.8 56.1l.2-.2M75.9 52.4l.2.2M76.1 52.5l.2.5M76.3 53v.3M76.3 53.4l-.2.5M76.1 53.9l-.3.3M75.7 54.2l-.3.2M75.4 54.4l-.7.2M74.7 54.6h-.5M74.2 54.6l-.7-.2M73.5 54.4l-.3-.2M73.2 54.2l-.3-.3M72.8 53.9l-.2-.5M72.7 53.4v-.3M72.7 53l.2-.5M72.8 52.5l.2-.2"/><path class="st6" d="M73.4 47v2.1M73.4 48.1h-3.6M69.8 48.1l.5.3M70.3 48.4l.3.3M70.7 48.8l.2.3M69.8 44v.7M69.8 44.6l.2.3M70 45l.2.2M70.2 45.2l.5.3M70.7 45.5l.7.2M71.4 45.7h1.4M72.7 45.7l.3-.2M73.1 45.5l.2-.2M73.3 45.3l.2-.3M73.4 45v-.7M73.4 44.3l-.2-.3M73.3 44l-.2-.2M73.1 43.8l-.3-.2M72.7 43.6h-.9M71.9 43.6l-.3.2M71.5 43.8l-.2.2M71.4 44l-.2.3M71.2 44.3v.7M71.2 45l.2.3M71.4 45.3l.2.2M71.5 45.5l.3.2"/><path class="st18" d="M96.2 71.6h7.2"/><path class="st10" d="m90.4 73.5-.3-.2M90 73.4l-.3-.3M89.7 73l-.5-.5M89.2 72.5l-.3-.2M88.8 72.3h-.3M88.7 73.2l-.3-.2M88.3 73l-.3-.3M88 72.7l-.2-.7M87.8 72v-1.2M87.8 70.8l.2-.7M88 70.1l.3-.3M88.3 69.8l.3-.2M88.7 69.6h.7M89.3 69.6l.3.2M89.7 69.8l.3.3M90 70.1l.2.7M90.2 70.8V72M90.2 72l-.2.7M90 72.7l-.3.3M89.7 73l-.3.2M89.3 73.2h-.7M93.8 72.9l-.2.2M93.6 73l-.5.2M93.1 73.2h-.3M92.8 73.2l-.5-.2M92.3 73l-.3-.3M91.9 72.7l-.2-.3M91.7 72.3l-.2-.7M91.6 71.7v-.5M91.6 71.1l.2-.7M91.7 70.5l.2-.3M91.9 70.1l.3-.3M92.3 69.8l.5-.2M92.8 69.6h.3M93.1 69.6l.5.2M93.6 69.8l.2.2"/><path class="st6" d="m98.8 67.1.2-.2M99 66.9l.3-.2M99.3 66.8h.9M100.2 66.8l.3.2M100.5 66.9l.2.2M100.7 67.1l.2.3M100.8 67.5v.3M100.8 67.8l-.2.5M100.7 68.3l-2.1 2.1M98.6 70.4h2.2"/><path class="st18" d="M96.2 78.8h7.2"/><path class="st10" d="m90.4 80.7-.3-.2M90 80.6l-.3-.3M89.7 80.2l-.5-.5M89.2 79.7l-.3-.2M88.8 79.5h-.3M88.7 80.4l-.3-.2M88.3 80.2l-.3-.3M88 79.9l-.2-.7M87.8 79.2V78M87.8 78l.2-.7M88 77.3l.3-.3M88.3 77l.3-.2M88.7 76.8h.7M89.3 76.8l.3.2M89.7 77l.3.3M90 77.3l.2.7M90.2 78v1.2M90.2 79.2l-.2.7M90 79.9l-.3.3M89.7 80.2l-.3.2M89.3 80.4h-.7M91.7 80.4v-3.6M91.7 76.8h.9M92.6 76.8l.5.2M93.1 77l.3.3M93.5 77.3l.2.3M93.6 77.7l.2.7M93.8 78.3v.5M93.8 78.9l-.2.7M93.6 79.5l-.2.3M93.5 79.9l-.3.3M93.1 80.2l-.5.2M92.6 80.4h-.9"/><path class="st6" d="M98.6 74h2.2M100.8 74l-1.2 1.4M99.6 75.3h.5M100.2 75.3l.3.2M100.5 75.5l.2.2M100.7 75.7l.2.3M100.8 76v.9M100.8 76.9l-.2.3M100.7 77.2l-.2.2M100.5 77.4l-.3.2M100.2 77.6h-1M99.1 77.6l-.3-.2M98.8 77.4l-.2-.2"/><path class="st18" d="M96.2 86h7.2"/><path class="st10" d="m90.7 87.9-.3-.2M90.4 87.8l-.3-.3M90 87.4l-.5-.5M89.5 86.9l-.3-.2M89.2 86.7h-.3M89 87.6l-.3-.2M88.7 87.4l-.3-.3M88.3 87.1l-.2-.7M88.1 86.4v-1.2M88.1 85.2l.2-.7M88.3 84.5l.3-.3M88.7 84.2l.3-.2M89 84h.7M89.7 84l.3.2M90 84.2l.3.3M90.4 84.5l.2.7M90.5 85.2v1.2M90.5 86.4l-.2.7M90.4 87.1l-.3.3M90 87.4l-.3.2M89.7 87.6H89M92.1 85.7h1.2M93.8 87.6h-1.7M92.1 87.6V84M92.1 84h1.7"/><path class="st6" d="M100.5 82.4v2.4M99.6 81l-.9 2.6M98.8 83.6h2.2"/><path class="st18" d="M96.2 93.2h7.2"/><path class="st10" d="m90.9 95.1-.3-.2M90.5 95l-.3-.3M90.2 94.6l-.5-.5M89.7 94.1l-.3-.2M89.3 93.9H89M89.2 94.8l-.3-.2M88.8 94.6l-.3-.3M88.5 94.3l-.2-.7M88.3 93.6v-1.2M88.3 92.4l.2-.7M88.5 91.7l.3-.3M88.8 91.4l.3-.2M89.2 91.2h.7M89.9 91.2l.3.2M90.2 91.4l.3.3M90.5 91.7l.2.7M90.7 92.4v1.2M90.7 93.6l-.2.7M90.5 94.3l-.3.3M90.2 94.6l-.3.2M89.9 94.8h-.7M93.5 92.9h-1.2M92.3 94.8v-3.6M92.3 91.2H94"/><path class="st6" d="M100.7 88.4H99M99 88.4l-.2 1.7M98.8 90.1l.2-.2M99 89.9l.3-.2M99.3 89.7h.9M100.2 89.7l.3.2M100.5 89.9l.2.2M100.7 90.1l.2.3M100.8 90.4v.9M100.8 91.3l-.2.3M100.7 91.6l-.2.2M100.5 91.8l-.3.2M100.2 92h-.9M99.3 92l-.3-.2M99 91.8l-.2-.2"/><path class="st18" d="M96.2 100.4h7.2"/><path class="st10" d="m90.4 102.3-.3-.2M90 102.2l-.3-.3M89.7 101.8l-.5-.5M89.2 101.3l-.3-.2M88.8 101.1h-.3M88.7 102l-.3-.2M88.3 101.8l-.3-.3M88 101.5l-.2-.7M87.8 100.8v-1.2M87.8 99.6l.2-.7M88 98.9l.3-.3M88.3 98.6l.3-.2M88.7 98.4h.7M89.3 98.4l.3.2M89.7 98.6l.3.3M90 98.9l.2.7M90.2 99.6v1.2M90.2 100.8l-.2.7M90 101.5l-.3.3M89.7 101.8l-.3.2M89.3 102h-.7M93.6 98.6l-.3-.2M93.3 98.4h-.5M92.8 98.4l-.5.2M92.3 98.6l-.3.3M91.9 98.9l-.2.3M91.7 99.3l-.2.7M91.6 99.9v.5M91.6 100.5l.2.7M91.7 101.1l.2.3M91.9 101.5l.3.3M92.3 101.8l.5.2M92.8 102h.3M93.1 102l.5-.2M93.6 101.8l.2-.2M93.8 101.7v-1.2M93.8 100.5h-.7"/><path class="st6" d="M100.5 95.6h-.7M99.8 95.6l-.3.2M99.5 95.7l-.2.2M99.3 95.9l-.3.5M99 96.4l-.2.7M98.8 97.1v1.4M98.8 98.5l.2.3M99 98.8l.2.2M99.1 99l.3.2M99.5 99.2h.7M100.2 99.2l.3-.2M100.5 99l.2-.2M100.7 98.8l.2-.3M100.8 98.5v-.9M100.8 97.6l-.2-.3M100.7 97.3l-.2-.2M100.5 97.1l-.3-.2M100.2 96.9h-.7M99.5 96.9l-.3.2M99.1 97.1l-.2.2M99 97.3l-.2.3"/><path class="st18" d="M96.2 107.6h7.2"/><path class="st10" d="m90.2 109.5-.3-.2M89.9 109.4l-.3-.3M89.5 109l-.5-.5M89 108.5l-.3-.2M88.7 108.3h-.3M88.5 109.2l-.3-.2M88.1 109l-.3-.3M87.8 108.7l-.2-.7M87.6 108v-1.2M87.6 106.8l.2-.7M87.8 106.1l.3-.3M88.1 105.8l.3-.2M88.5 105.6h.7M89.2 105.6l.3.2M89.5 105.8l.3.3M89.9 106.1l.2.7M90 106.8v1.2M90 108l-.2.7M89.9 108.7l-.3.3M89.5 109l-.3.2M89.2 109.2h-.7M91.6 109.2v-3.6M91.6 107.3h2.1M93.6 109.2v-3.6"/><path class="st6" d="M98.6 102.8h2.4M101 102.8l-1.5 3.6"/><path class="st18" d="M74.6 129.2v7.2"/><path class="st10" d="m72.8 124.7-.2.3M72.7 125v.5M72.7 125.5l.2.5M72.8 126.1l.3.3M73.2 126.4l.3.2M73.5 126.6l.7.2M74.2 126.7h.5M74.7 126.7l.7-.2M75.4 126.6l.3-.2M75.7 126.4l.3-.3M76.1 126.1l.2-.5M76.3 125.5v-.3M76.3 125.2l-.2-.5M76.1 124.7l-.2-.2M75.9 124.5h-1.2M74.7 124.5v.7M76.3 123h-3.6M72.7 123l3.6-2.1M76.3 120.9h-3.6M76.3 119.2h-3.6M72.7 119.2v-.9M72.7 118.3l.2-.5M72.8 117.8l.3-.3M73.2 117.5l.3-.2M73.5 117.3l.7-.2M74.2 117.1h.5M74.7 117.1l.7.2M75.4 117.3l.3.2M75.7 117.5l.3.3M76.1 117.8l.2.5M76.3 118.3v.9"/><path class="st6" d="m71.4 133.1-.2.3M71.2 133.4l-.2.2M71 133.6l-.3.2M70.7 133.8h-.2M70.5 133.8l-.3-.2M70.2 133.6l-.2-.2M70 133.4l-.2-.3M69.8 133.1v-.7M69.8 132.4l.2-.3M70 132.1l.2-.2M70.2 131.9l.3-.2M70.5 131.7h.2M70.7 131.7l.3.2M71 131.9l.2.2M71.2 132.1l.2.3M71.4 132.4v.7M71.4 133.1l.2.3M71.5 133.4l.2.2M71.7 133.6l.3.2M72.1 133.8h.7M72.7 133.8l.3-.2M73.1 133.6l.2-.2M73.3 133.4l.2-.3M73.4 133.1v-.7M73.4 132.4l-.2-.3M73.3 132.1l-.2-.2M73.1 131.9l-.3-.2M72.7 131.7H72M72.1 131.7l-.3.2M71.7 131.9l-.2.2M71.5 132.1l-.2.3"/><path class="st18" d="M96.2 122h7.2"/><path class="st10" d="m88.5 123.9-.3-.2M88.1 123.8l-.3-.3M87.8 123.4l-.5-.5M87.3 122.9l-.3-.2M86.9 122.7h-.3M86.8 123.6l-.3-.2M86.4 123.4l-.3-.3M86.1 123.1l-.2-.7M85.9 122.4v-1.2M85.9 121.2l.2-.7M86.1 120.5l.3-.3M86.4 120.2l.3-.2M86.8 120h.7M87.5 120l.3.2M87.8 120.2l.3.3M88.1 120.5l.2.7M88.3 121.2v1.2M88.3 122.4l-.2.7M88.1 123.1l-.3.3M87.8 123.4l-.3.2M87.5 123.6h-.7M89.9 123.6V120M89.9 121.7H92M91.9 123.6V120M93.8 120l-.3.7"/><path class="st6" d="M99.1 120.8h.7M99.8 120.8l.3-.2M100.2 120.6l.2-.2M100.3 120.4l.3-.5M100.7 119.9l.2-.7M100.8 119.2v-1.4M100.8 117.9l-.2-.3M100.7 117.5l-.2-.2M100.5 117.3l-.3-.2M100.2 117.2h-.7M99.5 117.2l-.3.2M99.1 117.3l-.2.2M99 117.5l-.2.3M98.8 117.9v.9M98.8 118.7l.2.3M99 119.1l.2.2M99.1 119.2l.3.2M99.5 119.4h.7M100.2 119.4l.3-.2M100.5 119.2l.2-.2M100.7 119.1l.2-.3"/><path class="st10" d="M81.7 40.8h2.4M84.1 40.8l-1.5 3.6M87 42v2.4M86.1 40.6l-.9 2.6M85.3 43.2h2.2M88.9 44.4v-3.6M88.9 42.5H91M90.9 44.4v-3.6M94.7 44.1l-.2.2M94.5 44.2l-.5.2M94 44.4h-.3M93.7 44.4l-.5-.2M93.1 44.2l-.3-.3M92.8 43.9l-.2-.3M92.6 43.5l-.2-.7M92.5 42.9v-.5M92.5 42.3l.2-.7M92.6 41.7l.2-.3M92.8 41.3l.3-.3M93.1 41l.5-.2M93.7 40.8h.3M94 40.8l.5.2M94.5 41l.2.2M97.9 40.8h-1.7M96.2 40.8l-.2 1.7M96.1 42.5l.2-.2M96.2 42.3l.3-.2M96.6 42.2h.9M97.4 42.2l.3.2M97.8 42.3l.2.2M97.9 42.5l.2.3M98.1 42.9v.9M98.1 43.7l-.2.3M97.9 44.1l-.2.2M97.8 44.2l-.3.2M97.4 44.4h-.9M96.6 44.4l-.3-.2M96.2 44.2 96 44M99.8 44.4h.7M100.5 44.4l.3-.2M100.9 44.2l.2-.2M101 44.1l.3-.5M101.4 43.5l.2-.7M101.5 42.9v-1.4M101.5 41.5l-.2-.3M101.4 41.1l-.2-.2M101.2 41l-.3-.2M100.9 40.8h-.7M100.2 40.8l-.3.2M99.8 41l-.2.2M99.7 41.1l-.2.3M99.5 41.5v.9M99.5 42.3l.2.3M99.7 42.7l.2.2M99.8 42.9l.3.2M100.2 43h.7M100.9 43l.3-.2M101.2 42.9l.2-.2M101.4 42.7l.2-.3M104.8 40.8h-1.7M103.1 40.8l-.2 1.7M102.9 42.5l.2-.2M103.1 42.3l.3-.2M103.4 42.2h.9M104.3 42.2l.3.2M104.6 42.3l.2.2M104.8 42.5l.2.3M105 42.9v.9M105 43.7l-.2.3M104.8 44.1l-.2.2M104.6 44.2l-.3.2M104.3 44.4h-.9M103.4 44.4l-.3-.2M103.1 44.2l-.2-.2"/><path class="st8" d="M146.6 53.6v7.2"/><path class="st18" d="M146.6 57.2h-7.2"/><path class="st8" d="M139.4 53.6v7.2l7.2-3.6-7.2-3.6Z"/><path class="st18" d="m151.7 55 4.3-4.3h-2.2 2.2v2.2M148.1 55l4.3-4.3h-2.2 2.2v2.2M146.6 57.2h7.2M139.4 57.2h-7.2"/><path class="st8" d="M146.6 75.2v7.2"/><path class="st18" d="M146.6 78.8h-7.2"/><path class="st8" d="M139.4 75.2v7.2l7.2-3.6-7.2-3.6Z"/><path class="st18" d="m151.7 76.6 4.3-4.3h-2.2 2.2v2.2M148.1 76.6l4.3-4.3h-2.2 2.2v2.2M146.6 78.8h7.2M139.4 78.8h-7.2"/><path class="st8" d="M146.6 64.4v7.2"/><path class="st18" d="M146.6 68h-7.2"/><path class="st8" d="M139.4 64.4v7.2l7.2-3.6-7.2-3.6Z"/><path class="st18" d="m151.7 65.8 4.3-4.3h-2.2 2.2v2.2M148.1 65.8l4.3-4.3h-2.2 2.2v2.2M146.6 68h7.2M139.4 68h-7.2"/><path class="st8" d="M146.6 42.8V50"/><path class="st18" d="M146.6 46.4h-7.2"/><path class="st8" d="M139.4 42.8V50l7.2-3.6-7.2-3.6Z"/><path class="st18" d="m151.7 44.2 4.3-4.3h-2.2 2.2v2.2M148.1 44.2l4.3-4.3h-2.2 2.2v2.2M146.6 46.4h7.2M139.4 46.4h-7.2"/><path class="st13" d="M163.2 76.6h10.1v4.3h-10.1z"/><path class="st18" d="M163.2 78.8H161M173.3 78.8h2.2M182.6 136.4v3.6h3.6l-3.6 3.6-3.6-3.6h3.6M182.6 136.4h0"/><path class="st10" d="m179.9 149-.3-.2M179.5 148.8h-.5M179 148.8l-.5.2M178.5 149l-.3.3M178.2 149.3l-.2.3M178 149.7l-.2.7M177.8 150.3v.5M177.8 150.9l.2.7M178 151.5l.2.3M178.2 151.9l.3.3M178.5 152.2l.5.2M179 152.4h.3M179.4 152.4l.5-.2M179.9 152.2l.2-.2M180 152.1v-1.2M180 150.9h-.7M181.6 152.4v-3.6M181.6 148.8l2.1 3.6M183.6 152.4v-3.6M185.4 152.4v-3.6M185.4 148.8h.9M186.2 148.8l.5.2M186.7 149l.3.3M187.1 149.3l.2.3M187.2 149.7l.2.7M187.4 150.3v.5M187.4 150.9l-.2.7M187.2 151.5l-.2.3M187.1 151.9l-.3.3M186.7 152.2l-.5.2M186.2 152.4h-.9"/><path class="st13" d="M163.2 44.2h10.1v4.3h-10.1z"/><path class="st18" d="M163.2 46.4H161M173.3 46.4h2.2"/><path class="st13" d="M163.2 65.8h10.1v4.3h-10.1z"/><path class="st18" d="M163.2 68H161M173.3 68h2.2"/><path class="st13" d="M163.2 55h10.1v4.3h-10.1z"/><path class="st18" d="M163.2 57.2H161M173.3 57.2h2.2"/><path d="M1.9 40.6h8.6M1.9 37.7h8.6" style="stroke-width:.9px;stroke:#840000;fill:none;stroke-linecap:round;stroke-linejoin:round"/><path class="st18" d="M6.2 37.7v-5.8M6.2 40.6v5.8"/><path class="st10" d="M15.3 40.8h.3M15.6 40.8l.3.2M16 41l.2.2M16.1 41.2l.2.3M16.3 41.5l.2.7M16.5 42.2v.9M16.5 43l-.2.7M16.3 43.7l-.2.3M16.1 44.1l-.2.2M16 44.2l-.3.2M15.6 44.4h-.3M15.3 44.4l-.3-.2M14.9 44.2l-.2-.2M14.8 44.1l-.2-.3M14.6 43.7l-.2-.7M14.4 43v-.9M14.4 42.2l.2-.7M14.6 41.5l.2-.3M14.8 41.2l.2-.2M14.9 41l.3-.2M18 44.1l.2.2M18.2 44.2l-.2.2M18 44.4l-.2-.2M17.8 44.2l.2-.2M18 44.1v.3M21.6 44.4h-2.1M20.6 44.4v-3.6M20.6 40.8l-.3.5M20.2 41.3l-.3.3M19.9 41.7l-.3.2M23.2 42v3.6M24.9 43.9l.2.3M25 44.2l.3.2M23.2 43.9l.2.3M23.3 44.2l.3.2M23.7 44.4h.7M24.4 44.4l.3-.2M24.7 44.2l.2-.3M24.9 43.9V42M26.4 42h1.4M26.9 44.4v-3.1M26.9 41.3l.2-.3M27.1 41l.3-.2M27.4 40.8h.3"/><path class="st8" d="M146.6 86v7.2"/><path class="st18" d="M146.6 89.6h-7.2"/><path class="st8" d="M139.4 86v7.2l7.2-3.6-7.2-3.6Z"/><path class="st18" d="m151.7 87.4 4.3-4.3h-2.2 2.2v2.2M148.1 87.4l4.3-4.3h-2.2 2.2v2.2M146.6 89.6h7.2M139.4 89.6h-7.2"/><path class="st8" d="M146.6 96.8v7.2"/><path class="st18" d="M146.6 100.4h-7.2"/><path class="st8" d="M139.4 96.8v7.2l7.2-3.6-7.2-3.6Z"/><path class="st18" d="m151.7 98.2 4.3-4.3h-2.2 2.2v2.2M148.1 98.2l4.3-4.3h-2.2 2.2v2.2M146.6 100.4h7.2M139.4 100.4h-7.2"/><path class="st13" d="M163.2 109h10.1v4.3h-10.1z"/><path class="st18" d="M163.2 111.2H161M173.3 111.2h2.2"/><path class="st8" d="M146.6 107.6v7.2"/><path class="st18" d="M146.6 111.2h-7.2"/><path class="st8" d="M139.4 107.6v7.2l7.2-3.6-7.2-3.6Z"/><path class="st18" d="m151.7 109 4.3-4.3h-2.2 2.2v2.2M148.1 109l4.3-4.3h-2.2 2.2v2.2M146.6 111.2h7.2M139.4 111.2h-7.2"/><path class="st13" d="M163.2 119.8h10.1v4.3h-10.1z"/><path class="st18" d="M163.2 122H161M173.3 122h2.2"/><path class="st8" d="M146.6 118.4v7.2"/><path class="st18" d="M146.6 122h-7.2"/><path class="st8" d="M139.4 118.4v7.2l7.2-3.6-7.2-3.6Z"/><path class="st18" d="m151.7 119.8 4.3-4.3h-2.2 2.2v2.2M148.1 119.8l4.3-4.3h-2.2 2.2v2.2M146.6 122h7.2M139.4 122h-7.2"/><path class="st13" d="M163.2 87.4h10.1v4.3h-10.1z"/><path class="st18" d="M163.2 89.6H161M173.3 89.6h2.2"/><path class="st13" d="M163.2 98.2h10.1v4.3h-10.1z"/><path class="st18" d="M163.2 100.4H161M173.3 100.4h2.2M72.5 28.4l2.2-3.6M74.6 32v-7.2M74.6 24.8l2.2 3.6M74.6 32h0"/><path class="st10" d="M70 17.8h2.7M71.4 19.2v-2.7M76.2 15.6h-1.7M74.4 15.6l-.2 1.7M74.3 17.3l.2-.2M74.4 17.1l.3-.2M74.8 17h.9M75.6 17l.3.2M76 17.1l.2.2M76.2 17.3l.2.3M76.3 17.7v.9M76.3 18.5l-.2.3M76.2 18.9l-.2.2M76 19l-.3.2M75.6 19.2h-.9M74.8 19.2l-.3-.2M74.4 19l-.2-.2M77.4 15.6l1.2 3.6M78.6 19.2l1.2-3.6"/><path class="st18" d="M6.2 46.4V50h3.6l-3.6 3.6L2.6 50h3.6M6.2 46.4h0"/><path class="st10" d="m3.5 59-.3-.2M3.1 58.8h-.5M2.6 58.8l-.5.2M2.1 59l-.3.3M1.8 59.3l-.2.3M1.6 59.7l-.2.7M1.4 60.3v.5M1.4 60.9l.2.7M1.6 61.5l.2.3M1.8 61.9l.3.3M2.1 62.2l.5.2M2.6 62.4h.3M3 62.4l.5-.2M3.5 62.2l.2-.2M3.6 62.1v-1.2M3.6 60.9h-.7M5.2 62.4v-3.6M5.2 58.8l2.1 3.6M7.2 62.4v-3.6M9 62.4v-3.6M9 58.8h.9M9.8 58.8l.5.2M10.3 59l.3.3M10.7 59.3l.2.3M10.8 59.7l.2.7M11 60.3v.5M11 60.9l-.2.7M10.8 61.5l-.2.3M10.7 61.9l-.3.3M10.3 62.2l-.5.2M9.8 62.4h-.9"/><path class="st16" d="M48.3 167.3v-3.6M48.3 163.7h.9M49.1 163.7l.5.2M49.6 163.9l.3.3M50 164.2l.2.3M50.2 164.6l.2.7M50.3 165.2v.5M50.3 165.8l-.2.7M50.2 166.4l-.2.3M50 166.8l-.3.3M49.6 167.1l-.5.2M49.1 167.3h-.9M51.7 166.3h1.7M51.4 167.3l1.2-3.6M52.6 163.7l1.2 3.6M54.4 163.7h2.1M55.5 167.3v-3.6M57.5 166.3h1.7M57.2 167.3l1.2-3.6M58.4 163.7l1.2 3.6M46.4 156.5h-1.7M44.7 156.5v-3.6M47.4 155.5h1.7M47.1 156.5l1.2-3.6M48.3 152.9l1.2 3.6M50.2 152.9h2.1M51.2 156.5v-3.6M55.5 156.2l-.2.2M55.3 156.3l-.5.2M54.8 156.5h-.3M54.4 156.5l-.5-.2M53.9 156.3l-.3-.3M53.6 156l-.2-.3M53.4 155.6l-.2-.7M53.2 155v-.5M53.2 154.4l.2-.7M53.4 153.8l.2-.3M53.6 153.4l.3-.3M53.9 153.1l.5-.2M54.4 152.9h.3M54.8 152.9l.5.2M55.3 153.1l.2.2M57 156.5v-3.6M57 154.6h2.1M59.1 156.5v-3.6M45.4 145.4l-.2.2M45.2 145.5l-.5.2M44.7 145.7h-.3M44.3 145.7l-.5-.2M43.8 145.5l-.3-.3M43.5 145.2l-.2-.3M43.3 144.8l-.2-.7M43.1 144.2v-.5M43.1 143.6l.2-.7M43.3 143l.2-.3M43.5 142.6l.3-.3M43.8 142.3l.5-.2M44.3 142.1h.3M44.7 142.1l.5.2M45.2 142.3l.2.2M48.6 145.7h-1.7M46.9 145.7v-3.6M50.5 142.1h.7M51.2 142.1l.3.2M51.5 142.3l.3.3M51.9 142.6l.2.7M52 143.3v1.2M52 144.5l-.2.7M51.9 145.2l-.3.3M51.5 145.5l-.3.2M51.2 145.7h-.7M50.5 145.7l-.3-.2M50.2 145.5l-.3-.3M49.8 145.2l-.2-.7M49.6 144.5v-1.2M49.6 143.3l.2-.7M49.8 142.6l.3-.3M50.2 142.3l.3-.2M55.6 145.4l-.2.2M55.5 145.5l-.5.2M55 145.7h-.3M54.6 145.7l-.5-.2M54.1 145.5l-.3-.3M53.8 145.2l-.2-.3M53.6 144.8l-.2-.7M53.4 144.2v-.5M53.4 143.6l.2-.7M53.6 143l.2-.3M53.8 142.6l.3-.3M54.1 142.3l.5-.2M54.6 142.1h.3M55 142.1l.5.2M55.5 142.3l.2.2M57.2 145.7v-3.6M59.2 145.7l-1.5-2.1M59.2 142.1l-2.1 2.1"/><path class="st14" d="m164.5 28.9.2-.2M164.6 28.7l.3-.2M165 28.5h.9M165.8 28.5l.3.2M166.2 28.7l.2.2M166.4 28.9l.2.3M166.5 29.2v.3M166.5 29.6l-.2.5M166.4 30.1l-2.1 2.1M164.3 32.1h2.2M167.9 28.9l.2-.2M168.1 28.7l.3-.2M168.4 28.5h.9M169.3 28.5l.3.2M169.6 28.7l.2.2M169.8 28.9l.2.3M170 29.2v.3M170 29.6l-.2.5M169.8 30.1l-2.1 2.1M167.7 32.1h2.2M172.2 28.5h.3M172.5 28.5l.3.2M172.9 28.7l.2.2M173 28.9l.2.3M173.2 29.2l.2.7M173.4 29.9v.9M173.4 30.8l-.2.7M173.2 31.5l-.2.3M173 31.8l-.2.2M172.9 32l-.3.2M172.5 32.1h-.3M172.2 32.1l-.3-.2M171.8 32l-.2-.2M171.7 31.8l-.2-.3M171.5 31.5l-.2-.7M171.3 30.8v-.9M171.3 29.9l.2-.7M171.5 29.2l.2-.3M171.7 28.9l.2-.2M171.8 28.7l.3-.2M158.1 37.9v-2.4M158.1 36.2l.2-.3M158.3 35.9l.2-.2M158.5 35.7l.3-.2M158.8 35.5h.3M161.7 37.8l-.3.2M161.4 37.9h-.7M160.7 37.9l-.3-.2M160.4 37.8l-.2-.3M160.2 37.4V36M160.2 36.1l.2-.3M160.4 35.7l.3-.2M160.7 35.5h.7M161.4 35.5l.3.2M161.7 35.7l.2.3M161.9 36.1v.3M161.9 36.4l-1.7.3M163.3 37.8l.3.2M163.6 37.9h.7M164.3 37.9l.3-.2M164.6 37.8l.2-.3M164.8 37.4v-.2M164.8 37.3l-.2-.3M164.6 36.9l-.3-.2M164.3 36.7h-.5M163.8 36.7l-.3-.2M163.4 36.6l-.2-.3M163.3 36.2V36M163.3 36.1l.2-.3M163.4 35.7l.3-.2M163.8 35.5h.5M164.3 35.5l.3.2M166.4 37.9v-2.4M166.4 34.3l-.2.2M166.2 34.5l.2.2M166.4 34.7l.2-.2M166.5 34.5l-.2-.2M166.4 34.3v.3M167.9 37.8l.3.2M168.2 37.9h.7M168.9 37.9l.3-.2M169.3 37.8l.2-.3M169.4 37.4v-.2M169.4 37.3l-.2-.3M169.3 36.9l-.3-.2M168.9 36.7h-.5M168.4 36.7l-.3-.2M168.1 36.6l-.2-.3M167.9 36.2V36M167.9 36.1l.2-.3M168.1 35.7l.3-.2M168.4 35.5h.5M168.9 35.5l.3.2M170.5 35.5h1.4M171 34.3v3.1M171 37.4l.2.3M171.2 37.8l.3.2M171.5 37.9h.3M173.6 37.9l-.3-.2M173.2 37.8l-.2-.2M173 37.6l-.2-.3M172.9 37.3v-1M172.9 36.2l.2-.3M173 35.9l.2-.2M173.2 35.7l.3-.2M173.6 35.5h.5M174.1 35.5l.3.2M174.4 35.7l.2.2M174.6 35.9l.2.3M174.8 36.2v1M174.8 37.3l-.2.3M174.6 37.6l-.2.2M174.4 37.8l-.3.2M174.1 37.9h-.5M176.3 37.9v-2.4M176.3 36.2l.2-.3M176.5 35.9l.2-.2M176.6 35.7l.3-.2M177 35.5h.3M178.4 37.8l.3.2M178.7 37.9h.7M179.4 37.9l.3-.2M179.7 37.8l.2-.3M179.9 37.4v-.2M179.9 37.3l-.2-.3M179.7 36.9l-.3-.2M179.4 36.7h-.5M178.9 36.7l-.3-.2M178.5 36.6l-.2-.3M178.4 36.2V36M178.4 36.1l.2-.3M178.5 35.7l.3-.2M178.9 35.5h.5M179.4 35.5l.3.2M49 4.8V1.2M49 1.2h.9M49.8 1.2l.5.2M50.4 1.4l.3.3M50.7 1.7l.2.3M50.9 2l.2.7M51 2.7v.5M51 3.2l-.2.7M50.9 3.9l-.2.3M50.7 4.3l-.3.3M50.4 4.6l-.5.2M49.8 4.8h-.9M54 4.6l-.3.2M53.6 4.8h-.7M52.9 4.8l-.3-.2M52.6 4.6l-.2-.3M52.4 4.3V2.9M52.4 2.9l.2-.3M52.6 2.6l.3-.2M52.9 2.4h.7M53.6 2.4l.3.2M54 2.6l.2.3M54.1 2.9v.3M54.1 3.2l-1.7.3M57.2 4.8V1.2M57.2 4.6l-.3.2M56.9 4.8h-.7M56.2 4.8l-.3-.2M55.8 4.6l-.2-.2M55.7 4.4l-.2-.3M55.5 4.1v-1M55.5 3.1l.2-.3M55.7 2.7l.2-.2M55.8 2.6l.3-.2M56.2 2.4h.7M56.9 2.4l.3.2M58.9 4.8V2.4M58.9 1.2l-.2.2M58.8 1.4l.2.2M58.9 1.5l.2-.2M59.1 1.4l-.2-.2M58.9 1.2v.3M62.2 4.6l-.3.2M61.8 4.8h-.7M61.2 4.8l-.3-.2M60.8 4.6l-.2-.2M60.6 4.4l-.2-.3M60.5 4.1v-1M60.5 3.1l.2-.3M60.6 2.7l.2-.2M60.8 2.6l.3-.2M61.2 2.4h.7M61.8 2.4l.3.2M65.3 4.8V2.9M65.3 2.9l-.2-.3M65.1 2.6l-.3-.2M64.8 2.4h-.7M64.1 2.4l-.3.2M65.3 4.6l-.3.2M64.9 4.8H64M64.1 4.8l-.3-.2M63.7 4.6l-.2-.3M63.6 4.3V4M63.6 3.9l.2-.3M63.7 3.6l.3-.2M64.1 3.4h.9M64.9 3.4l.3-.2M66.5 2.4h1.4M67 1.2v3.1M67 4.3l.2.3M67.2 4.6l.3.2M67.5 4.8h.3M70.4 4.6l-.3.2M70.1 4.8h-.7M69.4 4.8l-.3-.2M69 4.6l-.2-.3M68.9 4.3V2.9M68.9 2.9l.2-.3M69 2.6l.3-.2M69.4 2.4h.7M70.1 2.4l.3.2M70.4 2.6l.2.3M70.6 2.9v.3M70.6 3.2l-1.7.3M73.7 4.8V1.2M73.7 4.6l-.3.2M73.3 4.8h-.7M72.6 4.8l-.3-.2M72.3 4.6l-.2-.2M72.1 4.4l-.2-.3M72 4.1v-1M72 3.1l.2-.3M72.1 2.7l.2-.2M72.3 2.6l.3-.2M72.6 2.4h.7M73.3 2.4l.3.2M78.1 3.4h2.7M79.5 4.8V2.1M84.3 1.2h-1.7M82.6 1.2l-.2 1.7M82.4 2.9l.2-.2M82.6 2.7l.3-.2M82.9 2.6h.9M83.8 2.6l.3.2M84.1 2.7l.2.2M84.3 2.9l.2.3M84.5 3.2v.9M84.5 4.1l-.2.3M84.3 4.4l-.2.2M84.1 4.6l-.3.2M83.8 4.8h-.9M82.9 4.8l-.3-.2M82.6 4.6l-.2-.2M85.5 1.2l1.2 3.6M86.7 4.8l1.2-3.6M91.8 2.4V6M91.8 2.6l.3-.2M92.2 2.4h.7M92.9 2.4l.3.2M93.2 2.6l.2.2M93.4 2.7l.2.3M93.6 3.1v1M93.6 4.1l-.2.3M93.4 4.4l-.2.2M93.2 4.6l-.3.2M92.9 4.8h-.7M92.2 4.8l-.3-.2M95.6 4.8l-.3-.2M95.3 4.6l-.2-.2M95.1 4.4l-.2-.3M94.9 4.1v-1M94.9 3.1l.2-.3M95.1 2.7l.2-.2M95.3 2.6l.3-.2M95.6 2.4h.5M96.1 2.4l.3.2M96.5 2.6l.2.2M96.6 2.7l.2.3M96.8 3.1v1M96.8 4.1l-.2.3M96.6 4.4l-.2.2M96.5 4.6l-.3.2M96.1 4.8h-.5M98 2.4l.7 2.4M98.7 4.8l.7-1.7M99.4 3.1l.7 1.7M100.1 4.8l.7-2.4M103.5 4.6l-.3.2M103.2 4.8h-.7M102.5 4.8l-.3-.2M102.1 4.6l-.2-.3M102 4.3V2.9M102 2.9l.2-.3M102.1 2.6l.3-.2M102.5 2.4h.7M103.2 2.4l.3.2M103.5 2.6l.2.3M103.7 2.9v.3M103.7 3.2l-1.7.3M105.2 4.8V2.4M105.2 3.1l.2-.3M105.4 2.7l.2-.2M105.6 2.6l.3-.2M105.9 2.4h.3M107.6 4.6v.2M107.6 4.8l-.2.3M107.4 5.1l-.2.2M31.8 8.2v2.4M31.8 8.5l.2-.2M32 8.4l.3-.2M32.4 8.2h.5M32.9 8.2l.3.2M33.2 8.4l.2.3M33.4 8.7v1.9M35.6 10.6l-.3-.2M35.3 10.4l-.2-.2M35.1 10.2l-.2-.3M34.9 9.9v-1M34.9 8.9l.2-.3M35.1 8.5l.2-.2M35.3 8.4l.3-.2M35.6 8.2h.5M36.1 8.2l.3.2M36.5 8.4l.2.2M36.6 8.5l.2.3M36.8 8.9v1M36.8 9.9l-.2.3M36.6 10.2l-.2.2M36.5 10.4l-.3.2M36.1 10.6h-.5M37.8 8.2h1.4M38.4 7v3.1M38.4 10.1l.2.3M38.5 10.4l.3.2M38.9 10.6h.3M42.6 8.2H44M43.2 10.6V7.5M43.2 7.5l.2-.3M43.3 7.2l.3-.2M43.7 7h.3M45.2 10.6V8.2M45.2 8.9l.2-.3M45.4 8.5l.2-.2M45.6 8.4l.3-.2M45.9 8.2h.3M48 10.6l-.3-.2M47.6 10.4l-.2-.2M47.4 10.2l-.2-.3M47.3 9.9v-1M47.3 8.9l.2-.3M47.4 8.5l.2-.2M47.6 8.4l.3-.2M48 8.2h.5M48.5 8.2l.3.2M48.8 8.4l.2.2M49 8.5l.2.3M49.2 8.9v1M49.2 9.9l-.2.3M49 10.2l-.2.2M48.8 10.4l-.3.2M48.5 10.6H48M50.7 10.6V8.2M50.7 8.5l.2-.2M50.9 8.4l.3-.2M51.2 8.2h.5M51.7 8.2l.3.2M52.1 8.4l.2.3M52.2 8.7v1.9M52.2 8.7l.2-.3M52.4 8.4l.3-.2M52.8 8.2h.5M53.3 8.2l.3.2M53.6 8.4l.2.3M53.8 8.7v1.9M59.8 10.6V8.7M59.8 8.7l-.2-.3M59.6 8.4l-.3-.2M59.3 8.2h-.7M58.6 8.2l-.3.2M59.8 10.4l-.3.2M59.4 10.6h-.9M58.6 10.6l-.3-.2M58.2 10.4l-.2-.3M58.1 10.1v-.3M58.1 9.7l.2-.3M58.2 9.4l.3-.2M58.6 9.2h.9M59.4 9.2l.3-.2M64.2 9.2h2.7M65.6 10.6V7.9M70.4 7h-1.7M68.7 7l-.2 1.7M68.5 8.7l.2-.2M68.7 8.5l.3-.2M69 8.4h.9M69.9 8.4l.3.2M70.2 8.5l.2.2M70.4 8.7l.2.3M70.6 9v.9M70.6 9.9l-.2.3M70.4 10.2l-.2.2M70.2 10.4l-.3.2M69.9 10.6H69M69 10.6l-.3-.2M68.7 10.4l-.2-.2M71.6 7l1.2 3.6M72.8 10.6 74 7M78 8.2v3.6M78 8.4l.3-.2M78.3 8.2h.7M79 8.2l.3.2M79.3 8.4l.2.2M79.5 8.5l.2.3M79.7 8.9v1M79.7 9.9l-.2.3M79.5 10.2l-.2.2M79.3 10.4l-.3.2M79 10.6h-.7M78.3 10.6l-.3-.2M81.2 10.6V8.2M81.2 7l-.2.2M81 7.2l.2.2M81.2 7.3l.2-.2M81.4 7.2l-.2-.2M81.2 7v.3M82.9 8.2v2.4M82.9 8.5l.2-.2M83.1 8.4l.3-.2M83.4 8.2h.5M84 8.2l.3.2M84.3 8.4l.2.3M84.5 8.7v1.9M89.4 10.6l-.3-.2M89.1 10.4l-.2-.2M88.9 10.2l-.2-.3M88.8 9.9v-1M88.8 8.9l.2-.3M88.9 8.5l.2-.2M89.1 8.4l.3-.2M89.4 8.2h.5M90 8.2l.3.2M90.3 8.4l.2.2M90.5 8.5l.2.3M90.6 8.9v1M90.6 9.9l-.2.3M90.5 10.2l-.2.2M90.3 10.4l-.3.2M90 10.6h-.5M92.2 8.2v2.4M92.2 8.5l.2-.2M92.4 8.4l.3-.2M92.7 8.2h.5M93.2 8.2l.3.2M93.6 8.4l.2.3M93.7 8.7v1.9M97.7 8.2h1.4M98.2 7v3.1M98.2 10.1l.2.3M98.4 10.4l.3.2M98.7 10.6h.3M100.2 10.6V7M101.8 10.6V8.7M101.8 8.7l-.2-.3M101.6 8.4l-.3-.2M101.3 8.2h-.5M100.8 8.2l-.3.2M100.4 8.4l-.2.2M104.9 10.4l-.3.2M104.5 10.6h-.7M103.8 10.6l-.3-.2M103.5 10.4l-.2-.3M103.3 10.1V8.7M103.3 8.7l.2-.3M103.5 8.4l.3-.2M103.8 8.2h.7M104.5 8.2l.3.2M104.9 8.4l.2.3M105 8.7V9M105 9l-1.7.3M109.3 10.6V7M109.3 8.4l.3-.2M109.7 8.2h.7M110.4 8.2l.3.2M110.7 8.4l.2.2M110.9 8.5l.2.3M111 8.9v1M111 9.9l-.2.3M110.9 10.2l-.2.2M110.7 10.4l-.3.2M110.4 10.6h-.7M109.7 10.6l-.3-.2M113.1 10.6l-.3-.2M112.8 10.4l-.2-.2M112.6 10.2l-.2-.3M112.4 9.9v-1M112.4 8.9l.2-.3M112.6 8.5l.2-.2M112.8 8.4l.3-.2M113.1 8.2h.5M113.6 8.2l.3.2M114 8.4l.2.2M114.1 8.5l.2.3M114.3 8.9v1M114.3 9.9l-.2.3M114.1 10.2l-.2.2M114 10.4l-.3.2M113.6 10.6h-.5M117.4 10.6V8.7M117.4 8.7l-.2-.3M117.2 8.4l-.3-.2M116.9 8.2h-.7M116.2 8.2l-.3.2M117.4 10.4l-.3.2M117 10.6h-.9M116.2 10.6l-.3-.2M115.8 10.4l-.2-.3M115.7 10.1v-.3M115.7 9.7l.2-.3M115.8 9.4l.3-.2M116.2 9.2h.9M117 9.2l.3-.2M119.1 10.6V8.2M119.1 8.9l.2-.3M119.3 8.5l.2-.2M119.4 8.4l.3-.2M119.8 8.2h.3M122.9 10.6V7M122.9 10.4l-.3.2M122.5 10.6h-.7M121.8 10.6l-.3-.2M121.5 10.4l-.2-.2M121.3 10.2l-.2-.3M121.2 9.9v-1M121.2 8.9l.2-.3M121.3 8.5l.2-.2M121.5 8.4l.3-.2M121.8 8.2h.7M122.5 8.2l.3.2M124.6 10.2l.2.2M124.8 10.4l-.2.2M124.6 10.6l-.2-.2M124.4 10.4l.2-.2M124.6 10.2v.3"/><path class="st9" d="M42.2 93.2v54M38.6 71.6V158M35 57.2v111.6M45.8 100.4v36M38.6 158h21.6M114.2 93.2v7.2M103.4 107.6h3.6M103.4 100.4h7.2M114.2 100.4h18M110.6 100.4v10.8M182.6 57.2V68M175.4 68h7.2M107 107.6V122M74.6 136.4h108M107 122h25.2M175.4 46.4h7.2M175.4 57.2h7.2M182.6 46.4v10.8M153.8 89.6h7.2M153.8 46.4h7.2M153.8 68h7.2M153.8 100.4h7.2M182.6 122v14.4M175.4 122h7.2M182.6 111.2V122M175.4 89.6h7.2M182.6 68v10.8M175.4 78.8h7.2M182.6 78.8v10.8M153.8 78.8h7.2M153.8 57.2h7.2M103.4 78.8h28.8M117.8 68h14.4M153.8 111.2h7.2M153.8 122h7.2M117.8 89.6h14.4M175.4 111.2h7.2M175.4 100.4h7.2M182.6 89.6v10.8M182.6 100.4v10.8M103.4 86h14.4M103.4 93.2h10.8M35 168.8h25.2M110.6 57.2V46.4M110.6 46.4h21.6M114.2 64.4v-7.2M114.2 57.2h18M42.2 147.2h18M45.8 57.2H35M45.8 136.4h28.8M6.2 32h36M110.6 111.2h21.6M42.2 32h32.4M45.8 78.8h-3.6M42.2 78.8V32M45.8 71.6h-7.2M45.8 93.2h-3.6M74.6 32v10.8M103.4 57.2h7.2M117.8 71.6V68M103.4 64.4h10.8M103.4 71.6h14.4M117.8 86v3.6"/><path class="st5" d="m101.7 120.2 3.5 3.5M105.1 120.2l-3.5 3.5"/><path class="st10" d="m3.5 59-.3-.2M3.1 58.8h-.5M2.6 58.8l-.5.2M2.1 59l-.3.3M1.8 59.3l-.2.3M1.6 59.7l-.2.7M1.4 60.3v.5M1.4 60.9l.2.7M1.6 61.5l.2.3M1.8 61.9l.3.3M2.1 62.2l.5.2M2.6 62.4h.3M3 62.4l.5-.2M3.5 62.2l.2-.2M3.6 62.1v-1.2M3.6 60.9h-.7M5.2 62.4v-3.6M5.2 58.8l2.1 3.6M7.2 62.4v-3.6M9 62.4v-3.6M9 58.8h.9M9.8 58.8l.5.2M10.3 59l.3.3M10.7 59.3l.2.3M10.8 59.7l.2.7M11 60.3v.5M11 60.9l-.2.7M10.8 61.5l-.2.3M10.7 61.9l-.3.3M10.3 62.2l-.5.2M9.8 62.4h-.9"/><path class="st18" d="M6.2 46.4h0"/><path class="st10" d="M15.3 40.8h.3M15.6 40.8l.3.2M16 41l.2.2M16.1 41.2l.2.3M16.3 41.5l.2.7M16.5 42.2v.9M16.5 43l-.2.7M16.3 43.7l-.2.3M16.1 44.1l-.2.2M16 44.2l-.3.2M15.6 44.4h-.3M15.3 44.4l-.3-.2M14.9 44.2l-.2-.2M14.8 44.1l-.2-.3M14.6 43.7l-.2-.7M14.4 43v-.9M14.4 42.2l.2-.7M14.6 41.5l.2-.3M14.8 41.2l.2-.2M14.9 41l.3-.2M18 44.1l.2.2M18.2 44.2l-.2.2M18 44.4l-.2-.2M17.8 44.2l.2-.2M18 44.1v.3M21.6 44.4h-2.1M20.6 44.4v-3.6M20.6 40.8l-.3.5M20.2 41.3l-.3.3M19.9 41.7l-.3.2M23.2 42v3.6M24.9 43.9l.2.3M25 44.2l.3.2M23.2 43.9l.2.3M23.3 44.2l.3.2M23.7 44.4h.7M24.4 44.4l.3-.2M24.7 44.2l.2-.3M24.9 43.9V42M26.4 42h1.4M26.9 44.4v-3.1M26.9 41.3l.2-.3M27.1 41l.3-.2M27.4 40.8h.3"/><path class="st18" d="M6.2 37.7v-5.8M6.2 40.6v5.8"/><circle class="st15" cx="74.6" cy="136.4" r="1.3"/><circle class="st15" cx="182.6" cy="68" r="1.3"/><circle class="st15" cx="182.6" cy="57.2" r="1.3"/><circle class="st15" cx="182.6" cy="111.2" r="1.3"/><circle class="st15" cx="182.6" cy="136.4" r="1.3"/><circle class="st15" cx="182.6" cy="122" r="1.3"/><circle class="st15" cx="182.6" cy="78.8" r="1.3"/><circle class="st15" cx="182.6" cy="89.6" r="1.3"/><circle class="st15" cx="182.6" cy="100.4" r="1.3"/><circle class="st15" cx="74.6" cy="32" r="1.3"/><circle class="st15" cx="42.2" cy="32" r="1.3"/></svg>