<svg id="Layer_1" xmlns="http://www.w3.org/2000/svg" version="1.1" viewBox="0 0 200.5 154.7"><defs><style>.st2{letter-spacing:1.6em}.st5{letter-spacing:.1em}.st6{stroke:#000084}.st10,.st11,.st12,.st13,.st14,.st15,.st16,.st17,.st18,.st19,.st6,.st7,.st8,.st9{stroke-linecap:round;stroke-linejoin:round}.st10,.st11,.st12,.st13,.st14,.st15,.st17,.st18,.st19,.st6,.st7,.st8,.st9{fill:none}.st10,.st11,.st15,.st16,.st17,.st19,.st6,.st7{stroke-width:.4px}.st18,.st7{stroke:#a90000}.st12,.st13,.st18,.st8{font-family:ArialMT,Arial;font-size:4.8px;stroke-width:.4px}.st17,.st8{stroke:#0f0f0f}.st9{stroke-width:.7px}.st14,.st19,.st9{stroke:#840000}.st10,.st16{stroke:#009600}.st27,.st31{letter-spacing:.8em}.st11,.st13{stroke:#006464}.st12,.st15{stroke:#0000c2}.st14{stroke-width:.6px}.st34{isolation:isolate;opacity:0}.st16{fill:#009600}.st37{letter-spacing:.4em}.st39{letter-spacing:.2em}</style></defs><path class="st14" d="M174 65.8h10.1v4.3H174z"/><path class="st19" d="M174 68h-2.2M184.1 68h2.2"/><path class="st14" d="M174 76.6h10.1v4.3H174z"/><path class="st19" d="M174 78.8h-2.2M184.1 78.8h2.2"/><path class="st9" d="M157.4 64.4v7.2"/><path class="st19" d="M157.4 68h-7.2"/><path class="st9" d="M150.2 64.4v7.2l7.2-3.6-7.2-3.6Z"/><path class="st19" d="m162.5 65.8 4.3-4.3h-2.2 2.2v2.2M158.9 65.8l4.3-4.3H161h2.2v2.2M157.4 68h7.2M150.2 68H143"/><path class="st9" d="M157.4 75.2v7.2"/><path class="st19" d="M157.4 78.8h-7.2"/><path class="st9" d="M150.2 75.2v7.2l7.2-3.6-7.2-3.6Z"/><path class="st19" d="m162.5 76.6 4.3-4.3h-2.2 2.2v2.2M158.9 76.6l4.3-4.3H161h2.2v2.2M157.4 78.8h7.2M150.2 78.8H143"/><path class="st9" d="M157.4 53.6v7.2"/><path class="st19" d="M157.4 57.2h-7.2"/><path class="st9" d="M150.2 53.6v7.2l7.2-3.6-7.2-3.6Z"/><path class="st19" d="m162.5 55 4.3-4.3h-2.2 2.2v2.2M158.9 55l4.3-4.3H161h2.2v2.2M157.4 57.2h7.2M150.2 57.2H143"/><path class="st9" d="M157.4 42.8V50"/><path class="st19" d="M157.4 46.4h-7.2"/><path class="st9" d="M150.2 42.8V50l7.2-3.6-7.2-3.6Z"/><path class="st19" d="m162.5 44.2 4.3-4.3h-2.2 2.2v2.2M158.9 44.2l4.3-4.3H161h2.2v2.2M157.4 46.4h7.2M150.2 46.4H143"/><path d="M1.9 40.6h8.6M1.9 37.7h8.6" style="stroke-width:.9px;stroke:#840000;fill:none;stroke-linecap:round;stroke-linejoin:round"/><path class="st19" d="M6.2 37.7v-5.8M6.2 40.6v5.8M6.2 46.4V50h3.6l-3.6 3.6L2.6 50h3.6M6.2 46.4h0M83.3 28.4l2.2-3.6M85.4 32v-7.2M85.4 24.8l2.2 3.6M85.4 32h0"/><path class="st11" d="M80.8 17.8h2.7M82.2 19.2v-2.7M87 15.6h-1.7M85.2 15.6l-.2 1.7M85.1 17.3l.2-.2M85.2 17.1l.3-.2M85.6 17h.9M86.4 17l.3.2M86.8 17.1l.2.2M87 17.3l.2.3M87.1 17.7v.9M87.1 18.5l-.2.3M87 18.9l-.2.2M86.8 19l-.3.2M86.4 19.2h-.9M85.6 19.2l-.3-.2M85.2 19l-.2-.2M88.2 15.6l1.2 3.6M89.4 19.2l1.2-3.6"/><path style="fill:#ffffc2" d="M63.8 50H107v79.2H63.8z"/><path class="st9" d="M63.8 50H107v79.2H63.8z"/><path class="st19" d="M107 64.4h7.2"/><path class="st11" d="m101.2 66.3-.3-.2M100.8 66.2l-.3-.3M100.5 65.8l-.5-.5M100 65.3l-.3-.2M99.6 65.1h-.3M99.5 66l-.3-.2M99.1 65.8l-.3-.3M98.8 65.5l-.2-.7M98.6 64.8v-1.2M98.6 63.6l.2-.7M98.8 62.9l.3-.3M99.1 62.6l.3-.2M99.5 62.4h.7M100.1 62.4l.3.2M100.5 62.6l.3.3M100.8 62.9l.2.7M101 63.6v1.2M101 64.8l-.2.7M100.8 65.5l-.3.3M100.5 65.8l-.3.2M100.1 66h-.7M103.7 64.1l.5.2M104.3 64.3l.2.2M104.4 64.5l.2.3M104.6 64.8v.5M104.6 65.3l-.2.3M104.4 65.7l-.2.2M104.3 65.8l-.3.2M103.9 66h-1.4M102.5 66v-3.6M102.5 62.4h1.2M103.7 62.4l.3.2M104.1 62.6l.2.2M104.3 62.7l.2.3M104.4 63.1v.3M104.4 63.4l-.2.3M104.3 63.8l-.2.2M104.1 63.9l-.3.2M103.7 64.1h-1.2"/><path class="st7" d="M111.6 63.2h-2.1M110.6 63.2v-3.6M110.6 59.6l-.3.5M110.3 60.1l-.3.3M109.9 60.4l-.3.2"/><path class="st19" d="M63.8 78.8h-7.2"/><path class="st11" d="m66.2 80.2.5.2M66.7 80.4h.9M67.6 80.4l.3-.2M67.9 80.2l.2-.2M68.1 80.1l.2-.3M68.3 79.7v-.3M68.3 79.4l-.2-.3M68.1 79l-.2-.2M67.9 78.9l-.3-.2M67.6 78.7l-.7-.2M66.9 78.5l-.3-.2M66.6 78.3l-.2-.2M66.4 78.2l-.2-.3M66.2 77.8v-.3M66.2 77.5l.2-.3M66.4 77.1l.2-.2M66.6 77l.3-.2M66.9 76.8h.9M67.8 76.8l.5.2M71.9 80.4l-1.2-1.7M69.8 80.4v-3.6M69.8 76.8h1.4M71.2 76.8l.3.2M71.5 77l.2.2M71.7 77.1l.2.3M71.9 77.5v.5M71.9 78l-.2.3M71.7 78.3l-.2.2M71.5 78.5l-.3.2M71.2 78.7h-1.4M75.5 80.1l-.2.2M75.3 80.2l-.5.2M74.8 80.4h-.3M74.4 80.4l-.5-.2M73.9 80.2l-.3-.3M73.6 79.9l-.2-.3M73.4 79.5l-.2-.7M73.2 78.9v-.5M73.2 78.3l.2-.7M73.4 77.7l.2-.3M73.6 77.3l.3-.3M73.9 77l.5-.2M74.4 76.8h.3M74.8 76.8l.5.2M75.3 77l.2.2M78.7 80.4H77M77 80.4v-3.6M82 80.4l-1.2-1.7M79.9 80.4v-3.6M79.9 76.8h1.4M81.3 76.8l.3.2M81.6 77l.2.2M81.8 77.1l.2.3M82 77.5v.5M82 78l-.2.3M81.8 78.3l-.2.2M81.6 78.5l-.3.2M81.3 78.7h-1.4M65.9 75.8h16.4"/><path class="st7" d="M59.5 77.6h-2.1M58.5 77.6V74M58.5 74l-.3.5M58.2 74.5l-.3.3M57.8 74.8l-.3.2M61.8 74h.3M62.1 74l.3.2M62.4 74.1l.2.2M62.6 74.3l.2.3M62.8 74.7l.2.7M63 75.3v.9M63 76.2l-.2.7M62.8 76.9l-.2.3M62.6 77.2l-.2.2M62.4 77.4l-.3.2M62.1 77.6h-.3M61.8 77.6l-.3-.2M61.4 77.4l-.2-.2M61.2 77.2l-.2-.3M61.1 76.9l-.2-.7M60.9 76.2v-.9M60.9 75.3l.2-.7M61.1 74.7l.2-.3M61.2 74.3l.2-.2M61.4 74.1l.3-.2"/><path class="st19" d="M63.8 71.6h-7.2"/><path class="st11" d="m66.2 73 .5.2M66.7 73.2h.9M67.6 73.2l.3-.2M67.9 73l.2-.2M68.1 72.9l.2-.3M68.3 72.5v-.3M68.3 72.2l-.2-.3M68.1 71.8l-.2-.2M67.9 71.7l-.3-.2M67.6 71.5l-.7-.2M66.9 71.3l-.3-.2M66.6 71.1l-.2-.2M66.4 71l-.2-.3M66.2 70.6v-.3M66.2 70.3l.2-.3M66.4 69.9l.2-.2M66.6 69.8l.3-.2M66.9 69.6h.9M67.8 69.6l.5.2M71.9 73.2l-1.2-1.7M69.8 73.2v-3.6M69.8 69.6h1.4M71.2 69.6l.3.2M71.5 69.8l.2.2M71.7 69.9l.2.3M71.9 70.3v.5M71.9 70.8l-.2.3M71.7 71.1l-.2.2M71.5 71.3l-.3.2M71.2 71.5h-1.4M75.5 72.9l-.2.2M75.3 73l-.5.2M74.8 73.2h-.3M74.4 73.2l-.5-.2M73.9 73l-.3-.3M73.6 72.7l-.2-.3M73.4 72.3l-.2-.7M73.2 71.7v-.5M73.2 71.1l.2-.7M73.4 70.5l.2-.3M73.6 70.1l.3-.3M73.9 69.8l.5-.2M74.4 69.6h.3M74.8 69.6l.5.2M75.3 69.8l.2.2M78.7 73.2H77M77 73.2v-3.6M79.9 73.2v-3.6M82 73.2l-1.5-2.1M82 69.6l-2.1 2.1"/><path class="st7" d="M59.5 70.4h-2.1M58.5 70.4v-3.6M58.5 66.8l-.3.5M58.2 67.3l-.3.3M57.8 67.6l-.3.2M63 70.4h-2.1M61.9 70.4v-3.6M61.9 66.8l-.3.5M61.6 67.3l-.3.3M61.2 67.6l-.3.2"/><path class="st19" d="M63.8 93.2h-7.2"/><path class="st11" d="m68.4 94.8-1.2-1.7M66.4 94.8v-3.6M66.4 91.2h1.4M67.8 91.2l.3.2M68.1 91.4l.2.2M68.3 91.5l.2.3M68.4 91.9v.5M68.4 92.4l-.2.3M68.3 92.7l-.2.2M68.1 92.9l-.3.2M67.8 93.1h-1.4M72 94.5l-.2.2M71.9 94.6l-.5.2M71.4 94.8h-.3M71 94.8l-.5-.2M70.5 94.6l-.3-.3M70.2 94.3 70 94M70 93.9l-.2-.7M69.8 93.3v-.5M69.8 92.7l.2-.7M70 92.1l.2-.3M70.2 91.7l.3-.3M70.5 91.4l.5-.2M71 91.2h.3M71.4 91.2l.5.2M71.9 91.4l.2.2M75.3 94.8h-1.7M73.6 94.8v-3.6M76.5 94.8v-3.6M78.6 94.8l-1.5-2.1M78.6 91.2l-2.1 2.1"/><path class="st7" d="M59.5 92h-2.1M58.5 92v-3.6M58.5 88.4l-.3.5M58.2 88.9l-.3.3M57.8 89.2l-.3.2M60.9 88.7l.2-.2M61.1 88.5l.3-.2M61.4 88.4h.9M62.3 88.4l.3.2M62.6 88.5l.2.2M62.8 88.7l.2.3M63 89.1v.3M63 89.4l-.2.5M62.8 89.9 60.7 92M60.7 92h2.2"/><path class="st19" d="M63.8 100.4h-7.2"/><path class="st11" d="M67.1 98.4h.7M67.8 98.4l.3.2M68.1 98.6l.3.3M68.4 98.9l.2.7M68.6 99.6v1.2M68.6 100.8l-.2.7M68.4 101.5l-.3.3M68.1 101.8l-.3.2M67.8 102h-.7M67.1 102l-.3-.2M66.7 101.8l-.3-.3M66.4 101.5l-.2-.7M66.2 100.8v-1.2M66.2 99.6l.2-.7M66.4 98.9l.3-.3M66.7 98.6l.3-.2M70.2 100.1h1.2M71.9 102h-1.7M70.2 102v-3.6M70.2 98.4h1.7M65.9 97.4h6.3"/><path class="st7" d="M59.5 99.2h-2.1M58.5 99.2v-3.6M58.5 95.6l-.3.5M58.2 96.1l-.3.3M57.8 96.4l-.3.2M60.7 95.6h2.2M63 95.6 61.8 97M61.8 96.9h.5M62.3 96.9l.3.2M62.6 97.1l.2.2M62.8 97.3l.2.3M63 97.6v.9M63 98.5l-.2.3M62.8 98.8l-.2.2M62.6 99l-.3.2M62.3 99.2h-1M61.2 99.2l-.3-.2M60.9 99l-.2-.2"/><path class="st19" d="M63.8 57.2h-7.2"/><path class="st11" d="m66.2 58.6.5.2M66.7 58.8h.9M67.6 58.8l.3-.2M67.9 58.6l.2-.2M68.1 58.5l.2-.3M68.3 58.1v-.3M68.3 57.8l-.2-.3M68.1 57.4l-.2-.2M67.9 57.3l-.3-.2M67.6 57.1l-.7-.2M66.9 56.9l-.3-.2M66.6 56.7l-.2-.2M66.4 56.6l-.2-.3M66.2 56.2v-.3M66.2 55.9l.2-.3M66.4 55.5l.2-.2M66.6 55.4l.3-.2M66.9 55.2h.9M67.8 55.2l.5.2M69.8 56.9H71M71.5 58.8h-1.7M69.8 58.8v-3.6M69.8 55.2h1.7M75.1 58.8l-1.2-1.7M73.1 58.8v-3.6M73.1 55.2h1.4M74.4 55.2l.3.2M74.8 55.4l.2.2M75 55.5l.2.3M75.1 55.9v.5M75.1 56.4l-.2.3M75 56.7l-.2.2M74.8 56.9l-.3.2M74.4 57.1H73"/><path class="st7" d="M59.5 56h-2.1M58.5 56v-3.6M58.5 52.4l-.3.5M58.2 52.9l-.3.3M57.8 53.2l-.3.2M62.6 53.6V56M61.8 52.2l-.9 2.6M60.9 54.8h2.2"/><path class="st19" d="M107 57.2h7.2"/><path class="st11" d="m101.7 59.1-.3-.2M101.3 59l-.3-.3M101 58.6l-.5-.5M100.5 58.1l-.3-.2M100.1 57.9h-.3M100 58.8l-.3-.2M99.6 58.6l-.3-.3M99.3 58.3l-.2-.7M99.1 57.6v-1.2M99.1 56.4l.2-.7M99.3 55.7l.3-.3M99.6 55.4l.3-.2M100 55.2h.7M100.7 55.2l.3.2M101 55.4l.3.3M101.3 55.7l.2.7M101.5 56.4v1.2M101.5 57.6l-.2.7M101.3 58.3l-.3.3M101 58.6l-.3.2M100.7 58.8h-.7M102.9 57.8h1.7M102.5 58.8l1.2-3.6M103.7 55.2l1.2 3.6"/><path class="st7" d="M109.9 56h-2.1M108.9 56v-3.6M108.9 52.4l-.3.5M108.6 52.9l-.3.3M108.2 53.2l-.3.2M113.2 52.4h-1.7M111.5 52.4l-.2 1.7M111.3 54.1l.2-.2M111.5 53.9l.3-.2M111.8 53.7h.9M112.7 53.7l.3.2M113 53.9l.2.2M113.2 54.1l.2.3M113.4 54.4v.9M113.4 55.3l-.2.3M113.2 55.6l-.2.2M113 55.8l-.3.2M112.7 56h-.9M111.8 56l-.3-.2M111.5 55.8l-.2-.2"/><path class="st19" d="M85.4 50v-7.2"/><path class="st11" d="m83.5 61.6 3.6-1.2M87.1 60.4l-3.6-1.2M86.7 56l.2.2M86.9 56.1l.2.5M87.1 56.6v.3M87.1 57l-.2.5M86.9 57.5l-.3.3M86.5 57.8l-.3.2M86.2 58l-.7.2M85.5 58.2H85M85 58.2l-.7-.2M84.3 58l-.3-.2M84 57.8l-.3-.3M83.6 57.5l-.2-.5M83.5 57v-.3M83.5 56.6l.2-.5M83.6 56.1l.2-.2M86.7 52.4l.2.2M86.9 52.5l.2.5M87.1 53v.3M87.1 53.4l-.2.5M86.9 53.9l-.3.3M86.5 54.2l-.3.2M86.2 54.4l-.7.2M85.5 54.6H85M85 54.6l-.7-.2M84.3 54.4l-.3-.2M84 54.2l-.3-.3M83.6 53.9l-.2-.5M83.5 53.4v-.3M83.5 53l.2-.5M83.6 52.5l.2-.2"/><path class="st7" d="M84.2 47v2.1M84.2 48.1h-3.6M80.6 48.1l.5.3M81.1 48.4l.3.3M81.5 48.8l.2.3M80.6 44v.7M80.6 44.6l.2.3M80.8 45l.2.2M81 45.2l.5.3M81.5 45.5l.7.2M82.2 45.7h1.4M83.5 45.7l.3-.2M83.9 45.5l.2-.2M84.1 45.3l.2-.3M84.2 45v-.7M84.2 44.3 84 44M84.1 44l-.2-.2M83.9 43.8l-.3-.2M83.5 43.6h-.9M82.7 43.6l-.3.2M82.3 43.8l-.2.2M82.2 44l-.2.3M82 44.3v.7M82 45l.2.3M82.2 45.3l.2.2M82.3 45.5l.3.2"/><path class="st19" d="M107 71.6h7.2"/><path class="st11" d="m101.2 73.5-.3-.2M100.8 73.4l-.3-.3M100.5 73l-.5-.5M100 72.5l-.3-.2M99.6 72.3h-.3M99.5 73.2l-.3-.2M99.1 73l-.3-.3M98.8 72.7l-.2-.7M98.6 72v-1.2M98.6 70.8l.2-.7M98.8 70.1l.3-.3M99.1 69.8l.3-.2M99.5 69.6h.7M100.1 69.6l.3.2M100.5 69.8l.3.3M100.8 70.1l.2.7M101 70.8V72M101 72l-.2.7M100.8 72.7l-.3.3M100.5 73l-.3.2M100.1 73.2h-.7M104.6 72.9l-.2.2M104.4 73l-.5.2M103.9 73.2h-.3M103.6 73.2l-.5-.2M103.1 73l-.3-.3M102.7 72.7l-.2-.3M102.5 72.3l-.2-.7M102.4 71.7v-.5M102.4 71.1l.2-.7M102.5 70.5l.2-.3M102.7 70.1l.3-.3M103.1 69.8l.5-.2M103.6 69.6h.3M103.9 69.6l.5.2M104.4 69.8l.2.2"/><path class="st7" d="m109.6 67.1.2-.2M109.8 66.9l.3-.2M110.1 66.8h.9M111 66.8l.3.2M111.3 66.9l.2.2M111.5 67.1l.2.3M111.6 67.5v.3M111.6 67.8l-.2.5M111.5 68.3l-2.1 2.1M109.4 70.4h2.2"/><path class="st19" d="M107 78.8h7.2"/><path class="st11" d="m101.2 80.7-.3-.2M100.8 80.6l-.3-.3M100.5 80.2l-.5-.5M100 79.7l-.3-.2M99.6 79.5h-.3M99.5 80.4l-.3-.2M99.1 80.2l-.3-.3M98.8 79.9l-.2-.7M98.6 79.2V78M98.6 78l.2-.7M98.8 77.3l.3-.3M99.1 77l.3-.2M99.5 76.8h.7M100.1 76.8l.3.2M100.5 77l.3.3M100.8 77.3l.2.7M101 78v1.2M101 79.2l-.2.7M100.8 79.9l-.3.3M100.5 80.2l-.3.2M100.1 80.4h-.7M102.5 80.4v-3.6M102.5 76.8h.9M103.4 76.8l.5.2M103.9 77l.3.3M104.3 77.3l.2.3M104.4 77.7l.2.7M104.6 78.3v.5M104.6 78.9l-.2.7M104.4 79.5l-.2.3M104.3 79.9l-.3.3M103.9 80.2l-.5.2M103.4 80.4h-.9"/><path class="st7" d="M109.4 74h2.2M111.6 74l-1.2 1.4M110.4 75.3h.5M111 75.3l.3.2M111.3 75.5l.2.2M111.5 75.7l.2.3M111.6 76v.9M111.6 76.9l-.2.3M111.5 77.2l-.2.2M111.3 77.4l-.3.2M111 77.6h-1M109.9 77.6l-.3-.2M109.6 77.4l-.2-.2"/><path class="st19" d="M107 86h7.2"/><path class="st11" d="m101.5 87.9-.3-.2M101.2 87.8l-.3-.3M100.8 87.4l-.5-.5M100.3 86.9l-.3-.2M100 86.7h-.3M99.8 87.6l-.3-.2M99.5 87.4l-.3-.3M99.1 87.1l-.2-.7M98.9 86.4v-1.2M98.9 85.2l.2-.7M99.1 84.5l.3-.3M99.5 84.2l.3-.2M99.8 84h.7M100.5 84l.3.2M100.8 84.2l.3.3M101.2 84.5l.2.7M101.3 85.2v1.2M101.3 86.4l-.2.7M101.2 87.1l-.3.3M100.8 87.4l-.3.2M100.5 87.6h-.7M102.9 85.7h1.2M104.6 87.6h-1.7M102.9 87.6V84M102.9 84h1.7"/><path class="st7" d="M111.3 82.4v2.4M110.4 81l-.9 2.6M109.6 83.6h2.2"/><path class="st19" d="M107 93.2h7.2"/><path class="st11" d="m101.7 95.1-.3-.2M101.3 95l-.3-.3M101 94.6l-.5-.5M100.5 94.1l-.3-.2M100.1 93.9h-.3M100 94.8l-.3-.2M99.6 94.6l-.3-.3M99.3 94.3l-.2-.7M99.1 93.6v-1.2M99.1 92.4l.2-.7M99.3 91.7l.3-.3M99.6 91.4l.3-.2M100 91.2h.7M100.7 91.2l.3.2M101 91.4l.3.3M101.3 91.7l.2.7M101.5 92.4v1.2M101.5 93.6l-.2.7M101.3 94.3l-.3.3M101 94.6l-.3.2M100.7 94.8h-.7M104.3 92.9h-1.2M103.1 94.8v-3.6M103.1 91.2h1.7"/><path class="st7" d="M111.5 88.4h-1.7M109.8 88.4l-.2 1.7M109.6 90.1l.2-.2M109.8 89.9l.3-.2M110.1 89.7h.9M111 89.7l.3.2M111.3 89.9l.2.2M111.5 90.1l.2.3M111.6 90.4v.9M111.6 91.3l-.2.3M111.5 91.6l-.2.2M111.3 91.8l-.3.2M111 92h-.9M110.1 92l-.3-.2M109.8 91.8l-.2-.2"/><path class="st19" d="M107 100.4h7.2"/><path class="st11" d="m101.2 102.3-.3-.2M100.8 102.2l-.3-.3M100.5 101.8l-.5-.5M100 101.3l-.3-.2M99.6 101.1h-.3M99.5 102l-.3-.2M99.1 101.8l-.3-.3M98.8 101.5l-.2-.7M98.6 100.8v-1.2M98.6 99.6l.2-.7M98.8 98.9l.3-.3M99.1 98.6l.3-.2M99.5 98.4h.7M100.1 98.4l.3.2M100.5 98.6l.3.3M100.8 98.9l.2.7M101 99.6v1.2M101 100.8l-.2.7M100.8 101.5l-.3.3M100.5 101.8l-.3.2M100.1 102h-.7M104.4 98.6l-.3-.2M104.1 98.4h-.5M103.6 98.4l-.5.2M103.1 98.6l-.3.3M102.7 98.9l-.2.3M102.5 99.3l-.2.7M102.4 99.9v.5M102.4 100.5l.2.7M102.5 101.1l.2.3M102.7 101.5l.3.3M103.1 101.8l.5.2M103.6 102h.3M103.9 102l.5-.2M104.4 101.8l.2-.2M104.6 101.7v-1.2M104.6 100.5h-.7"/><path class="st7" d="M111.3 95.6h-.7M110.6 95.6l-.3.2M110.3 95.7l-.2.2M110.1 95.9l-.3.5M109.8 96.4l-.2.7M109.6 97.1v1.4M109.6 98.5l.2.3M109.8 98.8l.2.2M109.9 99l.3.2M110.3 99.2h.7M111 99.2l.3-.2M111.3 99l.2-.2M111.5 98.8l.2-.3M111.6 98.5v-.9M111.6 97.6l-.2-.3M111.5 97.3l-.2-.2M111.3 97.1l-.3-.2M111 96.9h-.7M110.3 96.9l-.3.2M109.9 97.1l-.2.2M109.8 97.3l-.2.3"/><path class="st19" d="M107 107.6h7.2"/><path class="st11" d="m101 109.5-.3-.2M100.7 109.4l-.3-.3M100.3 109l-.5-.5M99.8 108.5l-.3-.2M99.5 108.3h-.3M99.3 109.2l-.3-.2M98.9 109l-.3-.3M98.6 108.7l-.2-.7M98.4 108v-1.2M98.4 106.8l.2-.7M98.6 106.1l.3-.3M98.9 105.8l.3-.2M99.3 105.6h.7M100 105.6l.3.2M100.3 105.8l.3.3M100.7 106.1l.2.7M100.8 106.8v1.2M100.8 108l-.2.7M100.7 108.7l-.3.3M100.3 109l-.3.2M100 109.2h-.7M102.4 109.2v-3.6M102.4 107.3h2.1M104.4 109.2v-3.6"/><path class="st7" d="M109.4 102.8h2.4M111.8 102.8l-1.5 3.6"/><path class="st19" d="M85.4 129.2v7.2"/><path class="st11" d="m83.6 124.7-.2.3M83.5 125v.5M83.5 125.5l.2.5M83.6 126.1l.3.3M84 126.4l.3.2M84.3 126.6l.7.2M85 126.7h.5M85.5 126.7l.7-.2M86.2 126.6l.3-.2M86.5 126.4l.3-.3M86.9 126.1l.2-.5M87.1 125.5v-.3M87.1 125.2l-.2-.5M86.9 124.7l-.2-.2M86.7 124.5h-1.2M85.5 124.5v.7M87.1 123h-3.6M83.5 123l3.6-2.1M87.1 120.9h-3.6M87.1 119.2h-3.6M83.5 119.2v-.9M83.5 118.3l.2-.5M83.6 117.8l.3-.3M84 117.5l.3-.2M84.3 117.3l.7-.2M85 117.1h.5M85.5 117.1l.7.2M86.2 117.3l.3.2M86.5 117.5l.3.3M86.9 117.8l.2.5M87.1 118.3v.9"/><path class="st7" d="m82.2 133.1-.2.3M82 133.4l-.2.2M81.8 133.6l-.3.2M81.5 133.8h-.2M81.3 133.8l-.3-.2M81 133.6l-.2-.2M80.8 133.4l-.2-.3M80.6 133.1v-.7M80.6 132.4l.2-.3M80.8 132.1l.2-.2M81 131.9l.3-.2M81.3 131.7h.2M81.5 131.7l.3.2M81.8 131.9l.2.2M82 132.1l.2.3M82.2 132.4v.7M82.2 133.1l.2.3M82.3 133.4l.2.2M82.5 133.6l.3.2M82.9 133.8h.7M83.5 133.8l.3-.2M83.9 133.6l.2-.2M84.1 133.4l.2-.3M84.2 133.1v-.7M84.2 132.4l-.2-.3M84.1 132.1l-.2-.2M83.9 131.9l-.3-.2M83.5 131.7h-.7M82.9 131.7l-.3.2M82.5 131.9l-.2.2M82.3 132.1l-.2.3"/><path class="st19" d="M107 122h7.2"/><path class="st11" d="m99.3 123.9-.3-.2M98.9 123.8l-.3-.3M98.6 123.4l-.5-.5M98.1 122.9l-.3-.2M97.7 122.7h-.3M97.6 123.6l-.3-.2M97.2 123.4l-.3-.3M96.9 123.1l-.2-.7M96.7 122.4v-1.2M96.7 121.2l.2-.7M96.9 120.5l.3-.3M97.2 120.2l.3-.2M97.6 120h.7M98.3 120l.3.2M98.6 120.2l.3.3M98.9 120.5l.2.7M99.1 121.2v1.2M99.1 122.4l-.2.7M98.9 123.1l-.3.3M98.6 123.4l-.3.2M98.3 123.6h-.7M100.7 123.6V120M100.7 121.7h2.1M102.7 123.6V120M104.6 120l-.3.7"/><path class="st7" d="M109.9 120.8h.7M110.6 120.8l.3-.2M111 120.6l.2-.2M111.1 120.4l.3-.5M111.5 119.9l.2-.7M111.6 119.2v-1.4M111.6 117.9l-.2-.3M111.5 117.5l-.2-.2M111.3 117.3l-.3-.2M111 117.2h-.7M110.3 117.2l-.3.2M109.9 117.3l-.2.2M109.8 117.5l-.2.3M109.6 117.9v.9M109.6 118.7l.2.3M109.8 119.1l.2.2M109.9 119.2l.3.2M110.3 119.4h.7M111 119.4l.3-.2M111.3 119.2l.2-.2M111.5 119.1l.2-.3"/><path class="st11" d="M92.5 40.8h2.4M94.9 40.8l-1.5 3.6M97.8 42v2.4M96.9 40.6l-.9 2.6M96.1 43.2h2.2M99.7 44.4v-3.6M99.7 42.5h2.1M101.7 44.4v-3.6M105.5 44.1l-.2.2M105.3 44.2l-.5.2M104.8 44.4h-.3M104.5 44.4l-.5-.2M103.9 44.2l-.3-.3M103.6 43.9l-.2-.3M103.4 43.5l-.2-.7M103.3 42.9v-.5M103.3 42.3l.2-.7M103.4 41.7l.2-.3M103.6 41.3l.3-.3M103.9 41l.5-.2M104.5 40.8h.3M104.8 40.8l.5.2M105.3 41l.2.2M108.7 40.8H107M107 40.8l-.2 1.7M106.9 42.5l.2-.2M107 42.3l.3-.2M107.4 42.2h.9M108.2 42.2l.3.2M108.6 42.3l.2.2M108.7 42.5l.2.3M108.9 42.9v.9M108.9 43.7l-.2.3M108.7 44.1l-.2.2M108.6 44.2l-.3.2M108.2 44.4h-.9M107.4 44.4l-.3-.2M107 44.2l-.2-.2M110.6 44.4h.7M111.3 44.4l.3-.2M111.7 44.2l.2-.2M111.8 44.1l.3-.5M112.2 43.5l.2-.7M112.3 42.9v-1.4M112.3 41.5l-.2-.3M112.2 41.1l-.2-.2M112 41l-.3-.2M111.7 40.8h-.7M111 40.8l-.3.2M110.6 41l-.2.2M110.5 41.1l-.2.3M110.3 41.5v.9M110.3 42.3l.2.3M110.5 42.7l.2.2M110.6 42.9l.3.2M111 43h.7M111.7 43l.3-.2M112 42.9l.2-.2M112.2 42.7l.2-.3M115.6 40.8h-1.7M113.9 40.8l-.2 1.7M113.7 42.5l.2-.2M113.9 42.3l.3-.2M114.2 42.2h.9M115.1 42.2l.3.2M115.4 42.3l.2.2M115.6 42.5l.2.3M115.8 42.9v.9M115.8 43.7l-.2.3M115.6 44.1l-.2.2M115.4 44.2l-.3.2M115.1 44.4h-.9M114.2 44.4l-.3-.2M113.9 44.2l-.2-.2"/><path class="st9" d="M157.4 96.8v7.2"/><path class="st19" d="M157.4 100.4h-7.2"/><path class="st9" d="M150.2 96.8v7.2l7.2-3.6-7.2-3.6Z"/><path class="st19" d="m162.5 98.2 4.3-4.3h-2.2 2.2v2.2M158.9 98.2l4.3-4.3H161h2.2v2.2M157.4 100.4h7.2M150.2 100.4H143"/><path class="st9" d="M157.4 107.6v7.2"/><path class="st19" d="M157.4 111.2h-7.2"/><path class="st9" d="M150.2 107.6v7.2l7.2-3.6-7.2-3.6Z"/><path class="st19" d="m162.5 109 4.3-4.3h-2.2 2.2v2.2M158.9 109l4.3-4.3H161h2.2v2.2M157.4 111.2h7.2M150.2 111.2H143"/><path class="st14" d="M174 98.2h10.1v4.3H174z"/><path class="st19" d="M174 100.4h-2.2M184.1 100.4h2.2"/><path class="st14" d="M174 87.4h10.1v4.3H174z"/><path class="st19" d="M174 89.6h-2.2M184.1 89.6h2.2M193.4 136.4v3.6h3.6l-3.6 3.6-3.6-3.6h3.6M193.4 136.4h0"/><path class="st11" d="m190.7 149-.3-.2M190.3 148.8h-.5M189.8 148.8l-.5.2M189.3 149l-.3.3M189 149.3l-.2.3M188.8 149.7l-.2.7M188.6 150.3v.5M188.6 150.9l.2.7M188.8 151.5l.2.3M189 151.9l.3.3M189.3 152.2l.5.2M189.8 152.4h.3M190.2 152.4l.5-.2M190.7 152.2l.2-.2M190.8 152.1v-1.2M190.8 150.9h-.7M192.4 152.4v-3.6M192.4 148.8l2.1 3.6M194.4 152.4v-3.6M196.2 152.4v-3.6M196.2 148.8h.9M197 148.8l.5.2M197.5 149l.3.3M197.9 149.3l.2.3M198 149.7l.2.7M198.2 150.3v.5M198.2 150.9l-.2.7M198 151.5l-.2.3M197.9 151.9l-.3.3M197.5 152.2l-.5.2M197 152.4h-.9"/><path class="st14" d="M174 109h10.1v4.3H174z"/><path class="st19" d="M174 111.2h-2.2M184.1 111.2h2.2"/><path class="st9" d="M157.4 118.4v7.2"/><path class="st19" d="M157.4 122h-7.2"/><path class="st9" d="M150.2 118.4v7.2l7.2-3.6-7.2-3.6Z"/><path class="st19" d="m162.5 119.8 4.3-4.3h-2.2 2.2v2.2M158.9 119.8l4.3-4.3H161h2.2v2.2M157.4 122h7.2M150.2 122H143"/><path class="st14" d="M174 119.8h10.1v4.3H174z"/><path class="st19" d="M174 122h-2.2M184.1 122h2.2"/><path class="st14" d="M174 55h10.1v4.3H174z"/><path class="st19" d="M174 57.2h-2.2M184.1 57.2h2.2"/><path class="st14" d="M174 44.2h10.1v4.3H174z"/><path class="st19" d="M174 46.4h-2.2M184.1 46.4h2.2"/><path class="st9" d="M157.4 86v7.2"/><path class="st19" d="M157.4 89.6h-7.2"/><path class="st9" d="M150.2 86v7.2l7.2-3.6-7.2-3.6Z"/><path class="st19" d="m162.5 87.4 4.3-4.3h-2.2 2.2v2.2M158.9 87.4l4.3-4.3H161h2.2v2.2M157.4 89.6h7.2M150.2 89.6H143"/><path class="st17" d="M39.8 55.7v-3.6M39.8 52.1h.9M40.6 52.1l.5.2M41.1 52.3l.3.3M41.5 52.6l.2.3M41.6 53l.2.7M41.8 53.6v.5M41.8 54.2l-.2.7M41.6 54.8l-.2.3M41.5 55.2l-.3.3M41.1 55.5l-.5.2M40.6 55.7h-.9M43.2 54.7h1.7M42.8 55.7l1.2-3.6M44 52.1l1.2 3.6M45.9 52.1H48M47 55.7v-3.6M49 54.7h1.7M48.7 55.7l1.2-3.6M49.9 52.1l1.2 3.6M41.8 91.4l-.2.2M41.6 91.5l-.5.2M41.1 91.7h-.3M40.8 91.7l-.5-.2M40.3 91.5l-.3-.3M39.9 91.2l-.2-.3M39.8 90.8l-.2-.7M39.6 90.2v-.5M39.6 89.6l.2-.7M39.8 89l.2-.3M39.9 88.6l.3-.3M40.3 88.3l.5-.2M40.8 88.1h.3M41.1 88.1l.5.2M41.6 88.3l.2.2M45.1 91.7h-1.7M43.4 91.7v-3.6M47 88.1h.7M47.6 88.1l.3.2M48 88.3l.3.3M48.3 88.6l.2.7M48.5 89.3v1.2M48.5 90.5l-.2.7M48.3 91.2l-.3.3M48 91.5l-.3.2M47.6 91.7h-.7M47 91.7l-.3-.2M46.6 91.5l-.3-.3M46.3 91.2l-.2-.7M46.1 90.5v-1.2M46.1 89.3l.2-.7M46.3 88.6l.3-.3M46.6 88.3l.3-.2M52.1 91.4l-.2.2M51.9 91.5l-.5.2M51.4 91.7h-.3M51.1 91.7l-.5-.2M50.6 91.5l-.3-.3M50.2 91.2l-.2-.3M50 90.8l-.2-.7M49.9 90.2v-.5M49.9 89.6l.2-.7M50 89l.2-.3M50.2 88.6l.3-.3M50.6 88.3l.5-.2M51.1 88.1h.3M51.4 88.1l.5.2M51.9 88.3l.2.2M53.6 91.7v-3.6M55.7 91.7l-1.5-2.1M55.7 88.1l-2.1 2.1M41.5 70.1h-1.7M39.8 70.1v-3.6M42.5 69.1h1.7M42.2 70.1l1.2-3.6M43.4 66.5l1.2 3.6M45.2 66.5h2.1M46.3 70.1v-3.6M50.6 69.8l-.2.2M50.4 69.9l-.5.2M49.9 70.1h-.3M49.5 70.1l-.5-.2M49 69.9l-.3-.3M48.7 69.6l-.2-.3M48.5 69.2l-.2-.7M48.3 68.6v-.5M48.3 68l.2-.7M48.5 67.4l.2-.3M48.7 67l.3-.3M49 66.7l.5-.2M49.5 66.5h.3M49.9 66.5l.5.2M50.4 66.7l.2.2M52.1 70.1v-3.6M52.1 68.2h2.1M54.2 70.1v-3.6"/><path class="st15" d="m175.3 28.9.2-.2M175.4 28.7l.3-.2M175.8 28.5h.9M176.6 28.5l.3.2M177 28.7l.2.2M177.2 28.9l.2.3M177.3 29.2v.3M177.3 29.6l-.2.5M177.2 30.1l-2.1 2.1M175.1 32.1h2.2M178.7 28.9l.2-.2M178.9 28.7l.3-.2M179.2 28.5h.9M180.1 28.5l.3.2M180.4 28.7l.2.2M180.6 28.9l.2.3M180.8 29.2v.3M180.8 29.6l-.2.5M180.6 30.1l-2.1 2.1M178.5 32.1h2.2M183 28.5h.3M183.3 28.5l.3.2M183.7 28.7l.2.2M183.8 28.9l.2.3M184 29.2l.2.7M184.2 29.9v.9M184.2 30.8l-.2.7M184 31.5l-.2.3M183.8 31.8l-.2.2M183.7 32l-.3.2M183.3 32.1h-.3M183 32.1l-.3-.2M182.6 32l-.2-.2M182.5 31.8l-.2-.3M182.3 31.5l-.2-.7M182.1 30.8v-.9M182.1 29.9l.2-.7M182.3 29.2l.2-.3M182.5 28.9l.2-.2M182.6 28.7l.3-.2M168.9 37.9v-2.4M168.9 36.2l.2-.3M169.1 35.9l.2-.2M169.3 35.7l.3-.2M169.6 35.5h.3M172.5 37.8l-.3.2M172.2 37.9h-.7M171.5 37.9l-.3-.2M171.2 37.8l-.2-.3M171 37.4V36M171 36.1l.2-.3M171.2 35.7l.3-.2M171.5 35.5h.7M172.2 35.5l.3.2M172.5 35.7l.2.3M172.7 36.1v.3M172.7 36.4l-1.7.3M174.1 37.8l.3.2M174.4 37.9h.7M175.1 37.9l.3-.2M175.4 37.8l.2-.3M175.6 37.4v-.2M175.6 37.3l-.2-.3M175.4 36.9l-.3-.2M175.1 36.7h-.5M174.6 36.7l-.3-.2M174.2 36.6l-.2-.3M174.1 36.2V36M174.1 36.1l.2-.3M174.2 35.7l.3-.2M174.6 35.5h.5M175.1 35.5l.3.2M177.2 37.9v-2.4M177.2 34.3l-.2.2M177 34.5l.2.2M177.2 34.7l.2-.2M177.3 34.5l-.2-.2M177.2 34.3v.3M178.7 37.8l.3.2M179 37.9h.7M179.7 37.9l.3-.2M180.1 37.8l.2-.3M180.2 37.4v-.2M180.2 37.3l-.2-.3M180.1 36.9l-.3-.2M179.7 36.7h-.5M179.2 36.7l-.3-.2M178.9 36.6l-.2-.3M178.7 36.2V36M178.7 36.1l.2-.3M178.9 35.7l.3-.2M179.2 35.5h.5M179.7 35.5l.3.2M181.3 35.5h1.4M181.8 34.3v3.1M181.8 37.4l.2.3M182 37.8l.3.2M182.3 37.9h.3M184.4 37.9l-.3-.2M184 37.8l-.2-.2M183.8 37.6l-.2-.3M183.7 37.3v-1M183.7 36.2l.2-.3M183.8 35.9l.2-.2M184 35.7l.3-.2M184.4 35.5h.5M184.9 35.5l.3.2M185.2 35.7l.2.2M185.4 35.9l.2.3M185.6 36.2v1M185.6 37.3l-.2.3M185.4 37.6l-.2.2M185.2 37.8l-.3.2M184.9 37.9h-.5M187.1 37.9v-2.4M187.1 36.2l.2-.3M187.3 35.9l.2-.2M187.4 35.7l.3-.2M187.8 35.5h.3M189.2 37.8l.3.2M189.5 37.9h.7M190.2 37.9l.3-.2M190.5 37.8l.2-.3M190.7 37.4v-.2M190.7 37.3l-.2-.3M190.5 36.9l-.3-.2M190.2 36.7h-.5M189.7 36.7l-.3-.2M189.3 36.6l-.2-.3M189.2 36.2V36M189.2 36.1l.2-.3M189.3 35.7l.3-.2M189.7 35.5h.5M190.2 35.5l.3.2M59.8 4.8V1.2M59.8 1.2h.9M60.6 1.2l.5.2M61.2 1.4l.3.3M61.5 1.7l.2.3M61.7 2l.2.7M61.8 2.7v.5M61.8 3.2l-.2.7M61.7 3.9l-.2.3M61.5 4.3l-.3.3M61.2 4.6l-.5.2M60.6 4.8h-.9M64.8 4.6l-.3.2M64.4 4.8h-.7M63.7 4.8l-.3-.2M63.4 4.6l-.2-.3M63.2 4.3V2.9M63.2 2.9l.2-.3M63.4 2.6l.3-.2M63.7 2.4h.7M64.4 2.4l.3.2M64.8 2.6l.2.3M64.9 2.9v.3M64.9 3.2l-1.7.3M68 4.8V1.2M68 4.6l-.3.2M67.7 4.8H67M67 4.8l-.3-.2M66.6 4.6l-.2-.2M66.5 4.4l-.2-.3M66.3 4.1v-1M66.3 3.1l.2-.3M66.5 2.7l.2-.2M66.6 2.6l.3-.2M67 2.4h.7M67.7 2.4l.3.2M69.7 4.8V2.4M69.7 1.2l-.2.2M69.6 1.4l.2.2M69.7 1.5l.2-.2M69.9 1.4l-.2-.2M69.7 1.2v.3M73 4.6l-.3.2M72.6 4.8h-.7M72 4.8l-.3-.2M71.6 4.6l-.2-.2M71.4 4.4l-.2-.3M71.3 4.1v-1M71.3 3.1l.2-.3M71.4 2.7l.2-.2M71.6 2.6l.3-.2M72 2.4h.7M72.6 2.4l.3.2M76.1 4.8V2.9M76.1 2.9l-.2-.3M75.9 2.6l-.3-.2M75.6 2.4h-.7M74.9 2.4l-.3.2M76.1 4.6l-.3.2M75.7 4.8h-.9M74.9 4.8l-.3-.2M74.5 4.6l-.2-.3M74.4 4.3V4M74.4 3.9l.2-.3M74.5 3.6l.3-.2M74.9 3.4h.9M75.7 3.4l.3-.2M77.3 2.4h1.4M77.8 1.2v3.1M77.8 4.3l.2.3M78 4.6l.3.2M78.3 4.8h.3M81.2 4.6l-.3.2M80.9 4.8h-.7M80.2 4.8l-.3-.2M79.8 4.6l-.2-.3M79.7 4.3V2.9M79.7 2.9l.2-.3M79.8 2.6l.3-.2M80.2 2.4h.7M80.9 2.4l.3.2M81.2 2.6l.2.3M81.4 2.9v.3M81.4 3.2l-1.7.3M84.5 4.8V1.2M84.5 4.6l-.3.2M84.1 4.8h-.7M83.4 4.8l-.3-.2M83.1 4.6l-.2-.2M82.9 4.4l-.2-.3M82.8 4.1v-1M82.8 3.1l.2-.3M82.9 2.7l.2-.2M83.1 2.6l.3-.2M83.4 2.4h.7M84.1 2.4l.3.2M88.9 3.4h2.7M90.3 4.8V2.1M95.1 1.2h-1.7M93.4 1.2l-.2 1.7M93.2 2.9l.2-.2M93.4 2.7l.3-.2M93.7 2.6h.9M94.6 2.6l.3.2M94.9 2.7l.2.2M95.1 2.9l.2.3M95.3 3.2v.9M95.3 4.1l-.2.3M95.1 4.4l-.2.2M94.9 4.6l-.3.2M94.6 4.8h-.9M93.7 4.8l-.3-.2M93.4 4.6l-.2-.2M96.3 1.2l1.2 3.6M97.5 4.8l1.2-3.6M102.6 2.4V6M102.6 2.6l.3-.2M103 2.4h.7M103.7 2.4l.3.2M104 2.6l.2.2M104.2 2.7l.2.3M104.4 3.1v1M104.4 4.1l-.2.3M104.2 4.4l-.2.2M104 4.6l-.3.2M103.7 4.8h-.7M103 4.8l-.3-.2M106.4 4.8l-.3-.2M106.1 4.6l-.2-.2M105.9 4.4l-.2-.3M105.7 4.1v-1M105.7 3.1l.2-.3M105.9 2.7l.2-.2M106.1 2.6l.3-.2M106.4 2.4h.5M106.9 2.4l.3.2M107.3 2.6l.2.2M107.4 2.7l.2.3M107.6 3.1v1M107.6 4.1l-.2.3M107.4 4.4l-.2.2M107.3 4.6l-.3.2M106.9 4.8h-.5M108.8 2.4l.7 2.4M109.5 4.8l.7-1.7M110.2 3.1l.7 1.7M110.9 4.8l.7-2.4M114.3 4.6l-.3.2M114 4.8h-.7M113.3 4.8l-.3-.2M112.9 4.6l-.2-.3M112.8 4.3V2.9M112.8 2.9l.2-.3M112.9 2.6l.3-.2M113.3 2.4h.7M114 2.4l.3.2M114.3 2.6l.2.3M114.5 2.9v.3M114.5 3.2l-1.7.3M116 4.8V2.4M116 3.1l.2-.3M116.2 2.7l.2-.2M116.4 2.6l.3-.2M116.7 2.4h.3M118.4 4.6v.2M118.4 4.8l-.2.3M118.2 5.1l-.2.2M42.6 8.2v2.4M42.6 8.5l.2-.2M42.8 8.4l.3-.2M43.2 8.2h.5M43.7 8.2l.3.2M44 8.4l.2.3M44.2 8.7v1.9M46.4 10.6l-.3-.2M46.1 10.4l-.2-.2M45.9 10.2l-.2-.3M45.7 9.9v-1M45.7 8.9l.2-.3M45.9 8.5l.2-.2M46.1 8.4l.3-.2M46.4 8.2h.5M46.9 8.2l.3.2M47.3 8.4l.2.2M47.4 8.5l.2.3M47.6 8.9v1M47.6 9.9l-.2.3M47.4 10.2l-.2.2M47.3 10.4l-.3.2M46.9 10.6h-.5M48.6 8.2H50M49.2 7v3.1M49.2 10.1l.2.3M49.3 10.4l.3.2M49.7 10.6h.3M53.4 8.2h1.4M54 10.6V7.5M54 7.5l.2-.3M54.1 7.2l.3-.2M54.5 7h.3M56 10.6V8.2M56 8.9l.2-.3M56.2 8.5l.2-.2M56.4 8.4l.3-.2M56.7 8.2h.3M58.8 10.6l-.3-.2M58.4 10.4l-.2-.2M58.2 10.2l-.2-.3M58.1 9.9v-1M58.1 8.9l.2-.3M58.2 8.5l.2-.2M58.4 8.4l.3-.2M58.8 8.2h.5M59.3 8.2l.3.2M59.6 8.4l.2.2M59.8 8.5l.2.3M60 8.9v1M60 9.9l-.2.3M59.8 10.2l-.2.2M59.6 10.4l-.3.2M59.3 10.6h-.5M61.5 10.6V8.2M61.5 8.5l.2-.2M61.7 8.4l.3-.2M62 8.2h.5M62.5 8.2l.3.2M62.9 8.4l.2.3M63 8.7v1.9M63 8.7l.2-.3M63.2 8.4l.3-.2M63.6 8.2h.5M64.1 8.2l.3.2M64.4 8.4l.2.3M64.6 8.7v1.9M70.6 10.6V8.7M70.6 8.7l-.2-.3M70.4 8.4l-.3-.2M70.1 8.2h-.7M69.4 8.2l-.3.2M70.6 10.4l-.3.2M70.2 10.6h-.9M69.4 10.6l-.3-.2M69 10.4l-.2-.3M68.9 10.1v-.3M68.9 9.7l.2-.3M69 9.4l.3-.2M69.4 9.2h.9M70.2 9.2l.3-.2M75 9.2h2.7M76.4 10.6V7.9M81.2 7h-1.7M79.5 7l-.2 1.7M79.3 8.7l.2-.2M79.5 8.5l.3-.2M79.8 8.4h.9M80.7 8.4l.3.2M81 8.5l.2.2M81.2 8.7l.2.3M81.4 9v.9M81.4 9.9l-.2.3M81.2 10.2l-.2.2M81 10.4l-.3.2M80.7 10.6h-.9M79.8 10.6l-.3-.2M79.5 10.4l-.2-.2M82.4 7l1.2 3.6M83.6 10.6 84.8 7M88.8 8.2v3.6M88.8 8.4l.3-.2M89.1 8.2h.7M89.8 8.2l.3.2M90.1 8.4l.2.2M90.3 8.5l.2.3M90.5 8.9v1M90.5 9.9l-.2.3M90.3 10.2l-.2.2M90.1 10.4l-.3.2M89.8 10.6h-.7M89.1 10.6l-.3-.2M92 10.6V8.2M92 7l-.2.2M91.8 7.2l.2.2M92 7.3l.2-.2M92.2 7.2 92 7M92 7v.3M93.7 8.2v2.4M93.7 8.5l.2-.2M93.9 8.4l.3-.2M94.2 8.2h.5M94.8 8.2l.3.2M95.1 8.4l.2.3M95.3 8.7v1.9M100.2 10.6l-.3-.2M99.9 10.4l-.2-.2M99.7 10.2l-.2-.3M99.6 9.9v-1M99.6 8.9l.2-.3M99.7 8.5l.2-.2M99.9 8.4l.3-.2M100.2 8.2h.5M100.8 8.2l.3.2M101.1 8.4l.2.2M101.3 8.5l.2.3M101.4 8.9v1M101.4 9.9l-.2.3M101.3 10.2l-.2.2M101.1 10.4l-.3.2M100.8 10.6h-.5M103 8.2v2.4M103 8.5l.2-.2M103.2 8.4l.3-.2M103.5 8.2h.5M104 8.2l.3.2M104.4 8.4l.2.3M104.5 8.7v1.9M108.5 8.2h1.4M109 7v3.1M109 10.1l.2.3M109.2 10.4l.3.2M109.5 10.6h.3M111 10.6V7M112.6 10.6V8.7M112.6 8.7l-.2-.3M112.4 8.4l-.3-.2M112.1 8.2h-.5M111.6 8.2l-.3.2M111.2 8.4l-.2.2M115.7 10.4l-.3.2M115.3 10.6h-.7M114.6 10.6l-.3-.2M114.3 10.4l-.2-.3M114.1 10.1V8.7M114.1 8.7l.2-.3M114.3 8.4l.3-.2M114.6 8.2h.7M115.3 8.2l.3.2M115.7 8.4l.2.3M115.8 8.7V9M115.8 9l-1.7.3M120.1 10.6V7M120.1 8.4l.3-.2M120.5 8.2h.7M121.2 8.2l.3.2M121.5 8.4l.2.2M121.7 8.5l.2.3M121.8 8.9v1M121.8 9.9l-.2.3M121.7 10.2l-.2.2M121.5 10.4l-.3.2M121.2 10.6h-.7M120.5 10.6l-.3-.2M123.9 10.6l-.3-.2M123.6 10.4l-.2-.2M123.4 10.2l-.2-.3M123.2 9.9v-1M123.2 8.9l.2-.3M123.4 8.5l.2-.2M123.6 8.4l.3-.2M123.9 8.2h.5M124.4 8.2l.3.2M124.8 8.4l.2.2M124.9 8.5l.2.3M125.1 8.9v1M125.1 9.9l-.2.3M124.9 10.2l-.2.2M124.8 10.4l-.3.2M124.4 10.6h-.5M128.2 10.6V8.7M128.2 8.7l-.2-.3M128 8.4l-.3-.2M127.7 8.2h-.7M127 8.2l-.3.2M128.2 10.4l-.3.2M127.8 10.6h-.9M127 10.6l-.3-.2M126.6 10.4l-.2-.3M126.5 10.1v-.3M126.5 9.7l.2-.3M126.6 9.4l.3-.2M127 9.2h.9M127.8 9.2l.3-.2M129.9 10.6V8.2M129.9 8.9l.2-.3M130.1 8.5l.2-.2M130.2 8.4l.3-.2M130.6 8.2h.3M133.7 10.6V7M133.7 10.4l-.3.2M133.3 10.6h-.7M132.6 10.6l-.3-.2M132.3 10.4l-.2-.2M132.1 10.2l-.2-.3M132 9.9v-1M132 8.9l.2-.3M132.1 8.5l.2-.2M132.3 8.4l.3-.2M132.6 8.2h.7M133.3 8.2l.3.2M135.4 10.2l.2.2M135.6 10.4l-.2.2M135.4 10.6l-.2-.2M135.2 10.4l.2-.2M135.4 10.2v.3"/><path class="st10" d="M186.2 68h7.2M186.2 57.2h7.2M193.4 57.2V68M193.4 68v10.8M186.2 78.8h7.2M186.2 46.4h7.2M193.4 46.4v10.8M164.6 46.4h7.2M164.6 57.2h7.2M128.6 71.6V68M114.2 64.4H125M114.2 78.8H143M114.2 71.6h14.4M128.6 68H143M125 64.4v-7.2M114.2 57.2h7.2M125 57.2h18M121.4 46.4H143M121.4 57.2V46.4M164.6 68h7.2M164.6 89.6h7.2M164.6 78.8h7.2M38.6 57.2h18M6.2 32h25.2M31.4 78.8V32M31.4 32h54M85.4 32v10.8M114.2 107.6h3.6M56.6 100.4v36M56.6 136.4h28.8M117.8 107.6V122M38.6 93.2h18M38.6 71.6h18M31.4 78.8h25.2M164.6 122h7.2M164.6 111.2h7.2M164.6 100.4h7.2M186.2 111.2h7.2M193.4 100.4v10.8M186.2 100.4h7.2M193.4 78.8v10.8M193.4 89.6v10.8M114.2 93.2H125M114.2 100.4h7.2M125 93.2v7.2M114.2 86h14.4M128.6 86v3.6M128.6 89.6H143M125 100.4h18M121.4 100.4v10.8M121.4 111.2H143M193.4 111.2V122M193.4 122v14.4M186.2 122h7.2M117.8 122H143M85.4 136.4h108M186.2 89.6h7.2"/><path class="st6" d="m112.5 120.2 3.5 3.5M115.9 120.2l-3.5 3.5"/><path class="st11" d="M15.3 40.8h.3M15.6 40.8l.3.2M16 41l.2.2M16.1 41.2l.2.3M16.3 41.5l.2.7M16.5 42.2v.9M16.5 43l-.2.7M16.3 43.7l-.2.3M16.1 44.1l-.2.2M16 44.2l-.3.2M15.6 44.4h-.3M15.3 44.4l-.3-.2M14.9 44.2l-.2-.2M14.8 44.1l-.2-.3M14.6 43.7l-.2-.7M14.4 43v-.9M14.4 42.2l.2-.7M14.6 41.5l.2-.3M14.8 41.2l.2-.2M14.9 41l.3-.2M18 44.1l.2.2M18.2 44.2l-.2.2M18 44.4l-.2-.2M17.8 44.2l.2-.2M18 44.1v.3M21.6 44.4h-2.1M20.6 44.4v-3.6M20.6 40.8l-.3.5M20.2 41.3l-.3.3M19.9 41.7l-.3.2M23.2 42v3.6M24.9 43.9l.2.3M25 44.2l.3.2M23.2 43.9l.2.3M23.3 44.2l.3.2M23.7 44.4h.7M24.4 44.4l.3-.2M24.7 44.2l.2-.3M24.9 43.9V42M26.4 42h1.4M26.9 44.4v-3.1M26.9 41.3l.2-.3M27.1 41l.3-.2M27.4 40.8h.3"/><path class="st19" d="M6.2 37.7v-5.8M6.2 40.6v5.8"/><path class="st11" d="m3.5 59-.3-.2M3.1 58.8h-.5M2.6 58.8l-.5.2M2.1 59l-.3.3M1.8 59.3l-.2.3M1.6 59.7l-.2.7M1.4 60.3v.5M1.4 60.9l.2.7M1.6 61.5l.2.3M1.8 61.9l.3.3M2.1 62.2l.5.2M2.6 62.4h.3M3 62.4l.5-.2M3.5 62.2l.2-.2M3.6 62.1v-1.2M3.6 60.9h-.7M5.2 62.4v-3.6M5.2 58.8l2.1 3.6M7.2 62.4v-3.6M9 62.4v-3.6M9 58.8h.9M9.8 58.8l.5.2M10.3 59l.3.3M10.7 59.3l.2.3M10.8 59.7l.2.7M11 60.3v.5M11 60.9l-.2.7M10.8 61.5l-.2.3M10.7 61.9l-.3.3M10.3 62.2l-.5.2M9.8 62.4h-.9"/><path class="st19" d="M6.2 46.4h0"/><circle class="st16" cx="193.4" cy="57.2" r="1.3"/><circle class="st16" cx="193.4" cy="68" r="1.3"/><circle class="st16" cx="31.4" cy="32" r="1.3"/><circle class="st16" cx="85.4" cy="32" r="1.3"/><circle class="st16" cx="85.4" cy="136.4" r="1.3"/><circle class="st16" cx="193.4" cy="111.2" r="1.3"/><circle class="st16" cx="193.4" cy="100.4" r="1.3"/><circle class="st16" cx="193.4" cy="89.6" r="1.3"/><circle class="st16" cx="193.4" cy="78.8" r="1.3"/><circle class="st16" cx="193.4" cy="136.4" r="1.3"/><circle class="st16" cx="193.4" cy="122" r="1.3"/></svg>