<svg id="Layer_1" xmlns="http://www.w3.org/2000/svg" version="1.1" viewBox="0 0 169.7 219.5"><defs><style>.st0,.st2{letter-spacing:.2em}.st3{letter-spacing:1.6em}.st4{letter-spacing:.1em}.st5{letter-spacing:.2em}.st6{stroke:#000084}.st10,.st11,.st12,.st13,.st15,.st16,.st17,.st18,.st19,.st6,.st7,.st8,.st9{stroke-linecap:round;stroke-linejoin:round}.st10,.st11,.st12,.st13,.st15,.st17,.st18,.st19,.st6,.st7,.st8,.st9{fill:none}.st10,.st11,.st15,.st16,.st17,.st19,.st6,.st7{stroke-width:.4px}.st18,.st7{stroke:#a90000}.st22{letter-spacing:.2em}.st12,.st13,.st18,.st8{font-family:ArialMT,Arial;font-size:4.8px;stroke-width:.4px}.st17,.st8{stroke:#0f0f0f}.st9{stroke-width:.7px}.st19,.st9{stroke:#840000}.st23{letter-spacing:.2em}.st10,.st16{stroke:#009600}.st25,.st29{letter-spacing:.8em}.st11,.st13{stroke:#006464}.st12,.st15{stroke:#0000c2}.st31{letter-spacing:.8em}.st33{isolation:isolate;opacity:0}.st34{letter-spacing:.1em}.st35{letter-spacing:.3em}.st16{fill:#009600}.st36{letter-spacing:.2em}.st37{letter-spacing:.3em}.st38{letter-spacing:.2em}.st39{letter-spacing:.3em}.st40{letter-spacing:.2em}</style></defs><path class="st19" d="M6.2 46.4V50h3.6l-3.6 3.6L2.6 50h3.6M6.2 46.4h0"/><path class="st11" d="m3.5 59-.3-.2M3.1 58.8h-.5M2.6 58.8l-.5.2M2.1 59l-.3.3M1.8 59.3l-.2.3M1.6 59.7l-.2.7M1.4 60.3v.5M1.4 60.9l.2.7M1.6 61.5l.2.3M1.8 61.9l.3.3M2.1 62.2l.5.2M2.6 62.4h.3M3 62.4l.5-.2M3.5 62.2l.2-.2M3.6 62.1v-1.2M3.6 60.9h-.7M5.2 62.4v-3.6M5.2 58.8l2.1 3.6M7.2 62.4v-3.6M9 62.4v-3.6M9 58.8h.9M9.8 58.8l.5.2M10.3 59l.3.3M10.7 59.3l.2.3M10.8 59.7l.2.7M11 60.3v.5M11 60.9l-.2.7M10.8 61.5l-.2.3M10.7 61.9l-.3.3M10.3 62.2l-.5.2M9.8 62.4h-.9"/><path class="st9" d="M153.8 68v-7.2"/><path class="st19" d="M153.8 64.4h7.2"/><path class="st9" d="M161 68v-7.2l-7.2 3.6L161 68Z"/><path class="st19" d="m148.8 66.5-4.3 4.3h2.2-2.2v-2.2M152.4 66.5l-4.3 4.3h2.2-2.2v-2.2M153.8 64.4h-7.2M161 64.4h7.2"/><path class="st9" d="M153.8 89.6v-7.2"/><path class="st19" d="M153.8 86h7.2"/><path class="st9" d="M161 89.6v-7.2l-7.2 3.6 7.2 3.6Z"/><path class="st19" d="m148.8 88.1-4.3 4.3h2.2-2.2v-2.2M152.4 88.1l-4.3 4.3h2.2-2.2v-2.2M153.8 86h-7.2M161 86h7.2"/><path class="st9" d="M153.8 46.4v-7.2"/><path class="st19" d="M153.8 42.8h7.2"/><path class="st9" d="M161 46.4v-7.2l-7.2 3.6 7.2 3.6Z"/><path class="st19" d="m148.8 44.9-4.3 4.3h2.2-2.2V47M152.4 44.9l-4.3 4.3h2.2-2.2V47M153.8 42.8h-7.2M161 42.8h7.2"/><path class="st9" d="M153.8 57.2V50"/><path class="st19" d="M153.8 53.6h7.2"/><path class="st9" d="M161 57.2V50l-7.2 3.6 7.2 3.6Z"/><path class="st19" d="m148.8 55.7-4.3 4.3h2.2-2.2v-2.2M152.4 55.7l-4.3 4.3h2.2-2.2v-2.2M153.8 53.6h-7.2M161 53.6h7.2"/><path class="st9" d="M153.8 143.6v-7.2"/><path class="st19" d="M153.8 140h7.2"/><path class="st9" d="M161 143.6v-7.2l-7.2 3.6 7.2 3.6Z"/><path class="st19" d="m148.8 142.1-4.3 4.3h2.2-2.2v-2.2M152.4 142.1l-4.3 4.3h2.2-2.2v-2.2M153.8 140h-7.2M161 140h7.2"/><path class="st9" d="M153.8 154.4v-7.2"/><path class="st19" d="M153.8 150.8h7.2"/><path class="st9" d="M161 154.4v-7.2l-7.2 3.6 7.2 3.6Z"/><path class="st19" d="m148.8 152.9-4.3 4.3h2.2-2.2V155M152.4 152.9l-4.3 4.3h2.2-2.2V155M153.8 150.8h-7.2M161 150.8h7.2"/><path class="st9" d="M153.8 186.8v-7.2"/><path class="st19" d="M153.8 183.2h7.2"/><path class="st9" d="M161 186.8v-7.2l-7.2 3.6 7.2 3.6Z"/><path class="st19" d="m148.8 185.3-4.3 4.3h2.2-2.2v-2.2M152.4 185.3l-4.3 4.3h2.2-2.2v-2.2M153.8 183.2h-7.2M161 183.2h7.2"/><path class="st9" d="M153.8 122v-7.2"/><path class="st19" d="M153.8 118.4h7.2"/><path class="st9" d="M161 122v-7.2l-7.2 3.6 7.2 3.6Z"/><path class="st19" d="m148.8 120.5-4.3 4.3h2.2-2.2v-2.2M152.4 120.5l-4.3 4.3h2.2-2.2v-2.2M153.8 118.4h-7.2M161 118.4h7.2"/><path class="st9" d="M153.8 197.6v-7.2"/><path class="st19" d="M153.8 194h7.2"/><path class="st9" d="M161 197.6v-7.2l-7.2 3.6 7.2 3.6Z"/><path class="st19" d="m148.8 196.1-4.3 4.3h2.2-2.2v-2.2M152.4 196.1l-4.3 4.3h2.2-2.2v-2.2M153.8 194h-7.2M161 194h7.2"/><path class="st9" d="M153.8 208.4v-7.2"/><path class="st19" d="M153.8 204.8h7.2"/><path class="st9" d="M161 208.4v-7.2l-7.2 3.6 7.2 3.6Z"/><path class="st19" d="m148.8 206.9-4.3 4.3h2.2-2.2V209M152.4 206.9l-4.3 4.3h2.2-2.2V209M153.8 204.8h-7.2M161 204.8h7.2"/><path class="st9" d="M153.8 132.8v-7.2"/><path class="st19" d="M153.8 129.2h7.2"/><path class="st9" d="M161 132.8v-7.2l-7.2 3.6 7.2 3.6Z"/><path class="st19" d="m148.8 131.3-4.3 4.3h2.2-2.2v-2.2M152.4 131.3l-4.3 4.3h2.2-2.2v-2.2M153.8 129.2h-7.2M161 129.2h7.2"/><path class="st9" d="M153.8 78.8v-7.2"/><path class="st19" d="M153.8 75.2h7.2"/><path class="st9" d="M161 78.8v-7.2l-7.2 3.6 7.2 3.6Z"/><path class="st19" d="m148.8 77.3-4.3 4.3h2.2-2.2v-2.2M152.4 77.3l-4.3 4.3h2.2-2.2v-2.2M153.8 75.2h-7.2M161 75.2h7.2"/><path d="M1.9 40.6h8.6M1.9 37.7h8.6" style="stroke-width:.9px;stroke:#840000;fill:none;stroke-linecap:round;stroke-linejoin:round"/><path class="st19" d="M6.2 37.7v-5.8M6.2 40.6v5.8"/><path class="st11" d="M15.3 40.8h.3M15.6 40.8l.3.2M16 41l.2.2M16.1 41.2l.2.3M16.3 41.5l.2.7M16.5 42.2v.9M16.5 43l-.2.7M16.3 43.7l-.2.3M16.1 44.1l-.2.2M16 44.2l-.3.2M15.6 44.4h-.3M15.3 44.4l-.3-.2M14.9 44.2l-.2-.2M14.8 44.1l-.2-.3M14.6 43.7l-.2-.7M14.4 43v-.9M14.4 42.2l.2-.7M14.6 41.5l.2-.3M14.8 41.2l.2-.2M14.9 41l.3-.2M18 44.1l.2.2M18.2 44.2l-.2.2M18 44.4l-.2-.2M17.8 44.2l.2-.2M18 44.1v.3M21.6 44.4h-2.1M20.6 44.4v-3.6M20.6 40.8l-.3.5M20.2 41.3l-.3.3M19.9 41.7l-.3.2M23.2 42v3.6M24.9 43.9l.2.3M25 44.2l.3.2M23.2 43.9l.2.3M23.3 44.2l.3.2M23.7 44.4h.7M24.4 44.4l.3-.2M24.7 44.2l.2-.3M24.9 43.9V42M26.4 42h1.4M26.9 44.4v-3.1M26.9 41.3l.2-.3M27.1 41l.3-.2M27.4 40.8h.3"/><path style="fill:#ffffc2" d="M56.6 50h43.2v144H56.6z"/><path class="st9" d="M56.6 50h43.2v144H56.6z"/><path class="st19" d="M78.2 194v7.2"/><path class="st11" d="m76.4 189.5-.2.3M76.3 189.8v.5M76.3 190.3l.2.5M76.4 190.9l.3.3M76.8 191.2l.3.2M77.1 191.4l.7.2M77.8 191.5h.5M78.3 191.5l.7-.2M79 191.4l.3-.2M79.3 191.2l.3-.3M79.7 190.9l.2-.5M79.9 190.3v-.3M79.9 190l-.2-.5M79.7 189.5l-.2-.2M79.5 189.3h-1.2M78.3 189.3v.7M79.9 187.8h-3.6M76.3 187.8l3.6-2.1M79.9 185.7h-3.6M79.9 184h-3.6M76.3 184v-.9M76.3 183.1l.2-.5M76.4 182.6l.3-.3M76.8 182.3l.3-.2M77.1 182.1l.7-.2M77.8 181.9h.5M78.3 181.9l.7.2M79 182.1l.3.2M79.3 182.3l.3.3M79.7 182.6l.2.5M79.9 183.1v.9"/><path class="st7" d="M77 196.5v2.1M77 197.6h-3.6M73.4 197.6l.5.3M73.9 197.9l.3.3M74.3 198.2l.2.3"/><path class="st19" d="M99.8 107.6h7.2"/><path class="st11" d="M85.9 105.6h.7M86.6 105.6l.3.2M86.9 105.8l.3.3M87.3 106.1l.2.7M87.5 106.8v1.2M87.5 108l-.2.7M87.3 108.7l-.3.3M86.9 109l-.3.2M86.6 109.2h-.7M85.9 109.2l-.3-.2M85.6 109l-.3-.3M85.2 108.7l-.2-.7M85.1 108v-1.2M85.1 106.8l.2-.7M85.2 106.1l.3-.3M85.6 105.8l.3-.2M89 105.6v2.9M89 108.5l.2.3M89.2 108.9l.2.2M89.3 109l.3.2M89.7 109.2h.7M90.4 109.2l.3-.2M90.7 109l.2-.2M90.9 108.9l.2-.3M91.1 108.5v-2.9M92.3 105.6h2.1M93.3 109.2v-3.6M97.2 105.6h-1.7M95.5 105.6l-.2 1.7M95.3 107.3l.2-.2M95.5 107.1l.3-.2M95.9 107h.9M96.7 107l.3.2M97.1 107.1l.2.2M97.2 107.3l.2.3M97.4 107.7v.9M97.4 108.5l-.2.3M97.2 108.9l-.2.2M97.1 109l-.3.2M96.7 109.2h-.9M95.9 109.2l-.3-.2M95.5 109l-.2-.2"/><path class="st7" d="M102.7 106.4h-2.1M101.7 106.4v-3.6M101.7 102.8l-.3.5M101.4 103.3l-.3.3M101 103.6l-.3.2M105 102.8h.3M105.3 102.8l.3.2M105.6 102.9l.2.2M105.8 103.1l.2.3M106 103.5l.2.7M106.2 104.1v.9M106.2 105l-.2.7M106 105.7l-.2.3M105.8 106l-.2.2M105.6 106.2l-.3.2M105.3 106.4h-.3M105 106.4l-.3-.2M104.6 106.2l-.2-.2M104.4 106l-.2-.3M104.3 105.7l-.2-.7M104.1 105v-.9M104.1 104.1l.2-.7M104.3 103.5l.2-.3M104.4 103.1l.2-.2M104.6 102.9l.3-.2"/><path class="st19" d="M99.8 114.8h7.2"/><path class="st11" d="M85.9 112.8h.7M86.6 112.8l.3.2M86.9 113l.3.3M87.3 113.3l.2.7M87.5 114v1.2M87.5 115.2l-.2.7M87.3 115.9l-.3.3M86.9 116.2l-.3.2M86.6 116.4h-.7M85.9 116.4l-.3-.2M85.6 116.2l-.3-.3M85.2 115.9l-.2-.7M85.1 115.2V114M85.1 114l.2-.7M85.2 113.3l.3-.3M85.6 113l.3-.2M89 112.8v2.9M89 115.7l.2.3M89.2 116.1l.2.2M89.3 116.2l.3.2M89.7 116.4h.7M90.4 116.4l.3-.2M90.7 116.2l.2-.2M90.9 116.1l.2-.3M91.1 115.7v-2.9M92.3 112.8h2.1M93.3 116.4v-3.6M97.1 112.8h-.7M96.4 112.8l-.3.2M96 113l-.2.2M95.9 113.1l-.3.5M95.5 113.7l-.2.7M95.3 114.3v1.4M95.3 115.7l.2.3M95.5 116.1l.2.2M95.7 116.2l.3.2M96 116.4h.7M96.7 116.4l.3-.2M97.1 116.2l.2-.2M97.2 116.1l.2-.3M97.4 115.7v-.9M97.4 114.9l-.2-.3M97.2 114.5l-.2-.2M97.1 114.3l-.3-.2M96.7 114.2H96M96 114.2l-.3.2M95.7 114.3l-.2.2M95.5 114.5l-.2.3"/><path class="st7" d="M102.7 113.6h-2.1M101.7 113.6V110M101.7 110l-.3.5M101.4 110.5l-.3.3M101 110.8l-.3.2M106.2 113.6h-2.1M105.1 113.6V110M105.1 110l-.3.5M104.8 110.5l-.3.3M104.4 110.8l-.3.2"/><path class="st19" d="M99.8 122h7.2"/><path class="st11" d="M85.9 120h.7M86.6 120l.3.2M86.9 120.2l.3.3M87.3 120.5l.2.7M87.5 121.2v1.2M87.5 122.4l-.2.7M87.3 123.1l-.3.3M86.9 123.4l-.3.2M86.6 123.6h-.7M85.9 123.6l-.3-.2M85.6 123.4l-.3-.3M85.2 123.1l-.2-.7M85.1 122.4v-1.2M85.1 121.2l.2-.7M85.2 120.5l.3-.3M85.6 120.2l.3-.2M89 120v2.9M89 122.9l.2.3M89.2 123.3l.2.2M89.3 123.4l.3.2M89.7 123.6h.7M90.4 123.6l.3-.2M90.7 123.4l.2-.2M90.9 123.3l.2-.3M91.1 122.9V120M92.3 120h2.1M93.3 123.6V120M95.2 120h2.4M97.6 120l-1.5 3.6"/><path class="st7" d="M102.7 120.8h-2.1M101.7 120.8v-3.6M101.7 117.2l-.3.5M101.4 117.7l-.3.3M101 118l-.3.2M104.1 117.5l.2-.2M104.3 117.3l.3-.2M104.6 117.2h.9M105.5 117.2l.3.2M105.8 117.3l.2.2M106 117.5l.2.3M106.2 117.9v.3M106.2 118.2l-.2.5M106 118.7l-2.1 2.1M103.9 120.8h2.2"/><path class="st19" d="M99.8 129.2h7.2"/><path class="st11" d="M85.9 127.2h.7M86.6 127.2l.3.2M86.9 127.4l.3.3M87.3 127.7l.2.7M87.5 128.4v1.2M87.5 129.6l-.2.7M87.3 130.3l-.3.3M86.9 130.6l-.3.2M86.6 130.8h-.7M85.9 130.8l-.3-.2M85.6 130.6l-.3-.3M85.2 130.3l-.2-.7M85.1 129.6v-1.2M85.1 128.4l.2-.7M85.2 127.7l.3-.3M85.6 127.4l.3-.2M89 127.2v2.9M89 130.1l.2.3M89.2 130.5l.2.2M89.3 130.6l.3.2M89.7 130.8h.7M90.4 130.8l.3-.2M90.7 130.6l.2-.2M90.9 130.5l.2-.3M91.1 130.1v-2.9M92.3 127.2h2.1M93.3 130.8v-3.6M96 128.7l-.3-.2M95.7 128.6l-.2-.2M95.5 128.4l-.2-.3M95.3 128.1v-.2M95.3 127.9l.2-.3M95.5 127.5l.2-.2M95.7 127.4l.3-.2M96 127.2h.7M96.7 127.2l.3.2M97.1 127.4l.2.2M97.2 127.5l.2.3M97.4 127.9v.2M97.4 128.1l-.2.3M97.2 128.4l-.2.2M97.1 128.6l-.3.2M96.7 128.7H96M96 128.7l-.3.2M95.7 128.9l-.2.2M95.5 129.1l-.2.3M95.3 129.4v.7M95.3 130.1l.2.3M95.5 130.5l.2.2M95.7 130.6l.3.2M96 130.8h.7M96.7 130.8l.3-.2M97.1 130.6l.2-.2M97.2 130.5l.2-.3M97.4 130.1v-.7M97.4 129.4l-.2-.3M97.2 129.1l-.2-.2M97.1 128.9l-.3-.2"/><path class="st7" d="M102.7 128h-2.1M101.7 128v-3.6M101.7 124.4l-.3.5M101.4 124.9l-.3.3M101 125.2l-.3.2M103.9 124.4h2.2M106.2 124.4l-1.2 1.4M105 125.7h.5M105.5 125.7l.3.2M105.8 125.9l.2.2M106 126.1l.2.3M106.2 126.4v.9M106.2 127.3l-.2.3M106 127.6l-.2.2M105.8 127.8l-.3.2M105.5 128h-1M104.4 128l-.3-.2M104.1 127.8l-.2-.2"/><path class="st19" d="M99.8 136.4h7.2"/><path class="st11" d="M85.9 134.4h.7M86.6 134.4l.3.2M86.9 134.6l.3.3M87.3 134.9l.2.7M87.5 135.6v1.2M87.5 136.8l-.2.7M87.3 137.5l-.3.3M86.9 137.8l-.3.2M86.6 138h-.7M85.9 138l-.3-.2M85.6 137.8l-.3-.3M85.2 137.5l-.2-.7M85.1 136.8v-1.2M85.1 135.6l.2-.7M85.2 134.9l.3-.3M85.6 134.6l.3-.2M89 134.4v2.9M89 137.3l.2.3M89.2 137.7l.2.2M89.3 137.8l.3.2M89.7 138h.7M90.4 138l.3-.2M90.7 137.8l.2-.2M90.9 137.7l.2-.3M91.1 137.3v-2.9M92.3 134.4h2.1M93.3 138v-3.6M95.7 138h.7M96.4 138l.3-.2M96.7 137.8l.2-.2M96.9 137.7l.3-.5M97.2 137.1l.2-.7M97.4 136.5v-1.4M97.4 135.1l-.2-.3M97.2 134.7l-.2-.2M97.1 134.6l-.3-.2M96.7 134.4H96M96 134.4l-.3.2M95.7 134.6l-.2.2M95.5 134.7l-.2.3M95.3 135.1v.9M95.3 135.9l.2.3M95.5 136.3l.2.2M95.7 136.5l.3.2M96 136.6h.7M96.7 136.6l.3-.2M97.1 136.5l.2-.2M97.2 136.3l.2-.3"/><path class="st7" d="M102.7 135.2h-2.1M101.7 135.2v-3.6M101.7 131.6l-.3.5M101.4 132.1l-.3.3M101 132.4l-.3.2M105.8 132.8v2.4M105 131.4l-.9 2.6M104.1 134h2.2"/><path class="st19" d="M99.8 143.6h7.2"/><path class="st11" d="M82.5 141.6h.7M83.2 141.6l.3.2M83.5 141.8l.3.3M83.9 142.1l.2.7M84 142.8v1.2M84 144l-.2.7M83.9 144.7l-.3.3M83.5 145l-.3.2M83.2 145.2h-.7M82.5 145.2l-.3-.2M82.1 145l-.3-.3M81.8 144.7l-.2-.7M81.6 144v-1.2M81.6 142.8l.2-.7M81.8 142.1l.3-.3M82.1 141.8l.3-.2M85.6 141.6v2.9M85.6 144.5l.2.3M85.7 144.9l.2.2M85.9 145l.3.2M86.3 145.2h.7M86.9 145.2l.3-.2M87.3 145l.2-.2M87.5 144.9l.2-.3M87.6 144.5v-2.9M88.8 141.6h2.1M89.9 145.2v-3.6M94 145.2h-2.1M92.9 145.2v-3.6M92.9 141.6l-.3.5M92.6 142.1l-.3.3M92.3 142.5l-.3.2M96.2 141.6h.3M96.5 141.6l.3.2M96.9 141.8l.2.2M97.1 141.9l.2.3M97.2 142.3l.2.7M97.4 143v.9M97.4 143.8l-.2.7M97.2 144.5l-.2.3M97.1 144.9l-.2.2M96.9 145l-.3.2M96.5 145.2h-.3M96.2 145.2l-.3-.2M95.9 145l-.2-.2M95.7 144.9l-.2-.3M95.5 144.5l-.2-.7M95.3 143.8v-.9M95.3 143l.2-.7M95.5 142.3l.2-.3M95.7 141.9l.2-.2M95.9 141.8l.3-.2"/><path class="st7" d="M102.7 142.4h-2.1M101.7 142.4v-3.6M101.7 138.8l-.3.5M101.4 139.3l-.3.3M101 139.6l-.3.2M106 138.8h-1.7M104.3 138.8l-.2 1.7M104.1 140.5l.2-.2M104.3 140.3l.3-.2M104.6 140.1h.9M105.5 140.1l.3.2M105.8 140.3l.2.2M106 140.5l.2.3M106.2 140.8v.9M106.2 141.7l-.2.3M106 142l-.2.2M105.8 142.2l-.3.2M105.5 142.4h-.9M104.6 142.4l-.3-.2M104.3 142.2l-.2-.2"/><path class="st19" d="M99.8 150.8h7.2"/><path class="st11" d="M82.5 148.8h.7M83.2 148.8l.3.2M83.5 149l.3.3M83.9 149.3l.2.7M84 150v1.2M84 151.2l-.2.7M83.9 151.9l-.3.3M83.5 152.2l-.3.2M83.2 152.4h-.7M82.5 152.4l-.3-.2M82.1 152.2l-.3-.3M81.8 151.9l-.2-.7M81.6 151.2V150M81.6 150l.2-.7M81.8 149.3l.3-.3M82.1 149l.3-.2M85.6 148.8v2.9M85.6 151.7l.2.3M85.7 152.1l.2.2M85.9 152.2l.3.2M86.3 152.4h.7M86.9 152.4l.3-.2M87.3 152.2l.2-.2M87.5 152.1l.2-.3M87.6 151.7v-2.9M88.8 148.8h2.1M89.9 152.4v-3.6M94 152.4h-2.1M92.9 152.4v-3.6M92.9 148.8l-.3.5M92.6 149.3l-.3.3M92.3 149.7l-.3.2M97.4 152.4h-2.1M96.4 152.4v-3.6M96.4 148.8l-.3.5M96 149.3l-.3.3M95.7 149.7l-.3.2"/><path class="st7" d="M102.7 149.6h-2.1M101.7 149.6V146M101.7 146l-.3.5M101.4 146.5l-.3.3M101 146.8l-.3.2M105.8 146h-.7M105.1 146l-.3.2M104.8 146.1l-.2.2M104.6 146.3l-.3.5M104.3 146.8l-.2.7M104.1 147.5v1.4M104.1 148.9l.2.3M104.3 149.2l.2.2M104.4 149.4l.3.2M104.8 149.6h.7M105.5 149.6l.3-.2M105.8 149.4l.2-.2M106 149.2l.2-.3M106.2 148.9v-.9M106.2 148l-.2-.3M106 147.7l-.2-.2M105.8 147.5l-.3-.2M105.5 147.3h-.7M104.8 147.3l-.3.2M104.4 147.5l-.2.2M104.3 147.7l-.2.3"/><path class="st19" d="M99.8 158h7.2"/><path class="st11" d="M82.5 156h.7M83.2 156l.3.2M83.5 156.2l.3.3M83.9 156.5l.2.7M84 157.2v1.2M84 158.4l-.2.7M83.9 159.1l-.3.3M83.5 159.4l-.3.2M83.2 159.6h-.7M82.5 159.6l-.3-.2M82.1 159.4l-.3-.3M81.8 159.1l-.2-.7M81.6 158.4v-1.2M81.6 157.2l.2-.7M81.8 156.5l.3-.3M82.1 156.2l.3-.2M85.6 156v2.9M85.6 158.9l.2.3M85.7 159.3l.2.2M85.9 159.4l.3.2M86.3 159.6h.7M86.9 159.6l.3-.2M87.3 159.4l.2-.2M87.5 159.3l.2-.3M87.6 158.9V156M88.8 156h2.1M89.9 159.6V156M94 159.6h-2.1M92.9 159.6V156M92.9 156l-.3.5M92.6 156.5l-.3.3M92.3 156.9l-.3.2M95.3 156.3l.2-.2M95.5 156.2l.3-.2M95.9 156h.9M96.7 156l.3.2M97.1 156.2l.2.2M97.2 156.3l.2.3M97.4 156.7v.3M97.4 157l-.2.5M97.2 157.5l-2.1 2.1M95.2 159.6h2.2"/><path class="st7" d="M102.7 156.8h-2.1M101.7 156.8v-3.6M101.7 153.2l-.3.5M101.4 153.7l-.3.3M101 154l-.3.2M103.9 153.2h2.4M106.3 153.2l-1.5 3.6"/><path class="st19" d="M99.8 165.2h7.2"/><path class="st11" d="M82.5 163.2h.7M83.2 163.2l.3.2M83.5 163.4l.3.3M83.9 163.7l.2.7M84 164.4v1.2M84 165.6l-.2.7M83.9 166.3l-.3.3M83.5 166.6l-.3.2M83.2 166.8h-.7M82.5 166.8l-.3-.2M82.1 166.6l-.3-.3M81.8 166.3l-.2-.7M81.6 165.6v-1.2M81.6 164.4l.2-.7M81.8 163.7l.3-.3M82.1 163.4l.3-.2M85.6 163.2v2.9M85.6 166.1l.2.3M85.7 166.5l.2.2M85.9 166.6l.3.2M86.3 166.8h.7M86.9 166.8l.3-.2M87.3 166.6l.2-.2M87.5 166.5l.2-.3M87.6 166.1v-2.9M88.8 163.2h2.1M89.9 166.8v-3.6M94 166.8h-2.1M92.9 166.8v-3.6M92.9 163.2l-.3.5M92.6 163.7l-.3.3M92.3 164.1l-.3.2M95.2 163.2h2.2M97.4 163.2l-1.2 1.4M96.2 164.6h.5M96.7 164.6l.3.2M97.1 164.7l.2.2M97.2 164.9l.2.3M97.4 165.3v.9M97.4 166.1l-.2.3M97.2 166.5l-.2.2M97.1 166.6l-.3.2M96.7 166.8h-1M95.7 166.8l-.3-.2M95.3 166.6l-.2-.2"/><path class="st7" d="M102.7 164h-2.1M101.7 164v-3.6M101.7 160.4l-.3.5M101.4 160.9l-.3.3M101 161.2l-.3.2M104.8 161.9l-.3-.2M104.4 161.7l-.2-.2M104.3 161.6l-.2-.3M104.1 161.2v-.2M104.1 161.1l.2-.3M104.3 160.7l.2-.2M104.4 160.5l.3-.2M104.8 160.4h.7M105.5 160.4l.3.2M105.8 160.5l.2.2M106 160.7l.2.3M106.2 161.1v.2M106.2 161.2l-.2.3M106 161.6l-.2.2M105.8 161.7l-.3.2M105.5 161.9h-.7M104.8 161.9l-.3.2M104.4 162.1l-.2.2M104.3 162.3l-.2.3M104.1 162.6v.7M104.1 163.3l.2.3M104.3 163.6l.2.2M104.4 163.8l.3.2M104.8 164h.7M105.5 164l.3-.2M105.8 163.8l.2-.2M106 163.6l.2-.3M106.2 163.3v-.7M106.2 162.6l-.2-.3M106 162.3l-.2-.2M105.8 162.1l-.3-.2"/><path class="st19" d="M99.8 172.4h7.2"/><path class="st11" d="M82.5 170.4h.7M83.2 170.4l.3.2M83.5 170.6l.3.3M83.9 170.9l.2.7M84 171.6v1.2M84 172.8l-.2.7M83.9 173.5l-.3.3M83.5 173.8l-.3.2M83.2 174h-.7M82.5 174l-.3-.2M82.1 173.8l-.3-.3M81.8 173.5l-.2-.7M81.6 172.8v-1.2M81.6 171.6l.2-.7M81.8 170.9l.3-.3M82.1 170.6l.3-.2M85.6 170.4v2.9M85.6 173.3l.2.3M85.7 173.7l.2.2M85.9 173.8l.3.2M86.3 174h.7M86.9 174l.3-.2M87.3 173.8l.2-.2M87.5 173.7l.2-.3M87.6 173.3v-2.9M88.8 170.4h2.1M89.9 174v-3.6M94 174h-2.1M92.9 174v-3.6M92.9 170.4l-.3.5M92.6 170.9l-.3.3M92.3 171.3l-.3.2M97.1 171.6v2.4M96.2 170.2l-.9 2.6M95.3 172.8h2.2"/><path class="st7" d="M102.7 171.2h-2.1M101.7 171.2v-3.6M101.7 167.6l-.3.5M101.4 168.1l-.3.3M101 168.4l-.3.2M104.4 171.2h.7M105.1 171.2l.3-.2M105.5 171l.2-.2M105.6 170.8l.3-.5M106 170.3l.2-.7M106.2 169.6v-1.4M106.2 168.3l-.2-.3M106 167.9l-.2-.2M105.8 167.7l-.3-.2M105.5 167.6h-.7M104.8 167.6l-.3.2M104.4 167.7l-.2.2M104.3 167.9l-.2.3M104.1 168.3v.9M104.1 169.1l.2.3M104.3 169.5l.2.2M104.4 169.6l.3.2M104.8 169.8h.7M105.5 169.8l.3-.2M105.8 169.6l.2-.2M106 169.5l.2-.3"/><path class="st19" d="M56.6 57.2h-7.2"/><path class="st11" d="M59.2 58.8v-3.6M59.2 55.2h.9M60 55.2l.5.2M60.6 55.4l.3.3M60.9 55.7l.2.3M61.1 56.1l.2.7M61.2 56.7v.5M61.2 57.3l-.2.7M61.1 57.9l-.2.3M60.9 58.3l-.3.3M60.6 58.6l-.5.2M60 58.8h-.9M62.6 57.8h1.7M62.3 58.8l1.2-3.6M63.5 55.2l1.2 3.6M65.9 58.8v-3.6"/><path class="st7" d="m52 52.7.2-.2M52.2 52.5l.3-.2M52.5 52.4h.9M53.4 52.4l.3.2M53.7 52.5l.2.2M53.9 52.7l.2.3M54 53.1v.3M54 53.4l-.2.5M53.9 53.9 51.8 56M51.8 56H54"/><path class="st19" d="M99.8 179.6h7.2"/><path class="st11" d="M82.5 177.6h.7M83.2 177.6l.3.2M83.5 177.8l.3.3M83.9 178.1l.2.7M84 178.8v1.2M84 180l-.2.7M83.9 180.7l-.3.3M83.5 181l-.3.2M83.2 181.2h-.7M82.5 181.2l-.3-.2M82.1 181l-.3-.3M81.8 180.7l-.2-.7M81.6 180v-1.2M81.6 178.8l.2-.7M81.8 178.1l.3-.3M82.1 177.8l.3-.2M85.6 177.6v2.9M85.6 180.5l.2.3M85.7 180.9l.2.2M85.9 181l.3.2M86.3 181.2h.7M86.9 181.2l.3-.2M87.3 181l.2-.2M87.5 180.9l.2-.3M87.6 180.5v-2.9M88.8 177.6h2.1M89.9 181.2v-3.6M94 181.2h-2.1M92.9 181.2v-3.6M92.9 177.6l-.3.5M92.6 178.1l-.3.3M92.3 178.5l-.3.2M97.2 177.6h-1.7M95.5 177.6l-.2 1.7M95.3 179.3l.2-.2M95.5 179.1l.3-.2M95.9 179h.9M96.7 179l.3.2M97.1 179.1l.2.2M97.2 179.3l.2.3M97.4 179.7v.9M97.4 180.5l-.2.3M97.2 180.9l-.2.2M97.1 181l-.3.2M96.7 181.2h-.9M95.9 181.2l-.3-.2M95.5 181l-.2-.2"/><path class="st7" d="m100.7 175.1.2-.2M100.8 174.9l.3-.2M101.2 174.8h.9M102 174.8l.3.2M102.4 174.9l.2.2M102.6 175.1l.2.3M102.7 175.5v.3M102.7 175.8l-.2.5M102.6 176.3l-2.1 2.1M100.5 178.4h2.2M105 174.8h.3M105.3 174.8l.3.2M105.6 174.9l.2.2M105.8 175.1l.2.3M106 175.5l.2.7M106.2 176.1v.9M106.2 177l-.2.7M106 177.7l-.2.3M105.8 178l-.2.2M105.6 178.2l-.3.2M105.3 178.4h-.3M105 178.4l-.3-.2M104.6 178.2l-.2-.2M104.4 178l-.2-.3M104.3 177.7l-.2-.7M104.1 177v-.9M104.1 176.1l.2-.7M104.3 175.5l.2-.3M104.4 175.1l.2-.2M104.6 174.9l.3-.2"/><path class="st19" d="M56.6 179.6h-7.2"/><path class="st11" d="M59.2 179.3h1.2M60.9 181.2h-1.7M59.2 181.2v-3.6M59.2 177.6h1.7M62.4 181.2v-3.6M62.4 177.6l2.1 3.6M64.5 181.2v-3.6M58.7 176.6H65"/><path class="st7" d="m50.3 175.1.2-.2M50.4 174.9l.3-.2M50.8 174.8h.9M51.6 174.8l.3.2M52 174.9l.2.2M52.2 175.1l.2.3M52.3 175.5v.3M52.3 175.8l-.2.5M52.2 176.3l-2.1 2.1M50.1 178.4h2.2M55.8 178.4h-2.1M54.7 178.4v-3.6M54.7 174.8l-.3.5M54.4 175.3l-.3.3M54 175.6l-.3.2"/><path class="st19" d="M99.8 57.2h7.2"/><path class="st11" d="M88.5 58.8v-3.6M88.5 55.2h.9M89.3 55.2l.5.2M89.9 55.4l.3.3M90.2 55.7l.2.3M90.4 56.1l.2.7M90.5 56.7v.5M90.5 57.3l-.2.7M90.4 57.9l-.2.3M90.2 58.3l-.3.3M89.9 58.6l-.5.2M89.3 58.8h-.9M91.9 57.8h1.7M91.6 58.8l1.2-3.6M92.8 55.2l1.2 3.6M95.9 55.2h.7M96.5 55.2l.3.2M96.9 55.4l.3.3M97.2 55.7l.2.7M97.4 56.4v1.2M97.4 57.6l-.2.7M97.2 58.3l-.3.3M96.9 58.6l-.3.2M96.5 58.8h-.7M95.9 58.8l-.3-.2M95.5 58.6l-.3-.3M95.2 58.3l-.2-.7M95 57.6v-1.2M95 56.4l.2-.7M95.2 55.7l.3-.3M95.5 55.4l.3-.2"/><path class="st7" d="m100.7 52.7.2-.2M100.8 52.5l.3-.2M101.2 52.4h.9M102 52.4l.3.2M102.4 52.5l.2.2M102.6 52.7l.2.3M102.7 53.1v.3M102.7 53.4l-.2.5M102.6 53.9l-2.1 2.1M100.5 56h2.2M104.1 52.7l.2-.2M104.3 52.5l.3-.2M104.6 52.4h.9M105.5 52.4l.3.2M105.8 52.5l.2.2M106 52.7l.2.3M106.2 53.1v.3M106.2 53.4l-.2.5M106 53.9l-2.1 2.1M103.9 56h2.2"/><path class="st19" d="M56.6 86h-7.2"/><path class="st11" d="M61.2 87.6 60 85.9M59.2 87.6V84M59.2 84h1.4M60.6 84l.3.2M60.9 84.2l.2.2M61.1 84.3l.2.3M61.2 84.7v.5M61.2 85.2l-.2.3M61.1 85.5l-.2.2M60.9 85.7l-.3.2M60.6 85.9h-1.4M62.8 85.7H64M64.5 87.6h-1.7M62.8 87.6V84M62.8 84h1.7M65.7 84l2.4 3.6M68.1 84l-2.4 3.6M69 84h2.1M70 87.6V84"/><path class="st7" d="m50.3 81.5.2-.2M50.4 81.3l.3-.2M50.8 81.2h.9M51.6 81.2l.3.2M52 81.3l.2.2M52.2 81.5l.2.3M52.3 81.9v.3M52.3 82.2l-.2.5M52.2 82.7l-2.1 2.1M50.1 84.8h2.2M53.5 81.2h2.2M55.8 81.2l-1.2 1.4M54.6 82.5h.5M55.1 82.5l.3.2M55.4 82.7l.2.2M55.6 82.9l.2.3M55.8 83.2v.9M55.8 84.1l-.2.3M55.6 84.4l-.2.2M55.4 84.6l-.3.2M55.1 84.8h-1M54 84.8l-.3-.2M53.7 84.6l-.2-.2"/><path class="st19" d="M78.2 50v-7.2"/><path class="st11" d="m76.3 61.6 3.6-1.2M79.9 60.4l-3.6-1.2M79.9 58h-3.6M76.3 58v-.9M76.3 57.2l.2-.5M76.4 56.6l.3-.3M76.8 56.3l.3-.2M77.1 56.1l.7-.2M77.8 56h.5M78.3 56l.7.2M79 56.1l.3.2M79.3 56.3l.3.3M79.7 56.6l.2.5M79.9 57.2v.9M79.9 54.4h-3.6M76.3 54.4v-.9M76.3 53.6l.2-.5M76.4 53l.3-.3M76.8 52.7l.3-.2M77.1 52.5l.7-.2M77.8 52.4h.5M78.3 52.4l.7.2M79 52.5l.3.2M79.3 52.7l.3.3M79.7 53l.2.5M79.9 53.6v.9"/><path class="st7" d="m73.8 49.1-.2-.2M73.6 48.9l-.2-.3M73.4 48.6v-.9M73.4 47.7l.2-.3M73.6 47.4l.2-.2M73.8 47.2l.3-.2M74.1 47h.3M74.5 47l.5.2M75 47.2l2.1 2.1M77 49.3v-2.2M74.6 44H77M73.3 44.8l2.6.9M75.8 45.7v-2.2"/><path class="st19" d="M56.6 64.4h-7.2"/><path class="st11" d="M59.2 66v-3.6M59.2 62.4h.9M60 62.4l.5.2M60.6 62.6l.3.3M60.9 62.9l.2.3M61.1 63.3l.2.7M61.2 63.9v.5M61.2 64.5l-.2.7M61.1 65.1l-.2.3M60.9 65.5l-.3.3M60.6 65.8l-.5.2M60 66h-.9M64.8 65.7l-.2.2M64.7 65.8l-.5.2M64.2 66h-.3M63.8 66l-.5-.2M63.3 65.8l-.3-.3M63 65.5l-.2-.3M62.8 65.1l-.2-.7M62.6 64.5V64M62.6 63.9l.2-.7M62.8 63.3l.2-.3M63 62.9l.3-.3M63.3 62.6l.5-.2M63.8 62.4h.3M64.2 62.4l.5.2M64.7 62.6l.2.2M66.4 66v-3.6M68.4 66l-1.5-2.1M68.4 62.4l-2.1 2.1"/><path class="st7" d="M51.8 59.6H54M54 59.6 52.8 61M52.8 60.9h.5M53.4 60.9l.3.2M53.7 61.1l.2.2M53.9 61.3l.2.3M54 61.6v.9M54 62.5l-.2.3M53.9 62.8l-.2.2M53.7 63l-.3.2M53.4 63.2h-1M52.3 63.2 52 63M52 63l-.2-.2"/><path class="st19" d="M56.6 71.6h-7.2"/><path class="st11" d="M60.9 73.2h-1.7M59.2 73.2v-3.6M61.9 72.2h1.7M61.6 73.2l1.2-3.6M62.8 69.6l1.2 3.6M64.7 69.6h2.1M65.7 73.2v-3.6"/><path class="st7" d="M53.7 68v2.4M52.8 66.6l-.9 2.6M52 69.2h2.2"/><path class="st19" d="M99.8 71.6h7.2"/><path class="st11" d="M85.9 69.6h.7M86.6 69.6l.3.2M86.9 69.8l.3.3M87.3 70.1l.2.7M87.5 70.8V72M87.5 72l-.2.7M87.3 72.7l-.3.3M86.9 73l-.3.2M86.6 73.2h-.7M85.9 73.2l-.3-.2M85.6 73l-.3-.3M85.2 72.7 85 72M85.1 72v-1.2M85.1 70.8l.2-.7M85.2 70.1l.3-.3M85.6 69.8l.3-.2M89 69.6v2.9M89 72.5l.2.3M89.2 72.9l.2.2M89.3 73l.3.2M89.7 73.2h.7M90.4 73.2l.3-.2M90.7 73l.2-.2M90.9 72.9l.2-.3M91.1 72.5v-2.9M92.3 69.6h2.1M93.3 73.2v-3.6M96.2 69.6h.3M96.5 69.6l.3.2M96.9 69.8l.2.2M97.1 69.9l.2.3M97.2 70.3l.2.7M97.4 71v.9M97.4 71.8l-.2.7M97.2 72.5l-.2.3M97.1 72.9l-.2.2M96.9 73l-.3.2M96.5 73.2h-.3M96.2 73.2l-.3-.2M95.9 73l-.2-.2M95.7 72.9l-.2-.3M95.5 72.5l-.2-.7M95.3 71.8v-.9M95.3 71l.2-.7M95.5 70.3l.2-.3M95.7 69.9l.2-.2M95.9 69.8l.3-.2"/><path class="st7" d="M104.3 66.8h-1.7M102.6 66.8l-.2 1.7M102.4 68.5l.2-.2M102.6 68.3l.3-.2M102.9 68.1h.9M103.8 68.1l.3.2M104.1 68.3l.2.2M104.3 68.5l.2.3M104.4 68.8v.9M104.4 69.7l-.2.3M104.3 70l-.2.2M104.1 70.2l-.3.2M103.8 70.4h-.9M102.9 70.4l-.3-.2M102.6 70.2l-.2-.2"/><path class="st19" d="M99.8 78.8h7.2"/><path class="st11" d="M85.9 76.8h.7M86.6 76.8l.3.2M86.9 77l.3.3M87.3 77.3l.2.7M87.5 78v1.2M87.5 79.2l-.2.7M87.3 79.9l-.3.3M86.9 80.2l-.3.2M86.6 80.4h-.7M85.9 80.4l-.3-.2M85.6 80.2l-.3-.3M85.2 79.9l-.2-.7M85.1 79.2V78M85.1 78l.2-.7M85.2 77.3l.3-.3M85.6 77l.3-.2M89 76.8v2.9M89 79.7l.2.3M89.2 80.1l.2.2M89.3 80.2l.3.2M89.7 80.4h.7M90.4 80.4l.3-.2M90.7 80.2l.2-.2M90.9 80.1l.2-.3M91.1 79.7v-2.9M92.3 76.8h2.1M93.3 80.4v-3.6M97.4 80.4h-2.1M96.4 80.4v-3.6M96.4 76.8l-.3.5M96 77.3l-.3.3M95.7 77.7l-.3.2"/><path class="st7" d="M104.1 74h-.7M103.4 74l-.3.2M103.1 74.1l-.2.2M102.9 74.3l-.3.5M102.6 74.8l-.2.7M102.4 75.5v1.4M102.4 76.9l.2.3M102.6 77.2l.2.2M102.7 77.4l.3.2M103.1 77.6h.7M103.8 77.6l.3-.2M104.1 77.4l.2-.2M104.3 77.2l.2-.3M104.4 76.9V76M104.4 76l-.2-.3M104.3 75.7l-.2-.2M104.1 75.5l-.3-.2M103.8 75.3h-.7M103.1 75.3l-.3.2M102.7 75.5l-.2.2M102.6 75.7l-.2.3"/><path class="st19" d="M99.8 86h7.2"/><path class="st11" d="M85.9 84h.7M86.6 84l.3.2M86.9 84.2l.3.3M87.3 84.5l.2.7M87.5 85.2v1.2M87.5 86.4l-.2.7M87.3 87.1l-.3.3M86.9 87.4l-.3.2M86.6 87.6h-.7M85.9 87.6l-.3-.2M85.6 87.4l-.3-.3M85.2 87.1l-.2-.7M85.1 86.4v-1.2M85.1 85.2l.2-.7M85.2 84.5l.3-.3M85.6 84.2l.3-.2M89 84v2.9M89 86.9l.2.3M89.2 87.3l.2.2M89.3 87.4l.3.2M89.7 87.6h.7M90.4 87.6l.3-.2M90.7 87.4l.2-.2M90.9 87.3l.2-.3M91.1 86.9V84M92.3 84h2.1M93.3 87.6V84M95.3 84.3l.2-.2M95.5 84.2l.3-.2M95.9 84h.9M96.7 84l.3.2M97.1 84.2l.2.2M97.2 84.3l.2.3M97.4 84.7v.3M97.4 85l-.2.5M97.2 85.5l-2.1 2.1M95.2 87.6h2.2"/><path class="st7" d="M102.2 81.2h2.4M104.6 81.2l-1.5 3.6"/><path class="st19" d="M99.8 93.2h7.2"/><path class="st11" d="M85.9 91.2h.7M86.6 91.2l.3.2M86.9 91.4l.3.3M87.3 91.7l.2.7M87.5 92.4v1.2M87.5 93.6l-.2.7M87.3 94.3l-.3.3M86.9 94.6l-.3.2M86.6 94.8h-.7M85.9 94.8l-.3-.2M85.6 94.6l-.3-.3M85.2 94.3l-.2-.7M85.1 93.6v-1.2M85.1 92.4l.2-.7M85.2 91.7l.3-.3M85.6 91.4l.3-.2M89 91.2v2.9M89 94.1l.2.3M89.2 94.5l.2.2M89.3 94.6l.3.2M89.7 94.8h.7M90.4 94.8l.3-.2M90.7 94.6l.2-.2M90.9 94.5l.2-.3M91.1 94.1v-2.9M92.3 91.2h2.1M93.3 94.8v-3.6M95.2 91.2h2.2M97.4 91.2l-1.2 1.4M96.2 92.6h.5M96.7 92.6l.3.2M97.1 92.7l.2.2M97.2 92.9l.2.3M97.4 93.3v.9M97.4 94.1l-.2.3M97.2 94.5l-.2.2M97.1 94.6l-.3.2M96.7 94.8h-1M95.7 94.8l-.3-.2M95.3 94.6l-.2-.2"/><path class="st7" d="m103.1 89.9-.3-.2M102.7 89.7l-.2-.2M102.6 89.6l-.2-.3M102.4 89.2V89M102.4 89.1l.2-.3M102.6 88.7l.2-.2M102.7 88.5l.3-.2M103.1 88.4h.7M103.8 88.4l.3.2M104.1 88.5l.2.2M104.3 88.7l.2.3M104.4 89.1v.2M104.4 89.2l-.2.3M104.3 89.6l-.2.2M104.1 89.7l-.3.2M103.8 89.9h-.7M103.1 89.9l-.3.2M102.7 90.1l-.2.2M102.6 90.3l-.2.3M102.4 90.6v.7M102.4 91.3l.2.3M102.6 91.6l.2.2M102.7 91.8l.3.2M103.1 92h.7M103.8 92l.3-.2M104.1 91.8l.2-.2M104.3 91.6l.2-.3M104.4 91.3v-.7M104.4 90.6l-.2-.3M104.3 90.3l-.2-.2M104.1 90.1l-.3-.2"/><path class="st19" d="M99.8 100.4h7.2"/><path class="st11" d="M85.9 98.4h.7M86.6 98.4l.3.2M86.9 98.6l.3.3M87.3 98.9l.2.7M87.5 99.6v1.2M87.5 100.8l-.2.7M87.3 101.5l-.3.3M86.9 101.8l-.3.2M86.6 102h-.7M85.9 102l-.3-.2M85.6 101.8l-.3-.3M85.2 101.5l-.2-.7M85.1 100.8v-1.2M85.1 99.6l.2-.7M85.2 98.9l.3-.3M85.6 98.6l.3-.2M89 98.4v2.9M89 101.3l.2.3M89.2 101.7l.2.2M89.3 101.8l.3.2M89.7 102h.7M90.4 102l.3-.2M90.7 101.8l.2-.2M90.9 101.7l.2-.3M91.1 101.3v-2.9M92.3 98.4h2.1M93.3 102v-3.6M97.1 99.6v2.4M96.2 98.2l-.9 2.6M95.3 100.8h2.2"/><path class="st7" d="M102.7 99.2h.7M103.4 99.2l.3-.2M103.8 99l.2-.2M103.9 98.8l.3-.5M104.3 98.3l.2-.7M104.4 97.6v-1.4M104.4 96.3l-.2-.3M104.3 95.9l-.2-.2M104.1 95.7l-.3-.2M103.8 95.6h-.7M103.1 95.6l-.3.2M102.7 95.7l-.2.2M102.6 95.9l-.2.3M102.4 96.3v.9M102.4 97.1l.2.3M102.6 97.5l.2.2M102.7 97.6l.3.2M103.1 97.8h.7M103.8 97.8l.3-.2M104.1 97.6l.2-.2M104.3 97.5l.2-.3"/><path class="st11" d="M85.6 44.4v-3.6M85.6 40.8h.9M86.5 40.8l.5.2M87 41l.3.3M87.3 41.3l.2.3M87.5 41.7l.2.7M87.7 42.3v.5M87.7 42.9l-.2.7M87.5 43.5l-.2.3M87.3 43.9l-.3.3M87 44.2l-.5.2M86.5 44.4h-.9M89.2 44.4v-3.6M89.2 40.8l1.2 2.6M90.4 43.4l1.2-2.6M91.6 40.8v3.6M95.2 44.4h-2.1M94.2 44.4v-3.6M94.2 40.8l-.3.5M93.8 41.3l-.3.3M93.5 41.7l-.3.2M96.4 40.8h2.2M98.6 40.8l-1.2 1.4M97.4 42.2h.5M97.9 42.2l.3.2M98.3 42.3l.2.2M98.5 42.5l.2.3M98.6 42.9v.9M98.6 43.7l-.2.3M98.5 44.1l-.2.2M98.3 44.2l-.3.2M97.9 44.4h-1M96.9 44.4l-.3-.2M96.6 44.2l-.2-.2M100 43.4h1.7M99.7 44.4l1.2-3.6M100.9 40.8l1.2 3.6"/><path class="st9" d="M153.8 176v-7.2"/><path class="st19" d="M153.8 172.4h7.2"/><path class="st9" d="M161 176v-7.2l-7.2 3.6 7.2 3.6Z"/><path class="st19" d="m148.8 174.5-4.3 4.3h2.2-2.2v-2.2M152.4 174.5l-4.3 4.3h2.2-2.2v-2.2M153.8 172.4h-7.2M161 172.4h7.2"/><path class="st9" d="M153.8 165.2V158"/><path class="st19" d="M153.8 161.6h7.2"/><path class="st9" d="M161 165.2V158l-7.2 3.6 7.2 3.6Z"/><path class="st19" d="m148.8 163.7-4.3 4.3h2.2-2.2v-2.2M152.4 163.7l-4.3 4.3h2.2-2.2v-2.2M153.8 161.6h-7.2M161 161.6h7.2M76.1 28.4l2.2-3.6M78.2 32v-7.2M78.2 24.8l2.2 3.6M78.2 32h0"/><path class="st11" d="M73.6 17.8h2.7M75 19.2v-2.7M79.8 15.6h-1.7M78 15.6l-.2 1.7M77.9 17.3l.2-.2M78 17.1l.3-.2M78.4 17h.9M79.2 17l.3.2M79.6 17.1l.2.2M79.8 17.3l.2.3M79.9 17.7v.9M79.9 18.5l-.2.3M79.8 18.9l-.2.2M79.6 19l-.3.2M79.2 19.2h-.9M78.4 19.2l-.3-.2M78 19l-.2-.2M81 15.6l1.2 3.6M82.2 19.2l1.2-3.6"/><path class="st9" d="M153.8 100.4v-7.2"/><path class="st19" d="M153.8 96.8h7.2"/><path class="st9" d="M161 100.4v-7.2l-7.2 3.6 7.2 3.6Z"/><path class="st19" d="m148.8 98.9-4.3 4.3h2.2-2.2V101M152.4 98.9l-4.3 4.3h2.2-2.2V101M153.8 96.8h-7.2M161 96.8h7.2"/><path class="st9" d="M153.8 111.2V104"/><path class="st19" d="M153.8 107.6h7.2"/><path class="st9" d="M161 111.2V104l-7.2 3.6 7.2 3.6Z"/><path class="st19" d="m148.8 109.7-4.3 4.3h2.2-2.2v-2.2M152.4 109.7l-4.3 4.3h2.2-2.2v-2.2M153.8 107.6h-7.2M161 107.6h7.2M78.2 201.2v3.6h3.6l-3.6 3.6-3.6-3.6h3.6M78.2 201.2h0"/><path class="st11" d="m75.5 213.8-.3-.2M75.1 213.6h-.5M74.6 213.6l-.5.2M74.1 213.8l-.3.3M73.8 214.1l-.2.3M73.6 214.5l-.2.7M73.4 215.1v.5M73.4 215.7l.2.7M73.6 216.3l.2.3M73.8 216.7l.3.3M74.1 217l.5.2M74.6 217.2h.3M75 217.2l.5-.2M75.5 217l.2-.2M75.6 216.9v-1.2M75.6 215.7h-.7M77.2 217.2v-3.6M77.2 213.6l2.1 3.6M79.2 217.2v-3.6M81 217.2v-3.6M81 213.6h.9M81.8 213.6l.5.2M82.3 213.8l.3.3M82.7 214.1l.2.3M82.8 214.5l.2.7M83 215.1v.5M83 215.7l-.2.7M82.8 216.3l-.2.3M82.7 216.7l-.3.3M82.3 217l-.5.2M81.8 217.2h-.9"/><path style="stroke-width:.6px;stroke:#840000;fill:none;stroke-linecap:round;stroke-linejoin:round" d="M36.5 88.1h4.3v10.1h-4.3z"/><path class="st19" d="M38.6 98.2v2.2M38.6 88.1v-2.2"/><path class="st11" d="M30.7 91.2H29M29 91.2l-.2 1.7M28.8 92.9l.2-.2M29 92.7l.3-.2M29.3 92.6h.9M30.2 92.6l.3.2M30.5 92.7l.2.2M30.7 92.9l.2.3M30.9 93.3v.9M30.9 94.1l-.2.3M30.7 94.5l-.2.2M30.5 94.6l-.3.2M30.2 94.8h-.9M29.3 94.8l-.3-.2M29 94.6l-.2-.2M32.4 94.8v-3.6M32.8 93.4l1 1.4M33.8 92.4l-1.4 1.4"/><path class="st17" d="M30.7 70.1H29M29 70.1v-3.6M31.7 69.1h1.7M31.4 70.1l1.2-3.6M32.6 66.5l1.2 3.6M34.4 66.5h2.1M35.5 70.1v-3.6M39.8 69.8l-.2.2M39.6 69.9l-.5.2M39.1 70.1h-.3M38.7 70.1l-.5-.2M38.2 69.9l-.3-.3M37.9 69.6l-.2-.3M37.7 69.2l-.2-.7M37.5 68.6v-.5M37.5 68l.2-.7M37.7 67.4l.2-.3M37.9 67l.3-.3M38.2 66.7l.5-.2M38.7 66.5h.3M39.1 66.5l.5.2M39.6 66.7l.2.2M41.3 70.1v-3.6M41.3 68.2h2.1M43.4 70.1v-3.6M31 62.6l-.2.2M30.8 62.7l-.5.2M30.3 62.9H30M30 62.9l-.5-.2M29.5 62.7l-.3-.3M29.1 62.4l-.2-.3M29 62l-.2-.7M28.8 61.4v-.5M28.8 60.8l.2-.7M29 60.2l.2-.3M29.1 59.8l.3-.3M29.5 59.5l.5-.2M30 59.3h.3M30.3 59.3l.5.2M30.8 59.5l.2.2M34.3 62.9h-1.7M32.6 62.9v-3.6M36.2 59.3h.7M36.8 59.3l.3.2M37.2 59.5l.3.3M37.5 59.8l.2.7M37.7 60.5v1.2M37.7 61.7l-.2.7M37.5 62.4l-.3.3M37.2 62.7l-.3.2M36.8 62.9h-.7M36.2 62.9l-.3-.2M35.8 62.7l-.3-.3M35.5 62.4l-.2-.7M35.3 61.7v-1.2M35.3 60.5l.2-.7M35.5 59.8l.3-.3M35.8 59.5l.3-.2M41.3 62.6l-.2.2M41.1 62.7l-.5.2M40.6 62.9h-.3M40.3 62.9l-.5-.2M39.8 62.7l-.3-.3M39.4 62.4l-.2-.3M39.2 62l-.2-.7M39.1 61.4v-.5M39.1 60.8l.2-.7M39.2 60.2l.2-.3M39.4 59.8l.3-.3M39.8 59.5l.5-.2M40.3 59.3h.3M40.6 59.3l.5.2M41.1 59.5l.2.2M42.8 62.9v-3.6M44.9 62.9l-1.5-2.1M44.9 59.3l-2.1 2.1M29 55.7v-3.6M29 52.1h.9M29.8 52.1l.5.2M30.3 52.3l.3.3M30.7 52.6l.2.3M30.8 53l.2.7M31 53.6v.5M31 54.2l-.2.7M30.8 54.8l-.2.3M30.7 55.2l-.3.3M30.3 55.5l-.5.2M29.8 55.7h-.9M32.4 54.7h1.7M32 55.7l1.2-3.6M33.2 52.1l1.2 3.6M35.1 52.1h2.1M36.2 55.7v-3.6M38.2 54.7h1.7M37.9 55.7l1.2-3.6M39.1 52.1l1.2 3.6"/><path class="st15" d="M51.9 4.8V1.2M51.9 1.2h.9M52.7 1.2l.5.2M53.2 1.4l.3.3M53.6 1.7l.2.3M53.7 2l.2.7M53.9 2.7v.5M53.9 3.2l-.2.7M53.7 3.9l-.2.3M53.6 4.3l-.3.3M53.2 4.6l-.5.2M52.7 4.8h-.9M56.8 4.6l-.3.2M56.5 4.8h-.7M55.8 4.8l-.3-.2M55.5 4.6l-.2-.3M55.3 4.3V2.9M55.3 2.9l.2-.3M55.5 2.6l.3-.2M55.8 2.4h.7M56.5 2.4l.3.2M56.8 2.6l.2.3M57 2.9v.3M57 3.2l-1.7.3M60.1 4.8V1.2M60.1 4.6l-.3.2M59.7 4.8H59M59.1 4.8l-.3-.2M58.7 4.6l-.2-.2M58.5 4.4l-.2-.3M58.4 4.1v-1M58.4 3.1l.2-.3M58.5 2.7l.2-.2M58.7 2.6l.3-.2M59.1 2.4h.7M59.7 2.4l.3.2M61.8 4.8V2.4M61.8 1.2l-.2.2M61.6 1.4l.2.2M61.8 1.5l.2-.2M62 1.4l-.2-.2M61.8 1.2v.3M65.1 4.6l-.3.2M64.7 4.8H64M64 4.8l-.3-.2M63.7 4.6l-.2-.2M63.5 4.4l-.2-.3M63.3 4.1v-1M63.3 3.1l.2-.3M63.5 2.7l.2-.2M63.7 2.6l.3-.2M64 2.4h.7M64.7 2.4l.3.2M68.1 4.8V2.9M68.1 2.9l-.2-.3M68 2.6l-.3-.2M67.6 2.4h-.7M66.9 2.4l-.3.2M68.1 4.6l-.3.2M67.8 4.8h-.9M66.9 4.8l-.3-.2M66.6 4.6l-.2-.3M66.4 4.3V4M66.4 3.9l.2-.3M66.6 3.6l.3-.2M66.9 3.4h.9M67.8 3.4l.3-.2M69.3 2.4h1.4M69.9 1.2v3.1M69.9 4.3l.2.3M70 4.6l.3.2M70.4 4.8h.3M73.3 4.6l-.3.2M72.9 4.8h-.7M72.3 4.8l-.3-.2M71.9 4.6l-.2-.3M71.7 4.3V2.9M71.7 2.9l.2-.3M71.9 2.6l.3-.2M72.3 2.4h.7M72.9 2.4l.3.2M73.3 2.6l.2.3M73.5 2.9v.3M73.5 3.2l-1.7.3M76.5 4.8V1.2M76.5 4.6l-.3.2M76.2 4.8h-.7M75.5 4.8l-.3-.2M75.2 4.6l-.2-.2M75 4.4l-.2-.3M74.8 4.1v-1M74.8 3.1l.2-.3M75 2.7l.2-.2M75.2 2.6l.3-.2M75.5 2.4h.7M76.2 2.4l.3.2M81 3.4h2.7M82.4 4.8V2.1M87.2 1.2h-1.7M85.5 1.2l-.2 1.7M85.3 2.9l.2-.2M85.5 2.7l.3-.2M85.8 2.6h.9M86.7 2.6l.3.2M87 2.7l.2.2M87.2 2.9l.2.3M87.3 3.2v.9M87.3 4.1l-.2.3M87.2 4.4l-.2.2M87 4.6l-.3.2M86.7 4.8h-.9M85.8 4.8l-.3-.2M85.5 4.6l-.2-.2M88.4 1.2l1.2 3.6M89.6 4.8l1.2-3.6M94.7 2.4V6M94.7 2.6l.3-.2M95.1 2.4h.7M95.7 2.4l.3.2M96.1 2.6l.2.2M96.3 2.7l.2.3M96.4 3.1v1M96.4 4.1l-.2.3M96.3 4.4l-.2.2M96.1 4.6l-.3.2M95.7 4.8H95M95.1 4.8l-.3-.2M98.5 4.8l-.3-.2M98.1 4.6l-.2-.2M98 4.4l-.2-.3M97.8 4.1v-1M97.8 3.1l.2-.3M98 2.7l.2-.2M98.1 2.6l.3-.2M98.5 2.4h.5M99 2.4l.3.2M99.3 2.6l.2.2M99.5 2.7l.2.3M99.7 3.1v1M99.7 4.1l-.2.3M99.5 4.4l-.2.2M99.3 4.6l-.3.2M99 4.8h-.5M100.9 2.4l.7 2.4M101.6 4.8l.7-1.7M102.3 3.1l.7 1.7M102.9 4.8l.7-2.4M106.4 4.6l-.3.2M106 4.8h-.7M105.3 4.8l-.3-.2M105 4.6l-.2-.3M104.8 4.3V2.9M104.8 2.9l.2-.3M105 2.6l.3-.2M105.3 2.4h.7M106 2.4l.3.2M106.4 2.6l.2.3M106.5 2.9v.3M106.5 3.2l-1.7.3M108.1 4.8V2.4M108.1 3.1l.2-.3M108.3 2.7l.2-.2M108.4 2.6l.3-.2M108.8 2.4h.3M110.5 4.6v.2M110.5 4.8l-.2.3M110.3 5.1l-.2.2M34.7 8.2v2.4M34.7 8.5l.2-.2M34.9 8.4l.3-.2M35.2 8.2h.5M35.7 8.2l.3.2M36.1 8.4l.2.3M36.3 8.7v1.9M38.5 10.6l-.3-.2M38.1 10.4l-.2-.2M38 10.2l-.2-.3M37.8 9.9v-1M37.8 8.9l.2-.3M38 8.5l.2-.2M38.1 8.4l.3-.2M38.5 8.2h.5M39 8.2l.3.2M39.3 8.4l.2.2M39.5 8.5l.2.3M39.7 8.9v1M39.7 9.9l-.2.3M39.5 10.2l-.2.2M39.3 10.4l-.3.2M39 10.6h-.5M40.7 8.2h1.4M41.2 7v3.1M41.2 10.1l.2.3M41.4 10.4l.3.2M41.7 10.6h.3M45.5 8.2h1.4M46 10.6V7.5M46 7.5l.2-.3M46.2 7.2l.3-.2M46.5 7h.3M48.1 10.6V8.2M48.1 8.9l.2-.3M48.3 8.5l.2-.2M48.4 8.4l.3-.2M48.8 8.2h.3M50.8 10.6l-.3-.2M50.5 10.4l-.2-.2M50.3 10.2l-.2-.3M50.1 9.9v-1M50.1 8.9l.2-.3M50.3 8.5l.2-.2M50.5 8.4l.3-.2M50.8 8.2h.5M51.3 8.2l.3.2M51.7 8.4l.2.2M51.9 8.5l.2.3M52 8.9v1M52 9.9l-.2.3M51.9 10.2l-.2.2M51.7 10.4l-.3.2M51.3 10.6h-.5M53.6 10.6V8.2M53.6 8.5l.2-.2M53.7 8.4l.3-.2M54.1 8.2h.5M54.6 8.2l.3.2M54.9 8.4l.2.3M55.1 8.7v1.9M55.1 8.7l.2-.3M55.3 8.4l.3-.2M55.6 8.2h.5M56.1 8.2l.3.2M56.5 8.4l.2.3M56.7 8.7v1.9M62.7 10.6V8.7M62.7 8.7l-.2-.3M62.5 8.4l-.3-.2M62.1 8.2h-.7M61.5 8.2l-.3.2M62.7 10.4l-.3.2M62.3 10.6h-.9M61.5 10.6l-.3-.2M61.1 10.4l-.2-.3M60.9 10.1v-.3M60.9 9.7l.2-.3M61.1 9.4l.3-.2M61.5 9.2h.9M62.3 9.2l.3-.2M67.1 9.2h2.7M68.5 10.6V7.9M73.3 7h-1.7M71.6 7l-.2 1.7M71.4 8.7l.2-.2M71.6 8.5l.3-.2M71.9 8.4h.9M72.8 8.4l.3.2M73.1 8.5l.2.2M73.3 8.7l.2.3M73.5 9v.9M73.5 9.9l-.2.3M73.3 10.2l-.2.2M73.1 10.4l-.3.2M72.8 10.6h-.9M71.9 10.6l-.3-.2M71.6 10.4l-.2-.2M74.5 7l1.2 3.6M75.7 10.6 76.9 7M80.8 8.2v3.6M80.8 8.4l.3-.2M81.2 8.2h.7M81.9 8.2l.3.2M82.2 8.4l.2.2M82.4 8.5l.2.3M82.5 8.9v1M82.5 9.9l-.2.3M82.4 10.2l-.2.2M82.2 10.4l-.3.2M81.9 10.6h-.7M81.2 10.6l-.3-.2M84.1 10.6V8.2M84.1 7l-.2.2M83.9 7.2l.2.2M84.1 7.3l.2-.2M84.3 7.2l-.2-.2M84.1 7v.3M85.8 8.2v2.4M85.8 8.5l.2-.2M86 8.4l.3-.2M86.3 8.2h.5M86.8 8.2l.3.2M87.2 8.4l.2.3M87.3 8.7v1.9M92.3 10.6l-.3-.2M92 10.4l-.2-.2M91.8 10.2l-.2-.3M91.6 9.9v-1M91.6 8.9l.2-.3M91.8 8.5l.2-.2M92 8.4l.3-.2M92.3 8.2h.5M92.8 8.2l.3.2M93.2 8.4l.2.2M93.3 8.5l.2.3M93.5 8.9v1M93.5 9.9l-.2.3M93.3 10.2l-.2.2M93.2 10.4l-.3.2M92.8 10.6h-.5M95.1 8.2v2.4M95.1 8.5l.2-.2M95.2 8.4l.3-.2M95.6 8.2h.5M96.1 8.2l.3.2M96.4 8.4l.2.3M96.6 8.7v1.9M100.5 8.2h1.4M101.1 7v3.1M101.1 10.1l.2.3M101.2 10.4l.3.2M101.6 10.6h.3M103.1 10.6V7M104.7 10.6V8.7M104.7 8.7l-.2-.3M104.5 8.4l-.3-.2M104.1 8.2h-.5M103.6 8.2l-.3.2M103.3 8.4l-.2.2M107.7 10.4l-.3.2M107.4 10.6h-.7M106.7 10.6l-.3-.2M106.4 10.4l-.2-.3M106.2 10.1V8.7M106.2 8.7l.2-.3M106.4 8.4l.3-.2M106.7 8.2h.7M107.4 8.2l.3.2M107.7 8.4l.2.3M107.9 8.7V9M107.9 9l-1.7.3M112.2 10.6V7M112.2 8.4l.3-.2M112.5 8.2h.7M113.2 8.2l.3.2M113.6 8.4l.2.2M113.7 8.5l.2.3M113.9 8.9v1M113.9 9.9l-.2.3M113.7 10.2l-.2.2M113.6 10.4l-.3.2M113.2 10.6h-.7M112.5 10.6l-.3-.2M116 10.6l-.3-.2M115.6 10.4l-.2-.2M115.5 10.2l-.2-.3M115.3 9.9v-1M115.3 8.9l.2-.3M115.5 8.5l.2-.2M115.6 8.4l.3-.2M116 8.2h.5M116.5 8.2l.3.2M116.8 8.4l.2.2M117 8.5l.2.3M117.2 8.9v1M117.2 9.9l-.2.3M117 10.2l-.2.2M116.8 10.4l-.3.2M116.5 10.6h-.5M120.3 10.6V8.7M120.3 8.7l-.2-.3M120.1 8.4l-.3-.2M119.7 8.2h-.7M119.1 8.2l-.3.2M120.3 10.4l-.3.2M119.9 10.6h-.9M119.1 10.6l-.3-.2M118.7 10.4l-.2-.3M118.5 10.1v-.3M118.5 9.7l.2-.3M118.7 9.4l.3-.2M119.1 9.2h.9M119.9 9.2l.3-.2M122 10.6V8.2M122 8.9l.2-.3M122.1 8.5l.2-.2M122.3 8.4l.3-.2M122.7 8.2h.3M125.7 10.6V7M125.7 10.4l-.3.2M125.4 10.6h-.7M124.7 10.6l-.3-.2M124.4 10.4l-.2-.2M124.2 10.2l-.2-.3M124 9.9v-1M124 8.9l.2-.3M124.2 8.5l.2-.2M124.4 8.4l.3-.2M124.7 8.2h.7M125.4 8.2l.3.2M127.5 10.2l.2.2M127.6 10.4l-.2.2M127.5 10.6l-.2-.2M127.3 10.4l.2-.2M127.5 10.2v.3"/><path class="st10" d="M78.2 32v10.8M6.2 32h72M107 78.8h14.4M128.6 75.2v18M117.8 71.6H107M128.6 93.2H107M125 86V64.4M107 86h18M78.2 32h90M168.2 32v10.8M121.4 78.8V53.6M125 64.4h21.6M121.4 53.6h25.2M132.2 86h14.4M146.6 75.2h-18M146.6 42.8h-28.8M117.8 42.8v28.8M27.8 71.6h21.6M27.8 64.4h21.6M27.8 57.2h21.6M38.6 86h10.8M168.2 64.4v10.8M135.8 96.8h10.8M168.2 53.6v10.8M168.2 42.8v10.8M168.2 150.8v10.8M168.2 140v10.8M168.2 194v10.8M168.2 183.2V194M143 136.4v3.6M135.8 161.6h10.8M139.4 150.8h7.2M135.8 150.8v10.8M143 140h3.6M132.2 158v14.4M168.2 161.6v10.8M168.2 172.4v10.8M125 172.4V194M121.4 179.6v25.2M132.2 172.4h14.4M125 194h21.6M128.6 183.2h18M121.4 204.8h25.2M107 172.4h18M128.6 165.2v18M107 165.2h21.6M107 179.6h14.4M139.4 143.6v7.2M107 158h25.2M107 143.6h32.4M107 150.8h28.8M107 136.4h36M168.2 96.8v10.8M168.2 107.6v10.8M168.2 86v10.8M168.2 75.2V86M168.2 129.2v-10.8M168.2 129.2V140M143 122v-3.6M143 118.4h3.6M49.4 201.2h28.8M49.4 179.6v21.6M38.6 100.4v100.8M38.6 201.2h10.8M107 100.4h25.2M107 114.8h32.4M107 122h36M107 129.2h39.6M107 107.6h28.8M139.4 107.6h7.2M132.2 100.4V86M135.8 96.8v10.8M139.4 107.6v7.2"/><path class="st6" d="m105.3 55.4 3.5 3.5M108.7 55.4l-3.5 3.5"/><path class="st11" d="m3.5 59-.3-.2M3.1 58.8h-.5M2.6 58.8l-.5.2M2.1 59l-.3.3M1.8 59.3l-.2.3M1.6 59.7l-.2.7M1.4 60.3v.5M1.4 60.9l.2.7M1.6 61.5l.2.3M1.8 61.9l.3.3M2.1 62.2l.5.2M2.6 62.4h.3M3 62.4l.5-.2M3.5 62.2l.2-.2M3.6 62.1v-1.2M3.6 60.9h-.7M5.2 62.4v-3.6M5.2 58.8l2.1 3.6M7.2 62.4v-3.6M9 62.4v-3.6M9 58.8h.9M9.8 58.8l.5.2M10.3 59l.3.3M10.7 59.3l.2.3M10.8 59.7l.2.7M11 60.3v.5M11 60.9l-.2.7M10.8 61.5l-.2.3M10.7 61.9l-.3.3M10.3 62.2l-.5.2M9.8 62.4h-.9"/><path class="st19" d="M6.2 46.4h0"/><path class="st11" d="M15.3 40.8h.3M15.6 40.8l.3.2M16 41l.2.2M16.1 41.2l.2.3M16.3 41.5l.2.7M16.5 42.2v.9M16.5 43l-.2.7M16.3 43.7l-.2.3M16.1 44.1l-.2.2M16 44.2l-.3.2M15.6 44.4h-.3M15.3 44.4l-.3-.2M14.9 44.2l-.2-.2M14.8 44.1l-.2-.3M14.6 43.7l-.2-.7M14.4 43v-.9M14.4 42.2l.2-.7M14.6 41.5l.2-.3M14.8 41.2l.2-.2M14.9 41l.3-.2M18 44.1l.2.2M18.2 44.2l-.2.2M18 44.4l-.2-.2M17.8 44.2l.2-.2M18 44.1v.3M21.6 44.4h-2.1M20.6 44.4v-3.6M20.6 40.8l-.3.5M20.2 41.3l-.3.3M19.9 41.7l-.3.2M23.2 42v3.6M24.9 43.9l.2.3M25 44.2l.3.2M23.2 43.9l.2.3M23.3 44.2l.3.2M23.7 44.4h.7M24.4 44.4l.3-.2M24.7 44.2l.2-.3M24.9 43.9V42M26.4 42h1.4M26.9 44.4v-3.1M26.9 41.3l.2-.3M27.1 41l.3-.2M27.4 40.8h.3"/><path class="st19" d="M6.2 37.7v-5.8M6.2 40.6v5.8"/><path class="st11" d="m75.5 213.8-.3-.2M75.1 213.6h-.5M74.6 213.6l-.5.2M74.1 213.8l-.3.3M73.8 214.1l-.2.3M73.6 214.5l-.2.7M73.4 215.1v.5M73.4 215.7l.2.7M73.6 216.3l.2.3M73.8 216.7l.3.3M74.1 217l.5.2M74.6 217.2h.3M75 217.2l.5-.2M75.5 217l.2-.2M75.6 216.9v-1.2M75.6 215.7h-.7M77.2 217.2v-3.6M77.2 213.6l2.1 3.6M79.2 217.2v-3.6M81 217.2v-3.6M81 213.6h.9M81.8 213.6l.5.2M82.3 213.8l.3.3M82.7 214.1l.2.3M82.8 214.5l.2.7M83 215.1v.5M83 215.7l-.2.7M82.8 216.3l-.2.3M82.7 216.7l-.3.3M82.3 217l-.5.2M81.8 217.2h-.9"/><path class="st19" d="M78.2 201.2h0"/><path class="st11" d="M85.6 44.4v-3.6M85.6 40.8h.9M86.5 40.8l.5.2M87 41l.3.3M87.3 41.3l.2.3M87.5 41.7l.2.7M87.7 42.3v.5M87.7 42.9l-.2.7M87.5 43.5l-.2.3M87.3 43.9l-.3.3M87 44.2l-.5.2M86.5 44.4h-.9M89.2 44.4v-3.6M89.2 40.8l1.2 2.6M90.4 43.4l1.2-2.6M91.6 40.8v3.6M95.2 44.4h-2.1M94.2 44.4v-3.6M94.2 40.8l-.3.5M93.8 41.3l-.3.3M93.5 41.7l-.3.2M96.4 40.8h2.2M98.6 40.8l-1.2 1.4M97.4 42.2h.5M97.9 42.2l.3.2M98.3 42.3l.2.2M98.5 42.5l.2.3M98.6 42.9v.9M98.6 43.7l-.2.3M98.5 44.1l-.2.2M98.3 44.2l-.3.2M97.9 44.4h-1M96.9 44.4l-.3-.2M96.6 44.2l-.2-.2M100 43.4h1.7M99.7 44.4l1.2-3.6M100.9 40.8l1.2 3.6"/><path class="st19" d="M78.2 194v7.2"/><path class="st11" d="m76.4 189.5-.2.3M76.3 189.8v.5M76.3 190.3l.2.5M76.4 190.9l.3.3M76.8 191.2l.3.2M77.1 191.4l.7.2M77.8 191.5h.5M78.3 191.5l.7-.2M79 191.4l.3-.2M79.3 191.2l.3-.3M79.7 190.9l.2-.5M79.9 190.3v-.3M79.9 190l-.2-.5M79.7 189.5l-.2-.2M79.5 189.3h-1.2M78.3 189.3v.7M79.9 187.8h-3.6M76.3 187.8l3.6-2.1M79.9 185.7h-3.6M79.9 184h-3.6M76.3 184v-.9M76.3 183.1l.2-.5M76.4 182.6l.3-.3M76.8 182.3l.3-.2M77.1 182.1l.7-.2M77.8 181.9h.5M78.3 181.9l.7.2M79 182.1l.3.2M79.3 182.3l.3.3M79.7 182.6l.2.5M79.9 183.1v.9"/><path class="st7" d="M77 196.5v2.1M77 197.6h-3.6M73.4 197.6l.5.3M73.9 197.9l.3.3M74.3 198.2l.2.3"/><path class="st19" d="M99.8 107.6h7.2"/><path class="st11" d="M85.9 105.6h.7M86.6 105.6l.3.2M86.9 105.8l.3.3M87.3 106.1l.2.7M87.5 106.8v1.2M87.5 108l-.2.7M87.3 108.7l-.3.3M86.9 109l-.3.2M86.6 109.2h-.7M85.9 109.2l-.3-.2M85.6 109l-.3-.3M85.2 108.7l-.2-.7M85.1 108v-1.2M85.1 106.8l.2-.7M85.2 106.1l.3-.3M85.6 105.8l.3-.2M89 105.6v2.9M89 108.5l.2.3M89.2 108.9l.2.2M89.3 109l.3.2M89.7 109.2h.7M90.4 109.2l.3-.2M90.7 109l.2-.2M90.9 108.9l.2-.3M91.1 108.5v-2.9M92.3 105.6h2.1M93.3 109.2v-3.6M97.2 105.6h-1.7M95.5 105.6l-.2 1.7M95.3 107.3l.2-.2M95.5 107.1l.3-.2M95.9 107h.9M96.7 107l.3.2M97.1 107.1l.2.2M97.2 107.3l.2.3M97.4 107.7v.9M97.4 108.5l-.2.3M97.2 108.9l-.2.2M97.1 109l-.3.2M96.7 109.2h-.9M95.9 109.2l-.3-.2M95.5 109l-.2-.2"/><path class="st7" d="M102.7 106.4h-2.1M101.7 106.4v-3.6M101.7 102.8l-.3.5M101.4 103.3l-.3.3M101 103.6l-.3.2M105 102.8h.3M105.3 102.8l.3.2M105.6 102.9l.2.2M105.8 103.1l.2.3M106 103.5l.2.7M106.2 104.1v.9M106.2 105l-.2.7M106 105.7l-.2.3M105.8 106l-.2.2M105.6 106.2l-.3.2M105.3 106.4h-.3M105 106.4l-.3-.2M104.6 106.2l-.2-.2M104.4 106l-.2-.3M104.3 105.7l-.2-.7M104.1 105v-.9M104.1 104.1l.2-.7M104.3 103.5l.2-.3M104.4 103.1l.2-.2M104.6 102.9l.3-.2"/><path class="st19" d="M99.8 114.8h7.2"/><path class="st11" d="M85.9 112.8h.7M86.6 112.8l.3.2M86.9 113l.3.3M87.3 113.3l.2.7M87.5 114v1.2M87.5 115.2l-.2.7M87.3 115.9l-.3.3M86.9 116.2l-.3.2M86.6 116.4h-.7M85.9 116.4l-.3-.2M85.6 116.2l-.3-.3M85.2 115.9l-.2-.7M85.1 115.2V114M85.1 114l.2-.7M85.2 113.3l.3-.3M85.6 113l.3-.2M89 112.8v2.9M89 115.7l.2.3M89.2 116.1l.2.2M89.3 116.2l.3.2M89.7 116.4h.7M90.4 116.4l.3-.2M90.7 116.2l.2-.2M90.9 116.1l.2-.3M91.1 115.7v-2.9M92.3 112.8h2.1M93.3 116.4v-3.6M97.1 112.8h-.7M96.4 112.8l-.3.2M96 113l-.2.2M95.9 113.1l-.3.5M95.5 113.7l-.2.7M95.3 114.3v1.4M95.3 115.7l.2.3M95.5 116.1l.2.2M95.7 116.2l.3.2M96 116.4h.7M96.7 116.4l.3-.2M97.1 116.2l.2-.2M97.2 116.1l.2-.3M97.4 115.7v-.9M97.4 114.9l-.2-.3M97.2 114.5l-.2-.2M97.1 114.3l-.3-.2M96.7 114.2H96M96 114.2l-.3.2M95.7 114.3l-.2.2M95.5 114.5l-.2.3"/><path class="st7" d="M102.7 113.6h-2.1M101.7 113.6V110M101.7 110l-.3.5M101.4 110.5l-.3.3M101 110.8l-.3.2M106.2 113.6h-2.1M105.1 113.6V110M105.1 110l-.3.5M104.8 110.5l-.3.3M104.4 110.8l-.3.2"/><path class="st19" d="M99.8 122h7.2"/><path class="st11" d="M85.9 120h.7M86.6 120l.3.2M86.9 120.2l.3.3M87.3 120.5l.2.7M87.5 121.2v1.2M87.5 122.4l-.2.7M87.3 123.1l-.3.3M86.9 123.4l-.3.2M86.6 123.6h-.7M85.9 123.6l-.3-.2M85.6 123.4l-.3-.3M85.2 123.1l-.2-.7M85.1 122.4v-1.2M85.1 121.2l.2-.7M85.2 120.5l.3-.3M85.6 120.2l.3-.2M89 120v2.9M89 122.9l.2.3M89.2 123.3l.2.2M89.3 123.4l.3.2M89.7 123.6h.7M90.4 123.6l.3-.2M90.7 123.4l.2-.2M90.9 123.3l.2-.3M91.1 122.9V120M92.3 120h2.1M93.3 123.6V120M95.2 120h2.4M97.6 120l-1.5 3.6"/><path class="st7" d="M102.7 120.8h-2.1M101.7 120.8v-3.6M101.7 117.2l-.3.5M101.4 117.7l-.3.3M101 118l-.3.2M104.1 117.5l.2-.2M104.3 117.3l.3-.2M104.6 117.2h.9M105.5 117.2l.3.2M105.8 117.3l.2.2M106 117.5l.2.3M106.2 117.9v.3M106.2 118.2l-.2.5M106 118.7l-2.1 2.1M103.9 120.8h2.2"/><path class="st19" d="M99.8 129.2h7.2"/><path class="st11" d="M85.9 127.2h.7M86.6 127.2l.3.2M86.9 127.4l.3.3M87.3 127.7l.2.7M87.5 128.4v1.2M87.5 129.6l-.2.7M87.3 130.3l-.3.3M86.9 130.6l-.3.2M86.6 130.8h-.7M85.9 130.8l-.3-.2M85.6 130.6l-.3-.3M85.2 130.3l-.2-.7M85.1 129.6v-1.2M85.1 128.4l.2-.7M85.2 127.7l.3-.3M85.6 127.4l.3-.2M89 127.2v2.9M89 130.1l.2.3M89.2 130.5l.2.2M89.3 130.6l.3.2M89.7 130.8h.7M90.4 130.8l.3-.2M90.7 130.6l.2-.2M90.9 130.5l.2-.3M91.1 130.1v-2.9M92.3 127.2h2.1M93.3 130.8v-3.6M96 128.7l-.3-.2M95.7 128.6l-.2-.2M95.5 128.4l-.2-.3M95.3 128.1v-.2M95.3 127.9l.2-.3M95.5 127.5l.2-.2M95.7 127.4l.3-.2M96 127.2h.7M96.7 127.2l.3.2M97.1 127.4l.2.2M97.2 127.5l.2.3M97.4 127.9v.2M97.4 128.1l-.2.3M97.2 128.4l-.2.2M97.1 128.6l-.3.2M96.7 128.7H96M96 128.7l-.3.2M95.7 128.9l-.2.2M95.5 129.1l-.2.3M95.3 129.4v.7M95.3 130.1l.2.3M95.5 130.5l.2.2M95.7 130.6l.3.2M96 130.8h.7M96.7 130.8l.3-.2M97.1 130.6l.2-.2M97.2 130.5l.2-.3M97.4 130.1v-.7M97.4 129.4l-.2-.3M97.2 129.1l-.2-.2M97.1 128.9l-.3-.2"/><path class="st7" d="M102.7 128h-2.1M101.7 128v-3.6M101.7 124.4l-.3.5M101.4 124.9l-.3.3M101 125.2l-.3.2M103.9 124.4h2.2M106.2 124.4l-1.2 1.4M105 125.7h.5M105.5 125.7l.3.2M105.8 125.9l.2.2M106 126.1l.2.3M106.2 126.4v.9M106.2 127.3l-.2.3M106 127.6l-.2.2M105.8 127.8l-.3.2M105.5 128h-1M104.4 128l-.3-.2M104.1 127.8l-.2-.2"/><path class="st19" d="M99.8 136.4h7.2"/><path class="st11" d="M85.9 134.4h.7M86.6 134.4l.3.2M86.9 134.6l.3.3M87.3 134.9l.2.7M87.5 135.6v1.2M87.5 136.8l-.2.7M87.3 137.5l-.3.3M86.9 137.8l-.3.2M86.6 138h-.7M85.9 138l-.3-.2M85.6 137.8l-.3-.3M85.2 137.5l-.2-.7M85.1 136.8v-1.2M85.1 135.6l.2-.7M85.2 134.9l.3-.3M85.6 134.6l.3-.2M89 134.4v2.9M89 137.3l.2.3M89.2 137.7l.2.2M89.3 137.8l.3.2M89.7 138h.7M90.4 138l.3-.2M90.7 137.8l.2-.2M90.9 137.7l.2-.3M91.1 137.3v-2.9M92.3 134.4h2.1M93.3 138v-3.6M95.7 138h.7M96.4 138l.3-.2M96.7 137.8l.2-.2M96.9 137.7l.3-.5M97.2 137.1l.2-.7M97.4 136.5v-1.4M97.4 135.1l-.2-.3M97.2 134.7l-.2-.2M97.1 134.6l-.3-.2M96.7 134.4H96M96 134.4l-.3.2M95.7 134.6l-.2.2M95.5 134.7l-.2.3M95.3 135.1v.9M95.3 135.9l.2.3M95.5 136.3l.2.2M95.7 136.5l.3.2M96 136.6h.7M96.7 136.6l.3-.2M97.1 136.5l.2-.2M97.2 136.3l.2-.3"/><path class="st7" d="M102.7 135.2h-2.1M101.7 135.2v-3.6M101.7 131.6l-.3.5M101.4 132.1l-.3.3M101 132.4l-.3.2M105.8 132.8v2.4M105 131.4l-.9 2.6M104.1 134h2.2"/><path class="st19" d="M99.8 143.6h7.2"/><path class="st11" d="M82.5 141.6h.7M83.2 141.6l.3.2M83.5 141.8l.3.3M83.9 142.1l.2.7M84 142.8v1.2M84 144l-.2.7M83.9 144.7l-.3.3M83.5 145l-.3.2M83.2 145.2h-.7M82.5 145.2l-.3-.2M82.1 145l-.3-.3M81.8 144.7l-.2-.7M81.6 144v-1.2M81.6 142.8l.2-.7M81.8 142.1l.3-.3M82.1 141.8l.3-.2M85.6 141.6v2.9M85.6 144.5l.2.3M85.7 144.9l.2.2M85.9 145l.3.2M86.3 145.2h.7M86.9 145.2l.3-.2M87.3 145l.2-.2M87.5 144.9l.2-.3M87.6 144.5v-2.9M88.8 141.6h2.1M89.9 145.2v-3.6M94 145.2h-2.1M92.9 145.2v-3.6M92.9 141.6l-.3.5M92.6 142.1l-.3.3M92.3 142.5l-.3.2M96.2 141.6h.3M96.5 141.6l.3.2M96.9 141.8l.2.2M97.1 141.9l.2.3M97.2 142.3l.2.7M97.4 143v.9M97.4 143.8l-.2.7M97.2 144.5l-.2.3M97.1 144.9l-.2.2M96.9 145l-.3.2M96.5 145.2h-.3M96.2 145.2l-.3-.2M95.9 145l-.2-.2M95.7 144.9l-.2-.3M95.5 144.5l-.2-.7M95.3 143.8v-.9M95.3 143l.2-.7M95.5 142.3l.2-.3M95.7 141.9l.2-.2M95.9 141.8l.3-.2"/><path class="st7" d="M102.7 142.4h-2.1M101.7 142.4v-3.6M101.7 138.8l-.3.5M101.4 139.3l-.3.3M101 139.6l-.3.2M106 138.8h-1.7M104.3 138.8l-.2 1.7M104.1 140.5l.2-.2M104.3 140.3l.3-.2M104.6 140.1h.9M105.5 140.1l.3.2M105.8 140.3l.2.2M106 140.5l.2.3M106.2 140.8v.9M106.2 141.7l-.2.3M106 142l-.2.2M105.8 142.2l-.3.2M105.5 142.4h-.9M104.6 142.4l-.3-.2M104.3 142.2l-.2-.2"/><path class="st19" d="M99.8 150.8h7.2"/><path class="st11" d="M82.5 148.8h.7M83.2 148.8l.3.2M83.5 149l.3.3M83.9 149.3l.2.7M84 150v1.2M84 151.2l-.2.7M83.9 151.9l-.3.3M83.5 152.2l-.3.2M83.2 152.4h-.7M82.5 152.4l-.3-.2M82.1 152.2l-.3-.3M81.8 151.9l-.2-.7M81.6 151.2V150M81.6 150l.2-.7M81.8 149.3l.3-.3M82.1 149l.3-.2M85.6 148.8v2.9M85.6 151.7l.2.3M85.7 152.1l.2.2M85.9 152.2l.3.2M86.3 152.4h.7M86.9 152.4l.3-.2M87.3 152.2l.2-.2M87.5 152.1l.2-.3M87.6 151.7v-2.9M88.8 148.8h2.1M89.9 152.4v-3.6M94 152.4h-2.1M92.9 152.4v-3.6M92.9 148.8l-.3.5M92.6 149.3l-.3.3M92.3 149.7l-.3.2M97.4 152.4h-2.1M96.4 152.4v-3.6M96.4 148.8l-.3.5M96 149.3l-.3.3M95.7 149.7l-.3.2"/><path class="st7" d="M102.7 149.6h-2.1M101.7 149.6V146M101.7 146l-.3.5M101.4 146.5l-.3.3M101 146.8l-.3.2M105.8 146h-.7M105.1 146l-.3.2M104.8 146.1l-.2.2M104.6 146.3l-.3.5M104.3 146.8l-.2.7M104.1 147.5v1.4M104.1 148.9l.2.3M104.3 149.2l.2.2M104.4 149.4l.3.2M104.8 149.6h.7M105.5 149.6l.3-.2M105.8 149.4l.2-.2M106 149.2l.2-.3M106.2 148.9v-.9M106.2 148l-.2-.3M106 147.7l-.2-.2M105.8 147.5l-.3-.2M105.5 147.3h-.7M104.8 147.3l-.3.2M104.4 147.5l-.2.2M104.3 147.7l-.2.3"/><path class="st19" d="M99.8 158h7.2"/><path class="st11" d="M82.5 156h.7M83.2 156l.3.2M83.5 156.2l.3.3M83.9 156.5l.2.7M84 157.2v1.2M84 158.4l-.2.7M83.9 159.1l-.3.3M83.5 159.4l-.3.2M83.2 159.6h-.7M82.5 159.6l-.3-.2M82.1 159.4l-.3-.3M81.8 159.1l-.2-.7M81.6 158.4v-1.2M81.6 157.2l.2-.7M81.8 156.5l.3-.3M82.1 156.2l.3-.2M85.6 156v2.9M85.6 158.9l.2.3M85.7 159.3l.2.2M85.9 159.4l.3.2M86.3 159.6h.7M86.9 159.6l.3-.2M87.3 159.4l.2-.2M87.5 159.3l.2-.3M87.6 158.9V156M88.8 156h2.1M89.9 159.6V156M94 159.6h-2.1M92.9 159.6V156M92.9 156l-.3.5M92.6 156.5l-.3.3M92.3 156.9l-.3.2M95.3 156.3l.2-.2M95.5 156.2l.3-.2M95.9 156h.9M96.7 156l.3.2M97.1 156.2l.2.2M97.2 156.3l.2.3M97.4 156.7v.3M97.4 157l-.2.5M97.2 157.5l-2.1 2.1M95.2 159.6h2.2"/><path class="st7" d="M102.7 156.8h-2.1M101.7 156.8v-3.6M101.7 153.2l-.3.5M101.4 153.7l-.3.3M101 154l-.3.2M103.9 153.2h2.4M106.3 153.2l-1.5 3.6"/><path class="st19" d="M99.8 165.2h7.2"/><path class="st11" d="M82.5 163.2h.7M83.2 163.2l.3.2M83.5 163.4l.3.3M83.9 163.7l.2.7M84 164.4v1.2M84 165.6l-.2.7M83.9 166.3l-.3.3M83.5 166.6l-.3.2M83.2 166.8h-.7M82.5 166.8l-.3-.2M82.1 166.6l-.3-.3M81.8 166.3l-.2-.7M81.6 165.6v-1.2M81.6 164.4l.2-.7M81.8 163.7l.3-.3M82.1 163.4l.3-.2M85.6 163.2v2.9M85.6 166.1l.2.3M85.7 166.5l.2.2M85.9 166.6l.3.2M86.3 166.8h.7M86.9 166.8l.3-.2M87.3 166.6l.2-.2M87.5 166.5l.2-.3M87.6 166.1v-2.9M88.8 163.2h2.1M89.9 166.8v-3.6M94 166.8h-2.1M92.9 166.8v-3.6M92.9 163.2l-.3.5M92.6 163.7l-.3.3M92.3 164.1l-.3.2M95.2 163.2h2.2M97.4 163.2l-1.2 1.4M96.2 164.6h.5M96.7 164.6l.3.2M97.1 164.7l.2.2M97.2 164.9l.2.3M97.4 165.3v.9M97.4 166.1l-.2.3M97.2 166.5l-.2.2M97.1 166.6l-.3.2M96.7 166.8h-1M95.7 166.8l-.3-.2M95.3 166.6l-.2-.2"/><path class="st7" d="M102.7 164h-2.1M101.7 164v-3.6M101.7 160.4l-.3.5M101.4 160.9l-.3.3M101 161.2l-.3.2M104.8 161.9l-.3-.2M104.4 161.7l-.2-.2M104.3 161.6l-.2-.3M104.1 161.2v-.2M104.1 161.1l.2-.3M104.3 160.7l.2-.2M104.4 160.5l.3-.2M104.8 160.4h.7M105.5 160.4l.3.2M105.8 160.5l.2.2M106 160.7l.2.3M106.2 161.1v.2M106.2 161.2l-.2.3M106 161.6l-.2.2M105.8 161.7l-.3.2M105.5 161.9h-.7M104.8 161.9l-.3.2M104.4 162.1l-.2.2M104.3 162.3l-.2.3M104.1 162.6v.7M104.1 163.3l.2.3M104.3 163.6l.2.2M104.4 163.8l.3.2M104.8 164h.7M105.5 164l.3-.2M105.8 163.8l.2-.2M106 163.6l.2-.3M106.2 163.3v-.7M106.2 162.6l-.2-.3M106 162.3l-.2-.2M105.8 162.1l-.3-.2"/><path class="st19" d="M99.8 172.4h7.2"/><path class="st11" d="M82.5 170.4h.7M83.2 170.4l.3.2M83.5 170.6l.3.3M83.9 170.9l.2.7M84 171.6v1.2M84 172.8l-.2.7M83.9 173.5l-.3.3M83.5 173.8l-.3.2M83.2 174h-.7M82.5 174l-.3-.2M82.1 173.8l-.3-.3M81.8 173.5l-.2-.7M81.6 172.8v-1.2M81.6 171.6l.2-.7M81.8 170.9l.3-.3M82.1 170.6l.3-.2M85.6 170.4v2.9M85.6 173.3l.2.3M85.7 173.7l.2.2M85.9 173.8l.3.2M86.3 174h.7M86.9 174l.3-.2M87.3 173.8l.2-.2M87.5 173.7l.2-.3M87.6 173.3v-2.9M88.8 170.4h2.1M89.9 174v-3.6M94 174h-2.1M92.9 174v-3.6M92.9 170.4l-.3.5M92.6 170.9l-.3.3M92.3 171.3l-.3.2M97.1 171.6v2.4M96.2 170.2l-.9 2.6M95.3 172.8h2.2"/><path class="st7" d="M102.7 171.2h-2.1M101.7 171.2v-3.6M101.7 167.6l-.3.5M101.4 168.1l-.3.3M101 168.4l-.3.2M104.4 171.2h.7M105.1 171.2l.3-.2M105.5 171l.2-.2M105.6 170.8l.3-.5M106 170.3l.2-.7M106.2 169.6v-1.4M106.2 168.3l-.2-.3M106 167.9l-.2-.2M105.8 167.7l-.3-.2M105.5 167.6h-.7M104.8 167.6l-.3.2M104.4 167.7l-.2.2M104.3 167.9l-.2.3M104.1 168.3v.9M104.1 169.1l.2.3M104.3 169.5l.2.2M104.4 169.6l.3.2M104.8 169.8h.7M105.5 169.8l.3-.2M105.8 169.6l.2-.2M106 169.5l.2-.3"/><path class="st19" d="M56.6 57.2h-7.2"/><path class="st11" d="M59.2 58.8v-3.6M59.2 55.2h.9M60 55.2l.5.2M60.6 55.4l.3.3M60.9 55.7l.2.3M61.1 56.1l.2.7M61.2 56.7v.5M61.2 57.3l-.2.7M61.1 57.9l-.2.3M60.9 58.3l-.3.3M60.6 58.6l-.5.2M60 58.8h-.9M62.6 57.8h1.7M62.3 58.8l1.2-3.6M63.5 55.2l1.2 3.6M65.9 58.8v-3.6"/><path class="st7" d="m52 52.7.2-.2M52.2 52.5l.3-.2M52.5 52.4h.9M53.4 52.4l.3.2M53.7 52.5l.2.2M53.9 52.7l.2.3M54 53.1v.3M54 53.4l-.2.5M53.9 53.9 51.8 56M51.8 56H54"/><path class="st19" d="M99.8 179.6h7.2"/><path class="st11" d="M82.5 177.6h.7M83.2 177.6l.3.2M83.5 177.8l.3.3M83.9 178.1l.2.7M84 178.8v1.2M84 180l-.2.7M83.9 180.7l-.3.3M83.5 181l-.3.2M83.2 181.2h-.7M82.5 181.2l-.3-.2M82.1 181l-.3-.3M81.8 180.7l-.2-.7M81.6 180v-1.2M81.6 178.8l.2-.7M81.8 178.1l.3-.3M82.1 177.8l.3-.2M85.6 177.6v2.9M85.6 180.5l.2.3M85.7 180.9l.2.2M85.9 181l.3.2M86.3 181.2h.7M86.9 181.2l.3-.2M87.3 181l.2-.2M87.5 180.9l.2-.3M87.6 180.5v-2.9M88.8 177.6h2.1M89.9 181.2v-3.6M94 181.2h-2.1M92.9 181.2v-3.6M92.9 177.6l-.3.5M92.6 178.1l-.3.3M92.3 178.5l-.3.2M97.2 177.6h-1.7M95.5 177.6l-.2 1.7M95.3 179.3l.2-.2M95.5 179.1l.3-.2M95.9 179h.9M96.7 179l.3.2M97.1 179.1l.2.2M97.2 179.3l.2.3M97.4 179.7v.9M97.4 180.5l-.2.3M97.2 180.9l-.2.2M97.1 181l-.3.2M96.7 181.2h-.9M95.9 181.2l-.3-.2M95.5 181l-.2-.2"/><path class="st7" d="m100.7 175.1.2-.2M100.8 174.9l.3-.2M101.2 174.8h.9M102 174.8l.3.2M102.4 174.9l.2.2M102.6 175.1l.2.3M102.7 175.5v.3M102.7 175.8l-.2.5M102.6 176.3l-2.1 2.1M100.5 178.4h2.2M105 174.8h.3M105.3 174.8l.3.2M105.6 174.9l.2.2M105.8 175.1l.2.3M106 175.5l.2.7M106.2 176.1v.9M106.2 177l-.2.7M106 177.7l-.2.3M105.8 178l-.2.2M105.6 178.2l-.3.2M105.3 178.4h-.3M105 178.4l-.3-.2M104.6 178.2l-.2-.2M104.4 178l-.2-.3M104.3 177.7l-.2-.7M104.1 177v-.9M104.1 176.1l.2-.7M104.3 175.5l.2-.3M104.4 175.1l.2-.2M104.6 174.9l.3-.2"/><path class="st19" d="M56.6 179.6h-7.2"/><path class="st11" d="M59.2 179.3h1.2M60.9 181.2h-1.7M59.2 181.2v-3.6M59.2 177.6h1.7M62.4 181.2v-3.6M62.4 177.6l2.1 3.6M64.5 181.2v-3.6M58.7 176.6H65"/><path class="st7" d="m50.3 175.1.2-.2M50.4 174.9l.3-.2M50.8 174.8h.9M51.6 174.8l.3.2M52 174.9l.2.2M52.2 175.1l.2.3M52.3 175.5v.3M52.3 175.8l-.2.5M52.2 176.3l-2.1 2.1M50.1 178.4h2.2M55.8 178.4h-2.1M54.7 178.4v-3.6M54.7 174.8l-.3.5M54.4 175.3l-.3.3M54 175.6l-.3.2"/><path class="st19" d="M99.8 57.2h7.2"/><path class="st11" d="M88.5 58.8v-3.6M88.5 55.2h.9M89.3 55.2l.5.2M89.9 55.4l.3.3M90.2 55.7l.2.3M90.4 56.1l.2.7M90.5 56.7v.5M90.5 57.3l-.2.7M90.4 57.9l-.2.3M90.2 58.3l-.3.3M89.9 58.6l-.5.2M89.3 58.8h-.9M91.9 57.8h1.7M91.6 58.8l1.2-3.6M92.8 55.2l1.2 3.6M95.9 55.2h.7M96.5 55.2l.3.2M96.9 55.4l.3.3M97.2 55.7l.2.7M97.4 56.4v1.2M97.4 57.6l-.2.7M97.2 58.3l-.3.3M96.9 58.6l-.3.2M96.5 58.8h-.7M95.9 58.8l-.3-.2M95.5 58.6l-.3-.3M95.2 58.3l-.2-.7M95 57.6v-1.2M95 56.4l.2-.7M95.2 55.7l.3-.3M95.5 55.4l.3-.2"/><path class="st7" d="m100.7 52.7.2-.2M100.8 52.5l.3-.2M101.2 52.4h.9M102 52.4l.3.2M102.4 52.5l.2.2M102.6 52.7l.2.3M102.7 53.1v.3M102.7 53.4l-.2.5M102.6 53.9l-2.1 2.1M100.5 56h2.2M104.1 52.7l.2-.2M104.3 52.5l.3-.2M104.6 52.4h.9M105.5 52.4l.3.2M105.8 52.5l.2.2M106 52.7l.2.3M106.2 53.1v.3M106.2 53.4l-.2.5M106 53.9l-2.1 2.1M103.9 56h2.2"/><path class="st19" d="M56.6 86h-7.2"/><path class="st11" d="M61.2 87.6 60 85.9M59.2 87.6V84M59.2 84h1.4M60.6 84l.3.2M60.9 84.2l.2.2M61.1 84.3l.2.3M61.2 84.7v.5M61.2 85.2l-.2.3M61.1 85.5l-.2.2M60.9 85.7l-.3.2M60.6 85.9h-1.4M62.8 85.7H64M64.5 87.6h-1.7M62.8 87.6V84M62.8 84h1.7M65.7 84l2.4 3.6M68.1 84l-2.4 3.6M69 84h2.1M70 87.6V84"/><path class="st7" d="m50.3 81.5.2-.2M50.4 81.3l.3-.2M50.8 81.2h.9M51.6 81.2l.3.2M52 81.3l.2.2M52.2 81.5l.2.3M52.3 81.9v.3M52.3 82.2l-.2.5M52.2 82.7l-2.1 2.1M50.1 84.8h2.2M53.5 81.2h2.2M55.8 81.2l-1.2 1.4M54.6 82.5h.5M55.1 82.5l.3.2M55.4 82.7l.2.2M55.6 82.9l.2.3M55.8 83.2v.9M55.8 84.1l-.2.3M55.6 84.4l-.2.2M55.4 84.6l-.3.2M55.1 84.8h-1M54 84.8l-.3-.2M53.7 84.6l-.2-.2"/><path class="st19" d="M78.2 50v-7.2"/><path class="st11" d="m76.3 61.6 3.6-1.2M79.9 60.4l-3.6-1.2M79.9 58h-3.6M76.3 58v-.9M76.3 57.2l.2-.5M76.4 56.6l.3-.3M76.8 56.3l.3-.2M77.1 56.1l.7-.2M77.8 56h.5M78.3 56l.7.2M79 56.1l.3.2M79.3 56.3l.3.3M79.7 56.6l.2.5M79.9 57.2v.9M79.9 54.4h-3.6M76.3 54.4v-.9M76.3 53.6l.2-.5M76.4 53l.3-.3M76.8 52.7l.3-.2M77.1 52.5l.7-.2M77.8 52.4h.5M78.3 52.4l.7.2M79 52.5l.3.2M79.3 52.7l.3.3M79.7 53l.2.5M79.9 53.6v.9"/><path class="st7" d="m73.8 49.1-.2-.2M73.6 48.9l-.2-.3M73.4 48.6v-.9M73.4 47.7l.2-.3M73.6 47.4l.2-.2M73.8 47.2l.3-.2M74.1 47h.3M74.5 47l.5.2M75 47.2l2.1 2.1M77 49.3v-2.2M74.6 44H77M73.3 44.8l2.6.9M75.8 45.7v-2.2"/><path class="st19" d="M56.6 64.4h-7.2"/><path class="st11" d="M59.2 66v-3.6M59.2 62.4h.9M60 62.4l.5.2M60.6 62.6l.3.3M60.9 62.9l.2.3M61.1 63.3l.2.7M61.2 63.9v.5M61.2 64.5l-.2.7M61.1 65.1l-.2.3M60.9 65.5l-.3.3M60.6 65.8l-.5.2M60 66h-.9M64.8 65.7l-.2.2M64.7 65.8l-.5.2M64.2 66h-.3M63.8 66l-.5-.2M63.3 65.8l-.3-.3M63 65.5l-.2-.3M62.8 65.1l-.2-.7M62.6 64.5V64M62.6 63.9l.2-.7M62.8 63.3l.2-.3M63 62.9l.3-.3M63.3 62.6l.5-.2M63.8 62.4h.3M64.2 62.4l.5.2M64.7 62.6l.2.2M66.4 66v-3.6M68.4 66l-1.5-2.1M68.4 62.4l-2.1 2.1"/><path class="st7" d="M51.8 59.6H54M54 59.6 52.8 61M52.8 60.9h.5M53.4 60.9l.3.2M53.7 61.1l.2.2M53.9 61.3l.2.3M54 61.6v.9M54 62.5l-.2.3M53.9 62.8l-.2.2M53.7 63l-.3.2M53.4 63.2h-1M52.3 63.2 52 63M52 63l-.2-.2"/><path class="st19" d="M56.6 71.6h-7.2"/><path class="st11" d="M60.9 73.2h-1.7M59.2 73.2v-3.6M61.9 72.2h1.7M61.6 73.2l1.2-3.6M62.8 69.6l1.2 3.6M64.7 69.6h2.1M65.7 73.2v-3.6"/><path class="st7" d="M53.7 68v2.4M52.8 66.6l-.9 2.6M52 69.2h2.2"/><path class="st19" d="M99.8 71.6h7.2"/><path class="st11" d="M85.9 69.6h.7M86.6 69.6l.3.2M86.9 69.8l.3.3M87.3 70.1l.2.7M87.5 70.8V72M87.5 72l-.2.7M87.3 72.7l-.3.3M86.9 73l-.3.2M86.6 73.2h-.7M85.9 73.2l-.3-.2M85.6 73l-.3-.3M85.2 72.7 85 72M85.1 72v-1.2M85.1 70.8l.2-.7M85.2 70.1l.3-.3M85.6 69.8l.3-.2M89 69.6v2.9M89 72.5l.2.3M89.2 72.9l.2.2M89.3 73l.3.2M89.7 73.2h.7M90.4 73.2l.3-.2M90.7 73l.2-.2M90.9 72.9l.2-.3M91.1 72.5v-2.9M92.3 69.6h2.1M93.3 73.2v-3.6M96.2 69.6h.3M96.5 69.6l.3.2M96.9 69.8l.2.2M97.1 69.9l.2.3M97.2 70.3l.2.7M97.4 71v.9M97.4 71.8l-.2.7M97.2 72.5l-.2.3M97.1 72.9l-.2.2M96.9 73l-.3.2M96.5 73.2h-.3M96.2 73.2l-.3-.2M95.9 73l-.2-.2M95.7 72.9l-.2-.3M95.5 72.5l-.2-.7M95.3 71.8v-.9M95.3 71l.2-.7M95.5 70.3l.2-.3M95.7 69.9l.2-.2M95.9 69.8l.3-.2"/><path class="st7" d="M104.3 66.8h-1.7M102.6 66.8l-.2 1.7M102.4 68.5l.2-.2M102.6 68.3l.3-.2M102.9 68.1h.9M103.8 68.1l.3.2M104.1 68.3l.2.2M104.3 68.5l.2.3M104.4 68.8v.9M104.4 69.7l-.2.3M104.3 70l-.2.2M104.1 70.2l-.3.2M103.8 70.4h-.9M102.9 70.4l-.3-.2M102.6 70.2l-.2-.2"/><path class="st19" d="M99.8 78.8h7.2"/><path class="st11" d="M85.9 76.8h.7M86.6 76.8l.3.2M86.9 77l.3.3M87.3 77.3l.2.7M87.5 78v1.2M87.5 79.2l-.2.7M87.3 79.9l-.3.3M86.9 80.2l-.3.2M86.6 80.4h-.7M85.9 80.4l-.3-.2M85.6 80.2l-.3-.3M85.2 79.9l-.2-.7M85.1 79.2V78M85.1 78l.2-.7M85.2 77.3l.3-.3M85.6 77l.3-.2M89 76.8v2.9M89 79.7l.2.3M89.2 80.1l.2.2M89.3 80.2l.3.2M89.7 80.4h.7M90.4 80.4l.3-.2M90.7 80.2l.2-.2M90.9 80.1l.2-.3M91.1 79.7v-2.9M92.3 76.8h2.1M93.3 80.4v-3.6M97.4 80.4h-2.1M96.4 80.4v-3.6M96.4 76.8l-.3.5M96 77.3l-.3.3M95.7 77.7l-.3.2"/><path class="st7" d="M104.1 74h-.7M103.4 74l-.3.2M103.1 74.1l-.2.2M102.9 74.3l-.3.5M102.6 74.8l-.2.7M102.4 75.5v1.4M102.4 76.9l.2.3M102.6 77.2l.2.2M102.7 77.4l.3.2M103.1 77.6h.7M103.8 77.6l.3-.2M104.1 77.4l.2-.2M104.3 77.2l.2-.3M104.4 76.9V76M104.4 76l-.2-.3M104.3 75.7l-.2-.2M104.1 75.5l-.3-.2M103.8 75.3h-.7M103.1 75.3l-.3.2M102.7 75.5l-.2.2M102.6 75.7l-.2.3"/><path class="st19" d="M99.8 86h7.2"/><path class="st11" d="M85.9 84h.7M86.6 84l.3.2M86.9 84.2l.3.3M87.3 84.5l.2.7M87.5 85.2v1.2M87.5 86.4l-.2.7M87.3 87.1l-.3.3M86.9 87.4l-.3.2M86.6 87.6h-.7M85.9 87.6l-.3-.2M85.6 87.4l-.3-.3M85.2 87.1l-.2-.7M85.1 86.4v-1.2M85.1 85.2l.2-.7M85.2 84.5l.3-.3M85.6 84.2l.3-.2M89 84v2.9M89 86.9l.2.3M89.2 87.3l.2.2M89.3 87.4l.3.2M89.7 87.6h.7M90.4 87.6l.3-.2M90.7 87.4l.2-.2M90.9 87.3l.2-.3M91.1 86.9V84M92.3 84h2.1M93.3 87.6V84M95.3 84.3l.2-.2M95.5 84.2l.3-.2M95.9 84h.9M96.7 84l.3.2M97.1 84.2l.2.2M97.2 84.3l.2.3M97.4 84.7v.3M97.4 85l-.2.5M97.2 85.5l-2.1 2.1M95.2 87.6h2.2"/><path class="st7" d="M102.2 81.2h2.4M104.6 81.2l-1.5 3.6"/><path class="st19" d="M99.8 93.2h7.2"/><path class="st11" d="M85.9 91.2h.7M86.6 91.2l.3.2M86.9 91.4l.3.3M87.3 91.7l.2.7M87.5 92.4v1.2M87.5 93.6l-.2.7M87.3 94.3l-.3.3M86.9 94.6l-.3.2M86.6 94.8h-.7M85.9 94.8l-.3-.2M85.6 94.6l-.3-.3M85.2 94.3l-.2-.7M85.1 93.6v-1.2M85.1 92.4l.2-.7M85.2 91.7l.3-.3M85.6 91.4l.3-.2M89 91.2v2.9M89 94.1l.2.3M89.2 94.5l.2.2M89.3 94.6l.3.2M89.7 94.8h.7M90.4 94.8l.3-.2M90.7 94.6l.2-.2M90.9 94.5l.2-.3M91.1 94.1v-2.9M92.3 91.2h2.1M93.3 94.8v-3.6M95.2 91.2h2.2M97.4 91.2l-1.2 1.4M96.2 92.6h.5M96.7 92.6l.3.2M97.1 92.7l.2.2M97.2 92.9l.2.3M97.4 93.3v.9M97.4 94.1l-.2.3M97.2 94.5l-.2.2M97.1 94.6l-.3.2M96.7 94.8h-1M95.7 94.8l-.3-.2M95.3 94.6l-.2-.2"/><path class="st7" d="m103.1 89.9-.3-.2M102.7 89.7l-.2-.2M102.6 89.6l-.2-.3M102.4 89.2V89M102.4 89.1l.2-.3M102.6 88.7l.2-.2M102.7 88.5l.3-.2M103.1 88.4h.7M103.8 88.4l.3.2M104.1 88.5l.2.2M104.3 88.7l.2.3M104.4 89.1v.2M104.4 89.2l-.2.3M104.3 89.6l-.2.2M104.1 89.7l-.3.2M103.8 89.9h-.7M103.1 89.9l-.3.2M102.7 90.1l-.2.2M102.6 90.3l-.2.3M102.4 90.6v.7M102.4 91.3l.2.3M102.6 91.6l.2.2M102.7 91.8l.3.2M103.1 92h.7M103.8 92l.3-.2M104.1 91.8l.2-.2M104.3 91.6l.2-.3M104.4 91.3v-.7M104.4 90.6l-.2-.3M104.3 90.3l-.2-.2M104.1 90.1l-.3-.2"/><path class="st19" d="M99.8 100.4h7.2"/><path class="st11" d="M85.9 98.4h.7M86.6 98.4l.3.2M86.9 98.6l.3.3M87.3 98.9l.2.7M87.5 99.6v1.2M87.5 100.8l-.2.7M87.3 101.5l-.3.3M86.9 101.8l-.3.2M86.6 102h-.7M85.9 102l-.3-.2M85.6 101.8l-.3-.3M85.2 101.5l-.2-.7M85.1 100.8v-1.2M85.1 99.6l.2-.7M85.2 98.9l.3-.3M85.6 98.6l.3-.2M89 98.4v2.9M89 101.3l.2.3M89.2 101.7l.2.2M89.3 101.8l.3.2M89.7 102h.7M90.4 102l.3-.2M90.7 101.8l.2-.2M90.9 101.7l.2-.3M91.1 101.3v-2.9M92.3 98.4h2.1M93.3 102v-3.6M97.1 99.6v2.4M96.2 98.2l-.9 2.6M95.3 100.8h2.2"/><path class="st7" d="M102.7 99.2h.7M103.4 99.2l.3-.2M103.8 99l.2-.2M103.9 98.8l.3-.5M104.3 98.3l.2-.7M104.4 97.6v-1.4M104.4 96.3l-.2-.3M104.3 95.9l-.2-.2M104.1 95.7l-.3-.2M103.8 95.6h-.7M103.1 95.6l-.3.2M102.7 95.7l-.2.2M102.6 95.9l-.2.3M102.4 96.3v.9M102.4 97.1l.2.3M102.6 97.5l.2.2M102.7 97.6l.3.2M103.1 97.8h.7M103.8 97.8l.3-.2M104.1 97.6l.2-.2M104.3 97.5l.2-.3"/><circle class="st16" cx="78.2" cy="32" r="1.3"/><circle class="st16" cx="168.2" cy="64.4" r="1.3"/><circle class="st16" cx="168.2" cy="42.8" r="1.3"/><circle class="st16" cx="168.2" cy="53.6" r="1.3"/><circle class="st16" cx="168.2" cy="140" r="1.3"/><circle class="st16" cx="168.2" cy="150.8" r="1.3"/><circle class="st16" cx="168.2" cy="194" r="1.3"/><circle class="st16" cx="168.2" cy="183.2" r="1.3"/><circle class="st16" cx="168.2" cy="161.6" r="1.3"/><circle class="st16" cx="168.2" cy="172.4" r="1.3"/><circle class="st16" cx="78.2" cy="201.2" r="1.3"/><circle class="st16" cx="168.2" cy="96.8" r="1.3"/><circle class="st16" cx="168.2" cy="107.6" r="1.3"/><circle class="st16" cx="168.2" cy="86" r="1.3"/><circle class="st16" cx="168.2" cy="75.2" r="1.3"/><circle class="st16" cx="168.2" cy="118.4" r="1.3"/><circle class="st16" cx="168.2" cy="129.2" r="1.3"/><circle class="st16" cx="49.4" cy="201.2" r="1.3"/></svg>