<svg id="Layer_1" xmlns="http://www.w3.org/2000/svg" version="1.1" viewBox="0 0 158.9 154.7"><defs><style>.st1{letter-spacing:1.6em}.st2{letter-spacing:.3em}.st3{letter-spacing:.1em}.st4{stroke:#000084}.st10,.st11,.st13,.st14,.st15,.st16,.st17,.st4,.st5,.st6,.st7,.st8,.st9{stroke-linecap:round;stroke-linejoin:round}.st10,.st11,.st13,.st15,.st16,.st17,.st4,.st5,.st6,.st7,.st8,.st9{fill:none}.st13,.st14,.st15,.st17,.st4,.st5,.st8,.st9{stroke-width:.4px}.st16,.st5{stroke:#a90000}.st10,.st11,.st16,.st6{font-family:ArialMT,Arial;font-size:4.8px;stroke-width:.4px}.st15,.st6{stroke:#0f0f0f}.st7{stroke-width:.7px}.st17,.st7{stroke:#840000}.st20,.st21{letter-spacing:.2em}.st14,.st8{stroke:#009600}.st23{letter-spacing:.3em}.st24{letter-spacing:.8em}.st27{letter-spacing:.3em}.st29{letter-spacing:.8em}.st11,.st9{stroke:#006464}.st10,.st13{stroke:#0000c2}.st31{letter-spacing:.8em}.st32{isolation:isolate;opacity:0}.st33{letter-spacing:.3em}.st14{fill:#009600}.st34{letter-spacing:.2em}.st35,.st36{letter-spacing:.3em}.st37{letter-spacing:.2em}</style></defs><path class="st7" d="M143 104v-7.2"/><path class="st17" d="M143 100.4h7.2"/><path class="st7" d="M150.2 104v-7.2l-7.2 3.6 7.2 3.6Z"/><path class="st17" d="m138 102.5-4.3 4.3h2.2-2.2v-2.2M141.6 102.5l-4.3 4.3h2.2-2.2v-2.2M143 100.4h-7.2M150.2 100.4h7.2"/><path class="st7" d="M143 93.2V86"/><path class="st17" d="M143 89.6h7.2"/><path class="st7" d="M150.2 93.2V86l-7.2 3.6 7.2 3.6Z"/><path class="st17" d="m138 91.7-4.3 4.3h2.2-2.2v-2.2M141.6 91.7l-4.3 4.3h2.2-2.2v-2.2M143 89.6h-7.2M150.2 89.6h7.2"/><path class="st7" d="M143 60.8v-7.2"/><path class="st17" d="M143 57.2h7.2"/><path class="st7" d="M150.2 60.8v-7.2l-7.2 3.6 7.2 3.6Z"/><path class="st17" d="m138 59.3-4.3 4.3h2.2-2.2v-2.2M141.6 59.3l-4.3 4.3h2.2-2.2v-2.2M143 57.2h-7.2M150.2 57.2h7.2"/><path class="st7" d="M143 50v-7.2"/><path class="st17" d="M143 46.4h7.2"/><path class="st7" d="M150.2 50v-7.2l-7.2 3.6 7.2 3.6Z"/><path class="st17" d="m138 48.5-4.3 4.3h2.2-2.2v-2.2M141.6 48.5l-4.3 4.3h2.2-2.2v-2.2M143 46.4h-7.2M150.2 46.4h7.2"/><path class="st7" d="M143 71.6v-7.2"/><path class="st17" d="M143 68h7.2"/><path class="st7" d="M150.2 71.6v-7.2L143 68l7.2 3.6Z"/><path class="st17" d="m138 70.1-4.3 4.3h2.2-2.2v-2.2M141.6 70.1l-4.3 4.3h2.2-2.2v-2.2M143 68h-7.2M150.2 68h7.2"/><path class="st7" d="M143 82.4v-7.2"/><path class="st17" d="M143 78.8h7.2"/><path class="st7" d="M150.2 82.4v-7.2l-7.2 3.6 7.2 3.6Z"/><path class="st17" d="m138 80.9-4.3 4.3h2.2-2.2V83M141.6 80.9l-4.3 4.3h2.2-2.2V83M143 78.8h-7.2M150.2 78.8h7.2"/><path class="st7" d="M143 114.8v-7.2"/><path class="st17" d="M143 111.2h7.2"/><path class="st7" d="M150.2 114.8v-7.2l-7.2 3.6 7.2 3.6Z"/><path class="st17" d="m138 113.3-4.3 4.3h2.2-2.2v-2.2M141.6 113.3l-4.3 4.3h2.2-2.2v-2.2M143 111.2h-7.2M150.2 111.2h7.2"/><path class="st7" d="M143 125.6v-7.2"/><path class="st17" d="M143 122h7.2"/><path class="st7" d="M150.2 125.6v-7.2L143 122l7.2 3.6Z"/><path class="st17" d="m138 124.1-4.3 4.3h2.2-2.2v-2.2M141.6 124.1l-4.3 4.3h2.2-2.2v-2.2M143 122h-7.2M150.2 122h7.2M78.2 136.4v3.6h3.6l-3.6 3.6-3.6-3.6h3.6M78.2 136.4h0"/><path class="st9" d="m75.5 149-.3-.2M75.1 148.8h-.5M74.6 148.8l-.5.2M74.1 149l-.3.3M73.8 149.3l-.2.3M73.6 149.7l-.2.7M73.4 150.3v.5M73.4 150.9l.2.7M73.6 151.5l.2.3M73.8 151.9l.3.3M74.1 152.2l.5.2M74.6 152.4h.3M75 152.4l.5-.2M75.5 152.2l.2-.2M75.6 152.1v-1.2M75.6 150.9h-.7M77.2 152.4v-3.6M77.2 148.8l2.1 3.6M79.2 152.4v-3.6M81 152.4v-3.6M81 148.8h.9M81.8 148.8l.5.2M82.3 149l.3.3M82.7 149.3l.2.3M82.8 149.7l.2.7M83 150.3v.5M83 150.9l-.2.7M82.8 151.5l-.2.3M82.7 151.9l-.3.3M82.3 152.2l-.5.2M81.8 152.4h-.9"/><path d="M1.9 40.6h8.6M1.9 37.7h8.6" style="stroke-width:.9px;stroke:#840000;fill:none;stroke-linecap:round;stroke-linejoin:round"/><path class="st17" d="M6.2 37.7v-5.8M6.2 40.6v5.8"/><path class="st9" d="M15.3 40.8h.3M15.6 40.8l.3.2M16 41l.2.2M16.1 41.2l.2.3M16.3 41.5l.2.7M16.5 42.2v.9M16.5 43l-.2.7M16.3 43.7l-.2.3M16.1 44.1l-.2.2M16 44.2l-.3.2M15.6 44.4h-.3M15.3 44.4l-.3-.2M14.9 44.2l-.2-.2M14.8 44.1l-.2-.3M14.6 43.7l-.2-.7M14.4 43v-.9M14.4 42.2l.2-.7M14.6 41.5l.2-.3M14.8 41.2l.2-.2M14.9 41l.3-.2M18 44.1l.2.2M18.2 44.2l-.2.2M18 44.4l-.2-.2M17.8 44.2l.2-.2M18 44.1v.3M21.6 44.4h-2.1M20.6 44.4v-3.6M20.6 40.8l-.3.5M20.2 41.3l-.3.3M19.9 41.7l-.3.2M23.2 42v3.6M24.9 43.9l.2.3M25 44.2l.3.2M23.2 43.9l.2.3M23.3 44.2l.3.2M23.7 44.4h.7M24.4 44.4l.3-.2M24.7 44.2l.2-.3M24.9 43.9V42M26.4 42h1.4M26.9 44.4v-3.1M26.9 41.3l.2-.3M27.1 41l.3-.2M27.4 40.8h.3"/><path class="st17" d="M6.2 46.4V50h3.6l-3.6 3.6L2.6 50h3.6M6.2 46.4h0"/><path class="st9" d="m3.5 59-.3-.2M3.1 58.8h-.5M2.6 58.8l-.5.2M2.1 59l-.3.3M1.8 59.3l-.2.3M1.6 59.7l-.2.7M1.4 60.3v.5M1.4 60.9l.2.7M1.6 61.5l.2.3M1.8 61.9l.3.3M2.1 62.2l.5.2M2.6 62.4h.3M3 62.4l.5-.2M3.5 62.2l.2-.2M3.6 62.1v-1.2M3.6 60.9h-.7M5.2 62.4v-3.6M5.2 58.8l2.1 3.6M7.2 62.4v-3.6M9 62.4v-3.6M9 58.8h.9M9.8 58.8l.5.2M10.3 59l.3.3M10.7 59.3l.2.3M10.8 59.7l.2.7M11 60.3v.5M11 60.9l-.2.7M10.8 61.5l-.2.3M10.7 61.9l-.3.3M10.3 62.2l-.5.2M9.8 62.4h-.9"/><path style="fill:#ffffc2" d="M56.6 50h43.2v79.2H56.6z"/><path class="st7" d="M56.6 50h43.2v79.2H56.6z"/><path class="st17" d="M78.2 129.2v7.2"/><path class="st9" d="m76.4 124.7-.2.3M76.3 125v.5M76.3 125.5l.2.5M76.4 126.1l.3.3M76.8 126.4l.3.2M77.1 126.6l.7.2M77.8 126.7h.5M78.3 126.7l.7-.2M79 126.6l.3-.2M79.3 126.4l.3-.3M79.7 126.1l.2-.5M79.9 125.5v-.3M79.9 125.2l-.2-.5M79.7 124.7l-.2-.2M79.5 124.5h-1.2M78.3 124.5v.7M79.9 123h-3.6M76.3 123l3.6-2.1M79.9 120.9h-3.6M79.9 119.2h-3.6M76.3 119.2v-.9M76.3 118.3l.2-.5M76.4 117.8l.3-.3M76.8 117.5l.3-.2M77.1 117.3l.7-.2M77.8 117.1h.5M78.3 117.1l.7.2M79 117.3l.3.2M79.3 117.5l.3.3M79.7 117.8l.2.5M79.9 118.3v.9"/><path class="st5" d="M77 131.7v2.1M77 132.8h-3.6M73.4 132.8l.5.3M73.9 133.1l.3.3M74.3 133.4l.2.3"/><path class="st17" d="M99.8 93.2h7.2"/><path class="st9" d="M85.9 91.2h.7M86.6 91.2l.3.2M86.9 91.4l.3.3M87.3 91.7l.2.7M87.5 92.4v1.2M87.5 93.6l-.2.7M87.3 94.3l-.3.3M86.9 94.6l-.3.2M86.6 94.8h-.7M85.9 94.8l-.3-.2M85.6 94.6l-.3-.3M85.2 94.3l-.2-.7M85.1 93.6v-1.2M85.1 92.4l.2-.7M85.2 91.7l.3-.3M85.6 91.4l.3-.2M89 91.2v2.9M89 94.1l.2.3M89.2 94.5l.2.2M89.3 94.6l.3.2M89.7 94.8h.7M90.4 94.8l.3-.2M90.7 94.6l.2-.2M90.9 94.5l.2-.3M91.1 94.1v-2.9M92.3 91.2h2.1M93.3 94.8v-3.6M97.2 91.2h-1.7M95.5 91.2l-.2 1.7M95.3 92.9l.2-.2M95.5 92.7l.3-.2M95.9 92.6h.9M96.7 92.6l.3.2M97.1 92.7l.2.2M97.2 92.9l.2.3M97.4 93.3v.9M97.4 94.1l-.2.3M97.2 94.5l-.2.2M97.1 94.6l-.3.2M96.7 94.8h-.9M95.9 94.8l-.3-.2M95.5 94.6l-.2-.2M84.7 90.2h13"/><path class="st5" d="M102.7 92h-2.1M101.7 92v-3.6M101.7 88.4l-.3.5M101.4 88.9l-.3.3M101 89.2l-.3.2M105 88.4h.3M105.3 88.4l.3.2M105.6 88.5l.2.2M105.8 88.7l.2.3M106 89.1l.2.7M106.2 89.7v.9M106.2 90.6l-.2.7M106 91.3l-.2.3M105.8 91.6l-.2.2M105.6 91.8l-.3.2M105.3 92h-.3M105 92l-.3-.2M104.6 91.8l-.2-.2M104.4 91.6l-.2-.3M104.3 91.3l-.2-.7M104.1 90.6v-.9M104.1 89.7l.2-.7M104.3 89.1l.2-.3M104.4 88.7l.2-.2M104.6 88.5l.3-.2"/><path class="st17" d="M99.8 100.4h7.2"/><path class="st9" d="M85.9 98.4h.7M86.6 98.4l.3.2M86.9 98.6l.3.3M87.3 98.9l.2.7M87.5 99.6v1.2M87.5 100.8l-.2.7M87.3 101.5l-.3.3M86.9 101.8l-.3.2M86.6 102h-.7M85.9 102l-.3-.2M85.6 101.8l-.3-.3M85.2 101.5l-.2-.7M85.1 100.8v-1.2M85.1 99.6l.2-.7M85.2 98.9l.3-.3M85.6 98.6l.3-.2M89 98.4v2.9M89 101.3l.2.3M89.2 101.7l.2.2M89.3 101.8l.3.2M89.7 102h.7M90.4 102l.3-.2M90.7 101.8l.2-.2M90.9 101.7l.2-.3M91.1 101.3v-2.9M92.3 98.4h2.1M93.3 102v-3.6M97.1 98.4h-.7M96.4 98.4l-.3.2M96 98.6l-.2.2M95.9 98.7l-.3.5M95.5 99.3l-.2.7M95.3 99.9v1.4M95.3 101.3l.2.3M95.5 101.7l.2.2M95.7 101.8l.3.2M96 102h.7M96.7 102l.3-.2M97.1 101.8l.2-.2M97.2 101.7l.2-.3M97.4 101.3v-.9M97.4 100.5l-.2-.3M97.2 100.1l-.2-.2M97.1 99.9l-.3-.2M96.7 99.8H96M96 99.8l-.3.2M95.7 99.9l-.2.2M95.5 100.1l-.2.3M84.7 97.4h13"/><path class="st5" d="M102.7 99.2h-2.1M101.7 99.2v-3.6M101.7 95.6l-.3.5M101.4 96.1l-.3.3M101 96.4l-.3.2M106.2 99.2h-2.1M105.1 99.2v-3.6M105.1 95.6l-.3.5M104.8 96.1l-.3.3M104.4 96.4l-.3.2"/><path class="st17" d="M99.8 107.6h7.2"/><path class="st9" d="M85.9 105.6h.7M86.6 105.6l.3.2M86.9 105.8l.3.3M87.3 106.1l.2.7M87.5 106.8v1.2M87.5 108l-.2.7M87.3 108.7l-.3.3M86.9 109l-.3.2M86.6 109.2h-.7M85.9 109.2l-.3-.2M85.6 109l-.3-.3M85.2 108.7l-.2-.7M85.1 108v-1.2M85.1 106.8l.2-.7M85.2 106.1l.3-.3M85.6 105.8l.3-.2M89 105.6v2.9M89 108.5l.2.3M89.2 108.9l.2.2M89.3 109l.3.2M89.7 109.2h.7M90.4 109.2l.3-.2M90.7 109l.2-.2M90.9 108.9l.2-.3M91.1 108.5v-2.9M92.3 105.6h2.1M93.3 109.2v-3.6M95.2 105.6h2.4M97.6 105.6l-1.5 3.6M84.7 104.6h13"/><path class="st5" d="M102.7 106.4h-2.1M101.7 106.4v-3.6M101.7 102.8l-.3.5M101.4 103.3l-.3.3M101 103.6l-.3.2M104.1 103.1l.2-.2M104.3 102.9l.3-.2M104.6 102.8h.9M105.5 102.8l.3.2M105.8 102.9l.2.2M106 103.1l.2.3M106.2 103.5v.3M106.2 103.8l-.2.5M106 104.3l-2.1 2.1M103.9 106.4h2.2"/><path class="st17" d="M56.6 86h-7.2"/><path class="st9" d="M59.9 84h.7M60.6 84l.3.2M60.9 84.2l.3.3M61.2 84.5l.2.7M61.4 85.2v1.2M61.4 86.4l-.2.7M61.2 87.1l-.3.3M60.9 87.4l-.3.2M60.6 87.6h-.7M59.9 87.6l-.3-.2M59.5 87.4l-.3-.3M59.2 87.1l-.2-.7M59 86.4v-1.2M59 85.2l.2-.7M59.2 84.5l.3-.3M59.5 84.2l.3-.2M63 85.7h1.2M64.7 87.6H63M63 87.6V84M63 84h1.7M58.7 83H65M67.2 89l-.2-.2M67.1 88.8l-.3-.5M66.7 88.3l-.2-.3M66.6 87.9l-.2-.5M66.4 87.4l-.2-.9M66.2 86.6v-.7M66.2 85.9l.2-.9M66.4 85l.2-.5M66.6 84.5l.2-.3M66.7 84.2l.3-.5M67.1 83.7l.2-.2M68.6 85.7h1.2M70.3 87.6h-1.7M68.6 87.6V84M68.6 84h1.7M71.9 87.6V84M71.9 84h.9M72.7 84l.5.2M73.2 84.2l.3.3M73.6 84.5l.2.3M73.8 84.9l.2.7M73.9 85.5v.5M73.9 86.1l-.2.7M73.8 86.7l-.2.3M73.6 87.1l-.3.3M73.2 87.4l-.5.2M72.7 87.6h-.9M75.3 84.3l.2-.2M75.5 84.2l.3-.2M75.8 84h.9M76.7 84l.3.2M77 84.2l.2.2M77.2 84.3l.2.3M77.4 84.7v.3M77.4 85l-.2.5M77.2 85.5l-2.1 2.1M75.1 87.6h2.2M78.6 89l.2-.2M78.7 88.8l.3-.5M79.1 88.3l.2-.3M79.2 87.9l.2-.5M79.4 87.4l.2-.9M79.6 86.6v-.7M79.6 85.9l-.2-.9M79.4 85l-.2-.5M79.2 84.5l-.2-.3M79.1 84.2l-.3-.5M78.7 83.7l-.2-.2"/><path class="st5" d="M52.3 84.8h-2.1M51.3 84.8v-3.6M51.3 81.2l-.3.5M51 81.7l-.3.3M50.6 82l-.3.2M53.5 81.2h2.2M55.8 81.2l-1.2 1.4M54.6 82.5h.5M55.1 82.5l.3.2M55.4 82.7l.2.2M55.6 82.9l.2.3M55.8 83.2v.9M55.8 84.1l-.2.3M55.6 84.4l-.2.2M55.4 84.6l-.3.2M55.1 84.8h-1M54 84.8l-.3-.2M53.7 84.6l-.2-.2"/><path class="st17" d="M99.8 122h7.2"/><path class="st9" d="m88 123.4.5.2M88.5 123.6h.9M89.3 123.6l.3-.2M89.7 123.4l.2-.2M89.9 123.3l.2-.3M90 122.9v-.3M90 122.6l-.2-.3M89.9 122.2l-.2-.2M89.7 122.1l-.3-.2M89.3 121.9l-.7-.2M88.7 121.7l-.3-.2M88.3 121.5l-.2-.2M88.1 121.4l-.2-.3M88 121v-.3M88 120.7l.2-.3M88.1 120.3l.2-.2M88.3 120.2l.3-.2M88.7 120h.9M89.5 120l.5.2M91.6 123.6V120M91.6 120h.9M92.4 120l.5.2M92.9 120.2l.3.3M93.3 120.5l.2.3M93.5 120.9l.2.7M93.6 121.5v.5M93.6 122.1l-.2.7M93.5 122.7l-.2.3M93.3 123.1l-.3.3M92.9 123.4l-.5.2M92.4 123.6h-.9M95.9 120h.7M96.5 120l.3.2M96.9 120.2l.3.3M97.2 120.5l.2.7M97.4 121.2v1.2M97.4 122.4l-.2.7M97.2 123.1l-.3.3M96.9 123.4l-.3.2M96.5 123.6h-.7M95.9 123.6l-.3-.2M95.5 123.4l-.3-.3M95.2 123.1l-.2-.7M95 122.4v-1.2M95 121.2l.2-.7M95.2 120.5l.3-.3M95.5 120.2l.3-.2"/><path class="st5" d="M102.7 120.8h-2.1M101.7 120.8v-3.6M101.7 117.2l-.3.5M101.4 117.7l-.3.3M101 118l-.3.2M105.8 118.4v2.4M105 117l-.9 2.6M104.1 119.6h2.2"/><path class="st17" d="M56.6 107.6h-7.2"/><path class="st9" d="m61.2 109.2-1.2-1.7M59.2 109.2v-3.6M59.2 105.6h1.4M60.6 105.6l.3.2M60.9 105.8l.2.2M61.1 105.9l.2.3M61.2 106.3v.5M61.2 106.8l-.2.3M61.1 107.1l-.2.2M60.9 107.3l-.3.2M60.6 107.5h-1.4M62.8 107.8h2.7M67.2 107.3h1.2M69 109.2h-1.7M67.2 109.2v-3.6M67.2 105.6h1.7M70.2 105.6l2.4 3.6M72.6 105.6l-2.4 3.6M73.4 105.6h2.1M74.4 109.2v-3.6"/><path class="st5" d="M52.3 106.4h-2.1M51.3 106.4v-3.6M51.3 102.8l-.3.5M51 103.3l-.3.3M50.6 103.6l-.3.2M55.6 102.8h-1.7M53.9 102.8l-.2 1.7M53.7 104.5l.2-.2M53.9 104.3l.3-.2M54.2 104.1h.9M55.1 104.1l.3.2M55.4 104.3l.2.2M55.6 104.5l.2.3M55.8 104.8v.9M55.8 105.7l-.2.3M55.6 106l-.2.2M55.4 106.2l-.3.2M55.1 106.4h-.9M54.2 106.4l-.3-.2M53.9 106.2l-.2-.2"/><path class="st17" d="M78.2 50v-7.2"/><path class="st9" d="m76.3 61.6 3.6-1.2M79.9 60.4l-3.6-1.2M79.9 58h-3.6M76.3 58v-.9M76.3 57.2l.2-.5M76.4 56.6l.3-.3M76.8 56.3l.3-.2M77.1 56.1l.7-.2M77.8 56h.5M78.3 56l.7.2M79 56.1l.3.2M79.3 56.3l.3.3M79.7 56.6l.2.5M79.9 57.2v.9M79.9 54.4h-3.6M76.3 54.4v-.9M76.3 53.6l.2-.5M76.4 53l.3-.3M76.8 52.7l.3-.2M77.1 52.5l.7-.2M77.8 52.4h.5M78.3 52.4l.7.2M79 52.5l.3.2M79.3 52.7l.3.3M79.7 53l.2.5M79.9 53.6v.9"/><path class="st5" d="M77 47v2.1M77 48.1h-3.6M73.4 48.1l.5.3M73.9 48.4l.3.3M74.3 48.8l.2.3M73.4 44v.7M73.4 44.6l.2.3M73.6 45l.2.2M73.8 45.2l.5.3M74.3 45.5l.7.2M75 45.7h1.4M76.3 45.7l.3-.2M76.7 45.5l.2-.2M76.9 45.3l.2-.3M77 45v-.7M77 44.3l-.2-.3M76.9 44l-.2-.2M76.7 43.8l-.3-.2M76.3 43.6h-.9M75.5 43.6l-.3.2M75.1 43.8l-.2.2M75 44l-.2.3M74.8 44.3v.7M74.8 45l.2.3M75 45.3l.2.2M75.1 45.5l.3.2"/><path class="st17" d="M56.6 57.2h-7.2"/><path class="st9" d="m59 58.6.5.2M59.5 58.8h.9M60.4 58.8l.3-.2M60.7 58.6l.2-.2M60.9 58.5l.2-.3M61.1 58.1v-.3M61.1 57.8l-.2-.3M60.9 57.4l-.2-.2M60.7 57.3l-.3-.2M60.4 57.1l-.7-.2M59.7 56.9l-.3-.2M59.4 56.7l-.2-.2M59.2 56.6l-.2-.3M59 56.2v-.3M59 55.9l.2-.3M59.2 55.5l.2-.2M59.4 55.4l.3-.2M59.7 55.2h.9M60.6 55.2l.5.2M62.6 58.8v-3.6M62.6 55.2h.9M63.5 55.2l.5.2M64 55.4l.3.3M64.3 55.7l.2.3M64.5 56.1l.2.7M64.7 56.7v.5M64.7 57.3l-.2.7M64.5 57.9l-.2.3M64.3 58.3l-.3.3M64 58.6l-.5.2M63.5 58.8h-.9M66.2 58.8v-3.6"/><path class="st5" d="m52 52.7.2-.2M52.2 52.5l.3-.2M52.5 52.4h.9M53.4 52.4l.3.2M53.7 52.5l.2.2M53.9 52.7l.2.3M54 53.1v.3M54 53.4l-.2.5M53.9 53.9 51.8 56M51.8 56H54"/><path class="st17" d="M56.6 64.4h-7.2"/><path class="st9" d="m61.2 65.7-.2.2M61.1 65.8l-.5.2M60.6 66h-.3M60.2 66l-.5-.2M59.7 65.8l-.3-.3M59.4 65.5l-.2-.3M59.2 65.1l-.2-.7M59 64.5V64M59 63.9l.2-.7M59.2 63.3l.2-.3M59.4 62.9l.3-.3M59.7 62.6l.5-.2M60.2 62.4h.3M60.6 62.4l.5.2M61.1 62.6l.2.2M64.5 66h-1.7M62.8 66v-3.6M65.7 66v-3.6M67.8 66l-1.5-2.1M67.8 62.4l-2.1 2.1"/><path class="st5" d="M51.8 59.6H54M54 59.6 52.8 61M52.8 60.9h.5M53.4 60.9l.3.2M53.7 61.1l.2.2M53.9 61.3l.2.3M54 61.6v.9M54 62.5l-.2.3M53.9 62.8l-.2.2M53.7 63l-.3.2M53.4 63.2h-1M52.3 63.2 52 63M52 63l-.2-.2"/><path class="st17" d="M56.6 71.6h-7.2"/><path class="st9" d="M60.9 73.2h-1.7M59.2 73.2v-3.6M62.1 71.3h1.2M63.8 73.2h-1.7M62.1 73.2v-3.6M62.1 69.6h1.7M66.4 74.6l-.2-.2M66.2 74.4l-.3-.5M65.9 73.9l-.2-.3M65.7 73.5l-.2-.5M65.5 73l-.2-.9M65.4 72.2v-.7M65.4 71.5l.2-.9M65.5 70.6l.2-.5M65.7 70.1l.2-.3M65.9 69.8l.3-.5M66.2 69.3l.2-.2M67.8 71.3H69M69.5 73.2h-1.7M67.8 73.2v-3.6M67.8 69.6h1.7M71 73.2v-3.6M71 69.6h.9M71.9 69.6l.5.2M72.4 69.8l.3.3M72.7 70.1l.2.3M72.9 70.5l.2.7M73.1 71.1v.5M73.1 71.7l-.2.7M72.9 72.3l-.2.3M72.7 72.7l-.3.3M72.4 73l-.5.2M71.9 73.2H71M76.5 73.2h-2.1M75.5 73.2v-3.6M75.5 69.6l-.3.5M75.1 70.1l-.3.3M74.8 70.5l-.3.2M77.7 74.6l.2-.2M77.9 74.4l.3-.5M78.2 73.9l.2-.3M78.4 73.5l.2-.5M78.6 73l.2-.9M78.7 72.2v-.7M78.7 71.5l-.2-.9M78.6 70.6l-.2-.5M78.4 70.1l-.2-.3M78.2 69.8l-.3-.5M77.9 69.3l-.2-.2"/><path class="st5" d="M53.7 68v2.4M52.8 66.6l-.9 2.6M52 69.2h2.2"/><path class="st17" d="M99.8 57.2h7.2"/><path class="st9" d="M85.9 55.2h.7M86.6 55.2l.3.2M86.9 55.4l.3.3M87.3 55.7l.2.7M87.5 56.4v1.2M87.5 57.6l-.2.7M87.3 58.3l-.3.3M86.9 58.6l-.3.2M86.6 58.8h-.7M85.9 58.8l-.3-.2M85.6 58.6l-.3-.3M85.2 58.3l-.2-.7M85.1 57.6v-1.2M85.1 56.4l.2-.7M85.2 55.7l.3-.3M85.6 55.4l.3-.2M89 55.2v2.9M89 58.1l.2.3M89.2 58.5l.2.2M89.3 58.6l.3.2M89.7 58.8h.7M90.4 58.8l.3-.2M90.7 58.6l.2-.2M90.9 58.5l.2-.3M91.1 58.1v-2.9M92.3 55.2h2.1M93.3 58.8v-3.6M96.2 55.2h.3M96.5 55.2l.3.2M96.9 55.4l.2.2M97.1 55.5l.2.3M97.2 55.9l.2.7M97.4 56.6v.9M97.4 57.4l-.2.7M97.2 58.1l-.2.3M97.1 58.5l-.2.2M96.9 58.6l-.3.2M96.5 58.8h-.3M96.2 58.8l-.3-.2M95.9 58.6l-.2-.2M95.7 58.5l-.2-.3M95.5 58.1l-.2-.7M95.3 57.4v-.9M95.3 56.6l.2-.7M95.5 55.9l.2-.3M95.7 55.5l.2-.2M95.9 55.4l.3-.2M84.7 54.2h13"/><path class="st5" d="M104.3 52.4h-1.7M102.6 52.4l-.2 1.7M102.4 54.1l.2-.2M102.6 53.9l.3-.2M102.9 53.7h.9M103.8 53.7l.3.2M104.1 53.9l.2.2M104.3 54.1l.2.3M104.4 54.4v.9M104.4 55.3l-.2.3M104.3 55.6l-.2.2M104.1 55.8l-.3.2M103.8 56h-.9M102.9 56l-.3-.2M102.6 55.8l-.2-.2"/><path class="st17" d="M99.8 64.4h7.2"/><path class="st9" d="M85.9 62.4h.7M86.6 62.4l.3.2M86.9 62.6l.3.3M87.3 62.9l.2.7M87.5 63.6v1.2M87.5 64.8l-.2.7M87.3 65.5l-.3.3M86.9 65.8l-.3.2M86.6 66h-.7M85.9 66l-.3-.2M85.6 65.8l-.3-.3M85.2 65.5l-.2-.7M85.1 64.8v-1.2M85.1 63.6l.2-.7M85.2 62.9l.3-.3M85.6 62.6l.3-.2M89 62.4v2.9M89 65.3l.2.3M89.2 65.7l.2.2M89.3 65.8l.3.2M89.7 66h.7M90.4 66l.3-.2M90.7 65.8l.2-.2M90.9 65.7l.2-.3M91.1 65.3v-2.9M92.3 62.4h2.1M93.3 66v-3.6M97.4 66h-2.1M96.4 66v-3.6M96.4 62.4l-.3.5M96 62.9l-.3.3M95.7 63.3l-.3.2M84.7 61.4h13"/><path class="st5" d="M104.1 59.6h-.7M103.4 59.6l-.3.2M103.1 59.7l-.2.2M102.9 59.9l-.3.5M102.6 60.4l-.2.7M102.4 61.1v1.4M102.4 62.5l.2.3M102.6 62.8l.2.2M102.7 63l.3.2M103.1 63.2h.7M103.8 63.2l.3-.2M104.1 63l.2-.2M104.3 62.8l.2-.3M104.4 62.5v-.9M104.4 61.6l-.2-.3M104.3 61.3l-.2-.2M104.1 61.1l-.3-.2M103.8 60.9h-.7M103.1 60.9l-.3.2M102.7 61.1l-.2.2M102.6 61.3l-.2.3"/><path class="st17" d="M99.8 71.6h7.2"/><path class="st9" d="M85.9 69.6h.7M86.6 69.6l.3.2M86.9 69.8l.3.3M87.3 70.1l.2.7M87.5 70.8V72M87.5 72l-.2.7M87.3 72.7l-.3.3M86.9 73l-.3.2M86.6 73.2h-.7M85.9 73.2l-.3-.2M85.6 73l-.3-.3M85.2 72.7 85 72M85.1 72v-1.2M85.1 70.8l.2-.7M85.2 70.1l.3-.3M85.6 69.8l.3-.2M89 69.6v2.9M89 72.5l.2.3M89.2 72.9l.2.2M89.3 73l.3.2M89.7 73.2h.7M90.4 73.2l.3-.2M90.7 73l.2-.2M90.9 72.9l.2-.3M91.1 72.5v-2.9M92.3 69.6h2.1M93.3 73.2v-3.6M95.3 69.9l.2-.2M95.5 69.8l.3-.2M95.9 69.6h.9M96.7 69.6l.3.2M97.1 69.8l.2.2M97.2 69.9l.2.3M97.4 70.3v.3M97.4 70.6l-.2.5M97.2 71.1l-2.1 2.1M95.2 73.2h2.2M84.7 68.6h13"/><path class="st5" d="M102.2 66.8h2.4M104.6 66.8l-1.5 3.6"/><path class="st17" d="M99.8 78.8h7.2"/><path class="st9" d="M85.9 76.8h.7M86.6 76.8l.3.2M86.9 77l.3.3M87.3 77.3l.2.7M87.5 78v1.2M87.5 79.2l-.2.7M87.3 79.9l-.3.3M86.9 80.2l-.3.2M86.6 80.4h-.7M85.9 80.4l-.3-.2M85.6 80.2l-.3-.3M85.2 79.9l-.2-.7M85.1 79.2V78M85.1 78l.2-.7M85.2 77.3l.3-.3M85.6 77l.3-.2M89 76.8v2.9M89 79.7l.2.3M89.2 80.1l.2.2M89.3 80.2l.3.2M89.7 80.4h.7M90.4 80.4l.3-.2M90.7 80.2l.2-.2M90.9 80.1l.2-.3M91.1 79.7v-2.9M92.3 76.8h2.1M93.3 80.4v-3.6M95.2 76.8h2.2M97.4 76.8l-1.2 1.4M96.2 78.2h.5M96.7 78.2l.3.2M97.1 78.3l.2.2M97.2 78.5l.2.3M97.4 78.9v.9M97.4 79.7l-.2.3M97.2 80.1l-.2.2M97.1 80.2l-.3.2M96.7 80.4h-1M95.7 80.4l-.3-.2M95.3 80.2l-.2-.2M84.7 75.8h13"/><path class="st5" d="m103.1 75.5-.3-.2M102.7 75.3l-.2-.2M102.6 75.2l-.2-.3M102.4 74.8v-.2M102.4 74.7l.2-.3M102.6 74.3l.2-.2M102.7 74.1l.3-.2M103.1 74h.7M103.8 74l.3.2M104.1 74.1l.2.2M104.3 74.3l.2.3M104.4 74.7v.2M104.4 74.8l-.2.3M104.3 75.2l-.2.2M104.1 75.3l-.3.2M103.8 75.5h-.7M103.1 75.5l-.3.2M102.7 75.7l-.2.2M102.6 75.9l-.2.3M102.4 76.2v.7M102.4 76.9l.2.3M102.6 77.2l.2.2M102.7 77.4l.3.2M103.1 77.6h.7M103.8 77.6l.3-.2M104.1 77.4l.2-.2M104.3 77.2l.2-.3M104.4 76.9v-.7M104.4 76.2l-.2-.3M104.3 75.9l-.2-.2M104.1 75.7l-.3-.2"/><path class="st17" d="M99.8 86h7.2"/><path class="st9" d="M85.9 84h.7M86.6 84l.3.2M86.9 84.2l.3.3M87.3 84.5l.2.7M87.5 85.2v1.2M87.5 86.4l-.2.7M87.3 87.1l-.3.3M86.9 87.4l-.3.2M86.6 87.6h-.7M85.9 87.6l-.3-.2M85.6 87.4l-.3-.3M85.2 87.1l-.2-.7M85.1 86.4v-1.2M85.1 85.2l.2-.7M85.2 84.5l.3-.3M85.6 84.2l.3-.2M89 84v2.9M89 86.9l.2.3M89.2 87.3l.2.2M89.3 87.4l.3.2M89.7 87.6h.7M90.4 87.6l.3-.2M90.7 87.4l.2-.2M90.9 87.3l.2-.3M91.1 86.9V84M92.3 84h2.1M93.3 87.6V84M97.1 85.2v2.4M96.2 83.8l-.9 2.6M95.3 86.4h2.2M84.7 83h13"/><path class="st5" d="M102.7 84.8h.7M103.4 84.8l.3-.2M103.8 84.6l.2-.2M103.9 84.4l.3-.5M104.3 83.9l.2-.7M104.4 83.2v-1.4M104.4 81.9l-.2-.3M104.3 81.5l-.2-.2M104.1 81.3l-.3-.2M103.8 81.2h-.7M103.1 81.2l-.3.2M102.7 81.3l-.2.2M102.6 81.5l-.2.3M102.4 81.9v.9M102.4 82.7l.2.3M102.6 83.1l.2.2M102.7 83.2l.3.2M103.1 83.4h.7M103.8 83.4l.3-.2M104.1 83.2l.2-.2M104.3 83.1l.2-.3"/><path class="st9" d="M85.1 40.8h2.1M86.1 44.4v-3.6M90.1 44.4h-1.7M88.3 44.4v-3.6M93.3 44.1l-.2.2M93.1 44.2l-.5.2M92.6 44.4h-.3M92.3 44.4l-.5-.2M91.8 44.2l-.3-.3M91.4 43.9l-.2-.3M91.3 43.5l-.2-.7M91.1 42.9v-.5M91.1 42.3l.2-.7M91.3 41.7l.2-.3M91.4 41.3l.3-.3M91.8 41l.5-.2M92.3 40.8h.3M92.6 40.8l.5.2M93.1 41l.2.2M96.6 40.8h-1.7M94.9 40.8l-.2 1.7M94.7 42.5l.2-.2M94.9 42.3l.3-.2M95.2 42.2h.9M96.1 42.2l.3.2M96.4 42.3l.2.2M96.6 42.5l.2.3M96.7 42.9v.9M96.7 43.7l-.2.3M96.6 44.1l-.2.2M96.4 44.2l-.3.2M96.1 44.4h-.9M95.2 44.4l-.3-.2M94.9 44.2l-.2-.2M98.5 44.4h.7M99.1 44.4l.3-.2M99.5 44.2l.2-.2M99.7 44.1l.3-.5M100 43.5l.2-.7M100.2 42.9v-1.4M100.2 41.5l-.2-.3M100 41.1l-.2-.2M99.8 41l-.3-.2M99.5 40.8h-.7M98.8 40.8l-.3.2M98.5 41l-.2.2M98.3 41.1l-.2.3M98.1 41.5v.9M98.1 42.3l.2.3M98.3 42.7l.2.2M98.5 42.9l.3.2M98.8 43h.7M99.5 43l.3-.2M99.8 42.9l.2-.2M100 42.7l.2-.3M103.6 44.4h-2.1M102.6 44.4v-3.6M102.6 40.8l-.3.5M102.2 41.3l-.3.3M101.9 41.7l-.3.2M104.8 40.8h2.4M107.2 40.8l-1.5 3.6"/><path style="stroke-width:.6px;stroke:#840000;fill:none;stroke-linecap:round;stroke-linejoin:round" d="M47.3 109.7h4.3v10.1h-4.3z"/><path class="st17" d="M49.4 119.8v2.2M49.4 109.7v-2.2"/><path class="st9" d="M37.3 116.4h-2.1M36.3 116.4v-3.6M36.3 112.8l-.3.5M36 113.3l-.3.3M35.6 113.7l-.3.2M38.9 116.1l.2.2M39.1 116.2l-.2.2M38.9 116.4l-.2-.2M38.7 116.2l.2-.2M38.9 116.1v.3M42.1 112.8h-.7M41.5 112.8l-.3.2M41.1 113l-.2.2M40.9 113.1l-.3.5M40.6 113.7l-.2.7M40.4 114.3v1.4M40.4 115.7l.2.3M40.6 116.1l.2.2M40.8 116.2l.3.2M41.1 116.4h.7M41.8 116.4l.3-.2M42.1 116.2l.2-.2M42.3 116.1l.2-.3M42.5 115.7v-.9M42.5 114.9l-.2-.3M42.3 114.5l-.2-.2M42.1 114.3l-.3-.2M41.8 114.2h-.7M41.1 114.2l-.3.2M40.8 114.3l-.2.2M40.6 114.5l-.2.3M44 116.4v-3.6M44.4 115l1 1.4M45.4 114l-1.4 1.4"/><path class="st17" d="m76.1 28.4 2.2-3.6M78.2 32v-7.2M78.2 24.8l2.2 3.6M78.2 32h0"/><path class="st9" d="M73.6 17.8h2.7M75 19.2v-2.7M79.8 15.6h-1.7M78 15.6l-.2 1.7M77.9 17.3l.2-.2M78 17.1l.3-.2M78.4 17h.9M79.2 17l.3.2M79.6 17.1l.2.2M79.8 17.3l.2.3M79.9 17.7v.9M79.9 18.5l-.2.3M79.8 18.9l-.2.2M79.6 19l-.3.2M79.2 19.2h-.9M78.4 19.2l-.3-.2M78 19l-.2-.2M81 15.6l1.2 3.6M82.2 19.2l1.2-3.6"/><path class="st15" d="m31 62.6-.2.2M30.8 62.7l-.5.2M30.3 62.9H30M30 62.9l-.5-.2M29.5 62.7l-.3-.3M29.1 62.4l-.2-.3M29 62l-.2-.7M28.8 61.4v-.5M28.8 60.8l.2-.7M29 60.2l.2-.3M29.1 59.8l.3-.3M29.5 59.5l.5-.2M30 59.3h.3M30.3 59.3l.5.2M30.8 59.5l.2.2M34.3 62.9h-1.7M32.6 62.9v-3.6M36.2 59.3h.7M36.8 59.3l.3.2M37.2 59.5l.3.3M37.5 59.8l.2.7M37.7 60.5v1.2M37.7 61.7l-.2.7M37.5 62.4l-.3.3M37.2 62.7l-.3.2M36.8 62.9h-.7M36.2 62.9l-.3-.2M35.8 62.7l-.3-.3M35.5 62.4l-.2-.7M35.3 61.7v-1.2M35.3 60.5l.2-.7M35.5 59.8l.3-.3M35.8 59.5l.3-.2M41.3 62.6l-.2.2M41.1 62.7l-.5.2M40.6 62.9h-.3M40.3 62.9l-.5-.2M39.8 62.7l-.3-.3M39.4 62.4l-.2-.3M39.2 62l-.2-.7M39.1 61.4v-.5M39.1 60.8l.2-.7M39.2 60.2l.2-.3M39.4 59.8l.3-.3M39.8 59.5l.5-.2M40.3 59.3h.3M40.6 59.3l.5.2M41.1 59.5l.2.2M42.8 62.9v-3.6M44.9 62.9l-1.5-2.1M44.9 59.3l-2.1 2.1M30.7 70.1H29M29 70.1v-3.6M31.7 69.1h1.7M31.4 70.1l1.2-3.6M32.6 66.5l1.2 3.6M34.4 66.5h2.1M35.5 70.1v-3.6M39.8 69.8l-.2.2M39.6 69.9l-.5.2M39.1 70.1h-.3M38.7 70.1l-.5-.2M38.2 69.9l-.3-.3M37.9 69.6l-.2-.3M37.7 69.2l-.2-.7M37.5 68.6v-.5M37.5 68l.2-.7M37.7 67.4l.2-.3M37.9 67l.3-.3M38.2 66.7l.5-.2M38.7 66.5h.3M39.1 66.5l.5.2M39.6 66.7l.2.2M41.3 70.1v-3.6M41.3 68.2h2.1M43.4 70.1v-3.6M29 55.7v-3.6M29 52.1h.9M29.8 52.1l.5.2M30.3 52.3l.3.3M30.7 52.6l.2.3M30.8 53l.2.7M31 53.6v.5M31 54.2l-.2.7M30.8 54.8l-.2.3M30.7 55.2l-.3.3M30.3 55.5l-.5.2M29.8 55.7h-.9M32.4 54.7h1.7M32 55.7l1.2-3.6M33.2 52.1l1.2 3.6M35.1 52.1h2.1M36.2 55.7v-3.6M38.2 54.7h1.7M37.9 55.7l1.2-3.6M39.1 52.1l1.2 3.6"/><path class="st13" d="M51.9 4.8V1.2M51.9 1.2h.9M52.7 1.2l.5.2M53.2 1.4l.3.3M53.6 1.7l.2.3M53.7 2l.2.7M53.9 2.7v.5M53.9 3.2l-.2.7M53.7 3.9l-.2.3M53.6 4.3l-.3.3M53.2 4.6l-.5.2M52.7 4.8h-.9M56.8 4.6l-.3.2M56.5 4.8h-.7M55.8 4.8l-.3-.2M55.5 4.6l-.2-.3M55.3 4.3V2.9M55.3 2.9l.2-.3M55.5 2.6l.3-.2M55.8 2.4h.7M56.5 2.4l.3.2M56.8 2.6l.2.3M57 2.9v.3M57 3.2l-1.7.3M60.1 4.8V1.2M60.1 4.6l-.3.2M59.7 4.8H59M59.1 4.8l-.3-.2M58.7 4.6l-.2-.2M58.5 4.4l-.2-.3M58.4 4.1v-1M58.4 3.1l.2-.3M58.5 2.7l.2-.2M58.7 2.6l.3-.2M59.1 2.4h.7M59.7 2.4l.3.2M61.8 4.8V2.4M61.8 1.2l-.2.2M61.6 1.4l.2.2M61.8 1.5l.2-.2M62 1.4l-.2-.2M61.8 1.2v.3M65.1 4.6l-.3.2M64.7 4.8H64M64 4.8l-.3-.2M63.7 4.6l-.2-.2M63.5 4.4l-.2-.3M63.3 4.1v-1M63.3 3.1l.2-.3M63.5 2.7l.2-.2M63.7 2.6l.3-.2M64 2.4h.7M64.7 2.4l.3.2M68.1 4.8V2.9M68.1 2.9l-.2-.3M68 2.6l-.3-.2M67.6 2.4h-.7M66.9 2.4l-.3.2M68.1 4.6l-.3.2M67.8 4.8h-.9M66.9 4.8l-.3-.2M66.6 4.6l-.2-.3M66.4 4.3V4M66.4 3.9l.2-.3M66.6 3.6l.3-.2M66.9 3.4h.9M67.8 3.4l.3-.2M69.3 2.4h1.4M69.9 1.2v3.1M69.9 4.3l.2.3M70 4.6l.3.2M70.4 4.8h.3M73.3 4.6l-.3.2M72.9 4.8h-.7M72.3 4.8l-.3-.2M71.9 4.6l-.2-.3M71.7 4.3V2.9M71.7 2.9l.2-.3M71.9 2.6l.3-.2M72.3 2.4h.7M72.9 2.4l.3.2M73.3 2.6l.2.3M73.5 2.9v.3M73.5 3.2l-1.7.3M76.5 4.8V1.2M76.5 4.6l-.3.2M76.2 4.8h-.7M75.5 4.8l-.3-.2M75.2 4.6l-.2-.2M75 4.4l-.2-.3M74.8 4.1v-1M74.8 3.1l.2-.3M75 2.7l.2-.2M75.2 2.6l.3-.2M75.5 2.4h.7M76.2 2.4l.3.2M81 3.4h2.7M82.4 4.8V2.1M87.2 1.2h-1.7M85.5 1.2l-.2 1.7M85.3 2.9l.2-.2M85.5 2.7l.3-.2M85.8 2.6h.9M86.7 2.6l.3.2M87 2.7l.2.2M87.2 2.9l.2.3M87.3 3.2v.9M87.3 4.1l-.2.3M87.2 4.4l-.2.2M87 4.6l-.3.2M86.7 4.8h-.9M85.8 4.8l-.3-.2M85.5 4.6l-.2-.2M88.4 1.2l1.2 3.6M89.6 4.8l1.2-3.6M94.7 2.4V6M94.7 2.6l.3-.2M95.1 2.4h.7M95.7 2.4l.3.2M96.1 2.6l.2.2M96.3 2.7l.2.3M96.4 3.1v1M96.4 4.1l-.2.3M96.3 4.4l-.2.2M96.1 4.6l-.3.2M95.7 4.8H95M95.1 4.8l-.3-.2M98.5 4.8l-.3-.2M98.1 4.6l-.2-.2M98 4.4l-.2-.3M97.8 4.1v-1M97.8 3.1l.2-.3M98 2.7l.2-.2M98.1 2.6l.3-.2M98.5 2.4h.5M99 2.4l.3.2M99.3 2.6l.2.2M99.5 2.7l.2.3M99.7 3.1v1M99.7 4.1l-.2.3M99.5 4.4l-.2.2M99.3 4.6l-.3.2M99 4.8h-.5M100.9 2.4l.7 2.4M101.6 4.8l.7-1.7M102.3 3.1l.7 1.7M102.9 4.8l.7-2.4M106.4 4.6l-.3.2M106 4.8h-.7M105.3 4.8l-.3-.2M105 4.6l-.2-.3M104.8 4.3V2.9M104.8 2.9l.2-.3M105 2.6l.3-.2M105.3 2.4h.7M106 2.4l.3.2M106.4 2.6l.2.3M106.5 2.9v.3M106.5 3.2l-1.7.3M108.1 4.8V2.4M108.1 3.1l.2-.3M108.3 2.7l.2-.2M108.4 2.6l.3-.2M108.8 2.4h.3M110.5 4.6v.2M110.5 4.8l-.2.3M110.3 5.1l-.2.2M34.7 8.2v2.4M34.7 8.5l.2-.2M34.9 8.4l.3-.2M35.2 8.2h.5M35.7 8.2l.3.2M36.1 8.4l.2.3M36.3 8.7v1.9M38.5 10.6l-.3-.2M38.1 10.4l-.2-.2M38 10.2l-.2-.3M37.8 9.9v-1M37.8 8.9l.2-.3M38 8.5l.2-.2M38.1 8.4l.3-.2M38.5 8.2h.5M39 8.2l.3.2M39.3 8.4l.2.2M39.5 8.5l.2.3M39.7 8.9v1M39.7 9.9l-.2.3M39.5 10.2l-.2.2M39.3 10.4l-.3.2M39 10.6h-.5M40.7 8.2h1.4M41.2 7v3.1M41.2 10.1l.2.3M41.4 10.4l.3.2M41.7 10.6h.3M45.5 8.2h1.4M46 10.6V7.5M46 7.5l.2-.3M46.2 7.2l.3-.2M46.5 7h.3M48.1 10.6V8.2M48.1 8.9l.2-.3M48.3 8.5l.2-.2M48.4 8.4l.3-.2M48.8 8.2h.3M50.8 10.6l-.3-.2M50.5 10.4l-.2-.2M50.3 10.2l-.2-.3M50.1 9.9v-1M50.1 8.9l.2-.3M50.3 8.5l.2-.2M50.5 8.4l.3-.2M50.8 8.2h.5M51.3 8.2l.3.2M51.7 8.4l.2.2M51.9 8.5l.2.3M52 8.9v1M52 9.9l-.2.3M51.9 10.2l-.2.2M51.7 10.4l-.3.2M51.3 10.6h-.5M53.6 10.6V8.2M53.6 8.5l.2-.2M53.7 8.4l.3-.2M54.1 8.2h.5M54.6 8.2l.3.2M54.9 8.4l.2.3M55.1 8.7v1.9M55.1 8.7l.2-.3M55.3 8.4l.3-.2M55.6 8.2h.5M56.1 8.2l.3.2M56.5 8.4l.2.3M56.7 8.7v1.9M62.7 10.6V8.7M62.7 8.7l-.2-.3M62.5 8.4l-.3-.2M62.1 8.2h-.7M61.5 8.2l-.3.2M62.7 10.4l-.3.2M62.3 10.6h-.9M61.5 10.6l-.3-.2M61.1 10.4l-.2-.3M60.9 10.1v-.3M60.9 9.7l.2-.3M61.1 9.4l.3-.2M61.5 9.2h.9M62.3 9.2l.3-.2M67.1 9.2h2.7M68.5 10.6V7.9M73.3 7h-1.7M71.6 7l-.2 1.7M71.4 8.7l.2-.2M71.6 8.5l.3-.2M71.9 8.4h.9M72.8 8.4l.3.2M73.1 8.5l.2.2M73.3 8.7l.2.3M73.5 9v.9M73.5 9.9l-.2.3M73.3 10.2l-.2.2M73.1 10.4l-.3.2M72.8 10.6h-.9M71.9 10.6l-.3-.2M71.6 10.4l-.2-.2M74.5 7l1.2 3.6M75.7 10.6 76.9 7M80.8 8.2v3.6M80.8 8.4l.3-.2M81.2 8.2h.7M81.9 8.2l.3.2M82.2 8.4l.2.2M82.4 8.5l.2.3M82.5 8.9v1M82.5 9.9l-.2.3M82.4 10.2l-.2.2M82.2 10.4l-.3.2M81.9 10.6h-.7M81.2 10.6l-.3-.2M84.1 10.6V8.2M84.1 7l-.2.2M83.9 7.2l.2.2M84.1 7.3l.2-.2M84.3 7.2l-.2-.2M84.1 7v.3M85.8 8.2v2.4M85.8 8.5l.2-.2M86 8.4l.3-.2M86.3 8.2h.5M86.8 8.2l.3.2M87.2 8.4l.2.3M87.3 8.7v1.9M92.3 10.6l-.3-.2M92 10.4l-.2-.2M91.8 10.2l-.2-.3M91.6 9.9v-1M91.6 8.9l.2-.3M91.8 8.5l.2-.2M92 8.4l.3-.2M92.3 8.2h.5M92.8 8.2l.3.2M93.2 8.4l.2.2M93.3 8.5l.2.3M93.5 8.9v1M93.5 9.9l-.2.3M93.3 10.2l-.2.2M93.2 10.4l-.3.2M92.8 10.6h-.5M95.1 8.2v2.4M95.1 8.5l.2-.2M95.2 8.4l.3-.2M95.6 8.2h.5M96.1 8.2l.3.2M96.4 8.4l.2.3M96.6 8.7v1.9M100.5 8.2h1.4M101.1 7v3.1M101.1 10.1l.2.3M101.2 10.4l.3.2M101.6 10.6h.3M103.1 10.6V7M104.7 10.6V8.7M104.7 8.7l-.2-.3M104.5 8.4l-.3-.2M104.1 8.2h-.5M103.6 8.2l-.3.2M103.3 8.4l-.2.2M107.7 10.4l-.3.2M107.4 10.6h-.7M106.7 10.6l-.3-.2M106.4 10.4l-.2-.3M106.2 10.1V8.7M106.2 8.7l.2-.3M106.4 8.4l.3-.2M106.7 8.2h.7M107.4 8.2l.3.2M107.7 8.4l.2.3M107.9 8.7V9M107.9 9l-1.7.3M112.2 10.6V7M112.2 8.4l.3-.2M112.5 8.2h.7M113.2 8.2l.3.2M113.6 8.4l.2.2M113.7 8.5l.2.3M113.9 8.9v1M113.9 9.9l-.2.3M113.7 10.2l-.2.2M113.6 10.4l-.3.2M113.2 10.6h-.7M112.5 10.6l-.3-.2M116 10.6l-.3-.2M115.6 10.4l-.2-.2M115.5 10.2l-.2-.3M115.3 9.9v-1M115.3 8.9l.2-.3M115.5 8.5l.2-.2M115.6 8.4l.3-.2M116 8.2h.5M116.5 8.2l.3.2M116.8 8.4l.2.2M117 8.5l.2.3M117.2 8.9v1M117.2 9.9l-.2.3M117 10.2l-.2.2M116.8 10.4l-.3.2M116.5 10.6h-.5M120.3 10.6V8.7M120.3 8.7l-.2-.3M120.1 8.4l-.3-.2M119.7 8.2h-.7M119.1 8.2l-.3.2M120.3 10.4l-.3.2M119.9 10.6h-.9M119.1 10.6l-.3-.2M118.7 10.4l-.2-.3M118.5 10.1v-.3M118.5 9.7l.2-.3M118.7 9.4l.3-.2M119.1 9.2h.9M119.9 9.2l.3-.2M122 10.6V8.2M122 8.9l.2-.3M122.1 8.5l.2-.2M122.3 8.4l.3-.2M122.7 8.2h.3M125.7 10.6V7M125.7 10.4l-.3.2M125.4 10.6h-.7M124.7 10.6l-.3-.2M124.4 10.4l-.2-.2M124.2 10.2l-.2-.3M124 9.9v-1M124 8.9l.2-.3M124.2 8.5l.2-.2M124.4 8.4l.3-.2M124.7 8.2h.7M125.4 8.2l.3.2M127.5 10.2l.2.2M127.6 10.4l-.2.2M127.5 10.6l-.2-.2M127.3 10.4l.2-.2M127.5 10.2v.3"/><path class="st8" d="M107 78.8h28.8M110.6 57.2V46.4M117.8 64.4v-7.2M157.4 89.6v10.8M157.4 57.2V68M157.4 46.4v10.8M157.4 78.8v10.8M157.4 68v10.8M157.4 111.2V122M157.4 100.4v10.8M107 57.2h3.6M114.2 100.4v10.8M117.8 100.4h18M157.4 32H78.2M157.4 46.4V32M78.2 32v10.8M107 107.6h3.6M27.8 64.4h21.6M107 64.4h10.8M27.8 71.6h21.6M107 71.6h14.4M110.6 122h25.2M114.2 111.2h21.6M117.8 93.2v7.2M107 93.2h10.8M121.4 89.6h14.4M121.4 86v3.6M107 100.4h7.2M49.4 136.4h28.8M107 86h14.4M6.2 32h72M121.4 68h14.4M27.8 57.2h21.6M121.4 71.6V68M110.6 46.4h25.2M117.8 57.2h18M31.4 86v50.4M31.4 136.4h18M49.4 122v14.4M49.4 86h-18M110.6 107.6V122"/><path class="st4" d="m105.3 120.2 3.5 3.5M108.7 120.2l-3.5 3.5"/><path class="st9" d="m75.5 149-.3-.2M75.1 148.8h-.5M74.6 148.8l-.5.2M74.1 149l-.3.3M73.8 149.3l-.2.3M73.6 149.7l-.2.7M73.4 150.3v.5M73.4 150.9l.2.7M73.6 151.5l.2.3M73.8 151.9l.3.3M74.1 152.2l.5.2M74.6 152.4h.3M75 152.4l.5-.2M75.5 152.2l.2-.2M75.6 152.1v-1.2M75.6 150.9h-.7M77.2 152.4v-3.6M77.2 148.8l2.1 3.6M79.2 152.4v-3.6M81 152.4v-3.6M81 148.8h.9M81.8 148.8l.5.2M82.3 149l.3.3M82.7 149.3l.2.3M82.8 149.7l.2.7M83 150.3v.5M83 150.9l-.2.7M82.8 151.5l-.2.3M82.7 151.9l-.3.3M82.3 152.2l-.5.2M81.8 152.4h-.9"/><path class="st17" d="M78.2 136.4h0"/><path class="st9" d="M15.3 40.8h.3M15.6 40.8l.3.2M16 41l.2.2M16.1 41.2l.2.3M16.3 41.5l.2.7M16.5 42.2v.9M16.5 43l-.2.7M16.3 43.7l-.2.3M16.1 44.1l-.2.2M16 44.2l-.3.2M15.6 44.4h-.3M15.3 44.4l-.3-.2M14.9 44.2l-.2-.2M14.8 44.1l-.2-.3M14.6 43.7l-.2-.7M14.4 43v-.9M14.4 42.2l.2-.7M14.6 41.5l.2-.3M14.8 41.2l.2-.2M14.9 41l.3-.2M18 44.1l.2.2M18.2 44.2l-.2.2M18 44.4l-.2-.2M17.8 44.2l.2-.2M18 44.1v.3M21.6 44.4h-2.1M20.6 44.4v-3.6M20.6 40.8l-.3.5M20.2 41.3l-.3.3M19.9 41.7l-.3.2M23.2 42v3.6M24.9 43.9l.2.3M25 44.2l.3.2M23.2 43.9l.2.3M23.3 44.2l.3.2M23.7 44.4h.7M24.4 44.4l.3-.2M24.7 44.2l.2-.3M24.9 43.9V42M26.4 42h1.4M26.9 44.4v-3.1M26.9 41.3l.2-.3M27.1 41l.3-.2M27.4 40.8h.3"/><path class="st17" d="M6.2 37.7v-5.8M6.2 40.6v5.8"/><path class="st9" d="m3.5 59-.3-.2M3.1 58.8h-.5M2.6 58.8l-.5.2M2.1 59l-.3.3M1.8 59.3l-.2.3M1.6 59.7l-.2.7M1.4 60.3v.5M1.4 60.9l.2.7M1.6 61.5l.2.3M1.8 61.9l.3.3M2.1 62.2l.5.2M2.6 62.4h.3M3 62.4l.5-.2M3.5 62.2l.2-.2M3.6 62.1v-1.2M3.6 60.9h-.7M5.2 62.4v-3.6M5.2 58.8l2.1 3.6M7.2 62.4v-3.6M9 62.4v-3.6M9 58.8h.9M9.8 58.8l.5.2M10.3 59l.3.3M10.7 59.3l.2.3M10.8 59.7l.2.7M11 60.3v.5M11 60.9l-.2.7M10.8 61.5l-.2.3M10.7 61.9l-.3.3M10.3 62.2l-.5.2M9.8 62.4h-.9"/><path class="st17" d="M6.2 46.4h0"/><path class="st9" d="M85.1 40.8h2.1M86.1 44.4v-3.6M90.1 44.4h-1.7M88.3 44.4v-3.6M93.3 44.1l-.2.2M93.1 44.2l-.5.2M92.6 44.4h-.3M92.3 44.4l-.5-.2M91.8 44.2l-.3-.3M91.4 43.9l-.2-.3M91.3 43.5l-.2-.7M91.1 42.9v-.5M91.1 42.3l.2-.7M91.3 41.7l.2-.3M91.4 41.3l.3-.3M91.8 41l.5-.2M92.3 40.8h.3M92.6 40.8l.5.2M93.1 41l.2.2M96.6 40.8h-1.7M94.9 40.8l-.2 1.7M94.7 42.5l.2-.2M94.9 42.3l.3-.2M95.2 42.2h.9M96.1 42.2l.3.2M96.4 42.3l.2.2M96.6 42.5l.2.3M96.7 42.9v.9M96.7 43.7l-.2.3M96.6 44.1l-.2.2M96.4 44.2l-.3.2M96.1 44.4h-.9M95.2 44.4l-.3-.2M94.9 44.2l-.2-.2M98.5 44.4h.7M99.1 44.4l.3-.2M99.5 44.2l.2-.2M99.7 44.1l.3-.5M100 43.5l.2-.7M100.2 42.9v-1.4M100.2 41.5l-.2-.3M100 41.1l-.2-.2M99.8 41l-.3-.2M99.5 40.8h-.7M98.8 40.8l-.3.2M98.5 41l-.2.2M98.3 41.1l-.2.3M98.1 41.5v.9M98.1 42.3l.2.3M98.3 42.7l.2.2M98.5 42.9l.3.2M98.8 43h.7M99.5 43l.3-.2M99.8 42.9l.2-.2M100 42.7l.2-.3M103.6 44.4h-2.1M102.6 44.4v-3.6M102.6 40.8l-.3.5M102.2 41.3l-.3.3M101.9 41.7l-.3.2M104.8 40.8h2.4M107.2 40.8l-1.5 3.6"/><path class="st17" d="M78.2 129.2v7.2"/><path class="st9" d="m76.4 124.7-.2.3M76.3 125v.5M76.3 125.5l.2.5M76.4 126.1l.3.3M76.8 126.4l.3.2M77.1 126.6l.7.2M77.8 126.7h.5M78.3 126.7l.7-.2M79 126.6l.3-.2M79.3 126.4l.3-.3M79.7 126.1l.2-.5M79.9 125.5v-.3M79.9 125.2l-.2-.5M79.7 124.7l-.2-.2M79.5 124.5h-1.2M78.3 124.5v.7M79.9 123h-3.6M76.3 123l3.6-2.1M79.9 120.9h-3.6M79.9 119.2h-3.6M76.3 119.2v-.9M76.3 118.3l.2-.5M76.4 117.8l.3-.3M76.8 117.5l.3-.2M77.1 117.3l.7-.2M77.8 117.1h.5M78.3 117.1l.7.2M79 117.3l.3.2M79.3 117.5l.3.3M79.7 117.8l.2.5M79.9 118.3v.9"/><path class="st5" d="M77 131.7v2.1M77 132.8h-3.6M73.4 132.8l.5.3M73.9 133.1l.3.3M74.3 133.4l.2.3"/><path class="st17" d="M99.8 93.2h7.2"/><path class="st9" d="M85.9 91.2h.7M86.6 91.2l.3.2M86.9 91.4l.3.3M87.3 91.7l.2.7M87.5 92.4v1.2M87.5 93.6l-.2.7M87.3 94.3l-.3.3M86.9 94.6l-.3.2M86.6 94.8h-.7M85.9 94.8l-.3-.2M85.6 94.6l-.3-.3M85.2 94.3l-.2-.7M85.1 93.6v-1.2M85.1 92.4l.2-.7M85.2 91.7l.3-.3M85.6 91.4l.3-.2M89 91.2v2.9M89 94.1l.2.3M89.2 94.5l.2.2M89.3 94.6l.3.2M89.7 94.8h.7M90.4 94.8l.3-.2M90.7 94.6l.2-.2M90.9 94.5l.2-.3M91.1 94.1v-2.9M92.3 91.2h2.1M93.3 94.8v-3.6M97.2 91.2h-1.7M95.5 91.2l-.2 1.7M95.3 92.9l.2-.2M95.5 92.7l.3-.2M95.9 92.6h.9M96.7 92.6l.3.2M97.1 92.7l.2.2M97.2 92.9l.2.3M97.4 93.3v.9M97.4 94.1l-.2.3M97.2 94.5l-.2.2M97.1 94.6l-.3.2M96.7 94.8h-.9M95.9 94.8l-.3-.2M95.5 94.6l-.2-.2M84.7 90.2h13"/><path class="st5" d="M102.7 92h-2.1M101.7 92v-3.6M101.7 88.4l-.3.5M101.4 88.9l-.3.3M101 89.2l-.3.2M105 88.4h.3M105.3 88.4l.3.2M105.6 88.5l.2.2M105.8 88.7l.2.3M106 89.1l.2.7M106.2 89.7v.9M106.2 90.6l-.2.7M106 91.3l-.2.3M105.8 91.6l-.2.2M105.6 91.8l-.3.2M105.3 92h-.3M105 92l-.3-.2M104.6 91.8l-.2-.2M104.4 91.6l-.2-.3M104.3 91.3l-.2-.7M104.1 90.6v-.9M104.1 89.7l.2-.7M104.3 89.1l.2-.3M104.4 88.7l.2-.2M104.6 88.5l.3-.2"/><path class="st17" d="M99.8 100.4h7.2"/><path class="st9" d="M85.9 98.4h.7M86.6 98.4l.3.2M86.9 98.6l.3.3M87.3 98.9l.2.7M87.5 99.6v1.2M87.5 100.8l-.2.7M87.3 101.5l-.3.3M86.9 101.8l-.3.2M86.6 102h-.7M85.9 102l-.3-.2M85.6 101.8l-.3-.3M85.2 101.5l-.2-.7M85.1 100.8v-1.2M85.1 99.6l.2-.7M85.2 98.9l.3-.3M85.6 98.6l.3-.2M89 98.4v2.9M89 101.3l.2.3M89.2 101.7l.2.2M89.3 101.8l.3.2M89.7 102h.7M90.4 102l.3-.2M90.7 101.8l.2-.2M90.9 101.7l.2-.3M91.1 101.3v-2.9M92.3 98.4h2.1M93.3 102v-3.6M97.1 98.4h-.7M96.4 98.4l-.3.2M96 98.6l-.2.2M95.9 98.7l-.3.5M95.5 99.3l-.2.7M95.3 99.9v1.4M95.3 101.3l.2.3M95.5 101.7l.2.2M95.7 101.8l.3.2M96 102h.7M96.7 102l.3-.2M97.1 101.8l.2-.2M97.2 101.7l.2-.3M97.4 101.3v-.9M97.4 100.5l-.2-.3M97.2 100.1l-.2-.2M97.1 99.9l-.3-.2M96.7 99.8H96M96 99.8l-.3.2M95.7 99.9l-.2.2M95.5 100.1l-.2.3M84.7 97.4h13"/><path class="st5" d="M102.7 99.2h-2.1M101.7 99.2v-3.6M101.7 95.6l-.3.5M101.4 96.1l-.3.3M101 96.4l-.3.2M106.2 99.2h-2.1M105.1 99.2v-3.6M105.1 95.6l-.3.5M104.8 96.1l-.3.3M104.4 96.4l-.3.2"/><path class="st17" d="M99.8 107.6h7.2"/><path class="st9" d="M85.9 105.6h.7M86.6 105.6l.3.2M86.9 105.8l.3.3M87.3 106.1l.2.7M87.5 106.8v1.2M87.5 108l-.2.7M87.3 108.7l-.3.3M86.9 109l-.3.2M86.6 109.2h-.7M85.9 109.2l-.3-.2M85.6 109l-.3-.3M85.2 108.7l-.2-.7M85.1 108v-1.2M85.1 106.8l.2-.7M85.2 106.1l.3-.3M85.6 105.8l.3-.2M89 105.6v2.9M89 108.5l.2.3M89.2 108.9l.2.2M89.3 109l.3.2M89.7 109.2h.7M90.4 109.2l.3-.2M90.7 109l.2-.2M90.9 108.9l.2-.3M91.1 108.5v-2.9M92.3 105.6h2.1M93.3 109.2v-3.6M95.2 105.6h2.4M97.6 105.6l-1.5 3.6M84.7 104.6h13"/><path class="st5" d="M102.7 106.4h-2.1M101.7 106.4v-3.6M101.7 102.8l-.3.5M101.4 103.3l-.3.3M101 103.6l-.3.2M104.1 103.1l.2-.2M104.3 102.9l.3-.2M104.6 102.8h.9M105.5 102.8l.3.2M105.8 102.9l.2.2M106 103.1l.2.3M106.2 103.5v.3M106.2 103.8l-.2.5M106 104.3l-2.1 2.1M103.9 106.4h2.2"/><path class="st17" d="M56.6 86h-7.2"/><path class="st9" d="M59.9 84h.7M60.6 84l.3.2M60.9 84.2l.3.3M61.2 84.5l.2.7M61.4 85.2v1.2M61.4 86.4l-.2.7M61.2 87.1l-.3.3M60.9 87.4l-.3.2M60.6 87.6h-.7M59.9 87.6l-.3-.2M59.5 87.4l-.3-.3M59.2 87.1l-.2-.7M59 86.4v-1.2M59 85.2l.2-.7M59.2 84.5l.3-.3M59.5 84.2l.3-.2M63 85.7h1.2M64.7 87.6H63M63 87.6V84M63 84h1.7M58.7 83H65M67.2 89l-.2-.2M67.1 88.8l-.3-.5M66.7 88.3l-.2-.3M66.6 87.9l-.2-.5M66.4 87.4l-.2-.9M66.2 86.6v-.7M66.2 85.9l.2-.9M66.4 85l.2-.5M66.6 84.5l.2-.3M66.7 84.2l.3-.5M67.1 83.7l.2-.2M68.6 85.7h1.2M70.3 87.6h-1.7M68.6 87.6V84M68.6 84h1.7M71.9 87.6V84M71.9 84h.9M72.7 84l.5.2M73.2 84.2l.3.3M73.6 84.5l.2.3M73.8 84.9l.2.7M73.9 85.5v.5M73.9 86.1l-.2.7M73.8 86.7l-.2.3M73.6 87.1l-.3.3M73.2 87.4l-.5.2M72.7 87.6h-.9M75.3 84.3l.2-.2M75.5 84.2l.3-.2M75.8 84h.9M76.7 84l.3.2M77 84.2l.2.2M77.2 84.3l.2.3M77.4 84.7v.3M77.4 85l-.2.5M77.2 85.5l-2.1 2.1M75.1 87.6h2.2M78.6 89l.2-.2M78.7 88.8l.3-.5M79.1 88.3l.2-.3M79.2 87.9l.2-.5M79.4 87.4l.2-.9M79.6 86.6v-.7M79.6 85.9l-.2-.9M79.4 85l-.2-.5M79.2 84.5l-.2-.3M79.1 84.2l-.3-.5M78.7 83.7l-.2-.2"/><path class="st5" d="M52.3 84.8h-2.1M51.3 84.8v-3.6M51.3 81.2l-.3.5M51 81.7l-.3.3M50.6 82l-.3.2M53.5 81.2h2.2M55.8 81.2l-1.2 1.4M54.6 82.5h.5M55.1 82.5l.3.2M55.4 82.7l.2.2M55.6 82.9l.2.3M55.8 83.2v.9M55.8 84.1l-.2.3M55.6 84.4l-.2.2M55.4 84.6l-.3.2M55.1 84.8h-1M54 84.8l-.3-.2M53.7 84.6l-.2-.2"/><path class="st17" d="M99.8 122h7.2"/><path class="st9" d="m88 123.4.5.2M88.5 123.6h.9M89.3 123.6l.3-.2M89.7 123.4l.2-.2M89.9 123.3l.2-.3M90 122.9v-.3M90 122.6l-.2-.3M89.9 122.2l-.2-.2M89.7 122.1l-.3-.2M89.3 121.9l-.7-.2M88.7 121.7l-.3-.2M88.3 121.5l-.2-.2M88.1 121.4l-.2-.3M88 121v-.3M88 120.7l.2-.3M88.1 120.3l.2-.2M88.3 120.2l.3-.2M88.7 120h.9M89.5 120l.5.2M91.6 123.6V120M91.6 120h.9M92.4 120l.5.2M92.9 120.2l.3.3M93.3 120.5l.2.3M93.5 120.9l.2.7M93.6 121.5v.5M93.6 122.1l-.2.7M93.5 122.7l-.2.3M93.3 123.1l-.3.3M92.9 123.4l-.5.2M92.4 123.6h-.9M95.9 120h.7M96.5 120l.3.2M96.9 120.2l.3.3M97.2 120.5l.2.7M97.4 121.2v1.2M97.4 122.4l-.2.7M97.2 123.1l-.3.3M96.9 123.4l-.3.2M96.5 123.6h-.7M95.9 123.6l-.3-.2M95.5 123.4l-.3-.3M95.2 123.1l-.2-.7M95 122.4v-1.2M95 121.2l.2-.7M95.2 120.5l.3-.3M95.5 120.2l.3-.2"/><path class="st5" d="M102.7 120.8h-2.1M101.7 120.8v-3.6M101.7 117.2l-.3.5M101.4 117.7l-.3.3M101 118l-.3.2M105.8 118.4v2.4M105 117l-.9 2.6M104.1 119.6h2.2"/><path class="st17" d="M56.6 107.6h-7.2"/><path class="st9" d="m61.2 109.2-1.2-1.7M59.2 109.2v-3.6M59.2 105.6h1.4M60.6 105.6l.3.2M60.9 105.8l.2.2M61.1 105.9l.2.3M61.2 106.3v.5M61.2 106.8l-.2.3M61.1 107.1l-.2.2M60.9 107.3l-.3.2M60.6 107.5h-1.4M62.8 107.8h2.7M67.2 107.3h1.2M69 109.2h-1.7M67.2 109.2v-3.6M67.2 105.6h1.7M70.2 105.6l2.4 3.6M72.6 105.6l-2.4 3.6M73.4 105.6h2.1M74.4 109.2v-3.6"/><path class="st5" d="M52.3 106.4h-2.1M51.3 106.4v-3.6M51.3 102.8l-.3.5M51 103.3l-.3.3M50.6 103.6l-.3.2M55.6 102.8h-1.7M53.9 102.8l-.2 1.7M53.7 104.5l.2-.2M53.9 104.3l.3-.2M54.2 104.1h.9M55.1 104.1l.3.2M55.4 104.3l.2.2M55.6 104.5l.2.3M55.8 104.8v.9M55.8 105.7l-.2.3M55.6 106l-.2.2M55.4 106.2l-.3.2M55.1 106.4h-.9M54.2 106.4l-.3-.2M53.9 106.2l-.2-.2"/><path class="st17" d="M78.2 50v-7.2"/><path class="st9" d="m76.3 61.6 3.6-1.2M79.9 60.4l-3.6-1.2M79.9 58h-3.6M76.3 58v-.9M76.3 57.2l.2-.5M76.4 56.6l.3-.3M76.8 56.3l.3-.2M77.1 56.1l.7-.2M77.8 56h.5M78.3 56l.7.2M79 56.1l.3.2M79.3 56.3l.3.3M79.7 56.6l.2.5M79.9 57.2v.9M79.9 54.4h-3.6M76.3 54.4v-.9M76.3 53.6l.2-.5M76.4 53l.3-.3M76.8 52.7l.3-.2M77.1 52.5l.7-.2M77.8 52.4h.5M78.3 52.4l.7.2M79 52.5l.3.2M79.3 52.7l.3.3M79.7 53l.2.5M79.9 53.6v.9"/><path class="st5" d="M77 47v2.1M77 48.1h-3.6M73.4 48.1l.5.3M73.9 48.4l.3.3M74.3 48.8l.2.3M73.4 44v.7M73.4 44.6l.2.3M73.6 45l.2.2M73.8 45.2l.5.3M74.3 45.5l.7.2M75 45.7h1.4M76.3 45.7l.3-.2M76.7 45.5l.2-.2M76.9 45.3l.2-.3M77 45v-.7M77 44.3l-.2-.3M76.9 44l-.2-.2M76.7 43.8l-.3-.2M76.3 43.6h-.9M75.5 43.6l-.3.2M75.1 43.8l-.2.2M75 44l-.2.3M74.8 44.3v.7M74.8 45l.2.3M75 45.3l.2.2M75.1 45.5l.3.2"/><path class="st17" d="M56.6 57.2h-7.2"/><path class="st9" d="m59 58.6.5.2M59.5 58.8h.9M60.4 58.8l.3-.2M60.7 58.6l.2-.2M60.9 58.5l.2-.3M61.1 58.1v-.3M61.1 57.8l-.2-.3M60.9 57.4l-.2-.2M60.7 57.3l-.3-.2M60.4 57.1l-.7-.2M59.7 56.9l-.3-.2M59.4 56.7l-.2-.2M59.2 56.6l-.2-.3M59 56.2v-.3M59 55.9l.2-.3M59.2 55.5l.2-.2M59.4 55.4l.3-.2M59.7 55.2h.9M60.6 55.2l.5.2M62.6 58.8v-3.6M62.6 55.2h.9M63.5 55.2l.5.2M64 55.4l.3.3M64.3 55.7l.2.3M64.5 56.1l.2.7M64.7 56.7v.5M64.7 57.3l-.2.7M64.5 57.9l-.2.3M64.3 58.3l-.3.3M64 58.6l-.5.2M63.5 58.8h-.9M66.2 58.8v-3.6"/><path class="st5" d="m52 52.7.2-.2M52.2 52.5l.3-.2M52.5 52.4h.9M53.4 52.4l.3.2M53.7 52.5l.2.2M53.9 52.7l.2.3M54 53.1v.3M54 53.4l-.2.5M53.9 53.9 51.8 56M51.8 56H54"/><path class="st17" d="M56.6 64.4h-7.2"/><path class="st9" d="m61.2 65.7-.2.2M61.1 65.8l-.5.2M60.6 66h-.3M60.2 66l-.5-.2M59.7 65.8l-.3-.3M59.4 65.5l-.2-.3M59.2 65.1l-.2-.7M59 64.5V64M59 63.9l.2-.7M59.2 63.3l.2-.3M59.4 62.9l.3-.3M59.7 62.6l.5-.2M60.2 62.4h.3M60.6 62.4l.5.2M61.1 62.6l.2.2M64.5 66h-1.7M62.8 66v-3.6M65.7 66v-3.6M67.8 66l-1.5-2.1M67.8 62.4l-2.1 2.1"/><path class="st5" d="M51.8 59.6H54M54 59.6 52.8 61M52.8 60.9h.5M53.4 60.9l.3.2M53.7 61.1l.2.2M53.9 61.3l.2.3M54 61.6v.9M54 62.5l-.2.3M53.9 62.8l-.2.2M53.7 63l-.3.2M53.4 63.2h-1M52.3 63.2 52 63M52 63l-.2-.2"/><path class="st17" d="M56.6 71.6h-7.2"/><path class="st9" d="M60.9 73.2h-1.7M59.2 73.2v-3.6M62.1 71.3h1.2M63.8 73.2h-1.7M62.1 73.2v-3.6M62.1 69.6h1.7M66.4 74.6l-.2-.2M66.2 74.4l-.3-.5M65.9 73.9l-.2-.3M65.7 73.5l-.2-.5M65.5 73l-.2-.9M65.4 72.2v-.7M65.4 71.5l.2-.9M65.5 70.6l.2-.5M65.7 70.1l.2-.3M65.9 69.8l.3-.5M66.2 69.3l.2-.2M67.8 71.3H69M69.5 73.2h-1.7M67.8 73.2v-3.6M67.8 69.6h1.7M71 73.2v-3.6M71 69.6h.9M71.9 69.6l.5.2M72.4 69.8l.3.3M72.7 70.1l.2.3M72.9 70.5l.2.7M73.1 71.1v.5M73.1 71.7l-.2.7M72.9 72.3l-.2.3M72.7 72.7l-.3.3M72.4 73l-.5.2M71.9 73.2H71M76.5 73.2h-2.1M75.5 73.2v-3.6M75.5 69.6l-.3.5M75.1 70.1l-.3.3M74.8 70.5l-.3.2M77.7 74.6l.2-.2M77.9 74.4l.3-.5M78.2 73.9l.2-.3M78.4 73.5l.2-.5M78.6 73l.2-.9M78.7 72.2v-.7M78.7 71.5l-.2-.9M78.6 70.6l-.2-.5M78.4 70.1l-.2-.3M78.2 69.8l-.3-.5M77.9 69.3l-.2-.2"/><path class="st5" d="M53.7 68v2.4M52.8 66.6l-.9 2.6M52 69.2h2.2"/><path class="st17" d="M99.8 57.2h7.2"/><path class="st9" d="M85.9 55.2h.7M86.6 55.2l.3.2M86.9 55.4l.3.3M87.3 55.7l.2.7M87.5 56.4v1.2M87.5 57.6l-.2.7M87.3 58.3l-.3.3M86.9 58.6l-.3.2M86.6 58.8h-.7M85.9 58.8l-.3-.2M85.6 58.6l-.3-.3M85.2 58.3l-.2-.7M85.1 57.6v-1.2M85.1 56.4l.2-.7M85.2 55.7l.3-.3M85.6 55.4l.3-.2M89 55.2v2.9M89 58.1l.2.3M89.2 58.5l.2.2M89.3 58.6l.3.2M89.7 58.8h.7M90.4 58.8l.3-.2M90.7 58.6l.2-.2M90.9 58.5l.2-.3M91.1 58.1v-2.9M92.3 55.2h2.1M93.3 58.8v-3.6M96.2 55.2h.3M96.5 55.2l.3.2M96.9 55.4l.2.2M97.1 55.5l.2.3M97.2 55.9l.2.7M97.4 56.6v.9M97.4 57.4l-.2.7M97.2 58.1l-.2.3M97.1 58.5l-.2.2M96.9 58.6l-.3.2M96.5 58.8h-.3M96.2 58.8l-.3-.2M95.9 58.6l-.2-.2M95.7 58.5l-.2-.3M95.5 58.1l-.2-.7M95.3 57.4v-.9M95.3 56.6l.2-.7M95.5 55.9l.2-.3M95.7 55.5l.2-.2M95.9 55.4l.3-.2M84.7 54.2h13"/><path class="st5" d="M104.3 52.4h-1.7M102.6 52.4l-.2 1.7M102.4 54.1l.2-.2M102.6 53.9l.3-.2M102.9 53.7h.9M103.8 53.7l.3.2M104.1 53.9l.2.2M104.3 54.1l.2.3M104.4 54.4v.9M104.4 55.3l-.2.3M104.3 55.6l-.2.2M104.1 55.8l-.3.2M103.8 56h-.9M102.9 56l-.3-.2M102.6 55.8l-.2-.2"/><path class="st17" d="M99.8 64.4h7.2"/><path class="st9" d="M85.9 62.4h.7M86.6 62.4l.3.2M86.9 62.6l.3.3M87.3 62.9l.2.7M87.5 63.6v1.2M87.5 64.8l-.2.7M87.3 65.5l-.3.3M86.9 65.8l-.3.2M86.6 66h-.7M85.9 66l-.3-.2M85.6 65.8l-.3-.3M85.2 65.5l-.2-.7M85.1 64.8v-1.2M85.1 63.6l.2-.7M85.2 62.9l.3-.3M85.6 62.6l.3-.2M89 62.4v2.9M89 65.3l.2.3M89.2 65.7l.2.2M89.3 65.8l.3.2M89.7 66h.7M90.4 66l.3-.2M90.7 65.8l.2-.2M90.9 65.7l.2-.3M91.1 65.3v-2.9M92.3 62.4h2.1M93.3 66v-3.6M97.4 66h-2.1M96.4 66v-3.6M96.4 62.4l-.3.5M96 62.9l-.3.3M95.7 63.3l-.3.2M84.7 61.4h13"/><path class="st5" d="M104.1 59.6h-.7M103.4 59.6l-.3.2M103.1 59.7l-.2.2M102.9 59.9l-.3.5M102.6 60.4l-.2.7M102.4 61.1v1.4M102.4 62.5l.2.3M102.6 62.8l.2.2M102.7 63l.3.2M103.1 63.2h.7M103.8 63.2l.3-.2M104.1 63l.2-.2M104.3 62.8l.2-.3M104.4 62.5v-.9M104.4 61.6l-.2-.3M104.3 61.3l-.2-.2M104.1 61.1l-.3-.2M103.8 60.9h-.7M103.1 60.9l-.3.2M102.7 61.1l-.2.2M102.6 61.3l-.2.3"/><path class="st17" d="M99.8 71.6h7.2"/><path class="st9" d="M85.9 69.6h.7M86.6 69.6l.3.2M86.9 69.8l.3.3M87.3 70.1l.2.7M87.5 70.8V72M87.5 72l-.2.7M87.3 72.7l-.3.3M86.9 73l-.3.2M86.6 73.2h-.7M85.9 73.2l-.3-.2M85.6 73l-.3-.3M85.2 72.7 85 72M85.1 72v-1.2M85.1 70.8l.2-.7M85.2 70.1l.3-.3M85.6 69.8l.3-.2M89 69.6v2.9M89 72.5l.2.3M89.2 72.9l.2.2M89.3 73l.3.2M89.7 73.2h.7M90.4 73.2l.3-.2M90.7 73l.2-.2M90.9 72.9l.2-.3M91.1 72.5v-2.9M92.3 69.6h2.1M93.3 73.2v-3.6M95.3 69.9l.2-.2M95.5 69.8l.3-.2M95.9 69.6h.9M96.7 69.6l.3.2M97.1 69.8l.2.2M97.2 69.9l.2.3M97.4 70.3v.3M97.4 70.6l-.2.5M97.2 71.1l-2.1 2.1M95.2 73.2h2.2M84.7 68.6h13"/><path class="st5" d="M102.2 66.8h2.4M104.6 66.8l-1.5 3.6"/><path class="st17" d="M99.8 78.8h7.2"/><path class="st9" d="M85.9 76.8h.7M86.6 76.8l.3.2M86.9 77l.3.3M87.3 77.3l.2.7M87.5 78v1.2M87.5 79.2l-.2.7M87.3 79.9l-.3.3M86.9 80.2l-.3.2M86.6 80.4h-.7M85.9 80.4l-.3-.2M85.6 80.2l-.3-.3M85.2 79.9l-.2-.7M85.1 79.2V78M85.1 78l.2-.7M85.2 77.3l.3-.3M85.6 77l.3-.2M89 76.8v2.9M89 79.7l.2.3M89.2 80.1l.2.2M89.3 80.2l.3.2M89.7 80.4h.7M90.4 80.4l.3-.2M90.7 80.2l.2-.2M90.9 80.1l.2-.3M91.1 79.7v-2.9M92.3 76.8h2.1M93.3 80.4v-3.6M95.2 76.8h2.2M97.4 76.8l-1.2 1.4M96.2 78.2h.5M96.7 78.2l.3.2M97.1 78.3l.2.2M97.2 78.5l.2.3M97.4 78.9v.9M97.4 79.7l-.2.3M97.2 80.1l-.2.2M97.1 80.2l-.3.2M96.7 80.4h-1M95.7 80.4l-.3-.2M95.3 80.2l-.2-.2M84.7 75.8h13"/><path class="st5" d="m103.1 75.5-.3-.2M102.7 75.3l-.2-.2M102.6 75.2l-.2-.3M102.4 74.8v-.2M102.4 74.7l.2-.3M102.6 74.3l.2-.2M102.7 74.1l.3-.2M103.1 74h.7M103.8 74l.3.2M104.1 74.1l.2.2M104.3 74.3l.2.3M104.4 74.7v.2M104.4 74.8l-.2.3M104.3 75.2l-.2.2M104.1 75.3l-.3.2M103.8 75.5h-.7M103.1 75.5l-.3.2M102.7 75.7l-.2.2M102.6 75.9l-.2.3M102.4 76.2v.7M102.4 76.9l.2.3M102.6 77.2l.2.2M102.7 77.4l.3.2M103.1 77.6h.7M103.8 77.6l.3-.2M104.1 77.4l.2-.2M104.3 77.2l.2-.3M104.4 76.9v-.7M104.4 76.2l-.2-.3M104.3 75.9l-.2-.2M104.1 75.7l-.3-.2"/><path class="st17" d="M99.8 86h7.2"/><path class="st9" d="M85.9 84h.7M86.6 84l.3.2M86.9 84.2l.3.3M87.3 84.5l.2.7M87.5 85.2v1.2M87.5 86.4l-.2.7M87.3 87.1l-.3.3M86.9 87.4l-.3.2M86.6 87.6h-.7M85.9 87.6l-.3-.2M85.6 87.4l-.3-.3M85.2 87.1l-.2-.7M85.1 86.4v-1.2M85.1 85.2l.2-.7M85.2 84.5l.3-.3M85.6 84.2l.3-.2M89 84v2.9M89 86.9l.2.3M89.2 87.3l.2.2M89.3 87.4l.3.2M89.7 87.6h.7M90.4 87.6l.3-.2M90.7 87.4l.2-.2M90.9 87.3l.2-.3M91.1 86.9V84M92.3 84h2.1M93.3 87.6V84M97.1 85.2v2.4M96.2 83.8l-.9 2.6M95.3 86.4h2.2M84.7 83h13"/><path class="st5" d="M102.7 84.8h.7M103.4 84.8l.3-.2M103.8 84.6l.2-.2M103.9 84.4l.3-.5M104.3 83.9l.2-.7M104.4 83.2v-1.4M104.4 81.9l-.2-.3M104.3 81.5l-.2-.2M104.1 81.3l-.3-.2M103.8 81.2h-.7M103.1 81.2l-.3.2M102.7 81.3l-.2.2M102.6 81.5l-.2.3M102.4 81.9v.9M102.4 82.7l.2.3M102.6 83.1l.2.2M102.7 83.2l.3.2M103.1 83.4h.7M103.8 83.4l.3-.2M104.1 83.2l.2-.2M104.3 83.1l.2-.3"/><path class="st9" d="M37.3 116.4h-2.1M36.3 116.4v-3.6M36.3 112.8l-.3.5M36 113.3l-.3.3M35.6 113.7l-.3.2M38.9 116.1l.2.2M39.1 116.2l-.2.2M38.9 116.4l-.2-.2M38.7 116.2l.2-.2M38.9 116.1v.3M42.1 112.8h-.7M41.5 112.8l-.3.2M41.1 113l-.2.2M40.9 113.1l-.3.5M40.6 113.7l-.2.7M40.4 114.3v1.4M40.4 115.7l.2.3M40.6 116.1l.2.2M40.8 116.2l.3.2M41.1 116.4h.7M41.8 116.4l.3-.2M42.1 116.2l.2-.2M42.3 116.1l.2-.3M42.5 115.7v-.9M42.5 114.9l-.2-.3M42.3 114.5l-.2-.2M42.1 114.3l-.3-.2M41.8 114.2h-.7M41.1 114.2l-.3.2M40.8 114.3l-.2.2M40.6 114.5l-.2.3M44 116.4v-3.6M44.4 115l1 1.4M45.4 114l-1.4 1.4"/><path class="st17" d="M49.4 119.8v2.2M49.4 109.7v-2.2"/><circle class="st14" cx="157.4" cy="89.6" r="1.3"/><circle class="st14" cx="157.4" cy="100.4" r="1.3"/><circle class="st14" cx="157.4" cy="68" r="1.3"/><circle class="st14" cx="157.4" cy="57.2" r="1.3"/><circle class="st14" cx="157.4" cy="78.8" r="1.3"/><circle class="st14" cx="157.4" cy="111.2" r="1.3"/><circle class="st14" cx="78.2" cy="136.4" r="1.3"/><circle class="st14" cx="49.4" cy="136.4" r="1.3"/><circle class="st14" cx="157.4" cy="46.4" r="1.3"/><circle class="st14" cx="78.2" cy="32" r="1.3"/></svg>