<?xml version="1.0" encoding="UTF-8"?>
<svg xmlns="http://www.w3.org/2000/svg" version="1.1" viewBox="0 0 146 40">
  <!-- Generator: Adobe Illustrator 29.2.1, SVG Export Plug-In . SVG Version: 2.1.0 Build 116)  -->
  <g id="Light_mode">
    <path d="M8,.4h130c4.2,0,7.6,3.4,7.6,7.6v24c0,4.2-3.4,7.6-7.6,7.6H8c-4.2,0-7.6-3.4-7.6-7.6V8C.4,3.8,3.8.4,8,.4Z" fill="none" stroke="#000" stroke-width=".8"/>
    <g>
      <rect x="7.8" y="8" width="24.4" height="24.4" fill="#fff"/>
      <g id="g1">
        <path id="path1" d="M7.8,30.5v-1.9h.4c.4,0,.4,0,.5-.1,0,0,.2-.9.4-1.8.2-.9.4-1.7.5-1.8,0-.1.4-1.7.9-3.4.4-1.8.9-3.5,1-3.8l.2-.6v.6c0,.3,0,1.1-.1,1.7,0,.6,0,1.6-.1,2.1s0,1.5-.1,2.1,0,1.6-.1,2.1,0,1.5-.1,2v.9s3.3,0,3.3,0v-.2c.2-.2.2-.3.6-1.1,0-.2.2-.5.3-.7.1-.3.3-.7.4-.9s.2-.5.2-.5,0-.2.1-.3c.2-.4.3-.6.8-1.9.5-1.1.7-1.6,1-2.3.3-.7.4-.9.6-1.3.2-.6.4-1,.8-1.9,0-.2.2-.3.2-.4s0,0,0,0c0,.1-1.1,4.5-1.3,5.1,0,.1,0,.3-.1.5-.4,1.4-1.4,5.7-1.4,5.8s.1.1,2,.1h2l.5-1.9c.3-1,.7-3,1.1-4.4.3-1.4.6-2.6.7-2.7,0-.1.4-1.4.7-3s.8-3.2.9-3.7c.1-.5.2-1,.2-1.1,0-.1-.1-.1-3.1-.1h-3.1v.2c-.2.1-.2.3-.3.5,0,.1-.2.4-.3.7-.1.2-.2.5-.2.5s0,.2-.2.4c-.1.2-.2.4-.2.4s0,.2-.1.3c-.2.5-.4.8-.6,1.3-.1.3-.3.6-.3.7s-.2.4-.2.5c0,.1-.2.5-.3.7s-.3.6-.3.7c-.3.6-.3.8-.5,1.2-.1.3-.3.6-.3.7,0,.1-.1.3-.2.4,0,0,0,.1,0,.1,0,0,0-.9.2-3.1,0-.9.1-1.8.2-4,0-.5,0-1.3.1-1.7v-.7s-3,0-3,0h-3.1s-.2.8-.2.8c-.1.4-.3,1.3-.5,1.9l-.3,1.1v-3.8s0-3.8,0-3.8h24.4v3.8h-2.8s-2.8,0-2.8,0l-.5,1.8c-.3,1-.5,1.9-.5,2.1,0,.1,0,.3-.1.5,0,.2-.3,1.4-1.9,7.7-.3,1.4-.6,2.6-.7,2.7-.1.4-.5,2-.5,2s1,0,2.2,0c2.1,0,2.2,0,2.3-.1,0,0,.1-.6.3-1.1s.3-1.1.3-1.3.3-1.1.6-2.2.5-2.1.5-2.1c0,0,.2-.1,1.8-.1h1.8v10.7H7.8v-1.9h0ZM29.5,18.1c0-.1.2-.8.4-1.5l.3-1.3h1s1,0,1,0v3h-2.8v-.2s0,0,0,0Z" fill="#36c"/>
      </g>
    </g>
    <g>
      <path d="M38.5,16.5V7.9h3.2c.7,0,1.2,0,1.6.3s.7.4.9.8.3.7.3,1.1,0,.7-.3,1-.5.6-.9.8c.5.2.9.4,1.2.8s.4.8.4,1.3,0,.8-.3,1.1-.4.6-.6.8-.6.3-.9.4-.8.1-1.4.1h-3.3ZM39.6,11.5h1.9c.5,0,.9,0,1.1,0,.3,0,.5-.2.7-.4s.2-.4.2-.8,0-.5-.2-.8-.3-.4-.6-.4-.7-.1-1.3-.1h-1.7v2.6ZM39.6,15.5h2.1c.4,0,.6,0,.8,0,.3,0,.5-.1.7-.2s.3-.3.4-.5.2-.5.2-.7,0-.6-.2-.8-.4-.4-.7-.5-.7-.1-1.3-.1h-2v3Z"/>
      <path d="M50.5,16.5v-.9c-.5.7-1.1,1.1-2,1.1s-.7,0-1-.2-.6-.3-.7-.5-.3-.5-.3-.8c0-.2,0-.5,0-1v-3.9h1.1v3.5c0,.6,0,.9,0,1.1,0,.3.2.5.4.7s.5.2.8.2.6,0,.9-.2.5-.4.6-.7.2-.7.2-1.2v-3.3h1.1v6.2h-.9Z"/>
      <path d="M53,18.9v-1c.1,0,.3,0,.5,0s.4,0,.6-.1.3-.2.3-.3c0-.1.2-.4.3-.8,0,0,0-.1,0-.3l-2.4-6.2h1.1l1.3,3.6c.2.5.3.9.5,1.4.1-.5.3-1,.4-1.4l1.3-3.6h1.1l-2.4,6.3c-.3.7-.5,1.2-.6,1.4-.2.3-.4.6-.6.8s-.5.2-.9.2-.4,0-.7-.1Z"/>
      <path d="M62.4,9.1v-1.2h1.1v1.2h-1.1ZM62.4,16.5v-6.2h1.1v6.2h-1.1Z"/>
      <path d="M65.1,16.5v-6.2h.9v.9c.5-.7,1.1-1,2-1s.7,0,1,.2.5.3.7.5.3.5.3.8c0,.2,0,.5,0,1v3.8h-1.1v-3.8c0-.4,0-.8-.1-1s-.2-.4-.4-.5-.5-.2-.7-.2c-.4,0-.8.1-1.2.4s-.5.8-.5,1.6v3.4h-1.1Z"/>
      <path d="M77.4,15.6l.2.9c-.3,0-.6,0-.8,0-.4,0-.7,0-.9-.2s-.4-.3-.4-.5-.1-.6-.1-1.2v-3.6h-.8v-.8h.8v-1.5l1-.6v2.2h1.1v.8h-1.1v3.6c0,.3,0,.5,0,.6s0,.2.2.2.2,0,.4,0,.3,0,.5,0Z"/>
      <path d="M78.4,16.5V7.9h1.1v3.1c.5-.6,1.1-.9,1.9-.9s.9,0,1.2.3.6.4.7.8.2.8.2,1.4v3.9h-1.1v-3.9c0-.5-.1-.9-.3-1.2s-.6-.4-1-.4-.6,0-.9.2-.5.4-.6.7-.2.7-.2,1.1v3.4h-1.1Z"/>
      <path d="M89.3,14.5h1.1c-.2.8-.5,1.3-1,1.6s-1.1.5-1.8.5-1.6-.3-2.2-.8-.8-1.3-.8-2.4.3-1.9.8-2.4,1.2-.9,2.1-.9,1.5.3,2,.8.8,1.4.8,2.4,0,.2,0,.3h-4.6c0,.7.2,1.2.6,1.6s.8.5,1.3.5.7-.1,1-.3.5-.5.7-1ZM85.9,12.8h3.5c0-.5-.2-.9-.4-1.2-.3-.4-.8-.6-1.3-.6s-.9.2-1.2.5-.5.8-.5,1.3Z"/>
    </g>
    <g>
      <path d="M38.6,32.4v-8.6h2.6l1.6,5.9,1.5-5.9h2.6v8.6h-1.6v-6.8l-1.7,6.8h-1.7l-1.7-6.8v6.8h-1.6Z"/>
      <path d="M48.2,29.2c0-.5.1-1.1.4-1.6s.7-.9,1.1-1.2,1-.4,1.7-.4c.9,0,1.7.3,2.3.9s.9,1.4.9,2.3-.3,1.7-.9,2.3-1.4.9-2.3.9-1.1-.1-1.6-.4-.9-.6-1.2-1.1-.4-1.1-.4-1.8ZM49.9,29.2c0,.6.1,1.1.4,1.4s.7.5,1.1.5.8-.2,1.1-.5.4-.8.4-1.4-.1-1.1-.4-1.4-.7-.5-1.1-.5-.8.2-1.1.5-.4.8-.4,1.4Z"/>
      <path d="M55.9,32.4v-8.6h1.6v3.1c.5-.6,1.1-.9,1.8-.9s1.4.3,1.9.8.7,1.3.7,2.4-.3,1.9-.8,2.5-1.1.9-1.8.9-.7,0-1.1-.3-.6-.4-.9-.8v.9h-1.5ZM57.5,29.1c0,.6.1,1.1.3,1.4.3.4.7.7,1.1.7s.7-.2.9-.5.4-.8.4-1.5-.1-1.2-.4-1.5-.6-.5-1-.5-.7.2-1,.5-.4.8-.4,1.4Z"/>
      <path d="M63.3,25.3v-1.5h1.6v1.5h-1.6ZM63.3,32.4v-6.2h1.6v6.2h-1.6Z"/>
      <path d="M66.6,32.4v-8.6h5.9v1.5h-4.2v2h3.6v1.5h-3.6v3.7h-1.7Z"/>
      <path d="M73.9,32.4v-8.6h1.6v8.6h-1.6Z"/>
      <path d="M77.3,25.3v-1.5h1.6v1.5h-1.6ZM77.3,32.4v-6.2h1.6v6.2h-1.6Z"/>
      <path d="M80.4,32.8l1.9.2c0,.2.1.4.2.5.2.1.4.2.7.2s.8,0,1-.2c.1,0,.3-.2.3-.4,0-.1,0-.4,0-.8v-.9c-.5.7-1.1,1-1.9,1s-1.5-.4-2-1.1c-.4-.6-.6-1.3-.6-2.1s.3-1.8.8-2.4,1.1-.8,1.9-.8,1.4.3,1.9,1v-.9h1.5v5.6c0,.7,0,1.3-.2,1.6s-.3.6-.5.9-.5.4-.9.5-.8.2-1.4.2c-1.1,0-1.8-.2-2.2-.5s-.7-.8-.7-1.4,0-.1,0-.2ZM81.9,29.1c0,.7.1,1.1.4,1.5s.6.5.9.5.7-.2,1-.5.4-.8.4-1.4-.1-1.1-.4-1.4-.6-.5-1-.5-.7.2-1,.5-.4.8-.4,1.4Z"/>
      <path d="M89.6,23.8v3.2c.5-.6,1.2-.9,1.9-.9s.7,0,1,.2.5.3.7.5.3.5.3.7,0,.7,0,1.2v3.7h-1.6v-3.3c0-.7,0-1.1,0-1.2s-.2-.3-.3-.4-.4-.2-.6-.2-.5,0-.7.2-.4.3-.5.6-.1.7-.1,1.2v3.1h-1.6v-8.6h1.6Z"/>
      <path d="M98.1,26.1v1.3h-1.1v2.5c0,.5,0,.8,0,.9s0,.2.1.2.2,0,.3,0,.4,0,.7-.2v1.3c-.2.2-.7.2-1.2.2s-.6,0-.8-.1-.4-.2-.5-.4-.2-.4-.2-.6c0-.2,0-.6,0-1.2v-2.7h-.8v-1.3h.8v-1.2l1.7-1v2.2h1.1Z"/>
      <path d="M102,30.6l1.7-.3c0,.3.2.6.4.7s.5.2.9.2.7,0,1-.2c.1-.1.2-.3.2-.4s0-.2-.1-.3c0,0-.3-.2-.6-.2-1.3-.3-2.2-.6-2.5-.8-.5-.3-.7-.8-.7-1.4s.2-1,.6-1.4,1.1-.6,2-.6,1.5.1,1.9.4.7.7.9,1.2l-1.6.3c0-.2-.2-.4-.4-.6s-.5-.2-.8-.2-.7,0-.9.2c-.1,0-.2.2-.2.3s0,.2.2.3c.1.1.7.3,1.5.5s1.5.4,1.8.7c.3.3.5.7.5,1.2s-.2,1.1-.7,1.5-1.2.6-2.1.6-1.5-.2-2-.5-.8-.8-1-1.4Z"/>
      <path d="M110.9,23.8v3.2c.5-.6,1.2-.9,1.9-.9s.7,0,1,.2.5.3.7.5.3.5.3.7,0,.7,0,1.2v3.7h-1.6v-3.3c0-.7,0-1.1,0-1.2s-.2-.3-.3-.4-.4-.2-.6-.2-.5,0-.7.2-.4.3-.5.6-.1.7-.1,1.2v3.1h-1.6v-8.6h1.6Z"/>
      <path d="M116.2,29.2c0-.5.1-1.1.4-1.6s.7-.9,1.1-1.2,1-.4,1.7-.4c.9,0,1.7.3,2.3.9s.9,1.4.9,2.3-.3,1.7-.9,2.3-1.4.9-2.3.9-1.1-.1-1.6-.4-.9-.6-1.2-1.1-.4-1.1-.4-1.8ZM117.9,29.2c0,.6.1,1.1.4,1.4s.7.5,1.1.5.8-.2,1.1-.5.4-.8.4-1.4-.1-1.1-.4-1.4-.7-.5-1.1-.5-.8.2-1.1.5-.4.8-.4,1.4Z"/>
      <path d="M123.9,26.1h1.5v.9c.2-.3.5-.6.8-.8s.7-.3,1.1-.3c.7,0,1.3.3,1.8.8s.8,1.4.8,2.4-.3,1.8-.8,2.4-1.1.9-1.8.9-.7,0-.9-.2-.6-.4-.9-.7v3.1h-1.6v-8.6ZM125.5,29.1c0,.7.1,1.2.4,1.5s.6.5,1,.5.7-.2,1-.5.4-.8.4-1.5-.1-1.1-.4-1.5-.6-.5-1-.5-.7.2-1,.5-.4.8-.4,1.4Z"/>
    </g>
  </g>
  <g id="Dark_mode" display="none">
    <path d="M8,.4h130c4.2,0,7.6,3.4,7.6,7.6v24c0,4.2-3.4,7.6-7.6,7.6H8c-4.2,0-7.6-3.4-7.6-7.6V8C.4,3.8,3.8.4,8,.4Z" fill="none" stroke="#fff" stroke-width=".8"/>
    <g>
      <rect x="7.8" y="8" width="24.4" height="24.4" fill="#fff"/>
      <g id="g11" data-name="g1">
        <path id="path11" data-name="path1" d="M7.8,30.5v-1.9h.4c.4,0,.4,0,.5-.1,0,0,.2-.9.4-1.8.2-.9.4-1.7.5-1.8,0-.1.4-1.7.9-3.4.4-1.8.9-3.5,1-3.8l.2-.6v.6c0,.3,0,1.1-.1,1.7,0,.6,0,1.6-.1,2.1s0,1.5-.1,2.1,0,1.6-.1,2.1,0,1.5-.1,2v.9s3.3,0,3.3,0v-.2c.2-.2.2-.3.6-1.1,0-.2.2-.5.3-.7.1-.3.3-.7.4-.9s.2-.5.2-.5,0-.2.1-.3c.2-.4.3-.6.8-1.9.5-1.1.7-1.6,1-2.3.3-.7.4-.9.6-1.3.2-.6.4-1,.8-1.9,0-.2.2-.3.2-.4s0,0,0,0c0,.1-1.1,4.5-1.3,5.1,0,.1,0,.3-.1.5-.4,1.4-1.4,5.7-1.4,5.8s.1.1,2,.1h2l.5-1.9c.3-1,.7-3,1.1-4.4.3-1.4.6-2.6.7-2.7,0-.1.4-1.4.7-3s.8-3.2.9-3.7c.1-.5.2-1,.2-1.1,0-.1-.1-.1-3.1-.1h-3.1v.2c-.2.1-.2.3-.3.5,0,.1-.2.4-.3.7-.1.2-.2.5-.2.5s0,.2-.2.4c-.1.2-.2.4-.2.4s0,.2-.1.3c-.2.5-.4.8-.6,1.3-.1.3-.3.6-.3.7s-.2.4-.2.5c0,.1-.2.5-.3.7s-.3.6-.3.7c-.3.6-.3.8-.5,1.2-.1.3-.3.6-.3.7,0,.1-.1.3-.2.4,0,0,0,.1,0,.1,0,0,0-.9.2-3.1,0-.9.1-1.8.2-4,0-.5,0-1.3.1-1.7v-.7s-3,0-3,0h-3.1s-.2.8-.2.8c-.1.4-.3,1.3-.5,1.9l-.3,1.1v-3.8s0-3.8,0-3.8h24.4v3.8h-2.8s-2.8,0-2.8,0l-.5,1.8c-.3,1-.5,1.9-.5,2.1,0,.1,0,.3-.1.5,0,.2-.3,1.4-1.9,7.7-.3,1.4-.6,2.6-.7,2.7-.1.4-.5,2-.5,2s1,0,2.2,0c2.1,0,2.2,0,2.3-.1,0,0,.1-.6.3-1.1s.3-1.1.3-1.3.3-1.1.6-2.2.5-2.1.5-2.1c0,0,.2-.1,1.8-.1h1.8v10.7H7.8v-1.9h0ZM29.5,18.1c0-.1.2-.8.4-1.5l.3-1.3h1s1,0,1,0v3h-2.8v-.2s0,0,0,0Z" fill="#36c"/>
      </g>
    </g>
    <g>
      <path d="M38.5,16.5V7.9h3.2c.7,0,1.2,0,1.6.3s.7.4.9.8.3.7.3,1.1,0,.7-.3,1-.5.6-.9.8c.5.2.9.4,1.2.8s.4.8.4,1.3,0,.8-.3,1.1-.4.6-.6.8-.6.3-.9.4-.8.1-1.4.1h-3.3ZM39.6,11.5h1.9c.5,0,.9,0,1.1,0,.3,0,.5-.2.7-.4s.2-.4.2-.8,0-.5-.2-.8-.3-.4-.6-.4-.7-.1-1.3-.1h-1.7v2.6ZM39.6,15.5h2.1c.4,0,.6,0,.8,0,.3,0,.5-.1.7-.2s.3-.3.4-.5.2-.5.2-.7,0-.6-.2-.8-.4-.4-.7-.5-.7-.1-1.3-.1h-2v3Z" fill="#fff"/>
      <path d="M50.5,16.5v-.9c-.5.7-1.1,1.1-2,1.1s-.7,0-1-.2-.6-.3-.7-.5-.3-.5-.3-.8c0-.2,0-.5,0-1v-3.9h1.1v3.5c0,.6,0,.9,0,1.1,0,.3.2.5.4.7s.5.2.8.2.6,0,.9-.2.5-.4.6-.7.2-.7.2-1.2v-3.3h1.1v6.2h-.9Z" fill="#fff"/>
      <path d="M53,18.9v-1c.1,0,.3,0,.5,0s.4,0,.6-.1.3-.2.3-.3c0-.1.2-.4.3-.8,0,0,0-.1,0-.3l-2.4-6.2h1.1l1.3,3.6c.2.5.3.9.5,1.4.1-.5.3-1,.4-1.4l1.3-3.6h1.1l-2.4,6.3c-.3.7-.5,1.2-.6,1.4-.2.3-.4.6-.6.8s-.5.2-.9.2-.4,0-.7-.1Z" fill="#fff"/>
      <path d="M62.4,9.1v-1.2h1.1v1.2h-1.1ZM62.4,16.5v-6.2h1.1v6.2h-1.1Z" fill="#fff"/>
      <path d="M65.1,16.5v-6.2h.9v.9c.5-.7,1.1-1,2-1s.7,0,1,.2.5.3.7.5.3.5.3.8c0,.2,0,.5,0,1v3.8h-1.1v-3.8c0-.4,0-.8-.1-1s-.2-.4-.4-.5-.5-.2-.7-.2c-.4,0-.8.1-1.2.4s-.5.8-.5,1.6v3.4h-1.1Z" fill="#fff"/>
      <path d="M77.4,15.6l.2.9c-.3,0-.6,0-.8,0-.4,0-.7,0-.9-.2s-.4-.3-.4-.5-.1-.6-.1-1.2v-3.6h-.8v-.8h.8v-1.5l1-.6v2.2h1.1v.8h-1.1v3.6c0,.3,0,.5,0,.6s0,.2.2.2.2,0,.4,0,.3,0,.5,0Z" fill="#fff"/>
      <path d="M78.4,16.5V7.9h1.1v3.1c.5-.6,1.1-.9,1.9-.9s.9,0,1.2.3.6.4.7.8.2.8.2,1.4v3.9h-1.1v-3.9c0-.5-.1-.9-.3-1.2s-.6-.4-1-.4-.6,0-.9.2-.5.4-.6.7-.2.7-.2,1.1v3.4h-1.1Z" fill="#fff"/>
      <path d="M89.3,14.5h1.1c-.2.8-.5,1.3-1,1.6s-1.1.5-1.8.5-1.6-.3-2.2-.8-.8-1.3-.8-2.4.3-1.9.8-2.4,1.2-.9,2.1-.9,1.5.3,2,.8.8,1.4.8,2.4,0,.2,0,.3h-4.6c0,.7.2,1.2.6,1.6s.8.5,1.3.5.7-.1,1-.3.5-.5.7-1ZM85.9,12.8h3.5c0-.5-.2-.9-.4-1.2-.3-.4-.8-.6-1.3-.6s-.9.2-1.2.5-.5.8-.5,1.3Z" fill="#fff"/>
    </g>
    <g>
      <path d="M38.6,32.4v-8.6h2.6l1.6,5.9,1.5-5.9h2.6v8.6h-1.6v-6.8l-1.7,6.8h-1.7l-1.7-6.8v6.8h-1.6Z" fill="#fff"/>
      <path d="M48.2,29.2c0-.5.1-1.1.4-1.6s.7-.9,1.1-1.2,1-.4,1.7-.4c.9,0,1.7.3,2.3.9s.9,1.4.9,2.3-.3,1.7-.9,2.3-1.4.9-2.3.9-1.1-.1-1.6-.4-.9-.6-1.2-1.1-.4-1.1-.4-1.8ZM49.9,29.2c0,.6.1,1.1.4,1.4s.7.5,1.1.5.8-.2,1.1-.5.4-.8.4-1.4-.1-1.1-.4-1.4-.7-.5-1.1-.5-.8.2-1.1.5-.4.8-.4,1.4Z" fill="#fff"/>
      <path d="M55.9,32.4v-8.6h1.6v3.1c.5-.6,1.1-.9,1.8-.9s1.4.3,1.9.8.7,1.3.7,2.4-.3,1.9-.8,2.5-1.1.9-1.8.9-.7,0-1.1-.3-.6-.4-.9-.8v.9h-1.5ZM57.5,29.1c0,.6.1,1.1.3,1.4.3.4.7.7,1.1.7s.7-.2.9-.5.4-.8.4-1.5-.1-1.2-.4-1.5-.6-.5-1-.5-.7.2-1,.5-.4.8-.4,1.4Z" fill="#fff"/>
      <path d="M63.3,25.3v-1.5h1.6v1.5h-1.6ZM63.3,32.4v-6.2h1.6v6.2h-1.6Z" fill="#fff"/>
      <path d="M66.6,32.4v-8.6h5.9v1.5h-4.2v2h3.6v1.5h-3.6v3.7h-1.7Z" fill="#fff"/>
      <path d="M73.9,32.4v-8.6h1.6v8.6h-1.6Z" fill="#fff"/>
      <path d="M77.3,25.3v-1.5h1.6v1.5h-1.6ZM77.3,32.4v-6.2h1.6v6.2h-1.6Z" fill="#fff"/>
      <path d="M80.4,32.8l1.9.2c0,.2.1.4.2.5.2.1.4.2.7.2s.8,0,1-.2c.1,0,.3-.2.3-.4,0-.1,0-.4,0-.8v-.9c-.5.7-1.1,1-1.9,1s-1.5-.4-2-1.1c-.4-.6-.6-1.3-.6-2.1s.3-1.8.8-2.4,1.1-.8,1.9-.8,1.4.3,1.9,1v-.9h1.5v5.6c0,.7,0,1.3-.2,1.6s-.3.6-.5.9-.5.4-.9.5-.8.2-1.4.2c-1.1,0-1.8-.2-2.2-.5s-.7-.8-.7-1.4,0-.1,0-.2ZM81.9,29.1c0,.7.1,1.1.4,1.5s.6.5.9.5.7-.2,1-.5.4-.8.4-1.4-.1-1.1-.4-1.4-.6-.5-1-.5-.7.2-1,.5-.4.8-.4,1.4Z" fill="#fff"/>
      <path d="M89.6,23.8v3.2c.5-.6,1.2-.9,1.9-.9s.7,0,1,.2.5.3.7.5.3.5.3.7,0,.7,0,1.2v3.7h-1.6v-3.3c0-.7,0-1.1,0-1.2s-.2-.3-.3-.4-.4-.2-.6-.2-.5,0-.7.2-.4.3-.5.6-.1.7-.1,1.2v3.1h-1.6v-8.6h1.6Z" fill="#fff"/>
      <path d="M98.1,26.1v1.3h-1.1v2.5c0,.5,0,.8,0,.9s0,.2.1.2.2,0,.3,0,.4,0,.7-.2v1.3c-.2.2-.7.2-1.2.2s-.6,0-.8-.1-.4-.2-.5-.4-.2-.4-.2-.6c0-.2,0-.6,0-1.2v-2.7h-.8v-1.3h.8v-1.2l1.7-1v2.2h1.1Z" fill="#fff"/>
      <path d="M102,30.6l1.7-.3c0,.3.2.6.4.7s.5.2.9.2.7,0,1-.2c.1-.1.2-.3.2-.4s0-.2-.1-.3c0,0-.3-.2-.6-.2-1.3-.3-2.2-.6-2.5-.8-.5-.3-.7-.8-.7-1.4s.2-1,.6-1.4,1.1-.6,2-.6,1.5.1,1.9.4.7.7.9,1.2l-1.6.3c0-.2-.2-.4-.4-.6s-.5-.2-.8-.2-.7,0-.9.2c-.1,0-.2.2-.2.3s0,.2.2.3c.1.1.7.3,1.5.5s1.5.4,1.8.7c.3.3.5.7.5,1.2s-.2,1.1-.7,1.5-1.2.6-2.1.6-1.5-.2-2-.5-.8-.8-1-1.4Z" fill="#fff"/>
      <path d="M110.9,23.8v3.2c.5-.6,1.2-.9,1.9-.9s.7,0,1,.2.5.3.7.5.3.5.3.7,0,.7,0,1.2v3.7h-1.6v-3.3c0-.7,0-1.1,0-1.2s-.2-.3-.3-.4-.4-.2-.6-.2-.5,0-.7.2-.4.3-.5.6-.1.7-.1,1.2v3.1h-1.6v-8.6h1.6Z" fill="#fff"/>
      <path d="M116.2,29.2c0-.5.1-1.1.4-1.6s.7-.9,1.1-1.2,1-.4,1.7-.4c.9,0,1.7.3,2.3.9s.9,1.4.9,2.3-.3,1.7-.9,2.3-1.4.9-2.3.9-1.1-.1-1.6-.4-.9-.6-1.2-1.1-.4-1.1-.4-1.8ZM117.9,29.2c0,.6.1,1.1.4,1.4s.7.5,1.1.5.8-.2,1.1-.5.4-.8.4-1.4-.1-1.1-.4-1.4-.7-.5-1.1-.5-.8.2-1.1.5-.4.8-.4,1.4Z" fill="#fff"/>
      <path d="M123.9,26.1h1.5v.9c.2-.3.5-.6.8-.8s.7-.3,1.1-.3c.7,0,1.3.3,1.8.8s.8,1.4.8,2.4-.3,1.8-.8,2.4-1.1.9-1.8.9-.7,0-.9-.2-.6-.4-.9-.7v3.1h-1.6v-8.6ZM125.5,29.1c0,.7.1,1.2.4,1.5s.6.5,1,.5.7-.2,1-.5.4-.8.4-1.5-.1-1.1-.4-1.5-.6-.5-1-.5-.7.2-1,.5-.4.8-.4,1.4Z" fill="#fff"/>
    </g>
  </g>
</svg>