<?xml version="1.0" encoding="UTF-8"?>
<svg id="svg1" xmlns="http://www.w3.org/2000/svg" viewBox="0 0 167.76 167.76">
  <defs>
    <style>
      .cls-1 {
        fill: #36c;
      }
    </style>
  </defs>
  <rect width="167.76" height="167.76" fill="#FFFFFF" />
  <g id="g1">
    <path id="path1" class="cls-1"
      d="M0,155v-12.79h2.9c2.65,0,2.92-.07,3.16-.94.14-.52,1.5-5.95,3.01-12.06,1.52-6.11,2.94-11.78,3.15-12.58.22-.81,2.86-11.38,5.86-23.49,3.01-12.11,5.95-23.91,6.55-26.22l1.09-4.19-.24,3.98c-.13,2.19-.42,7.38-.65,11.54-.23,4.15-.6,10.76-.82,14.68-.22,3.92-.6,10.53-.83,14.68-.23,4.15-.62,10.76-.85,14.68-.23,3.92-.55,10.01-.7,13.53l-.27,6.4h23.21l.55-1.36c.51-1.26.95-2.29,3.25-7.45.46-1.04,1.45-3.3,2.2-5.03.75-1.73,2-4.53,2.79-6.22.79-1.69,1.43-3.15,1.43-3.24,0-.1.45-1.16,1.01-2.38,1.19-2.62,1.73-3.83,5.74-12.91,3.48-7.87,4.73-10.7,7.07-15.94,2.11-4.74,2.61-5.86,3.89-8.81,1.66-3.83,3.02-6.89,5.68-12.79.52-1.15,1.07-2.38,1.22-2.73.15-.35.18-.17.07.42-.19.96-7.7,31.24-8.66,34.92-.23.87-.59,2.28-.82,3.15-2.43,9.35-9.71,39.08-9.71,39.64,0,.68.94.74,13.84.74h13.84l3.26-13.11c1.8-7.21,5.15-20.75,7.46-30.1,2.31-9.34,4.38-17.65,4.59-18.46.22-.81,2.5-9.96,5.07-20.34,2.57-10.38,5.42-21.87,6.34-25.54.91-3.66,1.66-7.01,1.66-7.45,0-.76-.77-.79-20.99-.79h-20.99l-.69,1.57c-.38.87-1,2.33-1.38,3.25-.38.92-1.34,3.06-2.13,4.76-.79,1.69-1.44,3.15-1.44,3.24,0,.1-.57,1.4-1.26,2.91-.7,1.51-1.26,2.83-1.26,2.93s-.45,1.18-1.01,2.4c-1.47,3.22-2.51,5.59-4.05,9.14-.75,1.73-1.72,3.95-2.16,4.93-.44.98-1.15,2.58-1.59,3.57-.44.98-1.41,3.2-2.16,4.93-.75,1.73-1.74,4-2.21,5.03-1.84,4.12-2.38,5.36-3.7,8.39-.75,1.73-1.73,3.95-2.17,4.93-.44.98-.99,2.28-1.23,2.89-.23.61-.51,1.02-.62.92-.18-.17.11-5.99,1.07-21.53.37-6.01.77-12.44,1.69-27.26.23-3.69.54-9.03.69-11.85l.27-5.14-21.23.1-21.23.1-1.37,5.45c-.75,3-2.22,8.85-3.26,13L.05,52.64l-.03-26.32L0,0h167.76v26.42l-19.44.1-19.44.1-3.12,12.58c-1.72,6.92-3.3,13.29-3.53,14.16-.23.87-.59,2.28-.82,3.14-.38,1.47-2.32,9.3-13.12,52.96-2.31,9.34-4.38,17.65-4.6,18.46-.72,2.68-3.37,13.65-3.37,13.96,0,.17,6.91.3,15.36.3,14.27,0,15.37-.07,15.56-.74.11-.4.99-3.94,1.94-7.86.95-3.92,1.91-7.79,2.13-8.6.22-.81,1.93-7.7,3.81-15.31,1.88-7.61,3.51-14.17,3.62-14.58.19-.68,1.16-.74,12.61-.74h12.41v73.4H0v-12.76ZM149.07,69.96c.14-.75,1.25-5.33,2.46-10.17l2.2-8.81,7.01-.1,7.01-.1v20.57h-18.95l.26-1.39Z" />
  </g>
</svg>