<svg id="Layer_1" xmlns="http://www.w3.org/2000/svg" version="1.1" viewBox="0 0 241.6 161.8">
  <defs>
    <style>
      .st3 {
        stroke: #000084
      }

      .st10,
      .st11,
      .st12,
      .st13,
      .st14,
      .st3,
      .st4,
      .st5,
      .st6,
      .st7,
      .st8,
      .st9 {
        stroke-linecap: round;
        stroke-linejoin: round
      }

      .st10,
      .st12,
      .st13,
      .st14,
      .st3,
      .st4,
      .st5,
      .st6,
      .st7,
      .st8,
      .st9 {
        fill: none
      }

      .st10,
      .st11,
      .st12,
      .st14,
      .st3,
      .st4,
      .st6,
      .st7 {
        stroke-width: .4px
      }

      .st13,
      .st4 {
        stroke: #a90000
      }

      .st13,
      .st5,
      .st8,
      .st9 {
        font-family: ArialMT, Arial;
        font-size: 4.8px;
        stroke-width: .4px
      }

      .st12,
      .st5 {
        stroke: #0f0f0f
      }

      .st16 {
        letter-spacing: 1.1em
      }

      .st18 {
        letter-spacing: .8em
      }

      .st11,
      .st6 {
        stroke: #009600
      }

      .st22 {
        letter-spacing: .5em
      }

      .st24 {
        letter-spacing: .8em
      }

      .st7,
      .st9 {
        stroke: #006464
      }

      .st10,
      .st8 {
        stroke: #0000c2
      }

      .st27 {
        isolation: isolate;
        opacity: 0
      }

      .st11 {
        fill: #009600
      }

      .st29 {
        letter-spacing: .2em
      }

      .st31 {
        letter-spacing: 1.3em
      }

      .st14 {
        stroke: #840000
      }
    </style>
  </defs>
  <path class="st14" d="M93.8 139.9v3.6h3.6l-3.6 3.6-3.6-3.6h3.6M93.8 139.9h0" />
  <path class="st7"
    d="m91.1 152.6-.3-.2M90.7 152.4h-.5M90.2 152.4l-.5.2M89.7 152.6l-.3.3M89.4 152.9l-.2.3M89.2 153.2l-.2.7M89 153.9v.5M89 154.4l.2.7M89.2 155.1l.2.3M89.4 155.5l.3.3M89.7 155.8l.5.2M90.2 156h.3M90.6 156l.5-.2M91.1 155.8l.2-.2M91.2 155.6v-1.2M91.2 154.4h-.7M92.8 156v-3.6M92.8 152.4l2.1 3.6M94.8 156v-3.6M96.6 156v-3.6M96.6 152.4h.9M97.4 152.4l.5.2M97.9 152.6l.3.3M98.3 152.9l.2.3M98.4 153.2l.2.7M98.6 153.9v.5M98.6 154.4l-.2.7M98.4 155.1l-.2.3M98.3 155.5l-.3.3M97.9 155.8l-.5.2M97.4 156h-.9" />
  <path d="m169.4 100.3 10.8-10.8h50.4l10.8 10.8v50.4l-10.8 10.8h-50.4l-10.8-10.8v-50.4Z"
    style="fill:#ffffc2;fill-rule:evenodd" />
  <path class="st14"
    d="m169.4 100.3 10.8-10.8h50.4l10.8 10.8v50.4l-10.8 10.8h-50.4l-10.8-10.8v-50.4ZM169.4 107.5h-7.2" />
  <path class="st7"
    d="m173.2 107.3.5.2M173.7 107.5l.2.2M173.9 107.6l.2.3M174.1 108v.5M174.1 108.5l-.2.3M173.9 108.8l-.2.2M173.7 109l-.3.2M173.4 109.2H172M172 109.2v-3.6M172 105.6h1.2M173.2 105.6l.3.2M173.5 105.8l.2.2M173.7 105.9l.2.3M173.9 106.3v.3M173.9 106.6l-.2.3M173.7 107l-.2.2M173.5 107.1l-.3.2M173.2 107.3H172M175.6 107.8h2.7M177 109.2v-2.7" />
  <path class="st4" d="M166.8 106.4h-2.1M165.8 106.4v-3.6M165.8 102.8l-.3.5M165.5 103.3l-.3.3M165.1 103.6l-.3.2" />
  <path class="st14" d="M169.4 114.7h-7.2" />
  <path class="st4"
    d="m164.8 110.3.2-.2M165 110.1l.3-.2M165.3 110h.9M166.2 110l.3.2M166.5 110.1l.2.2M166.7 110.3l.2.3M166.8 110.6v.3M166.8 111l-.2.5M166.7 111.5l-2.1 2.1M164.6 113.6h2.2" />
  <path class="st14" d="M169.4 121.9h-7.2" />
  <path class="st7" d="M171.8 122.6h1.7M171.5 123.6l1.2-3.6M172.7 120l1.2 3.6M175.1 122.2h2.7M176.5 123.6v-2.7" />
  <path class="st4"
    d="M164.6 117.2h2.2M166.8 117.2l-1.2 1.4M165.6 118.5h.5M166.2 118.5l.3.2M166.5 118.7l.2.2M166.7 118.9l.2.3M166.8 119.2v.9M166.8 120.1l-.2.3M166.7 120.4l-.2.2M166.5 120.6l-.3.2M166.2 120.8h-1M165.1 120.8l-.3-.2M164.8 120.6l-.2-.2" />
  <path class="st14" d="M169.4 129.1h-7.2" />
  <path class="st7"
    d="m173.2 128.9.5.2M173.7 129.1l.2.2M173.9 129.2l.2.3M174.1 129.6v.5M174.1 130.1l-.2.3M173.9 130.4l-.2.2M173.7 130.6l-.3.2M173.4 130.8H172M172 130.8v-3.6M172 127.2h1.2M173.2 127.2l.3.2M173.5 127.4l.2.2M173.7 127.5l.2.3M173.9 127.9v.3M173.9 128.2l-.2.3M173.7 128.6l-.2.2M173.5 128.7l-.3.2M173.2 128.9H172M175.6 129.4h2.7" />
  <path class="st4" d="M166.5 125.6v2.4M165.6 124.2l-.9 2.6M164.8 126.8h2.2" />
  <path class="st14" d="M169.4 136.3h-7.2" />
  <path class="st4"
    d="M166.7 131.6H165M165 131.6l-.2 1.7M164.8 133.3l.2-.2M165 133.1l.3-.2M165.3 132.9h.9M166.2 132.9l.3.2M166.5 133.1l.2.2M166.7 133.3l.2.3M166.8 133.6v.9M166.8 134.5l-.2.3M166.7 134.8l-.2.2M166.5 135l-.3.2M166.2 135.2h-.9M165.3 135.2l-.3-.2M165 135l-.2-.2" />
  <path class="st14" d="M169.4 143.5h-7.2" />
  <path class="st7" d="M171.8 144.2h1.7M171.5 145.2l1.2-3.6M172.7 141.6l1.2 3.6M175.1 143.8h2.7" />
  <path class="st4"
    d="M166.5 138.8h-.7M165.8 138.8l-.3.2M165.5 138.9l-.2.2M165.3 139.1l-.3.5M165 139.6l-.2.7M164.8 140.3v1.4M164.8 141.7l.2.3M165 142l.2.2M165.1 142.2l.3.2M165.5 142.4h.7M166.2 142.4l.3-.2M166.5 142.2l.2-.2M166.7 142l.2-.3M166.8 141.7v-.9M166.8 140.8l-.2-.3M166.7 140.5l-.2-.2M166.5 140.3l-.3-.2M166.2 140.1h-.7M165.5 140.1l-.3.2M165.1 140.3l-.2.2M165 140.5l-.2.3" />
  <path class="st14" d="m98.9 85.9 2.2-3.6M101 89.5v-7.2M101 82.3l2.2 3.6M101 89.5h0" />
  <path class="st7"
    d="M96.4 75.4h2.7M97.8 76.8v-2.7M102.6 73.2h-1.7M100.8 73.2l-.2 1.7M100.7 74.9l.2-.2M100.8 74.7l.3-.2M101.2 74.6h.9M102 74.6l.3.2M102.4 74.7l.2.2M102.6 74.9l.2.3M102.7 75.2v.9M102.7 76.1l-.2.3M102.6 76.4l-.2.2M102.4 76.6l-.3.2M102 76.8h-.9M101.2 76.8l-.3-.2M100.8 76.6l-.2-.2M103.8 73.2l1.2 3.6M105 76.8l1.2-3.6" />
  <path class="st14" d="m124.1 13.9 2.2-3.6M126.2 17.5v-7.2M126.2 10.3l2.2 3.6M126.2 17.5h0" />
  <path class="st7"
    d="M121.6 3.4h2.7M123 4.8V2.1M127.8 1.2h-1.7M126 1.2l-.2 1.7M125.9 2.9l.2-.2M126 2.7l.3-.2M126.4 2.6h.9M127.2 2.6l.3.2M127.6 2.7l.2.2M127.8 2.9l.2.3M127.9 3.2v.9M127.9 4.1l-.2.3M127.8 4.4l-.2.2M127.6 4.6l-.3.2M127.2 4.8h-.9M126.4 4.8l-.3-.2M126 4.6l-.2-.2M129 1.2l1.2 3.6M130.2 4.8l1.2-3.6" />
  <path style="fill:#ffffc2" d="M.2 17.5h79.2v122.4H.2z" />
  <path class="st14" d="M.2 17.5h79.2v122.4H.2zM79.4 107.5h7.2" />
  <path class="st7" d="M70.8 108.2h1.7M70.5 109.2l1.2-3.6M71.7 105.6l1.2 3.6M74.1 107.8h2.7M75.5 109.2v-2.7" />
  <path class="st14" d="M79.4 114.7h7.2" />
  <path class="st7" d="M70.8 115.4h1.7M70.5 116.4l1.2-3.6M71.7 112.8l1.2 3.6M74.1 115h2.7" />
  <path class="st14" d="M79.4 100.3h7.2" />
  <path class="st7"
    d="m71.7 100.1.5.2M72.2 100.3l.2.2M72.4 100.4l.2.3M72.5 100.8v.5M72.5 101.3l-.2.3M72.4 101.6l-.2.2M72.2 101.8l-.3.2M71.9 102h-1.4M70.5 102v-3.6M70.5 98.4h1.2M71.7 98.4l.3.2M72 98.6l.2.2M72.2 98.7l.2.3M72.4 99.1v.3M72.4 99.4l-.2.3M72.2 99.8l-.2.2M72 99.9l-.3.2M71.7 100.1h-1.2M74.1 100.6h2.7M75.5 102v-2.7" />
  <path class="st14" d="M79.4 93.1h7.2" />
  <path class="st7"
    d="m71.7 92.9.5.2M72.2 93.1l.2.2M72.4 93.2l.2.3M72.5 93.6v.5M72.5 94.1l-.2.3M72.4 94.4l-.2.2M72.2 94.6l-.3.2M71.9 94.8h-1.4M70.5 94.8v-3.6M70.5 91.2h1.2M71.7 91.2l.3.2M72 91.4l.2.2M72.2 91.5l.2.3M72.4 91.9v.3M72.4 92.2l-.2.3M72.2 92.6l-.2.2M72 92.7l-.3.2M71.7 92.9h-1.2M74.1 93.4h2.7" />
  <path class="st14" d="M79.4 49.9h7.2" />
  <path class="st7"
    d="M49.4 51.6V48M49.4 48h.9M50.3 48l.5.2M50.8 48.2l.3.3M51.1 48.5l.2.3M51.3 48.8l.2.7M51.5 49.5v.5M51.5 50l-.2.7M51.3 50.7l-.2.3M51.1 51.1l-.3.3M50.8 51.4l-.5.2M50.3 51.6h-.9M53 51.6V48M56.8 51.6l-1.2-1.7M54.7 51.6V48M54.7 48h1.4M56.1 48l.3.2M56.4 48.2l.2.2M56.6 48.3l.2.3M56.8 48.7v.5M56.8 49.2l-.2.3M56.6 49.5l-.2.2M56.4 49.7l-.3.2M56.1 49.9h-1.4M58.3 50.2H61M59.7 51.6v-2.7M63.8 53l-.2-.2M63.6 52.8l-.3-.5M63.3 52.3l-.2-.3M63.1 51.9l-.2-.5M62.9 51.4l-.2-.9M62.8 50.6v-.7M62.8 49.9l.2-.9M62.9 49l.2-.5M63.1 48.5l.2-.3M63.3 48.2l.3-.5M63.6 47.6l.2-.2M65.2 50.2h2.7M66.5 51.6v-2.7M71.3 48h-1.7M69.6 48l-.2 1.7M69.5 49.7l.2-.2M69.6 49.5l.3-.2M70 49.4h.9M70.8 49.4l.3.2M71.2 49.5l.2.2M71.3 49.7l.2.3M71.5 50v.9M71.5 50.9l-.2.3M71.3 51.2l-.2.2M71.2 51.4l-.3.2M70.8 51.6h-.9M70 51.6l-.3-.2M69.6 51.4l-.2-.2M72.5 48l1.2 3.6M73.7 51.6l1.2-3.6M75.8 53l.2-.2M76 52.8l.3-.5M76.3 52.3l.2-.3M76.5 51.9l.2-.5M76.7 51.4l.2-.9M76.8 50.6v-.7M76.8 49.9l-.2-.9M76.7 49l-.2-.5M76.5 48.5l-.2-.3M76.3 48.2l-.3-.5M76 47.6l-.2-.2" />
  <path class="st14" d="M79.4 42.7h7.2" />
  <path class="st7"
    d="M51.5 44.4v-3.6M51.5 40.8h.9M52.3 40.8l.5.2M52.8 41l.3.3M53.2 41.3l.2.3M53.3 41.6l.2.7M53.5 42.3v.5M53.5 42.8l-.2.7M53.3 43.5l-.2.3M53.2 43.9l-.3.3M52.8 44.2l-.5.2M52.3 44.4h-.9M55.1 44.4v-3.6M58.8 44.4l-1.2-1.7M56.8 44.4v-3.6M56.8 40.8h1.4M58.1 40.8l.3.2M58.5 41l.2.2M58.7 41.1l.2.3M58.8 41.5v.5M58.8 42l-.2.3M58.7 42.3l-.2.2M58.5 42.5l-.3.2M58.1 42.7h-1.4M60.4 43h2.7M65.9 45.8l-.2-.2M65.7 45.6l-.3-.5M65.3 45.1l-.2-.3M65.2 44.7l-.2-.5M65 44.2l-.2-.9M64.8 43.4v-.7M64.8 42.7l.2-.9M65 41.8l.2-.5M65.2 41.3l.2-.3M65.3 41l.3-.5M65.7 40.4l.2-.2M67.2 44.4v-3.6M67.2 40.8h.9M68.1 40.8l.5.2M68.6 41l.3.3M68.9 41.3l.2.3M69.1 41.6l.2.7M69.3 42.3v.5M69.3 42.8l-.2.7M69.1 43.5l-.2.3M68.9 43.9l-.3.3M68.6 44.2l-.5.2M68.1 44.4h-.9M70.8 44.4v-3.6M74.6 44.4l-1.2-1.7M72.5 44.4v-3.6M72.5 40.8h1.4M73.9 40.8l.3.2M74.3 41l.2.2M74.4 41.1l.2.3M74.6 41.5v.5M74.6 42l-.2.3M74.4 42.3l-.2.2M74.3 42.5l-.3.2M73.9 42.7h-1.4M75.8 45.8l.2-.2M76 45.6l.3-.5M76.3 45.1l.2-.3M76.5 44.7l.2-.5M76.7 44.2l.2-.9M76.8 43.4v-.7M76.8 42.7l-.2-.9M76.7 41.8l-.2-.5M76.5 41.3l-.2-.3M76.3 41l-.3-.5M76 40.4l-.2-.2" />
  <path class="st14" d="M79.4 35.5h7.2" />
  <path class="st7"
    d="M48.2 35.3h1.2M49.9 37.2h-1.7M48.2 37.2v-3.6M48.2 33.6h1.7M51.5 37.2v-3.6M51.5 33.6l2.1 3.6M53.5 37.2v-3.6M55.1 36.2h1.7M54.7 37.2l1.2-3.6M55.9 33.6l1.2 3.6M58.3 35.8H61M59.7 37.2v-2.7M63.8 38.6l-.2-.2M63.6 38.4l-.3-.5M63.3 37.9l-.2-.3M63.1 37.5l-.2-.5M62.9 37l-.2-.9M62.8 36.2v-.7M62.8 35.5l.2-.9M62.9 34.6l.2-.5M63.1 34.1l.2-.3M63.3 33.8l.3-.5M63.6 33.2l.2-.2M65.2 35.8h2.7M66.5 37.2v-2.7M71.3 33.6h-1.7M69.6 33.6l-.2 1.7M69.5 35.3l.2-.2M69.6 35.1l.3-.2M70 35h.9M70.8 35l.3.2M71.2 35.1l.2.2M71.3 35.3l.2.3M71.5 35.6v.9M71.5 36.5l-.2.3M71.3 36.8l-.2.2M71.2 37l-.3.2M70.8 37.2h-.9M70 37.2l-.3-.2M69.6 37l-.2-.2M72.5 33.6l1.2 3.6M73.7 37.2l1.2-3.6M75.8 38.6l.2-.2M76 38.4l.3-.5M76.3 37.9l.2-.3M76.5 37.5l.2-.5M76.7 37l.2-.9M76.8 36.2v-.7M76.8 35.5l-.2-.9M76.7 34.6l-.2-.5M76.5 34.1l-.2-.3M76.3 33.8l-.3-.5M76 33.2l-.2-.2" />
  <path class="st14" d="M79.4 28.3h7.2" />
  <path class="st7"
    d="M49.1 28.1h1.2M50.8 30h-1.7M49.1 30v-3.6M49.1 26.4h1.7M52.3 30v-3.6M52.3 26.4l2.1 3.6M54.4 30v-3.6M55.9 29h1.7M55.6 30l1.2-3.6M56.8 26.4 58 30M59.2 28.6h2.7M64.7 31.4l-.2-.2M64.5 31.2l-.3-.5M64.1 30.7l-.2-.3M64 30.3l-.2-.5M63.8 29.8l-.2-.9M63.6 29v-.7M63.6 28.3l.2-.9M63.8 27.4l.2-.5M64 26.9l.2-.3M64.1 26.6l.3-.5M64.5 26l.2-.2M66 28.1h1.2M67.7 30H66M66 30v-3.6M66 26.4h1.7M69.3 30v-3.6M69.3 26.4l2.1 3.6M71.3 30v-3.6M72.9 29h1.7M72.5 30l1.2-3.6M73.7 26.4l1.2 3.6M75.8 31.4l.2-.2M76 31.2l.3-.5M76.3 30.7l.2-.3M76.5 30.3l.2-.5M76.7 29.8l.2-.9M76.8 29v-.7M76.8 28.3l-.2-.9M76.7 27.4l-.2-.5M76.5 26.9l-.2-.3M76.3 26.6l-.3-.5M76 26l-.2-.2" />
  <path class="st14" d="M79.4 121.9h7.2" />
  <path class="st7"
    d="m69.5 120.2-.3-.2M69.1 120h-.5M68.6 120l-.5.2M68.1 120.2l-.3.3M67.7 120.5l-.2.3M67.6 120.8l-.2.7M67.4 121.5v.5M67.4 122l.2.7M67.6 122.7l.2.3M67.7 123.1l.3.3M68.1 123.4l.5.2M68.6 123.6h.3M68.9 123.6l.5-.2M69.5 123.4l.2-.2M69.6 123.2V122M69.6 122h-.7M71.2 123.6V120M71.2 120l2.1 3.6M73.2 123.6V120M74.9 123.6V120M74.9 120h.9M75.8 120l.5.2M76.3 120.2l.3.3M76.7 120.5l.2.3M76.8 120.8l.2.7M77 121.5v.5M77 122l-.2.7M76.8 122.7l-.2.3M76.7 123.1l-.3.3M76.3 123.4l-.5.2M75.8 123.6h-.9" />
  <path class="st14" d="M79.4 64.3h7.2" />
  <path class="st7"
    d="M48 66v-3.6M48 62.4h1.4M49.4 62.4l.3.2M49.7 62.6l.2.2M49.9 62.7l.2.3M50.1 63.1v.5M50.1 63.6l-.2.3M49.9 63.9l-.2.2M49.7 64.1l-.3.2M49.4 64.3H48M51.6 62.4v2.9M51.6 65.3l.2.3M51.8 65.6l.2.2M52 65.8l.3.2M52.3 66h.7M53 66l.3-.2M53.3 65.8l.2-.2M53.5 65.6l.2-.3M53.7 65.3v-2.9M57.1 66h-1.7M55.4 66v-3.6M58.3 64.6H61M59.7 66v-2.7M63.8 67.4l-.2-.2M63.6 67.2l-.3-.5M63.3 66.7l-.2-.3M63.1 66.3l-.2-.5M62.9 65.8l-.2-.9M62.8 65v-.7M62.8 64.3l.2-.9M62.9 63.4l.2-.5M63.1 62.9l.2-.3M63.3 62.6l.3-.5M63.6 62l.2-.2M65.2 64.6h2.7M66.5 66v-2.7M71.3 62.4h-1.7M69.6 62.4l-.2 1.7M69.5 64.1l.2-.2M69.6 63.9l.3-.2M70 63.8h.9M70.8 63.8l.3.2M71.2 63.9l.2.2M71.3 64.1l.2.3M71.5 64.4v.9M71.5 65.3l-.2.3M71.3 65.6l-.2.2M71.2 65.8l-.3.2M70.8 66h-.9M70 66l-.3-.2M69.6 65.8l-.2-.2M72.5 62.4l1.2 3.6M73.7 66l1.2-3.6M75.8 67.4l.2-.2M76 67.2l.3-.5M76.3 66.7l.2-.3M76.5 66.3l.2-.5M76.7 65.8l.2-.9M76.8 65v-.7M76.8 64.3l-.2-.9M76.7 63.4l-.2-.5M76.5 62.9l-.2-.3M76.3 62.6l-.3-.5M76 62l-.2-.2" />
  <path class="st14" d="M79.4 57.1h7.2" />
  <path class="st7"
    d="M48.7 58.8v-3.6M48.7 55.2h1.4M50.1 55.2l.3.2M50.4 55.4l.2.2M50.6 55.5l.2.3M50.8 55.9v.5M50.8 56.4l-.2.3M50.6 56.7l-.2.2M50.4 56.9l-.3.2M50.1 57.1h-1.4M52.3 55.2v2.9M52.3 58.1l.2.3M52.5 58.4l.2.2M52.7 58.6l.3.2M53 58.8h.7M53.7 58.8l.3-.2M54 58.6l.2-.2M54.2 58.4l.2-.3M54.4 58.1v-2.9M57.8 58.8h-1.7M56.1 58.8v-3.6M59 57.4h2.7M64.5 60.2l-.2-.2M64.3 60l-.3-.5M64 59.5l-.2-.3M63.8 59.1l-.2-.5M63.6 58.6l-.2-.9M63.5 57.8v-.7M63.5 57.1l.2-.9M63.6 56.2l.2-.5M63.8 55.7l.2-.3M64 55.4l.3-.5M64.3 54.8l.2-.2M65.9 58.8v-3.6M65.9 55.2h1.4M67.2 55.2l.3.2M67.6 55.4l.2.2M67.7 55.5l.2.3M67.9 55.9v.5M67.9 56.4l-.2.3M67.7 56.7l-.2.2M67.6 56.9l-.3.2M67.2 57.1h-1.4M69.5 55.2v2.9M69.5 58.1l.2.3M69.6 58.4l.2.2M69.8 58.6l.3.2M70.1 58.8h.7M70.8 58.8l.3-.2M71.2 58.6l.2-.2M71.3 58.4l.2-.3M71.5 58.1v-2.9M74.9 58.8h-1.7M73.2 58.8v-3.6M75.8 60.2l.2-.2M76 60l.3-.5M76.3 59.5l.2-.3M76.5 59.1l.2-.5M76.7 58.6l.2-.9M76.8 57.8v-.7M76.8 57.1l-.2-.9M76.7 56.2l-.2-.5M76.5 55.7l-.2-.3M76.3 55.4l-.3-.5M76 54.8l-.2-.2" />
  <path class="st14" d="M79.4 129.1h7.2" />
  <path class="st7"
    d="m67.7 127.2 1.2 3.6M68.9 130.8l1.2-3.6M73.4 130.4l-.2.2M73.2 130.6l-.5.2M72.7 130.8h-.3M72.4 130.8l-.5-.2M71.9 130.6l-.3-.3M71.5 130.3l-.2-.3M71.3 129.9l-.2-.7M71.2 129.2v-.5M71.2 128.7l.2-.7M71.3 128l.2-.3M71.5 127.7l.3-.3M71.9 127.4l.5-.2M72.4 127.2h.3M72.7 127.2l.5.2M73.2 127.4l.2.2M77 130.4l-.2.2M76.8 130.6l-.5.2M76.3 130.8H76M76 130.8l-.5-.2M75.5 130.6l-.3-.3M75.1 130.3l-.2-.3M74.9 129.9l-.2-.7M74.8 129.2v-.5M74.8 128.7l.2-.7M74.9 128l.2-.3M75.1 127.7l.3-.3M75.5 127.4l.5-.2M76 127.2h.3M76.3 127.2l.5.2M76.8 127.4l.2.2" />
  <path class="st12"
    d="M92.2 37.7h2.1M93.2 41.3v-3.6M96.1 37.7h.7M96.8 37.7l.3.2M97.1 37.9l.3.3M97.5 38.2l.2.7M97.6 38.9v1.2M97.6 40.1l-.2.7M97.5 40.8l-.3.3M97.1 41.1l-.3.2M96.8 41.3h-.7M96.1 41.3l-.3-.2M95.8 41.1l-.3-.3M95.4 40.8l-.2-.7M95.2 40.1v-1.2M95.2 38.9l.2-.7M95.4 38.2l.3-.3M95.8 37.9l.3-.2M103.1 39.4l.5.2M103.6 39.6l.2.2M103.8 39.8l.2.3M104 40.1v.5M104 40.6l-.2.3M103.8 41l-.2.2M103.6 41.1l-.3.2M103.3 41.3h-1.4M101.9 41.3v-3.6M101.9 37.7h1.2M103.1 37.7l.3.2M103.5 37.9l.2.2M103.6 38l.2.3M103.8 38.4v.3M103.8 38.7l-.2.3M103.6 39.1l-.2.2M103.5 39.2l-.3.2M103.1 39.4h-1.2M106.2 37.7h.7M106.9 37.7l.3.2M107.2 37.9l.3.3M107.6 38.2l.2.7M107.8 38.9v1.2M107.8 40.1l-.2.7M107.6 40.8l-.3.3M107.2 41.1l-.3.2M106.9 41.3h-.7M106.2 41.3l-.3-.2M105.9 41.1l-.3-.3M105.5 40.8l-.2-.7M105.4 40.1v-1.2M105.4 38.9l.2-.7M105.5 38.2l.3-.3M105.9 37.9l.3-.2M109.1 40.3h1.7M108.8 41.3l1.2-3.6M110 37.7l1.2 3.6M114.4 41.3l-1.2-1.7M112.4 41.3v-3.6M112.4 37.7h1.4M113.8 37.7l.3.2M114.1 37.9l.2.2M114.3 38l.2.3M114.4 38.4v.5M114.4 38.9l-.2.3M114.3 39.2l-.2.2M114.1 39.4l-.3.2M113.8 39.6h-1.4M116 41.3v-3.6M116 37.7h.9M116.8 37.7l.5.2M117.4 37.9l.3.3M117.7 38.2l.2.3M117.9 38.6l.2.7M118 39.2v.5M118 39.8l-.2.7M117.9 40.4l-.2.3M117.7 40.8l-.3.3M117.4 41.1l-.5.2M116.8 41.3h-.9M92.2 52.1h2.1M93.2 55.7v-3.6M96.1 52.1h.7M96.8 52.1l.3.2M97.1 52.3l.3.3M97.5 52.6l.2.7M97.6 53.3v1.2M97.6 54.5l-.2.7M97.5 55.2l-.3.3M97.1 55.5l-.3.2M96.8 55.7h-.7M96.1 55.7l-.3-.2M95.8 55.5l-.3-.3M95.4 55.2l-.2-.7M95.2 54.5v-1.2M95.2 53.3l.2-.7M95.4 52.6l.3-.3M95.8 52.3l.3-.2M103.1 53.8l.5.2M103.6 54l.2.2M103.8 54.2l.2.3M104 54.5v.5M104 55l-.2.3M103.8 55.4l-.2.2M103.6 55.5l-.3.2M103.3 55.7h-1.4M101.9 55.7v-3.6M101.9 52.1h1.2M103.1 52.1l.3.2M103.5 52.3l.2.2M103.6 52.4l.2.3M103.8 52.8v.3M103.8 53.1l-.2.3M103.6 53.5l-.2.2M103.5 53.6l-.3.2M103.1 53.8h-1.2M106.2 52.1h.7M106.9 52.1l.3.2M107.2 52.3l.3.3M107.6 52.6l.2.7M107.8 53.3v1.2M107.8 54.5l-.2.7M107.6 55.2l-.3.3M107.2 55.5l-.3.2M106.9 55.7h-.7M106.2 55.7l-.3-.2M105.9 55.5l-.3-.3M105.5 55.2l-.2-.7M105.4 54.5v-1.2M105.4 53.3l.2-.7M105.5 52.6l.3-.3M105.9 52.3l.3-.2M109.1 54.7h1.7M108.8 55.7l1.2-3.6M110 52.1l1.2 3.6M114.4 55.7l-1.2-1.7M112.4 55.7v-3.6M112.4 52.1h1.4M113.8 52.1l.3.2M114.1 52.3l.2.2M114.3 52.4l.2.3M114.4 52.8v.5M114.4 53.3l-.2.3M114.3 53.6l-.2.2M114.1 53.8l-.3.2M113.8 54h-1.4M116 55.7v-3.6M116 52.1h.9M116.8 52.1l.5.2M117.4 52.3l.3.3M117.7 52.6l.2.3M117.9 53l.2.7M118 53.6v.5M118 54.2l-.2.7M117.9 54.8l-.2.3M117.7 55.2l-.3.3M117.4 55.5l-.5.2M116.8 55.7h-.9M92.2 23.3h2.1M93.2 26.9v-3.6M96.1 23.3h.7M96.8 23.3l.3.2M97.1 23.5l.3.3M97.5 23.8l.2.7M97.6 24.5v1.2M97.6 25.7l-.2.7M97.5 26.4l-.3.3M97.1 26.7l-.3.2M96.8 26.9h-.7M96.1 26.9l-.3-.2M95.8 26.7l-.3-.3M95.4 26.4l-.2-.7M95.2 25.7v-1.2M95.2 24.5l.2-.7M95.4 23.8l.3-.3M95.8 23.5l.3-.2M103.1 25l.5.2M103.6 25.2l.2.2M103.8 25.4l.2.3M104 25.7v.5M104 26.2l-.2.3M103.8 26.6l-.2.2M103.6 26.7l-.3.2M103.3 26.9h-1.4M101.9 26.9v-3.6M101.9 23.3h1.2M103.1 23.3l.3.2M103.5 23.5l.2.2M103.6 23.6l.2.3M103.8 24v.3M103.8 24.3l-.2.3M103.6 24.7l-.2.2M103.5 24.8l-.3.2M103.1 25h-1.2M106.2 23.3h.7M106.9 23.3l.3.2M107.2 23.5l.3.3M107.6 23.8l.2.7M107.8 24.5v1.2M107.8 25.7l-.2.7M107.6 26.4l-.3.3M107.2 26.7l-.3.2M106.9 26.9h-.7M106.2 26.9l-.3-.2M105.9 26.7l-.3-.3M105.5 26.4l-.2-.7M105.4 25.7v-1.2M105.4 24.5l.2-.7M105.5 23.8l.3-.3M105.9 23.5l.3-.2M109.1 25.9h1.7M108.8 26.9l1.2-3.6M110 23.3l1.2 3.6M114.4 26.9l-1.2-1.7M112.4 26.9v-3.6M112.4 23.3h1.4M113.8 23.3l.3.2M114.1 23.5l.2.2M114.3 23.6l.2.3M114.4 24v.5M114.4 24.5l-.2.3M114.3 24.8l-.2.2M114.1 25l-.3.2M113.8 25.2h-1.4M116 26.9v-3.6M116 23.3h.9M116.8 23.3l.5.2M117.4 23.5l.3.3M117.7 23.8l.2.3M117.9 24.2l.2.7M118 24.8v.5M118 25.4l-.2.7M117.9 26l-.2.3M117.7 26.4l-.3.3M117.4 26.7l-.5.2M116.8 26.9h-.9" />
  <path class="st10"
    d="M110.8 76.8v-3.6M110.8 73.2h.9M111.7 73.2l.5.2M112.2 73.4l.3.3M112.5 73.7l.2.3M112.7 74l.2.7M112.9 74.7v.5M112.9 75.2l-.2.7M112.7 75.9l-.2.3M112.5 76.3l-.3.3M112.2 76.6l-.5.2M111.7 76.8h-.9M115.8 76.6l-.3.2M115.4 76.8h-.7M114.7 76.8l-.3-.2M114.4 76.6l-.2-.3M114.2 76.3v-1.4M114.2 74.9l.2-.3M114.4 74.6l.3-.2M114.7 74.4h.7M115.4 74.4l.3.2M115.8 74.6l.2.3M115.9 74.9v.3M115.9 75.2l-1.7.3M119 76.8v-3.6M119 76.6l-.3.2M118.7 76.8h-.7M118 76.8l-.3-.2M117.7 76.6l-.2-.2M117.5 76.4l-.2-.3M117.3 76.1v-1M117.3 75.1l.2-.3M117.5 74.7l.2-.2M117.7 74.6l.3-.2M118 74.4h.7M118.7 74.4l.3.2M120.7 76.8v-2.4M120.7 73.2l-.2.2M120.6 73.4l.2.2M120.7 73.5l.2-.2M120.9 73.4l-.2-.2M120.7 73.2v.3M124 76.6l-.3.2M123.7 76.8h-.7M123 76.8l-.3-.2M122.6 76.6l-.2-.2M122.5 76.4l-.2-.3M122.3 76.1v-1M122.3 75.1l.2-.3M122.5 74.7l.2-.2M122.6 74.6l.3-.2M123 74.4h.7M123.7 74.4l.3.2M127.1 76.8v-1.9M127.1 74.9l-.2-.3M126.9 74.6l-.3-.2M126.6 74.4h-.7M125.9 74.4l-.3.2M127.1 76.6l-.3.2M126.7 76.8h-.9M125.9 76.8l-.3-.2M125.5 76.6l-.2-.3M125.4 76.3V76M125.4 75.9l.2-.3M125.5 75.6l.3-.2M125.9 75.4h.9M126.7 75.4l.3-.2M128.3 74.4h1.4M128.8 73.2v3.1M128.8 76.3l.2.3M129 76.6l.3.2M129.3 76.8h.3M132.2 76.6l-.3.2M131.9 76.8h-.7M131.2 76.8l-.3-.2M130.9 76.6l-.2-.3M130.7 76.3v-1.4M130.7 74.9l.2-.3M130.9 74.6l.3-.2M131.2 74.4h.7M131.9 74.4l.3.2M132.2 74.6l.2.3M132.4 74.9v.3M132.4 75.2l-1.7.3M135.5 76.8v-3.6M135.5 76.6l-.3.2M135.1 76.8h-.7M134.5 76.8l-.3-.2M134.1 76.6l-.2-.2M133.9 76.4l-.2-.3M133.8 76.1v-1M133.8 75.1l.2-.3M133.9 74.7l.2-.2M134.1 74.6l.3-.2M134.5 74.4h.7M135.1 74.4l.3.2M139.9 75.4h2.7M141.3 76.8v-2.7M146.1 73.2h-1.7M144.4 73.2l-.2 1.7M144.2 74.9l.2-.2M144.4 74.7l.3-.2M144.7 74.6h.9M145.6 74.6l.3.2M145.9 74.7l.2.2M146.1 74.9l.2.3M146.3 75.2v.9M146.3 76.1l-.2.3M146.1 76.4l-.2.2M145.9 76.6l-.3.2M145.6 76.8h-.9M144.7 76.8l-.3-.2M144.4 76.6l-.2-.2M147.3 73.2l1.2 3.6M148.5 76.8l1.2-3.6M153.7 74.4V78M153.7 74.6l.3-.2M154 74.4h.7M154.7 74.4l.3.2M155 74.6l.2.2M155.2 74.7l.2.3M155.4 75.1v1M155.4 76.1l-.2.3M155.2 76.4l-.2.2M155 76.6l-.3.2M154.7 76.8h-.7M154 76.8l-.3-.2M157.4 76.8l-.3-.2M157.1 76.6l-.2-.2M156.9 76.4l-.2-.3M156.7 76.1v-1M156.7 75.1l.2-.3M156.9 74.7l.2-.2M157.1 74.6l.3-.2M157.4 74.4h.5M157.9 74.4l.3.2M158.3 74.6l.2.2M158.5 74.7l.2.3M158.6 75.1v1M158.6 76.1l-.2.3M158.5 76.4l-.2.2M158.3 76.6l-.3.2M157.9 76.8h-.5M159.8 74.4l.7 2.4M160.5 76.8l.7-1.7M161.2 75.1l.7 1.7M161.9 76.8l.7-2.4M165.3 76.6l-.3.2M165 76.8h-.7M164.3 76.8l-.3-.2M163.9 76.6l-.2-.3M163.8 76.3v-1.4M163.8 74.9l.2-.3M163.9 74.6l.3-.2M164.3 74.4h.7M165 74.4l.3.2M165.3 74.6l.2.3M165.5 74.9v.3M165.5 75.2l-1.7.3M167 76.8v-2.4M167 75.1l.2-.3M167.2 74.7l.2-.2M167.4 74.6l.3-.2M167.7 74.4h.3M169.4 76.6v.2M169.4 76.8l-.2.3M169.3 77.1l-.2.2M110.8 80.2v2.4M110.8 80.5l.2-.2M111 80.3l.3-.2M111.3 80.2h.5M111.8 80.2l.3.2M112.2 80.3l.2.3M112.3 80.7v1.9M114.6 82.6l-.3-.2M114.2 82.4l-.2-.2M114.1 82.2l-.2-.3M113.9 81.9v-1M113.9 80.9l.2-.3M114.1 80.5l.2-.2M114.2 80.3l.3-.2M114.6 80.2h.5M115.1 80.2l.3.2M115.4 80.3l.2.2M115.6 80.5l.2.3M115.8 80.9v1M115.8 81.9l-.2.3M115.6 82.2l-.2.2M115.4 82.4l-.3.2M115.1 82.6h-.5M116.8 80.2h1.4M117.3 79v3.1M117.3 82.1l.2.3M117.5 82.4l.3.2M117.8 82.6h.3M121.6 80.2h1.4M122.1 82.6v-3.1M122.1 79.5l.2-.3M122.3 79.2l.3-.2M122.6 79h.3M124.2 82.6v-2.4M124.2 80.9l.2-.3M124.3 80.5l.2-.2M124.5 80.3l.3-.2M124.9 80.2h.3M126.9 82.6l-.3-.2M126.6 82.4l-.2-.2M126.4 82.2l-.2-.3M126.2 81.9v-1M126.2 80.9l.2-.3M126.4 80.5l.2-.2M126.6 80.3l.3-.2M126.9 80.2h.5M127.4 80.2l.3.2M127.8 80.3l.2.2M127.9 80.5l.2.3M128.1 80.9v1M128.1 81.9l-.2.3M127.9 82.2l-.2.2M127.8 82.4l-.3.2M127.4 82.6h-.5M129.7 82.6v-2.4M129.7 80.5l.2-.2M129.8 80.3l.3-.2M130.2 80.2h.5M130.7 80.2l.3.2M131 80.3l.2.3M131.2 80.7v1.9M131.2 80.7l.2-.3M131.4 80.3l.3-.2M131.7 80.2h.5M132.2 80.2l.3.2M132.6 80.3l.2.3M132.7 80.7v1.9M138.7 82.6v-1.9M138.7 80.7l-.2-.3M138.6 80.3l-.3-.2M138.2 80.2h-.7M137.5 80.2l-.3.2M138.7 82.4l-.3.2M138.4 82.6h-.9M137.5 82.6l-.3-.2M137.2 82.4l-.2-.3M137 82.1v-.3M137 81.7l.2-.3M137.2 81.4l.3-.2M137.5 81.2h.9M138.4 81.2l.3-.2M143.2 81.2h2.7M144.6 82.6v-2.7M149.4 79h-1.7M147.7 79l-.2 1.7M147.5 80.7l.2-.2M147.7 80.5l.3-.2M148 80.3h.9M148.9 80.3l.3.2M149.2 80.5l.2.2M149.4 80.7l.2.3M149.5 81v.9M149.5 81.9l-.2.3M149.4 82.2l-.2.2M149.2 82.4l-.3.2M148.9 82.6h-.9M148 82.6l-.3-.2M147.7 82.4l-.2-.2M150.6 79l1.2 3.6M151.8 82.6 153 79M156.9 80.2v3.6M156.9 80.3l.3-.2M157.3 80.2h.7M157.9 80.2l.3.2M158.3 80.3l.2.2M158.5 80.5l.2.3M158.6 80.9v1M158.6 81.9l-.2.3M158.5 82.2l-.2.2M158.3 82.4l-.3.2M157.9 82.6h-.7M157.3 82.6l-.3-.2M160.2 82.6v-2.4M160.2 79l-.2.2M160 79.2l.2.2M160.2 79.3l.2-.2M160.3 79.2l-.2-.2M160.2 79v.3M161.9 80.2v2.4M161.9 80.5l.2-.2M162.1 80.3l.3-.2M162.4 80.2h.5M162.9 80.2l.3.2M163.3 80.3l.2.3M163.4 80.7v1.9M168.4 82.6l-.3-.2M168.1 82.4l-.2-.2M167.9 82.2l-.2-.3M167.7 81.9v-1M167.7 80.9l.2-.3M167.9 80.5l.2-.2M168.1 80.3l.3-.2M168.4 80.2h.5M168.9 80.2l.3.2M169.3 80.3l.2.2M169.4 80.5l.2.3M169.6 80.9v1M169.6 81.9l-.2.3M169.4 82.2l-.2.2M169.3 82.4l-.3.2M168.9 82.6h-.5M171.1 80.2v2.4M171.1 80.5l.2-.2M171.3 80.3l.3-.2M171.7 80.2h.5M172.2 80.2l.3.2M172.5 80.3l.2.3M172.7 80.7v1.9M176.6 80.2h1.4M177.1 79v3.1M177.1 82.1l.2.3M177.3 82.4l.3.2M177.7 82.6h.3M179.2 82.6V79M180.7 82.6v-1.9M180.7 80.7l-.2-.3M180.6 80.3l-.3-.2M180.2 80.2h-.5M179.7 80.2l-.3.2M179.4 80.3l-.2.2M183.8 82.4l-.3.2M183.5 82.6h-.7M182.8 82.6l-.3-.2M182.5 82.4l-.2-.3M182.3 82.1v-1.4M182.3 80.7l.2-.3M182.5 80.3l.3-.2M182.8 80.2h.7M183.5 80.2l.3.2M183.8 80.3l.2.3M184 80.7v.3M184 81l-1.7.3M188.3 82.6V79M188.3 80.3l.3-.2M188.6 80.2h.7M189.3 80.2l.3.2M189.7 80.3l.2.2M189.8 80.5l.2.3M190 80.9v1M190 81.9l-.2.3M189.8 82.2l-.2.2M189.7 82.4l-.3.2M189.3 82.6h-.7M188.6 82.6l-.3-.2M192.1 82.6l-.3-.2M191.7 82.4l-.2-.2M191.5 82.2l-.2-.3M191.4 81.9v-1M191.4 80.9l.2-.3M191.5 80.5l.2-.2M191.7 80.3l.3-.2M192.1 80.2h.5M192.6 80.2l.3.2M192.9 80.3l.2.2M193.1 80.5l.2.3M193.3 80.9v1M193.3 81.9l-.2.3M193.1 82.2l-.2.2M192.9 82.4l-.3.2M192.6 82.6h-.5M196.3 82.6v-1.9M196.3 80.7l-.2-.3M196.2 80.3l-.3-.2M195.8 80.2h-.7M195.1 80.2l-.3.2M196.3 82.4l-.3.2M196 82.6h-.9M195.1 82.6l-.3-.2M194.8 82.4l-.2-.3M194.6 82.1v-.3M194.6 81.7l.2-.3M194.8 81.4l.3-.2M195.1 81.2h.9M196 81.2l.3-.2M198.1 82.6v-2.4M198.1 80.9l.2-.3M198.2 80.5l.2-.2M198.4 80.3l.3-.2M198.7 80.2h.3M201.8 82.6V79M201.8 82.4l-.3.2M201.5 82.6h-.7M200.8 82.6l-.3-.2M200.5 82.4l-.2-.2M200.3 82.2l-.2-.3M200.1 81.9v-1M200.1 80.9l.2-.3M200.3 80.5l.2-.2M200.5 80.3l.3-.2M200.8 80.2h.7M201.5 80.2l.3.2M203.5 82.2l.2.2M203.7 82.4l-.2.2M203.5 82.6l-.2-.2M203.4 82.4l.2-.2M203.5 82.2v.3" />
  <path class="st6"
    d="M101 89.5v39.6M86.6 107.5h28.8M86.6 129.1H101M86.6 121.9h7.2M86.6 93.1h36M86.6 64.3h39.6M119 42.7H86.6M155 100.3v7.2M155 107.5h7.2M126.2 64.3V49.9M86.6 35.5h39.6M126.2 49.9V35.5M126.2 17.5v18M119 28.3H86.6M119 57.1H86.6M86.6 49.9h39.6M115.4 121.9h46.8M122.6 129.1h39.6M86.6 114.7h21.6M108.2 143.5h54M93.8 121.9v18M108.2 114.7v28.8M86.6 100.3H155M115.4 107.5v14.4M122.6 93.1v36" />
  <path class="st3" d="m160.5 134.6 3.5 3.5M163.9 134.6l-3.5 3.5M160.5 113l3.5 3.5M163.9 113l-3.5 3.5" />
  <circle class="st11" cx="126.2" cy="49.9" r="1.3" />
  <circle class="st11" cx="126.2" cy="35.5" r="1.3" />
</svg>