<svg id="Layer_1" xmlns="http://www.w3.org/2000/svg" version="1.1" viewBox="0 0 164.7 100.7"><defs><style>.st0{letter-spacing:1.6em}.st1{letter-spacing:0}.st10,.st11,.st2,.st3,.st4,.st5,.st6,.st7,.st8,.st9{fill:none;stroke-linecap:round;stroke-linejoin:round}.st11,.st2,.st4,.st5,.st8,.st9{stroke-width:.4px}.st10,.st2{stroke:#a90000}.st10,.st3,.st6,.st7{font-family:ArialMT,Arial;font-size:4.8px;stroke-width:.4px}.st3,.st9{stroke:#0f0f0f}.st12{letter-spacing:.7em}.st13{letter-spacing:.8em}.st4{stroke:#009600}.st15{letter-spacing:.5em}.st17{letter-spacing:.8em}.st5,.st7{stroke:#006464}.st6,.st8{stroke:#0000c2}.st18{letter-spacing:.4em}.st19{isolation:isolate;opacity:0}.st20{letter-spacing:.2em}.st21{letter-spacing:.1em}.st11{stroke:#840000}.st22{letter-spacing:.4em}</style></defs><path class="st11" d="M62.1 82.3v3.6h3.6l-3.6 3.6-3.6-3.6h3.6M62.1 82.3h0"/><path class="st5" d="m59.3 95-.3-.2M59 94.8h-.5M58.5 94.8l-.5.2M58 95l-.3.3M57.6 95.3l-.2.3M57.5 95.6l-.2.7M57.3 96.3v.5M57.3 96.8l.2.7M57.5 97.5l.2.3M57.6 97.9l.3.3M58 98.2l.5.2M58.5 98.4h.3M58.8 98.4l.5-.2M59.3 98.2l.2-.2M59.5 98v-1.2M59.5 96.8h-.7M61.1 98.4v-3.6M61.1 94.8l2.1 3.6M63.1 98.4v-3.6M64.8 98.4v-3.6M64.8 94.8h.9M65.7 94.8l.5.2M66.2 95l.3.3M66.5 95.3l.2.3M66.7 95.6l.2.7M66.9 96.3v.5M66.9 96.8l-.2.7M66.7 97.5l-.2.3M66.5 97.9l-.3.3M66.2 98.2l-.5.2M65.7 98.4h-.9"/><path class="st11" d="m59.9 13.9 2.2-3.6M62.1 17.5v-7.2M62.1 10.3l2.2 3.6M62.1 17.5h0"/><path class="st5" d="M57.5 3.4h2.7M58.8 4.8V2.1M63.6 1.2h-1.7M61.9 1.2l-.2 1.7M61.7 2.9l.2-.2M61.9 2.7l.3-.2M62.3 2.6h.9M63.1 2.6l.3.2M63.5 2.7l.2.2M63.6 2.9l.2.3M63.8 3.2v.9M63.8 4.1l-.2.3M63.6 4.4l-.2.2M63.5 4.6l-.3.2M63.1 4.8h-.9M62.3 4.8l-.3-.2M61.9 4.6l-.2-.2M64.8 1.2 66 4.8M66 4.8l1.2-3.6"/><path style="fill:#ffffc2" d="M40.5 24.7h43.2v50.4H40.5z"/><path class="st11" d="M40.5 24.7h43.2v50.4H40.5zM62.1 24.7v-7.2"/><path class="st5" d="M62.4 36.6v-2.7M63.7 35.2H61M60.1 30.4v1.7M60.1 32.1l1.7.2M61.8 32.3l-.2-.2M61.7 32.1l-.2-.3M61.5 31.8v-.9M61.5 30.9l.2-.3M61.7 30.6l.2-.2M61.8 30.4l.3-.2M62.2 30.2h.9M63 30.2l.3.2M63.4 30.4l.2.2M63.6 30.6l.2.3M63.7 30.9v.9M63.7 31.8l-.2.3M63.6 32.1l-.2.2M60.1 29.2l3.6-1.2M63.7 28l-3.6-1.2"/><path class="st2" d="M60.9 20.1v2.1M60.9 21.1h-3.6M57.3 21.1l.5.3M57.8 21.5l.3.3M58.2 21.8l.2.3"/><path class="st11" d="M62.1 75.1v7.2"/><path class="st5" d="m60.3 70.7-.2.3M60.1 71v.5M60.1 71.5l.2.5M60.3 72.1l.3.3M60.6 72.4l.3.2M61 72.6l.7.2M61.7 72.7h.5M62.2 72.7l.7-.2M62.9 72.6l.3-.2M63.2 72.4l.3-.3M63.6 72.1l.2-.5M63.7 71.5v-.3M63.7 71.2l-.2-.5M63.6 70.7l-.2-.2M63.4 70.5h-1.2M62.2 70.5v.7M63.7 69h-3.6M60.1 69l3.6-2.1M63.7 66.9h-3.6M63.7 65.2h-3.6M60.1 65.2v-.9M60.1 64.3l.2-.5M60.3 63.8l.3-.3M60.6 63.5l.3-.2M61 63.3l.7-.2M61.7 63.1h.5M62.2 63.1l.7.2M62.9 63.3l.3.2M63.2 63.5l.3.3M63.6 63.8l.2.5M63.7 64.3v.9"/><path class="st2" d="m57.6 79.8-.2-.2M57.5 79.6l-.2-.3M57.3 79.3v-.9M57.3 78.4l.2-.3M57.5 78.1l.2-.2M57.6 77.9l.3-.2M58 77.7h.3M58.3 77.7l.5.2M58.8 77.9l2.1 2.1M60.9 79.9v-2.2"/><path class="st11" d="M83.7 39.1h7.2"/><path class="st5" d="M79.6 39.8h1.7M79.2 40.8l1.2-3.6M80.4 37.2l1.2 3.6"/><path class="st2" d="M86.4 36.9h1.7M86.1 38l1.2-3.6M87.3 34.4l1.2 3.6"/><path class="st11" d="M83.7 46.3h7.2"/><path class="st5" d="m80.4 46.1.5.2M80.9 46.3l.2.2M81.1 46.4l.2.3M81.3 46.8v.5M81.3 47.3l-.2.3M81.1 47.6l-.2.2M80.9 47.8l-.3.2M80.6 48h-1.4M79.2 48v-3.6M79.2 44.4h1.2M80.4 44.4l.3.2M80.8 44.6l.2.2M80.9 44.7l.2.3M81.1 45.1v.3M81.1 45.4l-.2.3M80.9 45.8l-.2.2M80.8 45.9l-.3.2M80.4 46.1h-1.2"/><path class="st2" d="m87.5 43.3.5.2M88.1 43.4l.2.2M88.2 43.6l.2.3M88.4 44v.5M88.4 44.5l-.2.3M88.2 44.8l-.2.2M88.1 45l-.3.2M87.7 45.2h-1.4M86.3 45.2v-3.6M86.3 41.6h1.2M87.5 41.6l.3.2M87.9 41.7l.2.2M88.1 41.9l.2.3M88.2 42.2v.3M88.2 42.6l-.2.3M88.1 42.9l-.2.2M87.9 43.1l-.3.2M87.5 43.3h-1.2"/><path class="st11" d="M83.7 53.5h7.2"/><path class="st5" d="m81.3 54.8-.2.2M81.1 55l-.5.2M80.6 55.2h-.3M80.3 55.2l-.5-.2M79.7 55l-.3-.3M79.4 54.7l-.2-.3M79.2 54.3l-.2-.7M79.1 53.6v-.5M79.1 53.1l.2-.7M79.2 52.4l.2-.3M79.4 52.1l.3-.3M79.7 51.8l.5-.2M80.3 51.6h.3M80.6 51.6l.5.2M81.1 51.8l.2.2"/><path class="st2" d="m88.4 52-.2.2M88.2 52.2l-.5.2M87.7 52.4h-.3M87.4 52.4l-.5-.2M86.9 52.2l-.3-.3M86.5 51.8l-.2-.3M86.3 51.5l-.2-.7M86.2 50.8v-.5M86.2 50.3l.2-.7M86.3 49.6l.2-.3M86.5 49.3l.3-.3M86.9 48.9l.5-.2M87.4 48.8h.3M87.7 48.8l.5.2M88.2 48.9l.2.2"/><path class="st11" d="M83.7 60.7h7.2"/><path class="st5" d="M79.2 62.4v-3.6M79.2 58.8h.9M80.1 58.8l.5.2M80.6 59l.3.3M80.9 59.3l.2.3M81.1 59.6l.2.7M81.3 60.3v.5M81.3 60.8l-.2.7M81.1 61.5l-.2.3M80.9 61.9l-.3.3M80.6 62.2l-.5.2M80.1 62.4h-.9"/><path class="st2" d="M86.3 59.6V56M86.3 56h.9M87.2 56l.5.2M87.7 56.1l.3.3M88.1 56.5l.2.3M88.2 56.8l.2.7M88.4 57.5v.5M88.4 58l-.2.7M88.2 58.7l-.2.3M88.1 59l-.3.3M87.7 59.4l-.5.2M87.2 59.6h-.9"/><path class="st11" d="M40.5 39.1h-7.2"/><path class="st5" d="M43.1 40.8v-3.6M44.8 40.8v-3.6M44.8 37.2l2.1 3.6M46.8 40.8v-3.6M50.4 40.8h-2.1M49.4 40.8v-3.6M49.4 37.2l-.3.5M49.1 37.7l-.3.3M48.7 38l-.3.2"/><path class="st2" d="M33.3 38v-3.6M35 38v-3.6M35 34.4l2.1 3.6M37.1 38v-3.6M40.7 38h-2.1M39.6 38v-3.6M39.6 34.4l-.3.5M39.3 34.9l-.3.3M38.9 35.2l-.3.2"/><path class="st11" d="M40.5 46.3h-7.2"/><path class="st5" d="M43.1 48v-3.6M44.8 48v-3.6M44.8 44.4l2.1 3.6M46.8 48v-3.6M48.4 44.7l.2-.2M48.6 44.6l.3-.2M48.9 44.4h.9M49.8 44.4l.3.2M50.1 44.6l.2.2M50.3 44.7l.2.3M50.4 45.1v.3M50.4 45.4l-.2.5M50.3 45.9 48.2 48M48.2 48h2.2"/><path class="st2" d="M33.3 45.2v-3.6M35 45.2v-3.6M35 41.6l2.1 3.6M37.1 45.2v-3.6M38.6 41.9l.2-.2M38.8 41.7l.3-.2M39.1 41.6h.9M40 41.6l.3.2M40.3 41.7l.2.2M40.5 41.9l.2.3M40.7 42.2v.3M40.7 42.6l-.2.5M40.5 43.1l-2.1 2.1M38.4 45.2h2.2"/><path class="st11" d="M40.5 53.5h-7.2"/><path class="st5" d="M43.1 55.2v-3.6M44.8 55.2v-3.6M44.8 51.6l2.1 3.6M46.8 55.2v-3.6M48.2 51.6h2.2M50.4 51.6 49.2 53M49.2 53h.5M49.8 53l.3.2M50.1 53.1l.2.2M50.3 53.3l.2.3M50.4 53.6v.9M50.4 54.5l-.2.3M50.3 54.8l-.2.2M50.1 55l-.3.2M49.8 55.2h-1M48.7 55.2l-.3-.2M48.4 55l-.2-.2"/><path class="st2" d="M33.3 52.4v-3.6M35 52.4v-3.6M35 48.8l2.1 3.6M37.1 52.4v-3.6M38.4 48.8h2.2M40.7 48.8l-1.2 1.4M39.5 50.1h.5M40 50.1l.3.2M40.3 50.3l.2.2M40.5 50.5l.2.3M40.7 50.8v.9M40.7 51.7l-.2.3M40.5 52l-.2.2M40.3 52.2l-.3.2M40 52.4h-1M38.9 52.4l-.3-.2M38.6 52.2l-.2-.2"/><path class="st11" d="M40.5 60.7h-7.2"/><path class="st5" d="M43.1 62.4v-3.6M44.8 62.4v-3.6M44.8 58.8l2.1 3.6M46.8 62.4v-3.6M50.1 60v2.4M49.2 58.6l-.9 2.6M48.4 61.2h2.2"/><path class="st2" d="M33.3 59.6V56M35 59.6V56M35 56l2.1 3.6M37.1 59.6V56M40.3 57.2v2.4M39.5 55.8l-.9 2.6M38.6 58.4h2.2"/><path class="st9" d="M1.5 48.5h2.1M2.5 52.1v-3.6M5.5 48.5h.7M6.1 48.5l.3.2M6.5 48.7l.3.3M6.8 49l.2.7M7 49.7v1.2M7 50.9l-.2.7M6.8 51.6l-.3.3M6.5 51.9l-.3.2M6.1 52.1h-.7M5.5 52.1l-.3-.2M5.1 51.9l-.3-.3M4.8 51.6l-.2-.7M4.6 50.9v-1.2M4.6 49.7l.2-.7M4.8 49l.3-.3M5.1 48.7l.3-.2M12.5 50.2l.5.2M13 50.4l.2.2M13.2 50.6l.2.3M13.3 50.9v.5M13.3 51.4l-.2.3M13.2 51.8l-.2.2M13 51.9l-.3.2M12.7 52.1h-1.4M11.3 52.1v-3.6M11.3 48.5h1.2M12.5 48.5l.3.2M12.8 48.7l.2.2M13 48.8l.2.3M13.2 49.2v.3M13.2 49.5l-.2.3M13 49.9l-.2.2M12.8 50l-.3.2M12.5 50.2h-1.2M15.6 48.5h.7M16.3 48.5l.3.2M16.6 48.7l.3.3M16.9 49l.2.7M17.1 49.7v1.2M17.1 50.9l-.2.7M16.9 51.6l-.3.3M16.6 51.9l-.3.2M16.3 52.1h-.7M15.6 52.1l-.3-.2M15.2 51.9l-.3-.3M14.9 51.6l-.2-.7M14.7 50.9v-1.2M14.7 49.7l.2-.7M14.9 49l.3-.3M15.2 48.7l.3-.2M18.5 51.1h1.7M18.1 52.1l1.2-3.6M19.3 48.5l1.2 3.6M23.8 52.1l-1.2-1.7M21.7 52.1v-3.6M21.7 48.5h1.4M23.1 48.5l.3.2M23.5 48.7l.2.2M23.6 48.8l.2.3M23.8 49.2v.5M23.8 49.7l-.2.3M23.6 50l-.2.2M23.5 50.2l-.3.2M23.1 50.4h-1.4M25.3 52.1v-3.6M25.3 48.5h.9M26.2 48.5l.5.2M26.7 48.7l.3.3M27.1 49l.2.3M27.2 49.4l.2.7M27.4 50v.5M27.4 50.6l-.2.7M27.2 51.2l-.2.3M27.1 51.6l-.3.3M26.7 51.9l-.5.2M26.2 52.1h-.9M1.5 55.7h2.1M2.5 59.3v-3.6M5.5 55.7h.7M6.1 55.7l.3.2M6.5 55.9l.3.3M6.8 56.2l.2.7M7 56.9v1.2M7 58.1l-.2.7M6.8 58.8l-.3.3M6.5 59.1l-.3.2M6.1 59.3h-.7M5.5 59.3l-.3-.2M5.1 59.1l-.3-.3M4.8 58.8l-.2-.7M4.6 58.1v-1.2M4.6 56.9l.2-.7M4.8 56.2l.3-.3M5.1 55.9l.3-.2M12.5 57.4l.5.2M13 57.6l.2.2M13.2 57.8l.2.3M13.3 58.1v.5M13.3 58.6l-.2.3M13.2 59l-.2.2M13 59.1l-.3.2M12.7 59.3h-1.4M11.3 59.3v-3.6M11.3 55.7h1.2M12.5 55.7l.3.2M12.8 55.9l.2.2M13 56l.2.3M13.2 56.4v.3M13.2 56.7l-.2.3M13 57.1l-.2.2M12.8 57.2l-.3.2M12.5 57.4h-1.2M15.6 55.7h.7M16.3 55.7l.3.2M16.6 55.9l.3.3M16.9 56.2l.2.7M17.1 56.9v1.2M17.1 58.1l-.2.7M16.9 58.8l-.3.3M16.6 59.1l-.3.2M16.3 59.3h-.7M15.6 59.3l-.3-.2M15.2 59.1l-.3-.3M14.9 58.8l-.2-.7M14.7 58.1v-1.2M14.7 56.9l.2-.7M14.9 56.2l.3-.3M15.2 55.9l.3-.2M18.5 58.3h1.7M18.1 59.3l1.2-3.6M19.3 55.7l1.2 3.6M23.8 59.3l-1.2-1.7M21.7 59.3v-3.6M21.7 55.7h1.4M23.1 55.7l.3.2M23.5 55.9l.2.2M23.6 56l.2.3M23.8 56.4v.5M23.8 56.9l-.2.3M23.6 57.2l-.2.2M23.5 57.4l-.3.2M23.1 57.6h-1.4M25.3 59.3v-3.6M25.3 55.7h.9M26.2 55.7l.5.2M26.7 55.9l.3.3M27.1 56.2l.2.3M27.2 56.6l.2.7M27.4 57.2v.5M27.4 57.8l-.2.7M27.2 58.4l-.2.3M27.1 58.8l-.3.3M26.7 59.1l-.5.2M26.2 59.3h-.9M96.1 41.3h2.1M97.1 44.9v-3.6M100 41.3h.7M100.7 41.3l.3.2M101.1 41.5l.3.3M101.4 41.8l.2.7M101.6 42.5v1.2M101.6 43.7l-.2.7M101.4 44.4l-.3.3M101.1 44.7l-.3.2M100.7 44.9h-.7M100 44.9l-.3-.2M99.7 44.7l-.3-.3M99.3 44.4l-.2-.7M99.2 43.7v-1.2M99.2 42.5l.2-.7M99.3 41.8l.3-.3M99.7 41.5l.3-.2M105.9 44.9v-3.6M105.9 41.3l1.2 2.6M107.1 43.9l1.2-2.6M108.3 41.3v3.6M110.7 41.3h.7M111.3 41.3l.3.2M111.7 41.5l.3.3M112 41.8l.2.7M112.2 42.5v1.2M112.2 43.7l-.2.7M112 44.4l-.3.3M111.7 44.7l-.3.2M111.3 44.9h-.7M110.7 44.9l-.3-.2M110.3 44.7l-.3-.3M110 44.4l-.2-.7M109.8 43.7v-1.2M109.8 42.5l.2-.7M110 41.8l.3-.3M110.3 41.5l.3-.2M113.2 41.3h2.1M114.3 44.9v-3.6M117.2 41.3h.7M117.9 41.3l.3.2M118.2 41.5l.3.3M118.5 41.8l.2.7M118.7 42.5v1.2M118.7 43.7l-.2.7M118.5 44.4l-.3.3M118.2 44.7l-.3.2M117.9 44.9h-.7M117.2 44.9l-.3-.2M116.8 44.7l-.3-.3M116.5 44.4l-.2-.7M116.3 43.7v-1.2M116.3 42.5l.2-.7M116.5 41.8l.3-.3M116.8 41.5l.3-.2M122.3 44.9l-1.2-1.7M120.3 44.9v-3.6M120.3 41.3h1.4M121.6 41.3l.3.2M122 41.5l.2.2M122.1 41.6l.2.3M122.3 42v.5M122.3 42.5l-.2.3M122.1 42.8l-.2.2M122 43l-.3.2M121.6 43.2h-1.4M96.1 34.1h2.1M97.1 37.7v-3.6M100 34.1h.7M100.7 34.1l.3.2M101.1 34.3l.3.3M101.4 34.6l.2.7M101.6 35.3v1.2M101.6 36.5l-.2.7M101.4 37.2l-.3.3M101.1 37.5l-.3.2M100.7 37.7h-.7M100 37.7l-.3-.2M99.7 37.5l-.3-.3M99.3 37.2l-.2-.7M99.2 36.5v-1.2M99.2 35.3l.2-.7M99.3 34.6l.3-.3M99.7 34.3l.3-.2M105.9 37.7v-3.6M105.9 34.1l1.2 2.6M107.1 36.7l1.2-2.6M108.3 34.1v3.6M110.7 34.1h.7M111.3 34.1l.3.2M111.7 34.3l.3.3M112 34.6l.2.7M112.2 35.3v1.2M112.2 36.5l-.2.7M112 37.2l-.3.3M111.7 37.5l-.3.2M111.3 37.7h-.7M110.7 37.7l-.3-.2M110.3 37.5l-.3-.3M110 37.2l-.2-.7M109.8 36.5v-1.2M109.8 35.3l.2-.7M110 34.6l.3-.3M110.3 34.3l.3-.2M113.2 34.1h2.1M114.3 37.7v-3.6M117.2 34.1h.7M117.9 34.1l.3.2M118.2 34.3l.3.3M118.5 34.6l.2.7M118.7 35.3v1.2M118.7 36.5l-.2.7M118.5 37.2l-.3.3M118.2 37.5l-.3.2M117.9 37.7h-.7M117.2 37.7l-.3-.2M116.8 37.5l-.3-.3M116.5 37.2l-.2-.7M116.3 36.5v-1.2M116.3 35.3l.2-.7M116.5 34.6l.3-.3M116.8 34.3l.3-.2M122.3 37.7l-1.2-1.7M120.3 37.7v-3.6M120.3 34.1h1.4M121.6 34.1l.3.2M122 34.3l.2.2M122.1 34.4l.2.3M122.3 34.8v.5M122.3 35.3l-.2.3M122.1 35.6l-.2.2M122 35.8l-.3.2M121.6 36h-1.4M96.1 55.7h2.1M97.1 59.3v-3.6M100 55.7h.7M100.7 55.7l.3.2M101.1 55.9l.3.3M101.4 56.2l.2.7M101.6 56.9v1.2M101.6 58.1l-.2.7M101.4 58.8l-.3.3M101.1 59.1l-.3.2M100.7 59.3h-.7M100 59.3l-.3-.2M99.7 59.1l-.3-.3M99.3 58.8l-.2-.7M99.2 58.1v-1.2M99.2 56.9l.2-.7M99.3 56.2l.3-.3M99.7 55.9l.3-.2M105.9 59.3v-3.6M105.9 55.7l1.2 2.6M107.1 58.3l1.2-2.6M108.3 55.7v3.6M110.7 55.7h.7M111.3 55.7l.3.2M111.7 55.9l.3.3M112 56.2l.2.7M112.2 56.9v1.2M112.2 58.1l-.2.7M112 58.8l-.3.3M111.7 59.1l-.3.2M111.3 59.3h-.7M110.7 59.3l-.3-.2M110.3 59.1l-.3-.3M110 58.8l-.2-.7M109.8 58.1v-1.2M109.8 56.9l.2-.7M110 56.2l.3-.3M110.3 55.9l.3-.2M113.2 55.7h2.1M114.3 59.3v-3.6M117.2 55.7h.7M117.9 55.7l.3.2M118.2 55.9l.3.3M118.5 56.2l.2.7M118.7 56.9v1.2M118.7 58.1l-.2.7M118.5 58.8l-.3.3M118.2 59.1l-.3.2M117.9 59.3h-.7M117.2 59.3l-.3-.2M116.8 59.1l-.3-.3M116.5 58.8l-.2-.7M116.3 58.1v-1.2M116.3 56.9l.2-.7M116.5 56.2l.3-.3M116.8 55.9l.3-.2M122.3 59.3l-1.2-1.7M120.3 59.3v-3.6M120.3 55.7h1.4M121.6 55.7l.3.2M122 55.9l.2.2M122.1 56l.2.3M122.3 56.4v.5M122.3 56.9l-.2.3M122.1 57.2l-.2.2M122 57.4l-.3.2M121.6 57.6h-1.4M96.1 48.5h2.1M97.1 52.1v-3.6M100 48.5h.7M100.7 48.5l.3.2M101.1 48.7l.3.3M101.4 49l.2.7M101.6 49.7v1.2M101.6 50.9l-.2.7M101.4 51.6l-.3.3M101.1 51.9l-.3.2M100.7 52.1h-.7M100 52.1l-.3-.2M99.7 51.9l-.3-.3M99.3 51.6l-.2-.7M99.2 50.9v-1.2M99.2 49.7l.2-.7M99.3 49l.3-.3M99.7 48.7l.3-.2M105.9 52.1v-3.6M105.9 48.5l1.2 2.6M107.1 51.1l1.2-2.6M108.3 48.5v3.6M110.7 48.5h.7M111.3 48.5l.3.2M111.7 48.7l.3.3M112 49l.2.7M112.2 49.7v1.2M112.2 50.9l-.2.7M112 51.6l-.3.3M111.7 51.9l-.3.2M111.3 52.1h-.7M110.7 52.1l-.3-.2M110.3 51.9l-.3-.3M110 51.6l-.2-.7M109.8 50.9v-1.2M109.8 49.7l.2-.7M110 49l.3-.3M110.3 48.7l.3-.2M113.2 48.5h2.1M114.3 52.1v-3.6M117.2 48.5h.7M117.9 48.5l.3.2M118.2 48.7l.3.3M118.5 49l.2.7M118.7 49.7v1.2M118.7 50.9l-.2.7M118.5 51.6l-.3.3M118.2 51.9l-.3.2M117.9 52.1h-.7M117.2 52.1l-.3-.2M116.8 51.9l-.3-.3M116.5 51.6l-.2-.7M116.3 50.9v-1.2M116.3 49.7l.2-.7M116.5 49l.3-.3M116.8 48.7l.3-.2M122.3 52.1l-1.2-1.7M120.3 52.1v-3.6M120.3 48.5h1.4M121.6 48.5l.3.2M122 48.7l.2.2M122.1 48.8l.2.3M122.3 49.2v.5M122.3 49.7l-.2.3M122.1 50l-.2.2M122 50.2l-.3.2M121.6 50.4h-1.4M1.5 34.1h2.1M2.5 37.7v-3.6M5.5 34.1h.7M6.1 34.1l.3.2M6.5 34.3l.3.3M6.8 34.6l.2.7M7 35.3v1.2M7 36.5l-.2.7M6.8 37.2l-.3.3M6.5 37.5l-.3.2M6.1 37.7h-.7M5.5 37.7l-.3-.2M5.1 37.5l-.3-.3M4.8 37.2l-.2-.7M4.6 36.5v-1.2M4.6 35.3l.2-.7M4.8 34.6l.3-.3M5.1 34.3l.3-.2M12.5 35.8l.5.2M13 36l.2.2M13.2 36.2l.2.3M13.3 36.5v.5M13.3 37l-.2.3M13.2 37.4l-.2.2M13 37.5l-.3.2M12.7 37.7h-1.4M11.3 37.7v-3.6M11.3 34.1h1.2M12.5 34.1l.3.2M12.8 34.3l.2.2M13 34.4l.2.3M13.2 34.8v.3M13.2 35.1l-.2.3M13 35.5l-.2.2M12.8 35.6l-.3.2M12.5 35.8h-1.2M15.6 34.1h.7M16.3 34.1l.3.2M16.6 34.3l.3.3M16.9 34.6l.2.7M17.1 35.3v1.2M17.1 36.5l-.2.7M16.9 37.2l-.3.3M16.6 37.5l-.3.2M16.3 37.7h-.7M15.6 37.7l-.3-.2M15.2 37.5l-.3-.3M14.9 37.2l-.2-.7M14.7 36.5v-1.2M14.7 35.3l.2-.7M14.9 34.6l.3-.3M15.2 34.3l.3-.2M18.5 36.7h1.7M18.1 37.7l1.2-3.6M19.3 34.1l1.2 3.6M23.8 37.7 22.6 36M21.7 37.7v-3.6M21.7 34.1h1.4M23.1 34.1l.3.2M23.5 34.3l.2.2M23.6 34.4l.2.3M23.8 34.8v.5M23.8 35.3l-.2.3M23.6 35.6l-.2.2M23.5 35.8l-.3.2M23.1 36h-1.4M25.3 37.7v-3.6M25.3 34.1h.9M26.2 34.1l.5.2M26.7 34.3l.3.3M27.1 34.6l.2.3M27.2 35l.2.7M27.4 35.6v.5M27.4 36.2l-.2.7M27.2 36.8l-.2.3M27.1 37.2l-.3.3M26.7 37.5l-.5.2M26.2 37.7h-.9M1.5 41.3h2.1M2.5 44.9v-3.6M5.5 41.3h.7M6.1 41.3l.3.2M6.5 41.5l.3.3M6.8 41.8l.2.7M7 42.5v1.2M7 43.7l-.2.7M6.8 44.4l-.3.3M6.5 44.7l-.3.2M6.1 44.9h-.7M5.5 44.9l-.3-.2M5.1 44.7l-.3-.3M4.8 44.4l-.2-.7M4.6 43.7v-1.2M4.6 42.5l.2-.7M4.8 41.8l.3-.3M5.1 41.5l.3-.2M12.5 43l.5.2M13 43.2l.2.2M13.2 43.4l.2.3M13.3 43.7v.5M13.3 44.2l-.2.3M13.2 44.6l-.2.2M13 44.7l-.3.2M12.7 44.9h-1.4M11.3 44.9v-3.6M11.3 41.3h1.2M12.5 41.3l.3.2M12.8 41.5l.2.2M13 41.6l.2.3M13.2 42v.3M13.2 42.3l-.2.3M13 42.7l-.2.2M12.8 42.8l-.3.2M12.5 43h-1.2M15.6 41.3h.7M16.3 41.3l.3.2M16.6 41.5l.3.3M16.9 41.8l.2.7M17.1 42.5v1.2M17.1 43.7l-.2.7M16.9 44.4l-.3.3M16.6 44.7l-.3.2M16.3 44.9h-.7M15.6 44.9l-.3-.2M15.2 44.7l-.3-.3M14.9 44.4l-.2-.7M14.7 43.7v-1.2M14.7 42.5l.2-.7M14.9 41.8l.3-.3M15.2 41.5l.3-.2M18.5 43.9h1.7M18.1 44.9l1.2-3.6M19.3 41.3l1.2 3.6M23.8 44.9l-1.2-1.7M21.7 44.9v-3.6M21.7 41.3h1.4M23.1 41.3l.3.2M23.5 41.5l.2.2M23.6 41.6l.2.3M23.8 42v.5M23.8 42.5l-.2.3M23.6 42.8l-.2.2M23.5 43l-.3.2M23.1 43.2h-1.4M25.3 44.9v-3.6M25.3 41.3h.9M26.2 41.3l.5.2M26.7 41.5l.3.3M27.1 41.8l.2.3M27.2 42.2l.2.7M27.4 42.8v.5M27.4 43.4l-.2.7M27.2 44l-.2.3M27.1 44.4l-.3.3M26.7 44.7l-.5.2M26.2 44.9h-.9"/><path class="st8" d="M69.7 16.3v-3.6M69.7 12.7h.9M70.6 12.7l.5.2M71.1 12.9l.3.3M71.4 13.2l.2.3M71.6 13.6l.2.7M71.8 14.2v.5M71.8 14.8l-.2.7M71.6 15.4l-.2.3M71.4 15.8l-.3.3M71.1 16.1l-.5.2M70.6 16.3h-.9M74.7 16.1l-.3.2M74.3 16.3h-.7M73.7 16.3l-.3-.2M73.3 16.1l-.2-.3M73.1 15.8v-1.4M73.1 14.4l.2-.3M73.3 14.1l.3-.2M73.7 13.9h.7M74.3 13.9l.3.2M74.7 14.1l.2.3M74.9 14.4v.3M74.9 14.8l-1.7.3M77.9 16.3v-3.6M77.9 16.1l-.3.2M77.6 16.3h-.7M76.9 16.3l-.3-.2M76.6 16.1l-.2-.2M76.4 16l-.2-.3M76.2 15.6v-1M76.2 14.6l.2-.3M76.4 14.2l.2-.2M76.6 14.1l.3-.2M76.9 13.9h.7M77.6 13.9l.3.2M79.7 16.3v-2.4M79.7 12.7l-.2.2M79.5 12.9l.2.2M79.7 13l.2-.2M79.8 12.9l-.2-.2M79.7 12.7v.3M82.9 16.1l-.3.2M82.6 16.3h-.7M81.9 16.3l-.3-.2M81.5 16.1l-.2-.2M81.4 16l-.2-.3M81.2 15.6v-1M81.2 14.6l.2-.3M81.4 14.2l.2-.2M81.5 14.1l.3-.2M81.9 13.9h.7M82.6 13.9l.3.2M86 16.3v-1.9M86 14.4l-.2-.3M85.8 14.1l-.3-.2M85.5 13.9h-.7M84.8 13.9l-.3.2M86 16.1l-.3.2M85.7 16.3h-.9M84.8 16.3l-.3-.2M84.5 16.1l-.2-.3M84.3 15.8v-.3M84.3 15.4l.2-.3M84.5 15.1l.3-.2M84.8 14.9h.9M85.7 14.9l.3-.2M87.2 13.9h1.4M87.7 12.7v3.1M87.7 15.8l.2.3M87.9 16.1l.3.2M88.2 16.3h.3M91.1 16.1l-.3.2M90.8 16.3h-.7M90.1 16.3l-.3-.2M89.8 16.1l-.2-.3M89.6 15.8v-1.4M89.6 14.4l.2-.3M89.8 14.1l.3-.2M90.1 13.9h.7M90.8 13.9l.3.2M91.1 14.1l.2.3M91.3 14.4v.3M91.3 14.8l-1.7.3M94.4 16.3v-3.6M94.4 16.1l-.3.2M94.1 16.3h-.7M93.4 16.3l-.3-.2M93 16.1l-.2-.2M92.9 16l-.2-.3M92.7 15.6v-1M92.7 14.6l.2-.3M92.9 14.2l.2-.2M93 14.1l.3-.2M93.4 13.9h.7M94.1 13.9l.3.2M98.9 14.9h2.7M100.2 16.3v-2.7M105 12.7h-1.7M103.3 12.7l-.2 1.7M103.1 14.4l.2-.2M103.3 14.2l.3-.2M103.7 14.1h.9M104.5 14.1l.3.2M104.9 14.2l.2.2M105 14.4l.2.3M105.2 14.8v.9M105.2 15.6l-.2.3M105 16l-.2.2M104.9 16.1l-.3.2M104.5 16.3h-.9M103.7 16.3l-.3-.2M103.3 16.1l-.2-.2M106.2 12.7l1.2 3.6M107.4 16.3l1.2-3.6M112.6 13.9v3.6M112.6 14.1l.3-.2M112.9 13.9h.7M113.6 13.9l.3.2M113.9 14.1l.2.2M114.1 14.2l.2.3M114.3 14.6v1M114.3 15.6l-.2.3M114.1 16l-.2.2M113.9 16.1l-.3.2M113.6 16.3h-.7M112.9 16.3l-.3-.2M116.3 16.3l-.3-.2M116 16.1l-.2-.2M115.8 16l-.2-.3M115.7 15.6v-1M115.7 14.6l.2-.3M115.8 14.2l.2-.2M116 14.1l.3-.2M116.3 13.9h.5M116.9 13.9l.3.2M117.2 14.1l.2.2M117.4 14.2l.2.3M117.5 14.6v1M117.5 15.6l-.2.3M117.4 16l-.2.2M117.2 16.1l-.3.2M116.9 16.3h-.5M118.7 13.9l.7 2.4M119.4 16.3l.7-1.7M120.1 14.6l.7 1.7M120.8 16.3l.7-2.4M124.2 16.1l-.3.2M123.9 16.3h-.7M123.2 16.3l-.3-.2M122.9 16.1l-.2-.3M122.7 15.8v-1.4M122.7 14.4l.2-.3M122.9 14.1l.3-.2M123.2 13.9h.7M123.9 13.9l.3.2M124.2 14.1l.2.3M124.4 14.4v.3M124.4 14.8l-1.7.3M125.9 16.3v-2.4M125.9 14.6l.2-.3M126.1 14.2l.2-.2M126.3 14.1l.3-.2M126.6 13.9h.3M128.3 16.1v.2M128.3 16.3l-.2.3M128.2 16.6l-.2.2M69.7 19.7v2.4M69.7 20l.2-.2M69.9 19.9l.3-.2M70.2 19.7h.5M70.7 19.7l.3.2M71.1 19.9l.2.3M71.3 20.2v1.9M73.5 22.1l-.3-.2M73.1 21.9l-.2-.2M73 21.8l-.2-.3M72.8 21.4v-1M72.8 20.4l.2-.3M73 20l.2-.2M73.1 19.9l.3-.2M73.5 19.7h.5M74 19.7l.3.2M74.3 19.9l.2.2M74.5 20l.2.3M74.7 20.4v1M74.7 21.4l-.2.3M74.5 21.8l-.2.2M74.3 21.9l-.3.2M74 22.1h-.5M75.7 19.7h1.4M76.2 18.5v3.1M76.2 21.6l.2.3M76.4 21.9l.3.2M76.7 22.1h.3M80.5 19.7h1.4M81 22.1V19M81 19l.2-.3M81.2 18.7l.3-.2M81.5 18.5h.3M83.1 22.1v-2.4M83.1 20.4l.2-.3M83.3 20l.2-.2M83.4 19.9l.3-.2M83.8 19.7h.3M85.8 22.1l-.3-.2M85.5 21.9l-.2-.2M85.3 21.8l-.2-.3M85.1 21.4v-1M85.1 20.4l.2-.3M85.3 20l.2-.2M85.5 19.9l.3-.2M85.8 19.7h.5M86.3 19.7l.3.2M86.7 19.9l.2.2M86.9 20l.2.3M87 20.4v1M87 21.4l-.2.3M86.9 21.8l-.2.2M86.7 21.9l-.3.2M86.3 22.1h-.5M88.6 22.1v-2.4M88.6 20l.2-.2M88.7 19.9l.3-.2M89.1 19.7h.5M89.6 19.7l.3.2M89.9 19.9l.2.3M90.1 20.2v1.9M90.1 20.2l.2-.3M90.3 19.9l.3-.2M90.6 19.7h.5M91.1 19.7l.3.2M91.5 19.9l.2.3M91.7 20.2v1.9M97.7 22.1v-1.9M97.7 20.2l-.2-.3M97.5 19.9l-.3-.2M97.1 19.7h-.7M96.5 19.7l-.3.2M97.7 21.9l-.3.2M97.3 22.1h-.9M96.5 22.1l-.3-.2M96.1 21.9l-.2-.3M95.9 21.6v-.3M95.9 21.2l.2-.3M96.1 20.9l.3-.2M96.5 20.7h.9M97.3 20.7l.3-.2M102.1 20.7h2.7M103.5 22.1v-2.7M108.3 18.5h-1.7M106.6 18.5l-.2 1.7M106.4 20.2l.2-.2M106.6 20l.3-.2M106.9 19.9h.9M107.8 19.9l.3.2M108.1 20l.2.2M108.3 20.2l.2.3M108.5 20.6v.9M108.5 21.4l-.2.3M108.3 21.8l-.2.2M108.1 21.9l-.3.2M107.8 22.1h-.9M106.9 22.1l-.3-.2M106.6 21.9l-.2-.2M109.5 18.5l1.2 3.6M110.7 22.1l1.2-3.6M115.8 19.7v3.6M115.8 19.9l.3-.2M116.2 19.7h.7M116.9 19.7l.3.2M117.2 19.9l.2.2M117.4 20l.2.3M117.5 20.4v1M117.5 21.4l-.2.3M117.4 21.8l-.2.2M117.2 21.9l-.3.2M116.9 22.1h-.7M116.2 22.1l-.3-.2M119.1 22.1v-2.4M119.1 18.5l-.2.2M118.9 18.7l.2.2M119.1 18.8l.2-.2M119.3 18.7l-.2-.2M119.1 18.5v.3M120.8 19.7v2.4M120.8 20l.2-.2M121 19.9l.3-.2M121.3 19.7h.5M121.8 19.7l.3.2M122.2 19.9l.2.3M122.3 20.2v1.9M127.3 22.1l-.3-.2M127 21.9l-.2-.2M126.8 21.8l-.2-.3M126.6 21.4v-1M126.6 20.4l.2-.3M126.8 20l.2-.2M127 19.9l.3-.2M127.3 19.7h.5M127.8 19.7l.3.2M128.2 19.9l.2.2M128.3 20l.2.3M128.5 20.4v1M128.5 21.4l-.2.3M128.3 21.8l-.2.2M128.2 21.9l-.3.2M127.8 22.1h-.5M130.1 19.7v2.4M130.1 20l.2-.2M130.2 19.9l.3-.2M130.6 19.7h.5M131.1 19.7l.3.2M131.4 19.9l.2.3M131.6 20.2v1.9M135.5 19.7h1.4M136.1 18.5v3.1M136.1 21.6l.2.3M136.2 21.9l.3.2M136.6 22.1h.3M138.1 22.1v-3.6M139.7 22.1v-1.9M139.7 20.2l-.2-.3M139.5 19.9l-.3-.2M139.1 19.7h-.5M138.6 19.7l-.3.2M138.3 19.9l-.2.2M142.7 21.9l-.3.2M142.4 22.1h-.7M141.7 22.1l-.3-.2M141.4 21.9l-.2-.3M141.2 21.6v-1.4M141.2 20.2l.2-.3M141.4 19.9l.3-.2M141.7 19.7h.7M142.4 19.7l.3.2M142.7 19.9l.2.3M142.9 20.2v.3M142.9 20.6l-1.7.3M147.2 22.1v-3.6M147.2 19.9l.3-.2M147.5 19.7h.7M148.2 19.7l.3.2M148.6 19.9l.2.2M148.7 20l.2.3M148.9 20.4v1M148.9 21.4l-.2.3M148.7 21.8l-.2.2M148.6 21.9l-.3.2M148.2 22.1h-.7M147.5 22.1l-.3-.2M151 22.1l-.3-.2M150.6 21.9l-.2-.2M150.5 21.8l-.2-.3M150.3 21.4v-1M150.3 20.4l.2-.3M150.5 20l.2-.2M150.6 19.9l.3-.2M151 19.7h.5M151.5 19.7l.3.2M151.8 19.9l.2.2M152 20l.2.3M152.2 20.4v1M152.2 21.4l-.2.3M152 21.8l-.2.2M151.8 21.9l-.3.2M151.5 22.1h-.5M155.3 22.1v-1.9M155.3 20.2l-.2-.3M155.1 19.9l-.3-.2M154.7 19.7h-.7M154.1 19.7l-.3.2M155.3 21.9l-.3.2M154.9 22.1h-.9M154.1 22.1l-.3-.2M153.7 21.9l-.2-.3M153.5 21.6v-.3M153.5 21.2l.2-.3M153.7 20.9l.3-.2M154.1 20.7h.9M154.9 20.7l.3-.2M157 22.1v-2.4M157 20.4l.2-.3M157.1 20l.2-.2M157.3 19.9l.3-.2M157.7 19.7h.3M160.7 22.1v-3.6M160.7 21.9l-.3.2M160.4 22.1h-.7M159.7 22.1l-.3-.2M159.4 21.9l-.2-.2M159.2 21.8l-.2-.3M159 21.4v-1M159 20.4l.2-.3M159.2 20l.2-.2M159.4 19.9l.3-.2M159.7 19.7h.7M160.4 19.7l.3.2M162.5 21.8l.2.2M162.6 21.9l-.2.2M162.5 22.1l-.2-.2M162.3 21.9l.2-.2M162.5 21.8v.3"/><path class="st4" d="M.9 53.5h32.4M.9 46.3h32.4M.9 60.7h32.4M90.9 39.1h32.4M90.9 60.7h32.4M90.9 53.5h32.4M90.9 46.3h32.4M.9 39.1h32.4"/><path class="st5" d="m59.3 95-.3-.2M59 94.8h-.5M58.5 94.8l-.5.2M58 95l-.3.3M57.6 95.3l-.2.3M57.5 95.6l-.2.7M57.3 96.3v.5M57.3 96.8l.2.7M57.5 97.5l.2.3M57.6 97.9l.3.3M58 98.2l.5.2M58.5 98.4h.3M58.8 98.4l.5-.2M59.3 98.2l.2-.2M59.5 98v-1.2M59.5 96.8h-.7M61.1 98.4v-3.6M61.1 94.8l2.1 3.6M63.1 98.4v-3.6M64.8 98.4v-3.6M64.8 94.8h.9M65.7 94.8l.5.2M66.2 95l.3.3M66.5 95.3l.2.3M66.7 95.6l.2.7M66.9 96.3v.5M66.9 96.8l-.2.7M66.7 97.5l-.2.3M66.5 97.9l-.3.3M66.2 98.2l-.5.2M65.7 98.4h-.9"/><path class="st11" d="M62.1 82.3h0"/><path class="st5" d="M57.5 3.4h2.7M58.8 4.8V2.1M63.6 1.2h-1.7M61.9 1.2l-.2 1.7M61.7 2.9l.2-.2M61.9 2.7l.3-.2M62.3 2.6h.9M63.1 2.6l.3.2M63.5 2.7l.2.2M63.6 2.9l.2.3M63.8 3.2v.9M63.8 4.1l-.2.3M63.6 4.4l-.2.2M63.5 4.6l-.3.2M63.1 4.8h-.9M62.3 4.8l-.3-.2M61.9 4.6l-.2-.2M64.8 1.2 66 4.8M66 4.8l1.2-3.6"/><path class="st11" d="M62.1 17.5h0M62.1 24.7v-7.2"/><path class="st5" d="M62.4 36.6v-2.7M63.7 35.2H61M60.1 30.4v1.7M60.1 32.1l1.7.2M61.8 32.3l-.2-.2M61.7 32.1l-.2-.3M61.5 31.8v-.9M61.5 30.9l.2-.3M61.7 30.6l.2-.2M61.8 30.4l.3-.2M62.2 30.2h.9M63 30.2l.3.2M63.4 30.4l.2.2M63.6 30.6l.2.3M63.7 30.9v.9M63.7 31.8l-.2.3M63.6 32.1l-.2.2M60.1 29.2l3.6-1.2M63.7 28l-3.6-1.2"/><path class="st2" d="M60.9 20.1v2.1M60.9 21.1h-3.6M57.3 21.1l.5.3M57.8 21.5l.3.3M58.2 21.8l.2.3"/><path class="st11" d="M62.1 75.1v7.2"/><path class="st5" d="m60.3 70.7-.2.3M60.1 71v.5M60.1 71.5l.2.5M60.3 72.1l.3.3M60.6 72.4l.3.2M61 72.6l.7.2M61.7 72.7h.5M62.2 72.7l.7-.2M62.9 72.6l.3-.2M63.2 72.4l.3-.3M63.6 72.1l.2-.5M63.7 71.5v-.3M63.7 71.2l-.2-.5M63.6 70.7l-.2-.2M63.4 70.5h-1.2M62.2 70.5v.7M63.7 69h-3.6M60.1 69l3.6-2.1M63.7 66.9h-3.6M63.7 65.2h-3.6M60.1 65.2v-.9M60.1 64.3l.2-.5M60.3 63.8l.3-.3M60.6 63.5l.3-.2M61 63.3l.7-.2M61.7 63.1h.5M62.2 63.1l.7.2M62.9 63.3l.3.2M63.2 63.5l.3.3M63.6 63.8l.2.5M63.7 64.3v.9"/><path class="st2" d="m57.6 79.8-.2-.2M57.5 79.6l-.2-.3M57.3 79.3v-.9M57.3 78.4l.2-.3M57.5 78.1l.2-.2M57.6 77.9l.3-.2M58 77.7h.3M58.3 77.7l.5.2M58.8 77.9l2.1 2.1M60.9 79.9v-2.2"/><path class="st11" d="M83.7 39.1h7.2"/><path class="st5" d="M79.6 39.8h1.7M79.2 40.8l1.2-3.6M80.4 37.2l1.2 3.6"/><path class="st2" d="M86.4 36.9h1.7M86.1 38l1.2-3.6M87.3 34.4l1.2 3.6"/><path class="st11" d="M83.7 46.3h7.2"/><path class="st5" d="m80.4 46.1.5.2M80.9 46.3l.2.2M81.1 46.4l.2.3M81.3 46.8v.5M81.3 47.3l-.2.3M81.1 47.6l-.2.2M80.9 47.8l-.3.2M80.6 48h-1.4M79.2 48v-3.6M79.2 44.4h1.2M80.4 44.4l.3.2M80.8 44.6l.2.2M80.9 44.7l.2.3M81.1 45.1v.3M81.1 45.4l-.2.3M80.9 45.8l-.2.2M80.8 45.9l-.3.2M80.4 46.1h-1.2"/><path class="st2" d="m87.5 43.3.5.2M88.1 43.4l.2.2M88.2 43.6l.2.3M88.4 44v.5M88.4 44.5l-.2.3M88.2 44.8l-.2.2M88.1 45l-.3.2M87.7 45.2h-1.4M86.3 45.2v-3.6M86.3 41.6h1.2M87.5 41.6l.3.2M87.9 41.7l.2.2M88.1 41.9l.2.3M88.2 42.2v.3M88.2 42.6l-.2.3M88.1 42.9l-.2.2M87.9 43.1l-.3.2M87.5 43.3h-1.2"/><path class="st11" d="M83.7 53.5h7.2"/><path class="st5" d="m81.3 54.8-.2.2M81.1 55l-.5.2M80.6 55.2h-.3M80.3 55.2l-.5-.2M79.7 55l-.3-.3M79.4 54.7l-.2-.3M79.2 54.3l-.2-.7M79.1 53.6v-.5M79.1 53.1l.2-.7M79.2 52.4l.2-.3M79.4 52.1l.3-.3M79.7 51.8l.5-.2M80.3 51.6h.3M80.6 51.6l.5.2M81.1 51.8l.2.2"/><path class="st2" d="m88.4 52-.2.2M88.2 52.2l-.5.2M87.7 52.4h-.3M87.4 52.4l-.5-.2M86.9 52.2l-.3-.3M86.5 51.8l-.2-.3M86.3 51.5l-.2-.7M86.2 50.8v-.5M86.2 50.3l.2-.7M86.3 49.6l.2-.3M86.5 49.3l.3-.3M86.9 48.9l.5-.2M87.4 48.8h.3M87.7 48.8l.5.2M88.2 48.9l.2.2"/><path class="st11" d="M83.7 60.7h7.2"/><path class="st5" d="M79.2 62.4v-3.6M79.2 58.8h.9M80.1 58.8l.5.2M80.6 59l.3.3M80.9 59.3l.2.3M81.1 59.6l.2.7M81.3 60.3v.5M81.3 60.8l-.2.7M81.1 61.5l-.2.3M80.9 61.9l-.3.3M80.6 62.2l-.5.2M80.1 62.4h-.9"/><path class="st2" d="M86.3 59.6V56M86.3 56h.9M87.2 56l.5.2M87.7 56.1l.3.3M88.1 56.5l.2.3M88.2 56.8l.2.7M88.4 57.5v.5M88.4 58l-.2.7M88.2 58.7l-.2.3M88.1 59l-.3.3M87.7 59.4l-.5.2M87.2 59.6h-.9"/><path class="st11" d="M40.5 39.1h-7.2"/><path class="st5" d="M43.1 40.8v-3.6M44.8 40.8v-3.6M44.8 37.2l2.1 3.6M46.8 40.8v-3.6M50.4 40.8h-2.1M49.4 40.8v-3.6M49.4 37.2l-.3.5M49.1 37.7l-.3.3M48.7 38l-.3.2"/><path class="st2" d="M33.3 38v-3.6M35 38v-3.6M35 34.4l2.1 3.6M37.1 38v-3.6M40.7 38h-2.1M39.6 38v-3.6M39.6 34.4l-.3.5M39.3 34.9l-.3.3M38.9 35.2l-.3.2"/><path class="st11" d="M40.5 46.3h-7.2"/><path class="st5" d="M43.1 48v-3.6M44.8 48v-3.6M44.8 44.4l2.1 3.6M46.8 48v-3.6M48.4 44.7l.2-.2M48.6 44.6l.3-.2M48.9 44.4h.9M49.8 44.4l.3.2M50.1 44.6l.2.2M50.3 44.7l.2.3M50.4 45.1v.3M50.4 45.4l-.2.5M50.3 45.9 48.2 48M48.2 48h2.2"/><path class="st2" d="M33.3 45.2v-3.6M35 45.2v-3.6M35 41.6l2.1 3.6M37.1 45.2v-3.6M38.6 41.9l.2-.2M38.8 41.7l.3-.2M39.1 41.6h.9M40 41.6l.3.2M40.3 41.7l.2.2M40.5 41.9l.2.3M40.7 42.2v.3M40.7 42.6l-.2.5M40.5 43.1l-2.1 2.1M38.4 45.2h2.2"/><path class="st11" d="M40.5 53.5h-7.2"/><path class="st5" d="M43.1 55.2v-3.6M44.8 55.2v-3.6M44.8 51.6l2.1 3.6M46.8 55.2v-3.6M48.2 51.6h2.2M50.4 51.6 49.2 53M49.2 53h.5M49.8 53l.3.2M50.1 53.1l.2.2M50.3 53.3l.2.3M50.4 53.6v.9M50.4 54.5l-.2.3M50.3 54.8l-.2.2M50.1 55l-.3.2M49.8 55.2h-1M48.7 55.2l-.3-.2M48.4 55l-.2-.2"/><path class="st2" d="M33.3 52.4v-3.6M35 52.4v-3.6M35 48.8l2.1 3.6M37.1 52.4v-3.6M38.4 48.8h2.2M40.7 48.8l-1.2 1.4M39.5 50.1h.5M40 50.1l.3.2M40.3 50.3l.2.2M40.5 50.5l.2.3M40.7 50.8v.9M40.7 51.7l-.2.3M40.5 52l-.2.2M40.3 52.2l-.3.2M40 52.4h-1M38.9 52.4l-.3-.2M38.6 52.2l-.2-.2"/><path class="st11" d="M40.5 60.7h-7.2"/><path class="st5" d="M43.1 62.4v-3.6M44.8 62.4v-3.6M44.8 58.8l2.1 3.6M46.8 62.4v-3.6M50.1 60v2.4M49.2 58.6l-.9 2.6M48.4 61.2h2.2"/><path class="st2" d="M33.3 59.6V56M35 59.6V56M35 56l2.1 3.6M37.1 59.6V56M40.3 57.2v2.4M39.5 55.8l-.9 2.6M38.6 58.4h2.2"/></svg>